%TF.GenerationSoftware,KiCad,Pcbnew,10.0.5*%
%TF.CreationDate,2000-01-01T00:00:00+00:00*%
%TF.ProjectId,reva,72657661-2e6b-4696-9361-645f70636258,rev?*%
%TF.SameCoordinates,Original*%
%TF.FileFunction,Soldermask,Top*%
%TF.FilePolarity,Negative*%
%FSLAX46Y46*%
G04 Gerber Fmt 4.6, Leading zero omitted, Abs format (unit mm)*
G04 Created by KiCad (PCBNEW 10.0.5) date 2000-01-01 00:00:00*
%MOMM*%
%LPD*%
G01*
G04 APERTURE LIST*
G04 Aperture macros list*
%AMRoundRect*
0 Rectangle with rounded corners*
0 $1 Rounding radius*
0 $2 $3 $4 $5 $6 $7 $8 $9 X,Y pos of 4 corners*
0 Add a 4 corners polygon primitive as box body*
4,1,4,$2,$3,$4,$5,$6,$7,$8,$9,$2,$3,0*
0 Add four circle primitives for the rounded corners*
1,1,$1+$1,$2,$3*
1,1,$1+$1,$4,$5*
1,1,$1+$1,$6,$7*
1,1,$1+$1,$8,$9*
0 Add four rect primitives between the rounded corners*
20,1,$1+$1,$2,$3,$4,$5,0*
20,1,$1+$1,$4,$5,$6,$7,0*
20,1,$1+$1,$6,$7,$8,$9,0*
20,1,$1+$1,$8,$9,$2,$3,0*%
%AMFreePoly0*
4,1,25,0.448997,1.021996,0.461120,1.011642,1.011642,0.461120,1.040149,0.405172,1.041400,0.389278,1.041400,-0.389278,1.021996,-0.448997,1.011642,-0.461120,0.461120,-1.011642,0.405172,-1.040149,0.389278,-1.041400,-0.389278,-1.041400,-0.448997,-1.021996,-0.461120,-1.011642,-1.011642,-0.461120,-1.040149,-0.405172,-1.041400,-0.389278,-1.041400,0.389278,-1.021996,0.448997,-1.011642,0.461120,
-0.461120,1.011642,-0.405172,1.040149,-0.389278,1.041400,0.389278,1.041400,0.448997,1.021996,0.448997,1.021996,$1*%
G04 Aperture macros list end*
%ADD10R,1.930000X1.830000*%
%ADD11C,2.130000*%
%ADD12O,2.720000X3.240000*%
%ADD13R,1.800000X1.800000*%
%ADD14C,1.800000*%
%ADD15RoundRect,0.400000X-0.400000X-0.400000X0.400000X-0.400000X0.400000X0.400000X-0.400000X0.400000X0*%
%ADD16C,1.200000*%
%ADD17C,1.400000*%
%ADD18FreePoly0,0.000000*%
%ADD19FreePoly0,90.000000*%
%ADD20RoundRect,0.250000X0.600000X-0.600000X0.600000X0.600000X-0.600000X0.600000X-0.600000X-0.600000X0*%
%ADD21C,1.700000*%
G04 APERTURE END LIST*
D10*
%TO.C,J12*%
X202800000Y-106270000D03*
D11*
X202800000Y-117670000D03*
X202800000Y-109370000D03*
%TD*%
D10*
%TO.C,J15*%
X237300000Y-106270000D03*
D11*
X237300000Y-117670000D03*
X237300000Y-109370000D03*
%TD*%
D12*
%TO.C,RV70*%
X238000000Y-95000000D03*
X228400000Y-95000000D03*
D13*
X235700000Y-87500000D03*
D14*
X233200000Y-87500000D03*
X230700000Y-87500000D03*
%TD*%
D12*
%TO.C,RV34*%
X134200000Y-95000000D03*
X124600000Y-95000000D03*
D13*
X131900000Y-87500000D03*
D14*
X129400000Y-87500000D03*
X126900000Y-87500000D03*
%TD*%
D12*
%TO.C,RV46*%
X197600000Y-74875000D03*
X188000000Y-74875000D03*
D13*
X195300000Y-67375000D03*
D14*
X192800000Y-67375000D03*
X190300000Y-67375000D03*
%TD*%
D10*
%TO.C,J13*%
X214300000Y-106270000D03*
D11*
X214300000Y-117670000D03*
X214300000Y-109370000D03*
%TD*%
D10*
%TO.C,J4*%
X67500000Y-106270000D03*
D11*
X67500000Y-117670000D03*
X67500000Y-109370000D03*
%TD*%
D13*
%TO.C,D11*%
X204829999Y-83683000D03*
D14*
X207369999Y-83683000D03*
%TD*%
D10*
%TO.C,J10*%
X168800000Y-106270000D03*
D11*
X168800000Y-117670000D03*
X168800000Y-109370000D03*
%TD*%
D13*
%TO.C,D12*%
X238829999Y-81533000D03*
D14*
X241369999Y-81533000D03*
%TD*%
D12*
%TO.C,RV58*%
X228400000Y-14500000D03*
X238000000Y-14500000D03*
D13*
X230700000Y-22000000D03*
D14*
X233200000Y-22000000D03*
X235700000Y-22000000D03*
%TD*%
D12*
%TO.C,RV73*%
X298600000Y-95000000D03*
X289000000Y-95000000D03*
D13*
X296300000Y-87500000D03*
D14*
X293800000Y-87500000D03*
X291300000Y-87500000D03*
%TD*%
D13*
%TO.C,D8*%
X135030000Y-61408000D03*
D14*
X137570000Y-61408000D03*
%TD*%
D12*
%TO.C,RV10*%
X36000000Y-54750000D03*
X26400000Y-54750000D03*
D13*
X33700000Y-47250000D03*
D14*
X31200000Y-47250000D03*
X28700000Y-47250000D03*
%TD*%
D13*
%TO.C,D15*%
X280030000Y-112750000D03*
D14*
X282570000Y-112750000D03*
%TD*%
D12*
%TO.C,RV17*%
X15800000Y-95000000D03*
X6200000Y-95000000D03*
D13*
X13500000Y-87500000D03*
D14*
X11000000Y-87500000D03*
X8500000Y-87500000D03*
%TD*%
D12*
%TO.C,RV36*%
X170600000Y-14500000D03*
X180200000Y-14500000D03*
D13*
X172900000Y-22000000D03*
D14*
X175400000Y-22000000D03*
X177900000Y-22000000D03*
%TD*%
D13*
%TO.C,D9*%
X175500000Y-114020000D03*
D14*
X175500000Y-111480000D03*
%TD*%
D12*
%TO.C,RV49*%
X197600000Y-95000000D03*
X188000000Y-95000000D03*
D13*
X195300000Y-87500000D03*
D14*
X192800000Y-87500000D03*
X190300000Y-87500000D03*
%TD*%
D10*
%TO.C,J17*%
X260300000Y-106270000D03*
D11*
X260300000Y-117670000D03*
X260300000Y-109370000D03*
%TD*%
D12*
%TO.C,RV18*%
X36000000Y-95000000D03*
X26400000Y-95000000D03*
D13*
X33700000Y-87500000D03*
D14*
X31200000Y-87500000D03*
X28700000Y-87500000D03*
%TD*%
D12*
%TO.C,RV30*%
X116800000Y-74875000D03*
X107200000Y-74875000D03*
D13*
X114500000Y-67375000D03*
D14*
X112000000Y-67375000D03*
X109500000Y-67375000D03*
%TD*%
D10*
%TO.C,J3*%
X56000000Y-106270000D03*
D11*
X56000000Y-117670000D03*
X56000000Y-109370000D03*
%TD*%
D13*
%TO.C,D5*%
X97430000Y-83683000D03*
D14*
X99970000Y-83683000D03*
%TD*%
D12*
%TO.C,RV68*%
X278400000Y-74875000D03*
X268800000Y-74875000D03*
D13*
X276100000Y-67375000D03*
D14*
X273600000Y-67375000D03*
X271100000Y-67375000D03*
%TD*%
D12*
%TO.C,RV55*%
X278400000Y-54750000D03*
X268800000Y-54750000D03*
D13*
X276100000Y-47250000D03*
D14*
X273600000Y-47250000D03*
X271100000Y-47250000D03*
%TD*%
D12*
%TO.C,RV19*%
X56200000Y-95000000D03*
X46600000Y-95000000D03*
D13*
X53900000Y-87500000D03*
D14*
X51400000Y-87500000D03*
X48900000Y-87500000D03*
%TD*%
D13*
%TO.C,D7*%
X129300000Y-114020000D03*
D14*
X129300000Y-111480000D03*
%TD*%
D12*
%TO.C,RV35*%
X147600000Y-14500000D03*
X157200000Y-14500000D03*
D13*
X149900000Y-22000000D03*
D14*
X152400000Y-22000000D03*
X154900000Y-22000000D03*
%TD*%
D12*
%TO.C,RV33*%
X116800000Y-95000000D03*
X107200000Y-95000000D03*
D13*
X114500000Y-87500000D03*
D14*
X112000000Y-87500000D03*
X109500000Y-87500000D03*
%TD*%
D12*
%TO.C,RV2*%
X26400000Y-14500000D03*
X36000000Y-14500000D03*
D13*
X28700000Y-22000000D03*
D14*
X31200000Y-22000000D03*
X33700000Y-22000000D03*
%TD*%
D15*
%TO.C,SW2*%
X190300000Y-11800000D03*
X192800000Y-11800000D03*
X195300000Y-11800000D03*
X190300000Y-17200000D03*
X192800000Y-17200000D03*
X195300000Y-17200000D03*
%TD*%
D12*
%TO.C,RV45*%
X180200000Y-74875000D03*
X170600000Y-74875000D03*
D13*
X177900000Y-67375000D03*
D14*
X175400000Y-67375000D03*
X172900000Y-67375000D03*
%TD*%
D12*
%TO.C,RV29*%
X96600000Y-74875000D03*
X87000000Y-74875000D03*
D13*
X94300000Y-67375000D03*
D14*
X91800000Y-67375000D03*
X89300000Y-67375000D03*
%TD*%
D12*
%TO.C,RV31*%
X134200000Y-74875000D03*
X124600000Y-74875000D03*
D13*
X131900000Y-67375000D03*
D14*
X129400000Y-67375000D03*
X126900000Y-67375000D03*
%TD*%
D12*
%TO.C,RV52*%
X289000000Y-14500000D03*
X298600000Y-14500000D03*
D13*
X291300000Y-22000000D03*
D14*
X293800000Y-22000000D03*
X296300000Y-22000000D03*
%TD*%
D10*
%TO.C,J7*%
X102000000Y-106270000D03*
D11*
X102000000Y-117670000D03*
X102000000Y-109370000D03*
%TD*%
D12*
%TO.C,RV20*%
X76400000Y-95000000D03*
X66800000Y-95000000D03*
D13*
X74100000Y-87500000D03*
D14*
X71600000Y-87500000D03*
X69100000Y-87500000D03*
%TD*%
D12*
%TO.C,RV1*%
X6200000Y-14500000D03*
X15800000Y-14500000D03*
D13*
X8500000Y-22000000D03*
D14*
X11000000Y-22000000D03*
X13500000Y-22000000D03*
%TD*%
D12*
%TO.C,RV51*%
X268800000Y-14500000D03*
X278400000Y-14500000D03*
D13*
X271100000Y-22000000D03*
D14*
X273600000Y-22000000D03*
X276100000Y-22000000D03*
%TD*%
D10*
%TO.C,J2*%
X44500000Y-106270000D03*
D11*
X44500000Y-117670000D03*
X44500000Y-109370000D03*
%TD*%
D12*
%TO.C,RV54*%
X298600000Y-34625000D03*
X289000000Y-34625000D03*
D13*
X296300000Y-27125000D03*
D14*
X293800000Y-27125000D03*
X291300000Y-27125000D03*
%TD*%
D12*
%TO.C,RV25*%
X134200000Y-34625000D03*
X124600000Y-34625000D03*
D13*
X131900000Y-27125000D03*
D14*
X129400000Y-27125000D03*
X126900000Y-27125000D03*
%TD*%
D12*
%TO.C,RV40*%
X197600000Y-34625000D03*
X188000000Y-34625000D03*
D13*
X195300000Y-27125000D03*
D14*
X192800000Y-27125000D03*
X190300000Y-27125000D03*
%TD*%
D10*
%TO.C,J18*%
X271800000Y-106270000D03*
D11*
X271800000Y-117670000D03*
X271800000Y-109370000D03*
%TD*%
D12*
%TO.C,RV27*%
X134200000Y-54750000D03*
X124600000Y-54750000D03*
D13*
X131900000Y-47250000D03*
D14*
X129400000Y-47250000D03*
X126900000Y-47250000D03*
%TD*%
D12*
%TO.C,RV24*%
X116800000Y-34625000D03*
X107200000Y-34625000D03*
D13*
X114500000Y-27125000D03*
D14*
X112000000Y-27125000D03*
X109500000Y-27125000D03*
%TD*%
D10*
%TO.C,J9*%
X136000000Y-106270000D03*
D11*
X136000000Y-117670000D03*
X136000000Y-109370000D03*
%TD*%
D12*
%TO.C,RV69*%
X217800000Y-95000000D03*
X208200000Y-95000000D03*
D13*
X215500000Y-87500000D03*
D14*
X213000000Y-87500000D03*
X210500000Y-87500000D03*
%TD*%
D15*
%TO.C,SW3*%
X288300000Y-110050000D03*
X290800000Y-110050000D03*
X293300000Y-110050000D03*
X288300000Y-115450000D03*
X290800000Y-115450000D03*
X293300000Y-115450000D03*
%TD*%
D12*
%TO.C,RV71*%
X258200000Y-95000000D03*
X248600000Y-95000000D03*
D13*
X255900000Y-87500000D03*
D14*
X253400000Y-87500000D03*
X250900000Y-87500000D03*
%TD*%
D16*
%TO.C,J_SD*%
X148554000Y-111675000D03*
X149654000Y-110575000D03*
X150754000Y-111675000D03*
X151854000Y-110575000D03*
X152956000Y-111675000D03*
X154056000Y-110575000D03*
X155156000Y-111675000D03*
X156256000Y-110575000D03*
D17*
X148105000Y-114845000D03*
X156705000Y-114845000D03*
%TD*%
D12*
%TO.C,RV8*%
X76400000Y-34625000D03*
X66800000Y-34625000D03*
D13*
X74100000Y-27125000D03*
D14*
X71600000Y-27125000D03*
X69100000Y-27125000D03*
%TD*%
D12*
%TO.C,RV67*%
X258200000Y-74875000D03*
X248600000Y-74875000D03*
D13*
X255900000Y-67375000D03*
D14*
X253400000Y-67375000D03*
X250900000Y-67375000D03*
%TD*%
D12*
%TO.C,RV44*%
X157200000Y-74875000D03*
X147600000Y-74875000D03*
D13*
X154900000Y-67375000D03*
D14*
X152400000Y-67375000D03*
X149900000Y-67375000D03*
%TD*%
D15*
%TO.C,SW4*%
X11500000Y-110050000D03*
X14000000Y-110050000D03*
X16500000Y-110050000D03*
X11500000Y-115450000D03*
X14000000Y-115450000D03*
X16500000Y-115450000D03*
%TD*%
D13*
%TO.C,D14*%
X245230000Y-61408000D03*
D14*
X247770000Y-61408000D03*
%TD*%
D12*
%TO.C,RV59*%
X217800000Y-34625000D03*
X208200000Y-34625000D03*
D13*
X215500000Y-27125000D03*
D14*
X213000000Y-27125000D03*
X210500000Y-27125000D03*
%TD*%
D12*
%TO.C,RV53*%
X278400000Y-34625000D03*
X268800000Y-34625000D03*
D13*
X276100000Y-27125000D03*
D14*
X273600000Y-27125000D03*
X271100000Y-27125000D03*
%TD*%
D13*
%TO.C,D4*%
X63430000Y-81533000D03*
D14*
X65970000Y-81533000D03*
%TD*%
D12*
%TO.C,RV56*%
X298600000Y-54750000D03*
X289000000Y-54750000D03*
D13*
X296300000Y-47250000D03*
D14*
X293800000Y-47250000D03*
X291300000Y-47250000D03*
%TD*%
D12*
%TO.C,RV26*%
X96600000Y-54750000D03*
X87000000Y-54750000D03*
D13*
X94300000Y-47250000D03*
D14*
X91800000Y-47250000D03*
X89300000Y-47250000D03*
%TD*%
D12*
%TO.C,RV48*%
X180200000Y-95000000D03*
X170600000Y-95000000D03*
D13*
X177900000Y-87500000D03*
D14*
X175400000Y-87500000D03*
X172900000Y-87500000D03*
%TD*%
D13*
%TO.C,D6*%
X116730000Y-20308000D03*
D14*
X119270000Y-20308000D03*
%TD*%
D12*
%TO.C,RV6*%
X36000000Y-34625000D03*
X26400000Y-34625000D03*
D13*
X33700000Y-27125000D03*
D14*
X31200000Y-27125000D03*
X28700000Y-27125000D03*
%TD*%
D12*
%TO.C,RV65*%
X217800000Y-74875000D03*
X208200000Y-74875000D03*
D13*
X215500000Y-67375000D03*
D14*
X213000000Y-67375000D03*
X210500000Y-67375000D03*
%TD*%
D12*
%TO.C,RV13*%
X15800000Y-74875000D03*
X6200000Y-74875000D03*
D13*
X13500000Y-67375000D03*
D14*
X11000000Y-67375000D03*
X8500000Y-67375000D03*
%TD*%
D10*
%TO.C,J8*%
X113500000Y-106270000D03*
D11*
X113500000Y-117670000D03*
X113500000Y-109370000D03*
%TD*%
D12*
%TO.C,RV11*%
X56200000Y-54750000D03*
X46600000Y-54750000D03*
D13*
X53900000Y-47250000D03*
D14*
X51400000Y-47250000D03*
X48900000Y-47250000D03*
%TD*%
D10*
%TO.C,J6*%
X90500000Y-106270000D03*
D11*
X90500000Y-117670000D03*
X90500000Y-109370000D03*
%TD*%
D12*
%TO.C,RV14*%
X36000000Y-74875000D03*
X26400000Y-74875000D03*
D13*
X33700000Y-67375000D03*
D14*
X31200000Y-67375000D03*
X28700000Y-67375000D03*
%TD*%
D12*
%TO.C,RV50*%
X248600000Y-14500000D03*
X258200000Y-14500000D03*
D13*
X250900000Y-22000000D03*
D14*
X253400000Y-22000000D03*
X255900000Y-22000000D03*
%TD*%
D12*
%TO.C,RV62*%
X217800000Y-54750000D03*
X208200000Y-54750000D03*
D13*
X215500000Y-47250000D03*
D14*
X213000000Y-47250000D03*
X210500000Y-47250000D03*
%TD*%
D10*
%TO.C,J5*%
X79000000Y-106270000D03*
D11*
X79000000Y-117670000D03*
X79000000Y-109370000D03*
%TD*%
D13*
%TO.C,D2*%
X58300000Y-22428000D03*
D14*
X58300000Y-19888000D03*
%TD*%
D12*
%TO.C,RV47*%
X157200000Y-95000000D03*
X147600000Y-95000000D03*
D13*
X154900000Y-87500000D03*
D14*
X152400000Y-87500000D03*
X149900000Y-87500000D03*
%TD*%
D13*
%TO.C,D1*%
X22230000Y-112750000D03*
D14*
X24770000Y-112750000D03*
%TD*%
D12*
%TO.C,RV22*%
X124600000Y-14500000D03*
X134200000Y-14500000D03*
D13*
X126900000Y-22000000D03*
D14*
X129400000Y-22000000D03*
X131900000Y-22000000D03*
%TD*%
D10*
%TO.C,J11*%
X191300000Y-106270000D03*
D11*
X191300000Y-117670000D03*
X191300000Y-109370000D03*
%TD*%
D13*
%TO.C,D10*%
X188070000Y-20308000D03*
D14*
X185530000Y-20308000D03*
%TD*%
D13*
%TO.C,D3*%
X57029999Y-61408000D03*
D14*
X59569999Y-61408000D03*
%TD*%
D12*
%TO.C,RV72*%
X278400000Y-95000000D03*
X268800000Y-95000000D03*
D13*
X276100000Y-87500000D03*
D14*
X273600000Y-87500000D03*
X271100000Y-87500000D03*
%TD*%
D12*
%TO.C,RV60*%
X238000000Y-34625000D03*
X228400000Y-34625000D03*
D13*
X235700000Y-27125000D03*
D14*
X233200000Y-27125000D03*
X230700000Y-27125000D03*
%TD*%
D12*
%TO.C,RV21*%
X87000000Y-14500000D03*
X96600000Y-14500000D03*
D13*
X89300000Y-22000000D03*
D14*
X91800000Y-22000000D03*
X94300000Y-22000000D03*
%TD*%
D12*
%TO.C,RV37*%
X208200000Y-14500000D03*
X217800000Y-14500000D03*
D13*
X210500000Y-22000000D03*
D14*
X213000000Y-22000000D03*
X215500000Y-22000000D03*
%TD*%
D12*
%TO.C,RV15*%
X56200000Y-74875000D03*
X46600000Y-74875000D03*
D13*
X53900000Y-67375000D03*
D14*
X51400000Y-67375000D03*
X48900000Y-67375000D03*
%TD*%
D12*
%TO.C,RV39*%
X180200000Y-34625000D03*
X170600000Y-34625000D03*
D13*
X177900000Y-27125000D03*
D14*
X175400000Y-27125000D03*
X172900000Y-27125000D03*
%TD*%
D10*
%TO.C,J1*%
X33000000Y-106270000D03*
D11*
X33000000Y-117670000D03*
X33000000Y-109370000D03*
%TD*%
D10*
%TO.C,J14*%
X225800000Y-106270000D03*
D11*
X225800000Y-117670000D03*
X225800000Y-109370000D03*
%TD*%
D12*
%TO.C,RV42*%
X157200000Y-54750000D03*
X147600000Y-54750000D03*
D13*
X154900000Y-47250000D03*
D14*
X152400000Y-47250000D03*
X149900000Y-47250000D03*
%TD*%
D12*
%TO.C,RV4*%
X66800000Y-14500000D03*
X76400000Y-14500000D03*
D13*
X69100000Y-22000000D03*
D14*
X71600000Y-22000000D03*
X74100000Y-22000000D03*
%TD*%
D12*
%TO.C,RV5*%
X15800000Y-34625000D03*
X6200000Y-34625000D03*
D13*
X13500000Y-27125000D03*
D14*
X11000000Y-27125000D03*
X8500000Y-27125000D03*
%TD*%
D13*
%TO.C,D13*%
X246500000Y-22428000D03*
D14*
X246500000Y-19888000D03*
%TD*%
D12*
%TO.C,RV63*%
X238000000Y-54750000D03*
X228400000Y-54750000D03*
D13*
X235700000Y-47250000D03*
D14*
X233200000Y-47250000D03*
X230700000Y-47250000D03*
%TD*%
D12*
%TO.C,RV43*%
X180200000Y-54750000D03*
X170600000Y-54750000D03*
D13*
X177900000Y-47250000D03*
D14*
X175400000Y-47250000D03*
X172900000Y-47250000D03*
%TD*%
D12*
%TO.C,RV16*%
X76400000Y-74875000D03*
X66800000Y-74875000D03*
D13*
X74100000Y-67375000D03*
D14*
X71600000Y-67375000D03*
X69100000Y-67375000D03*
%TD*%
D12*
%TO.C,RV3*%
X46600000Y-14500000D03*
X56200000Y-14500000D03*
D13*
X48900000Y-22000000D03*
D14*
X51400000Y-22000000D03*
X53900000Y-22000000D03*
%TD*%
D12*
%TO.C,RV38*%
X157200000Y-34625000D03*
X147600000Y-34625000D03*
D13*
X154900000Y-27125000D03*
D14*
X152400000Y-27125000D03*
X149900000Y-27125000D03*
%TD*%
D12*
%TO.C,RV66*%
X238000000Y-74875000D03*
X228400000Y-74875000D03*
D13*
X235700000Y-67375000D03*
D14*
X233200000Y-67375000D03*
X230700000Y-67375000D03*
%TD*%
D12*
%TO.C,RV9*%
X15800000Y-54750000D03*
X6200000Y-54750000D03*
D13*
X13500000Y-47250000D03*
D14*
X11000000Y-47250000D03*
X8500000Y-47250000D03*
%TD*%
D12*
%TO.C,RV32*%
X96600000Y-95000000D03*
X87000000Y-95000000D03*
D13*
X94300000Y-87500000D03*
D14*
X91800000Y-87500000D03*
X89300000Y-87500000D03*
%TD*%
D12*
%TO.C,RV61*%
X258200000Y-34625000D03*
X248600000Y-34625000D03*
D13*
X255900000Y-27125000D03*
D14*
X253400000Y-27125000D03*
X250900000Y-27125000D03*
%TD*%
D10*
%TO.C,J16*%
X248800000Y-106270000D03*
D11*
X248800000Y-117670000D03*
X248800000Y-109370000D03*
%TD*%
D12*
%TO.C,RV12*%
X76400000Y-54750000D03*
X66800000Y-54750000D03*
D13*
X74100000Y-47250000D03*
D14*
X71600000Y-47250000D03*
X69100000Y-47250000D03*
%TD*%
D12*
%TO.C,RV57*%
X298600000Y-74875000D03*
X289000000Y-74875000D03*
D13*
X296300000Y-67375000D03*
D14*
X293800000Y-67375000D03*
X291300000Y-67375000D03*
%TD*%
D12*
%TO.C,RV41*%
X197600000Y-54750000D03*
X188000000Y-54750000D03*
D13*
X195300000Y-47250000D03*
D14*
X192800000Y-47250000D03*
X190300000Y-47250000D03*
%TD*%
D15*
%TO.C,SW1*%
X109500000Y-11800000D03*
X112000000Y-11800000D03*
X114500000Y-11800000D03*
X109500000Y-17200000D03*
X112000000Y-17200000D03*
X114500000Y-17200000D03*
%TD*%
D12*
%TO.C,RV7*%
X56200000Y-34625000D03*
X46600000Y-34625000D03*
D13*
X53900000Y-27125000D03*
D14*
X51400000Y-27125000D03*
X48900000Y-27125000D03*
%TD*%
D12*
%TO.C,RV64*%
X258200000Y-54750000D03*
X248600000Y-54750000D03*
D13*
X255900000Y-47250000D03*
D14*
X253400000Y-47250000D03*
X250900000Y-47250000D03*
%TD*%
D12*
%TO.C,RV23*%
X96600000Y-34625000D03*
X87000000Y-34625000D03*
D13*
X94300000Y-27125000D03*
D14*
X91800000Y-27125000D03*
X89300000Y-27125000D03*
%TD*%
D12*
%TO.C,RV28*%
X116800000Y-54750000D03*
X107200000Y-54750000D03*
D13*
X114500000Y-47250000D03*
D14*
X112000000Y-47250000D03*
X109500000Y-47250000D03*
%TD*%
D18*
%TO.C,U_SM*%
X137130000Y-23920000D03*
X137130000Y-26460000D03*
X137130000Y-29000000D03*
X137130000Y-31540000D03*
X137130000Y-34080000D03*
X139670000Y-34080000D03*
X139670000Y-31540000D03*
X139670000Y-29000000D03*
X139670000Y-26460000D03*
X139670000Y-23920000D03*
D19*
X134320000Y-85270000D03*
X136860000Y-85270000D03*
X139400000Y-85270000D03*
X141940000Y-85270000D03*
X144480000Y-85270000D03*
X144480000Y-82730000D03*
X141940000Y-82730000D03*
X139400000Y-82730000D03*
X136860000Y-82730000D03*
X134320000Y-82730000D03*
X160320000Y-85270000D03*
X162860000Y-85270000D03*
X165400000Y-85270000D03*
X167940000Y-85270000D03*
X170480000Y-85270000D03*
X170480000Y-82730000D03*
X167940000Y-82730000D03*
X165400000Y-82730000D03*
X162860000Y-82730000D03*
X160320000Y-82730000D03*
D18*
X165130000Y-23920000D03*
X165130000Y-26460000D03*
X165130000Y-29000000D03*
X165130000Y-31540000D03*
X165130000Y-34080000D03*
X167670000Y-34080000D03*
X167670000Y-31540000D03*
X167670000Y-29000000D03*
X167670000Y-26460000D03*
X167670000Y-23920000D03*
%TD*%
D20*
%TO.C,J_PWR*%
X25700000Y-103750000D03*
D21*
X25700000Y-101210000D03*
X23160000Y-103750000D03*
X23160000Y-101210000D03*
X20620000Y-103750000D03*
X20620000Y-101210000D03*
X18080000Y-103750000D03*
X18080000Y-101210000D03*
X15540000Y-103750000D03*
X15540000Y-101210000D03*
%TD*%
M02*
