%TF.GenerationSoftware,KiCad,Pcbnew,10.0.5*%
%TF.CreationDate,2000-01-01T00:00:00+00:00*%
%TF.ProjectId,reva,72657661-2e6b-4696-9361-645f70636258,rev?*%
%TF.SameCoordinates,Original*%
%TF.FileFunction,Soldermask,Bot*%
%TF.FilePolarity,Negative*%
%FSLAX46Y46*%
G04 Gerber Fmt 4.6, Leading zero omitted, Abs format (unit mm)*
G04 Created by KiCad (PCBNEW 10.0.5) date 2000-01-01 00:00:00*
%MOMM*%
%LPD*%
G01*
G04 APERTURE LIST*
G04 Aperture macros list*
%AMRoundRect*
0 Rectangle with rounded corners*
0 $1 Rounding radius*
0 $2 $3 $4 $5 $6 $7 $8 $9 X,Y pos of 4 corners*
0 Add a 4 corners polygon primitive as box body*
4,1,4,$2,$3,$4,$5,$6,$7,$8,$9,$2,$3,0*
0 Add four circle primitives for the rounded corners*
1,1,$1+$1,$2,$3*
1,1,$1+$1,$4,$5*
1,1,$1+$1,$6,$7*
1,1,$1+$1,$8,$9*
0 Add four rect primitives between the rounded corners*
20,1,$1+$1,$2,$3,$4,$5,0*
20,1,$1+$1,$4,$5,$6,$7,0*
20,1,$1+$1,$6,$7,$8,$9,0*
20,1,$1+$1,$8,$9,$2,$3,0*%
%AMFreePoly0*
4,1,25,0.448997,1.021996,0.461120,1.011642,1.011642,0.461120,1.040149,0.405172,1.041400,0.389278,1.041400,-0.389278,1.021996,-0.448997,1.011642,-0.461120,0.461120,-1.011642,0.405172,-1.040149,0.389278,-1.041400,-0.389278,-1.041400,-0.448997,-1.021996,-0.461120,-1.011642,-1.011642,-0.461120,-1.040149,-0.405172,-1.041400,-0.389278,-1.041400,0.389278,-1.021996,0.448997,-1.011642,0.461120,
-0.461120,1.011642,-0.405172,1.040149,-0.389278,1.041400,0.389278,1.041400,0.448997,1.021996,0.448997,1.021996,$1*%
G04 Aperture macros list end*
%ADD10R,1.930000X1.830000*%
%ADD11C,2.130000*%
%ADD12O,2.720000X3.240000*%
%ADD13R,1.800000X1.800000*%
%ADD14C,1.800000*%
%ADD15RoundRect,0.400000X-0.400000X-0.400000X0.400000X-0.400000X0.400000X0.400000X-0.400000X0.400000X0*%
%ADD16C,1.200000*%
%ADD17C,1.400000*%
%ADD18RoundRect,0.225000X0.250000X-0.225000X0.250000X0.225000X-0.250000X0.225000X-0.250000X-0.225000X0*%
%ADD19RoundRect,0.150000X-0.825000X-0.150000X0.825000X-0.150000X0.825000X0.150000X-0.825000X0.150000X0*%
%ADD20RoundRect,0.225000X-0.225000X-0.250000X0.225000X-0.250000X0.225000X0.250000X-0.225000X0.250000X0*%
%ADD21RoundRect,0.200000X-0.200000X-0.275000X0.200000X-0.275000X0.200000X0.275000X-0.200000X0.275000X0*%
%ADD22RoundRect,0.200000X0.275000X-0.200000X0.275000X0.200000X-0.275000X0.200000X-0.275000X-0.200000X0*%
%ADD23C,1.500000*%
%ADD24RoundRect,0.150000X0.150000X-0.825000X0.150000X0.825000X-0.150000X0.825000X-0.150000X-0.825000X0*%
%ADD25FreePoly0,0.000000*%
%ADD26FreePoly0,90.000000*%
%ADD27RoundRect,0.150000X0.825000X0.150000X-0.825000X0.150000X-0.825000X-0.150000X0.825000X-0.150000X0*%
%ADD28RoundRect,0.250000X-0.250000X-0.475000X0.250000X-0.475000X0.250000X0.475000X-0.250000X0.475000X0*%
%ADD29RoundRect,0.150000X-0.150000X0.825000X-0.150000X-0.825000X0.150000X-0.825000X0.150000X0.825000X0*%
%ADD30RoundRect,0.250000X0.475000X-0.250000X0.475000X0.250000X-0.475000X0.250000X-0.475000X-0.250000X0*%
%ADD31RoundRect,0.250000X-0.475000X0.250000X-0.475000X-0.250000X0.475000X-0.250000X0.475000X0.250000X0*%
%ADD32RoundRect,0.250000X-1.000000X-0.650000X1.000000X-0.650000X1.000000X0.650000X-1.000000X0.650000X0*%
%ADD33RoundRect,0.250000X0.945000X-0.785000X0.945000X0.785000X-0.945000X0.785000X-0.945000X-0.785000X0*%
%ADD34RoundRect,0.225000X0.225000X0.250000X-0.225000X0.250000X-0.225000X-0.250000X0.225000X-0.250000X0*%
%ADD35RoundRect,0.375000X0.375000X-0.625000X0.375000X0.625000X-0.375000X0.625000X-0.375000X-0.625000X0*%
%ADD36RoundRect,0.500000X1.400000X-0.500000X1.400000X0.500000X-1.400000X0.500000X-1.400000X-0.500000X0*%
%ADD37RoundRect,0.250000X0.600000X-0.600000X0.600000X0.600000X-0.600000X0.600000X-0.600000X-0.600000X0*%
%ADD38C,1.700000*%
G04 APERTURE END LIST*
D10*
%TO.C,J12*%
X202800000Y-106270000D03*
D11*
X202800000Y-117670000D03*
X202800000Y-109370000D03*
%TD*%
D10*
%TO.C,J15*%
X237300000Y-106270000D03*
D11*
X237300000Y-117670000D03*
X237300000Y-109370000D03*
%TD*%
D12*
%TO.C,RV70*%
X238000000Y-95000000D03*
X228400000Y-95000000D03*
D13*
X235700000Y-87500000D03*
D14*
X233200000Y-87500000D03*
X230700000Y-87500000D03*
%TD*%
D12*
%TO.C,RV34*%
X134200000Y-95000000D03*
X124600000Y-95000000D03*
D13*
X131900000Y-87500000D03*
D14*
X129400000Y-87500000D03*
X126900000Y-87500000D03*
%TD*%
D12*
%TO.C,RV46*%
X197600000Y-74875000D03*
X188000000Y-74875000D03*
D13*
X195300000Y-67375000D03*
D14*
X192800000Y-67375000D03*
X190300000Y-67375000D03*
%TD*%
D10*
%TO.C,J13*%
X214300000Y-106270000D03*
D11*
X214300000Y-117670000D03*
X214300000Y-109370000D03*
%TD*%
D10*
%TO.C,J4*%
X67500000Y-106270000D03*
D11*
X67500000Y-117670000D03*
X67500000Y-109370000D03*
%TD*%
D13*
%TO.C,D11*%
X204829999Y-83683000D03*
D14*
X207369999Y-83683000D03*
%TD*%
D10*
%TO.C,J10*%
X168800000Y-106270000D03*
D11*
X168800000Y-117670000D03*
X168800000Y-109370000D03*
%TD*%
D13*
%TO.C,D12*%
X238829999Y-81533000D03*
D14*
X241369999Y-81533000D03*
%TD*%
D12*
%TO.C,RV58*%
X228400000Y-14500000D03*
X238000000Y-14500000D03*
D13*
X230700000Y-22000000D03*
D14*
X233200000Y-22000000D03*
X235700000Y-22000000D03*
%TD*%
D12*
%TO.C,RV73*%
X298600000Y-95000000D03*
X289000000Y-95000000D03*
D13*
X296300000Y-87500000D03*
D14*
X293800000Y-87500000D03*
X291300000Y-87500000D03*
%TD*%
D13*
%TO.C,D8*%
X135030000Y-61408000D03*
D14*
X137570000Y-61408000D03*
%TD*%
D12*
%TO.C,RV10*%
X36000000Y-54750000D03*
X26400000Y-54750000D03*
D13*
X33700000Y-47250000D03*
D14*
X31200000Y-47250000D03*
X28700000Y-47250000D03*
%TD*%
D13*
%TO.C,D15*%
X280030000Y-112750000D03*
D14*
X282570000Y-112750000D03*
%TD*%
D12*
%TO.C,RV17*%
X15800000Y-95000000D03*
X6200000Y-95000000D03*
D13*
X13500000Y-87500000D03*
D14*
X11000000Y-87500000D03*
X8500000Y-87500000D03*
%TD*%
D12*
%TO.C,RV36*%
X170600000Y-14500000D03*
X180200000Y-14500000D03*
D13*
X172900000Y-22000000D03*
D14*
X175400000Y-22000000D03*
X177900000Y-22000000D03*
%TD*%
D13*
%TO.C,D9*%
X175500000Y-114020000D03*
D14*
X175500000Y-111480000D03*
%TD*%
D12*
%TO.C,RV49*%
X197600000Y-95000000D03*
X188000000Y-95000000D03*
D13*
X195300000Y-87500000D03*
D14*
X192800000Y-87500000D03*
X190300000Y-87500000D03*
%TD*%
D10*
%TO.C,J17*%
X260300000Y-106270000D03*
D11*
X260300000Y-117670000D03*
X260300000Y-109370000D03*
%TD*%
D12*
%TO.C,RV18*%
X36000000Y-95000000D03*
X26400000Y-95000000D03*
D13*
X33700000Y-87500000D03*
D14*
X31200000Y-87500000D03*
X28700000Y-87500000D03*
%TD*%
D12*
%TO.C,RV30*%
X116800000Y-74875000D03*
X107200000Y-74875000D03*
D13*
X114500000Y-67375000D03*
D14*
X112000000Y-67375000D03*
X109500000Y-67375000D03*
%TD*%
D10*
%TO.C,J3*%
X56000000Y-106270000D03*
D11*
X56000000Y-117670000D03*
X56000000Y-109370000D03*
%TD*%
D13*
%TO.C,D5*%
X97430000Y-83683000D03*
D14*
X99970000Y-83683000D03*
%TD*%
D12*
%TO.C,RV68*%
X278400000Y-74875000D03*
X268800000Y-74875000D03*
D13*
X276100000Y-67375000D03*
D14*
X273600000Y-67375000D03*
X271100000Y-67375000D03*
%TD*%
D12*
%TO.C,RV55*%
X278400000Y-54750000D03*
X268800000Y-54750000D03*
D13*
X276100000Y-47250000D03*
D14*
X273600000Y-47250000D03*
X271100000Y-47250000D03*
%TD*%
D12*
%TO.C,RV19*%
X56200000Y-95000000D03*
X46600000Y-95000000D03*
D13*
X53900000Y-87500000D03*
D14*
X51400000Y-87500000D03*
X48900000Y-87500000D03*
%TD*%
D13*
%TO.C,D7*%
X129300000Y-114020000D03*
D14*
X129300000Y-111480000D03*
%TD*%
D12*
%TO.C,RV35*%
X147600000Y-14500000D03*
X157200000Y-14500000D03*
D13*
X149900000Y-22000000D03*
D14*
X152400000Y-22000000D03*
X154900000Y-22000000D03*
%TD*%
D12*
%TO.C,RV33*%
X116800000Y-95000000D03*
X107200000Y-95000000D03*
D13*
X114500000Y-87500000D03*
D14*
X112000000Y-87500000D03*
X109500000Y-87500000D03*
%TD*%
D12*
%TO.C,RV2*%
X26400000Y-14500000D03*
X36000000Y-14500000D03*
D13*
X28700000Y-22000000D03*
D14*
X31200000Y-22000000D03*
X33700000Y-22000000D03*
%TD*%
D15*
%TO.C,SW2*%
X190300000Y-11800000D03*
X192800000Y-11800000D03*
X195300000Y-11800000D03*
X190300000Y-17200000D03*
X192800000Y-17200000D03*
X195300000Y-17200000D03*
%TD*%
D12*
%TO.C,RV45*%
X180200000Y-74875000D03*
X170600000Y-74875000D03*
D13*
X177900000Y-67375000D03*
D14*
X175400000Y-67375000D03*
X172900000Y-67375000D03*
%TD*%
D12*
%TO.C,RV29*%
X96600000Y-74875000D03*
X87000000Y-74875000D03*
D13*
X94300000Y-67375000D03*
D14*
X91800000Y-67375000D03*
X89300000Y-67375000D03*
%TD*%
D12*
%TO.C,RV31*%
X134200000Y-74875000D03*
X124600000Y-74875000D03*
D13*
X131900000Y-67375000D03*
D14*
X129400000Y-67375000D03*
X126900000Y-67375000D03*
%TD*%
D12*
%TO.C,RV52*%
X289000000Y-14500000D03*
X298600000Y-14500000D03*
D13*
X291300000Y-22000000D03*
D14*
X293800000Y-22000000D03*
X296300000Y-22000000D03*
%TD*%
D10*
%TO.C,J7*%
X102000000Y-106270000D03*
D11*
X102000000Y-117670000D03*
X102000000Y-109370000D03*
%TD*%
D12*
%TO.C,RV20*%
X76400000Y-95000000D03*
X66800000Y-95000000D03*
D13*
X74100000Y-87500000D03*
D14*
X71600000Y-87500000D03*
X69100000Y-87500000D03*
%TD*%
D12*
%TO.C,RV1*%
X6200000Y-14500000D03*
X15800000Y-14500000D03*
D13*
X8500000Y-22000000D03*
D14*
X11000000Y-22000000D03*
X13500000Y-22000000D03*
%TD*%
D12*
%TO.C,RV51*%
X268800000Y-14500000D03*
X278400000Y-14500000D03*
D13*
X271100000Y-22000000D03*
D14*
X273600000Y-22000000D03*
X276100000Y-22000000D03*
%TD*%
D10*
%TO.C,J2*%
X44500000Y-106270000D03*
D11*
X44500000Y-117670000D03*
X44500000Y-109370000D03*
%TD*%
D12*
%TO.C,RV54*%
X298600000Y-34625000D03*
X289000000Y-34625000D03*
D13*
X296300000Y-27125000D03*
D14*
X293800000Y-27125000D03*
X291300000Y-27125000D03*
%TD*%
D12*
%TO.C,RV25*%
X134200000Y-34625000D03*
X124600000Y-34625000D03*
D13*
X131900000Y-27125000D03*
D14*
X129400000Y-27125000D03*
X126900000Y-27125000D03*
%TD*%
D12*
%TO.C,RV40*%
X197600000Y-34625000D03*
X188000000Y-34625000D03*
D13*
X195300000Y-27125000D03*
D14*
X192800000Y-27125000D03*
X190300000Y-27125000D03*
%TD*%
D10*
%TO.C,J18*%
X271800000Y-106270000D03*
D11*
X271800000Y-117670000D03*
X271800000Y-109370000D03*
%TD*%
D12*
%TO.C,RV27*%
X134200000Y-54750000D03*
X124600000Y-54750000D03*
D13*
X131900000Y-47250000D03*
D14*
X129400000Y-47250000D03*
X126900000Y-47250000D03*
%TD*%
D12*
%TO.C,RV24*%
X116800000Y-34625000D03*
X107200000Y-34625000D03*
D13*
X114500000Y-27125000D03*
D14*
X112000000Y-27125000D03*
X109500000Y-27125000D03*
%TD*%
D10*
%TO.C,J9*%
X136000000Y-106270000D03*
D11*
X136000000Y-117670000D03*
X136000000Y-109370000D03*
%TD*%
D12*
%TO.C,RV69*%
X217800000Y-95000000D03*
X208200000Y-95000000D03*
D13*
X215500000Y-87500000D03*
D14*
X213000000Y-87500000D03*
X210500000Y-87500000D03*
%TD*%
D15*
%TO.C,SW3*%
X288300000Y-110050000D03*
X290800000Y-110050000D03*
X293300000Y-110050000D03*
X288300000Y-115450000D03*
X290800000Y-115450000D03*
X293300000Y-115450000D03*
%TD*%
D12*
%TO.C,RV71*%
X258200000Y-95000000D03*
X248600000Y-95000000D03*
D13*
X255900000Y-87500000D03*
D14*
X253400000Y-87500000D03*
X250900000Y-87500000D03*
%TD*%
D16*
%TO.C,J_SD*%
X148554000Y-111675000D03*
X149654000Y-110575000D03*
X150754000Y-111675000D03*
X151854000Y-110575000D03*
X152956000Y-111675000D03*
X154056000Y-110575000D03*
X155156000Y-111675000D03*
X156256000Y-110575000D03*
D17*
X148105000Y-114845000D03*
X156705000Y-114845000D03*
%TD*%
D12*
%TO.C,RV8*%
X76400000Y-34625000D03*
X66800000Y-34625000D03*
D13*
X74100000Y-27125000D03*
D14*
X71600000Y-27125000D03*
X69100000Y-27125000D03*
%TD*%
D12*
%TO.C,RV67*%
X258200000Y-74875000D03*
X248600000Y-74875000D03*
D13*
X255900000Y-67375000D03*
D14*
X253400000Y-67375000D03*
X250900000Y-67375000D03*
%TD*%
D12*
%TO.C,RV44*%
X157200000Y-74875000D03*
X147600000Y-74875000D03*
D13*
X154900000Y-67375000D03*
D14*
X152400000Y-67375000D03*
X149900000Y-67375000D03*
%TD*%
D15*
%TO.C,SW4*%
X11500000Y-110050000D03*
X14000000Y-110050000D03*
X16500000Y-110050000D03*
X11500000Y-115450000D03*
X14000000Y-115450000D03*
X16500000Y-115450000D03*
%TD*%
D13*
%TO.C,D14*%
X245230000Y-61408000D03*
D14*
X247770000Y-61408000D03*
%TD*%
D12*
%TO.C,RV59*%
X217800000Y-34625000D03*
X208200000Y-34625000D03*
D13*
X215500000Y-27125000D03*
D14*
X213000000Y-27125000D03*
X210500000Y-27125000D03*
%TD*%
D12*
%TO.C,RV53*%
X278400000Y-34625000D03*
X268800000Y-34625000D03*
D13*
X276100000Y-27125000D03*
D14*
X273600000Y-27125000D03*
X271100000Y-27125000D03*
%TD*%
D13*
%TO.C,D4*%
X63430000Y-81533000D03*
D14*
X65970000Y-81533000D03*
%TD*%
D12*
%TO.C,RV56*%
X298600000Y-54750000D03*
X289000000Y-54750000D03*
D13*
X296300000Y-47250000D03*
D14*
X293800000Y-47250000D03*
X291300000Y-47250000D03*
%TD*%
D12*
%TO.C,RV26*%
X96600000Y-54750000D03*
X87000000Y-54750000D03*
D13*
X94300000Y-47250000D03*
D14*
X91800000Y-47250000D03*
X89300000Y-47250000D03*
%TD*%
D12*
%TO.C,RV48*%
X180200000Y-95000000D03*
X170600000Y-95000000D03*
D13*
X177900000Y-87500000D03*
D14*
X175400000Y-87500000D03*
X172900000Y-87500000D03*
%TD*%
D13*
%TO.C,D6*%
X116730000Y-20308000D03*
D14*
X119270000Y-20308000D03*
%TD*%
D12*
%TO.C,RV6*%
X36000000Y-34625000D03*
X26400000Y-34625000D03*
D13*
X33700000Y-27125000D03*
D14*
X31200000Y-27125000D03*
X28700000Y-27125000D03*
%TD*%
D12*
%TO.C,RV65*%
X217800000Y-74875000D03*
X208200000Y-74875000D03*
D13*
X215500000Y-67375000D03*
D14*
X213000000Y-67375000D03*
X210500000Y-67375000D03*
%TD*%
D12*
%TO.C,RV13*%
X15800000Y-74875000D03*
X6200000Y-74875000D03*
D13*
X13500000Y-67375000D03*
D14*
X11000000Y-67375000D03*
X8500000Y-67375000D03*
%TD*%
D10*
%TO.C,J8*%
X113500000Y-106270000D03*
D11*
X113500000Y-117670000D03*
X113500000Y-109370000D03*
%TD*%
D12*
%TO.C,RV11*%
X56200000Y-54750000D03*
X46600000Y-54750000D03*
D13*
X53900000Y-47250000D03*
D14*
X51400000Y-47250000D03*
X48900000Y-47250000D03*
%TD*%
D10*
%TO.C,J6*%
X90500000Y-106270000D03*
D11*
X90500000Y-117670000D03*
X90500000Y-109370000D03*
%TD*%
D12*
%TO.C,RV14*%
X36000000Y-74875000D03*
X26400000Y-74875000D03*
D13*
X33700000Y-67375000D03*
D14*
X31200000Y-67375000D03*
X28700000Y-67375000D03*
%TD*%
D12*
%TO.C,RV50*%
X248600000Y-14500000D03*
X258200000Y-14500000D03*
D13*
X250900000Y-22000000D03*
D14*
X253400000Y-22000000D03*
X255900000Y-22000000D03*
%TD*%
D12*
%TO.C,RV62*%
X217800000Y-54750000D03*
X208200000Y-54750000D03*
D13*
X215500000Y-47250000D03*
D14*
X213000000Y-47250000D03*
X210500000Y-47250000D03*
%TD*%
D10*
%TO.C,J5*%
X79000000Y-106270000D03*
D11*
X79000000Y-117670000D03*
X79000000Y-109370000D03*
%TD*%
D13*
%TO.C,D2*%
X58300000Y-22428000D03*
D14*
X58300000Y-19888000D03*
%TD*%
D12*
%TO.C,RV47*%
X157200000Y-95000000D03*
X147600000Y-95000000D03*
D13*
X154900000Y-87500000D03*
D14*
X152400000Y-87500000D03*
X149900000Y-87500000D03*
%TD*%
D13*
%TO.C,D1*%
X22230000Y-112750000D03*
D14*
X24770000Y-112750000D03*
%TD*%
D12*
%TO.C,RV22*%
X124600000Y-14500000D03*
X134200000Y-14500000D03*
D13*
X126900000Y-22000000D03*
D14*
X129400000Y-22000000D03*
X131900000Y-22000000D03*
%TD*%
D10*
%TO.C,J11*%
X191300000Y-106270000D03*
D11*
X191300000Y-117670000D03*
X191300000Y-109370000D03*
%TD*%
D13*
%TO.C,D10*%
X188070000Y-20308000D03*
D14*
X185530000Y-20308000D03*
%TD*%
D13*
%TO.C,D3*%
X57029999Y-61408000D03*
D14*
X59569999Y-61408000D03*
%TD*%
D12*
%TO.C,RV72*%
X278400000Y-95000000D03*
X268800000Y-95000000D03*
D13*
X276100000Y-87500000D03*
D14*
X273600000Y-87500000D03*
X271100000Y-87500000D03*
%TD*%
D12*
%TO.C,RV60*%
X238000000Y-34625000D03*
X228400000Y-34625000D03*
D13*
X235700000Y-27125000D03*
D14*
X233200000Y-27125000D03*
X230700000Y-27125000D03*
%TD*%
D12*
%TO.C,RV21*%
X87000000Y-14500000D03*
X96600000Y-14500000D03*
D13*
X89300000Y-22000000D03*
D14*
X91800000Y-22000000D03*
X94300000Y-22000000D03*
%TD*%
D12*
%TO.C,RV37*%
X208200000Y-14500000D03*
X217800000Y-14500000D03*
D13*
X210500000Y-22000000D03*
D14*
X213000000Y-22000000D03*
X215500000Y-22000000D03*
%TD*%
D12*
%TO.C,RV15*%
X56200000Y-74875000D03*
X46600000Y-74875000D03*
D13*
X53900000Y-67375000D03*
D14*
X51400000Y-67375000D03*
X48900000Y-67375000D03*
%TD*%
D12*
%TO.C,RV39*%
X180200000Y-34625000D03*
X170600000Y-34625000D03*
D13*
X177900000Y-27125000D03*
D14*
X175400000Y-27125000D03*
X172900000Y-27125000D03*
%TD*%
D10*
%TO.C,J1*%
X33000000Y-106270000D03*
D11*
X33000000Y-117670000D03*
X33000000Y-109370000D03*
%TD*%
D10*
%TO.C,J14*%
X225800000Y-106270000D03*
D11*
X225800000Y-117670000D03*
X225800000Y-109370000D03*
%TD*%
D12*
%TO.C,RV42*%
X157200000Y-54750000D03*
X147600000Y-54750000D03*
D13*
X154900000Y-47250000D03*
D14*
X152400000Y-47250000D03*
X149900000Y-47250000D03*
%TD*%
D12*
%TO.C,RV4*%
X66800000Y-14500000D03*
X76400000Y-14500000D03*
D13*
X69100000Y-22000000D03*
D14*
X71600000Y-22000000D03*
X74100000Y-22000000D03*
%TD*%
D12*
%TO.C,RV5*%
X15800000Y-34625000D03*
X6200000Y-34625000D03*
D13*
X13500000Y-27125000D03*
D14*
X11000000Y-27125000D03*
X8500000Y-27125000D03*
%TD*%
D13*
%TO.C,D13*%
X246500000Y-22428000D03*
D14*
X246500000Y-19888000D03*
%TD*%
D12*
%TO.C,RV63*%
X238000000Y-54750000D03*
X228400000Y-54750000D03*
D13*
X235700000Y-47250000D03*
D14*
X233200000Y-47250000D03*
X230700000Y-47250000D03*
%TD*%
D12*
%TO.C,RV43*%
X180200000Y-54750000D03*
X170600000Y-54750000D03*
D13*
X177900000Y-47250000D03*
D14*
X175400000Y-47250000D03*
X172900000Y-47250000D03*
%TD*%
D12*
%TO.C,RV16*%
X76400000Y-74875000D03*
X66800000Y-74875000D03*
D13*
X74100000Y-67375000D03*
D14*
X71600000Y-67375000D03*
X69100000Y-67375000D03*
%TD*%
D12*
%TO.C,RV3*%
X46600000Y-14500000D03*
X56200000Y-14500000D03*
D13*
X48900000Y-22000000D03*
D14*
X51400000Y-22000000D03*
X53900000Y-22000000D03*
%TD*%
D12*
%TO.C,RV38*%
X157200000Y-34625000D03*
X147600000Y-34625000D03*
D13*
X154900000Y-27125000D03*
D14*
X152400000Y-27125000D03*
X149900000Y-27125000D03*
%TD*%
D12*
%TO.C,RV66*%
X238000000Y-74875000D03*
X228400000Y-74875000D03*
D13*
X235700000Y-67375000D03*
D14*
X233200000Y-67375000D03*
X230700000Y-67375000D03*
%TD*%
D12*
%TO.C,RV9*%
X15800000Y-54750000D03*
X6200000Y-54750000D03*
D13*
X13500000Y-47250000D03*
D14*
X11000000Y-47250000D03*
X8500000Y-47250000D03*
%TD*%
D12*
%TO.C,RV32*%
X96600000Y-95000000D03*
X87000000Y-95000000D03*
D13*
X94300000Y-87500000D03*
D14*
X91800000Y-87500000D03*
X89300000Y-87500000D03*
%TD*%
D12*
%TO.C,RV61*%
X258200000Y-34625000D03*
X248600000Y-34625000D03*
D13*
X255900000Y-27125000D03*
D14*
X253400000Y-27125000D03*
X250900000Y-27125000D03*
%TD*%
D10*
%TO.C,J16*%
X248800000Y-106270000D03*
D11*
X248800000Y-117670000D03*
X248800000Y-109370000D03*
%TD*%
D12*
%TO.C,RV12*%
X76400000Y-54750000D03*
X66800000Y-54750000D03*
D13*
X74100000Y-47250000D03*
D14*
X71600000Y-47250000D03*
X69100000Y-47250000D03*
%TD*%
D12*
%TO.C,RV57*%
X298600000Y-74875000D03*
X289000000Y-74875000D03*
D13*
X296300000Y-67375000D03*
D14*
X293800000Y-67375000D03*
X291300000Y-67375000D03*
%TD*%
D12*
%TO.C,RV41*%
X197600000Y-54750000D03*
X188000000Y-54750000D03*
D13*
X195300000Y-47250000D03*
D14*
X192800000Y-47250000D03*
X190300000Y-47250000D03*
%TD*%
D15*
%TO.C,SW1*%
X109500000Y-11800000D03*
X112000000Y-11800000D03*
X114500000Y-11800000D03*
X109500000Y-17200000D03*
X112000000Y-17200000D03*
X114500000Y-17200000D03*
%TD*%
D12*
%TO.C,RV7*%
X56200000Y-34625000D03*
X46600000Y-34625000D03*
D13*
X53900000Y-27125000D03*
D14*
X51400000Y-27125000D03*
X48900000Y-27125000D03*
%TD*%
D12*
%TO.C,RV64*%
X258200000Y-54750000D03*
X248600000Y-54750000D03*
D13*
X255900000Y-47250000D03*
D14*
X253400000Y-47250000D03*
X250900000Y-47250000D03*
%TD*%
D12*
%TO.C,RV23*%
X96600000Y-34625000D03*
X87000000Y-34625000D03*
D13*
X94300000Y-27125000D03*
D14*
X91800000Y-27125000D03*
X89300000Y-27125000D03*
%TD*%
D12*
%TO.C,RV28*%
X116800000Y-54750000D03*
X107200000Y-54750000D03*
D13*
X114500000Y-47250000D03*
D14*
X112000000Y-47250000D03*
X109500000Y-47250000D03*
%TD*%
D18*
%TO.C,C16*%
X259445000Y-79053125D03*
X259445000Y-77503125D03*
%TD*%
%TO.C,C18*%
X76187678Y-72280504D03*
X76187678Y-70730504D03*
%TD*%
D19*
%TO.C,U_MUX0*%
X38825000Y-29007500D03*
X38825000Y-27737500D03*
X38825000Y-26467500D03*
X38825000Y-25197500D03*
X38825000Y-23927500D03*
X38825000Y-22657500D03*
X38825000Y-21387500D03*
X38825000Y-20117500D03*
X43775000Y-20117500D03*
X43775000Y-21387500D03*
X43775000Y-22657500D03*
X43775000Y-23927500D03*
X43775000Y-25197500D03*
X43775000Y-26467500D03*
X43775000Y-27737500D03*
X43775000Y-29007500D03*
%TD*%
D20*
%TO.C,C8*%
X42700000Y-53295000D03*
X44250000Y-53295000D03*
%TD*%
D18*
%TO.C,C_SENSE3*%
X173670000Y-30775000D03*
X173670000Y-29225000D03*
%TD*%
D21*
%TO.C,R11*%
X92041339Y-69642752D03*
X93691339Y-69642752D03*
%TD*%
D22*
%TO.C,R27*%
X183530000Y-21133000D03*
X183530000Y-19483000D03*
%TD*%
D18*
%TO.C,C19*%
X114314999Y-78915375D03*
X114314999Y-77365375D03*
%TD*%
D20*
%TO.C,C10*%
X101049999Y-21365713D03*
X102599999Y-21365713D03*
%TD*%
D23*
%TO.C,TP5*%
X173900000Y-56000000D03*
%TD*%
D21*
%TO.C,R20*%
X58744999Y-59408000D03*
X60394999Y-59408000D03*
%TD*%
D24*
%TO.C,U_SR4*%
X258997499Y-64869750D03*
X257727499Y-64869750D03*
X256457499Y-64869750D03*
X255187499Y-64869750D03*
X253917499Y-64869750D03*
X252647499Y-64869750D03*
X251377499Y-64869750D03*
X250107499Y-64869750D03*
X250107499Y-59919750D03*
X251377499Y-59919750D03*
X252647499Y-59919750D03*
X253917499Y-59919750D03*
X255187499Y-59919750D03*
X256457499Y-59919750D03*
X257727499Y-59919750D03*
X258997499Y-59919750D03*
%TD*%
D21*
%TO.C,R7*%
X190319275Y-43590334D03*
X191969275Y-43590334D03*
%TD*%
%TO.C,R18*%
X23695000Y-114750000D03*
X25345000Y-114750000D03*
%TD*%
D20*
%TO.C,C_SENSE0*%
X136355000Y-20960000D03*
X137905000Y-20960000D03*
%TD*%
D23*
%TO.C,TP4*%
X175516607Y-38462299D03*
%TD*%
D25*
%TO.C,U_SM*%
X137130000Y-23920000D03*
X137130000Y-26460000D03*
X137130000Y-29000000D03*
X137130000Y-31540000D03*
X137130000Y-34080000D03*
X139670000Y-34080000D03*
X139670000Y-31540000D03*
X139670000Y-29000000D03*
X139670000Y-26460000D03*
X139670000Y-23920000D03*
D26*
X134320000Y-85270000D03*
X136860000Y-85270000D03*
X139400000Y-85270000D03*
X141940000Y-85270000D03*
X144480000Y-85270000D03*
X144480000Y-82730000D03*
X141940000Y-82730000D03*
X139400000Y-82730000D03*
X136860000Y-82730000D03*
X134320000Y-82730000D03*
X160320000Y-85270000D03*
X162860000Y-85270000D03*
X165400000Y-85270000D03*
X167940000Y-85270000D03*
X170480000Y-85270000D03*
X170480000Y-82730000D03*
X167940000Y-82730000D03*
X165400000Y-82730000D03*
X162860000Y-82730000D03*
X160320000Y-82730000D03*
D25*
X165130000Y-23920000D03*
X165130000Y-26460000D03*
X165130000Y-29000000D03*
X165130000Y-31540000D03*
X165130000Y-34080000D03*
X167670000Y-34080000D03*
X167670000Y-31540000D03*
X167670000Y-29000000D03*
X167670000Y-26460000D03*
X167670000Y-23920000D03*
%TD*%
D20*
%TO.C,C11*%
X100950000Y-61580000D03*
X102500000Y-61580000D03*
%TD*%
D24*
%TO.C,U_MUX5*%
X257845000Y-82928125D03*
X256575000Y-82928125D03*
X255305000Y-82928125D03*
X254035000Y-82928125D03*
X252765000Y-82928125D03*
X251495000Y-82928125D03*
X250225000Y-82928125D03*
X248955000Y-82928125D03*
X248955000Y-77978125D03*
X250225000Y-77978125D03*
X251495000Y-77978125D03*
X252765000Y-77978125D03*
X254035000Y-77978125D03*
X255305000Y-77978125D03*
X256575000Y-77978125D03*
X257845000Y-77978125D03*
%TD*%
D21*
%TO.C,R32*%
X281745000Y-110750000D03*
X283395000Y-110750000D03*
%TD*%
D22*
%TO.C,R25*%
X131320000Y-56483000D03*
X131320000Y-54833000D03*
%TD*%
D21*
%TO.C,R10*%
X91456338Y-49535609D03*
X93106338Y-49535609D03*
%TD*%
D22*
%TO.C,R24*%
X127300000Y-112305000D03*
X127300000Y-110655000D03*
%TD*%
D23*
%TO.C,TP11*%
X127825380Y-55502007D03*
%TD*%
D27*
%TO.C,U_MUX7*%
X106675000Y-63180000D03*
X106675000Y-64450000D03*
X106675000Y-65720000D03*
X106675000Y-66990000D03*
X106675000Y-68260000D03*
X106675000Y-69530000D03*
X106675000Y-70800000D03*
X106675000Y-72070000D03*
X101725000Y-72070000D03*
X101725000Y-70800000D03*
X101725000Y-69530000D03*
X101725000Y-68260000D03*
X101725000Y-66990000D03*
X101725000Y-65720000D03*
X101725000Y-64450000D03*
X101725000Y-63180000D03*
%TD*%
D22*
%TO.C,R8*%
X173759275Y-44563772D03*
X173759275Y-42913772D03*
%TD*%
D20*
%TO.C,C7*%
X43000000Y-30607500D03*
X44550000Y-30607500D03*
%TD*%
D24*
%TO.C,U_SR3*%
X112714999Y-83090375D03*
X111444999Y-83090375D03*
X110174999Y-83090375D03*
X108904999Y-83090375D03*
X107634999Y-83090375D03*
X106364999Y-83090375D03*
X105094999Y-83090375D03*
X103824999Y-83090375D03*
X103824999Y-78140375D03*
X105094999Y-78140375D03*
X106364999Y-78140375D03*
X107634999Y-78140375D03*
X108904999Y-78140375D03*
X110174999Y-78140375D03*
X111444999Y-78140375D03*
X112714999Y-78140375D03*
%TD*%
%TO.C,U_MUX2*%
X45745000Y-83412500D03*
X44475000Y-83412500D03*
X43205000Y-83412500D03*
X41935000Y-83412500D03*
X40665000Y-83412500D03*
X39395000Y-83412500D03*
X38125000Y-83412500D03*
X36855000Y-83412500D03*
X36855000Y-78462500D03*
X38125000Y-78462500D03*
X39395000Y-78462500D03*
X40665000Y-78462500D03*
X41935000Y-78462500D03*
X43205000Y-78462500D03*
X44475000Y-78462500D03*
X45745000Y-78462500D03*
%TD*%
D23*
%TO.C,TP6*%
X173900000Y-53000000D03*
%TD*%
D24*
%TO.C,U_SR1*%
X109368550Y-44440045D03*
X108098550Y-44440045D03*
X106828550Y-44440045D03*
X105558550Y-44440045D03*
X104288550Y-44440045D03*
X103018550Y-44440045D03*
X101748550Y-44440045D03*
X100478550Y-44440045D03*
X100478550Y-39490045D03*
X101748550Y-39490045D03*
X103018550Y-39490045D03*
X104288550Y-39490045D03*
X105558550Y-39490045D03*
X106828550Y-39490045D03*
X108098550Y-39490045D03*
X109368550Y-39490045D03*
%TD*%
D21*
%TO.C,R13*%
X128083839Y-69310564D03*
X129733839Y-69310564D03*
%TD*%
D18*
%TO.C,C15*%
X236720000Y-38862500D03*
X236720000Y-37312500D03*
%TD*%
%TO.C,C13*%
X184170000Y-60690625D03*
X184170000Y-59140625D03*
%TD*%
D23*
%TO.C,TP13*%
X127865380Y-52502007D03*
%TD*%
%TO.C,TP2*%
X207844999Y-45696250D03*
%TD*%
D28*
%TO.C,C_SD2*%
X150904000Y-113575000D03*
X152804000Y-113575000D03*
%TD*%
D22*
%TO.C,R30*%
X244500000Y-20713000D03*
X244500000Y-19063000D03*
%TD*%
D29*
%TO.C,U_SR5*%
X122285380Y-58502007D03*
X123555380Y-58502007D03*
X124825380Y-58502007D03*
X126095380Y-58502007D03*
X127365380Y-58502007D03*
X128635380Y-58502007D03*
X129905380Y-58502007D03*
X131175380Y-58502007D03*
X131175380Y-63452007D03*
X129905380Y-63452007D03*
X128635380Y-63452007D03*
X127365380Y-63452007D03*
X126095380Y-63452007D03*
X124825380Y-63452007D03*
X123555380Y-63452007D03*
X122285380Y-63452007D03*
%TD*%
D21*
%TO.C,R22*%
X99145000Y-81683000D03*
X100795000Y-81683000D03*
%TD*%
D30*
%TO.C,C3*%
X27119999Y-110429999D03*
X27119999Y-108529999D03*
%TD*%
D21*
%TO.C,R23*%
X118445000Y-18308000D03*
X120095000Y-18308000D03*
%TD*%
D19*
%TO.C,U_MUX8*%
X180696428Y-31748571D03*
X180696428Y-30478571D03*
X180696428Y-29208571D03*
X180696428Y-27938571D03*
X180696428Y-26668571D03*
X180696428Y-25398571D03*
X180696428Y-24128571D03*
X180696428Y-22858571D03*
X185646428Y-22858571D03*
X185646428Y-24128571D03*
X185646428Y-25398571D03*
X185646428Y-26668571D03*
X185646428Y-27938571D03*
X185646428Y-29208571D03*
X185646428Y-30478571D03*
X185646428Y-31748571D03*
%TD*%
D21*
%TO.C,R17*%
X44092500Y-85954999D03*
X45742500Y-85954999D03*
%TD*%
%TO.C,R28*%
X206544999Y-81683000D03*
X208194999Y-81683000D03*
%TD*%
D23*
%TO.C,TP10*%
X121555380Y-55502007D03*
%TD*%
D21*
%TO.C,R14*%
X91187500Y-35329999D03*
X92837500Y-35329999D03*
%TD*%
D20*
%TO.C,C_SENSE2*%
X166895000Y-20960000D03*
X168445000Y-20960000D03*
%TD*%
D31*
%TO.C,C6*%
X29119999Y-94529999D03*
X29119999Y-96429999D03*
%TD*%
D32*
%TO.C,D_N12*%
X27619999Y-113479999D03*
X31619999Y-113479999D03*
%TD*%
D23*
%TO.C,TP12*%
X120095380Y-58502007D03*
%TD*%
D29*
%TO.C,U_SR2*%
X77787678Y-66755504D03*
X79057678Y-66755504D03*
X80327678Y-66755504D03*
X81597678Y-66755504D03*
X82867678Y-66755504D03*
X84137678Y-66755504D03*
X85407678Y-66755504D03*
X86677678Y-66755504D03*
X86677678Y-71705504D03*
X85407678Y-71705504D03*
X84137678Y-71705504D03*
X82867678Y-71705504D03*
X81597678Y-71705504D03*
X80327678Y-71705504D03*
X79057678Y-71705504D03*
X77787678Y-71705504D03*
%TD*%
D18*
%TO.C,C14*%
X287220000Y-38765625D03*
X287220000Y-37215625D03*
%TD*%
D19*
%TO.C,U_MUX1*%
X38825000Y-51695000D03*
X38825000Y-50425000D03*
X38825000Y-49155000D03*
X38825000Y-47885000D03*
X38825000Y-46615000D03*
X38825000Y-45345000D03*
X38825000Y-44075000D03*
X38825000Y-42805000D03*
X43775000Y-42805000D03*
X43775000Y-44075000D03*
X43775000Y-45345000D03*
X43775000Y-46615000D03*
X43775000Y-47885000D03*
X43775000Y-49155000D03*
X43775000Y-50425000D03*
X43775000Y-51695000D03*
%TD*%
D18*
%TO.C,C_SENSE1*%
X131130000Y-30775000D03*
X131130000Y-29225000D03*
%TD*%
D22*
%TO.C,R6*%
X70341775Y-64751272D03*
X70341775Y-63101272D03*
%TD*%
D33*
%TO.C,C_LDO_T*%
X10119999Y-95949999D03*
X10119999Y-91009999D03*
%TD*%
D23*
%TO.C,TP8*%
X123555380Y-66452007D03*
%TD*%
%TO.C,TP15*%
X122405380Y-51502007D03*
%TD*%
D22*
%TO.C,R26*%
X173500000Y-112305000D03*
X173500000Y-110655000D03*
%TD*%
D23*
%TO.C,TP1*%
X78868000Y-41291000D03*
%TD*%
D21*
%TO.C,R16*%
X181857500Y-84454999D03*
X183507500Y-84454999D03*
%TD*%
D24*
%TO.C,U_MUX9*%
X182570000Y-64865625D03*
X181300000Y-64865625D03*
X180030000Y-64865625D03*
X178760000Y-64865625D03*
X177490000Y-64865625D03*
X176220000Y-64865625D03*
X174950000Y-64865625D03*
X173680000Y-64865625D03*
X173680000Y-59915625D03*
X174950000Y-59915625D03*
X176220000Y-59915625D03*
X177490000Y-59915625D03*
X178760000Y-59915625D03*
X180030000Y-59915625D03*
X181300000Y-59915625D03*
X182570000Y-59915625D03*
%TD*%
D21*
%TO.C,R21*%
X65145000Y-79533000D03*
X66795000Y-79533000D03*
%TD*%
D20*
%TO.C,C2*%
X23344999Y-108479999D03*
X24894999Y-108479999D03*
%TD*%
D22*
%TO.C,R1*%
X131317725Y-50958745D03*
X131317725Y-49308745D03*
%TD*%
D24*
%TO.C,U_MUX3*%
X285620000Y-42740625D03*
X284350000Y-42740625D03*
X283080000Y-42740625D03*
X281810000Y-42740625D03*
X280540000Y-42740625D03*
X279270000Y-42740625D03*
X278000000Y-42740625D03*
X276730000Y-42740625D03*
X276730000Y-37790625D03*
X278000000Y-37790625D03*
X279270000Y-37790625D03*
X280540000Y-37790625D03*
X281810000Y-37790625D03*
X283080000Y-37790625D03*
X284350000Y-37790625D03*
X285620000Y-37790625D03*
%TD*%
D28*
%TO.C,C1*%
X19669999Y-108979999D03*
X21569999Y-108979999D03*
%TD*%
D34*
%TO.C,C12*%
X185621427Y-33348571D03*
X184071427Y-33348571D03*
%TD*%
D27*
%TO.C,U_MUX6*%
X106774999Y-22965714D03*
X106774999Y-24235714D03*
X106774999Y-25505714D03*
X106774999Y-26775714D03*
X106774999Y-28045714D03*
X106774999Y-29315714D03*
X106774999Y-30585714D03*
X106774999Y-31855714D03*
X101824999Y-31855714D03*
X101824999Y-30585714D03*
X101824999Y-29315714D03*
X101824999Y-28045714D03*
X101824999Y-26775714D03*
X101824999Y-25505714D03*
X101824999Y-24235714D03*
X101824999Y-22965714D03*
%TD*%
D18*
%TO.C,C20*%
X260597499Y-60694750D03*
X260597499Y-59144750D03*
%TD*%
D23*
%TO.C,TP3*%
X129003749Y-32161428D03*
%TD*%
D21*
%TO.C,R5*%
X71366775Y-44892522D03*
X73016775Y-44892522D03*
%TD*%
D18*
%TO.C,C9*%
X47345000Y-79237500D03*
X47345000Y-77687500D03*
%TD*%
D23*
%TO.C,TP9*%
X118285380Y-61502007D03*
%TD*%
D18*
%TO.C,C21*%
X120685380Y-64227007D03*
X120685380Y-62677007D03*
%TD*%
D22*
%TO.C,R2*%
X131355907Y-43293291D03*
X131355907Y-41643291D03*
%TD*%
D18*
%TO.C,C17*%
X110968550Y-40265045D03*
X110968550Y-38715045D03*
%TD*%
D21*
%TO.C,R31*%
X246945000Y-59408000D03*
X248595000Y-59408000D03*
%TD*%
D24*
%TO.C,U_IN1*%
X80875000Y-63809999D03*
X79605000Y-63809999D03*
X78335000Y-63809999D03*
X77065000Y-63809999D03*
X75795000Y-63809999D03*
X74525000Y-63809999D03*
X73255000Y-63809999D03*
X71985000Y-63809999D03*
X71985000Y-58859999D03*
X73255000Y-58859999D03*
X74525000Y-58859999D03*
X75795000Y-58859999D03*
X77065000Y-58859999D03*
X78335000Y-58859999D03*
X79605000Y-58859999D03*
X80875000Y-58859999D03*
%TD*%
D23*
%TO.C,TP7*%
X173900000Y-50000000D03*
%TD*%
D24*
%TO.C,U_MUX4*%
X235120000Y-43037500D03*
X233850000Y-43037500D03*
X232580000Y-43037500D03*
X231310000Y-43037500D03*
X230040000Y-43037500D03*
X228770000Y-43037500D03*
X227500000Y-43037500D03*
X226230000Y-43037500D03*
X226230000Y-38087500D03*
X227500000Y-38087500D03*
X228770000Y-38087500D03*
X230040000Y-38087500D03*
X231310000Y-38087500D03*
X232580000Y-38087500D03*
X233850000Y-38087500D03*
X235120000Y-38087500D03*
%TD*%
D23*
%TO.C,TP14*%
X125135380Y-51502007D03*
%TD*%
D32*
%TO.C,D_P12*%
X26619999Y-90979999D03*
X30619999Y-90979999D03*
%TD*%
D28*
%TO.C,C5*%
X23169999Y-110479999D03*
X25069999Y-110479999D03*
%TD*%
D22*
%TO.C,R15*%
X131047500Y-36154999D03*
X131047500Y-34504999D03*
%TD*%
D20*
%TO.C,C_SD1*%
X151079000Y-108975000D03*
X152629000Y-108975000D03*
%TD*%
D18*
%TO.C,C22*%
X82475000Y-59634999D03*
X82475000Y-58084999D03*
%TD*%
D21*
%TO.C,R12*%
X129687053Y-45077037D03*
X131337053Y-45077037D03*
%TD*%
D22*
%TO.C,R3*%
X131163179Y-40177836D03*
X131163179Y-38527836D03*
%TD*%
D35*
%TO.C,U_REG*%
X23419999Y-96129999D03*
X21119999Y-96129999D03*
D36*
X21119999Y-89829999D03*
D35*
X18819999Y-96129999D03*
%TD*%
D21*
%TO.C,R29*%
X240544999Y-79533000D03*
X242194999Y-79533000D03*
%TD*%
D18*
%TO.C,C4*%
X13119999Y-96254999D03*
X13119999Y-94704999D03*
%TD*%
D21*
%TO.C,R4*%
X72001775Y-33548772D03*
X73651775Y-33548772D03*
%TD*%
D22*
%TO.C,R9*%
X173276339Y-78141814D03*
X173276339Y-76491814D03*
%TD*%
D37*
%TO.C,J_PWR*%
X25700000Y-103750000D03*
D38*
X25700000Y-101210000D03*
X23160000Y-103750000D03*
X23160000Y-101210000D03*
X20620000Y-103750000D03*
X20620000Y-101210000D03*
X18080000Y-103750000D03*
X18080000Y-101210000D03*
X15540000Y-103750000D03*
X15540000Y-101210000D03*
%TD*%
D22*
%TO.C,R19*%
X56300000Y-20713000D03*
X56300000Y-19063000D03*
%TD*%
M02*
