%TF.GenerationSoftware,KiCad,Pcbnew,10.0.5*%
%TF.CreationDate,2000-01-01T00:00:00+00:00*%
%TF.ProjectId,reva,72657661-2e6b-4696-9361-645f70636258,rev?*%
%TF.SameCoordinates,Original*%
%TF.FileFunction,Copper,L1,Top*%
%TF.FilePolarity,Positive*%
%FSLAX46Y46*%
G04 Gerber Fmt 4.6, Leading zero omitted, Abs format (unit mm)*
G04 Created by KiCad (PCBNEW 10.0.5) date 2000-01-01 00:00:00*
%MOMM*%
%LPD*%
G01*
G04 APERTURE LIST*
G04 Aperture macros list*
%AMRoundRect*
0 Rectangle with rounded corners*
0 $1 Rounding radius*
0 $2 $3 $4 $5 $6 $7 $8 $9 X,Y pos of 4 corners*
0 Add a 4 corners polygon primitive as box body*
4,1,4,$2,$3,$4,$5,$6,$7,$8,$9,$2,$3,0*
0 Add four circle primitives for the rounded corners*
1,1,$1+$1,$2,$3*
1,1,$1+$1,$4,$5*
1,1,$1+$1,$6,$7*
1,1,$1+$1,$8,$9*
0 Add four rect primitives between the rounded corners*
20,1,$1+$1,$2,$3,$4,$5,0*
20,1,$1+$1,$4,$5,$6,$7,0*
20,1,$1+$1,$6,$7,$8,$9,0*
20,1,$1+$1,$8,$9,$2,$3,0*%
%AMOutline5P*
0 Free polygon, 5 corners , with rotation*
0 The origin of the aperture is its center*
0 number of corners: always 5*
0 $1 to $10 corner X, Y*
0 $11 Rotation angle, in degrees counterclockwise*
0 create outline with 5 corners*
4,1,5,$1,$2,$3,$4,$5,$6,$7,$8,$9,$10,$1,$2,$11*%
%AMOutline6P*
0 Free polygon, 6 corners , with rotation*
0 The origin of the aperture is its center*
0 number of corners: always 6*
0 $1 to $12 corner X, Y*
0 $13 Rotation angle, in degrees counterclockwise*
0 create outline with 6 corners*
4,1,6,$1,$2,$3,$4,$5,$6,$7,$8,$9,$10,$11,$12,$1,$2,$13*%
%AMOutline7P*
0 Free polygon, 7 corners , with rotation*
0 The origin of the aperture is its center*
0 number of corners: always 7*
0 $1 to $14 corner X, Y*
0 $15 Rotation angle, in degrees counterclockwise*
0 create outline with 7 corners*
4,1,7,$1,$2,$3,$4,$5,$6,$7,$8,$9,$10,$11,$12,$13,$14,$1,$2,$15*%
%AMOutline8P*
0 Free polygon, 8 corners , with rotation*
0 The origin of the aperture is its center*
0 number of corners: always 8*
0 $1 to $16 corner X, Y*
0 $17 Rotation angle, in degrees counterclockwise*
0 create outline with 8 corners*
4,1,8,$1,$2,$3,$4,$5,$6,$7,$8,$9,$10,$11,$12,$13,$14,$15,$16,$1,$2,$17*%
G04 Aperture macros list end*
%TA.AperFunction,ComponentPad*%
%ADD10R,1.930000X1.830000*%
%TD*%
%TA.AperFunction,ComponentPad*%
%ADD11C,2.130000*%
%TD*%
%TA.AperFunction,ComponentPad*%
%ADD12O,2.720000X3.240000*%
%TD*%
%TA.AperFunction,ComponentPad*%
%ADD13R,1.800000X1.800000*%
%TD*%
%TA.AperFunction,ComponentPad*%
%ADD14C,1.800000*%
%TD*%
%TA.AperFunction,ComponentPad*%
%ADD15RoundRect,0.400000X-0.400000X-0.400000X0.400000X-0.400000X0.400000X0.400000X-0.400000X0.400000X0*%
%TD*%
%TA.AperFunction,ComponentPad*%
%ADD16C,1.200000*%
%TD*%
%TA.AperFunction,ComponentPad*%
%ADD17C,1.400000*%
%TD*%
%TA.AperFunction,ComponentPad*%
%ADD18Outline8P,-0.939800X0.389278X-0.389278X0.939800X0.389278X0.939800X0.939800X0.389278X0.939800X-0.389278X0.389278X-0.939800X-0.389278X-0.939800X-0.939800X-0.389278X0.000000*%
%TD*%
%TA.AperFunction,ComponentPad*%
%ADD19Outline8P,-0.939800X0.389278X-0.389278X0.939800X0.389278X0.939800X0.939800X0.389278X0.939800X-0.389278X0.389278X-0.939800X-0.389278X-0.939800X-0.939800X-0.389278X90.000000*%
%TD*%
%TA.AperFunction,ComponentPad*%
%ADD20RoundRect,0.250000X0.600000X-0.600000X0.600000X0.600000X-0.600000X0.600000X-0.600000X-0.600000X0*%
%TD*%
%TA.AperFunction,ComponentPad*%
%ADD21C,1.700000*%
%TD*%
%TA.AperFunction,ViaPad*%
%ADD22C,0.600000*%
%TD*%
%TA.AperFunction,Conductor*%
%ADD23C,0.250000*%
%TD*%
%TA.AperFunction,Conductor*%
%ADD24C,0.500000*%
%TD*%
G04 APERTURE END LIST*
D10*
%TO.P,J12,S*%
%TO.N,GND*%
X202800000Y-106270000D03*
D11*
%TO.P,J12,T*%
%TO.N,MOD3_B*%
X202800000Y-117670000D03*
%TO.P,J12,TN*%
%TO.N,unconnected-(J12-PadTN)*%
X202800000Y-109370000D03*
%TD*%
D10*
%TO.P,J15,S*%
%TO.N,GND*%
X237300000Y-106270000D03*
D11*
%TO.P,J15,T*%
%TO.N,GATE_B*%
X237300000Y-117670000D03*
%TO.P,J15,TN*%
%TO.N,unconnected-(J15-PadTN)*%
X237300000Y-109370000D03*
%TD*%
D12*
%TO.P,RV70,*%
%TO.N,*%
X238000000Y-95000000D03*
X228400000Y-95000000D03*
D13*
%TO.P,RV70,1*%
%TO.N,GND*%
X235700000Y-87500000D03*
D14*
%TO.P,RV70,2*%
%TO.N,M5_CH4*%
X233200000Y-87500000D03*
%TO.P,RV70,3*%
%TO.N,SM_3V3*%
X230700000Y-87500000D03*
%TD*%
D12*
%TO.P,RV34,*%
%TO.N,*%
X134200000Y-95000000D03*
X124600000Y-95000000D03*
D13*
%TO.P,RV34,1*%
%TO.N,GND*%
X131900000Y-87500000D03*
D14*
%TO.P,RV34,2*%
%TO.N,M7_CH6*%
X129400000Y-87500000D03*
%TO.P,RV34,3*%
%TO.N,SM_3V3*%
X126900000Y-87500000D03*
%TD*%
D12*
%TO.P,RV46,*%
%TO.N,*%
X197600000Y-74875000D03*
X188000000Y-74875000D03*
D13*
%TO.P,RV46,1*%
%TO.N,GND*%
X195300000Y-67375000D03*
D14*
%TO.P,RV46,2*%
%TO.N,M9_CH4*%
X192800000Y-67375000D03*
%TO.P,RV46,3*%
%TO.N,SM_3V3*%
X190300000Y-67375000D03*
%TD*%
D10*
%TO.P,J13,S*%
%TO.N,GND*%
X214300000Y-106270000D03*
D11*
%TO.P,J13,T*%
%TO.N,MOD2_B*%
X214300000Y-117670000D03*
%TO.P,J13,TN*%
%TO.N,unconnected-(J13-PadTN)*%
X214300000Y-109370000D03*
%TD*%
D10*
%TO.P,J4,S*%
%TO.N,GND*%
X67500000Y-106270000D03*
D11*
%TO.P,J4,T*%
%TO.N,GATE_A*%
X67500000Y-117670000D03*
%TO.P,J4,TN*%
%TO.N,unconnected-(J4-PadTN)*%
X67500000Y-109370000D03*
%TD*%
D13*
%TO.P,D11,1*%
%TO.N,GND*%
X204829999Y-83683000D03*
D14*
%TO.P,D11,2*%
%TO.N,LED10_A*%
X207369999Y-83683000D03*
%TD*%
D10*
%TO.P,J10,S*%
%TO.N,GND*%
X168800000Y-106270000D03*
D11*
%TO.P,J10,T*%
%TO.N,RESET*%
X168800000Y-117670000D03*
%TO.P,J10,TN*%
%TO.N,unconnected-(J10-PadTN)*%
X168800000Y-109370000D03*
%TD*%
D13*
%TO.P,D12,1*%
%TO.N,GND*%
X238829999Y-81533000D03*
D14*
%TO.P,D12,2*%
%TO.N,LED11_A*%
X241369999Y-81533000D03*
%TD*%
D12*
%TO.P,RV58,*%
%TO.N,*%
X228400000Y-14500000D03*
X238000000Y-14500000D03*
D13*
%TO.P,RV58,1*%
%TO.N,GND*%
X230700000Y-22000000D03*
D14*
%TO.P,RV58,2*%
%TO.N,M4_CH0*%
X233200000Y-22000000D03*
%TO.P,RV58,3*%
%TO.N,SM_3V3*%
X235700000Y-22000000D03*
%TD*%
D12*
%TO.P,RV73,*%
%TO.N,*%
X298600000Y-95000000D03*
X289000000Y-95000000D03*
D13*
%TO.P,RV73,1*%
%TO.N,GND*%
X296300000Y-87500000D03*
D14*
%TO.P,RV73,2*%
%TO.N,M5_CH7*%
X293800000Y-87500000D03*
%TO.P,RV73,3*%
%TO.N,SM_3V3*%
X291300000Y-87500000D03*
%TD*%
D13*
%TO.P,D8,1*%
%TO.N,GND*%
X135030000Y-61408000D03*
D14*
%TO.P,D8,2*%
%TO.N,LED7_A*%
X137570000Y-61408000D03*
%TD*%
D12*
%TO.P,RV10,*%
%TO.N,*%
X36000000Y-54750000D03*
X26400000Y-54750000D03*
D13*
%TO.P,RV10,1*%
%TO.N,GND*%
X33700000Y-47250000D03*
D14*
%TO.P,RV10,2*%
%TO.N,M1_CH1*%
X31200000Y-47250000D03*
%TO.P,RV10,3*%
%TO.N,SM_3V3*%
X28700000Y-47250000D03*
%TD*%
D13*
%TO.P,D15,1*%
%TO.N,GND*%
X280030000Y-112750000D03*
D14*
%TO.P,D15,2*%
%TO.N,LED14_A*%
X282570000Y-112750000D03*
%TD*%
D12*
%TO.P,RV17,*%
%TO.N,*%
X15800000Y-95000000D03*
X6200000Y-95000000D03*
D13*
%TO.P,RV17,1*%
%TO.N,GND*%
X13500000Y-87500000D03*
D14*
%TO.P,RV17,2*%
%TO.N,M2_CH4*%
X11000000Y-87500000D03*
%TO.P,RV17,3*%
%TO.N,SM_3V3*%
X8500000Y-87500000D03*
%TD*%
D12*
%TO.P,RV36,*%
%TO.N,*%
X170600000Y-14500000D03*
X180200000Y-14500000D03*
D13*
%TO.P,RV36,1*%
%TO.N,GND*%
X172900000Y-22000000D03*
D14*
%TO.P,RV36,2*%
%TO.N,M8_CH1*%
X175400000Y-22000000D03*
%TO.P,RV36,3*%
%TO.N,SM_3V3*%
X177900000Y-22000000D03*
%TD*%
D13*
%TO.P,D9,1*%
%TO.N,GND*%
X175500000Y-114020000D03*
D14*
%TO.P,D9,2*%
%TO.N,LED8_A*%
X175500000Y-111480000D03*
%TD*%
D12*
%TO.P,RV49,*%
%TO.N,*%
X197600000Y-95000000D03*
X188000000Y-95000000D03*
D13*
%TO.P,RV49,1*%
%TO.N,GND*%
X195300000Y-87500000D03*
D14*
%TO.P,RV49,2*%
%TO.N,M9_CH7*%
X192800000Y-87500000D03*
%TO.P,RV49,3*%
%TO.N,SM_3V3*%
X190300000Y-87500000D03*
%TD*%
D10*
%TO.P,J17,S*%
%TO.N,GND*%
X260300000Y-106270000D03*
D11*
%TO.P,J17,T*%
%TO.N,OUT_L*%
X260300000Y-117670000D03*
%TO.P,J17,TN*%
%TO.N,unconnected-(J17-PadTN)*%
X260300000Y-109370000D03*
%TD*%
D12*
%TO.P,RV18,*%
%TO.N,*%
X36000000Y-95000000D03*
X26400000Y-95000000D03*
D13*
%TO.P,RV18,1*%
%TO.N,GND*%
X33700000Y-87500000D03*
D14*
%TO.P,RV18,2*%
%TO.N,M2_CH5*%
X31200000Y-87500000D03*
%TO.P,RV18,3*%
%TO.N,SM_3V3*%
X28700000Y-87500000D03*
%TD*%
D12*
%TO.P,RV30,*%
%TO.N,*%
X116800000Y-74875000D03*
X107200000Y-74875000D03*
D13*
%TO.P,RV30,1*%
%TO.N,GND*%
X114500000Y-67375000D03*
D14*
%TO.P,RV30,2*%
%TO.N,M7_CH2*%
X112000000Y-67375000D03*
%TO.P,RV30,3*%
%TO.N,SM_3V3*%
X109500000Y-67375000D03*
%TD*%
D10*
%TO.P,J3,S*%
%TO.N,GND*%
X56000000Y-106270000D03*
D11*
%TO.P,J3,T*%
%TO.N,PITCH_A*%
X56000000Y-117670000D03*
%TO.P,J3,TN*%
%TO.N,unconnected-(J3-PadTN)*%
X56000000Y-109370000D03*
%TD*%
D13*
%TO.P,D5,1*%
%TO.N,GND*%
X97430000Y-83683000D03*
D14*
%TO.P,D5,2*%
%TO.N,LED4_A*%
X99970000Y-83683000D03*
%TD*%
D12*
%TO.P,RV68,*%
%TO.N,*%
X278400000Y-74875000D03*
X268800000Y-74875000D03*
D13*
%TO.P,RV68,1*%
%TO.N,GND*%
X276100000Y-67375000D03*
D14*
%TO.P,RV68,2*%
%TO.N,M5_CH2*%
X273600000Y-67375000D03*
%TO.P,RV68,3*%
%TO.N,SM_3V3*%
X271100000Y-67375000D03*
%TD*%
D12*
%TO.P,RV55,*%
%TO.N,*%
X278400000Y-54750000D03*
X268800000Y-54750000D03*
D13*
%TO.P,RV55,1*%
%TO.N,GND*%
X276100000Y-47250000D03*
D14*
%TO.P,RV55,2*%
%TO.N,M3_CH5*%
X273600000Y-47250000D03*
%TO.P,RV55,3*%
%TO.N,SM_3V3*%
X271100000Y-47250000D03*
%TD*%
D12*
%TO.P,RV19,*%
%TO.N,*%
X56200000Y-95000000D03*
X46600000Y-95000000D03*
D13*
%TO.P,RV19,1*%
%TO.N,GND*%
X53900000Y-87500000D03*
D14*
%TO.P,RV19,2*%
%TO.N,M2_CH6*%
X51400000Y-87500000D03*
%TO.P,RV19,3*%
%TO.N,SM_3V3*%
X48900000Y-87500000D03*
%TD*%
D13*
%TO.P,D7,1*%
%TO.N,GND*%
X129300000Y-114020000D03*
D14*
%TO.P,D7,2*%
%TO.N,LED6_A*%
X129300000Y-111480000D03*
%TD*%
D12*
%TO.P,RV35,*%
%TO.N,*%
X147600000Y-14500000D03*
X157200000Y-14500000D03*
D13*
%TO.P,RV35,1*%
%TO.N,GND*%
X149900000Y-22000000D03*
D14*
%TO.P,RV35,2*%
%TO.N,M8_CH0*%
X152400000Y-22000000D03*
%TO.P,RV35,3*%
%TO.N,SM_3V3*%
X154900000Y-22000000D03*
%TD*%
D12*
%TO.P,RV33,*%
%TO.N,*%
X116800000Y-95000000D03*
X107200000Y-95000000D03*
D13*
%TO.P,RV33,1*%
%TO.N,GND*%
X114500000Y-87500000D03*
D14*
%TO.P,RV33,2*%
%TO.N,M7_CH5*%
X112000000Y-87500000D03*
%TO.P,RV33,3*%
%TO.N,SM_3V3*%
X109500000Y-87500000D03*
%TD*%
D12*
%TO.P,RV2,*%
%TO.N,*%
X26400000Y-14500000D03*
X36000000Y-14500000D03*
D13*
%TO.P,RV2,1*%
%TO.N,GND*%
X28700000Y-22000000D03*
D14*
%TO.P,RV2,2*%
%TO.N,M0_CH1*%
X31200000Y-22000000D03*
%TO.P,RV2,3*%
%TO.N,SM_3V3*%
X33700000Y-22000000D03*
%TD*%
D15*
%TO.P,SW2,1*%
%TO.N,KEY_REC_B*%
X190300000Y-11800000D03*
%TO.P,SW2,2*%
%TO.N,GND*%
X192800000Y-11800000D03*
%TO.P,SW2,3*%
%TO.N,unconnected-(SW2-C-Pad3)*%
X195300000Y-11800000D03*
%TO.P,SW2,4*%
%TO.N,unconnected-(SW2-A-Pad4)*%
X190300000Y-17200000D03*
%TO.P,SW2,5*%
%TO.N,unconnected-(SW2-B-Pad5)*%
X192800000Y-17200000D03*
%TO.P,SW2,6*%
%TO.N,unconnected-(SW2-C-Pad6)*%
X195300000Y-17200000D03*
%TD*%
D12*
%TO.P,RV45,*%
%TO.N,*%
X180200000Y-74875000D03*
X170600000Y-74875000D03*
D13*
%TO.P,RV45,1*%
%TO.N,GND*%
X177900000Y-67375000D03*
D14*
%TO.P,RV45,2*%
%TO.N,M9_CH3*%
X175400000Y-67375000D03*
%TO.P,RV45,3*%
%TO.N,SM_3V3*%
X172900000Y-67375000D03*
%TD*%
D12*
%TO.P,RV29,*%
%TO.N,*%
X96600000Y-74875000D03*
X87000000Y-74875000D03*
D13*
%TO.P,RV29,1*%
%TO.N,GND*%
X94300000Y-67375000D03*
D14*
%TO.P,RV29,2*%
%TO.N,M7_CH1*%
X91800000Y-67375000D03*
%TO.P,RV29,3*%
%TO.N,SM_3V3*%
X89300000Y-67375000D03*
%TD*%
D12*
%TO.P,RV31,*%
%TO.N,*%
X134200000Y-74875000D03*
X124600000Y-74875000D03*
D13*
%TO.P,RV31,1*%
%TO.N,GND*%
X131900000Y-67375000D03*
D14*
%TO.P,RV31,2*%
%TO.N,M7_CH3*%
X129400000Y-67375000D03*
%TO.P,RV31,3*%
%TO.N,SM_3V3*%
X126900000Y-67375000D03*
%TD*%
D12*
%TO.P,RV52,*%
%TO.N,*%
X289000000Y-14500000D03*
X298600000Y-14500000D03*
D13*
%TO.P,RV52,1*%
%TO.N,GND*%
X291300000Y-22000000D03*
D14*
%TO.P,RV52,2*%
%TO.N,M3_CH2*%
X293800000Y-22000000D03*
%TO.P,RV52,3*%
%TO.N,SM_3V3*%
X296300000Y-22000000D03*
%TD*%
D10*
%TO.P,J7,S*%
%TO.N,GND*%
X102000000Y-106270000D03*
D11*
%TO.P,J7,T*%
%TO.N,MOD3_A*%
X102000000Y-117670000D03*
%TO.P,J7,TN*%
%TO.N,unconnected-(J7-PadTN)*%
X102000000Y-109370000D03*
%TD*%
D12*
%TO.P,RV20,*%
%TO.N,*%
X76400000Y-95000000D03*
X66800000Y-95000000D03*
D13*
%TO.P,RV20,1*%
%TO.N,GND*%
X74100000Y-87500000D03*
D14*
%TO.P,RV20,2*%
%TO.N,M2_CH7*%
X71600000Y-87500000D03*
%TO.P,RV20,3*%
%TO.N,SM_3V3*%
X69100000Y-87500000D03*
%TD*%
D12*
%TO.P,RV1,*%
%TO.N,*%
X6200000Y-14500000D03*
X15800000Y-14500000D03*
D13*
%TO.P,RV1,1*%
%TO.N,GND*%
X8500000Y-22000000D03*
D14*
%TO.P,RV1,2*%
%TO.N,M0_CH0*%
X11000000Y-22000000D03*
%TO.P,RV1,3*%
%TO.N,SM_3V3*%
X13500000Y-22000000D03*
%TD*%
D12*
%TO.P,RV51,*%
%TO.N,*%
X268800000Y-14500000D03*
X278400000Y-14500000D03*
D13*
%TO.P,RV51,1*%
%TO.N,GND*%
X271100000Y-22000000D03*
D14*
%TO.P,RV51,2*%
%TO.N,M3_CH1*%
X273600000Y-22000000D03*
%TO.P,RV51,3*%
%TO.N,SM_3V3*%
X276100000Y-22000000D03*
%TD*%
D10*
%TO.P,J2,S*%
%TO.N,GND*%
X44500000Y-106270000D03*
D11*
%TO.P,J2,T*%
%TO.N,IN_R*%
X44500000Y-117670000D03*
%TO.P,J2,TN*%
%TO.N,IN_L*%
X44500000Y-109370000D03*
%TD*%
D12*
%TO.P,RV54,*%
%TO.N,*%
X298600000Y-34625000D03*
X289000000Y-34625000D03*
D13*
%TO.P,RV54,1*%
%TO.N,GND*%
X296300000Y-27125000D03*
D14*
%TO.P,RV54,2*%
%TO.N,M3_CH4*%
X293800000Y-27125000D03*
%TO.P,RV54,3*%
%TO.N,SM_3V3*%
X291300000Y-27125000D03*
%TD*%
D12*
%TO.P,RV25,*%
%TO.N,*%
X134200000Y-34625000D03*
X124600000Y-34625000D03*
D13*
%TO.P,RV25,1*%
%TO.N,GND*%
X131900000Y-27125000D03*
D14*
%TO.P,RV25,2*%
%TO.N,M6_CH4*%
X129400000Y-27125000D03*
%TO.P,RV25,3*%
%TO.N,SM_3V3*%
X126900000Y-27125000D03*
%TD*%
D12*
%TO.P,RV40,*%
%TO.N,*%
X197600000Y-34625000D03*
X188000000Y-34625000D03*
D13*
%TO.P,RV40,1*%
%TO.N,GND*%
X195300000Y-27125000D03*
D14*
%TO.P,RV40,2*%
%TO.N,M8_CH5*%
X192800000Y-27125000D03*
%TO.P,RV40,3*%
%TO.N,SM_3V3*%
X190300000Y-27125000D03*
%TD*%
D10*
%TO.P,J18,S*%
%TO.N,GND*%
X271800000Y-106270000D03*
D11*
%TO.P,J18,T*%
%TO.N,OUT_R*%
X271800000Y-117670000D03*
%TO.P,J18,TN*%
%TO.N,unconnected-(J18-PadTN)*%
X271800000Y-109370000D03*
%TD*%
D12*
%TO.P,RV27,*%
%TO.N,*%
X134200000Y-54750000D03*
X124600000Y-54750000D03*
D13*
%TO.P,RV27,1*%
%TO.N,GND*%
X131900000Y-47250000D03*
D14*
%TO.P,RV27,2*%
%TO.N,M6_CH6*%
X129400000Y-47250000D03*
%TO.P,RV27,3*%
%TO.N,SM_3V3*%
X126900000Y-47250000D03*
%TD*%
D12*
%TO.P,RV24,*%
%TO.N,*%
X116800000Y-34625000D03*
X107200000Y-34625000D03*
D13*
%TO.P,RV24,1*%
%TO.N,GND*%
X114500000Y-27125000D03*
D14*
%TO.P,RV24,2*%
%TO.N,M6_CH3*%
X112000000Y-27125000D03*
%TO.P,RV24,3*%
%TO.N,SM_3V3*%
X109500000Y-27125000D03*
%TD*%
D10*
%TO.P,J9,S*%
%TO.N,GND*%
X136000000Y-106270000D03*
D11*
%TO.P,J9,T*%
%TO.N,CLOCK*%
X136000000Y-117670000D03*
%TO.P,J9,TN*%
%TO.N,unconnected-(J9-PadTN)*%
X136000000Y-109370000D03*
%TD*%
D12*
%TO.P,RV69,*%
%TO.N,*%
X217800000Y-95000000D03*
X208200000Y-95000000D03*
D13*
%TO.P,RV69,1*%
%TO.N,GND*%
X215500000Y-87500000D03*
D14*
%TO.P,RV69,2*%
%TO.N,M5_CH3*%
X213000000Y-87500000D03*
%TO.P,RV69,3*%
%TO.N,SM_3V3*%
X210500000Y-87500000D03*
%TD*%
D15*
%TO.P,SW3,1*%
%TO.N,KEY_MODBTN*%
X288300000Y-110050000D03*
%TO.P,SW3,2*%
%TO.N,GND*%
X290800000Y-110050000D03*
%TO.P,SW3,3*%
%TO.N,unconnected-(SW3-C-Pad3)*%
X293300000Y-110050000D03*
%TO.P,SW3,4*%
%TO.N,unconnected-(SW3-A-Pad4)*%
X288300000Y-115450000D03*
%TO.P,SW3,5*%
%TO.N,unconnected-(SW3-B-Pad5)*%
X290800000Y-115450000D03*
%TO.P,SW3,6*%
%TO.N,unconnected-(SW3-C-Pad6)*%
X293300000Y-115450000D03*
%TD*%
D12*
%TO.P,RV71,*%
%TO.N,*%
X258200000Y-95000000D03*
X248600000Y-95000000D03*
D13*
%TO.P,RV71,1*%
%TO.N,GND*%
X255900000Y-87500000D03*
D14*
%TO.P,RV71,2*%
%TO.N,M5_CH5*%
X253400000Y-87500000D03*
%TO.P,RV71,3*%
%TO.N,SM_3V3*%
X250900000Y-87500000D03*
%TD*%
D16*
%TO.P,J_SD,1*%
%TO.N,SD_D2*%
X148554000Y-111675000D03*
%TO.P,J_SD,2*%
%TO.N,SD_D3*%
X149654000Y-110575000D03*
%TO.P,J_SD,3*%
%TO.N,SD_CMD*%
X150754000Y-111675000D03*
%TO.P,J_SD,4*%
%TO.N,SM_3V3*%
X151854000Y-110575000D03*
%TO.P,J_SD,5*%
%TO.N,SD_CK*%
X152956000Y-111675000D03*
%TO.P,J_SD,6*%
%TO.N,GND*%
X154056000Y-110575000D03*
%TO.P,J_SD,7*%
%TO.N,SD_D0*%
X155156000Y-111675000D03*
%TO.P,J_SD,8*%
%TO.N,SD_D1*%
X156256000Y-110575000D03*
D17*
%TO.P,J_SD,SH*%
%TO.N,GND*%
X148105000Y-114845000D03*
X156705000Y-114845000D03*
%TD*%
D12*
%TO.P,RV8,*%
%TO.N,*%
X76400000Y-34625000D03*
X66800000Y-34625000D03*
D13*
%TO.P,RV8,1*%
%TO.N,GND*%
X74100000Y-27125000D03*
D14*
%TO.P,RV8,2*%
%TO.N,M0_CH7*%
X71600000Y-27125000D03*
%TO.P,RV8,3*%
%TO.N,SM_3V3*%
X69100000Y-27125000D03*
%TD*%
D12*
%TO.P,RV67,*%
%TO.N,*%
X258200000Y-74875000D03*
X248600000Y-74875000D03*
D13*
%TO.P,RV67,1*%
%TO.N,GND*%
X255900000Y-67375000D03*
D14*
%TO.P,RV67,2*%
%TO.N,M5_CH1*%
X253400000Y-67375000D03*
%TO.P,RV67,3*%
%TO.N,SM_3V3*%
X250900000Y-67375000D03*
%TD*%
D12*
%TO.P,RV44,*%
%TO.N,*%
X157200000Y-74875000D03*
X147600000Y-74875000D03*
D13*
%TO.P,RV44,1*%
%TO.N,GND*%
X154900000Y-67375000D03*
D14*
%TO.P,RV44,2*%
%TO.N,M9_CH2*%
X152400000Y-67375000D03*
%TO.P,RV44,3*%
%TO.N,SM_3V3*%
X149900000Y-67375000D03*
%TD*%
D15*
%TO.P,SW4,1*%
%TO.N,KEY_SHIFTBTN*%
X11500000Y-110050000D03*
%TO.P,SW4,2*%
%TO.N,GND*%
X14000000Y-110050000D03*
%TO.P,SW4,3*%
%TO.N,unconnected-(SW4-C-Pad3)*%
X16500000Y-110050000D03*
%TO.P,SW4,4*%
%TO.N,unconnected-(SW4-A-Pad4)*%
X11500000Y-115450000D03*
%TO.P,SW4,5*%
%TO.N,unconnected-(SW4-B-Pad5)*%
X14000000Y-115450000D03*
%TO.P,SW4,6*%
%TO.N,unconnected-(SW4-C-Pad6)*%
X16500000Y-115450000D03*
%TD*%
D13*
%TO.P,D14,1*%
%TO.N,GND*%
X245230000Y-61408000D03*
D14*
%TO.P,D14,2*%
%TO.N,LED13_A*%
X247770000Y-61408000D03*
%TD*%
D12*
%TO.P,RV59,*%
%TO.N,*%
X217800000Y-34625000D03*
X208200000Y-34625000D03*
D13*
%TO.P,RV59,1*%
%TO.N,GND*%
X215500000Y-27125000D03*
D14*
%TO.P,RV59,2*%
%TO.N,M4_CH1*%
X213000000Y-27125000D03*
%TO.P,RV59,3*%
%TO.N,SM_3V3*%
X210500000Y-27125000D03*
%TD*%
D12*
%TO.P,RV53,*%
%TO.N,*%
X278400000Y-34625000D03*
X268800000Y-34625000D03*
D13*
%TO.P,RV53,1*%
%TO.N,GND*%
X276100000Y-27125000D03*
D14*
%TO.P,RV53,2*%
%TO.N,M3_CH3*%
X273600000Y-27125000D03*
%TO.P,RV53,3*%
%TO.N,SM_3V3*%
X271100000Y-27125000D03*
%TD*%
D13*
%TO.P,D4,1*%
%TO.N,GND*%
X63430000Y-81533000D03*
D14*
%TO.P,D4,2*%
%TO.N,LED3_A*%
X65970000Y-81533000D03*
%TD*%
D12*
%TO.P,RV56,*%
%TO.N,*%
X298600000Y-54750000D03*
X289000000Y-54750000D03*
D13*
%TO.P,RV56,1*%
%TO.N,GND*%
X296300000Y-47250000D03*
D14*
%TO.P,RV56,2*%
%TO.N,M3_CH6*%
X293800000Y-47250000D03*
%TO.P,RV56,3*%
%TO.N,SM_3V3*%
X291300000Y-47250000D03*
%TD*%
D12*
%TO.P,RV26,*%
%TO.N,*%
X96600000Y-54750000D03*
X87000000Y-54750000D03*
D13*
%TO.P,RV26,1*%
%TO.N,GND*%
X94300000Y-47250000D03*
D14*
%TO.P,RV26,2*%
%TO.N,M6_CH5*%
X91800000Y-47250000D03*
%TO.P,RV26,3*%
%TO.N,SM_3V3*%
X89300000Y-47250000D03*
%TD*%
D12*
%TO.P,RV48,*%
%TO.N,*%
X180200000Y-95000000D03*
X170600000Y-95000000D03*
D13*
%TO.P,RV48,1*%
%TO.N,GND*%
X177900000Y-87500000D03*
D14*
%TO.P,RV48,2*%
%TO.N,M9_CH6*%
X175400000Y-87500000D03*
%TO.P,RV48,3*%
%TO.N,SM_3V3*%
X172900000Y-87500000D03*
%TD*%
D13*
%TO.P,D6,1*%
%TO.N,GND*%
X116730000Y-20308000D03*
D14*
%TO.P,D6,2*%
%TO.N,LED5_A*%
X119270000Y-20308000D03*
%TD*%
D12*
%TO.P,RV6,*%
%TO.N,*%
X36000000Y-34625000D03*
X26400000Y-34625000D03*
D13*
%TO.P,RV6,1*%
%TO.N,GND*%
X33700000Y-27125000D03*
D14*
%TO.P,RV6,2*%
%TO.N,M0_CH5*%
X31200000Y-27125000D03*
%TO.P,RV6,3*%
%TO.N,SM_3V3*%
X28700000Y-27125000D03*
%TD*%
D12*
%TO.P,RV65,*%
%TO.N,*%
X217800000Y-74875000D03*
X208200000Y-74875000D03*
D13*
%TO.P,RV65,1*%
%TO.N,GND*%
X215500000Y-67375000D03*
D14*
%TO.P,RV65,2*%
%TO.N,M4_CH7*%
X213000000Y-67375000D03*
%TO.P,RV65,3*%
%TO.N,SM_3V3*%
X210500000Y-67375000D03*
%TD*%
D12*
%TO.P,RV13,*%
%TO.N,*%
X15800000Y-74875000D03*
X6200000Y-74875000D03*
D13*
%TO.P,RV13,1*%
%TO.N,GND*%
X13500000Y-67375000D03*
D14*
%TO.P,RV13,2*%
%TO.N,M2_CH0*%
X11000000Y-67375000D03*
%TO.P,RV13,3*%
%TO.N,SM_3V3*%
X8500000Y-67375000D03*
%TD*%
D10*
%TO.P,J8,S*%
%TO.N,GND*%
X113500000Y-106270000D03*
D11*
%TO.P,J8,T*%
%TO.N,MOD4_A*%
X113500000Y-117670000D03*
%TO.P,J8,TN*%
%TO.N,unconnected-(J8-PadTN)*%
X113500000Y-109370000D03*
%TD*%
D12*
%TO.P,RV11,*%
%TO.N,*%
X56200000Y-54750000D03*
X46600000Y-54750000D03*
D13*
%TO.P,RV11,1*%
%TO.N,GND*%
X53900000Y-47250000D03*
D14*
%TO.P,RV11,2*%
%TO.N,M1_CH2*%
X51400000Y-47250000D03*
%TO.P,RV11,3*%
%TO.N,SM_3V3*%
X48900000Y-47250000D03*
%TD*%
D10*
%TO.P,J6,S*%
%TO.N,GND*%
X90500000Y-106270000D03*
D11*
%TO.P,J6,T*%
%TO.N,MOD2_A*%
X90500000Y-117670000D03*
%TO.P,J6,TN*%
%TO.N,unconnected-(J6-PadTN)*%
X90500000Y-109370000D03*
%TD*%
D12*
%TO.P,RV14,*%
%TO.N,*%
X36000000Y-74875000D03*
X26400000Y-74875000D03*
D13*
%TO.P,RV14,1*%
%TO.N,GND*%
X33700000Y-67375000D03*
D14*
%TO.P,RV14,2*%
%TO.N,M2_CH1*%
X31200000Y-67375000D03*
%TO.P,RV14,3*%
%TO.N,SM_3V3*%
X28700000Y-67375000D03*
%TD*%
D12*
%TO.P,RV50,*%
%TO.N,*%
X248600000Y-14500000D03*
X258200000Y-14500000D03*
D13*
%TO.P,RV50,1*%
%TO.N,GND*%
X250900000Y-22000000D03*
D14*
%TO.P,RV50,2*%
%TO.N,M3_CH0*%
X253400000Y-22000000D03*
%TO.P,RV50,3*%
%TO.N,SM_3V3*%
X255900000Y-22000000D03*
%TD*%
D12*
%TO.P,RV62,*%
%TO.N,*%
X217800000Y-54750000D03*
X208200000Y-54750000D03*
D13*
%TO.P,RV62,1*%
%TO.N,GND*%
X215500000Y-47250000D03*
D14*
%TO.P,RV62,2*%
%TO.N,M4_CH4*%
X213000000Y-47250000D03*
%TO.P,RV62,3*%
%TO.N,SM_3V3*%
X210500000Y-47250000D03*
%TD*%
D10*
%TO.P,J5,S*%
%TO.N,GND*%
X79000000Y-106270000D03*
D11*
%TO.P,J5,T*%
%TO.N,MOD1_A*%
X79000000Y-117670000D03*
%TO.P,J5,TN*%
%TO.N,unconnected-(J5-PadTN)*%
X79000000Y-109370000D03*
%TD*%
D13*
%TO.P,D2,1*%
%TO.N,GND*%
X58300000Y-22428000D03*
D14*
%TO.P,D2,2*%
%TO.N,LED1_A*%
X58300000Y-19888000D03*
%TD*%
D12*
%TO.P,RV47,*%
%TO.N,*%
X157200000Y-95000000D03*
X147600000Y-95000000D03*
D13*
%TO.P,RV47,1*%
%TO.N,GND*%
X154900000Y-87500000D03*
D14*
%TO.P,RV47,2*%
%TO.N,M9_CH5*%
X152400000Y-87500000D03*
%TO.P,RV47,3*%
%TO.N,SM_3V3*%
X149900000Y-87500000D03*
%TD*%
D13*
%TO.P,D1,1*%
%TO.N,GND*%
X22230000Y-112750000D03*
D14*
%TO.P,D1,2*%
%TO.N,LED0_A*%
X24770000Y-112750000D03*
%TD*%
D12*
%TO.P,RV22,*%
%TO.N,*%
X124600000Y-14500000D03*
X134200000Y-14500000D03*
D13*
%TO.P,RV22,1*%
%TO.N,GND*%
X126900000Y-22000000D03*
D14*
%TO.P,RV22,2*%
%TO.N,M6_CH1*%
X129400000Y-22000000D03*
%TO.P,RV22,3*%
%TO.N,SM_3V3*%
X131900000Y-22000000D03*
%TD*%
D10*
%TO.P,J11,S*%
%TO.N,GND*%
X191300000Y-106270000D03*
D11*
%TO.P,J11,T*%
%TO.N,MOD4_B*%
X191300000Y-117670000D03*
%TO.P,J11,TN*%
%TO.N,unconnected-(J11-PadTN)*%
X191300000Y-109370000D03*
%TD*%
D13*
%TO.P,D10,1*%
%TO.N,GND*%
X188070000Y-20308000D03*
D14*
%TO.P,D10,2*%
%TO.N,LED9_A*%
X185530000Y-20308000D03*
%TD*%
D13*
%TO.P,D3,1*%
%TO.N,GND*%
X57029999Y-61408000D03*
D14*
%TO.P,D3,2*%
%TO.N,LED2_A*%
X59569999Y-61408000D03*
%TD*%
D12*
%TO.P,RV72,*%
%TO.N,*%
X278400000Y-95000000D03*
X268800000Y-95000000D03*
D13*
%TO.P,RV72,1*%
%TO.N,GND*%
X276100000Y-87500000D03*
D14*
%TO.P,RV72,2*%
%TO.N,M5_CH6*%
X273600000Y-87500000D03*
%TO.P,RV72,3*%
%TO.N,SM_3V3*%
X271100000Y-87500000D03*
%TD*%
D12*
%TO.P,RV60,*%
%TO.N,*%
X238000000Y-34625000D03*
X228400000Y-34625000D03*
D13*
%TO.P,RV60,1*%
%TO.N,GND*%
X235700000Y-27125000D03*
D14*
%TO.P,RV60,2*%
%TO.N,M4_CH2*%
X233200000Y-27125000D03*
%TO.P,RV60,3*%
%TO.N,SM_3V3*%
X230700000Y-27125000D03*
%TD*%
D12*
%TO.P,RV21,*%
%TO.N,*%
X87000000Y-14500000D03*
X96600000Y-14500000D03*
D13*
%TO.P,RV21,1*%
%TO.N,GND*%
X89300000Y-22000000D03*
D14*
%TO.P,RV21,2*%
%TO.N,M6_CH0*%
X91800000Y-22000000D03*
%TO.P,RV21,3*%
%TO.N,SM_3V3*%
X94300000Y-22000000D03*
%TD*%
D12*
%TO.P,RV37,*%
%TO.N,*%
X208200000Y-14500000D03*
X217800000Y-14500000D03*
D13*
%TO.P,RV37,1*%
%TO.N,GND*%
X210500000Y-22000000D03*
D14*
%TO.P,RV37,2*%
%TO.N,M8_CH2*%
X213000000Y-22000000D03*
%TO.P,RV37,3*%
%TO.N,SM_3V3*%
X215500000Y-22000000D03*
%TD*%
D12*
%TO.P,RV15,*%
%TO.N,*%
X56200000Y-74875000D03*
X46600000Y-74875000D03*
D13*
%TO.P,RV15,1*%
%TO.N,GND*%
X53900000Y-67375000D03*
D14*
%TO.P,RV15,2*%
%TO.N,M2_CH2*%
X51400000Y-67375000D03*
%TO.P,RV15,3*%
%TO.N,SM_3V3*%
X48900000Y-67375000D03*
%TD*%
D12*
%TO.P,RV39,*%
%TO.N,*%
X180200000Y-34625000D03*
X170600000Y-34625000D03*
D13*
%TO.P,RV39,1*%
%TO.N,GND*%
X177900000Y-27125000D03*
D14*
%TO.P,RV39,2*%
%TO.N,M8_CH4*%
X175400000Y-27125000D03*
%TO.P,RV39,3*%
%TO.N,SM_3V3*%
X172900000Y-27125000D03*
%TD*%
D10*
%TO.P,J1,S*%
%TO.N,GND*%
X33000000Y-106270000D03*
D11*
%TO.P,J1,T*%
%TO.N,IN_L*%
X33000000Y-117670000D03*
%TO.P,J1,TN*%
%TO.N,unconnected-(J1-PadTN)*%
X33000000Y-109370000D03*
%TD*%
D10*
%TO.P,J14,S*%
%TO.N,GND*%
X225800000Y-106270000D03*
D11*
%TO.P,J14,T*%
%TO.N,MOD1_B*%
X225800000Y-117670000D03*
%TO.P,J14,TN*%
%TO.N,unconnected-(J14-PadTN)*%
X225800000Y-109370000D03*
%TD*%
D12*
%TO.P,RV42,*%
%TO.N,*%
X157200000Y-54750000D03*
X147600000Y-54750000D03*
D13*
%TO.P,RV42,1*%
%TO.N,GND*%
X154900000Y-47250000D03*
D14*
%TO.P,RV42,2*%
%TO.N,M9_CH0*%
X152400000Y-47250000D03*
%TO.P,RV42,3*%
%TO.N,SM_3V3*%
X149900000Y-47250000D03*
%TD*%
D12*
%TO.P,RV4,*%
%TO.N,*%
X66800000Y-14500000D03*
X76400000Y-14500000D03*
D13*
%TO.P,RV4,1*%
%TO.N,GND*%
X69100000Y-22000000D03*
D14*
%TO.P,RV4,2*%
%TO.N,M0_CH3*%
X71600000Y-22000000D03*
%TO.P,RV4,3*%
%TO.N,SM_3V3*%
X74100000Y-22000000D03*
%TD*%
D12*
%TO.P,RV5,*%
%TO.N,*%
X15800000Y-34625000D03*
X6200000Y-34625000D03*
D13*
%TO.P,RV5,1*%
%TO.N,GND*%
X13500000Y-27125000D03*
D14*
%TO.P,RV5,2*%
%TO.N,M0_CH4*%
X11000000Y-27125000D03*
%TO.P,RV5,3*%
%TO.N,SM_3V3*%
X8500000Y-27125000D03*
%TD*%
D13*
%TO.P,D13,1*%
%TO.N,GND*%
X246500000Y-22428000D03*
D14*
%TO.P,D13,2*%
%TO.N,LED12_A*%
X246500000Y-19888000D03*
%TD*%
D12*
%TO.P,RV63,*%
%TO.N,*%
X238000000Y-54750000D03*
X228400000Y-54750000D03*
D13*
%TO.P,RV63,1*%
%TO.N,GND*%
X235700000Y-47250000D03*
D14*
%TO.P,RV63,2*%
%TO.N,M4_CH5*%
X233200000Y-47250000D03*
%TO.P,RV63,3*%
%TO.N,SM_3V3*%
X230700000Y-47250000D03*
%TD*%
D12*
%TO.P,RV43,*%
%TO.N,*%
X180200000Y-54750000D03*
X170600000Y-54750000D03*
D13*
%TO.P,RV43,1*%
%TO.N,GND*%
X177900000Y-47250000D03*
D14*
%TO.P,RV43,2*%
%TO.N,M9_CH1*%
X175400000Y-47250000D03*
%TO.P,RV43,3*%
%TO.N,SM_3V3*%
X172900000Y-47250000D03*
%TD*%
D12*
%TO.P,RV16,*%
%TO.N,*%
X76400000Y-74875000D03*
X66800000Y-74875000D03*
D13*
%TO.P,RV16,1*%
%TO.N,GND*%
X74100000Y-67375000D03*
D14*
%TO.P,RV16,2*%
%TO.N,M2_CH3*%
X71600000Y-67375000D03*
%TO.P,RV16,3*%
%TO.N,SM_3V3*%
X69100000Y-67375000D03*
%TD*%
D12*
%TO.P,RV3,*%
%TO.N,*%
X46600000Y-14500000D03*
X56200000Y-14500000D03*
D13*
%TO.P,RV3,1*%
%TO.N,GND*%
X48900000Y-22000000D03*
D14*
%TO.P,RV3,2*%
%TO.N,M0_CH2*%
X51400000Y-22000000D03*
%TO.P,RV3,3*%
%TO.N,SM_3V3*%
X53900000Y-22000000D03*
%TD*%
D12*
%TO.P,RV38,*%
%TO.N,*%
X157200000Y-34625000D03*
X147600000Y-34625000D03*
D13*
%TO.P,RV38,1*%
%TO.N,GND*%
X154900000Y-27125000D03*
D14*
%TO.P,RV38,2*%
%TO.N,M8_CH3*%
X152400000Y-27125000D03*
%TO.P,RV38,3*%
%TO.N,SM_3V3*%
X149900000Y-27125000D03*
%TD*%
D12*
%TO.P,RV66,*%
%TO.N,*%
X238000000Y-74875000D03*
X228400000Y-74875000D03*
D13*
%TO.P,RV66,1*%
%TO.N,GND*%
X235700000Y-67375000D03*
D14*
%TO.P,RV66,2*%
%TO.N,M5_CH0*%
X233200000Y-67375000D03*
%TO.P,RV66,3*%
%TO.N,SM_3V3*%
X230700000Y-67375000D03*
%TD*%
D12*
%TO.P,RV9,*%
%TO.N,*%
X15800000Y-54750000D03*
X6200000Y-54750000D03*
D13*
%TO.P,RV9,1*%
%TO.N,GND*%
X13500000Y-47250000D03*
D14*
%TO.P,RV9,2*%
%TO.N,M1_CH0*%
X11000000Y-47250000D03*
%TO.P,RV9,3*%
%TO.N,SM_3V3*%
X8500000Y-47250000D03*
%TD*%
D12*
%TO.P,RV32,*%
%TO.N,*%
X96600000Y-95000000D03*
X87000000Y-95000000D03*
D13*
%TO.P,RV32,1*%
%TO.N,GND*%
X94300000Y-87500000D03*
D14*
%TO.P,RV32,2*%
%TO.N,M7_CH4*%
X91800000Y-87500000D03*
%TO.P,RV32,3*%
%TO.N,SM_3V3*%
X89300000Y-87500000D03*
%TD*%
D12*
%TO.P,RV61,*%
%TO.N,*%
X258200000Y-34625000D03*
X248600000Y-34625000D03*
D13*
%TO.P,RV61,1*%
%TO.N,GND*%
X255900000Y-27125000D03*
D14*
%TO.P,RV61,2*%
%TO.N,M4_CH3*%
X253400000Y-27125000D03*
%TO.P,RV61,3*%
%TO.N,SM_3V3*%
X250900000Y-27125000D03*
%TD*%
D10*
%TO.P,J16,S*%
%TO.N,GND*%
X248800000Y-106270000D03*
D11*
%TO.P,J16,T*%
%TO.N,PITCH_B*%
X248800000Y-117670000D03*
%TO.P,J16,TN*%
%TO.N,unconnected-(J16-PadTN)*%
X248800000Y-109370000D03*
%TD*%
D12*
%TO.P,RV12,*%
%TO.N,*%
X76400000Y-54750000D03*
X66800000Y-54750000D03*
D13*
%TO.P,RV12,1*%
%TO.N,GND*%
X74100000Y-47250000D03*
D14*
%TO.P,RV12,2*%
%TO.N,M1_CH3*%
X71600000Y-47250000D03*
%TO.P,RV12,3*%
%TO.N,SM_3V3*%
X69100000Y-47250000D03*
%TD*%
D12*
%TO.P,RV57,*%
%TO.N,*%
X298600000Y-74875000D03*
X289000000Y-74875000D03*
D13*
%TO.P,RV57,1*%
%TO.N,GND*%
X296300000Y-67375000D03*
D14*
%TO.P,RV57,2*%
%TO.N,M3_CH7*%
X293800000Y-67375000D03*
%TO.P,RV57,3*%
%TO.N,SM_3V3*%
X291300000Y-67375000D03*
%TD*%
D12*
%TO.P,RV41,*%
%TO.N,*%
X197600000Y-54750000D03*
X188000000Y-54750000D03*
D13*
%TO.P,RV41,1*%
%TO.N,GND*%
X195300000Y-47250000D03*
D14*
%TO.P,RV41,2*%
%TO.N,M8_CH6*%
X192800000Y-47250000D03*
%TO.P,RV41,3*%
%TO.N,SM_3V3*%
X190300000Y-47250000D03*
%TD*%
D15*
%TO.P,SW1,1*%
%TO.N,KEY_REC_A*%
X109500000Y-11800000D03*
%TO.P,SW1,2*%
%TO.N,GND*%
X112000000Y-11800000D03*
%TO.P,SW1,3*%
%TO.N,unconnected-(SW1-C-Pad3)*%
X114500000Y-11800000D03*
%TO.P,SW1,4*%
%TO.N,unconnected-(SW1-A-Pad4)*%
X109500000Y-17200000D03*
%TO.P,SW1,5*%
%TO.N,unconnected-(SW1-B-Pad5)*%
X112000000Y-17200000D03*
%TO.P,SW1,6*%
%TO.N,unconnected-(SW1-C-Pad6)*%
X114500000Y-17200000D03*
%TD*%
D12*
%TO.P,RV7,*%
%TO.N,*%
X56200000Y-34625000D03*
X46600000Y-34625000D03*
D13*
%TO.P,RV7,1*%
%TO.N,GND*%
X53900000Y-27125000D03*
D14*
%TO.P,RV7,2*%
%TO.N,M0_CH6*%
X51400000Y-27125000D03*
%TO.P,RV7,3*%
%TO.N,SM_3V3*%
X48900000Y-27125000D03*
%TD*%
D12*
%TO.P,RV64,*%
%TO.N,*%
X258200000Y-54750000D03*
X248600000Y-54750000D03*
D13*
%TO.P,RV64,1*%
%TO.N,GND*%
X255900000Y-47250000D03*
D14*
%TO.P,RV64,2*%
%TO.N,M4_CH6*%
X253400000Y-47250000D03*
%TO.P,RV64,3*%
%TO.N,SM_3V3*%
X250900000Y-47250000D03*
%TD*%
D12*
%TO.P,RV23,*%
%TO.N,*%
X96600000Y-34625000D03*
X87000000Y-34625000D03*
D13*
%TO.P,RV23,1*%
%TO.N,GND*%
X94300000Y-27125000D03*
D14*
%TO.P,RV23,2*%
%TO.N,M6_CH2*%
X91800000Y-27125000D03*
%TO.P,RV23,3*%
%TO.N,SM_3V3*%
X89300000Y-27125000D03*
%TD*%
D12*
%TO.P,RV28,*%
%TO.N,*%
X116800000Y-54750000D03*
X107200000Y-54750000D03*
D13*
%TO.P,RV28,1*%
%TO.N,GND*%
X114500000Y-47250000D03*
D14*
%TO.P,RV28,2*%
%TO.N,M7_CH0*%
X112000000Y-47250000D03*
%TO.P,RV28,3*%
%TO.N,SM_3V3*%
X109500000Y-47250000D03*
%TD*%
D18*
%TO.P,U_SM,A1*%
%TO.N,-12V*%
X137130000Y-23920000D03*
%TO.P,U_SM,A2*%
%TO.N,SENSE_0*%
X137130000Y-26460000D03*
%TO.P,U_SM,A3*%
%TO.N,SENSE_1*%
X137130000Y-29000000D03*
%TO.P,U_SM,A4*%
%TO.N,GND*%
X137130000Y-31540000D03*
%TO.P,U_SM,A5*%
%TO.N,+12V*%
X137130000Y-34080000D03*
%TO.P,U_SM,A6*%
%TO.N,unconnected-(U_SM-+5V-PadA6)*%
X139670000Y-34080000D03*
%TO.P,U_SM,A7*%
%TO.N,GND*%
X139670000Y-31540000D03*
%TO.P,U_SM,A8*%
%TO.N,unconnected-(U_SM-USB_DM-PadA8)*%
X139670000Y-29000000D03*
%TO.P,U_SM,A9*%
%TO.N,unconnected-(U_SM-USB_DP-PadA9)*%
X139670000Y-26460000D03*
%TO.P,U_SM,A10*%
%TO.N,SM_3V3*%
X139670000Y-23920000D03*
D19*
%TO.P,U_SM,B1*%
%TO.N,OUT_R*%
X134320000Y-85270000D03*
%TO.P,U_SM,B2*%
%TO.N,OUT_L*%
X136860000Y-85270000D03*
%TO.P,U_SM,B3*%
%TO.N,IN_R*%
X139400000Y-85270000D03*
%TO.P,U_SM,B4*%
%TO.N,IN_L*%
X141940000Y-85270000D03*
%TO.P,U_SM,B5*%
%TO.N,GATE_A*%
X144480000Y-85270000D03*
%TO.P,U_SM,B6*%
%TO.N,GATE_B*%
X144480000Y-82730000D03*
%TO.P,U_SM,B7*%
%TO.N,SR_DATA*%
X141940000Y-82730000D03*
%TO.P,U_SM,B8*%
%TO.N,SR_CLK*%
X139400000Y-82730000D03*
%TO.P,U_SM,B9*%
%TO.N,RESET*%
X136860000Y-82730000D03*
%TO.P,U_SM,B10*%
%TO.N,CLOCK*%
X134320000Y-82730000D03*
%TO.P,U_SM,C1*%
%TO.N,PITCH_A*%
X160320000Y-85270000D03*
%TO.P,U_SM,C2*%
%TO.N,MOD4_A*%
X162860000Y-85270000D03*
%TO.P,U_SM,C3*%
%TO.N,MOD3_A*%
X165400000Y-85270000D03*
%TO.P,U_SM,C4*%
%TO.N,MOD2_A*%
X167940000Y-85270000D03*
%TO.P,U_SM,C5*%
%TO.N,MOD1_A*%
X170480000Y-85270000D03*
%TO.P,U_SM,C6*%
%TO.N,MOD1_B*%
X170480000Y-82730000D03*
%TO.P,U_SM,C7*%
%TO.N,MOD2_B*%
X167940000Y-82730000D03*
%TO.P,U_SM,C8*%
%TO.N,MOD3_B*%
X165400000Y-82730000D03*
%TO.P,U_SM,C9*%
%TO.N,MOD4_B*%
X162860000Y-82730000D03*
%TO.P,U_SM,C10*%
%TO.N,PITCH_B*%
X160320000Y-82730000D03*
D18*
%TO.P,U_SM,D1*%
%TO.N,SR_LATCH*%
X165130000Y-23920000D03*
%TO.P,U_SM,D2*%
%TO.N,SD_D3*%
X165130000Y-26460000D03*
%TO.P,U_SM,D3*%
%TO.N,SD_D2*%
X165130000Y-29000000D03*
%TO.P,U_SM,D4*%
%TO.N,SD_D1*%
X165130000Y-31540000D03*
%TO.P,U_SM,D5*%
%TO.N,SD_D0*%
X165130000Y-34080000D03*
%TO.P,U_SM,D6*%
%TO.N,SD_CK*%
X167670000Y-34080000D03*
%TO.P,U_SM,D7*%
%TO.N,SD_CMD*%
X167670000Y-31540000D03*
%TO.P,U_SM,D8*%
%TO.N,SENSE_3*%
X167670000Y-29000000D03*
%TO.P,U_SM,D9*%
%TO.N,SENSE_2*%
X167670000Y-26460000D03*
%TO.P,U_SM,D10*%
%TO.N,SR_DIN*%
X167670000Y-23920000D03*
%TD*%
D20*
%TO.P,J_PWR,1*%
%TO.N,-12V_IN*%
X25700000Y-103750000D03*
D21*
%TO.P,J_PWR,2*%
X25700000Y-101210000D03*
%TO.P,J_PWR,3*%
%TO.N,GND*%
X23160000Y-103750000D03*
%TO.P,J_PWR,4*%
X23160000Y-101210000D03*
%TO.P,J_PWR,5*%
X20620000Y-103750000D03*
%TO.P,J_PWR,6*%
X20620000Y-101210000D03*
%TO.P,J_PWR,7*%
%TO.N,unconnected-(J_PWR-Pin_7-Pad7)*%
X18080000Y-103750000D03*
%TO.P,J_PWR,8*%
%TO.N,unconnected-(J_PWR-Pin_8-Pad8)*%
X18080000Y-101210000D03*
%TO.P,J_PWR,9*%
%TO.N,+12V_IN*%
X15540000Y-103750000D03*
%TO.P,J_PWR,10*%
X15540000Y-101210000D03*
%TD*%
D22*
%TO.N,GND*%
X25894999Y-108479999D03*
X71985000Y-64809999D03*
X255187499Y-60919750D03*
X37825000Y-47885000D03*
X183071427Y-33348571D03*
X38825000Y-41805000D03*
X81597678Y-72705504D03*
X37825000Y-50425000D03*
X76937678Y-69980504D03*
X38825000Y-19117500D03*
X103500000Y-61580000D03*
X38825000Y-52695000D03*
X108904999Y-80640375D03*
X105774999Y-26775714D03*
X126095380Y-64452007D03*
X21569999Y-109979999D03*
X169920000Y-29225000D03*
X106675000Y-71800000D03*
X260445000Y-77503125D03*
X77065000Y-64809999D03*
X105774999Y-31855714D03*
X184170000Y-58140625D03*
X25069999Y-109479999D03*
X153804000Y-113575000D03*
X99478550Y-44440045D03*
X73255000Y-60359999D03*
X138905000Y-20960000D03*
X112718550Y-40215045D03*
X169900000Y-50000000D03*
X117314999Y-77365375D03*
X79605000Y-57859999D03*
X247955000Y-82928125D03*
X169445000Y-20960000D03*
X44250000Y-54295000D03*
X16369999Y-89204999D03*
X37825000Y-21387500D03*
X82475000Y-57084999D03*
X278000000Y-43740625D03*
X120685380Y-61677007D03*
X37825000Y-44075000D03*
X180696428Y-21858571D03*
X35855000Y-83412500D03*
X105774999Y-30585714D03*
X45550000Y-30607500D03*
X249107499Y-64869749D03*
X75795000Y-64809999D03*
X238720000Y-37312500D03*
X173950000Y-64865624D03*
X86677678Y-65755504D03*
X260597499Y-58144750D03*
X225230000Y-43037500D03*
X180696428Y-23128571D03*
X27119999Y-107529999D03*
X134130000Y-27475000D03*
X38125000Y-84412500D03*
X105558550Y-38490045D03*
X172680000Y-64865624D03*
X5619999Y-91009999D03*
X105675000Y-66989999D03*
X250225000Y-83928125D03*
X275730000Y-42740625D03*
X227500000Y-44037500D03*
X78335000Y-64809999D03*
X181696428Y-27938571D03*
X25869999Y-98179999D03*
X131175379Y-60502007D03*
X50345000Y-80437500D03*
X23419999Y-97129999D03*
X152629000Y-107975000D03*
X74525000Y-64809999D03*
X103599999Y-21365713D03*
X106675000Y-70570000D03*
X288220000Y-37215625D03*
X102824999Y-83090375D03*
%TO.N,MOD3_B*%
X174950000Y-85800000D03*
X181550000Y-90600000D03*
%TO.N,GATE_B*%
X150950000Y-84600000D03*
X158950000Y-88600000D03*
X147750000Y-80800000D03*
X161150000Y-95000000D03*
X144950000Y-79600000D03*
X218550000Y-100400000D03*
%TO.N,M5_CH4*%
X257550000Y-83000000D03*
%TO.N,SM_3V3*%
X44775000Y-29007500D03*
X100049999Y-21365713D03*
X185621427Y-34348571D03*
X41700000Y-53295000D03*
X150904000Y-114575000D03*
X149579000Y-108975000D03*
X45745000Y-77462500D03*
X257845000Y-80478125D03*
X169900000Y-58000000D03*
X37825000Y-46615000D03*
X42000000Y-30607500D03*
X236720000Y-40362500D03*
X235120000Y-40087500D03*
X100824999Y-22965714D03*
X47345000Y-80737500D03*
X100725000Y-63180000D03*
X185646428Y-32748571D03*
X99950000Y-61580000D03*
X182570000Y-58915625D03*
X287220000Y-39765625D03*
X44775000Y-51695000D03*
X285620000Y-36790625D03*
X259445000Y-80053125D03*
X184170000Y-61690625D03*
%TO.N,M7_CH6*%
X123550000Y-81600000D03*
X116950000Y-67600000D03*
X118350000Y-72600000D03*
%TO.N,M9_CH4*%
X187350000Y-65000000D03*
%TO.N,MOD2_B*%
X199550000Y-105600000D03*
X178150000Y-84200000D03*
%TO.N,GATE_A*%
X135950000Y-92800000D03*
%TO.N,RESET*%
X134950000Y-88400000D03*
X123150000Y-90000000D03*
X138550000Y-79600000D03*
X138750000Y-75200000D03*
X122950000Y-79800000D03*
X137150000Y-74000000D03*
X146950000Y-100000000D03*
X140350000Y-79600000D03*
X137350000Y-90400000D03*
X153750000Y-102600000D03*
X140350000Y-78000000D03*
%TO.N,M1_CH1*%
X41150000Y-48600000D03*
%TO.N,M2_CH4*%
X45550000Y-83400000D03*
%TO.N,M8_CH1*%
X182350000Y-23600000D03*
%TO.N,M9_CH7*%
X187350000Y-79800000D03*
X178950000Y-65000000D03*
X183950000Y-75800000D03*
%TO.N,M2_CH5*%
X40350000Y-83400000D03*
%TO.N,M7_CH2*%
X102950000Y-64599999D03*
%TO.N,PITCH_A*%
X80750000Y-96400000D03*
%TO.N,M5_CH2*%
X266350000Y-68600000D03*
%TO.N,M8_CH0*%
X158550000Y-22200000D03*
X153950000Y-24200000D03*
X160950000Y-19800000D03*
X156150000Y-24600000D03*
%TO.N,M7_CH5*%
X119150000Y-77400000D03*
X119150000Y-71000000D03*
%TO.N,M0_CH1*%
X40550000Y-26200000D03*
X32750000Y-24200000D03*
%TO.N,KEY_REC_B*%
X77550000Y-42400000D03*
X85350000Y-25000000D03*
X122750000Y-22800000D03*
X122950000Y-32400000D03*
X121950000Y-26000000D03*
X77150000Y-45800000D03*
X78750000Y-49800000D03*
X122750000Y-21200000D03*
X106750000Y-16200000D03*
X123750000Y-19400000D03*
%TO.N,M9_CH3*%
X176950000Y-61400000D03*
%TO.N,M7_CH3*%
X119550000Y-63400000D03*
X113150000Y-61000000D03*
X102350000Y-68000000D03*
%TO.N,MOD3_A*%
X164350000Y-99800000D03*
%TO.N,M2_CH7*%
X50150000Y-83600000D03*
X51750000Y-84800000D03*
X42150000Y-82800000D03*
%TO.N,M0_CH0*%
X40550000Y-24400000D03*
%TO.N,IN_R*%
X136750000Y-87800000D03*
X138950000Y-87600000D03*
%TO.N,M6_CH4*%
X123950000Y-28800000D03*
X122750000Y-27600000D03*
%TO.N,M8_CH5*%
X181950000Y-26600000D03*
%TO.N,OUT_R*%
X141550000Y-87000000D03*
%TO.N,M6_CH6*%
X111550000Y-24400000D03*
%TO.N,M6_CH3*%
X104550000Y-28000000D03*
%TO.N,CLOCK*%
X124950000Y-103200000D03*
X124950000Y-101600000D03*
X125750000Y-85000000D03*
X128949999Y-83000000D03*
%TO.N,M5_CH3*%
X233150000Y-85800000D03*
%TO.N,KEY_MODBTN*%
X96950000Y-64400000D03*
X78150000Y-60600000D03*
X142150000Y-72000000D03*
X94550000Y-60400000D03*
X122350000Y-70800000D03*
X96350000Y-62800000D03*
X123750000Y-72200000D03*
X137550000Y-72000000D03*
%TO.N,SD_D2*%
X163550000Y-53200000D03*
X158550000Y-44600000D03*
X159550000Y-78800000D03*
X161350000Y-32600000D03*
X162150000Y-77000000D03*
%TO.N,SD_D3*%
X159350000Y-53600000D03*
X144950000Y-105800000D03*
X159350000Y-57200000D03*
%TO.N,SD_CMD*%
X147350000Y-110800000D03*
X156150000Y-80600000D03*
X161750000Y-75800000D03*
X169150000Y-40200000D03*
%TO.N,SD_CK*%
X161950000Y-78000000D03*
X158550000Y-85400000D03*
X158550000Y-83400000D03*
X162350000Y-80000000D03*
X160750000Y-87200000D03*
X159750000Y-81000000D03*
X158150000Y-109400000D03*
%TO.N,SD_D0*%
X198150000Y-111800000D03*
X181350000Y-112000000D03*
X150950000Y-107800000D03*
X170950000Y-114600000D03*
X189150000Y-81000000D03*
X160950000Y-71200000D03*
X146350000Y-113600000D03*
X166550000Y-114200000D03*
%TO.N,M0_CH7*%
X39950000Y-25400000D03*
X63550000Y-19000000D03*
X41350000Y-21200000D03*
%TO.N,M9_CH2*%
X177750000Y-62400000D03*
X164550000Y-65000000D03*
%TO.N,KEY_SHIFTBTN*%
X76550000Y-45000000D03*
X10950000Y-103400000D03*
X67950000Y-40200000D03*
X15950000Y-106400000D03*
X79550000Y-50600000D03*
X36750000Y-44000000D03*
X73550000Y-42400000D03*
X42550000Y-40600000D03*
%TO.N,M4_CH1*%
X232350000Y-25400000D03*
%TO.N,M3_CH3*%
X280550000Y-34200000D03*
X279150000Y-31200000D03*
%TO.N,M9_CH6*%
X181350000Y-67400000D03*
%TO.N,M4_CH7*%
X229550000Y-45000000D03*
%TO.N,M2_CH0*%
X36150000Y-80400000D03*
X16550000Y-72600000D03*
%TO.N,MOD4_A*%
X131550000Y-100800000D03*
X129150000Y-103200000D03*
X160350000Y-94400000D03*
X163550000Y-92600000D03*
X159950000Y-99400000D03*
%TO.N,MOD2_A*%
X157950000Y-92400000D03*
X104550000Y-106400000D03*
X157950000Y-90800000D03*
X136350000Y-96600000D03*
X143950000Y-90800000D03*
%TO.N,M4_CH4*%
X224950000Y-40800000D03*
%TO.N,MOD1_A*%
X93350000Y-116000000D03*
X116350000Y-116000000D03*
X158150000Y-111600000D03*
%TO.N,M9_CH5*%
X155150000Y-83600000D03*
X161350000Y-79800000D03*
X177350000Y-64800000D03*
%TO.N,MOD4_B*%
X169950000Y-72600000D03*
X165150000Y-79000000D03*
X186950000Y-92600000D03*
X166750000Y-77400000D03*
X180950000Y-81000000D03*
X181550000Y-92600000D03*
%TO.N,M5_CH6*%
X256750000Y-83800000D03*
X263550000Y-85800000D03*
%TO.N,M4_CH2*%
X238150000Y-27400000D03*
%TO.N,M6_CH0*%
X97350000Y-25600000D03*
%TO.N,M8_CH4*%
X180950000Y-31600000D03*
%TO.N,MOD1_B*%
X204550000Y-101200000D03*
X198350000Y-91400000D03*
%TO.N,M9_CH0*%
X164350000Y-54800000D03*
X178550000Y-60400000D03*
%TO.N,M4_CH5*%
X230150000Y-44000000D03*
%TO.N,M9_CH1*%
X184550000Y-51400000D03*
X181150000Y-47200000D03*
%TO.N,M2_CH3*%
X66150000Y-71800000D03*
X40950000Y-78600000D03*
%TO.N,M0_CH2*%
X45750000Y-23800000D03*
X45550000Y-25800000D03*
%TO.N,M8_CH3*%
X161550000Y-18000000D03*
X180950000Y-17800000D03*
X183750000Y-22200000D03*
X157350000Y-22200000D03*
%TO.N,M5_CH0*%
X242950000Y-74800000D03*
X254150000Y-80600000D03*
%TO.N,M1_CH0*%
X41950000Y-47200000D03*
%TO.N,M7_CH4*%
X103750000Y-66800000D03*
X105950000Y-63400000D03*
X98350000Y-80400000D03*
X104350000Y-64400000D03*
X94550000Y-84600000D03*
%TO.N,M4_CH3*%
X247750000Y-30400000D03*
%TO.N,PITCH_B*%
X224150000Y-96400000D03*
%TO.N,M3_CH7*%
X281750000Y-44800000D03*
%TO.N,M8_CH6*%
X184750000Y-36400000D03*
%TO.N,KEY_REC_A*%
X99350000Y-27000000D03*
X97350000Y-31400000D03*
X97350000Y-29000000D03*
%TO.N,M0_CH6*%
X43150000Y-31800000D03*
X39550000Y-27800000D03*
%TO.N,M7_CH0*%
X102150000Y-54400000D03*
X100750000Y-66800000D03*
%TO.N,3V3D*%
X112750000Y-80600000D03*
X101550000Y-39000000D03*
X154350000Y-104600000D03*
X155750000Y-103200000D03*
X105350000Y-78400000D03*
X123150000Y-61400000D03*
X126350000Y-107400000D03*
X97350000Y-89800000D03*
X101750000Y-73600000D03*
X77750000Y-71800000D03*
X156950000Y-60600000D03*
X181950000Y-84400000D03*
X206950000Y-102400000D03*
X205150000Y-91600000D03*
X97350000Y-70400000D03*
X140750000Y-61800000D03*
X218550000Y-92200000D03*
X95150000Y-40200000D03*
X97950000Y-61200000D03*
X119950000Y-52800000D03*
X216550000Y-60400000D03*
X90950000Y-81200000D03*
X196350000Y-84600000D03*
X97350000Y-78200000D03*
X221550000Y-102000000D03*
X44150000Y-86000000D03*
X85950000Y-83000000D03*
X187350000Y-82600000D03*
X80750000Y-60400000D03*
X182350000Y-55000000D03*
X235150000Y-60400000D03*
X117550000Y-98800000D03*
X209150000Y-102200000D03*
X247950000Y-58200000D03*
X101350000Y-98200000D03*
%TO.N,SENSE_0*%
X43750000Y-76800000D03*
X133750000Y-24200000D03*
X99150000Y-30400000D03*
X43750000Y-80800000D03*
%TO.N,MUX_EN0*%
X38750000Y-22600000D03*
X58350000Y-26600000D03*
%TO.N,MUX_S2*%
X99550000Y-52000000D03*
X237150000Y-62600000D03*
X226550000Y-57400000D03*
X181550000Y-39400000D03*
X181950000Y-45000000D03*
X43750000Y-20200000D03*
X225950000Y-51000000D03*
X167150000Y-56400000D03*
X40150000Y-74000000D03*
X123950000Y-38800000D03*
X185550000Y-22800000D03*
X223750000Y-43400000D03*
X104150000Y-35400000D03*
X181550000Y-37000000D03*
X101750000Y-72000000D03*
X101750000Y-31800000D03*
X247950000Y-77200000D03*
X122550000Y-37200000D03*
X169950000Y-59600000D03*
X246550000Y-75600000D03*
X43750000Y-42800000D03*
X100550000Y-53400000D03*
%TO.N,MUX_S1*%
X38150000Y-78400000D03*
X42150000Y-46200000D03*
X185550000Y-24200000D03*
X42350000Y-43600000D03*
X223750000Y-37800000D03*
X76750000Y-21600000D03*
X166150000Y-57600000D03*
X227550000Y-38000000D03*
X175550000Y-45200000D03*
X101750000Y-30600000D03*
X241150000Y-59600000D03*
X183150000Y-37000000D03*
X179950000Y-45000000D03*
X247950000Y-51400000D03*
X43550000Y-21600000D03*
X167950000Y-58400000D03*
X118950000Y-42400000D03*
X101750000Y-70800000D03*
%TO.N,MUX_S0*%
X142150000Y-37600000D03*
X275350000Y-41800000D03*
X135550000Y-17800000D03*
X97950000Y-27000000D03*
X98750000Y-38600000D03*
X45750000Y-42000000D03*
X43750000Y-45600000D03*
X97750000Y-51200000D03*
X225550000Y-39800000D03*
X241550000Y-52800000D03*
X104550000Y-16200000D03*
X116550000Y-14600000D03*
X102150000Y-51800000D03*
X141350000Y-36000000D03*
X242350000Y-59600000D03*
X103550000Y-50400000D03*
X185550000Y-25400000D03*
X100750000Y-50600000D03*
X232550000Y-40600000D03*
X183350000Y-45000000D03*
X137150000Y-42600000D03*
X104550000Y-62000000D03*
X242350000Y-54600000D03*
X97750000Y-49600000D03*
X99950000Y-34800000D03*
X39350000Y-78400000D03*
X43750000Y-22800000D03*
X121550000Y-15000000D03*
%TO.N,SENSE_3*%
X177350000Y-40200000D03*
X182750000Y-62600000D03*
X179950000Y-64800000D03*
X184950000Y-56200000D03*
%TO.N,MUX_EN7*%
X106550000Y-69600000D03*
X102950000Y-76000000D03*
%TO.N,LED9*%
X160550000Y-22200000D03*
X153550000Y-41000000D03*
X159350000Y-26000000D03*
X169950000Y-19400000D03*
X106350000Y-83000000D03*
X159350000Y-33400000D03*
X136350000Y-67600000D03*
X121350000Y-76000000D03*
%TO.N,LED2*%
X82750000Y-62800000D03*
X84350000Y-62800000D03*
%TO.N,LED12*%
X258950000Y-64800000D03*
X259750000Y-46400000D03*
%TO.N,LED13*%
X257750000Y-64800000D03*
X246350000Y-54000000D03*
X245950000Y-58800000D03*
X258950000Y-57600000D03*
%TO.N,LED14*%
X268149999Y-98000000D03*
X256550000Y-64800000D03*
%TO.N,SR_CHAIN4*%
X137750000Y-64200000D03*
X242150000Y-65800000D03*
X239550000Y-63400000D03*
X245950000Y-65800000D03*
X235550000Y-63400000D03*
X125150000Y-61800000D03*
%TO.N,SR_CLK*%
X84350000Y-72800000D03*
X88350000Y-62800000D03*
X102950000Y-40400000D03*
X102950000Y-81600000D03*
X252350000Y-60400000D03*
X128949999Y-64400000D03*
X100950000Y-51600000D03*
X79750000Y-63200000D03*
X86750000Y-82400000D03*
X101750000Y-49200000D03*
X102750000Y-77400000D03*
X84150000Y-79800000D03*
X146150000Y-70400000D03*
X106350000Y-77400000D03*
X236150000Y-64200000D03*
X87550000Y-64400000D03*
X100150000Y-76600000D03*
%TO.N,SR_LATCH*%
X105150000Y-80000000D03*
X208150000Y-47400000D03*
X25750000Y-49800000D03*
X227350000Y-59400000D03*
X79950000Y-77000000D03*
X143550000Y-38000000D03*
X82550000Y-70600000D03*
X26350000Y-46800000D03*
X42550000Y-36800000D03*
X238150000Y-61400000D03*
X136150000Y-57000000D03*
X82550000Y-22800000D03*
X115150000Y-61800000D03*
X83550000Y-75200000D03*
X76550000Y-25600000D03*
X80950000Y-65000000D03*
X142750000Y-21600000D03*
X41550000Y-54800000D03*
X126950000Y-65000000D03*
X202550000Y-41800000D03*
X104550000Y-39800000D03*
X40550000Y-60400000D03*
X134950000Y-12200000D03*
X152550000Y-25200000D03*
X120550000Y-65400000D03*
X100950000Y-78200000D03*
X160550000Y-32000000D03*
X27150000Y-45000000D03*
%TO.N,SR_CHAIN3*%
X103550000Y-79000000D03*
X217950000Y-65400000D03*
X252550000Y-62000000D03*
X94950000Y-83000000D03*
X99350000Y-86000000D03*
X100950000Y-79600000D03*
%TO.N,LED11*%
X240950000Y-78400000D03*
X257550000Y-60400000D03*
%TO.N,MUX_EN3_SR*%
X182750000Y-42000000D03*
X176950000Y-42200000D03*
X105750000Y-46800000D03*
X137950000Y-38800000D03*
X185150000Y-43800000D03*
X168550000Y-42600000D03*
X132350000Y-40200000D03*
X119150000Y-43400000D03*
X129350000Y-42400000D03*
X136350000Y-40000000D03*
%TO.N,MUX_EN3*%
X233150000Y-44600000D03*
X279350000Y-42800000D03*
X223150000Y-45200000D03*
X240150000Y-45800000D03*
%TO.N,LED0*%
X80750000Y-74800000D03*
X51550000Y-85800000D03*
X79950000Y-68800000D03*
X80750000Y-78200000D03*
X79150000Y-79800000D03*
X24150000Y-115200000D03*
%TO.N,-12V*%
X66150000Y-58600000D03*
X119550000Y-17200000D03*
X26350000Y-110400000D03*
X64750000Y-74600000D03*
X84950000Y-34600000D03*
X61750000Y-84000000D03*
X12950000Y-100600000D03*
X86950000Y-27200000D03*
X65150000Y-69400000D03*
%TO.N,SENSE_1*%
X255150000Y-82200000D03*
X247150000Y-80200000D03*
%TO.N,+12V*%
X144950000Y-32200000D03*
X64750000Y-31000000D03*
X81350000Y-22600000D03*
X79550000Y-24400000D03*
X42750000Y-39600000D03*
X140350000Y-40800000D03*
X25550000Y-91600000D03*
X140750000Y-15200000D03*
X149550000Y-40200000D03*
X138750000Y-14600000D03*
X142350000Y-19800000D03*
X18950000Y-96000000D03*
X40750000Y-40800000D03*
X66150000Y-29600000D03*
X144750000Y-40800000D03*
%TO.N,SR_DATA*%
X157950000Y-62400000D03*
X110750000Y-43400000D03*
X107150000Y-40800000D03*
X112950000Y-44200000D03*
X157950000Y-71200000D03*
X119750000Y-51200000D03*
X145550000Y-71200000D03*
X124750000Y-45400000D03*
X118150000Y-51400000D03*
X138150000Y-50800000D03*
X127950000Y-44800000D03*
%TO.N,SENSE_2*%
X167350000Y-21400000D03*
X120150000Y-34400000D03*
X109350000Y-65000000D03*
%TO.N,SR_DIN*%
X137950000Y-15600000D03*
X87750000Y-24400000D03*
X85950000Y-37400000D03*
%TO.N,MUX_EN5*%
X251550000Y-83000000D03*
X190950000Y-81800000D03*
%TO.N,LED7*%
X109150000Y-83000000D03*
X132150000Y-60400000D03*
%TO.N,MUX_EN6_SR*%
X79150000Y-61400000D03*
X77550000Y-66599999D03*
X81550000Y-61200000D03*
X84750000Y-61000000D03*
%TO.N,MUX_EN6*%
X96950000Y-41600000D03*
X98350000Y-40600000D03*
%TO.N,LED6*%
X107550000Y-85600000D03*
X122950000Y-111800000D03*
%TO.N,MUX_EN4_SR*%
X99550000Y-45600000D03*
X120350000Y-16200000D03*
X93750000Y-44000000D03*
X85550000Y-26000000D03*
X143350000Y-36600000D03*
X141350000Y-34000000D03*
X134950000Y-18600000D03*
X147950000Y-41200000D03*
X146550000Y-39800000D03*
X157150000Y-43400000D03*
X90550000Y-42400000D03*
X106150000Y-17000000D03*
%TO.N,MUX_EN4*%
X228750000Y-43000000D03*
X178350000Y-43400000D03*
X176550000Y-44400000D03*
X222950000Y-42600000D03*
%TO.N,LED4*%
X99750000Y-81600000D03*
X105950000Y-86200000D03*
%TO.N,LED5*%
X120950000Y-31600000D03*
X121350000Y-48000000D03*
X120950000Y-36600000D03*
X120950000Y-26200000D03*
X120950000Y-53200000D03*
X118950000Y-18200000D03*
X117550000Y-78400000D03*
X120750000Y-23000000D03*
%TO.N,LED8*%
X164750000Y-112400000D03*
X121150000Y-111200000D03*
X104950000Y-86400000D03*
X138150000Y-112800000D03*
%TO.N,LED10*%
X209150000Y-82600000D03*
X134750000Y-115200000D03*
X198950000Y-111000000D03*
X167750000Y-115400000D03*
X100950000Y-85600000D03*
X131750000Y-115200000D03*
%TO.N,SR_CHAIN2*%
X122350000Y-79000000D03*
X101750000Y-84400000D03*
X104550000Y-91400000D03*
X117550000Y-90600000D03*
%TO.N,LED3*%
X106150000Y-81200000D03*
X90550000Y-83200000D03*
%TO.N,MUX_EN2*%
X64750000Y-67000000D03*
X56950000Y-78600000D03*
%TO.N,MUX_S2_SR*%
X113950000Y-42800000D03*
X116350000Y-41600000D03*
%TO.N,MUX_EN0_SR*%
X100550000Y-42400000D03*
X79550000Y-39400000D03*
%TO.N,MUX_EN1_SR*%
X71950000Y-44000000D03*
X99750000Y-47200000D03*
%TO.N,MUX_EN2_SR*%
X99950000Y-48600000D03*
X86350000Y-51800000D03*
X104150000Y-46200000D03*
X70950000Y-64200000D03*
X103950000Y-48400000D03*
X100750000Y-47000000D03*
%TO.N,SR_CHAIN1*%
X98550000Y-47400000D03*
X80550000Y-72400000D03*
X84350000Y-68400000D03*
X97350000Y-57800000D03*
%TO.N,MUX_S0_SR*%
X108350000Y-40800000D03*
X118150000Y-45200000D03*
X116750000Y-44000000D03*
X114550000Y-41400000D03*
%TO.N,MUX_EN9_SR*%
X105550000Y-59800000D03*
X96350000Y-61400000D03*
X81950000Y-65599999D03*
X104550000Y-57800000D03*
%TO.N,MUX_EN9*%
X172550000Y-63800000D03*
X175950000Y-63800000D03*
%TO.N,SR_SPARE1*%
X119950000Y-60400000D03*
X122350000Y-58600000D03*
%TO.N,SR_SPARE6*%
X77150000Y-38200000D03*
X84350000Y-54600000D03*
X238750000Y-89800000D03*
X78350000Y-37000000D03*
X222550000Y-101800000D03*
X39750000Y-37800000D03*
X42550000Y-37800000D03*
X124150000Y-102600000D03*
X85950000Y-57200000D03*
X146350000Y-66400000D03*
X22750000Y-46600000D03*
X86350000Y-48200000D03*
X185950000Y-68000000D03*
X237150000Y-84000000D03*
X138950000Y-60000000D03*
X143950000Y-103000000D03*
X211950000Y-82600000D03*
X187350000Y-71200000D03*
X81950000Y-104800000D03*
X155150000Y-105200000D03*
X226350000Y-93400000D03*
X127150000Y-61400000D03*
X238150000Y-87800000D03*
X151150000Y-105000000D03*
X54550000Y-116000000D03*
X80350000Y-38600000D03*
X149150000Y-103000000D03*
X158950000Y-104800000D03*
X220950000Y-104000000D03*
X87950000Y-40200000D03*
X107550000Y-104600000D03*
X61350000Y-36000000D03*
X58950000Y-33600000D03*
X86550000Y-45000000D03*
X209150000Y-104800000D03*
X141950000Y-62000000D03*
%TO.N,SR_SPARE7*%
X122750000Y-50600000D03*
X123950000Y-49400000D03*
%TO.N,MUX_EN8*%
X135150000Y-42800000D03*
X146950000Y-32200000D03*
%TO.N,-12V_IN*%
X27550000Y-112600000D03*
%TO.N,MUX_EN8_SR*%
X80550000Y-67000000D03*
X124350000Y-46400000D03*
X85550000Y-64400000D03*
X119750000Y-49800000D03*
%TO.N,LED1*%
X81750000Y-54000000D03*
X55950000Y-23200000D03*
X74150000Y-44800000D03*
X68950000Y-42400000D03*
%TO.N,MUX_EN5_SR*%
X169950000Y-78200000D03*
X165150000Y-77000000D03*
%TO.N,MUX_EN1*%
X46150000Y-44800000D03*
X39950000Y-45000000D03*
X72550000Y-44800000D03*
X47950000Y-44800000D03*
%TO.N,+12V_IN*%
X25750000Y-92600000D03*
%TD*%
%TO.N,MOD3_B*%
D23*
X192550000Y-104800000D02*
X192750000Y-105000000D01*
X166750000Y-81000000D02*
X168150000Y-81000000D01*
X182950000Y-92800000D02*
X182950000Y-96800000D01*
X182950000Y-96800000D02*
X190950000Y-104800000D01*
X165350000Y-82800000D02*
X166550000Y-81600000D01*
X192750000Y-107600000D02*
X202750000Y-117600000D01*
X181550000Y-90600000D02*
X181550000Y-91400000D01*
X171550000Y-80800000D02*
X172950000Y-82200000D01*
X202800000Y-117670000D02*
X202750000Y-117600000D01*
X172950000Y-82400000D02*
X173550000Y-83000000D01*
X165400000Y-82730000D02*
X165350000Y-82800000D01*
X168150000Y-81000000D02*
X168550000Y-80600000D01*
X169750000Y-80400000D02*
X169950000Y-80400000D01*
X173550000Y-84400000D02*
X174950000Y-85800000D01*
X170950000Y-81000000D02*
X171350000Y-81000000D01*
X190950000Y-104800000D02*
X192550000Y-104800000D01*
X170750000Y-81200000D02*
X170950000Y-81000000D01*
X173550000Y-83000000D02*
X173550000Y-84400000D01*
X168550000Y-80600000D02*
X169550000Y-80600000D01*
X171350000Y-81000000D02*
X171550000Y-80800000D01*
X166550000Y-81200000D02*
X166750000Y-81000000D01*
X181550000Y-91400000D02*
X182950000Y-92800000D01*
X169950000Y-80400000D02*
X170750000Y-81200000D01*
X192750000Y-105000000D02*
X192750000Y-107600000D01*
X169550000Y-80600000D02*
X169750000Y-80400000D01*
X166550000Y-81600000D02*
X166550000Y-81200000D01*
X172950000Y-82200000D02*
X172950000Y-82400000D01*
%TO.N,GATE_B*%
X224750000Y-107800000D02*
X227550000Y-107800000D01*
X224350000Y-107400000D02*
X224750000Y-107800000D01*
X144550000Y-82800000D02*
X144750000Y-82600000D01*
X224350000Y-106200000D02*
X224350000Y-107400000D01*
X144750000Y-82600000D02*
X144750000Y-82400000D01*
X227550000Y-107800000D02*
X237350000Y-117600000D01*
X147750000Y-80800000D02*
X149750000Y-82800000D01*
X149750000Y-82800000D02*
X149750000Y-83000000D01*
X159150000Y-89400000D02*
X160350000Y-90600000D01*
X144750000Y-82400000D02*
X144950000Y-82200000D01*
X150950000Y-84200000D02*
X150950000Y-84600000D01*
X149750000Y-83000000D02*
X150950000Y-84200000D01*
X158950000Y-88600000D02*
X159350000Y-89000000D01*
X218550000Y-100400000D02*
X224350000Y-106200000D01*
X159350000Y-89200000D02*
X159150000Y-89400000D01*
X160350000Y-91600000D02*
X161150000Y-92400000D01*
X144950000Y-82200000D02*
X144950000Y-79600000D01*
X160350000Y-90600000D02*
X160350000Y-91600000D01*
X159350000Y-89000000D02*
X159350000Y-89200000D01*
X144480000Y-82730000D02*
X144550000Y-82800000D01*
X161150000Y-92400000D02*
X161150000Y-95000000D01*
X237300000Y-117670000D02*
X237350000Y-117600000D01*
%TO.N,M5_CH4*%
X251350000Y-84000000D02*
X250550000Y-84800000D01*
X234550000Y-86000000D02*
X233150000Y-87400000D01*
X257550000Y-83000000D02*
X253150000Y-83000000D01*
X252150000Y-84000000D02*
X251350000Y-84000000D01*
X235150000Y-86000000D02*
X234550000Y-86000000D01*
X236350000Y-84800000D02*
X235150000Y-86000000D01*
X253150000Y-83000000D02*
X252150000Y-84000000D01*
X233200000Y-87500000D02*
X233150000Y-87400000D01*
X250550000Y-84800000D02*
X236350000Y-84800000D01*
%TO.N,M7_CH6*%
X117350000Y-71600000D02*
X118350000Y-72600000D01*
X129400000Y-87500000D02*
X129350000Y-87400000D01*
X116950000Y-67800000D02*
X117350000Y-68200000D01*
X127750000Y-85800000D02*
X129350000Y-87400000D01*
X126550000Y-85200000D02*
X126950000Y-85600000D01*
X117350000Y-68200000D02*
X117350000Y-71600000D01*
X116950000Y-67600000D02*
X116950000Y-67800000D01*
X123550000Y-81600000D02*
X126550000Y-84600000D01*
X126550000Y-84600000D02*
X126550000Y-85200000D01*
X127350000Y-85600000D02*
X127550000Y-85800000D01*
X126950000Y-85600000D02*
X127350000Y-85600000D01*
X127550000Y-85800000D02*
X127750000Y-85800000D01*
%TO.N,M9_CH4*%
X188150000Y-65800000D02*
X190150000Y-65800000D01*
X191550000Y-66000000D02*
X192350000Y-66800000D01*
X190150000Y-65800000D02*
X190350000Y-66000000D01*
X190350000Y-66000000D02*
X191550000Y-66000000D01*
X192800000Y-67375000D02*
X192750000Y-67400000D01*
X187350000Y-65000000D02*
X188150000Y-65800000D01*
X192350000Y-67000000D02*
X192750000Y-67400000D01*
X192350000Y-66800000D02*
X192350000Y-67000000D01*
%TO.N,MOD2_B*%
X178150000Y-84200000D02*
X179550000Y-85600000D01*
X186150000Y-92600000D02*
X186150000Y-96800000D01*
X179550000Y-85600000D02*
X179550000Y-86000000D01*
X179550000Y-86000000D02*
X186150000Y-92600000D01*
X186150000Y-96800000D02*
X187350000Y-98000000D01*
X187350000Y-100000000D02*
X187750000Y-100400000D01*
X194350000Y-100400000D02*
X199550000Y-105600000D01*
X187750000Y-100400000D02*
X194350000Y-100400000D01*
X187350000Y-98000000D02*
X187350000Y-100000000D01*
%TO.N,GATE_A*%
X137350000Y-91400000D02*
X135950000Y-92800000D01*
X144480000Y-85270000D02*
X144550000Y-85200000D01*
X141750000Y-88000000D02*
X140950000Y-88000000D01*
X140950000Y-88000000D02*
X137550000Y-91400000D01*
X144550000Y-85200000D02*
X141750000Y-88000000D01*
X137550000Y-91400000D02*
X137350000Y-91400000D01*
%TO.N,RESET*%
X123150000Y-82400000D02*
X123150000Y-90000000D01*
X138150000Y-79800000D02*
X138350000Y-79800000D01*
X146950000Y-100000000D02*
X147350000Y-100400000D01*
X136950000Y-82800000D02*
X136950000Y-81400000D01*
X151550000Y-100400000D02*
X153750000Y-102600000D01*
X136860000Y-82730000D02*
X136950000Y-82800000D01*
X137550000Y-80400000D02*
X138150000Y-79800000D01*
X137550000Y-80800000D02*
X137550000Y-80400000D01*
X122550000Y-80200000D02*
X122550000Y-81800000D01*
X140350000Y-79600000D02*
X140350000Y-78000000D01*
X136950000Y-81400000D02*
X137550000Y-80800000D01*
X138350000Y-75200000D02*
X137150000Y-74000000D01*
X135350000Y-88400000D02*
X137350000Y-90400000D01*
X147350000Y-100400000D02*
X151550000Y-100400000D01*
X122550000Y-81800000D02*
X123150000Y-82400000D01*
X122950000Y-79800000D02*
X122550000Y-80200000D01*
X138750000Y-75200000D02*
X138350000Y-75200000D01*
X138350000Y-79800000D02*
X138550000Y-79600000D01*
X134950000Y-88400000D02*
X135350000Y-88400000D01*
%TO.N,M1_CH1*%
X31200000Y-47250000D02*
X31150000Y-47200000D01*
X38150000Y-45800000D02*
X32549999Y-45800000D01*
X40950000Y-48600000D02*
X38150000Y-45800000D01*
X32549999Y-45800000D02*
X31150000Y-47200000D01*
X41150000Y-48600000D02*
X40950000Y-48600000D01*
%TO.N,M2_CH4*%
X24550000Y-85000000D02*
X23550000Y-86000000D01*
X33150000Y-85000000D02*
X24550000Y-85000000D01*
X41750000Y-83600000D02*
X40750000Y-82600000D01*
X11000000Y-87500000D02*
X10950000Y-87400000D01*
X45550000Y-83400000D02*
X43350000Y-83400000D01*
X43150000Y-83600000D02*
X41750000Y-83600000D01*
X43350000Y-83400000D02*
X43150000Y-83600000D01*
X12350000Y-86000000D02*
X10950000Y-87400000D01*
X23550000Y-86000000D02*
X12350000Y-86000000D01*
X35550000Y-82600000D02*
X33150000Y-85000000D01*
X40750000Y-82600000D02*
X35550000Y-82600000D01*
%TO.N,M8_CH1*%
X175400000Y-22000000D02*
X175350000Y-22000000D01*
X181350000Y-23600000D02*
X180950000Y-24000000D01*
X177350000Y-24000000D02*
X175350000Y-22000000D01*
X180950000Y-24000000D02*
X177350000Y-24000000D01*
X182350000Y-23600000D02*
X181350000Y-23600000D01*
%TO.N,M9_CH7*%
X182150000Y-67400000D02*
X183350000Y-68600000D01*
X183950000Y-72800000D02*
X183950000Y-75800000D01*
X187350000Y-79800000D02*
X188350000Y-80800000D01*
X192800000Y-87500000D02*
X192750000Y-87400000D01*
X188350000Y-83000000D02*
X192750000Y-87400000D01*
X181750000Y-66200000D02*
X182150000Y-66599999D01*
X180150000Y-66200000D02*
X181750000Y-66200000D01*
X183350000Y-68600000D02*
X183350000Y-72200000D01*
X188350000Y-80800000D02*
X188350000Y-83000000D01*
X183350000Y-72200000D02*
X183950000Y-72800000D01*
X178950000Y-65000000D02*
X180150000Y-66200000D01*
X182150000Y-66599999D02*
X182150000Y-67400000D01*
%TO.N,M2_CH5*%
X32750000Y-86000000D02*
X31750000Y-87000000D01*
X37350000Y-83400000D02*
X34950000Y-85800000D01*
X34950000Y-85800000D02*
X33750000Y-85800000D01*
X40350000Y-83400000D02*
X37350000Y-83400000D01*
X33750000Y-85800000D02*
X33549999Y-86000000D01*
X31750000Y-87000000D02*
X31550000Y-87000000D01*
X31200000Y-87500000D02*
X31150000Y-87400000D01*
X31550000Y-87000000D02*
X31150000Y-87400000D01*
X33549999Y-86000000D02*
X32750000Y-86000000D01*
%TO.N,M7_CH2*%
X108550000Y-65599999D02*
X108750000Y-65599999D01*
X108350000Y-65400000D02*
X108550000Y-65599999D01*
X103550000Y-65200000D02*
X103750000Y-65400000D01*
X105750000Y-66000000D02*
X105950000Y-65800000D01*
X103150000Y-64599999D02*
X103550000Y-65000000D01*
X105950000Y-65800000D02*
X107350000Y-65800000D01*
X103950000Y-65400000D02*
X104350000Y-65800000D01*
X105350000Y-65800000D02*
X105550000Y-66000000D01*
X107350000Y-65800000D02*
X107550000Y-66000000D01*
X103750000Y-65400000D02*
X103950000Y-65400000D01*
X111550000Y-66400000D02*
X111550000Y-67000000D01*
X108150000Y-65400000D02*
X108350000Y-65400000D01*
X104350000Y-65800000D02*
X105350000Y-65800000D01*
X108750000Y-65599999D02*
X108950000Y-65800000D01*
X108950000Y-65800000D02*
X111150000Y-65800000D01*
X111150000Y-66000000D02*
X111550000Y-66400000D01*
X111150000Y-65800000D02*
X111150000Y-66000000D01*
X111550000Y-67000000D02*
X111950000Y-67400000D01*
X102950000Y-64599999D02*
X103150000Y-64599999D01*
X103550000Y-65000000D02*
X103550000Y-65200000D01*
X112000000Y-67375000D02*
X111950000Y-67400000D01*
X107550000Y-66000000D02*
X108150000Y-65400000D01*
X105550000Y-66000000D02*
X105750000Y-66000000D01*
%TO.N,PITCH_A*%
X76750000Y-100400000D02*
X75950000Y-100400000D01*
X75950000Y-100400000D02*
X68550000Y-107800000D01*
X68550000Y-107800000D02*
X65750000Y-107800000D01*
X80750000Y-96400000D02*
X76750000Y-100400000D01*
X65750000Y-107800000D02*
X55950000Y-117600000D01*
X56000000Y-117670000D02*
X55950000Y-117600000D01*
%TO.N,M5_CH2*%
X272550000Y-66400000D02*
X273550000Y-67400000D01*
X272350000Y-66000000D02*
X272550000Y-66200000D01*
X273600000Y-67375000D02*
X273550000Y-67400000D01*
X267350000Y-68600000D02*
X269950000Y-66000000D01*
X269950000Y-66000000D02*
X272350000Y-66000000D01*
X272550000Y-66200000D02*
X272550000Y-66400000D01*
X266350000Y-68600000D02*
X267350000Y-68600000D01*
%TO.N,M8_CH0*%
X160950000Y-19800000D02*
X158550000Y-22200000D01*
X154950000Y-24600000D02*
X154550000Y-24200000D01*
X154550000Y-24200000D02*
X153950000Y-24200000D01*
X156150000Y-24600000D02*
X154950000Y-24600000D01*
%TO.N,M7_CH5*%
X119550000Y-75000000D02*
X119550000Y-77000000D01*
X119950000Y-74600000D02*
X119550000Y-75000000D01*
X119950000Y-71800000D02*
X119950000Y-74600000D01*
X119550000Y-77000000D02*
X119150000Y-77400000D01*
X119150000Y-71000000D02*
X119950000Y-71800000D01*
%TO.N,M0_CH1*%
X33750000Y-24600000D02*
X33549999Y-24400000D01*
X38950000Y-26200000D02*
X37350000Y-24600000D01*
X40550000Y-26200000D02*
X38950000Y-26200000D01*
X33150000Y-24200000D02*
X32750000Y-24200000D01*
X33350000Y-24400000D02*
X33150000Y-24200000D01*
X37350000Y-24600000D02*
X33750000Y-24600000D01*
X33549999Y-24400000D02*
X33350000Y-24400000D01*
%TO.N,KEY_REC_B*%
X83750000Y-30200000D02*
X82550000Y-31400000D01*
X77750000Y-47600000D02*
X77750000Y-48800000D01*
X77150000Y-47000000D02*
X77750000Y-47600000D01*
X115750000Y-15000000D02*
X108150000Y-15000000D01*
X83950000Y-26400000D02*
X83950000Y-26600000D01*
X82350000Y-31800000D02*
X82350000Y-34200000D01*
X106950000Y-16200000D02*
X106750000Y-16200000D01*
X122750000Y-31600000D02*
X121950000Y-30800000D01*
X121150000Y-16800000D02*
X121150000Y-15800000D01*
X120750000Y-15400000D02*
X116150000Y-15400000D01*
X77950000Y-38600000D02*
X77950000Y-40600000D01*
X122750000Y-22800000D02*
X122750000Y-21200000D01*
X121150000Y-15800000D02*
X120750000Y-15400000D01*
X116150000Y-15400000D02*
X115750000Y-15000000D01*
X77750000Y-40800000D02*
X77750000Y-42200000D01*
X83950000Y-26600000D02*
X83750000Y-26800000D01*
X77750000Y-42200000D02*
X77550000Y-42400000D01*
X83750000Y-26800000D02*
X83750000Y-30200000D01*
X85350000Y-25000000D02*
X83950000Y-26400000D01*
X108150000Y-15000000D02*
X106950000Y-16200000D01*
X122750000Y-32200000D02*
X122750000Y-31600000D01*
X123750000Y-19400000D02*
X121150000Y-16800000D01*
X122950000Y-32400000D02*
X122750000Y-32200000D01*
X77950000Y-40600000D02*
X77750000Y-40800000D01*
X82550000Y-31600000D02*
X82350000Y-31800000D01*
X77750000Y-48800000D02*
X78750000Y-49800000D01*
X82350000Y-34200000D02*
X77950000Y-38600000D01*
X121950000Y-30800000D02*
X121950000Y-26000000D01*
X77150000Y-45800000D02*
X77150000Y-47000000D01*
X82550000Y-31400000D02*
X82550000Y-31600000D01*
%TO.N,M9_CH3*%
X178150000Y-65200000D02*
X177750000Y-65599999D01*
X177150000Y-61600000D02*
X178150000Y-61600000D01*
X177750000Y-65599999D02*
X177150000Y-65599999D01*
X175400000Y-67375000D02*
X175350000Y-67400000D01*
X176950000Y-61400000D02*
X177150000Y-61600000D01*
X178550000Y-64200000D02*
X178150000Y-64599999D01*
X177150000Y-65599999D02*
X175350000Y-67400000D01*
X178150000Y-61600000D02*
X178550000Y-62000000D01*
X178550000Y-62000000D02*
X178550000Y-64200000D01*
X178150000Y-64599999D02*
X178150000Y-65200000D01*
%TO.N,M7_CH3*%
X103550000Y-63400000D02*
X104150000Y-62800000D01*
X119550000Y-63400000D02*
X120150000Y-63400000D01*
X103150000Y-63600000D02*
X103350000Y-63400000D01*
X126950000Y-64000000D02*
X127150000Y-64200000D01*
X127150000Y-64200000D02*
X127350000Y-64200000D01*
X108150000Y-61200000D02*
X108350000Y-61000000D01*
X127950000Y-64800000D02*
X127950000Y-65800000D01*
X105150000Y-62800000D02*
X106150000Y-61800000D01*
X102350000Y-68000000D02*
X102350000Y-65200000D01*
X106550000Y-61800000D02*
X107150000Y-61200000D01*
X127950000Y-65800000D02*
X128350000Y-66200000D01*
X125750000Y-63000000D02*
X125950000Y-63000000D01*
X126550000Y-63400000D02*
X126550000Y-63800000D01*
X127750000Y-64400000D02*
X127750000Y-64599999D01*
X123950000Y-64200000D02*
X124550000Y-64200000D01*
X120950000Y-64200000D02*
X121150000Y-64200000D01*
X102150000Y-64200000D02*
X102750000Y-63600000D01*
X106150000Y-61800000D02*
X106550000Y-61800000D01*
X126750000Y-64000000D02*
X126950000Y-64000000D01*
X102150000Y-65000000D02*
X102150000Y-64200000D01*
X125950000Y-63000000D02*
X126150000Y-63200000D01*
X108350000Y-61000000D02*
X113150000Y-61000000D01*
X107150000Y-61200000D02*
X108150000Y-61200000D01*
X120150000Y-63400000D02*
X120950000Y-64200000D01*
X122950000Y-64599999D02*
X123150000Y-64800000D01*
X128350000Y-66200000D02*
X128350000Y-66400000D01*
X123350000Y-64800000D02*
X123950000Y-64200000D01*
X126150000Y-63200000D02*
X126350000Y-63200000D01*
X121350000Y-64400000D02*
X122350000Y-64400000D01*
X126350000Y-63200000D02*
X126550000Y-63400000D01*
X123150000Y-64800000D02*
X123350000Y-64800000D01*
X128350000Y-66400000D02*
X129350000Y-67400000D01*
X102750000Y-63600000D02*
X103150000Y-63600000D01*
X125150000Y-63800000D02*
X125550000Y-63400000D01*
X121150000Y-64200000D02*
X121350000Y-64400000D01*
X122750000Y-64800000D02*
X122950000Y-64599999D01*
X122350000Y-64400000D02*
X122750000Y-64800000D01*
X103350000Y-63400000D02*
X103550000Y-63400000D01*
X125550000Y-63400000D02*
X125550000Y-63200000D01*
X125550000Y-63200000D02*
X125750000Y-63000000D01*
X127550000Y-64400000D02*
X127750000Y-64400000D01*
X127350000Y-64200000D02*
X127550000Y-64400000D01*
X104150000Y-62800000D02*
X105150000Y-62800000D01*
X126550000Y-63800000D02*
X126750000Y-64000000D01*
X124550000Y-64200000D02*
X124950000Y-63800000D01*
X127750000Y-64599999D02*
X127950000Y-64800000D01*
X124950000Y-63800000D02*
X125150000Y-63800000D01*
X129400000Y-67375000D02*
X129350000Y-67400000D01*
X102350000Y-65200000D02*
X102150000Y-65000000D01*
%TO.N,MOD3_A*%
X165150000Y-91600000D02*
X164350000Y-92400000D01*
X165350000Y-85200000D02*
X165150000Y-85400000D01*
X165400000Y-85270000D02*
X165350000Y-85200000D01*
X164350000Y-92400000D02*
X164350000Y-99800000D01*
X165150000Y-85400000D02*
X165150000Y-91600000D01*
%TO.N,M2_CH7*%
X70150000Y-86000000D02*
X71550000Y-87400000D01*
X52950000Y-86000000D02*
X70150000Y-86000000D01*
X42750000Y-82400000D02*
X43150000Y-82400000D01*
X42150000Y-82800000D02*
X42350000Y-82600000D01*
X43150000Y-82400000D02*
X43350000Y-82600000D01*
X42550000Y-82600000D02*
X42750000Y-82400000D01*
X47150000Y-83000000D02*
X49550000Y-83000000D01*
X71600000Y-87500000D02*
X71550000Y-87400000D01*
X51750000Y-84800000D02*
X52950000Y-86000000D01*
X43350000Y-82600000D02*
X46750000Y-82600000D01*
X46750000Y-82600000D02*
X47150000Y-83000000D01*
X49550000Y-83000000D02*
X50150000Y-83600000D01*
X42350000Y-82600000D02*
X42550000Y-82600000D01*
%TO.N,M0_CH0*%
X40550000Y-24400000D02*
X39550000Y-24400000D01*
X39550000Y-24400000D02*
X38550000Y-23400000D01*
X11000000Y-22000000D02*
X10950000Y-22000000D01*
X38550000Y-23400000D02*
X12350000Y-23400000D01*
X12350000Y-23400000D02*
X10950000Y-22000000D01*
%TO.N,IN_R*%
X136950000Y-87600000D02*
X136750000Y-87800000D01*
X138950000Y-87600000D02*
X136950000Y-87600000D01*
%TO.N,M6_CH4*%
X122750000Y-27600000D02*
X123950000Y-28800000D01*
%TO.N,M8_CH5*%
X192350000Y-26600000D02*
X192350000Y-26800000D01*
X185950000Y-22000000D02*
X188950000Y-25000000D01*
X192800000Y-27125000D02*
X192750000Y-27200000D01*
X182350000Y-26600000D02*
X182550000Y-26400000D01*
X182550000Y-26400000D02*
X182550000Y-24600000D01*
X182550000Y-24600000D02*
X185150000Y-22000000D01*
X185150000Y-22000000D02*
X185950000Y-22000000D01*
X181950000Y-26600000D02*
X182350000Y-26600000D01*
X191150000Y-25600000D02*
X191350000Y-25600000D01*
X191350000Y-25600000D02*
X192350000Y-26600000D01*
X192350000Y-26800000D02*
X192750000Y-27200000D01*
X190550000Y-25000000D02*
X191150000Y-25600000D01*
X188950000Y-25000000D02*
X190550000Y-25000000D01*
%TO.N,OUT_R*%
X135350000Y-86200000D02*
X135350000Y-86400000D01*
X135350000Y-86400000D02*
X135750000Y-86800000D01*
X135750000Y-86800000D02*
X141350000Y-86800000D01*
X141350000Y-86800000D02*
X141550000Y-87000000D01*
X134320000Y-85270000D02*
X134350000Y-85200000D01*
X134350000Y-85200000D02*
X135350000Y-86200000D01*
%TO.N,M6_CH6*%
X111950000Y-24600000D02*
X112950000Y-25600000D01*
X126550000Y-43600000D02*
X126950000Y-44000000D01*
X121550000Y-35000000D02*
X121550000Y-36000000D01*
X119950000Y-31800000D02*
X120950000Y-32799999D01*
X126950000Y-44000000D02*
X126750000Y-44200000D01*
X111550000Y-24400000D02*
X111750000Y-24600000D01*
X121750000Y-37600000D02*
X121950000Y-37800000D01*
X126350000Y-41600000D02*
X126350000Y-41800000D01*
X126750000Y-42600000D02*
X126750000Y-43200000D01*
X121150000Y-34600000D02*
X121550000Y-35000000D01*
X122550000Y-38600000D02*
X123550000Y-39600000D01*
X125150000Y-40400000D02*
X125550000Y-40400000D01*
X129400000Y-47250000D02*
X129350000Y-47200000D01*
X126950000Y-44600000D02*
X127150000Y-44800000D01*
X126950000Y-44400000D02*
X126950000Y-44600000D01*
X121950000Y-38200000D02*
X122350000Y-38600000D01*
X126950000Y-45600000D02*
X127150000Y-45600000D01*
X127150000Y-45600000D02*
X127350000Y-45800000D01*
X128350000Y-46000000D02*
X128350000Y-46200000D01*
X121550000Y-36000000D02*
X121750000Y-36200000D01*
X126750000Y-44200000D02*
X126950000Y-44400000D01*
X121950000Y-37800000D02*
X121950000Y-38200000D01*
X125550000Y-40400000D02*
X126550000Y-41400000D01*
X123950000Y-39600000D02*
X124550000Y-40200000D01*
X122350000Y-38600000D02*
X122550000Y-38600000D01*
X126750000Y-45400000D02*
X126950000Y-45600000D01*
X115550000Y-25600000D02*
X119950000Y-30000000D01*
X126750000Y-43200000D02*
X126550000Y-43400000D01*
X120950000Y-32799999D02*
X120950000Y-33600000D01*
X128350000Y-46200000D02*
X129350000Y-47200000D01*
X126150000Y-42000000D02*
X126750000Y-42600000D01*
X123550000Y-39600000D02*
X123950000Y-39600000D01*
X124950000Y-40200000D02*
X125150000Y-40400000D01*
X121750000Y-36200000D02*
X121750000Y-37600000D01*
X126350000Y-41800000D02*
X126150000Y-42000000D01*
X124550000Y-40200000D02*
X124950000Y-40200000D01*
X112950000Y-25600000D02*
X115550000Y-25600000D01*
X126550000Y-41400000D02*
X126350000Y-41600000D01*
X121150000Y-33800000D02*
X121150000Y-34600000D01*
X126550000Y-43400000D02*
X126550000Y-43600000D01*
X126750000Y-45200000D02*
X126750000Y-45400000D01*
X127350000Y-45800000D02*
X128150000Y-45800000D01*
X120950000Y-33600000D02*
X121150000Y-33800000D01*
X119950000Y-30000000D02*
X119950000Y-31800000D01*
X111750000Y-24600000D02*
X111950000Y-24600000D01*
X128150000Y-45800000D02*
X128350000Y-46000000D01*
X127150000Y-44800000D02*
X126750000Y-45200000D01*
%TO.N,M6_CH3*%
X105750000Y-28000000D02*
X106550000Y-27200000D01*
X111550000Y-26400000D02*
X111550000Y-26800000D01*
X106950000Y-27200000D02*
X108550000Y-25600000D01*
X112000000Y-27125000D02*
X111950000Y-27200000D01*
X104550000Y-28000000D02*
X105750000Y-28000000D01*
X108550000Y-25600000D02*
X110750000Y-25600000D01*
X110750000Y-25600000D02*
X111550000Y-26400000D01*
X111550000Y-26800000D02*
X111950000Y-27200000D01*
X106550000Y-27200000D02*
X106950000Y-27200000D01*
%TO.N,CLOCK*%
X124950000Y-103200000D02*
X124950000Y-104600000D01*
X136000000Y-117670000D02*
X135950000Y-117600000D01*
X122750000Y-98600000D02*
X123550000Y-99400000D01*
X130750000Y-112200000D02*
X132350000Y-113800000D01*
X123750000Y-100200000D02*
X123750000Y-100600000D01*
X124950000Y-104600000D02*
X130750000Y-110400000D01*
X130750000Y-110400000D02*
X130750000Y-112200000D01*
X132350000Y-114000000D02*
X135950000Y-117600000D01*
X134320000Y-82730000D02*
X134350000Y-82800000D01*
X123950000Y-88400000D02*
X123950000Y-92000000D01*
X125750000Y-86200000D02*
X125350000Y-86600000D01*
X122750000Y-93200000D02*
X122750000Y-98600000D01*
X134350000Y-82800000D02*
X134150000Y-83000000D01*
X125350000Y-87000000D02*
X123950000Y-88400000D01*
X125350000Y-86600000D02*
X125350000Y-87000000D01*
X123950000Y-92000000D02*
X122750000Y-93200000D01*
X132350000Y-113800000D02*
X132350000Y-114000000D01*
X123950000Y-100800000D02*
X124150000Y-100800000D01*
X123550000Y-99400000D02*
X123550000Y-100000000D01*
X125750000Y-85000000D02*
X125750000Y-86200000D01*
X123550000Y-100000000D02*
X123750000Y-100200000D01*
X134150000Y-83000000D02*
X128949999Y-83000000D01*
X124150000Y-100800000D02*
X124950000Y-101600000D01*
X123750000Y-100600000D02*
X123950000Y-100800000D01*
%TO.N,M5_CH3*%
X232950000Y-86000000D02*
X214350000Y-86000000D01*
X214350000Y-86000000D02*
X212950000Y-87400000D01*
X233150000Y-85800000D02*
X232950000Y-86000000D01*
X213000000Y-87500000D02*
X212950000Y-87400000D01*
%TO.N,KEY_MODBTN*%
X79750000Y-60000000D02*
X78950000Y-60000000D01*
X96350000Y-63800000D02*
X96350000Y-62800000D01*
X123750000Y-72200000D02*
X122350000Y-70800000D01*
X96950000Y-64400000D02*
X96350000Y-63800000D01*
X142150000Y-72000000D02*
X137550000Y-72000000D01*
X78950000Y-60000000D02*
X78350000Y-60600000D01*
X80950000Y-59400000D02*
X80350000Y-59400000D01*
X83150000Y-60200000D02*
X82750000Y-59800000D01*
X81750000Y-59600000D02*
X81150000Y-59600000D01*
X94550000Y-60400000D02*
X85750000Y-60400000D01*
X85550000Y-60200000D02*
X83150000Y-60200000D01*
X81150000Y-59600000D02*
X80950000Y-59400000D01*
X78350000Y-60600000D02*
X78150000Y-60600000D01*
X81950000Y-59800000D02*
X81750000Y-59600000D01*
X82750000Y-59800000D02*
X81950000Y-59800000D01*
X80350000Y-59400000D02*
X79750000Y-60000000D01*
X85750000Y-60400000D02*
X85550000Y-60200000D01*
%TO.N,SD_D2*%
X156150000Y-84200000D02*
X155950000Y-84400000D01*
X156150000Y-83800000D02*
X156150000Y-84200000D01*
X158150000Y-79600000D02*
X158150000Y-79800000D01*
X163550000Y-74000000D02*
X163550000Y-75600000D01*
X158950000Y-90600000D02*
X158950000Y-91600000D01*
X155750000Y-82200000D02*
X155750000Y-83000000D01*
X163550000Y-62200000D02*
X163750000Y-62400000D01*
X158150000Y-79800000D02*
X156750000Y-81200000D01*
X159550000Y-93200000D02*
X159550000Y-97000000D01*
X158950000Y-92600000D02*
X159550000Y-93200000D01*
X148554000Y-111675000D02*
X148550000Y-111600000D01*
X157750000Y-98600000D02*
X157750000Y-100200000D01*
X158950000Y-91600000D02*
X159150000Y-91800000D01*
X157750000Y-100200000D02*
X157550000Y-100400000D01*
X159150000Y-91800000D02*
X158950000Y-92000000D01*
X156550000Y-86200000D02*
X156550000Y-86600000D01*
X156350000Y-81600000D02*
X155750000Y-82200000D01*
X158750000Y-79000000D02*
X158750000Y-79200000D01*
X156150000Y-86000000D02*
X156350000Y-86000000D01*
X158350000Y-41000000D02*
X158350000Y-44400000D01*
X155750000Y-83000000D02*
X155950000Y-83200000D01*
X155950000Y-83200000D02*
X155950000Y-83600000D01*
X148750000Y-108600000D02*
X148750000Y-109600000D01*
X158750000Y-79200000D02*
X158350000Y-79600000D01*
X159550000Y-36000000D02*
X158750000Y-36800000D01*
X163750000Y-62400000D02*
X163750000Y-73800000D01*
X158550000Y-40800000D02*
X158350000Y-41000000D01*
X157550000Y-100400000D02*
X157350000Y-100400000D01*
X158350000Y-44400000D02*
X158550000Y-44600000D01*
X148550000Y-109800000D02*
X148550000Y-111600000D01*
X159550000Y-97000000D02*
X159350000Y-97200000D01*
X156550000Y-101000000D02*
X152350000Y-105200000D01*
X158350000Y-79600000D02*
X158150000Y-79600000D01*
X158150000Y-88200000D02*
X158150000Y-89800000D01*
X156750000Y-81400000D02*
X156550000Y-81600000D01*
X159550000Y-78800000D02*
X159350000Y-79000000D01*
X161350000Y-32600000D02*
X159550000Y-34400000D01*
X155950000Y-84400000D02*
X155950000Y-85800000D01*
X159350000Y-97200000D02*
X159150000Y-97200000D01*
X156750000Y-81200000D02*
X156750000Y-81400000D01*
X156350000Y-86000000D02*
X156550000Y-86200000D01*
X157350000Y-100400000D02*
X156750000Y-101000000D01*
X152150000Y-105200000D02*
X148750000Y-108600000D01*
X155950000Y-83600000D02*
X156150000Y-83800000D01*
X148750000Y-109600000D02*
X148550000Y-109800000D01*
X159150000Y-97200000D02*
X157750000Y-98600000D01*
X159350000Y-79000000D02*
X158750000Y-79000000D01*
X163550000Y-53200000D02*
X163550000Y-62200000D01*
X163550000Y-75600000D02*
X162150000Y-77000000D01*
X158550000Y-39600000D02*
X158550000Y-40800000D01*
X158950000Y-92000000D02*
X158950000Y-92600000D01*
X156750000Y-101000000D02*
X156550000Y-101000000D01*
X159550000Y-34400000D02*
X159550000Y-36000000D01*
X152350000Y-105200000D02*
X152150000Y-105200000D01*
X158150000Y-89800000D02*
X158950000Y-90600000D01*
X155950000Y-85800000D02*
X156150000Y-86000000D01*
X156550000Y-81600000D02*
X156350000Y-81600000D01*
X163750000Y-73800000D02*
X163550000Y-74000000D01*
X158750000Y-36800000D02*
X158750000Y-39400000D01*
X158750000Y-39400000D02*
X158550000Y-39600000D01*
X156550000Y-86600000D02*
X158150000Y-88200000D01*
%TO.N,SD_D3*%
X145750000Y-80200000D02*
X147550000Y-82000000D01*
X159350000Y-52800000D02*
X159350000Y-53600000D01*
X147550000Y-82000000D02*
X147550000Y-86600000D01*
X145350000Y-88400000D02*
X145350000Y-88800000D01*
X148350000Y-66400000D02*
X148350000Y-66800000D01*
X146950000Y-68400000D02*
X146950000Y-71800000D01*
X147150000Y-68000000D02*
X147150000Y-68200000D01*
X144750000Y-105600000D02*
X144950000Y-105800000D01*
X145750000Y-88200000D02*
X145550000Y-88200000D01*
X146950000Y-71800000D02*
X145750000Y-73000000D01*
X163550000Y-31600000D02*
X161950000Y-33200000D01*
X165130000Y-26460000D02*
X165150000Y-26400000D01*
X147150000Y-68200000D02*
X146950000Y-68400000D01*
X145150000Y-90000000D02*
X144750000Y-90400000D01*
X165150000Y-26400000D02*
X163550000Y-28000000D01*
X159350000Y-47000000D02*
X159150000Y-47200000D01*
X159350000Y-40000000D02*
X159350000Y-47000000D01*
X144750000Y-90400000D02*
X144750000Y-105600000D01*
X145150000Y-89000000D02*
X145150000Y-90000000D01*
X146950000Y-87200000D02*
X146750000Y-87200000D01*
X153150000Y-66000000D02*
X148750000Y-66000000D01*
X148350000Y-66800000D02*
X147150000Y-68000000D01*
X159150000Y-57400000D02*
X159150000Y-60000000D01*
X146750000Y-87200000D02*
X145750000Y-88200000D01*
X159150000Y-60000000D02*
X153150000Y-66000000D01*
X145750000Y-73000000D02*
X145750000Y-80200000D01*
X159350000Y-57200000D02*
X159150000Y-57400000D01*
X163550000Y-28000000D02*
X163550000Y-31600000D01*
X159150000Y-47200000D02*
X159150000Y-52600000D01*
X161950000Y-33200000D02*
X161950000Y-37400000D01*
X145550000Y-88200000D02*
X145350000Y-88400000D01*
X148750000Y-66000000D02*
X148350000Y-66400000D01*
X147550000Y-86600000D02*
X146950000Y-87200000D01*
X145350000Y-88800000D02*
X145150000Y-89000000D01*
X159150000Y-52600000D02*
X159350000Y-52800000D01*
X161950000Y-37400000D02*
X159350000Y-40000000D01*
%TO.N,SD_CMD*%
X169150000Y-40200000D02*
X169150000Y-40600000D01*
X164950000Y-46400000D02*
X164350000Y-47000000D01*
X167750000Y-42800000D02*
X164950000Y-45600000D01*
X146350000Y-92800000D02*
X146150000Y-92800000D01*
X146750000Y-90200000D02*
X146750000Y-92400000D01*
X148350000Y-87000000D02*
X147150000Y-88200000D01*
X146150000Y-92800000D02*
X145750000Y-93200000D01*
X146750000Y-92400000D02*
X146350000Y-92800000D01*
X164950000Y-45600000D02*
X164950000Y-46400000D01*
X146750000Y-88400000D02*
X146750000Y-88800000D01*
X146350000Y-89800000D02*
X146750000Y-90200000D01*
X150950000Y-85800000D02*
X148950000Y-85800000D01*
X147350000Y-108200000D02*
X147350000Y-110800000D01*
X148550000Y-86200000D02*
X148550000Y-86400000D01*
X146350000Y-89200000D02*
X146350000Y-89800000D01*
X145750000Y-93200000D02*
X145750000Y-106600000D01*
X162550000Y-75000000D02*
X161750000Y-75800000D01*
X148350000Y-86600000D02*
X148350000Y-87000000D01*
X146950000Y-88200000D02*
X146750000Y-88400000D01*
X148550000Y-86400000D02*
X148350000Y-86600000D01*
X147150000Y-88200000D02*
X146950000Y-88200000D01*
X162550000Y-62400000D02*
X162550000Y-75000000D01*
X145750000Y-106600000D02*
X147350000Y-108200000D01*
X164350000Y-51200000D02*
X162750000Y-52800000D01*
X164350000Y-47000000D02*
X164350000Y-51200000D01*
X167750000Y-42000000D02*
X167750000Y-42800000D01*
X148950000Y-85800000D02*
X148550000Y-86200000D01*
X169150000Y-40600000D02*
X167750000Y-42000000D01*
X146750000Y-88800000D02*
X146350000Y-89200000D01*
X162750000Y-52800000D02*
X162750000Y-62200000D01*
X162750000Y-62200000D02*
X162550000Y-62400000D01*
X156150000Y-80600000D02*
X150950000Y-85800000D01*
%TO.N,SD_CK*%
X162750000Y-91600000D02*
X162750000Y-99600000D01*
X162950000Y-101200000D02*
X162750000Y-101400000D01*
X161950000Y-52400000D02*
X161950000Y-61800000D01*
X161350000Y-81000000D02*
X159750000Y-81000000D01*
X161150000Y-106400000D02*
X158150000Y-109400000D01*
X163550000Y-46600000D02*
X163550000Y-50800000D01*
X161350000Y-88800000D02*
X161950000Y-89400000D01*
X161150000Y-103400000D02*
X161150000Y-106400000D01*
X162350000Y-80000000D02*
X161350000Y-81000000D01*
X161950000Y-89400000D02*
X161950000Y-90800000D01*
X162950000Y-99800000D02*
X162950000Y-101200000D01*
X167750000Y-40200000D02*
X166550000Y-41400000D01*
X166550000Y-41400000D02*
X166550000Y-42200000D01*
X158550000Y-83400000D02*
X158550000Y-85400000D01*
X163750000Y-46400000D02*
X163550000Y-46600000D01*
X167670000Y-34080000D02*
X167750000Y-34000000D01*
X161350000Y-87800000D02*
X161350000Y-88800000D01*
X160750000Y-87200000D02*
X161350000Y-87800000D01*
X161950000Y-90800000D02*
X162750000Y-91600000D01*
X163750000Y-45000000D02*
X163750000Y-46400000D01*
X160950000Y-77000000D02*
X161950000Y-78000000D01*
X166550000Y-42200000D02*
X163750000Y-45000000D01*
X162750000Y-101400000D02*
X162950000Y-101600000D01*
X167750000Y-34000000D02*
X167750000Y-40200000D01*
X161950000Y-61800000D02*
X161750000Y-62000000D01*
X161750000Y-74600000D02*
X160950000Y-75400000D01*
X162950000Y-101600000D02*
X161150000Y-103400000D01*
X162750000Y-99600000D02*
X162950000Y-99800000D01*
X160950000Y-75400000D02*
X160950000Y-77000000D01*
X161750000Y-62000000D02*
X161750000Y-74600000D01*
X163550000Y-50800000D02*
X161950000Y-52400000D01*
%TO.N,SD_D0*%
X150950000Y-107800000D02*
X151350000Y-108200000D01*
X153950000Y-109400000D02*
X154750000Y-109400000D01*
X152750000Y-109200000D02*
X153150000Y-109200000D01*
X196750000Y-86800000D02*
X198150000Y-88200000D01*
X157550000Y-113600000D02*
X154950000Y-113600000D01*
X181350000Y-112000000D02*
X180150000Y-112000000D01*
X148950000Y-113600000D02*
X146350000Y-113600000D01*
X153550000Y-109000000D02*
X153950000Y-109400000D01*
X154950000Y-113600000D02*
X154150000Y-114400000D01*
X165150000Y-41200000D02*
X164350000Y-42000000D01*
X161150000Y-57400000D02*
X160950000Y-57600000D01*
X154150000Y-114400000D02*
X151950000Y-114400000D01*
X160750000Y-71000000D02*
X160950000Y-71200000D01*
X153350000Y-109000000D02*
X153550000Y-109000000D01*
X164350000Y-42000000D02*
X164550000Y-42200000D01*
X200750000Y-105800000D02*
X198150000Y-108400000D01*
X161150000Y-45600000D02*
X161150000Y-57400000D01*
X198150000Y-108400000D02*
X198150000Y-111800000D01*
X149150000Y-113800000D02*
X148950000Y-113600000D01*
X171750000Y-115400000D02*
X170950000Y-114600000D01*
X204950000Y-102000000D02*
X204350000Y-102000000D01*
X151950000Y-114400000D02*
X151350000Y-113800000D01*
X165150000Y-34000000D02*
X165150000Y-41200000D01*
X160950000Y-62200000D02*
X160750000Y-62400000D01*
X153150000Y-109200000D02*
X153350000Y-109000000D01*
X189150000Y-81000000D02*
X189150000Y-81200000D01*
X204350000Y-102000000D02*
X200750000Y-105600000D01*
X160750000Y-62400000D02*
X160750000Y-71000000D01*
X196750000Y-86400000D02*
X196750000Y-86800000D01*
X190950000Y-83000000D02*
X193350000Y-83000000D01*
X151750000Y-108200000D02*
X152750000Y-109200000D01*
X166550000Y-114200000D02*
X158150000Y-114200000D01*
X205350000Y-101600000D02*
X204950000Y-102000000D01*
X205350000Y-97200000D02*
X205350000Y-101600000D01*
X189150000Y-81200000D02*
X190950000Y-83000000D01*
X155150000Y-109800000D02*
X155150000Y-111600000D01*
X151350000Y-108200000D02*
X151750000Y-108200000D01*
X151350000Y-113800000D02*
X149150000Y-113800000D01*
X176750000Y-115400000D02*
X171750000Y-115400000D01*
X160950000Y-57600000D02*
X160950000Y-62200000D01*
X198150000Y-88200000D02*
X198150000Y-90000000D01*
X164550000Y-42200000D02*
X161150000Y-45600000D01*
X154750000Y-109400000D02*
X155150000Y-109800000D01*
X158150000Y-114200000D02*
X157550000Y-113600000D01*
X200750000Y-105600000D02*
X200750000Y-105800000D01*
X193350000Y-83000000D02*
X196750000Y-86400000D01*
X155156000Y-111675000D02*
X155150000Y-111600000D01*
X165130000Y-34080000D02*
X165150000Y-34000000D01*
X198150000Y-90000000D02*
X205350000Y-97200000D01*
X180150000Y-112000000D02*
X176750000Y-115400000D01*
%TO.N,SD_D1*%
X159550000Y-76000000D02*
X159950000Y-76400000D01*
X163950000Y-32600000D02*
X163550000Y-33000000D01*
X160350000Y-104400000D02*
X160150000Y-104600000D01*
X157550000Y-82000000D02*
X157750000Y-82200000D01*
X159550000Y-64599999D02*
X159550000Y-76000000D01*
X157750000Y-85600000D02*
X157750000Y-85800000D01*
X160350000Y-104800000D02*
X160350000Y-106000000D01*
X157750000Y-82200000D02*
X157750000Y-83800000D01*
X159950000Y-77400000D02*
X159950000Y-78000000D01*
X158150000Y-86200000D02*
X158150000Y-86600000D01*
X160350000Y-106000000D02*
X157350000Y-109000000D01*
X160150000Y-61800000D02*
X159950000Y-62000000D01*
X157550000Y-84200000D02*
X157750000Y-84400000D01*
X161950000Y-101400000D02*
X160350000Y-103000000D01*
X160150000Y-104600000D02*
X160350000Y-104800000D01*
X157750000Y-85800000D02*
X158150000Y-86200000D01*
X158150000Y-81200000D02*
X157950000Y-81200000D01*
X159550000Y-64200000D02*
X159350000Y-64400000D01*
X160150000Y-40400000D02*
X160150000Y-47400000D01*
X158350000Y-80800000D02*
X158350000Y-81000000D01*
X160550000Y-78400000D02*
X160350000Y-78600000D01*
X159550000Y-79800000D02*
X158950000Y-80400000D01*
X159950000Y-88000000D02*
X160350000Y-88000000D01*
X157750000Y-84400000D02*
X157750000Y-84800000D01*
X163550000Y-33000000D02*
X163550000Y-37000000D01*
X158550000Y-86600000D02*
X159950000Y-88000000D01*
X161150000Y-89800000D02*
X161150000Y-91200000D01*
X157550000Y-85000000D02*
X157550000Y-85400000D01*
X160150000Y-78000000D02*
X160550000Y-78400000D01*
X157750000Y-81400000D02*
X157750000Y-81800000D01*
X164150000Y-32600000D02*
X163950000Y-32600000D01*
X160350000Y-103000000D02*
X160350000Y-104400000D01*
X165130000Y-31540000D02*
X165150000Y-31600000D01*
X159950000Y-78000000D02*
X160150000Y-78000000D01*
X157550000Y-85400000D02*
X157750000Y-85600000D01*
X160150000Y-77200000D02*
X159950000Y-77400000D01*
X160350000Y-78600000D02*
X160350000Y-79200000D01*
X156256000Y-110575000D02*
X156350000Y-110600000D01*
X159550000Y-63200000D02*
X159550000Y-64200000D01*
X158750000Y-80400000D02*
X158350000Y-80800000D01*
X159750000Y-79800000D02*
X159550000Y-79800000D01*
X157350000Y-109000000D02*
X157350000Y-109600000D01*
X159350000Y-64400000D02*
X159550000Y-64599999D01*
X160350000Y-79200000D02*
X159750000Y-79800000D01*
X159950000Y-62000000D02*
X159950000Y-62200000D01*
X160350000Y-88000000D02*
X160550000Y-88200000D01*
X160550000Y-89200000D02*
X161150000Y-89800000D01*
X158350000Y-81000000D02*
X158150000Y-81200000D01*
X157750000Y-81800000D02*
X157550000Y-82000000D01*
X161150000Y-91200000D02*
X161950000Y-92000000D01*
X158950000Y-80400000D02*
X158750000Y-80400000D01*
X159950000Y-47600000D02*
X160150000Y-47800000D01*
X161950000Y-92000000D02*
X161950000Y-101400000D01*
X160150000Y-76800000D02*
X160150000Y-77200000D01*
X157750000Y-84800000D02*
X157550000Y-85000000D01*
X163550000Y-37000000D02*
X160150000Y-40400000D01*
X157350000Y-109600000D02*
X156350000Y-110600000D01*
X159950000Y-62200000D02*
X159750000Y-62400000D01*
X159750000Y-63000000D02*
X159550000Y-63200000D01*
X165150000Y-31600000D02*
X164150000Y-32600000D01*
X157550000Y-84000000D02*
X157550000Y-84200000D01*
X158150000Y-86600000D02*
X158550000Y-86600000D01*
X157950000Y-81200000D02*
X157750000Y-81400000D01*
X160550000Y-88200000D02*
X160550000Y-89200000D01*
X160150000Y-47400000D02*
X159950000Y-47600000D01*
X159950000Y-76400000D02*
X159950000Y-76600000D01*
X159750000Y-62400000D02*
X159750000Y-63000000D01*
X160150000Y-47800000D02*
X160150000Y-61800000D01*
X157750000Y-83800000D02*
X157550000Y-84000000D01*
X159950000Y-76600000D02*
X160150000Y-76800000D01*
%TO.N,M0_CH7*%
X41550000Y-21400000D02*
X41350000Y-21200000D01*
X41550000Y-24800000D02*
X41550000Y-21400000D01*
X70550000Y-26000000D02*
X70550000Y-26200000D01*
X40950000Y-25400000D02*
X41550000Y-24800000D01*
X71600000Y-27125000D02*
X71550000Y-27200000D01*
X70550000Y-26200000D02*
X71550000Y-27200000D01*
X63550000Y-19000000D02*
X70550000Y-26000000D01*
X39950000Y-25400000D02*
X40950000Y-25400000D01*
%TO.N,M9_CH2*%
X177750000Y-62400000D02*
X172750000Y-62400000D01*
X170150000Y-65000000D02*
X164550000Y-65000000D01*
X172750000Y-62400000D02*
X170150000Y-65000000D01*
%TO.N,KEY_SHIFTBTN*%
X78550000Y-48400000D02*
X79550000Y-49400000D01*
X76550000Y-45000000D02*
X77550000Y-45000000D01*
X15950000Y-106400000D02*
X15150000Y-106400000D01*
X77550000Y-45000000D02*
X77950000Y-45400000D01*
X39950000Y-43200000D02*
X42550000Y-40600000D01*
X70150000Y-42400000D02*
X73550000Y-42400000D01*
X77950000Y-46600000D02*
X78550000Y-47200000D01*
X37550000Y-43200000D02*
X39950000Y-43200000D01*
X78550000Y-47200000D02*
X78550000Y-48400000D01*
X67950000Y-40200000D02*
X70150000Y-42400000D01*
X79550000Y-49400000D02*
X79550000Y-50600000D01*
X14550000Y-107000000D02*
X10950000Y-103400000D01*
X36750000Y-44000000D02*
X37550000Y-43200000D01*
X11500000Y-110050000D02*
X11550000Y-110000000D01*
X77950000Y-45400000D02*
X77950000Y-46600000D01*
X15150000Y-106400000D02*
X11550000Y-110000000D01*
%TO.N,M4_CH1*%
X213000000Y-27125000D02*
X212950000Y-27200000D01*
X214750000Y-25400000D02*
X212950000Y-27200000D01*
X232350000Y-25400000D02*
X214750000Y-25400000D01*
%TO.N,M3_CH3*%
X280350000Y-32799999D02*
X279150000Y-31600000D01*
X279150000Y-31600000D02*
X279150000Y-31200000D01*
X280350000Y-34000000D02*
X280350000Y-32799999D01*
X280550000Y-34200000D02*
X280350000Y-34000000D01*
%TO.N,M9_CH6*%
X182150000Y-78600000D02*
X178350000Y-82400000D01*
X178350000Y-82400000D02*
X178350000Y-82800000D01*
X177150000Y-86000000D02*
X176950000Y-86000000D01*
X181350000Y-72200000D02*
X182150000Y-73000000D01*
X178350000Y-82800000D02*
X177550000Y-83600000D01*
X176950000Y-86000000D02*
X176150000Y-86800000D01*
X182150000Y-73000000D02*
X182150000Y-78600000D01*
X176150000Y-86800000D02*
X175950000Y-86800000D01*
X181350000Y-67400000D02*
X181350000Y-72200000D01*
X177350000Y-85800000D02*
X177150000Y-86000000D01*
X175950000Y-86800000D02*
X175350000Y-87400000D01*
X175400000Y-87500000D02*
X175350000Y-87400000D01*
X177350000Y-83600000D02*
X177350000Y-85800000D01*
X177550000Y-83600000D02*
X177350000Y-83600000D01*
%TO.N,M4_CH7*%
X217150000Y-62000000D02*
X216550000Y-62600000D01*
X216550000Y-63800000D02*
X212950000Y-67400000D01*
X229550000Y-45800000D02*
X227950000Y-47400000D01*
X226750000Y-51400000D02*
X217950000Y-60200000D01*
X216550000Y-62600000D02*
X216550000Y-63800000D01*
X213000000Y-67375000D02*
X212950000Y-67400000D01*
X229550000Y-45000000D02*
X229550000Y-45800000D01*
X227950000Y-48000000D02*
X227750000Y-48200000D01*
X227750000Y-48200000D02*
X227750000Y-50200000D01*
X227950000Y-47400000D02*
X227950000Y-48000000D01*
X217950000Y-60400000D02*
X217150000Y-61200000D01*
X226750000Y-51200000D02*
X226750000Y-51400000D01*
X227750000Y-50200000D02*
X226750000Y-51200000D01*
X217150000Y-61200000D02*
X217150000Y-62000000D01*
X217950000Y-60200000D02*
X217950000Y-60400000D01*
%TO.N,M2_CH0*%
X26350000Y-80400000D02*
X23750000Y-77800000D01*
X36150000Y-80400000D02*
X26350000Y-80400000D01*
X23350000Y-77800000D02*
X21350000Y-75800000D01*
X17550000Y-72800000D02*
X17350000Y-72800000D01*
X17350000Y-72800000D02*
X17150000Y-72600000D01*
X23750000Y-77800000D02*
X23350000Y-77800000D01*
X21350000Y-75800000D02*
X20550000Y-75800000D01*
X20550000Y-75800000D02*
X17550000Y-72800000D01*
X17150000Y-72600000D02*
X16550000Y-72600000D01*
%TO.N,MOD4_A*%
X163550000Y-88400000D02*
X163550000Y-92600000D01*
X162950000Y-86400000D02*
X163350000Y-86800000D01*
X160550000Y-98800000D02*
X159950000Y-99400000D01*
X162950000Y-85200000D02*
X162950000Y-86400000D01*
X160350000Y-97400000D02*
X160550000Y-97600000D01*
X160350000Y-94400000D02*
X160350000Y-97400000D01*
X163350000Y-88200000D02*
X163550000Y-88400000D01*
X163350000Y-86800000D02*
X163350000Y-88200000D01*
X131550000Y-100800000D02*
X129150000Y-103200000D01*
X162860000Y-85270000D02*
X162950000Y-85200000D01*
X160550000Y-97600000D02*
X160550000Y-98800000D01*
%TO.N,MOD2_A*%
X104550000Y-106400000D02*
X103150000Y-107800000D01*
X90500000Y-117670000D02*
X90550000Y-117600000D01*
X143950000Y-90800000D02*
X142150000Y-90800000D01*
X100350000Y-107800000D02*
X90550000Y-117600000D01*
X157750000Y-92200000D02*
X157950000Y-92400000D01*
X142150000Y-90800000D02*
X136350000Y-96600000D01*
X157950000Y-90800000D02*
X157750000Y-91000000D01*
X103150000Y-107800000D02*
X100350000Y-107800000D01*
X157750000Y-91000000D02*
X157750000Y-92200000D01*
%TO.N,M4_CH4*%
X224950000Y-40800000D02*
X222550000Y-40800000D01*
X219750000Y-43600000D02*
X216750000Y-43600000D01*
X222550000Y-40800000D02*
X219750000Y-43600000D01*
X214950000Y-45200000D02*
X212950000Y-47200000D01*
X216750000Y-43600000D02*
X215150000Y-45200000D01*
X213000000Y-47250000D02*
X212950000Y-47200000D01*
X215150000Y-45200000D02*
X214950000Y-45200000D01*
%TO.N,MOD1_A*%
X165150000Y-96200000D02*
X165150000Y-100200000D01*
X161950000Y-106800000D02*
X158150000Y-110600000D01*
X170550000Y-85200000D02*
X170350000Y-85400000D01*
X158150000Y-110600000D02*
X158150000Y-111600000D01*
X163750000Y-101600000D02*
X163750000Y-102000000D01*
X170480000Y-85270000D02*
X170550000Y-85200000D01*
X165350000Y-96000000D02*
X165150000Y-96200000D01*
X170350000Y-85400000D02*
X170350000Y-85600000D01*
X165350000Y-95800000D02*
X165350000Y-96000000D01*
X169950000Y-91200000D02*
X165350000Y-95800000D01*
X165150000Y-100200000D02*
X163750000Y-101600000D01*
X116350000Y-116000000D02*
X93350000Y-116000000D01*
X170350000Y-85600000D02*
X169950000Y-86000000D01*
X169950000Y-86000000D02*
X169950000Y-91200000D01*
X163750000Y-102000000D02*
X161950000Y-103800000D01*
X161950000Y-103800000D02*
X161950000Y-106800000D01*
%TO.N,M9_CH5*%
X176350000Y-64599999D02*
X175750000Y-65200000D01*
X173950000Y-65800000D02*
X173750000Y-66000000D01*
X154750000Y-84400000D02*
X154750000Y-84800000D01*
X164350000Y-74800000D02*
X164350000Y-76800000D01*
X173750000Y-66000000D02*
X171750000Y-66000000D01*
X177350000Y-64800000D02*
X177150000Y-64599999D01*
X155150000Y-83600000D02*
X154950000Y-83800000D01*
X154950000Y-84200000D02*
X154750000Y-84400000D01*
X154950000Y-83800000D02*
X154950000Y-84200000D01*
X154350000Y-85200000D02*
X154350000Y-85400000D01*
X171750000Y-66000000D02*
X164750000Y-73000000D01*
X174750000Y-65200000D02*
X174150000Y-65800000D01*
X154750000Y-84800000D02*
X154350000Y-85200000D01*
X154350000Y-85400000D02*
X152350000Y-87400000D01*
X164750000Y-74400000D02*
X164350000Y-74800000D01*
X177150000Y-64599999D02*
X176350000Y-64599999D01*
X152400000Y-87500000D02*
X152350000Y-87400000D01*
X164350000Y-76800000D02*
X161350000Y-79800000D01*
X164750000Y-73000000D02*
X164750000Y-74400000D01*
X175750000Y-65200000D02*
X174750000Y-65200000D01*
X174150000Y-65800000D02*
X173950000Y-65800000D01*
%TO.N,MOD4_B*%
X182150000Y-93200000D02*
X182150000Y-108400000D01*
X166750000Y-77400000D02*
X168550000Y-75600000D01*
X180950000Y-86000000D02*
X186950000Y-92000000D01*
X180950000Y-81000000D02*
X180950000Y-86000000D01*
X162860000Y-82730000D02*
X162950000Y-82800000D01*
X186950000Y-92000000D02*
X186950000Y-92600000D01*
X164350000Y-80600000D02*
X164550000Y-80400000D01*
X169150000Y-72600000D02*
X169950000Y-72600000D01*
X168550000Y-73200000D02*
X169150000Y-72600000D01*
X164550000Y-80400000D02*
X164550000Y-79600000D01*
X181550000Y-92600000D02*
X182150000Y-93200000D01*
X162950000Y-82600000D02*
X164350000Y-81200000D01*
X191300000Y-117670000D02*
X191350000Y-117600000D01*
X168550000Y-75600000D02*
X168550000Y-73200000D01*
X162950000Y-82800000D02*
X162950000Y-82600000D01*
X164550000Y-79600000D02*
X165150000Y-79000000D01*
X182150000Y-108400000D02*
X191350000Y-117600000D01*
X164350000Y-81200000D02*
X164350000Y-80600000D01*
%TO.N,M5_CH6*%
X260750000Y-83800000D02*
X262750000Y-85800000D01*
X262750000Y-85800000D02*
X263550000Y-85800000D01*
X256750000Y-83800000D02*
X260750000Y-83800000D01*
%TO.N,M4_CH2*%
X237150000Y-26000000D02*
X236750000Y-25600000D01*
X238150000Y-27400000D02*
X237150000Y-26400000D01*
X237150000Y-26400000D02*
X237150000Y-26000000D01*
X234750000Y-25600000D02*
X233150000Y-27200000D01*
X233200000Y-27125000D02*
X233150000Y-27200000D01*
X236750000Y-25600000D02*
X234750000Y-25600000D01*
%TO.N,M6_CH0*%
X95350000Y-23600000D02*
X94350000Y-23600000D01*
X93150000Y-23400000D02*
X91750000Y-22000000D01*
X91800000Y-22000000D02*
X91750000Y-22000000D01*
X97350000Y-25600000D02*
X95350000Y-23600000D01*
X94350000Y-23600000D02*
X94150000Y-23400000D01*
X94150000Y-23400000D02*
X93150000Y-23400000D01*
%TO.N,M8_CH4*%
X178750000Y-25200000D02*
X178550000Y-25400000D01*
X177150000Y-25400000D02*
X175350000Y-27200000D01*
X175400000Y-27125000D02*
X175350000Y-27200000D01*
X178550000Y-25400000D02*
X177150000Y-25400000D01*
X180950000Y-31600000D02*
X180750000Y-31400000D01*
X179750000Y-26400000D02*
X179750000Y-26000000D01*
X180750000Y-31400000D02*
X180750000Y-27400000D01*
X179350000Y-25800000D02*
X178750000Y-25200000D01*
X180750000Y-27400000D02*
X179750000Y-26400000D01*
X179750000Y-26000000D02*
X179550000Y-25800000D01*
X179550000Y-25800000D02*
X179350000Y-25800000D01*
%TO.N,MOD1_B*%
X204550000Y-97600000D02*
X204550000Y-101200000D01*
X198350000Y-91400000D02*
X204550000Y-97600000D01*
%TO.N,M9_CH0*%
X167350000Y-59200000D02*
X166350000Y-59200000D01*
X164350000Y-57200000D02*
X164350000Y-54800000D01*
X166350000Y-59200000D02*
X164350000Y-57200000D01*
X177550000Y-60800000D02*
X177350000Y-60600000D01*
X167950000Y-59600000D02*
X167750000Y-59600000D01*
X177350000Y-60600000D02*
X168950000Y-60600000D01*
X177750000Y-60800000D02*
X177550000Y-60800000D01*
X178150000Y-60600000D02*
X177950000Y-60600000D01*
X168950000Y-60600000D02*
X167950000Y-59600000D01*
X177950000Y-60600000D02*
X177750000Y-60800000D01*
X178350000Y-60400000D02*
X178150000Y-60600000D01*
X167750000Y-59600000D02*
X167350000Y-59200000D01*
X178550000Y-60400000D02*
X178350000Y-60400000D01*
%TO.N,M4_CH5*%
X230150000Y-44000000D02*
X230150000Y-44200000D01*
X230750000Y-44800000D02*
X230750000Y-45000000D01*
X233200000Y-47250000D02*
X233150000Y-47200000D01*
X230750000Y-45000000D02*
X231350000Y-45600000D01*
X231550000Y-45600000D02*
X233150000Y-47200000D01*
X230150000Y-44200000D02*
X230750000Y-44800000D01*
X231350000Y-45600000D02*
X231550000Y-45600000D01*
%TO.N,M9_CH1*%
X184550000Y-51400000D02*
X181550000Y-48400000D01*
X181550000Y-47600000D02*
X181150000Y-47200000D01*
X181550000Y-48400000D02*
X181550000Y-47600000D01*
%TO.N,M2_CH3*%
X47550000Y-81600000D02*
X47750000Y-81400000D01*
X47750000Y-81400000D02*
X55350000Y-81400000D01*
X55350000Y-81400000D02*
X58950000Y-77800000D01*
X42950000Y-81200000D02*
X43350000Y-81600000D01*
X58950000Y-77800000D02*
X59150000Y-77800000D01*
X61950000Y-76000000D02*
X66150000Y-71800000D01*
X43350000Y-81600000D02*
X47550000Y-81600000D01*
X40950000Y-78600000D02*
X42950000Y-80600000D01*
X59150000Y-77800000D02*
X60950000Y-76000000D01*
X60950000Y-76000000D02*
X61950000Y-76000000D01*
X42950000Y-80600000D02*
X42950000Y-81200000D01*
%TO.N,M0_CH2*%
X45750000Y-24400000D02*
X45750000Y-23800000D01*
X45550000Y-25800000D02*
X45550000Y-24600000D01*
X45550000Y-24600000D02*
X45750000Y-24400000D01*
%TO.N,M8_CH3*%
X180950000Y-19400000D02*
X180950000Y-17800000D01*
X183750000Y-22200000D02*
X180950000Y-19400000D01*
X161550000Y-18000000D02*
X157350000Y-22200000D01*
%TO.N,M5_CH0*%
X251750000Y-80400000D02*
X248550000Y-80400000D01*
X251950000Y-80600000D02*
X251750000Y-80400000D01*
X254150000Y-80600000D02*
X251950000Y-80600000D01*
X248550000Y-80400000D02*
X242950000Y-74800000D01*
%TO.N,M1_CH0*%
X38550000Y-45000000D02*
X32150000Y-45000000D01*
X12350000Y-45800000D02*
X10950000Y-47200000D01*
X40750000Y-47200000D02*
X38550000Y-45000000D01*
X11000000Y-47250000D02*
X10950000Y-47200000D01*
X31350000Y-45800000D02*
X12350000Y-45800000D01*
X32150000Y-45000000D02*
X31350000Y-45800000D01*
X41950000Y-47200000D02*
X40750000Y-47200000D01*
%TO.N,M7_CH4*%
X102150000Y-74600000D02*
X102150000Y-75600000D01*
X100150000Y-77800000D02*
X100150000Y-78200000D01*
X105950000Y-63400000D02*
X105750000Y-63400000D01*
X94550000Y-84600000D02*
X91750000Y-87400000D01*
X103750000Y-66800000D02*
X103750000Y-73000000D01*
X101150000Y-76600000D02*
X101150000Y-76800000D01*
X99350000Y-79400000D02*
X98350000Y-80400000D01*
X91800000Y-87500000D02*
X91750000Y-87400000D01*
X102150000Y-75600000D02*
X101150000Y-76600000D01*
X104950000Y-63600000D02*
X104350000Y-64200000D01*
X105550000Y-63600000D02*
X104950000Y-63600000D01*
X104350000Y-64200000D02*
X104350000Y-64400000D01*
X100150000Y-78200000D02*
X99350000Y-79000000D01*
X105750000Y-63400000D02*
X105550000Y-63600000D01*
X99350000Y-79000000D02*
X99350000Y-79400000D01*
X101150000Y-76800000D02*
X100150000Y-77800000D01*
X103750000Y-73000000D02*
X102150000Y-74600000D01*
%TO.N,M4_CH3*%
X252350000Y-26200000D02*
X253350000Y-27200000D01*
X253400000Y-27125000D02*
X253350000Y-27200000D01*
X249350000Y-26600000D02*
X249350000Y-26200000D01*
X251950000Y-25600000D02*
X252350000Y-26000000D01*
X249950000Y-25600000D02*
X251950000Y-25600000D01*
X252350000Y-26000000D02*
X252350000Y-26200000D01*
X249350000Y-26200000D02*
X249950000Y-25600000D01*
X247750000Y-30400000D02*
X247950000Y-30200000D01*
X247950000Y-30200000D02*
X247950000Y-28000000D01*
X247950000Y-28000000D02*
X249350000Y-26600000D01*
%TO.N,PITCH_B*%
X228750000Y-100400000D02*
X236150000Y-107800000D01*
X238950000Y-107800000D02*
X248750000Y-117600000D01*
X236150000Y-107800000D02*
X238950000Y-107800000D01*
X228150000Y-100400000D02*
X228750000Y-100400000D01*
X224150000Y-96400000D02*
X228150000Y-100400000D01*
X248800000Y-117670000D02*
X248750000Y-117600000D01*
%TO.N,M3_CH7*%
X281750000Y-44800000D02*
X281750000Y-47400000D01*
X287350000Y-58600000D02*
X288550000Y-59800000D01*
X291150000Y-62600000D02*
X291150000Y-64599999D01*
X292750000Y-66400000D02*
X293750000Y-67400000D01*
X287350000Y-56800000D02*
X287350000Y-58600000D01*
X281750000Y-47400000D02*
X284350000Y-50000000D01*
X293800000Y-67375000D02*
X293750000Y-67400000D01*
X285350000Y-52400000D02*
X285350000Y-54800000D01*
X284350000Y-51400000D02*
X285350000Y-52400000D01*
X285350000Y-54800000D02*
X287350000Y-56800000D01*
X284350000Y-50000000D02*
X284350000Y-51400000D01*
X288550000Y-60000000D02*
X291150000Y-62600000D01*
X292750000Y-66200000D02*
X292750000Y-66400000D01*
X291150000Y-64599999D02*
X292750000Y-66200000D01*
X288550000Y-59800000D02*
X288550000Y-60000000D01*
%TO.N,M8_CH6*%
X185350000Y-37400000D02*
X185550000Y-37600000D01*
X186150000Y-39000000D02*
X186150000Y-40400000D01*
X192800000Y-47250000D02*
X192750000Y-47200000D01*
X185550000Y-37600000D02*
X185550000Y-38400000D01*
X185550000Y-38400000D02*
X186150000Y-39000000D01*
X184750000Y-36400000D02*
X185350000Y-37000000D01*
X190950000Y-45200000D02*
X190950000Y-45400000D01*
X185350000Y-37000000D02*
X185350000Y-37400000D01*
X190950000Y-45400000D02*
X192750000Y-47200000D01*
X186150000Y-40400000D02*
X190950000Y-45200000D01*
%TO.N,KEY_REC_A*%
X99350000Y-27000000D02*
X105350000Y-21000000D01*
X97350000Y-29400000D02*
X97150000Y-29200000D01*
X109500000Y-11800000D02*
X109550000Y-11800000D01*
X105350000Y-16000000D02*
X109550000Y-11800000D01*
X97150000Y-29200000D02*
X97150000Y-29000000D01*
X97150000Y-29000000D02*
X97350000Y-29000000D01*
X105350000Y-21000000D02*
X105350000Y-16000000D01*
X97350000Y-31400000D02*
X97350000Y-29400000D01*
%TO.N,M0_CH6*%
X41950000Y-28600000D02*
X43150000Y-29800000D01*
X40750000Y-27800000D02*
X41550000Y-28600000D01*
X43150000Y-29800000D02*
X43150000Y-31800000D01*
X39550000Y-27800000D02*
X40750000Y-27800000D01*
X41550000Y-28600000D02*
X41950000Y-28600000D01*
%TO.N,M7_CH0*%
X100750000Y-66800000D02*
X100750000Y-66000000D01*
X100950000Y-62000000D02*
X100950000Y-60800000D01*
X100550000Y-65800000D02*
X100550000Y-65400000D01*
X102150000Y-57000000D02*
X102150000Y-54400000D01*
X100950000Y-60800000D02*
X101550000Y-60200000D01*
X101550000Y-60200000D02*
X101550000Y-57600000D01*
X100750000Y-66000000D02*
X100550000Y-65800000D01*
X99750000Y-62800000D02*
X100150000Y-62400000D01*
X100150000Y-62400000D02*
X100550000Y-62400000D01*
X100550000Y-62400000D02*
X100950000Y-62000000D01*
X100550000Y-65400000D02*
X99750000Y-64599999D01*
X101550000Y-57600000D02*
X102150000Y-57000000D01*
X99750000Y-64599999D02*
X99750000Y-62800000D01*
%TO.N,3V3D*%
D24*
X76750000Y-80400000D02*
X71950000Y-80400000D01*
X69750000Y-82600000D02*
X68150000Y-82600000D01*
X240750000Y-60400000D02*
X240950000Y-60600000D01*
X77750000Y-79800000D02*
X77350000Y-80200000D01*
X80550000Y-61000000D02*
X80750000Y-60800000D01*
X105350000Y-78400000D02*
X105550000Y-78400000D01*
X112150000Y-81200000D02*
X112750000Y-80600000D01*
X98150000Y-69600000D02*
X97950000Y-69400000D01*
X52550000Y-84200000D02*
X52350000Y-84000000D01*
X106150000Y-79600000D02*
X106150000Y-79800000D01*
X78950000Y-63800000D02*
X78950000Y-63600000D01*
X78950000Y-66200000D02*
X78950000Y-66000000D01*
X243350000Y-60600000D02*
X244150000Y-59800000D01*
X79750000Y-64800000D02*
X79350000Y-64400000D01*
X86350000Y-81600000D02*
X86550000Y-81400000D01*
X97950000Y-62200000D02*
X97950000Y-61200000D01*
X53350000Y-84800000D02*
X52750000Y-84200000D01*
X79750000Y-65200000D02*
X79750000Y-64800000D01*
X78150000Y-72800000D02*
X78150000Y-72200000D01*
X207150000Y-102200000D02*
X206950000Y-102400000D01*
X80550000Y-61400000D02*
X80550000Y-61000000D01*
X44950000Y-85200000D02*
X44150000Y-86000000D01*
X101350000Y-98200000D02*
X101150000Y-98000000D01*
X121950000Y-56800000D02*
X123150000Y-58000000D01*
X98150000Y-69800000D02*
X98150000Y-69600000D01*
X155750000Y-103200000D02*
X154350000Y-104600000D01*
X79350000Y-62400000D02*
X79550000Y-62200000D01*
X68150000Y-82600000D02*
X66950000Y-83800000D01*
X77950000Y-79800000D02*
X77750000Y-79800000D01*
X97750000Y-62400000D02*
X97950000Y-62200000D01*
X85750000Y-82200000D02*
X85550000Y-82000000D01*
X62550000Y-84600000D02*
X62150000Y-85000000D01*
X123150000Y-58200000D02*
X123350000Y-58400000D01*
X78950000Y-62600000D02*
X79150000Y-62400000D01*
X121550000Y-52400000D02*
X121750000Y-52600000D01*
X219950000Y-98000000D02*
X220150000Y-98200000D01*
X77750000Y-70400000D02*
X77950000Y-70200000D01*
X85750000Y-82600000D02*
X85750000Y-82200000D01*
X184950000Y-65599999D02*
X184950000Y-81400000D01*
X78550000Y-73200000D02*
X78150000Y-72800000D01*
X218550000Y-92200000D02*
X218950000Y-92200000D01*
X235150000Y-60400000D02*
X240750000Y-60400000D01*
X203350000Y-91600000D02*
X205150000Y-91600000D01*
X78550000Y-76600000D02*
X78550000Y-73200000D01*
X121750000Y-52800000D02*
X121950000Y-53000000D01*
X109350000Y-82000000D02*
X109950000Y-81400000D01*
X97950000Y-64200000D02*
X97750000Y-64000000D01*
X97750000Y-64000000D02*
X97750000Y-62400000D01*
X79750000Y-81600000D02*
X78750000Y-80600000D01*
X196350000Y-84600000D02*
X203350000Y-91600000D01*
X52150000Y-84000000D02*
X51950000Y-83800000D01*
X219750000Y-93000000D02*
X219750000Y-93200000D01*
X51350000Y-83800000D02*
X50550000Y-84600000D01*
X52350000Y-84000000D02*
X52150000Y-84000000D01*
X97950000Y-69400000D02*
X97950000Y-64200000D01*
X52750000Y-84200000D02*
X52550000Y-84200000D01*
X156950000Y-60600000D02*
X156550000Y-61000000D01*
X126350000Y-107400000D02*
X121350000Y-102400000D01*
X79350000Y-65400000D02*
X79550000Y-65400000D01*
X109950000Y-81400000D02*
X111750000Y-81400000D01*
X101150000Y-98000000D02*
X101150000Y-93600000D01*
X85950000Y-82000000D02*
X85950000Y-81800000D01*
X97350000Y-78200000D02*
X98150000Y-77400000D01*
X85750000Y-82200000D02*
X85950000Y-82000000D01*
X71950000Y-80400000D02*
X69750000Y-82600000D01*
X77950000Y-77200000D02*
X78550000Y-76600000D01*
X54950000Y-85000000D02*
X54750000Y-84800000D01*
X66750000Y-83800000D02*
X65950000Y-84600000D01*
X105750000Y-78800000D02*
X106350000Y-79400000D01*
X121150000Y-102400000D02*
X117550000Y-98800000D01*
X78750000Y-63000000D02*
X78950000Y-62800000D01*
X76950000Y-80200000D02*
X76750000Y-80400000D01*
X85350000Y-82000000D02*
X84950000Y-81600000D01*
X184950000Y-81400000D02*
X181950000Y-84400000D01*
X98750000Y-76600000D02*
X98750000Y-70400000D01*
X107750000Y-81800000D02*
X108550000Y-81800000D01*
X78750000Y-63400000D02*
X78750000Y-63000000D01*
X79350000Y-64400000D02*
X79350000Y-64200000D01*
X78350000Y-80200000D02*
X77950000Y-79800000D01*
X85950000Y-81800000D02*
X86150000Y-81600000D01*
X120550000Y-52400000D02*
X120750000Y-52200000D01*
X119950000Y-52800000D02*
X120350000Y-52400000D01*
X79150000Y-62400000D02*
X79350000Y-62400000D01*
X220150000Y-98200000D02*
X220150000Y-100600000D01*
X54750000Y-84800000D02*
X53350000Y-84800000D01*
X185150000Y-65400000D02*
X184950000Y-65599999D01*
X78550000Y-80600000D02*
X78350000Y-80400000D01*
X186750000Y-82000000D02*
X187350000Y-82600000D01*
X121350000Y-102400000D02*
X121150000Y-102400000D01*
X79550000Y-62200000D02*
X79750000Y-62200000D01*
X98750000Y-73800000D02*
X101550000Y-73800000D01*
X105750000Y-78600000D02*
X105750000Y-78800000D01*
X46350000Y-84800000D02*
X45950000Y-85200000D01*
X106350000Y-79400000D02*
X106150000Y-79600000D01*
X78150000Y-72200000D02*
X77750000Y-71800000D01*
X101150000Y-93600000D02*
X97350000Y-89800000D01*
X85550000Y-82000000D02*
X85350000Y-82000000D01*
X78350000Y-68200000D02*
X78350000Y-67600000D01*
X108750000Y-82000000D02*
X109350000Y-82000000D01*
X98150000Y-77400000D02*
X98150000Y-77200000D01*
X184950000Y-81400000D02*
X185550000Y-81400000D01*
X111750000Y-81400000D02*
X111950000Y-81200000D01*
X85950000Y-82800000D02*
X85750000Y-82600000D01*
X78350000Y-80400000D02*
X78350000Y-80200000D01*
X244150000Y-59800000D02*
X246350000Y-59800000D01*
X121950000Y-53000000D02*
X121950000Y-56800000D01*
X111950000Y-81200000D02*
X112150000Y-81200000D01*
X186150000Y-82000000D02*
X186750000Y-82000000D01*
X185150000Y-60400000D02*
X216550000Y-60400000D01*
X85950000Y-83000000D02*
X85950000Y-82800000D01*
X101350000Y-39000000D02*
X101550000Y-39000000D01*
X84950000Y-81600000D02*
X79750000Y-81600000D01*
X123550000Y-60800000D02*
X123150000Y-61200000D01*
X62150000Y-85000000D02*
X54950000Y-85000000D01*
X77350000Y-80200000D02*
X76950000Y-80200000D01*
X209150000Y-102200000D02*
X207150000Y-102200000D01*
X79750000Y-62200000D02*
X80550000Y-61400000D01*
X97950000Y-69800000D02*
X97350000Y-70400000D01*
X96950000Y-40200000D02*
X97550000Y-39600000D01*
X100750000Y-39600000D02*
X101350000Y-39000000D01*
X185550000Y-81400000D02*
X186150000Y-82000000D01*
X78350000Y-67600000D02*
X78750000Y-67200000D01*
X65950000Y-84600000D02*
X62550000Y-84600000D01*
X66950000Y-83800000D02*
X66750000Y-83800000D01*
X182350000Y-55000000D02*
X185150000Y-57800000D01*
X78750000Y-67200000D02*
X78750000Y-66400000D01*
X246350000Y-59800000D02*
X247950000Y-58200000D01*
X220150000Y-100600000D02*
X221550000Y-102000000D01*
X78950000Y-62800000D02*
X78950000Y-62600000D01*
X120750000Y-52200000D02*
X121150000Y-52200000D01*
X86150000Y-81600000D02*
X86350000Y-81600000D01*
X107750000Y-81400000D02*
X107750000Y-81800000D01*
X123350000Y-58400000D02*
X123350000Y-60600000D01*
X98750000Y-70400000D02*
X98150000Y-69800000D01*
X47950000Y-84600000D02*
X47750000Y-84400000D01*
X219750000Y-93200000D02*
X219950000Y-93400000D01*
X121150000Y-52200000D02*
X121350000Y-52400000D01*
X78750000Y-66400000D02*
X78950000Y-66200000D01*
X123150000Y-58000000D02*
X123150000Y-58200000D01*
X47750000Y-84400000D02*
X46950000Y-84400000D01*
X156550000Y-61000000D02*
X141550000Y-61000000D01*
X101550000Y-73800000D02*
X101750000Y-73600000D01*
X123350000Y-60600000D02*
X123550000Y-60800000D01*
X77750000Y-71800000D02*
X77750000Y-70400000D01*
X79350000Y-64200000D02*
X78950000Y-63800000D01*
X77950000Y-70200000D02*
X77950000Y-69000000D01*
X77750000Y-68800000D02*
X78350000Y-68200000D01*
X79550000Y-65400000D02*
X79750000Y-65200000D01*
X90750000Y-81400000D02*
X90950000Y-81200000D01*
X106150000Y-79800000D02*
X107750000Y-81400000D01*
X98150000Y-69800000D02*
X97950000Y-69800000D01*
X219950000Y-93400000D02*
X219950000Y-98000000D01*
X46550000Y-84800000D02*
X46350000Y-84800000D01*
X240950000Y-60600000D02*
X243350000Y-60600000D01*
X46950000Y-84400000D02*
X46550000Y-84800000D01*
X80750000Y-60800000D02*
X80750000Y-60400000D01*
X120350000Y-52400000D02*
X120550000Y-52400000D01*
X77950000Y-69000000D02*
X77750000Y-68800000D01*
X108550000Y-81800000D02*
X108750000Y-82000000D01*
X45950000Y-85200000D02*
X44950000Y-85200000D01*
X121750000Y-52600000D02*
X121750000Y-52800000D01*
X123150000Y-61200000D02*
X123150000Y-61400000D01*
X79350000Y-65599999D02*
X79350000Y-65400000D01*
X50550000Y-84600000D02*
X47950000Y-84600000D01*
X98150000Y-77200000D02*
X98750000Y-76600000D01*
X185150000Y-57800000D02*
X185150000Y-65400000D01*
X86550000Y-81400000D02*
X90750000Y-81400000D01*
X78950000Y-66000000D02*
X79350000Y-65599999D01*
X105550000Y-78400000D02*
X105750000Y-78600000D01*
X95150000Y-40200000D02*
X96950000Y-40200000D01*
X97550000Y-39600000D02*
X100750000Y-39600000D01*
X78750000Y-80600000D02*
X78550000Y-80600000D01*
X121350000Y-52400000D02*
X121550000Y-52400000D01*
X78950000Y-63600000D02*
X78750000Y-63400000D01*
X51950000Y-83800000D02*
X51350000Y-83800000D01*
X218950000Y-92200000D02*
X219750000Y-93000000D01*
X141550000Y-61000000D02*
X140750000Y-61800000D01*
X77950000Y-79800000D02*
X77950000Y-77200000D01*
%TO.N,SENSE_0*%
D23*
X99550000Y-28400000D02*
X100350000Y-27600000D01*
X101350000Y-27600000D02*
X104550000Y-24400000D01*
X136750000Y-26000000D02*
X137150000Y-26400000D01*
X133550000Y-25200000D02*
X133550000Y-25000000D01*
X134550000Y-26000000D02*
X136750000Y-26000000D01*
X99550000Y-30000000D02*
X99550000Y-28400000D01*
X99150000Y-30400000D02*
X99550000Y-30000000D01*
X120750000Y-25400000D02*
X120950000Y-25200000D01*
X104550000Y-24400000D02*
X105550000Y-24400000D01*
X120950000Y-25200000D02*
X133550000Y-25200000D01*
X134150000Y-25600000D02*
X134550000Y-26000000D01*
X106950000Y-23000000D02*
X118350000Y-23000000D01*
X133750000Y-24800000D02*
X133750000Y-24200000D01*
X133550000Y-25000000D02*
X133750000Y-24800000D01*
X100350000Y-27600000D02*
X101350000Y-27600000D01*
X133949999Y-25600000D02*
X134150000Y-25600000D01*
X133550000Y-25200000D02*
X133949999Y-25600000D01*
X43750000Y-76800000D02*
X43750000Y-80800000D01*
X105550000Y-24400000D02*
X106950000Y-23000000D01*
X118350000Y-23000000D02*
X120750000Y-25400000D01*
X137130000Y-26460000D02*
X137150000Y-26400000D01*
%TO.N,MUX_EN0*%
X53750000Y-23400000D02*
X47750000Y-23400000D01*
X41950000Y-19400000D02*
X38750000Y-22600000D01*
X55150000Y-24800000D02*
X53750000Y-23400000D01*
X44550000Y-19800000D02*
X44150000Y-19400000D01*
X56550000Y-26000000D02*
X55350000Y-24800000D01*
X57750000Y-26000000D02*
X56550000Y-26000000D01*
X58350000Y-26600000D02*
X57750000Y-26000000D01*
X47750000Y-23400000D02*
X44550000Y-20200000D01*
X44150000Y-19400000D02*
X41950000Y-19400000D01*
X44550000Y-20200000D02*
X44550000Y-19800000D01*
X55350000Y-24800000D02*
X55150000Y-24800000D01*
%TO.N,MUX_S2*%
X100550000Y-49200000D02*
X100550000Y-49400000D01*
X101750000Y-41600000D02*
X101750000Y-42600000D01*
X182150000Y-36400000D02*
X182150000Y-30000000D01*
X233550000Y-62600000D02*
X237150000Y-62600000D01*
X100550000Y-53400000D02*
X100550000Y-53800000D01*
X100150000Y-49800000D02*
X100150000Y-50000000D01*
X101350000Y-43400000D02*
X99550000Y-43400000D01*
X48950000Y-24200000D02*
X47350000Y-24200000D01*
X40750000Y-71400000D02*
X40750000Y-71600000D01*
X98750000Y-43400000D02*
X94350000Y-43400000D01*
X101750000Y-41200000D02*
X101950000Y-41400000D01*
X169950000Y-59200000D02*
X169950000Y-59600000D01*
X226550000Y-57400000D02*
X226550000Y-59800000D01*
X102750000Y-39200000D02*
X101950000Y-40000000D01*
X41350000Y-65599999D02*
X40950000Y-66000000D01*
X102350000Y-33600000D02*
X102350000Y-32600000D01*
X47150000Y-43200000D02*
X47150000Y-44400000D01*
X90550000Y-43200000D02*
X45950000Y-43200000D01*
X100150000Y-50000000D02*
X99950000Y-50200000D01*
X181950000Y-45000000D02*
X181950000Y-44800000D01*
X104150000Y-35400000D02*
X102350000Y-33600000D01*
X46950000Y-44600000D02*
X46950000Y-45200000D01*
X101750000Y-32000000D02*
X101750000Y-31800000D01*
X246750000Y-75800000D02*
X246750000Y-76800000D01*
X46750000Y-47400000D02*
X45950000Y-48200000D01*
X101550000Y-43600000D02*
X101550000Y-48200000D01*
X101550000Y-42800000D02*
X101550000Y-43200000D01*
X167150000Y-56400000D02*
X169950000Y-59200000D01*
X181550000Y-44400000D02*
X181550000Y-43800000D01*
X94350000Y-43400000D02*
X94150000Y-43200000D01*
X100550000Y-53800000D02*
X100750000Y-54000000D01*
X183150000Y-29000000D02*
X183150000Y-27800000D01*
X56750000Y-27800000D02*
X55350000Y-26400000D01*
X226550000Y-59800000D02*
X227750000Y-61000000D01*
X94150000Y-43200000D02*
X91550000Y-43200000D01*
X40550000Y-71800000D02*
X40550000Y-73600000D01*
X99350000Y-59600000D02*
X99150000Y-59800000D01*
X123950000Y-38800000D02*
X122750000Y-37600000D01*
X222350000Y-44800000D02*
X222350000Y-45600000D01*
X247750000Y-77000000D02*
X247950000Y-77200000D01*
X100550000Y-49400000D02*
X100150000Y-49800000D01*
X91350000Y-43400000D02*
X90750000Y-43400000D01*
X58150000Y-43200000D02*
X58150000Y-32799999D01*
X181150000Y-40600000D02*
X181550000Y-40200000D01*
X40950000Y-71200000D02*
X40750000Y-71400000D01*
X183150000Y-27800000D02*
X183350000Y-27600000D01*
X222350000Y-45600000D02*
X225950000Y-49200000D01*
X99950000Y-51600000D02*
X99550000Y-52000000D01*
X99150000Y-59800000D02*
X99150000Y-60000000D01*
X99950000Y-50200000D02*
X99950000Y-51600000D01*
X43350000Y-54200000D02*
X41350000Y-56200000D01*
X181950000Y-44800000D02*
X181550000Y-44400000D01*
X99350000Y-59400000D02*
X99350000Y-59600000D01*
X100750000Y-58000000D02*
X99350000Y-59400000D01*
X102750000Y-36800000D02*
X102750000Y-39200000D01*
X101550000Y-43200000D02*
X101350000Y-43400000D01*
X101550000Y-48200000D02*
X100550000Y-49200000D01*
X101950000Y-40000000D02*
X101950000Y-40800000D01*
X98950000Y-60200000D02*
X98950000Y-69200000D01*
X56750000Y-31400000D02*
X56750000Y-27800000D01*
X101950000Y-40800000D02*
X101750000Y-41000000D01*
X183350000Y-25000000D02*
X185550000Y-22800000D01*
X246950000Y-77000000D02*
X247750000Y-77000000D01*
X225950000Y-49200000D02*
X225950000Y-51000000D01*
X104150000Y-35400000D02*
X102750000Y-36800000D01*
X47350000Y-24200000D02*
X43750000Y-20600000D01*
X43750000Y-20600000D02*
X43750000Y-20200000D01*
X40950000Y-66000000D02*
X40950000Y-71200000D01*
X49150000Y-24400000D02*
X48950000Y-24200000D01*
X181550000Y-40200000D02*
X181550000Y-39400000D01*
X43350000Y-51200000D02*
X43350000Y-54200000D01*
X98950000Y-43200000D02*
X98750000Y-43400000D01*
X40550000Y-73600000D02*
X40150000Y-74000000D01*
X231950000Y-61000000D02*
X233550000Y-62600000D01*
X40750000Y-71600000D02*
X40550000Y-71800000D01*
X99350000Y-43200000D02*
X98950000Y-43200000D01*
X101750000Y-41000000D02*
X101750000Y-41200000D01*
X122750000Y-37400000D02*
X122550000Y-37200000D01*
X53550000Y-24400000D02*
X49150000Y-24400000D01*
X101950000Y-41400000D02*
X101750000Y-41600000D01*
X54750000Y-25600000D02*
X53550000Y-24400000D01*
X54950000Y-25600000D02*
X54750000Y-25600000D01*
X90750000Y-43400000D02*
X90550000Y-43200000D01*
X122750000Y-37600000D02*
X122750000Y-37400000D01*
X101350000Y-43400000D02*
X101550000Y-43600000D01*
X227750000Y-61000000D02*
X231950000Y-61000000D01*
X41350000Y-56200000D02*
X41350000Y-65599999D01*
X246550000Y-75600000D02*
X246750000Y-75800000D01*
X55350000Y-26400000D02*
X55350000Y-26000000D01*
X246750000Y-76800000D02*
X246950000Y-77000000D01*
X181150000Y-43400000D02*
X181150000Y-40600000D01*
X45550000Y-42800000D02*
X43750000Y-42800000D01*
X181550000Y-37000000D02*
X182150000Y-36400000D01*
X47150000Y-44400000D02*
X46950000Y-44600000D01*
X99550000Y-43400000D02*
X99350000Y-43200000D01*
X101750000Y-42600000D02*
X101550000Y-42800000D01*
X45950000Y-48200000D02*
X45950000Y-48600000D01*
X55350000Y-26000000D02*
X54950000Y-25600000D01*
X58150000Y-32799999D02*
X56750000Y-31400000D01*
X102350000Y-32600000D02*
X101750000Y-32000000D01*
X45950000Y-43200000D02*
X45550000Y-42800000D01*
X183350000Y-27600000D02*
X183350000Y-25000000D01*
X100750000Y-54000000D02*
X100750000Y-58000000D01*
X98950000Y-69200000D02*
X101750000Y-72000000D01*
X46950000Y-45200000D02*
X46750000Y-45400000D01*
X181550000Y-43800000D02*
X181150000Y-43400000D01*
X99150000Y-60000000D02*
X98950000Y-60200000D01*
X46750000Y-45400000D02*
X46750000Y-47400000D01*
X182150000Y-30000000D02*
X183150000Y-29000000D01*
X45950000Y-48600000D02*
X43350000Y-51200000D01*
X223750000Y-43400000D02*
X222350000Y-44800000D01*
X91550000Y-43200000D02*
X91350000Y-43400000D01*
%TO.N,MUX_S1*%
X166350000Y-56000000D02*
X166750000Y-55600000D01*
X102550000Y-62800000D02*
X102350000Y-62800000D01*
X104950000Y-39000000D02*
X104150000Y-39000000D01*
X232350000Y-42400000D02*
X232750000Y-42800000D01*
X38350000Y-78200000D02*
X38150000Y-78400000D01*
X43750000Y-37800000D02*
X43750000Y-40600000D01*
X166750000Y-51600000D02*
X169550000Y-48800000D01*
X118950000Y-42400000D02*
X117350000Y-40800000D01*
X241150000Y-55000000D02*
X241150000Y-59600000D01*
X183950000Y-33600000D02*
X183950000Y-28200000D01*
X42550000Y-26200000D02*
X42550000Y-28000000D01*
X101550000Y-70600000D02*
X101750000Y-70800000D01*
X103150000Y-46000000D02*
X103150000Y-49400000D01*
X39550000Y-53000000D02*
X39550000Y-53200000D01*
X113550000Y-40600000D02*
X113150000Y-41000000D01*
X229150000Y-41400000D02*
X229950000Y-42200000D01*
X184150000Y-28000000D02*
X184150000Y-27000000D01*
X240150000Y-54000000D02*
X241150000Y-55000000D01*
X106950000Y-40000000D02*
X106550000Y-39600000D01*
X43350000Y-28600000D02*
X43350000Y-28800000D01*
X102750000Y-51200000D02*
X102950000Y-51400000D01*
X182950000Y-34600000D02*
X183950000Y-33600000D01*
X166750000Y-57600000D02*
X167350000Y-58200000D01*
X94550000Y-25400000D02*
X90150000Y-25400000D01*
X103150000Y-32200000D02*
X102550000Y-31600000D01*
X38350000Y-67000000D02*
X38350000Y-78200000D01*
X101550000Y-65599999D02*
X101550000Y-70600000D01*
X113750000Y-40200000D02*
X113550000Y-40400000D01*
X167550000Y-58200000D02*
X167750000Y-58400000D01*
X42950000Y-22000000D02*
X42950000Y-25000000D01*
X117350000Y-40600000D02*
X116950000Y-40200000D01*
X231550000Y-42600000D02*
X232150000Y-42600000D01*
X105350000Y-36600000D02*
X105350000Y-35400000D01*
X103550000Y-45600000D02*
X103150000Y-46000000D01*
X171550000Y-46000000D02*
X172350000Y-45200000D01*
X184350000Y-25400000D02*
X185550000Y-24200000D01*
X98150000Y-29000000D02*
X98350000Y-28800000D01*
X95350000Y-25600000D02*
X94750000Y-25600000D01*
X232950000Y-42800000D02*
X232950000Y-43000000D01*
X180750000Y-39000000D02*
X182950000Y-36800000D01*
X43750000Y-40600000D02*
X42350000Y-42000000D01*
X100550000Y-31200000D02*
X98750000Y-31200000D01*
X98350000Y-28800000D02*
X95750000Y-26200000D01*
X102750000Y-61400000D02*
X102550000Y-61600000D01*
X41950000Y-48600000D02*
X41950000Y-49000000D01*
X95750000Y-26200000D02*
X95750000Y-26000000D01*
X98750000Y-31200000D02*
X98150000Y-30600000D01*
X180750000Y-39800000D02*
X180750000Y-39000000D01*
X43950000Y-29400000D02*
X43950000Y-37600000D01*
X106550000Y-39600000D02*
X106550000Y-37800000D01*
X103950000Y-43200000D02*
X103950000Y-43600000D01*
X42750000Y-25400000D02*
X42550000Y-25600000D01*
X179950000Y-40600000D02*
X180750000Y-39800000D01*
X38550000Y-54200000D02*
X38550000Y-66800000D01*
X103750000Y-43000000D02*
X103950000Y-43200000D01*
X167350000Y-58200000D02*
X167550000Y-58200000D01*
X227550000Y-38000000D02*
X227550000Y-39000000D01*
X117350000Y-40800000D02*
X117350000Y-40600000D01*
X101150000Y-30600000D02*
X100550000Y-31200000D01*
X95750000Y-26000000D02*
X95350000Y-25600000D01*
X113150000Y-41000000D02*
X112150000Y-41000000D01*
X102950000Y-51400000D02*
X102950000Y-58400000D01*
X102750000Y-62600000D02*
X102550000Y-62800000D01*
X240150000Y-49200000D02*
X240150000Y-54000000D01*
X167750000Y-58400000D02*
X167950000Y-58400000D01*
X42550000Y-25600000D02*
X42550000Y-25800000D01*
X102550000Y-31600000D02*
X102550000Y-31400000D01*
X83350000Y-21600000D02*
X76750000Y-21600000D01*
X103550000Y-44000000D02*
X103550000Y-45600000D01*
X103150000Y-33200000D02*
X103150000Y-32200000D01*
X103150000Y-49400000D02*
X102750000Y-49800000D01*
X101950000Y-63000000D02*
X101550000Y-63400000D01*
X227950000Y-39800000D02*
X227750000Y-40000000D01*
X43350000Y-21800000D02*
X43150000Y-21800000D01*
X227750000Y-39600000D02*
X227950000Y-39800000D01*
X101350000Y-65400000D02*
X101550000Y-65599999D01*
X101350000Y-63800000D02*
X101350000Y-65400000D01*
X103950000Y-43600000D02*
X103550000Y-44000000D01*
X240950000Y-54800000D02*
X241950000Y-53800000D01*
X101550000Y-63400000D02*
X101550000Y-63600000D01*
X102750000Y-58600000D02*
X102750000Y-61400000D01*
X102350000Y-62800000D02*
X102150000Y-63000000D01*
X102750000Y-49800000D02*
X102750000Y-51200000D01*
X43150000Y-28600000D02*
X43350000Y-28600000D01*
X227750000Y-40200000D02*
X228950000Y-41400000D01*
X236750000Y-45800000D02*
X240150000Y-49200000D01*
X39950000Y-52600000D02*
X39550000Y-53000000D01*
X42150000Y-46200000D02*
X42750000Y-46800000D01*
X42750000Y-46800000D02*
X42750000Y-47600000D01*
X184150000Y-27000000D02*
X184350000Y-26800000D01*
X106550000Y-37800000D02*
X105350000Y-36600000D01*
X43150000Y-21800000D02*
X42950000Y-22000000D01*
X171550000Y-46200000D02*
X171550000Y-46000000D01*
X112150000Y-41000000D02*
X111150000Y-40000000D01*
X101550000Y-63600000D02*
X101350000Y-63800000D01*
X102950000Y-58400000D02*
X102750000Y-58600000D01*
X42550000Y-25800000D02*
X42350000Y-26000000D01*
X42950000Y-25000000D02*
X42750000Y-25200000D01*
X43350000Y-28800000D02*
X43950000Y-29400000D01*
X94750000Y-25600000D02*
X94550000Y-25400000D01*
X84150000Y-22400000D02*
X83350000Y-21600000D01*
X172350000Y-45200000D02*
X175550000Y-45200000D01*
X106550000Y-39400000D02*
X105350000Y-39400000D01*
X42350000Y-42000000D02*
X42350000Y-43600000D01*
X183950000Y-28200000D02*
X184150000Y-28000000D01*
X227550000Y-39000000D02*
X227750000Y-39200000D01*
X42550000Y-28000000D02*
X43150000Y-28600000D01*
X230950000Y-42200000D02*
X231150000Y-42400000D01*
X241950000Y-53800000D02*
X245350000Y-53800000D01*
X232950000Y-43000000D02*
X235750000Y-45800000D01*
X42750000Y-25200000D02*
X42750000Y-25400000D01*
X231350000Y-42400000D02*
X231550000Y-42600000D01*
X245950000Y-53200000D02*
X246150000Y-53200000D01*
X235750000Y-45800000D02*
X236750000Y-45800000D01*
X182950000Y-36800000D02*
X182950000Y-34600000D01*
X113550000Y-40400000D02*
X113550000Y-40600000D01*
X98150000Y-30600000D02*
X98150000Y-29000000D01*
X227350000Y-37800000D02*
X227550000Y-38000000D01*
X111150000Y-40000000D02*
X106950000Y-40000000D01*
X246150000Y-53200000D02*
X247950000Y-51400000D01*
X166150000Y-57600000D02*
X166750000Y-57600000D01*
X245350000Y-53800000D02*
X245950000Y-53200000D01*
X179950000Y-45000000D02*
X179950000Y-40600000D01*
X102550000Y-31400000D02*
X101750000Y-30600000D01*
X87150000Y-22400000D02*
X84150000Y-22400000D01*
X227750000Y-40000000D02*
X227750000Y-40200000D01*
X116950000Y-40200000D02*
X113750000Y-40200000D01*
X223750000Y-37800000D02*
X227350000Y-37800000D01*
X38550000Y-66800000D02*
X38350000Y-67000000D01*
X171150000Y-47000000D02*
X171150000Y-46600000D01*
X39950000Y-51000000D02*
X39950000Y-52600000D01*
X43550000Y-21600000D02*
X43350000Y-21800000D01*
X42350000Y-26000000D02*
X42550000Y-26200000D01*
X42550000Y-48000000D02*
X41950000Y-48600000D01*
X229950000Y-42200000D02*
X230950000Y-42200000D01*
X102150000Y-63000000D02*
X101950000Y-63000000D01*
X166350000Y-57600000D02*
X166350000Y-56000000D01*
X102550000Y-61600000D02*
X102550000Y-62400000D01*
X90150000Y-25400000D02*
X87150000Y-22400000D01*
X105350000Y-35400000D02*
X103150000Y-33200000D01*
X41950000Y-49000000D02*
X39950000Y-51000000D01*
X43950000Y-37600000D02*
X43750000Y-37800000D01*
X232750000Y-42800000D02*
X232950000Y-42800000D01*
X169550000Y-48800000D02*
X169550000Y-48600000D01*
X184350000Y-26800000D02*
X184350000Y-25400000D01*
X103750000Y-39400000D02*
X103750000Y-43000000D01*
X227750000Y-39200000D02*
X227750000Y-39600000D01*
X105350000Y-39400000D02*
X104950000Y-39000000D01*
X39550000Y-53200000D02*
X38550000Y-54200000D01*
X42750000Y-47600000D02*
X42550000Y-47800000D01*
X171150000Y-46600000D02*
X171550000Y-46200000D01*
X101750000Y-30600000D02*
X101150000Y-30600000D01*
X104150000Y-39000000D02*
X103750000Y-39400000D01*
X42550000Y-47800000D02*
X42550000Y-48000000D01*
X169550000Y-48600000D02*
X171150000Y-47000000D01*
X102550000Y-62400000D02*
X102750000Y-62600000D01*
X231150000Y-42400000D02*
X231350000Y-42400000D01*
X166750000Y-55600000D02*
X166750000Y-51600000D01*
X232150000Y-42600000D02*
X232350000Y-42400000D01*
X228950000Y-41400000D02*
X229150000Y-41400000D01*
X182950000Y-36800000D02*
X183150000Y-37000000D01*
%TO.N,MUX_S0*%
X40950000Y-53000000D02*
X39750000Y-54200000D01*
X242550000Y-48600000D02*
X246550000Y-48600000D01*
X185150000Y-35600000D02*
X187350000Y-37800000D01*
X101950000Y-51600000D02*
X102150000Y-51800000D01*
X182350000Y-43600000D02*
X182350000Y-43400000D01*
X141950000Y-33400000D02*
X141950000Y-22400000D01*
X39150000Y-70200000D02*
X39350000Y-70400000D01*
X224550000Y-39800000D02*
X225550000Y-39800000D01*
X187350000Y-39800000D02*
X187550000Y-40000000D01*
X103550000Y-50400000D02*
X103750000Y-50600000D01*
X100750000Y-50600000D02*
X100950000Y-50800000D01*
X262149999Y-44200000D02*
X264149999Y-42200000D01*
X250150000Y-45200000D02*
X256550000Y-45200000D01*
X142150000Y-34400000D02*
X142150000Y-33600000D01*
X185750000Y-25600000D02*
X185550000Y-25400000D01*
X44350000Y-26000000D02*
X44350000Y-27200000D01*
X103750000Y-50600000D02*
X103750000Y-60600000D01*
X103750000Y-60600000D02*
X104350000Y-61200000D01*
X141150000Y-21600000D02*
X140750000Y-21600000D01*
X121550000Y-15000000D02*
X121150000Y-14600000D01*
X184750000Y-28600000D02*
X184950000Y-28400000D01*
X248350000Y-46800000D02*
X248550000Y-46800000D01*
X43550000Y-45800000D02*
X43550000Y-48000000D01*
X39150000Y-67400000D02*
X39150000Y-70200000D01*
X142150000Y-33600000D02*
X141950000Y-33400000D01*
X182350000Y-39000000D02*
X183950000Y-37400000D01*
X248550000Y-46800000D02*
X250150000Y-45200000D01*
X40950000Y-52800000D02*
X40950000Y-53000000D01*
X242350000Y-54600000D02*
X242350000Y-59600000D01*
X104350000Y-61800000D02*
X104550000Y-62000000D01*
X43950000Y-24200000D02*
X43750000Y-24400000D01*
X138950000Y-20000000D02*
X137750000Y-20000000D01*
X102750000Y-21000000D02*
X102750000Y-22200000D01*
X99950000Y-37400000D02*
X98750000Y-38600000D01*
X237150000Y-45000000D02*
X241550000Y-49400000D01*
X246550000Y-48600000D02*
X248350000Y-46800000D01*
X44550000Y-25200000D02*
X44550000Y-25800000D01*
X44750000Y-30200000D02*
X44750000Y-41000000D01*
X257550000Y-44200000D02*
X262149999Y-44200000D01*
X274950000Y-42200000D02*
X275350000Y-41800000D01*
X183950000Y-34800000D02*
X184750000Y-34000000D01*
X185750000Y-26600000D02*
X185750000Y-25600000D01*
X183350000Y-45000000D02*
X183350000Y-44600000D01*
X137150000Y-42600000D02*
X142150000Y-37600000D01*
X43350000Y-49800000D02*
X41350000Y-51800000D01*
X102750000Y-22200000D02*
X97950000Y-27000000D01*
X184950000Y-28400000D02*
X184950000Y-27400000D01*
X183350000Y-44600000D02*
X182350000Y-43600000D01*
X97750000Y-49600000D02*
X97750000Y-51200000D01*
X104550000Y-19200000D02*
X102750000Y-21000000D01*
X141950000Y-22400000D02*
X141150000Y-21600000D01*
X44350000Y-27200000D02*
X44550000Y-27400000D01*
X101350000Y-50800000D02*
X101950000Y-51400000D01*
X99950000Y-34800000D02*
X99950000Y-37400000D01*
X41350000Y-51800000D02*
X41350000Y-52400000D01*
X44550000Y-27400000D02*
X44550000Y-27600000D01*
X184950000Y-27400000D02*
X185750000Y-26600000D01*
X121150000Y-14600000D02*
X116550000Y-14600000D01*
X183950000Y-37400000D02*
X183950000Y-34800000D01*
X224350000Y-40000000D02*
X224550000Y-39800000D01*
X43750000Y-45600000D02*
X43550000Y-45800000D01*
X181950000Y-41000000D02*
X182350000Y-40600000D01*
X140750000Y-21600000D02*
X139350000Y-20200000D01*
X101950000Y-51400000D02*
X101950000Y-51600000D01*
X39750000Y-54200000D02*
X39750000Y-66800000D01*
X241550000Y-49400000D02*
X241550000Y-52800000D01*
X232550000Y-40600000D02*
X236950000Y-45000000D01*
X182350000Y-43400000D02*
X181950000Y-43000000D01*
X139150000Y-20200000D02*
X138950000Y-20000000D01*
X139350000Y-20200000D02*
X139150000Y-20200000D01*
X44750000Y-41000000D02*
X45750000Y-42000000D01*
X43950000Y-23000000D02*
X43950000Y-24200000D01*
X141350000Y-36000000D02*
X141350000Y-35200000D01*
X141350000Y-35200000D02*
X142150000Y-34400000D01*
X43350000Y-48200000D02*
X43350000Y-49800000D01*
X236950000Y-45000000D02*
X237150000Y-45000000D01*
X39750000Y-66800000D02*
X39150000Y-67400000D01*
X45550000Y-29400000D02*
X44750000Y-30200000D01*
X241550000Y-49400000D02*
X241750000Y-49400000D01*
X100950000Y-50800000D02*
X101350000Y-50800000D01*
X187550000Y-40000000D02*
X224350000Y-40000000D01*
X104550000Y-16200000D02*
X104550000Y-19200000D01*
X181950000Y-43000000D02*
X181950000Y-41000000D01*
X44550000Y-25800000D02*
X44350000Y-26000000D01*
X44550000Y-27600000D02*
X45550000Y-28600000D01*
X43550000Y-48000000D02*
X43350000Y-48200000D01*
X104350000Y-61200000D02*
X104350000Y-61800000D01*
X137750000Y-20000000D02*
X135550000Y-17800000D01*
X39350000Y-70400000D02*
X39350000Y-78400000D01*
X187350000Y-37800000D02*
X187350000Y-39800000D01*
X41350000Y-52400000D02*
X40950000Y-52800000D01*
X256550000Y-45200000D02*
X257550000Y-44200000D01*
X43750000Y-22800000D02*
X43950000Y-23000000D01*
X241750000Y-49400000D02*
X242550000Y-48600000D01*
X182350000Y-40600000D02*
X182350000Y-39000000D01*
X184750000Y-34000000D02*
X184750000Y-28600000D01*
X43750000Y-24400000D02*
X44550000Y-25200000D01*
X45550000Y-28600000D02*
X45550000Y-29400000D01*
X183950000Y-35600000D02*
X185150000Y-35600000D01*
X264149999Y-42200000D02*
X274950000Y-42200000D01*
%TO.N,SENSE_3*%
X180150000Y-47400000D02*
X180750000Y-48000000D01*
X180750000Y-49000000D02*
X183950000Y-52200000D01*
X177750000Y-42200000D02*
X178150000Y-42600000D01*
X181950000Y-63400000D02*
X181350000Y-63400000D01*
X184350000Y-55600000D02*
X184950000Y-56200000D01*
X177550000Y-41600000D02*
X177750000Y-41800000D01*
X182750000Y-62600000D02*
X181950000Y-63400000D01*
X183950000Y-52200000D02*
X183950000Y-52400000D01*
X184150000Y-52800000D02*
X184350000Y-53000000D01*
X178150000Y-42600000D02*
X178350000Y-42600000D01*
X178550000Y-42400000D02*
X179150000Y-43000000D01*
X179150000Y-46000000D02*
X180150000Y-47000000D01*
X178350000Y-42600000D02*
X178550000Y-42400000D01*
X184350000Y-53000000D02*
X184350000Y-55600000D01*
X177550000Y-40400000D02*
X177550000Y-41600000D01*
X180150000Y-47000000D02*
X180150000Y-47400000D01*
X184150000Y-52600000D02*
X184150000Y-52800000D01*
X183950000Y-52400000D02*
X184150000Y-52600000D01*
X180750000Y-48000000D02*
X180750000Y-49000000D01*
X181350000Y-63400000D02*
X179950000Y-64800000D01*
X177350000Y-40200000D02*
X177550000Y-40400000D01*
X177750000Y-41800000D02*
X177750000Y-42200000D01*
X179150000Y-43000000D02*
X179150000Y-46000000D01*
%TO.N,MUX_EN7*%
X105550000Y-70800000D02*
X105750000Y-70600000D01*
X105750000Y-70600000D02*
X105750000Y-70400000D01*
X104150000Y-74800000D02*
X104150000Y-74200000D01*
X105750000Y-70400000D02*
X106550000Y-69600000D01*
X104150000Y-74200000D02*
X105550000Y-72800000D01*
X102950000Y-76000000D02*
X104150000Y-74800000D01*
X105550000Y-72800000D02*
X105550000Y-70800000D01*
%TO.N,LED9*%
X114150000Y-84200000D02*
X111550000Y-84200000D01*
X111550000Y-84200000D02*
X111350000Y-84400000D01*
X107550000Y-83800000D02*
X107350000Y-83600000D01*
X139750000Y-63200000D02*
X139550000Y-63400000D01*
X139750000Y-54800000D02*
X139750000Y-63200000D01*
X115150000Y-82600000D02*
X115150000Y-83000000D01*
X117350000Y-81200000D02*
X116750000Y-81200000D01*
X121150000Y-77800000D02*
X119950000Y-79000000D01*
X139550000Y-63600000D02*
X136350000Y-66800000D01*
X121150000Y-76200000D02*
X121150000Y-77800000D01*
X163150000Y-20400000D02*
X162750000Y-20800000D01*
X107350000Y-83600000D02*
X107150000Y-83800000D01*
X115550000Y-82200000D02*
X115150000Y-82600000D01*
X109550000Y-84200000D02*
X108950000Y-84200000D01*
X115750000Y-82200000D02*
X115550000Y-82200000D01*
X162750000Y-20800000D02*
X161750000Y-20800000D01*
X136350000Y-66800000D02*
X136350000Y-67600000D01*
X121350000Y-76000000D02*
X121150000Y-76200000D01*
X163750000Y-20000000D02*
X163350000Y-20400000D01*
X139550000Y-63400000D02*
X139550000Y-63600000D01*
X153550000Y-41000000D02*
X139750000Y-54800000D01*
X111350000Y-84400000D02*
X109750000Y-84400000D01*
X115150000Y-83000000D02*
X114350000Y-83800000D01*
X164750000Y-20000000D02*
X163750000Y-20000000D01*
X161750000Y-20800000D02*
X161550000Y-21000000D01*
X108950000Y-84200000D02*
X108550000Y-83800000D01*
X116750000Y-81200000D02*
X115750000Y-82200000D01*
X169950000Y-19400000D02*
X165350000Y-19400000D01*
X108350000Y-84000000D02*
X107950000Y-84000000D01*
X159350000Y-26000000D02*
X159350000Y-33400000D01*
X107950000Y-84000000D02*
X107750000Y-83800000D01*
X161550000Y-21200000D02*
X160550000Y-22200000D01*
X114350000Y-84000000D02*
X114150000Y-84200000D01*
X109750000Y-84400000D02*
X109550000Y-84200000D01*
X119550000Y-79000000D02*
X117350000Y-81200000D01*
X114350000Y-83800000D02*
X114350000Y-84000000D01*
X119950000Y-79000000D02*
X119550000Y-79000000D01*
X107750000Y-83800000D02*
X107550000Y-83800000D01*
X108550000Y-83800000D02*
X108350000Y-84000000D01*
X107150000Y-83800000D02*
X106350000Y-83000000D01*
X165350000Y-19400000D02*
X164750000Y-20000000D01*
X161550000Y-21000000D02*
X161550000Y-21200000D01*
X163350000Y-20400000D02*
X163150000Y-20400000D01*
%TO.N,LED2*%
X82750000Y-62800000D02*
X84350000Y-62800000D01*
%TO.N,LED12*%
X259750000Y-57800000D02*
X259750000Y-64000000D01*
X259750000Y-52600000D02*
X260149999Y-53000000D01*
X260149999Y-53000000D02*
X260149999Y-57400000D01*
X260149999Y-57400000D02*
X259750000Y-57800000D01*
X259750000Y-64000000D02*
X258950000Y-64800000D01*
X259750000Y-46400000D02*
X259750000Y-52600000D01*
%TO.N,LED13*%
X245950000Y-55400000D02*
X246350000Y-55000000D01*
X245950000Y-58800000D02*
X245950000Y-55400000D01*
X258950000Y-63600000D02*
X257750000Y-64800000D01*
X246350000Y-55000000D02*
X246350000Y-54000000D01*
X258950000Y-57600000D02*
X258950000Y-63600000D01*
%TO.N,LED14*%
X264350000Y-72600000D02*
X256550000Y-64800000D01*
X264350000Y-94200000D02*
X264350000Y-72600000D01*
X268149999Y-98000000D02*
X264350000Y-94200000D01*
%TO.N,SR_CHAIN4*%
X127750000Y-63000000D02*
X128150000Y-63000000D01*
X126750000Y-62400000D02*
X126950000Y-62400000D01*
X126950000Y-62400000D02*
X127150000Y-62600000D01*
X125750000Y-61800000D02*
X125950000Y-61600000D01*
X130350000Y-64200000D02*
X137750000Y-64200000D01*
X129350000Y-63400000D02*
X129550000Y-63600000D01*
X129550000Y-63600000D02*
X129750000Y-63600000D01*
X128150000Y-63000000D02*
X128550000Y-63400000D01*
X125950000Y-61600000D02*
X126750000Y-62400000D01*
X235550000Y-63400000D02*
X239550000Y-63400000D01*
X127350000Y-62600000D02*
X127750000Y-63000000D01*
X125150000Y-61800000D02*
X125750000Y-61800000D01*
X127150000Y-62600000D02*
X127350000Y-62600000D01*
X242150000Y-65800000D02*
X245950000Y-65800000D01*
X128550000Y-63400000D02*
X129350000Y-63400000D01*
X129750000Y-63600000D02*
X130350000Y-64200000D01*
%TO.N,SR_CLK*%
X86350000Y-62600000D02*
X85350000Y-62600000D01*
X112350000Y-85600000D02*
X112150000Y-85800000D01*
X103950000Y-83000000D02*
X103750000Y-82800000D01*
X103950000Y-77000000D02*
X104150000Y-77200000D01*
X106150000Y-77400000D02*
X106350000Y-77400000D01*
X123150000Y-78800000D02*
X123150000Y-78600000D01*
X84150000Y-79800000D02*
X84150000Y-75800000D01*
X248950000Y-63000000D02*
X249350000Y-62600000D01*
X86550000Y-62800000D02*
X86350000Y-62600000D01*
X137950000Y-78200000D02*
X138350000Y-78200000D01*
X137350000Y-77400000D02*
X137350000Y-77600000D01*
X130750000Y-65599999D02*
X131949999Y-65599999D01*
X88350000Y-62800000D02*
X86550000Y-62800000D01*
X99350000Y-56000000D02*
X99750000Y-55600000D01*
X116350000Y-84200000D02*
X115950000Y-84600000D01*
X84750000Y-62000000D02*
X82350000Y-62000000D01*
X102750000Y-77400000D02*
X103150000Y-77400000D01*
X128949999Y-64400000D02*
X128949999Y-64800000D01*
X105950000Y-84000000D02*
X105350000Y-83400000D01*
X137550000Y-77800000D02*
X135550000Y-79800000D01*
X104750000Y-83000000D02*
X103950000Y-83000000D01*
X100150000Y-76600000D02*
X98950000Y-77800000D01*
X96750000Y-60200000D02*
X98550000Y-58400000D01*
X84350000Y-72800000D02*
X84750000Y-72800000D01*
X145150000Y-70400000D02*
X146150000Y-70400000D01*
X98950000Y-57400000D02*
X99350000Y-57000000D01*
X134150000Y-80800000D02*
X133949999Y-80600000D01*
X105750000Y-77000000D02*
X106150000Y-77400000D01*
X129949999Y-65200000D02*
X130150000Y-65400000D01*
X133949999Y-80600000D02*
X124950000Y-80600000D01*
X84750000Y-72800000D02*
X85150000Y-72400000D01*
X101750000Y-49200000D02*
X102350000Y-48600000D01*
X85550000Y-68800000D02*
X85550000Y-68600000D01*
X111350000Y-85800000D02*
X110150000Y-85800000D01*
X81550000Y-62800000D02*
X80550000Y-62800000D01*
X114950000Y-85000000D02*
X114750000Y-85000000D01*
X123750000Y-79800000D02*
X123750000Y-79400000D01*
X99350000Y-57000000D02*
X99350000Y-56000000D01*
X100750000Y-52000000D02*
X100750000Y-51800000D01*
X98350000Y-78600000D02*
X98350000Y-79000000D01*
X88750000Y-62600000D02*
X89150000Y-62200000D01*
X135550000Y-80400000D02*
X135350000Y-80600000D01*
X85550000Y-68600000D02*
X85350000Y-68400000D01*
X115350000Y-84600000D02*
X114950000Y-85000000D01*
X102350000Y-45600000D02*
X102750000Y-45200000D01*
X99750000Y-54200000D02*
X99750000Y-53000000D01*
X139350000Y-79600000D02*
X139550000Y-79800000D01*
X236150000Y-64200000D02*
X246950000Y-64200000D01*
X129350000Y-65200000D02*
X129949999Y-65200000D01*
X119550000Y-81400000D02*
X119350000Y-81600000D01*
X93350000Y-80400000D02*
X91550000Y-82200000D01*
X122750000Y-78200000D02*
X121950000Y-78200000D01*
X98550000Y-58400000D02*
X98550000Y-58200000D01*
X88550000Y-62600000D02*
X88750000Y-62600000D01*
X135350000Y-80600000D02*
X134350000Y-80600000D01*
X249950000Y-62600000D02*
X252150000Y-60400000D01*
X112150000Y-85800000D02*
X111950000Y-85600000D01*
X96350000Y-60200000D02*
X96750000Y-60200000D01*
X110150000Y-85800000D02*
X109950000Y-85600000D01*
X94350000Y-62200000D02*
X96350000Y-60200000D01*
X130150000Y-65400000D02*
X130550000Y-65400000D01*
X111550000Y-85600000D02*
X111350000Y-85800000D01*
X97750000Y-79600000D02*
X97550000Y-79600000D01*
X98950000Y-77800000D02*
X98950000Y-78000000D01*
X85150000Y-72400000D02*
X85150000Y-72200000D01*
X248150000Y-63000000D02*
X248950000Y-63000000D01*
X98950000Y-78000000D02*
X98350000Y-78600000D01*
X109150000Y-85400000D02*
X108750000Y-85000000D01*
X102750000Y-45200000D02*
X102750000Y-40600000D01*
X114750000Y-85000000D02*
X114350000Y-85400000D01*
X91350000Y-82200000D02*
X91150000Y-82400000D01*
X109350000Y-85400000D02*
X109150000Y-85400000D01*
X102350000Y-48600000D02*
X102350000Y-45600000D01*
X115950000Y-84600000D02*
X115350000Y-84600000D01*
X99750000Y-53000000D02*
X100750000Y-52000000D01*
X133150000Y-66000000D02*
X134950000Y-67800000D01*
X105550000Y-77200000D02*
X105750000Y-77000000D01*
X135550000Y-79800000D02*
X135550000Y-80400000D01*
X108750000Y-85000000D02*
X108150000Y-85000000D01*
X119550000Y-80600000D02*
X119550000Y-81400000D01*
X104150000Y-77200000D02*
X105550000Y-77200000D01*
X108150000Y-85000000D02*
X107950000Y-84800000D01*
X123750000Y-79400000D02*
X123150000Y-78800000D01*
X91150000Y-82400000D02*
X86750000Y-82400000D01*
X102750000Y-40600000D02*
X102950000Y-40400000D01*
X91550000Y-82200000D02*
X91350000Y-82200000D01*
X106150000Y-84600000D02*
X105950000Y-84400000D01*
X85950000Y-71400000D02*
X85950000Y-69200000D01*
X109950000Y-85600000D02*
X109550000Y-85600000D01*
X131949999Y-65599999D02*
X132350000Y-66000000D01*
X139550000Y-80000000D02*
X139350000Y-80200000D01*
X99950000Y-54400000D02*
X99750000Y-54200000D01*
X113550000Y-85400000D02*
X113350000Y-85600000D01*
X105950000Y-84400000D02*
X105950000Y-84000000D01*
X105350000Y-83400000D02*
X105150000Y-83400000D01*
X107350000Y-84600000D02*
X106150000Y-84600000D01*
X113350000Y-85600000D02*
X112350000Y-85600000D01*
X137350000Y-71000000D02*
X144550000Y-71000000D01*
X80150000Y-63200000D02*
X79750000Y-63200000D01*
X96750000Y-80400000D02*
X93350000Y-80400000D01*
X98550000Y-58200000D02*
X98950000Y-57800000D01*
X87550000Y-66000000D02*
X87550000Y-64400000D01*
X85150000Y-72200000D02*
X85950000Y-71400000D01*
X103350000Y-77200000D02*
X103750000Y-77200000D01*
X97550000Y-79600000D02*
X96750000Y-80400000D01*
X114350000Y-85400000D02*
X113550000Y-85400000D01*
X84350000Y-75600000D02*
X84350000Y-72800000D01*
X134950000Y-67800000D02*
X134950000Y-71000000D01*
X249350000Y-62600000D02*
X249950000Y-62600000D01*
X99750000Y-55600000D02*
X99750000Y-54600000D01*
X136150000Y-72200000D02*
X136150000Y-76200000D01*
X139350000Y-80200000D02*
X139350000Y-82800000D01*
X98350000Y-79000000D02*
X97750000Y-79600000D01*
X123150000Y-78600000D02*
X122750000Y-78200000D01*
X80550000Y-62800000D02*
X80150000Y-63200000D01*
X85350000Y-68400000D02*
X85350000Y-68200000D01*
X139350000Y-79200000D02*
X139350000Y-79600000D01*
X119150000Y-81600000D02*
X116550000Y-84200000D01*
X85950000Y-69200000D02*
X85550000Y-68800000D01*
X116550000Y-84200000D02*
X116350000Y-84200000D01*
X132350000Y-66000000D02*
X133150000Y-66000000D01*
X103750000Y-82800000D02*
X103750000Y-82400000D01*
X139550000Y-79800000D02*
X139550000Y-80000000D01*
X109550000Y-85600000D02*
X109350000Y-85400000D01*
X138350000Y-78200000D02*
X139350000Y-79200000D01*
X144550000Y-71000000D02*
X145150000Y-70400000D01*
X98950000Y-57800000D02*
X98950000Y-57400000D01*
X139400000Y-82730000D02*
X139350000Y-82800000D01*
X84150000Y-75800000D02*
X84350000Y-75600000D01*
X124950000Y-80600000D02*
X124750000Y-80800000D01*
X105150000Y-83400000D02*
X104750000Y-83000000D01*
X137350000Y-77600000D02*
X137950000Y-78200000D01*
X111950000Y-85600000D02*
X111550000Y-85600000D01*
X134950000Y-71000000D02*
X136150000Y-72200000D01*
X136150000Y-76200000D02*
X137350000Y-77400000D01*
X246950000Y-64200000D02*
X248150000Y-63000000D01*
X85350000Y-68200000D02*
X87550000Y-66000000D01*
X124750000Y-80800000D02*
X123750000Y-79800000D01*
X128949999Y-64800000D02*
X129350000Y-65200000D01*
X107550000Y-84800000D02*
X107350000Y-84600000D01*
X100750000Y-51800000D02*
X100950000Y-51600000D01*
X136150000Y-72200000D02*
X137350000Y-71000000D01*
X130550000Y-65400000D02*
X130750000Y-65599999D01*
X82350000Y-62000000D02*
X81550000Y-62800000D01*
X89150000Y-62200000D02*
X94350000Y-62200000D01*
X119350000Y-81600000D02*
X119150000Y-81600000D01*
X85350000Y-62600000D02*
X84750000Y-62000000D01*
X107950000Y-84800000D02*
X107550000Y-84800000D01*
X103150000Y-77400000D02*
X103350000Y-77200000D01*
X121950000Y-78200000D02*
X119550000Y-80600000D01*
X134350000Y-80600000D02*
X134150000Y-80800000D01*
X88350000Y-62800000D02*
X88550000Y-62600000D01*
X103750000Y-82400000D02*
X102950000Y-81600000D01*
X103750000Y-77200000D02*
X103950000Y-77000000D01*
X99750000Y-54600000D02*
X99950000Y-54400000D01*
X252150000Y-60400000D02*
X252350000Y-60400000D01*
%TO.N,SR_LATCH*%
X79950000Y-77000000D02*
X81750000Y-77000000D01*
X143750000Y-44000000D02*
X143750000Y-40400000D01*
X135750000Y-12400000D02*
X135150000Y-12400000D01*
X137150000Y-13800000D02*
X135750000Y-12400000D01*
X136150000Y-57000000D02*
X143350000Y-49800000D01*
X126350000Y-65200000D02*
X126150000Y-65400000D01*
X82550000Y-22800000D02*
X79750000Y-25600000D01*
X135150000Y-12400000D02*
X134950000Y-12200000D01*
X80750000Y-65400000D02*
X80750000Y-65200000D01*
X79750000Y-25600000D02*
X76550000Y-25600000D01*
X121950000Y-65400000D02*
X120550000Y-65400000D01*
X81550000Y-68400000D02*
X80950000Y-68400000D01*
X79750000Y-66599999D02*
X80350000Y-66000000D01*
X125150000Y-65200000D02*
X124950000Y-65400000D01*
X105150000Y-49600000D02*
X105150000Y-49000000D01*
X82350000Y-69200000D02*
X81550000Y-68400000D01*
X103550000Y-78200000D02*
X103750000Y-78000000D01*
X26350000Y-46800000D02*
X26350000Y-47600000D01*
X106750000Y-60200000D02*
X106550000Y-60000000D01*
X40550000Y-55800000D02*
X41550000Y-54800000D01*
X82550000Y-70600000D02*
X82550000Y-70400000D01*
X80750000Y-65200000D02*
X80950000Y-65000000D01*
X123950000Y-65400000D02*
X123750000Y-65599999D01*
X123750000Y-65599999D02*
X122150000Y-65599999D01*
X126150000Y-65400000D02*
X125750000Y-65400000D01*
X105150000Y-79800000D02*
X105150000Y-80000000D01*
X105350000Y-56600000D02*
X105350000Y-49800000D01*
X82550000Y-70400000D02*
X82350000Y-70200000D01*
X106550000Y-60000000D02*
X106550000Y-57800000D01*
X137150000Y-16000000D02*
X137150000Y-13800000D01*
X160550000Y-24600000D02*
X160550000Y-32000000D01*
X104950000Y-44600000D02*
X104950000Y-40200000D01*
X162350000Y-24400000D02*
X164750000Y-24400000D01*
X106550000Y-57800000D02*
X105350000Y-56600000D01*
X104950000Y-40200000D02*
X104550000Y-39800000D01*
X228150000Y-60200000D02*
X233550000Y-60200000D01*
X202550000Y-41800000D02*
X208150000Y-47400000D01*
X82350000Y-70200000D02*
X82350000Y-69200000D01*
X104950000Y-45000000D02*
X105150000Y-44800000D01*
X104550000Y-78800000D02*
X104550000Y-79200000D01*
X142750000Y-21600000D02*
X137150000Y-16000000D01*
X143750000Y-40400000D02*
X143550000Y-40200000D01*
X25750000Y-48200000D02*
X25750000Y-49800000D01*
X79750000Y-67600000D02*
X79750000Y-66599999D01*
X162150000Y-24600000D02*
X162350000Y-24400000D01*
X80950000Y-65599999D02*
X80750000Y-65400000D01*
X80350000Y-66000000D02*
X80750000Y-66000000D01*
X126750000Y-65000000D02*
X126550000Y-65200000D01*
X126950000Y-65000000D02*
X126750000Y-65000000D01*
X234550000Y-61200000D02*
X234750000Y-61200000D01*
X143350000Y-44400000D02*
X143750000Y-44000000D01*
X125750000Y-65400000D02*
X125550000Y-65200000D01*
X26350000Y-47600000D02*
X25750000Y-48200000D01*
X156550000Y-25400000D02*
X157350000Y-24600000D01*
X105350000Y-49800000D02*
X105150000Y-49600000D01*
X233550000Y-60200000D02*
X234550000Y-61200000D01*
X234750000Y-61200000D02*
X234950000Y-61400000D01*
X105150000Y-49000000D02*
X104950000Y-48800000D01*
X165130000Y-23920000D02*
X165150000Y-24000000D01*
X122150000Y-65599999D02*
X121950000Y-65400000D01*
X113550000Y-60200000D02*
X106750000Y-60200000D01*
X143550000Y-40200000D02*
X143550000Y-38000000D01*
X80750000Y-66000000D02*
X80950000Y-65800000D01*
X80550000Y-68000000D02*
X80150000Y-68000000D01*
X126550000Y-65200000D02*
X126350000Y-65200000D01*
X227350000Y-59400000D02*
X228150000Y-60200000D01*
X154350000Y-25400000D02*
X156550000Y-25400000D01*
X152550000Y-25200000D02*
X154150000Y-25200000D01*
X81750000Y-77000000D02*
X83550000Y-75200000D01*
X125550000Y-65200000D02*
X125150000Y-65200000D01*
X157350000Y-24600000D02*
X162150000Y-24600000D01*
X154150000Y-25200000D02*
X154350000Y-25400000D01*
X32150000Y-40000000D02*
X27150000Y-45000000D01*
X115150000Y-61800000D02*
X113550000Y-60200000D01*
X100950000Y-78200000D02*
X103550000Y-78200000D01*
X104550000Y-79200000D02*
X105150000Y-79800000D01*
X80950000Y-65800000D02*
X80950000Y-65599999D01*
X234950000Y-61400000D02*
X238150000Y-61400000D01*
X42550000Y-36800000D02*
X39550000Y-36800000D01*
X39550000Y-36800000D02*
X36350000Y-40000000D01*
X105150000Y-44800000D02*
X104950000Y-44600000D01*
X36350000Y-40000000D02*
X32150000Y-40000000D01*
X143350000Y-49800000D02*
X143350000Y-44400000D01*
X103750000Y-78000000D02*
X104550000Y-78800000D01*
X40550000Y-60400000D02*
X40550000Y-55800000D01*
X104950000Y-48800000D02*
X104950000Y-45000000D01*
X80950000Y-68400000D02*
X80550000Y-68000000D01*
X80150000Y-68000000D02*
X79750000Y-67600000D01*
X124950000Y-65400000D02*
X123950000Y-65400000D01*
X164750000Y-24400000D02*
X165150000Y-24000000D01*
%TO.N,SR_CHAIN3*%
X247550000Y-65000000D02*
X235550000Y-65000000D01*
X102350000Y-79800000D02*
X103350000Y-79800000D01*
X248750000Y-63800000D02*
X247550000Y-65000000D01*
X235150000Y-65400000D02*
X217950000Y-65400000D01*
X95950000Y-84800000D02*
X95950000Y-84000000D01*
X103350000Y-79800000D02*
X103550000Y-79600000D01*
X98750000Y-85400000D02*
X96550000Y-85400000D01*
X249350000Y-63800000D02*
X248750000Y-63800000D01*
X250950000Y-63600000D02*
X249550000Y-63600000D01*
X100950000Y-79600000D02*
X102150000Y-79600000D01*
X96550000Y-85400000D02*
X95950000Y-84800000D01*
X95950000Y-84000000D02*
X94950000Y-83000000D01*
X102150000Y-79600000D02*
X102350000Y-79800000D01*
X99350000Y-86000000D02*
X98750000Y-85400000D01*
X252550000Y-62000000D02*
X250950000Y-63600000D01*
X249550000Y-63600000D02*
X249350000Y-63800000D01*
X103550000Y-79600000D02*
X103550000Y-79000000D01*
X235550000Y-65000000D02*
X235150000Y-65400000D01*
%TO.N,LED11*%
X249350000Y-66400000D02*
X253150000Y-62600000D01*
X253150000Y-62600000D02*
X253750000Y-62600000D01*
X241150000Y-75200000D02*
X245750000Y-70600000D01*
X254550000Y-61800000D02*
X255950000Y-61800000D01*
X240950000Y-78400000D02*
X240950000Y-78200000D01*
X245750000Y-70600000D02*
X245750000Y-70400000D01*
X240950000Y-78200000D02*
X241150000Y-78000000D01*
X241150000Y-78000000D02*
X241150000Y-75200000D01*
X257350000Y-60400000D02*
X257550000Y-60400000D01*
X255950000Y-61800000D02*
X257350000Y-60400000D01*
X253750000Y-62600000D02*
X254550000Y-61800000D01*
X245750000Y-70400000D02*
X249350000Y-66800000D01*
X249350000Y-66800000D02*
X249350000Y-66400000D01*
%TO.N,MUX_EN3_SR*%
X173950000Y-42400000D02*
X171150000Y-42400000D01*
X115350000Y-43200000D02*
X115150000Y-43400000D01*
X174350000Y-42400000D02*
X174150000Y-42200000D01*
X115150000Y-43400000D02*
X114550000Y-43400000D01*
X184150000Y-42800000D02*
X183550000Y-42800000D01*
X176950000Y-42200000D02*
X174550000Y-42200000D01*
X113550000Y-43600000D02*
X113350000Y-43400000D01*
X114550000Y-43400000D02*
X114350000Y-43600000D01*
X132350000Y-40200000D02*
X130550000Y-42000000D01*
X111550000Y-44200000D02*
X110350000Y-44200000D01*
X137950000Y-38800000D02*
X137550000Y-38800000D01*
X174150000Y-42200000D02*
X173950000Y-42400000D01*
X130550000Y-42000000D02*
X129750000Y-42000000D01*
X108150000Y-45400000D02*
X107550000Y-45400000D01*
X129750000Y-42000000D02*
X129350000Y-42400000D01*
X185150000Y-43800000D02*
X184150000Y-42800000D01*
X108750000Y-45400000D02*
X108550000Y-45200000D01*
X171150000Y-42400000D02*
X170950000Y-42600000D01*
X183550000Y-42800000D02*
X182750000Y-42000000D01*
X108550000Y-45200000D02*
X108350000Y-45200000D01*
X109750000Y-44800000D02*
X109350000Y-44800000D01*
X107550000Y-45400000D02*
X107150000Y-45800000D01*
X118750000Y-43400000D02*
X118550000Y-43200000D01*
X110350000Y-44200000D02*
X109750000Y-44800000D01*
X112350000Y-43600000D02*
X112150000Y-43800000D01*
X112150000Y-43800000D02*
X111950000Y-43800000D01*
X119150000Y-43400000D02*
X118750000Y-43400000D01*
X114350000Y-43600000D02*
X113550000Y-43600000D01*
X113350000Y-43400000D02*
X112350000Y-43400000D01*
X112350000Y-43400000D02*
X112350000Y-43600000D01*
X108350000Y-45200000D02*
X108150000Y-45400000D01*
X118550000Y-43200000D02*
X115350000Y-43200000D01*
X106750000Y-45800000D02*
X105750000Y-46800000D01*
X107150000Y-45800000D02*
X106750000Y-45800000D01*
X111950000Y-43800000D02*
X111550000Y-44200000D01*
X174550000Y-42200000D02*
X174350000Y-42400000D01*
X109350000Y-44800000D02*
X108750000Y-45400000D01*
X137550000Y-38800000D02*
X136350000Y-40000000D01*
X170950000Y-42600000D02*
X168550000Y-42600000D01*
%TO.N,MUX_EN3*%
X263750000Y-41200000D02*
X274750000Y-41200000D01*
X277550000Y-41000000D02*
X279350000Y-42800000D01*
X231150000Y-43400000D02*
X231750000Y-43400000D01*
X227750000Y-45200000D02*
X229750000Y-43200000D01*
X250750000Y-43400000D02*
X255750000Y-43400000D01*
X232150000Y-43800000D02*
X232350000Y-43800000D01*
X274750000Y-41200000D02*
X274950000Y-41000000D01*
X240150000Y-45800000D02*
X248350000Y-45800000D01*
X262550000Y-42400000D02*
X263750000Y-41200000D01*
X255750000Y-43400000D02*
X256750000Y-42400000D01*
X229750000Y-43200000D02*
X230950000Y-43200000D01*
X256750000Y-42400000D02*
X262550000Y-42400000D01*
X248350000Y-45800000D02*
X250750000Y-43400000D01*
X223150000Y-45200000D02*
X227750000Y-45200000D01*
X274950000Y-41000000D02*
X277550000Y-41000000D01*
X230950000Y-43200000D02*
X231150000Y-43400000D01*
X232350000Y-43800000D02*
X233150000Y-44600000D01*
X231750000Y-43400000D02*
X232150000Y-43800000D01*
%TO.N,LED0*%
X25150000Y-115000000D02*
X26150000Y-114000000D01*
X79750000Y-72800000D02*
X79750000Y-69000000D01*
X24150000Y-115200000D02*
X24350000Y-115000000D01*
X79750000Y-69000000D02*
X79950000Y-68800000D01*
X80750000Y-74200000D02*
X79950000Y-73400000D01*
X49550000Y-85800000D02*
X51550000Y-85800000D01*
X47150000Y-87000000D02*
X46950000Y-86800000D01*
X27550000Y-114000000D02*
X31350000Y-110200000D01*
X49150000Y-85800000D02*
X49350000Y-85600000D01*
X80750000Y-74800000D02*
X80750000Y-74200000D01*
X45950000Y-90800000D02*
X45950000Y-88400000D01*
X24350000Y-115000000D02*
X25150000Y-115000000D01*
X31550000Y-108000000D02*
X31550000Y-105000000D01*
X46950000Y-86800000D02*
X47950000Y-85800000D01*
X47950000Y-85800000D02*
X49150000Y-85800000D01*
X46550000Y-87600000D02*
X47150000Y-87000000D01*
X31550000Y-105000000D02*
X35550000Y-101000000D01*
X79950000Y-73000000D02*
X79750000Y-72800000D01*
X31350000Y-110200000D02*
X31350000Y-108200000D01*
X46550000Y-87800000D02*
X46550000Y-87600000D01*
X49350000Y-85600000D02*
X49550000Y-85800000D01*
X31350000Y-108200000D02*
X31550000Y-108000000D01*
X45950000Y-88400000D02*
X46550000Y-87800000D01*
X26150000Y-114000000D02*
X27550000Y-114000000D01*
X35550000Y-101000000D02*
X35750000Y-101000000D01*
X35750000Y-101000000D02*
X45950000Y-90800000D01*
X79950000Y-73400000D02*
X79950000Y-73000000D01*
X79150000Y-79800000D02*
X80750000Y-78200000D01*
%TO.N,-12V*%
D24*
X61750000Y-84000000D02*
X61750000Y-80600000D01*
X119550000Y-17200000D02*
X120150000Y-17200000D01*
X86350000Y-27800000D02*
X86950000Y-27200000D01*
X13350000Y-104200000D02*
X13350000Y-102600000D01*
X137130000Y-23920000D02*
X137150000Y-24000000D01*
X26350000Y-110400000D02*
X24550000Y-110400000D01*
X84950000Y-34600000D02*
X84950000Y-32799999D01*
X133350000Y-23400000D02*
X133550000Y-23200000D01*
X24550000Y-110400000D02*
X23550000Y-109400000D01*
X125750000Y-23600000D02*
X132949999Y-23600000D01*
X23550000Y-109400000D02*
X22750000Y-109400000D01*
X132949999Y-23600000D02*
X133150000Y-23400000D01*
X14350000Y-105200000D02*
X13350000Y-104200000D01*
X125350000Y-22800000D02*
X125350000Y-23200000D01*
X22750000Y-109400000D02*
X18550000Y-105200000D01*
X86350000Y-31400000D02*
X86350000Y-27800000D01*
X123950000Y-21000000D02*
X123950000Y-21400000D01*
X65150000Y-69400000D02*
X65150000Y-68200000D01*
X65349999Y-68000000D02*
X65349999Y-67800000D01*
X18550000Y-105200000D02*
X14350000Y-105200000D01*
X136550000Y-23400000D02*
X137150000Y-24000000D01*
X65550000Y-67600000D02*
X65550000Y-67400000D01*
X125350000Y-23200000D02*
X125750000Y-23600000D01*
X123950000Y-21400000D02*
X125350000Y-22800000D01*
X133150000Y-23400000D02*
X133350000Y-23400000D01*
X133550000Y-23200000D02*
X133949999Y-23200000D01*
X134150000Y-23400000D02*
X136550000Y-23400000D01*
X61950000Y-80200000D02*
X64750000Y-77400000D01*
X66150000Y-66800000D02*
X66150000Y-58600000D01*
X64750000Y-77400000D02*
X64750000Y-74600000D01*
X65550000Y-67400000D02*
X66150000Y-66800000D01*
X120150000Y-17200000D02*
X123950000Y-21000000D01*
X61750000Y-80600000D02*
X61950000Y-80400000D01*
X84950000Y-32799999D02*
X86350000Y-31400000D01*
X13150000Y-100800000D02*
X12950000Y-100600000D01*
X65349999Y-67800000D02*
X65550000Y-67600000D01*
X13350000Y-102600000D02*
X13150000Y-102400000D01*
X13150000Y-102400000D02*
X13150000Y-100800000D01*
X61950000Y-80400000D02*
X61950000Y-80200000D01*
X65150000Y-68200000D02*
X65349999Y-68000000D01*
X133949999Y-23200000D02*
X134150000Y-23400000D01*
%TO.N,SENSE_1*%
D23*
X253750000Y-81400000D02*
X254550000Y-82200000D01*
X251350000Y-81200000D02*
X251550000Y-81400000D01*
X248150000Y-81200000D02*
X251350000Y-81200000D01*
X247150000Y-80200000D02*
X248150000Y-81200000D01*
X251550000Y-81400000D02*
X253750000Y-81400000D01*
X254550000Y-82200000D02*
X255150000Y-82200000D01*
%TO.N,+12V*%
D24*
X134550000Y-43600000D02*
X134350000Y-43400000D01*
X147150000Y-40600000D02*
X146950000Y-40600000D01*
X135550000Y-43600000D02*
X135350000Y-43800000D01*
X41950000Y-39800000D02*
X42150000Y-39800000D01*
X137130000Y-34080000D02*
X137150000Y-34000000D01*
X134350000Y-43200000D02*
X134150000Y-43000000D01*
X134150000Y-43000000D02*
X134150000Y-42000000D01*
X137550000Y-43400000D02*
X137350000Y-43600000D01*
X149550000Y-40200000D02*
X147550000Y-40200000D01*
X136350000Y-34800000D02*
X137150000Y-34000000D01*
X135350000Y-40800000D02*
X135350000Y-37400000D01*
X134350000Y-43400000D02*
X134350000Y-43200000D01*
X136150000Y-36600000D02*
X136150000Y-36400000D01*
X136150000Y-36400000D02*
X136350000Y-36200000D01*
X139350000Y-15200000D02*
X140750000Y-15200000D01*
X40950000Y-40800000D02*
X41950000Y-39800000D01*
X135350000Y-43800000D02*
X134550000Y-43800000D01*
X142350000Y-19800000D02*
X143550000Y-21000000D01*
X137750000Y-43400000D02*
X137550000Y-43400000D01*
X40750000Y-40800000D02*
X40950000Y-40800000D01*
X42350000Y-39600000D02*
X42750000Y-39600000D01*
X135350000Y-37400000D02*
X136150000Y-36600000D01*
X25550000Y-91600000D02*
X23350000Y-91600000D01*
X134150000Y-42000000D02*
X135350000Y-40800000D01*
X137350000Y-43600000D02*
X135550000Y-43600000D01*
X138750000Y-14600000D02*
X139350000Y-15200000D01*
X64750000Y-31000000D02*
X66150000Y-29600000D01*
X147550000Y-40200000D02*
X147150000Y-40600000D01*
X79550000Y-24400000D02*
X81350000Y-22600000D01*
X23350000Y-91600000D02*
X18950000Y-96000000D01*
X134550000Y-43800000D02*
X134550000Y-43600000D01*
X143750000Y-21400000D02*
X143750000Y-31000000D01*
X42150000Y-39800000D02*
X42350000Y-39600000D01*
X143750000Y-31000000D02*
X144950000Y-32200000D01*
X140350000Y-40800000D02*
X137750000Y-43400000D01*
X146750000Y-40800000D02*
X144750000Y-40800000D01*
X136350000Y-36200000D02*
X136350000Y-34800000D01*
X146950000Y-40600000D02*
X146750000Y-40800000D01*
X143550000Y-21200000D02*
X143750000Y-21400000D01*
X143550000Y-21000000D02*
X143550000Y-21200000D01*
%TO.N,SR_DATA*%
D23*
X142950000Y-73800000D02*
X142950000Y-81000000D01*
X110550000Y-43400000D02*
X110750000Y-43400000D01*
X116150000Y-46200000D02*
X117350000Y-46200000D01*
X145550000Y-71200000D02*
X142950000Y-73800000D01*
X117750000Y-46600000D02*
X117750000Y-47600000D01*
X117750000Y-48600000D02*
X117750000Y-51000000D01*
X141940000Y-82730000D02*
X141950000Y-82800000D01*
X113350000Y-44600000D02*
X113750000Y-44600000D01*
X125350000Y-46400000D02*
X125150000Y-46200000D01*
X157950000Y-62400000D02*
X157950000Y-71200000D01*
X110350000Y-43200000D02*
X110550000Y-43400000D01*
X128150000Y-45000000D02*
X128750000Y-45000000D01*
X117350000Y-46200000D02*
X117750000Y-46600000D01*
X132550000Y-45800000D02*
X132750000Y-45600000D01*
X125150000Y-46800000D02*
X125150000Y-46600000D01*
X125150000Y-46600000D02*
X125350000Y-46400000D01*
X113950000Y-45000000D02*
X114350000Y-45400000D01*
X113950000Y-44800000D02*
X113950000Y-45000000D01*
X113750000Y-44600000D02*
X113950000Y-44800000D01*
X117750000Y-47600000D02*
X117550000Y-47800000D01*
X109950000Y-43200000D02*
X110350000Y-43200000D01*
X117950000Y-48400000D02*
X117750000Y-48600000D01*
X132949999Y-45600000D02*
X138150000Y-50800000D01*
X119750000Y-51200000D02*
X120750000Y-51200000D01*
X142950000Y-81000000D02*
X142150000Y-81800000D01*
X128750000Y-45000000D02*
X128949999Y-44800000D01*
X132750000Y-45600000D02*
X132949999Y-45600000D01*
X142150000Y-81800000D02*
X142150000Y-82600000D01*
X142150000Y-82600000D02*
X141950000Y-82800000D01*
X114550000Y-45400000D02*
X114750000Y-45600000D01*
X117750000Y-51000000D02*
X118150000Y-51400000D01*
X130150000Y-44800000D02*
X131150000Y-45800000D01*
X131150000Y-45800000D02*
X132550000Y-45800000D01*
X125150000Y-46200000D02*
X125150000Y-45800000D01*
X127950000Y-44800000D02*
X128150000Y-45000000D01*
X117550000Y-47800000D02*
X117950000Y-48200000D01*
X114350000Y-45400000D02*
X114550000Y-45400000D01*
X108350000Y-42000000D02*
X108350000Y-42400000D01*
X117950000Y-48200000D02*
X117950000Y-48400000D01*
X120750000Y-51200000D02*
X125150000Y-46800000D01*
X128949999Y-44800000D02*
X130150000Y-44800000D01*
X108350000Y-42400000D02*
X108750000Y-42800000D01*
X125150000Y-45800000D02*
X124750000Y-45400000D01*
X112950000Y-44200000D02*
X113350000Y-44600000D01*
X108750000Y-42800000D02*
X109550000Y-42800000D01*
X114750000Y-45600000D02*
X115550000Y-45600000D01*
X109550000Y-42800000D02*
X109950000Y-43200000D01*
X107150000Y-40800000D02*
X108350000Y-42000000D01*
X115550000Y-45600000D02*
X116150000Y-46200000D01*
%TO.N,SENSE_2*%
X119750000Y-42800000D02*
X119950000Y-43000000D01*
X119550000Y-45600000D02*
X118750000Y-46400000D01*
X120150000Y-34400000D02*
X119750000Y-34800000D01*
X169150000Y-25000000D02*
X167750000Y-26400000D01*
X118750000Y-46400000D02*
X118750000Y-48800000D01*
X118950000Y-49000000D02*
X118950000Y-52800000D01*
X168950000Y-22600000D02*
X169150000Y-22800000D01*
X112350000Y-64400000D02*
X112150000Y-64599999D01*
X118750000Y-48800000D02*
X118950000Y-49000000D01*
X116550000Y-64000000D02*
X116150000Y-64400000D01*
X119550000Y-44200000D02*
X119550000Y-45600000D01*
X167350000Y-21400000D02*
X167950000Y-21400000D01*
X118950000Y-52800000D02*
X118750000Y-53000000D01*
X118750000Y-53000000D02*
X118750000Y-56600000D01*
X110150000Y-65000000D02*
X109350000Y-65000000D01*
X119950000Y-43800000D02*
X119550000Y-44200000D01*
X112150000Y-64599999D02*
X110550000Y-64599999D01*
X116150000Y-64400000D02*
X112350000Y-64400000D01*
X168950000Y-22400000D02*
X168950000Y-22600000D01*
X167950000Y-21400000D02*
X168950000Y-22400000D01*
X167670000Y-26460000D02*
X167750000Y-26400000D01*
X119750000Y-34800000D02*
X119750000Y-42800000D01*
X117350000Y-58000000D02*
X117350000Y-59800000D01*
X110550000Y-64599999D02*
X110150000Y-65000000D01*
X119950000Y-43000000D02*
X119950000Y-43800000D01*
X117350000Y-59800000D02*
X116550000Y-60600000D01*
X116550000Y-60600000D02*
X116550000Y-64000000D01*
X169150000Y-22800000D02*
X169150000Y-25000000D01*
X118750000Y-56600000D02*
X117350000Y-58000000D01*
%TO.N,SR_DIN*%
X158750000Y-23800000D02*
X159550000Y-23000000D01*
X162350000Y-22600000D02*
X162550000Y-22600000D01*
X164150000Y-21800000D02*
X166150000Y-21800000D01*
X138950000Y-16000000D02*
X139150000Y-16200000D01*
X85550000Y-27200000D02*
X87750000Y-25000000D01*
X163750000Y-22200000D02*
X164150000Y-21800000D01*
X83950000Y-32600000D02*
X84150000Y-32400000D01*
X85150000Y-36200000D02*
X84150000Y-35200000D01*
X166150000Y-21800000D02*
X166550000Y-22200000D01*
X141550000Y-16200000D02*
X148750000Y-23400000D01*
X137950000Y-15600000D02*
X138350000Y-15600000D01*
X85150000Y-36600000D02*
X85150000Y-36200000D01*
X138350000Y-15600000D02*
X138750000Y-16000000D01*
X162550000Y-22600000D02*
X162950000Y-22200000D01*
X84150000Y-35000000D02*
X83950000Y-34800000D01*
X138750000Y-16000000D02*
X138950000Y-16000000D01*
X159550000Y-23000000D02*
X161950000Y-23000000D01*
X83950000Y-34800000D02*
X83950000Y-32600000D01*
X148750000Y-23400000D02*
X154950000Y-23400000D01*
X87750000Y-25000000D02*
X87750000Y-24400000D01*
X84150000Y-35200000D02*
X84150000Y-35000000D01*
X166550000Y-22200000D02*
X167150000Y-22200000D01*
X155150000Y-23600000D02*
X155750000Y-23600000D01*
X85950000Y-37400000D02*
X85150000Y-36600000D01*
X161950000Y-23000000D02*
X162350000Y-22600000D01*
X85350000Y-31000000D02*
X85350000Y-27600000D01*
X154950000Y-23400000D02*
X155150000Y-23600000D01*
X139150000Y-16200000D02*
X141550000Y-16200000D01*
X155950000Y-23800000D02*
X158750000Y-23800000D01*
X85350000Y-27600000D02*
X85550000Y-27400000D01*
X167150000Y-22200000D02*
X167350000Y-22400000D01*
X84150000Y-32400000D02*
X84150000Y-32200000D01*
X84150000Y-32200000D02*
X85350000Y-31000000D01*
X155750000Y-23600000D02*
X155950000Y-23800000D01*
X167670000Y-23920000D02*
X167750000Y-24000000D01*
X167350000Y-23600000D02*
X167750000Y-24000000D01*
X85550000Y-27400000D02*
X85550000Y-27200000D01*
X167350000Y-22400000D02*
X167350000Y-23600000D01*
X162950000Y-22200000D02*
X163750000Y-22200000D01*
%TO.N,MUX_EN5*%
X190950000Y-81800000D02*
X236550000Y-81800000D01*
X246950000Y-83000000D02*
X247750000Y-83800000D01*
X249950000Y-83200000D02*
X250150000Y-83000000D01*
X237750000Y-83000000D02*
X246950000Y-83000000D01*
X236550000Y-81800000D02*
X237750000Y-83000000D01*
X250150000Y-83000000D02*
X251550000Y-83000000D01*
X249150000Y-83800000D02*
X249750000Y-83200000D01*
X249750000Y-83200000D02*
X249950000Y-83200000D01*
X247750000Y-83800000D02*
X249150000Y-83800000D01*
%TO.N,LED7*%
X123550000Y-62400000D02*
X123350000Y-62600000D01*
X123350000Y-62600000D02*
X122950000Y-62600000D01*
X119150000Y-78200000D02*
X116950000Y-80400000D01*
X120350000Y-75800000D02*
X120350000Y-77400000D01*
X119750000Y-66599999D02*
X119750000Y-70400000D01*
X125950000Y-60200000D02*
X125550000Y-60600000D01*
X122350000Y-62400000D02*
X121750000Y-62400000D01*
X119550000Y-65599999D02*
X119550000Y-66400000D01*
X120550000Y-75200000D02*
X120550000Y-75600000D01*
X120950000Y-62800000D02*
X120750000Y-62600000D01*
X110350000Y-83000000D02*
X110150000Y-83200000D01*
X111350000Y-83000000D02*
X111150000Y-82800000D01*
X112350000Y-82600000D02*
X112150000Y-82800000D01*
X120550000Y-75600000D02*
X120350000Y-75800000D01*
X123750000Y-62400000D02*
X123550000Y-62400000D01*
X111550000Y-82800000D02*
X111350000Y-83000000D01*
X122550000Y-62600000D02*
X122350000Y-62400000D01*
X119350000Y-64400000D02*
X119350000Y-65400000D01*
X121750000Y-62400000D02*
X121550000Y-62200000D01*
X120350000Y-77400000D02*
X119550000Y-78200000D01*
X123950000Y-62200000D02*
X123750000Y-62400000D01*
X124950000Y-61000000D02*
X124750000Y-61000000D01*
X131350000Y-61600000D02*
X129750000Y-61600000D01*
X111150000Y-82800000D02*
X110950000Y-82800000D01*
X125350000Y-60600000D02*
X124950000Y-61000000D01*
X109350000Y-83200000D02*
X109150000Y-83000000D01*
X118750000Y-63000000D02*
X118750000Y-63800000D01*
X116950000Y-80400000D02*
X115150000Y-80400000D01*
X110750000Y-83000000D02*
X110350000Y-83000000D01*
X119550000Y-66400000D02*
X119750000Y-66599999D01*
X129750000Y-61600000D02*
X128949999Y-60800000D01*
X121550000Y-62200000D02*
X120950000Y-62800000D01*
X126750000Y-60200000D02*
X125950000Y-60200000D01*
X122750000Y-62400000D02*
X122550000Y-62600000D01*
X123950000Y-61800000D02*
X123950000Y-62200000D01*
X110150000Y-83200000D02*
X109350000Y-83200000D01*
X119150000Y-62600000D02*
X118750000Y-63000000D01*
X125550000Y-60600000D02*
X125350000Y-60600000D01*
X120750000Y-71400000D02*
X120750000Y-75000000D01*
X112950000Y-82600000D02*
X112350000Y-82600000D01*
X119550000Y-78200000D02*
X119150000Y-78200000D01*
X110950000Y-82800000D02*
X110750000Y-83000000D01*
X131949999Y-61000000D02*
X131350000Y-61600000D01*
X112150000Y-82800000D02*
X111550000Y-82800000D01*
X128350000Y-60800000D02*
X128150000Y-60600000D01*
X120750000Y-75000000D02*
X120550000Y-75200000D01*
X124750000Y-61000000D02*
X123950000Y-61800000D01*
X128150000Y-60600000D02*
X127150000Y-60600000D01*
X115150000Y-80400000D02*
X112950000Y-82600000D01*
X118750000Y-63800000D02*
X119350000Y-64400000D01*
X128949999Y-60800000D02*
X128350000Y-60800000D01*
X127150000Y-60600000D02*
X126750000Y-60200000D01*
X122950000Y-62600000D02*
X122750000Y-62400000D01*
X120750000Y-62600000D02*
X119150000Y-62600000D01*
X131949999Y-60600000D02*
X131949999Y-61000000D01*
X132150000Y-60400000D02*
X131949999Y-60600000D01*
X119350000Y-65400000D02*
X119550000Y-65599999D01*
X119750000Y-70400000D02*
X120750000Y-71400000D01*
%TO.N,MUX_EN6_SR*%
X73550000Y-64400000D02*
X73550000Y-64599999D01*
X74150000Y-63800000D02*
X74150000Y-64000000D01*
X84750000Y-61000000D02*
X83550000Y-61000000D01*
X83550000Y-61000000D02*
X83350000Y-61200000D01*
X83350000Y-61200000D02*
X81550000Y-61200000D01*
X73950000Y-64200000D02*
X73750000Y-64200000D01*
X76550000Y-63600000D02*
X74350000Y-63600000D01*
X76550000Y-65599999D02*
X77550000Y-66599999D01*
X78750000Y-61600000D02*
X78550000Y-61600000D01*
X78550000Y-61600000D02*
X76550000Y-63600000D01*
X74150000Y-65599999D02*
X76550000Y-65599999D01*
X78950000Y-61400000D02*
X78750000Y-61600000D01*
X79150000Y-61400000D02*
X78950000Y-61400000D01*
X74350000Y-63600000D02*
X74150000Y-63800000D01*
X73750000Y-64800000D02*
X73750000Y-65200000D01*
X73550000Y-64599999D02*
X73750000Y-64800000D01*
X74150000Y-64000000D02*
X73950000Y-64200000D01*
X73750000Y-65200000D02*
X74150000Y-65599999D01*
X73750000Y-64200000D02*
X73550000Y-64400000D01*
%TO.N,MUX_EN6*%
X97950000Y-40600000D02*
X98350000Y-40600000D01*
X96950000Y-41600000D02*
X97950000Y-40600000D01*
%TO.N,LED6*%
X106750000Y-86200000D02*
X106950000Y-86000000D01*
X106950000Y-86000000D02*
X107150000Y-86000000D01*
X105150000Y-96600000D02*
X105150000Y-96000000D01*
X106750000Y-86600000D02*
X106750000Y-86200000D01*
X106150000Y-92200000D02*
X106150000Y-87200000D01*
X105150000Y-96000000D02*
X105350000Y-95800000D01*
X104950000Y-96800000D02*
X105150000Y-96600000D01*
X106950000Y-100400000D02*
X106550000Y-100000000D01*
X105550000Y-92800000D02*
X106150000Y-92200000D01*
X111350000Y-100400000D02*
X106950000Y-100400000D01*
X105550000Y-97400000D02*
X105350000Y-97200000D01*
X105950000Y-97400000D02*
X105550000Y-97400000D01*
X106550000Y-98000000D02*
X105950000Y-97400000D01*
X104950000Y-97000000D02*
X104950000Y-96800000D01*
X122950000Y-111800000D02*
X118350000Y-107200000D01*
X105350000Y-93200000D02*
X105550000Y-93000000D01*
X107150000Y-86000000D02*
X107550000Y-85600000D01*
X105350000Y-97200000D02*
X105150000Y-97200000D01*
X105150000Y-97200000D02*
X104950000Y-97000000D01*
X106550000Y-100000000D02*
X106550000Y-98000000D01*
X105350000Y-95800000D02*
X105350000Y-93200000D01*
X118150000Y-107200000D02*
X111350000Y-100400000D01*
X105550000Y-93000000D02*
X105550000Y-92800000D01*
X106150000Y-87200000D02*
X106750000Y-86600000D01*
X118350000Y-107200000D02*
X118150000Y-107200000D01*
%TO.N,MUX_EN4_SR*%
X89950000Y-41800000D02*
X90550000Y-42400000D01*
X78750000Y-39000000D02*
X78750000Y-39800000D01*
X98150000Y-44200000D02*
X99550000Y-45600000D01*
X141150000Y-22800000D02*
X140750000Y-22400000D01*
X84750000Y-27000000D02*
X84550000Y-27200000D01*
X152150000Y-41000000D02*
X149950000Y-41000000D01*
X120350000Y-16200000D02*
X115750000Y-16200000D01*
X149950000Y-41000000D02*
X149750000Y-41200000D01*
X153950000Y-40200000D02*
X152950000Y-40200000D01*
X93950000Y-44200000D02*
X98150000Y-44200000D01*
X152950000Y-40200000D02*
X152150000Y-41000000D01*
X83350000Y-32000000D02*
X83150000Y-32200000D01*
X157150000Y-43400000D02*
X153950000Y-40200000D01*
X84750000Y-26800000D02*
X84750000Y-27000000D01*
X84550000Y-30600000D02*
X83350000Y-31800000D01*
X80750000Y-41800000D02*
X89950000Y-41800000D01*
X83150000Y-34600000D02*
X78750000Y-39000000D01*
X141150000Y-33800000D02*
X141150000Y-22800000D01*
X138750000Y-22400000D02*
X134950000Y-18600000D01*
X83350000Y-31800000D02*
X83350000Y-32000000D01*
X149750000Y-41200000D02*
X147950000Y-41200000D01*
X83150000Y-32200000D02*
X83150000Y-34600000D01*
X140750000Y-22400000D02*
X138750000Y-22400000D01*
X78750000Y-39800000D02*
X80750000Y-41800000D01*
X141350000Y-34000000D02*
X141150000Y-33800000D01*
X85550000Y-26000000D02*
X84750000Y-26800000D01*
X93750000Y-44000000D02*
X93950000Y-44200000D01*
X146550000Y-39800000D02*
X143350000Y-36600000D01*
X84550000Y-27200000D02*
X84550000Y-30600000D01*
X115350000Y-15800000D02*
X108550000Y-15800000D01*
X115750000Y-16200000D02*
X115350000Y-15800000D01*
X108550000Y-15800000D02*
X107350000Y-17000000D01*
X107350000Y-17000000D02*
X106150000Y-17000000D01*
%TO.N,MUX_EN4*%
X224950000Y-42200000D02*
X227950000Y-42200000D01*
X224550000Y-42600000D02*
X224950000Y-42200000D01*
X178350000Y-43600000D02*
X178350000Y-43400000D01*
X177550000Y-44400000D02*
X178350000Y-43600000D01*
X176550000Y-44400000D02*
X177550000Y-44400000D01*
X227950000Y-42200000D02*
X228750000Y-43000000D01*
X222950000Y-42600000D02*
X224550000Y-42600000D01*
%TO.N,LED4*%
X102550000Y-84000000D02*
X103750000Y-84000000D01*
X99750000Y-81600000D02*
X100350000Y-81600000D01*
X103750000Y-84000000D02*
X105950000Y-86200000D01*
X101950000Y-83400000D02*
X102550000Y-84000000D01*
X100350000Y-81600000D02*
X101950000Y-83200000D01*
X101950000Y-83200000D02*
X101950000Y-83400000D01*
%TO.N,LED5*%
X118150000Y-77600000D02*
X117550000Y-78200000D01*
X118750000Y-76600000D02*
X118150000Y-77200000D01*
X120350000Y-18800000D02*
X120750000Y-19200000D01*
X120750000Y-56800000D02*
X120750000Y-58400000D01*
X121150000Y-43400000D02*
X121150000Y-46800000D01*
X117550000Y-78200000D02*
X117550000Y-78400000D01*
X118950000Y-18200000D02*
X119550000Y-18800000D01*
X117350000Y-64200000D02*
X117350000Y-66800000D01*
X118150000Y-71200000D02*
X119150000Y-72200000D01*
X120950000Y-40200000D02*
X121350000Y-40600000D01*
X118150000Y-67800000D02*
X118150000Y-71200000D01*
X119550000Y-18800000D02*
X120350000Y-18800000D01*
X118750000Y-74600000D02*
X118750000Y-76600000D01*
X121350000Y-47000000D02*
X121350000Y-48000000D01*
X119150000Y-72200000D02*
X119150000Y-74200000D01*
X119150000Y-61200000D02*
X118950000Y-61400000D01*
X119150000Y-60000000D02*
X119150000Y-61200000D01*
X119150000Y-74200000D02*
X118750000Y-74600000D01*
X117750000Y-67200000D02*
X117750000Y-67400000D01*
X117750000Y-63800000D02*
X117350000Y-64200000D01*
X121350000Y-43200000D02*
X121150000Y-43400000D01*
X121350000Y-40600000D02*
X121350000Y-43200000D01*
X120750000Y-19200000D02*
X120750000Y-23000000D01*
X120950000Y-53200000D02*
X120950000Y-56600000D01*
X118950000Y-61400000D02*
X118750000Y-61400000D01*
X120950000Y-56600000D02*
X120750000Y-56800000D01*
X120950000Y-26200000D02*
X120950000Y-31600000D01*
X117350000Y-66800000D02*
X117750000Y-67200000D01*
X118750000Y-61400000D02*
X117750000Y-62400000D01*
X117750000Y-62400000D02*
X117750000Y-63800000D01*
X117750000Y-67400000D02*
X118150000Y-67800000D01*
X118150000Y-77200000D02*
X118150000Y-77600000D01*
X120950000Y-36600000D02*
X120950000Y-40200000D01*
X121150000Y-46800000D02*
X121350000Y-47000000D01*
X120750000Y-58400000D02*
X119150000Y-60000000D01*
%TO.N,LED8*%
X105350000Y-91800000D02*
X105350000Y-86800000D01*
X117950000Y-108000000D02*
X117750000Y-108000000D01*
X105750000Y-99000000D02*
X104150000Y-97400000D01*
X155950000Y-112800000D02*
X138150000Y-112800000D01*
X105750000Y-100400000D02*
X105750000Y-99000000D01*
X104150000Y-97400000D02*
X104150000Y-93800000D01*
X117750000Y-108000000D02*
X117550000Y-107800000D01*
X117550000Y-107800000D02*
X112350000Y-107800000D01*
X111950000Y-106600000D02*
X105750000Y-100400000D01*
X156350000Y-112400000D02*
X155950000Y-112800000D01*
X111950000Y-107400000D02*
X111950000Y-106600000D01*
X112350000Y-107800000D02*
X111950000Y-107400000D01*
X104550000Y-92600000D02*
X105350000Y-91800000D01*
X104150000Y-93800000D02*
X104550000Y-93400000D01*
X105350000Y-86800000D02*
X104950000Y-86400000D01*
X164750000Y-112400000D02*
X156350000Y-112400000D01*
X121150000Y-111200000D02*
X117950000Y-108000000D01*
X104550000Y-93400000D02*
X104550000Y-92600000D01*
%TO.N,LED10*%
X127550000Y-114800000D02*
X111750000Y-114800000D01*
X111550000Y-114600000D02*
X111550000Y-114400000D01*
X158350000Y-115400000D02*
X157750000Y-116000000D01*
X206350000Y-87200000D02*
X206350000Y-88000000D01*
X103350000Y-93800000D02*
X102950000Y-93400000D01*
X102950000Y-89200000D02*
X100950000Y-87200000D01*
X203950000Y-107800000D02*
X201550000Y-107800000D01*
X198950000Y-110400000D02*
X198950000Y-111000000D01*
X130750000Y-115200000D02*
X130550000Y-115400000D01*
X208750000Y-84800000D02*
X206350000Y-87200000D01*
X209150000Y-82600000D02*
X208750000Y-83000000D01*
X157750000Y-116000000D02*
X157550000Y-116000000D01*
X104950000Y-100800000D02*
X104950000Y-99400000D01*
X206350000Y-99200000D02*
X206150000Y-99400000D01*
X201550000Y-107800000D02*
X198950000Y-110400000D01*
X103350000Y-97800000D02*
X103350000Y-93800000D01*
X206150000Y-88200000D02*
X206150000Y-98600000D01*
X100950000Y-87200000D02*
X100950000Y-85600000D01*
X206150000Y-98600000D02*
X206350000Y-98800000D01*
X128150000Y-115400000D02*
X127550000Y-114800000D01*
X206350000Y-88000000D02*
X206150000Y-88200000D01*
X204350000Y-103800000D02*
X204350000Y-107400000D01*
X157350000Y-116200000D02*
X138350000Y-116200000D01*
X206350000Y-98800000D02*
X206350000Y-99200000D01*
X131750000Y-115200000D02*
X130750000Y-115200000D01*
X111350000Y-114200000D02*
X111350000Y-108000000D01*
X111150000Y-107800000D02*
X111150000Y-107000000D01*
X206150000Y-102000000D02*
X204350000Y-103800000D01*
X204350000Y-107400000D02*
X203950000Y-107800000D01*
X104950000Y-99400000D02*
X103350000Y-97800000D01*
X208750000Y-83000000D02*
X208750000Y-84800000D01*
X137350000Y-115200000D02*
X134750000Y-115200000D01*
X111550000Y-114400000D02*
X111350000Y-114200000D01*
X111350000Y-108000000D02*
X111150000Y-107800000D01*
X138350000Y-116200000D02*
X137350000Y-115200000D01*
X157550000Y-116000000D02*
X157350000Y-116200000D01*
X111750000Y-114800000D02*
X111550000Y-114600000D01*
X111150000Y-107000000D02*
X104950000Y-100800000D01*
X167750000Y-115400000D02*
X158350000Y-115400000D01*
X206150000Y-99400000D02*
X206150000Y-102000000D01*
X102950000Y-93400000D02*
X102950000Y-89200000D01*
X130550000Y-115400000D02*
X128150000Y-115400000D01*
%TO.N,SR_CHAIN2*%
X104550000Y-91400000D02*
X104550000Y-89600000D01*
X117750000Y-87600000D02*
X117550000Y-87800000D01*
X117550000Y-87800000D02*
X117550000Y-90600000D01*
X122350000Y-79000000D02*
X121750000Y-79600000D01*
X117750000Y-87200000D02*
X117750000Y-87600000D01*
X104550000Y-89600000D02*
X101750000Y-86800000D01*
X117950000Y-87000000D02*
X117750000Y-87200000D01*
X101750000Y-86800000D02*
X101750000Y-84400000D01*
X117950000Y-84600000D02*
X117950000Y-87000000D01*
X121750000Y-80800000D02*
X117950000Y-84600000D01*
X121750000Y-79600000D02*
X121750000Y-80800000D01*
%TO.N,LED3*%
X105750000Y-80800000D02*
X106150000Y-81200000D01*
X99350000Y-80800000D02*
X105750000Y-80800000D01*
X93550000Y-83200000D02*
X94550000Y-82200000D01*
X90550000Y-83200000D02*
X93550000Y-83200000D01*
X97950000Y-82200000D02*
X99350000Y-80800000D01*
X94550000Y-82200000D02*
X97950000Y-82200000D01*
%TO.N,MUX_EN2*%
X64750000Y-67000000D02*
X58150000Y-73600000D01*
X58150000Y-76600000D02*
X56950000Y-77800000D01*
X56950000Y-77800000D02*
X56950000Y-78600000D01*
X58150000Y-73600000D02*
X58150000Y-76600000D01*
%TO.N,MUX_S2_SR*%
X115750000Y-42200000D02*
X114750000Y-42200000D01*
X114750000Y-42200000D02*
X114550000Y-42400000D01*
X114550000Y-42400000D02*
X114350000Y-42400000D01*
X116350000Y-41600000D02*
X115750000Y-42200000D01*
X114350000Y-42400000D02*
X113950000Y-42800000D01*
%TO.N,MUX_EN0_SR*%
X81150000Y-41000000D02*
X91350000Y-41000000D01*
X79550000Y-39400000D02*
X81150000Y-41000000D01*
X91350000Y-41000000D02*
X92750000Y-42400000D01*
X92750000Y-42400000D02*
X100550000Y-42400000D01*
%TO.N,MUX_EN1_SR*%
X81950000Y-44200000D02*
X89550000Y-44200000D01*
X89750000Y-44400000D02*
X92950000Y-44400000D01*
X98150000Y-45600000D02*
X99750000Y-47200000D01*
X89550000Y-44200000D02*
X89750000Y-44400000D01*
X94150000Y-45600000D02*
X98150000Y-45600000D01*
X92950000Y-44400000D02*
X94150000Y-45600000D01*
X81750000Y-44000000D02*
X81950000Y-44200000D01*
X71950000Y-44000000D02*
X81750000Y-44000000D01*
%TO.N,MUX_EN2_SR*%
X77550000Y-59400000D02*
X77350000Y-59200000D01*
X78750000Y-57800000D02*
X78750000Y-57600000D01*
X103950000Y-48400000D02*
X103950000Y-46800000D01*
X73350000Y-62400000D02*
X73750000Y-62000000D01*
X74150000Y-62000000D02*
X75350000Y-60800000D01*
X104150000Y-46600000D02*
X104150000Y-46200000D01*
X77550000Y-59600000D02*
X77550000Y-59400000D01*
X76350000Y-60800000D02*
X77550000Y-59600000D01*
X72750000Y-62400000D02*
X73350000Y-62400000D01*
X82950000Y-54800000D02*
X85950000Y-51800000D01*
X85950000Y-51800000D02*
X86350000Y-51800000D01*
X99950000Y-48600000D02*
X100750000Y-47800000D01*
X73750000Y-62000000D02*
X74150000Y-62000000D01*
X100750000Y-47800000D02*
X100750000Y-47000000D01*
X103950000Y-46800000D02*
X104150000Y-46600000D01*
X70950000Y-64200000D02*
X72750000Y-62400000D01*
X77350000Y-59200000D02*
X78750000Y-57800000D01*
X81550000Y-54800000D02*
X82950000Y-54800000D01*
X75350000Y-60800000D02*
X76350000Y-60800000D01*
X78750000Y-57600000D02*
X81550000Y-54800000D01*
%TO.N,SR_CHAIN1*%
X81350000Y-73600000D02*
X81750000Y-73600000D01*
X85150000Y-71000000D02*
X85150000Y-69600000D01*
X82950000Y-72600000D02*
X83350000Y-72600000D01*
X83950000Y-72000000D02*
X84350000Y-72000000D01*
X85150000Y-69600000D02*
X84550000Y-69000000D01*
X98550000Y-56600000D02*
X98550000Y-47400000D01*
X84550000Y-69000000D02*
X84550000Y-68800000D01*
X80750000Y-73000000D02*
X81350000Y-73600000D01*
X84350000Y-71800000D02*
X85150000Y-71000000D01*
X83350000Y-72600000D02*
X83950000Y-72000000D01*
X81750000Y-73600000D02*
X81950000Y-73400000D01*
X80550000Y-72400000D02*
X80750000Y-72600000D01*
X82150000Y-73400000D02*
X82950000Y-72600000D01*
X81950000Y-73400000D02*
X82150000Y-73400000D01*
X97350000Y-57800000D02*
X98550000Y-56600000D01*
X84550000Y-68800000D02*
X84350000Y-68600000D01*
X84350000Y-68600000D02*
X84350000Y-68400000D01*
X84350000Y-72000000D02*
X84350000Y-71800000D01*
X80750000Y-72600000D02*
X80750000Y-73000000D01*
%TO.N,MUX_S0_SR*%
X109550000Y-40800000D02*
X108350000Y-40800000D01*
X117950000Y-45200000D02*
X116750000Y-44000000D01*
X112150000Y-41800000D02*
X111950000Y-42000000D01*
X113550000Y-41800000D02*
X112150000Y-41800000D01*
X110550000Y-41600000D02*
X110350000Y-41600000D01*
X118150000Y-45200000D02*
X117950000Y-45200000D01*
X111950000Y-42000000D02*
X111750000Y-41800000D01*
X110950000Y-42000000D02*
X110550000Y-41600000D01*
X111550000Y-42000000D02*
X110950000Y-42000000D01*
X113750000Y-41600000D02*
X113550000Y-41800000D01*
X114550000Y-41400000D02*
X114350000Y-41400000D01*
X111750000Y-41800000D02*
X111550000Y-42000000D01*
X114350000Y-41400000D02*
X114150000Y-41600000D01*
X114150000Y-41600000D02*
X113750000Y-41600000D01*
X110350000Y-41600000D02*
X109550000Y-40800000D01*
%TO.N,MUX_EN9_SR*%
X82750000Y-65599999D02*
X81950000Y-65599999D01*
X96350000Y-61400000D02*
X94750000Y-63000000D01*
X84950000Y-63400000D02*
X82750000Y-65599999D01*
X89150000Y-63400000D02*
X88950000Y-63400000D01*
X105550000Y-59800000D02*
X104550000Y-58800000D01*
X88750000Y-63600000D02*
X86150000Y-63600000D01*
X85950000Y-63400000D02*
X84950000Y-63400000D01*
X94750000Y-63000000D02*
X89550000Y-63000000D01*
X89550000Y-63000000D02*
X89150000Y-63400000D01*
X88950000Y-63400000D02*
X88750000Y-63600000D01*
X86150000Y-63600000D02*
X85950000Y-63400000D01*
X104550000Y-58800000D02*
X104550000Y-57800000D01*
%TO.N,MUX_EN9*%
X172550000Y-63800000D02*
X175950000Y-63800000D01*
%TO.N,SR_SPARE1*%
X119950000Y-60400000D02*
X120350000Y-60400000D01*
X120350000Y-60400000D02*
X120550000Y-60200000D01*
X121950000Y-60200000D02*
X122150000Y-60000000D01*
X120550000Y-60200000D02*
X121950000Y-60200000D01*
X122150000Y-58800000D02*
X122350000Y-58600000D01*
X122150000Y-60000000D02*
X122150000Y-58800000D01*
%TO.N,SR_SPARE6*%
X85950000Y-57200000D02*
X85750000Y-57200000D01*
X209150000Y-104800000D02*
X220150000Y-104800000D01*
X185950000Y-69800000D02*
X185950000Y-68000000D01*
X138750000Y-62800000D02*
X132750000Y-62800000D01*
X127350000Y-61600000D02*
X127150000Y-61400000D01*
X78350000Y-37000000D02*
X77150000Y-38200000D01*
X5550000Y-71800000D02*
X4350000Y-73000000D01*
X127150000Y-102400000D02*
X128750000Y-104000000D01*
X6950000Y-66800000D02*
X5750000Y-68000000D01*
X86150000Y-38600000D02*
X80350000Y-38600000D01*
X138950000Y-62600000D02*
X138750000Y-62800000D01*
X132350000Y-62400000D02*
X129750000Y-62400000D01*
X85150000Y-55400000D02*
X84350000Y-54600000D01*
X128350000Y-61600000D02*
X127350000Y-61600000D01*
X82550000Y-104600000D02*
X107550000Y-104600000D01*
X22750000Y-53400000D02*
X15950000Y-60200000D01*
X213350000Y-84000000D02*
X211950000Y-82600000D01*
X132750000Y-62800000D02*
X132350000Y-62400000D01*
X124550000Y-102400000D02*
X127150000Y-102400000D01*
X238550000Y-88200000D02*
X238150000Y-87800000D01*
X10550000Y-111400000D02*
X18350000Y-111400000D01*
X5550000Y-100000000D02*
X10150000Y-104600000D01*
X15950000Y-60200000D02*
X13150000Y-60200000D01*
X86550000Y-48000000D02*
X86550000Y-45000000D01*
X13150000Y-60200000D02*
X6950000Y-66400000D01*
X124150000Y-102600000D02*
X124350000Y-102600000D01*
X4350000Y-96800000D02*
X5550000Y-98000000D01*
X5750000Y-68000000D02*
X5750000Y-68200000D01*
X21950000Y-114200000D02*
X23750000Y-116000000D01*
X149150000Y-103000000D02*
X151150000Y-105000000D01*
X86950000Y-40200000D02*
X86350000Y-39600000D01*
X222550000Y-101800000D02*
X222550000Y-96800000D01*
X61350000Y-36000000D02*
X58950000Y-33600000D01*
X155550000Y-104800000D02*
X158950000Y-104800000D01*
X129550000Y-104000000D02*
X130550000Y-103000000D01*
X224150000Y-95600000D02*
X226350000Y-93400000D01*
X129350000Y-62600000D02*
X128350000Y-61600000D01*
X146350000Y-66400000D02*
X141950000Y-62000000D01*
X10150000Y-104600000D02*
X10150000Y-111000000D01*
X86350000Y-48200000D02*
X86550000Y-48000000D01*
X223750000Y-95600000D02*
X224150000Y-95600000D01*
X6950000Y-66400000D02*
X6950000Y-66800000D01*
X86350000Y-38800000D02*
X86150000Y-38600000D01*
X87950000Y-40200000D02*
X86950000Y-40200000D01*
X238750000Y-89800000D02*
X238550000Y-89600000D01*
X4350000Y-73000000D02*
X4350000Y-96800000D01*
X5750000Y-68200000D02*
X5550000Y-68400000D01*
X187350000Y-71200000D02*
X185950000Y-69800000D01*
X129550000Y-62600000D02*
X129350000Y-62600000D01*
X220150000Y-104800000D02*
X220950000Y-104000000D01*
X82350000Y-104800000D02*
X82550000Y-104600000D01*
X5550000Y-98000000D02*
X5550000Y-100000000D01*
X222550000Y-96800000D02*
X223750000Y-95600000D01*
X130550000Y-103000000D02*
X143950000Y-103000000D01*
X5550000Y-68400000D02*
X5550000Y-71800000D01*
X22750000Y-46600000D02*
X22750000Y-53400000D01*
X21150000Y-114200000D02*
X21950000Y-114200000D01*
X155150000Y-105200000D02*
X155550000Y-104800000D01*
X86350000Y-39600000D02*
X86350000Y-38800000D01*
X129750000Y-62400000D02*
X129550000Y-62600000D01*
X81950000Y-104800000D02*
X82350000Y-104800000D01*
X138950000Y-60000000D02*
X138950000Y-62600000D01*
X18350000Y-111400000D02*
X21150000Y-114200000D01*
X124350000Y-102600000D02*
X124550000Y-102400000D01*
X128750000Y-104000000D02*
X129550000Y-104000000D01*
X237150000Y-84000000D02*
X213350000Y-84000000D01*
X10150000Y-111000000D02*
X10550000Y-111400000D01*
X85150000Y-56600000D02*
X85150000Y-55400000D01*
X23750000Y-116000000D02*
X54550000Y-116000000D01*
X85750000Y-57200000D02*
X85150000Y-56600000D01*
X42550000Y-37800000D02*
X39750000Y-37800000D01*
X238550000Y-89600000D02*
X238550000Y-88200000D01*
%TO.N,SR_SPARE7*%
X122750000Y-50600000D02*
X123950000Y-49400000D01*
%TO.N,MUX_EN8*%
X139550000Y-38800000D02*
X139750000Y-38600000D01*
X146750000Y-32400000D02*
X146950000Y-32200000D01*
X139950000Y-38600000D02*
X146150000Y-32400000D01*
X135550000Y-42400000D02*
X135750000Y-42400000D01*
X139350000Y-38800000D02*
X139550000Y-38800000D01*
X135150000Y-42800000D02*
X135550000Y-42400000D01*
X146150000Y-32400000D02*
X146750000Y-32400000D01*
X135750000Y-42400000D02*
X139350000Y-38800000D01*
X139750000Y-38600000D02*
X139950000Y-38600000D01*
%TO.N,-12V_IN*%
D24*
X27550000Y-112600000D02*
X27550000Y-108400000D01*
X25750000Y-103800000D02*
X25750000Y-101200000D01*
X25700000Y-101210000D02*
X25750000Y-101200000D01*
X28150000Y-107800000D02*
X28150000Y-107200000D01*
X26150000Y-105200000D02*
X26150000Y-104200000D01*
X27550000Y-108400000D02*
X28150000Y-107800000D01*
X28150000Y-107200000D02*
X26150000Y-105200000D01*
X25700000Y-103750000D02*
X25750000Y-103800000D01*
X26150000Y-104200000D02*
X25750000Y-103800000D01*
%TO.N,MUX_EN8_SR*%
D23*
X83950000Y-66599999D02*
X83750000Y-66800000D01*
X124350000Y-46400000D02*
X124150000Y-46400000D01*
X85550000Y-64400000D02*
X84550000Y-65400000D01*
X80750000Y-67200000D02*
X80550000Y-67000000D01*
X82750000Y-67000000D02*
X82550000Y-67200000D01*
X84550000Y-66400000D02*
X84350000Y-66599999D01*
X83750000Y-66800000D02*
X83350000Y-66800000D01*
X120750000Y-49800000D02*
X119750000Y-49800000D01*
X84350000Y-66599999D02*
X83950000Y-66599999D01*
X124150000Y-46400000D02*
X120750000Y-49800000D01*
X82550000Y-67200000D02*
X80750000Y-67200000D01*
X83150000Y-67000000D02*
X82750000Y-67000000D01*
X83350000Y-66800000D02*
X83150000Y-67000000D01*
X84550000Y-65400000D02*
X84550000Y-66400000D01*
%TO.N,LED1*%
X66150000Y-37800000D02*
X66150000Y-39600000D01*
X74150000Y-44800000D02*
X75550000Y-46200000D01*
X58750000Y-25600000D02*
X61950000Y-28800000D01*
X57350000Y-24400000D02*
X58550000Y-25600000D01*
X58550000Y-25600000D02*
X58750000Y-25600000D01*
X75550000Y-46200000D02*
X75550000Y-46600000D01*
X61950000Y-28800000D02*
X61950000Y-33600000D01*
X66150000Y-39600000D02*
X68950000Y-42400000D01*
X76950000Y-48000000D02*
X76950000Y-49200000D01*
X55950000Y-23200000D02*
X57150000Y-24400000D01*
X61950000Y-33600000D02*
X66150000Y-37800000D01*
X57150000Y-24400000D02*
X57350000Y-24400000D01*
X76950000Y-49200000D02*
X81750000Y-54000000D01*
X75550000Y-46600000D02*
X76950000Y-48000000D01*
%TO.N,MUX_EN5_SR*%
X166350000Y-78200000D02*
X165150000Y-77000000D01*
X169950000Y-78200000D02*
X166350000Y-78200000D01*
%TO.N,MUX_EN1*%
X45350000Y-44400000D02*
X40550000Y-44400000D01*
X45750000Y-44800000D02*
X45350000Y-44400000D01*
X40550000Y-44400000D02*
X39950000Y-45000000D01*
X72550000Y-44800000D02*
X47950000Y-44800000D01*
X46150000Y-44800000D02*
X45750000Y-44800000D01*
%TO.N,+12V_IN*%
D24*
X15540000Y-101210000D02*
X15550000Y-101200000D01*
X25750000Y-92600000D02*
X24950000Y-92600000D01*
X18550000Y-98200000D02*
X15550000Y-101200000D01*
X19550000Y-97600000D02*
X18950000Y-98200000D01*
X18950000Y-98200000D02*
X18550000Y-98200000D01*
X15540000Y-103750000D02*
X15550000Y-103800000D01*
X15550000Y-101200000D02*
X15550000Y-103800000D01*
X19950000Y-97600000D02*
X19550000Y-97600000D01*
X24950000Y-92600000D02*
X19950000Y-97600000D01*
%TD*%
M02*
