M48
; DRILL file KiCad 10.0.5 date 2000-01-01T00:00:00+00:00
; FORMAT={-:-/ absolute / metric / decimal}
; #@! TF.CreationDate,2000-01-01T00:00:00+00:00
; #@! TF.GenerationSoftware,Kicad,Pcbnew,10.0.5
; #@! TF.FileFunction,Plated,1,4,PTH
FMAT,2
METRIC
; #@! TA.AperFunction,Plated,PTH,ViaDrill
T1C0.300
; #@! TA.AperFunction,Plated,PTH,ComponentDrill
T2C0.700
; #@! TA.AperFunction,Plated,PTH,ComponentDrill
T3C0.900
; #@! TA.AperFunction,Plated,PTH,ComponentDrill
T4C1.000
; #@! TA.AperFunction,Plated,PTH,ComponentDrill
T5C1.016
; #@! TA.AperFunction,Plated,PTH,ComponentDrill
T6C1.100
; #@! TA.AperFunction,Plated,PTH,ComponentDrill
T7C1.220
; #@! TA.AperFunction,Plated,PTH,ComponentDrill
T8C1.420
; #@! TA.AperFunction,Plated,PTH,ComponentDrill
T9C1.430
%
G90
G05
T1
X5.62Y-91.01
X10.95Y-103.4
X12.95Y-100.6
X15.95Y-106.4
X16.37Y-89.205
X16.55Y-72.6
X18.95Y-96.0
X21.57Y-109.98
X22.75Y-46.6
X23.42Y-97.13
X24.15Y-115.2
X25.07Y-109.48
X25.55Y-91.6
X25.75Y-49.8
X25.75Y-92.6
X25.87Y-98.18
X25.895Y-108.48
X26.35Y-46.8
X26.35Y-110.4
X27.12Y-107.53
X27.15Y-45.0
X27.55Y-112.6
X32.75Y-24.2
X35.855Y-83.412
X36.15Y-80.4
X36.75Y-44.0
X37.825Y-21.387
X37.825Y-44.075
X37.825Y-46.615
X37.825Y-47.885
X37.825Y-50.425
X38.125Y-84.412
X38.15Y-78.4
X38.75Y-22.6
X38.825Y-19.117
X38.825Y-41.805
X38.825Y-52.695
X39.35Y-78.4
X39.55Y-27.8
X39.75Y-37.8
X39.95Y-25.4
X39.95Y-45.0
X40.15Y-74.0
X40.35Y-83.4
X40.55Y-24.4
X40.55Y-26.2
X40.55Y-60.4
X40.75Y-40.8
X40.95Y-78.6
X41.15Y-48.6
X41.35Y-21.2
X41.55Y-54.8
X41.7Y-53.295
X41.95Y-47.2
X42.0Y-30.607
X42.15Y-46.2
X42.15Y-82.8
X42.35Y-43.6
X42.55Y-36.8
X42.55Y-37.8
X42.55Y-40.6
X42.75Y-39.6
X43.15Y-31.8
X43.55Y-21.6
X43.75Y-20.2
X43.75Y-22.8
X43.75Y-42.8
X43.75Y-45.6
X43.75Y-76.8
X43.75Y-80.8
X44.15Y-86.0
X44.25Y-54.295
X44.775Y-29.008
X44.775Y-51.695
X45.55Y-25.8
X45.55Y-30.607
X45.55Y-83.4
X45.745Y-77.462
X45.75Y-23.8
X45.75Y-42.0
X46.15Y-44.8
X47.345Y-80.737
X47.95Y-44.8
X50.15Y-83.6
X50.345Y-80.438
X51.55Y-85.8
X51.75Y-84.8
X54.55Y-116.0
X55.95Y-23.2
X56.95Y-78.6
X58.35Y-26.6
X58.95Y-33.6
X61.35Y-36.0
X61.75Y-84.0
X63.55Y-19.0
X64.75Y-31.0
X64.75Y-67.0
X64.75Y-74.6
X65.15Y-69.4
X66.15Y-29.6
X66.15Y-58.6
X66.15Y-71.8
X67.95Y-40.2
X68.95Y-42.4
X70.95Y-64.2
X71.95Y-44.0
X71.985Y-64.81
X72.55Y-44.8
X73.255Y-60.36
X73.55Y-42.4
X74.15Y-44.8
X74.525Y-64.81
X75.795Y-64.81
X76.55Y-25.6
X76.55Y-45.0
X76.75Y-21.6
X76.938Y-69.981
X77.065Y-64.81
X77.15Y-38.2
X77.15Y-45.8
X77.55Y-42.4
X77.55Y-66.6
X77.75Y-71.8
X78.15Y-60.6
X78.335Y-64.81
X78.35Y-37.0
X78.75Y-49.8
X79.15Y-61.4
X79.15Y-79.8
X79.55Y-24.4
X79.55Y-39.4
X79.55Y-50.6
X79.605Y-57.86
X79.75Y-63.2
X79.95Y-68.8
X79.95Y-77.0
X80.35Y-38.6
X80.55Y-67.0
X80.55Y-72.4
X80.75Y-60.4
X80.75Y-74.8
X80.75Y-78.2
X80.75Y-96.4
X80.95Y-65.0
X81.35Y-22.6
X81.55Y-61.2
X81.598Y-72.706
X81.75Y-54.0
X81.95Y-65.6
X81.95Y-104.8
X82.475Y-57.085
X82.55Y-22.8
X82.55Y-70.6
X82.75Y-62.8
X83.55Y-75.2
X84.15Y-79.8
X84.35Y-54.6
X84.35Y-62.8
X84.35Y-68.4
X84.35Y-72.8
X84.75Y-61.0
X84.95Y-34.6
X85.35Y-25.0
X85.55Y-26.0
X85.55Y-64.4
X85.95Y-37.4
X85.95Y-57.2
X85.95Y-83.0
X86.35Y-48.2
X86.35Y-51.8
X86.55Y-45.0
X86.678Y-65.756
X86.75Y-82.4
X86.95Y-27.2
X87.55Y-64.4
X87.75Y-24.4
X87.95Y-40.2
X88.35Y-62.8
X90.55Y-42.4
X90.55Y-83.2
X90.95Y-81.2
X93.35Y-116.0
X93.75Y-44.0
X94.55Y-60.4
X94.55Y-84.6
X94.95Y-83.0
X95.15Y-40.2
X96.35Y-61.4
X96.35Y-62.8
X96.95Y-41.6
X96.95Y-64.4
X97.35Y-25.6
X97.35Y-29.0
X97.35Y-31.4
X97.35Y-57.8
X97.35Y-70.4
X97.35Y-78.2
X97.35Y-89.8
X97.75Y-49.6
X97.75Y-51.2
X97.95Y-27.0
X97.95Y-61.2
X98.35Y-40.6
X98.35Y-80.4
X98.55Y-47.4
X98.75Y-38.6
X99.15Y-30.4
X99.35Y-27.0
X99.35Y-86.0
X99.479Y-44.44
X99.55Y-45.6
X99.55Y-52.0
X99.75Y-47.2
X99.75Y-81.6
X99.95Y-34.8
X99.95Y-48.6
X99.95Y-61.58
X100.05Y-21.366
X100.15Y-76.6
X100.55Y-42.4
X100.55Y-53.4
X100.725Y-63.18
X100.75Y-47.0
X100.75Y-50.6
X100.75Y-66.8
X100.825Y-22.966
X100.95Y-51.6
X100.95Y-78.2
X100.95Y-79.6
X100.95Y-85.6
X101.35Y-98.2
X101.55Y-39.0
X101.75Y-30.6
X101.75Y-31.8
X101.75Y-49.2
X101.75Y-70.8
X101.75Y-72.0
X101.75Y-73.6
X101.75Y-84.4
X102.15Y-51.8
X102.15Y-54.4
X102.35Y-68.0
X102.75Y-77.4
X102.825Y-83.09
X102.95Y-40.4
X102.95Y-64.6
X102.95Y-76.0
X102.95Y-81.6
X103.5Y-61.58
X103.55Y-50.4
X103.55Y-79.0
X103.6Y-21.366
X103.75Y-66.8
X103.95Y-48.4
X104.15Y-35.4
X104.15Y-46.2
X104.35Y-64.4
X104.55Y-16.2
X104.55Y-28.0
X104.55Y-39.8
X104.55Y-57.8
X104.55Y-62.0
X104.55Y-91.4
X104.55Y-106.4
X104.95Y-86.4
X105.15Y-80.0
X105.35Y-78.4
X105.55Y-59.8
X105.559Y-38.49
X105.675Y-66.99
X105.75Y-46.8
X105.775Y-26.776
X105.775Y-30.586
X105.775Y-31.856
X105.95Y-63.4
X105.95Y-86.2
X106.15Y-17.0
X106.15Y-81.2
X106.35Y-77.4
X106.35Y-83.0
X106.55Y-69.6
X106.675Y-70.57
X106.675Y-71.8
X106.75Y-16.2
X107.15Y-40.8
X107.55Y-85.6
X107.55Y-104.6
X108.35Y-40.8
X108.905Y-80.64
X109.15Y-83.0
X109.35Y-65.0
X110.75Y-43.4
X111.55Y-24.4
X112.719Y-40.215
X112.75Y-80.6
X112.95Y-44.2
X113.15Y-61.0
X113.95Y-42.8
X114.55Y-41.4
X115.15Y-61.8
X116.35Y-41.6
X116.35Y-116.0
X116.55Y-14.6
X116.75Y-44.0
X116.95Y-67.6
X117.315Y-77.365
X117.55Y-78.4
X117.55Y-90.6
X117.55Y-98.8
X118.15Y-45.2
X118.15Y-51.4
X118.35Y-72.6
X118.95Y-18.2
X118.95Y-42.4
X119.15Y-43.4
X119.15Y-71.0
X119.15Y-77.4
X119.55Y-17.2
X119.55Y-63.4
X119.75Y-49.8
X119.75Y-51.2
X119.95Y-52.8
X119.95Y-60.4
X120.15Y-34.4
X120.35Y-16.2
X120.55Y-65.4
X120.685Y-61.677
X120.75Y-23.0
X120.95Y-26.2
X120.95Y-31.6
X120.95Y-36.6
X120.95Y-53.2
X121.15Y-111.2
X121.35Y-48.0
X121.35Y-76.0
X121.55Y-15.0
X121.95Y-26.0
X122.35Y-58.6
X122.35Y-70.8
X122.35Y-79.0
X122.55Y-37.2
X122.75Y-21.2
X122.75Y-22.8
X122.75Y-27.6
X122.75Y-50.6
X122.95Y-32.4
X122.95Y-79.8
X122.95Y-111.8
X123.15Y-61.4
X123.15Y-90.0
X123.55Y-81.6
X123.75Y-19.4
X123.75Y-72.2
X123.95Y-28.8
X123.95Y-38.8
X123.95Y-49.4
X124.15Y-102.6
X124.35Y-46.4
X124.75Y-45.4
X124.95Y-101.6
X124.95Y-103.2
X125.15Y-61.8
X125.75Y-85.0
X126.095Y-64.452
X126.35Y-107.4
X126.95Y-65.0
X127.15Y-61.4
X127.95Y-44.8
X128.95Y-64.4
X128.95Y-83.0
X129.15Y-103.2
X129.35Y-42.4
X131.175Y-60.502
X131.55Y-100.8
X131.75Y-115.2
X132.15Y-60.4
X132.35Y-40.2
X133.75Y-24.2
X134.13Y-27.475
X134.75Y-115.2
X134.95Y-12.2
X134.95Y-18.6
X134.95Y-88.4
X135.15Y-42.8
X135.55Y-17.8
X135.95Y-92.8
X136.15Y-57.0
X136.35Y-40.0
X136.35Y-67.6
X136.35Y-96.6
X136.75Y-87.8
X137.15Y-42.6
X137.15Y-74.0
X137.35Y-90.4
X137.55Y-72.0
X137.75Y-64.2
X137.95Y-15.6
X137.95Y-38.8
X138.15Y-50.8
X138.15Y-112.8
X138.55Y-79.6
X138.75Y-14.6
X138.75Y-75.2
X138.905Y-20.96
X138.95Y-60.0
X138.95Y-87.6
X140.35Y-40.8
X140.35Y-78.0
X140.35Y-79.6
X140.75Y-15.2
X140.75Y-61.8
X141.35Y-34.0
X141.35Y-36.0
X141.55Y-87.0
X141.95Y-62.0
X142.15Y-37.6
X142.15Y-72.0
X142.35Y-19.8
X142.75Y-21.6
X143.35Y-36.6
X143.55Y-38.0
X143.95Y-90.8
X143.95Y-103.0
X144.75Y-40.8
X144.95Y-32.2
X144.95Y-79.6
X144.95Y-105.8
X145.55Y-71.2
X146.15Y-70.4
X146.35Y-66.4
X146.35Y-113.6
X146.55Y-39.8
X146.95Y-32.2
X146.95Y-100.0
X147.35Y-110.8
X147.75Y-80.8
X147.95Y-41.2
X149.15Y-103.0
X149.55Y-40.2
X149.579Y-108.975
X150.904Y-114.575
X150.95Y-84.6
X150.95Y-107.8
X151.15Y-105.0
X152.55Y-25.2
X152.629Y-107.975
X153.55Y-41.0
X153.75Y-102.6
X153.804Y-113.575
X153.95Y-24.2
X154.35Y-104.6
X155.15Y-83.6
X155.15Y-105.2
X155.75Y-103.2
X156.15Y-24.6
X156.15Y-80.6
X156.95Y-60.6
X157.15Y-43.4
X157.35Y-22.2
X157.95Y-62.4
X157.95Y-71.2
X157.95Y-90.8
X157.95Y-92.4
X158.15Y-109.4
X158.15Y-111.6
X158.55Y-22.2
X158.55Y-44.6
X158.55Y-83.4
X158.55Y-85.4
X158.95Y-88.6
X158.95Y-104.8
X159.35Y-26.0
X159.35Y-33.4
X159.35Y-53.6
X159.35Y-57.2
X159.55Y-78.8
X159.75Y-81.0
X159.95Y-99.4
X160.35Y-94.4
X160.55Y-22.2
X160.55Y-32.0
X160.75Y-87.2
X160.95Y-19.8
X160.95Y-71.2
X161.15Y-95.0
X161.35Y-32.6
X161.35Y-79.8
X161.55Y-18.0
X161.75Y-75.8
X161.95Y-78.0
X162.15Y-77.0
X162.35Y-80.0
X163.55Y-53.2
X163.55Y-92.6
X164.35Y-54.8
X164.35Y-99.8
X164.55Y-65.0
X164.75Y-112.4
X165.15Y-77.0
X165.15Y-79.0
X166.15Y-57.6
X166.55Y-114.2
X166.75Y-77.4
X167.15Y-56.4
X167.35Y-21.4
X167.75Y-115.4
X167.95Y-58.4
X168.55Y-42.6
X169.15Y-40.2
X169.445Y-20.96
X169.9Y-50.0
X169.9Y-58.0
X169.92Y-29.225
X169.95Y-19.4
X169.95Y-59.6
X169.95Y-72.6
X169.95Y-78.2
X170.95Y-114.6
X172.55Y-63.8
X172.68Y-64.866
X173.95Y-64.866
X174.95Y-85.8
X175.55Y-45.2
X175.95Y-63.8
X176.55Y-44.4
X176.95Y-42.2
X176.95Y-61.4
X177.35Y-40.2
X177.35Y-64.8
X177.75Y-62.4
X178.15Y-84.2
X178.35Y-43.4
X178.55Y-60.4
X178.95Y-65.0
X179.95Y-45.0
X179.95Y-64.8
X180.696Y-21.859
X180.696Y-23.129
X180.95Y-17.8
X180.95Y-31.6
X180.95Y-81.0
X181.15Y-47.2
X181.35Y-67.4
X181.35Y-112.0
X181.55Y-37.0
X181.55Y-39.4
X181.55Y-90.6
X181.55Y-92.6
X181.696Y-27.939
X181.95Y-26.6
X181.95Y-45.0
X181.95Y-84.4
X182.35Y-23.6
X182.35Y-55.0
X182.57Y-58.916
X182.75Y-42.0
X182.75Y-62.6
X183.071Y-33.349
X183.15Y-37.0
X183.35Y-45.0
X183.75Y-22.2
X183.95Y-75.8
X184.17Y-58.141
X184.17Y-61.691
X184.55Y-51.4
X184.75Y-36.4
X184.95Y-56.2
X185.15Y-43.8
X185.55Y-22.8
X185.55Y-24.2
X185.55Y-25.4
X185.621Y-34.349
X185.646Y-32.749
X185.95Y-68.0
X186.95Y-92.6
X187.35Y-65.0
X187.35Y-71.2
X187.35Y-79.8
X187.35Y-82.6
X189.15Y-81.0
X190.95Y-81.8
X196.35Y-84.6
X198.15Y-111.8
X198.35Y-91.4
X198.95Y-111.0
X199.55Y-105.6
X202.55Y-41.8
X204.55Y-101.2
X205.15Y-91.6
X206.95Y-102.4
X208.15Y-47.4
X209.15Y-82.6
X209.15Y-102.2
X209.15Y-104.8
X211.95Y-82.6
X216.55Y-60.4
X217.95Y-65.4
X218.55Y-92.2
X218.55Y-100.4
X220.95Y-104.0
X221.55Y-102.0
X222.55Y-101.8
X222.95Y-42.6
X223.15Y-45.2
X223.75Y-37.8
X223.75Y-43.4
X224.15Y-96.4
X224.95Y-40.8
X225.23Y-43.038
X225.55Y-39.8
X225.95Y-51.0
X226.35Y-93.4
X226.55Y-57.4
X227.35Y-59.4
X227.5Y-44.038
X227.55Y-38.0
X228.75Y-43.0
X229.55Y-45.0
X230.15Y-44.0
X232.35Y-25.4
X232.55Y-40.6
X233.15Y-44.6
X233.15Y-85.8
X235.12Y-40.087
X235.15Y-60.4
X235.55Y-63.4
X236.15Y-64.2
X236.72Y-40.362
X237.15Y-62.6
X237.15Y-84.0
X238.15Y-27.4
X238.15Y-61.4
X238.15Y-87.8
X238.72Y-37.312
X238.75Y-89.8
X239.55Y-63.4
X240.15Y-45.8
X240.95Y-78.4
X241.15Y-59.6
X241.55Y-52.8
X242.15Y-65.8
X242.35Y-54.6
X242.35Y-59.6
X242.95Y-74.8
X245.95Y-58.8
X245.95Y-65.8
X246.35Y-54.0
X246.55Y-75.6
X247.15Y-80.2
X247.75Y-30.4
X247.95Y-51.4
X247.95Y-58.2
X247.95Y-77.2
X247.955Y-82.928
X249.107Y-64.87
X250.225Y-83.928
X251.55Y-83.0
X252.35Y-60.4
X252.55Y-62.0
X254.15Y-80.6
X255.15Y-82.2
X255.187Y-60.92
X256.55Y-64.8
X256.75Y-83.8
X257.55Y-60.4
X257.55Y-83.0
X257.75Y-64.8
X257.845Y-80.478
X258.95Y-57.6
X258.95Y-64.8
X259.445Y-80.053
X259.75Y-46.4
X260.445Y-77.503
X260.597Y-58.145
X263.55Y-85.8
X266.35Y-68.6
X268.15Y-98.0
X275.35Y-41.8
X275.73Y-42.741
X278.0Y-43.741
X279.15Y-31.2
X279.35Y-42.8
X280.55Y-34.2
X281.75Y-44.8
X285.62Y-36.791
X287.22Y-39.766
X288.22Y-37.216
T2
X11.5Y-110.05
X11.5Y-115.45
X14.0Y-110.05
X14.0Y-115.45
X16.5Y-110.05
X16.5Y-115.45
X109.5Y-11.8
X109.5Y-17.2
X112.0Y-11.8
X112.0Y-17.2
X114.5Y-11.8
X114.5Y-17.2
X148.554Y-111.675
X149.654Y-110.575
X150.754Y-111.675
X151.854Y-110.575
X152.956Y-111.675
X154.056Y-110.575
X155.156Y-111.675
X156.256Y-110.575
X190.3Y-11.8
X190.3Y-17.2
X192.8Y-11.8
X192.8Y-17.2
X195.3Y-11.8
X195.3Y-17.2
X288.3Y-110.05
X288.3Y-115.45
X290.8Y-110.05
X290.8Y-115.45
X293.3Y-110.05
X293.3Y-115.45
T3
X22.23Y-112.75
X24.77Y-112.75
X57.03Y-61.408
X58.3Y-19.888
X58.3Y-22.428
X59.57Y-61.408
X63.43Y-81.533
X65.97Y-81.533
X97.43Y-83.683
X99.97Y-83.683
X116.73Y-20.308
X119.27Y-20.308
X129.3Y-111.48
X129.3Y-114.02
X135.03Y-61.408
X137.57Y-61.408
X148.105Y-114.845
X156.705Y-114.845
X175.5Y-111.48
X175.5Y-114.02
X185.53Y-20.308
X188.07Y-20.308
X204.83Y-83.683
X207.37Y-83.683
X238.83Y-81.533
X241.37Y-81.533
X245.23Y-61.408
X246.5Y-19.888
X246.5Y-22.428
X247.77Y-61.408
X280.03Y-112.75
X282.57Y-112.75
T4
X8.5Y-22.0
X8.5Y-27.125
X8.5Y-47.25
X8.5Y-67.375
X8.5Y-87.5
X11.0Y-22.0
X11.0Y-27.125
X11.0Y-47.25
X11.0Y-67.375
X11.0Y-87.5
X13.5Y-22.0
X13.5Y-27.125
X13.5Y-47.25
X13.5Y-67.375
X13.5Y-87.5
X15.54Y-101.21
X15.54Y-103.75
X18.08Y-101.21
X18.08Y-103.75
X20.62Y-101.21
X20.62Y-103.75
X23.16Y-101.21
X23.16Y-103.75
X25.7Y-101.21
X25.7Y-103.75
X28.7Y-22.0
X28.7Y-27.125
X28.7Y-47.25
X28.7Y-67.375
X28.7Y-87.5
X31.2Y-22.0
X31.2Y-27.125
X31.2Y-47.25
X31.2Y-67.375
X31.2Y-87.5
X33.7Y-22.0
X33.7Y-27.125
X33.7Y-47.25
X33.7Y-67.375
X33.7Y-87.5
X48.9Y-22.0
X48.9Y-27.125
X48.9Y-47.25
X48.9Y-67.375
X48.9Y-87.5
X51.4Y-22.0
X51.4Y-27.125
X51.4Y-47.25
X51.4Y-67.375
X51.4Y-87.5
X53.9Y-22.0
X53.9Y-27.125
X53.9Y-47.25
X53.9Y-67.375
X53.9Y-87.5
X69.1Y-22.0
X69.1Y-27.125
X69.1Y-47.25
X69.1Y-67.375
X69.1Y-87.5
X71.6Y-22.0
X71.6Y-27.125
X71.6Y-47.25
X71.6Y-67.375
X71.6Y-87.5
X74.1Y-22.0
X74.1Y-27.125
X74.1Y-47.25
X74.1Y-67.375
X74.1Y-87.5
X89.3Y-22.0
X89.3Y-27.125
X89.3Y-47.25
X89.3Y-67.375
X89.3Y-87.5
X91.8Y-22.0
X91.8Y-27.125
X91.8Y-47.25
X91.8Y-67.375
X91.8Y-87.5
X94.3Y-22.0
X94.3Y-27.125
X94.3Y-47.25
X94.3Y-67.375
X94.3Y-87.5
X109.5Y-27.125
X109.5Y-47.25
X109.5Y-67.375
X109.5Y-87.5
X112.0Y-27.125
X112.0Y-47.25
X112.0Y-67.375
X112.0Y-87.5
X114.5Y-27.125
X114.5Y-47.25
X114.5Y-67.375
X114.5Y-87.5
X126.9Y-22.0
X126.9Y-27.125
X126.9Y-47.25
X126.9Y-67.375
X126.9Y-87.5
X129.4Y-22.0
X129.4Y-27.125
X129.4Y-47.25
X129.4Y-67.375
X129.4Y-87.5
X131.9Y-22.0
X131.9Y-27.125
X131.9Y-47.25
X131.9Y-67.375
X131.9Y-87.5
X149.9Y-22.0
X149.9Y-27.125
X149.9Y-47.25
X149.9Y-67.375
X149.9Y-87.5
X152.4Y-22.0
X152.4Y-27.125
X152.4Y-47.25
X152.4Y-67.375
X152.4Y-87.5
X154.9Y-22.0
X154.9Y-27.125
X154.9Y-47.25
X154.9Y-67.375
X154.9Y-87.5
X172.9Y-22.0
X172.9Y-27.125
X172.9Y-47.25
X172.9Y-67.375
X172.9Y-87.5
X175.4Y-22.0
X175.4Y-27.125
X175.4Y-47.25
X175.4Y-67.375
X175.4Y-87.5
X177.9Y-22.0
X177.9Y-27.125
X177.9Y-47.25
X177.9Y-67.375
X177.9Y-87.5
X190.3Y-27.125
X190.3Y-47.25
X190.3Y-67.375
X190.3Y-87.5
X192.8Y-27.125
X192.8Y-47.25
X192.8Y-67.375
X192.8Y-87.5
X195.3Y-27.125
X195.3Y-47.25
X195.3Y-67.375
X195.3Y-87.5
X210.5Y-22.0
X210.5Y-27.125
X210.5Y-47.25
X210.5Y-67.375
X210.5Y-87.5
X213.0Y-22.0
X213.0Y-27.125
X213.0Y-47.25
X213.0Y-67.375
X213.0Y-87.5
X215.5Y-22.0
X215.5Y-27.125
X215.5Y-47.25
X215.5Y-67.375
X215.5Y-87.5
X230.7Y-22.0
X230.7Y-27.125
X230.7Y-47.25
X230.7Y-67.375
X230.7Y-87.5
X233.2Y-22.0
X233.2Y-27.125
X233.2Y-47.25
X233.2Y-67.375
X233.2Y-87.5
X235.7Y-22.0
X235.7Y-27.125
X235.7Y-47.25
X235.7Y-67.375
X235.7Y-87.5
X250.9Y-22.0
X250.9Y-27.125
X250.9Y-47.25
X250.9Y-67.375
X250.9Y-87.5
X253.4Y-22.0
X253.4Y-27.125
X253.4Y-47.25
X253.4Y-67.375
X253.4Y-87.5
X255.9Y-22.0
X255.9Y-27.125
X255.9Y-47.25
X255.9Y-67.375
X255.9Y-87.5
X271.1Y-22.0
X271.1Y-27.125
X271.1Y-47.25
X271.1Y-67.375
X271.1Y-87.5
X273.6Y-22.0
X273.6Y-27.125
X273.6Y-47.25
X273.6Y-67.375
X273.6Y-87.5
X276.1Y-22.0
X276.1Y-27.125
X276.1Y-47.25
X276.1Y-67.375
X276.1Y-87.5
X291.3Y-22.0
X291.3Y-27.125
X291.3Y-47.25
X291.3Y-67.375
X291.3Y-87.5
X293.8Y-22.0
X293.8Y-27.125
X293.8Y-47.25
X293.8Y-67.375
X293.8Y-87.5
X296.3Y-22.0
X296.3Y-27.125
X296.3Y-47.25
X296.3Y-67.375
X296.3Y-87.5
T5
X134.32Y-82.73
X134.32Y-85.27
X136.86Y-82.73
X136.86Y-85.27
X137.13Y-23.92
X137.13Y-26.46
X137.13Y-29.0
X137.13Y-31.54
X137.13Y-34.08
X139.4Y-82.73
X139.4Y-85.27
X139.67Y-23.92
X139.67Y-26.46
X139.67Y-29.0
X139.67Y-31.54
X139.67Y-34.08
X141.94Y-82.73
X141.94Y-85.27
X144.48Y-82.73
X144.48Y-85.27
X160.32Y-82.73
X160.32Y-85.27
X162.86Y-82.73
X162.86Y-85.27
X165.13Y-23.92
X165.13Y-26.46
X165.13Y-29.0
X165.13Y-31.54
X165.13Y-34.08
X165.4Y-82.73
X165.4Y-85.27
X167.67Y-23.92
X167.67Y-26.46
X167.67Y-29.0
X167.67Y-31.54
X167.67Y-34.08
X167.94Y-82.73
X167.94Y-85.27
X170.48Y-82.73
X170.48Y-85.27
T7
X33.0Y-106.27
X44.5Y-106.27
X56.0Y-106.27
X67.5Y-106.27
X79.0Y-106.27
X90.5Y-106.27
X102.0Y-106.27
X113.5Y-106.27
X136.0Y-106.27
X168.8Y-106.27
X191.3Y-106.27
X202.8Y-106.27
X214.3Y-106.27
X225.8Y-106.27
X237.3Y-106.27
X248.8Y-106.27
X260.3Y-106.27
X271.8Y-106.27
T8
X33.0Y-109.37
X44.5Y-109.37
X56.0Y-109.37
X67.5Y-109.37
X79.0Y-109.37
X90.5Y-109.37
X102.0Y-109.37
X113.5Y-109.37
X136.0Y-109.37
X168.8Y-109.37
X191.3Y-109.37
X202.8Y-109.37
X214.3Y-109.37
X225.8Y-109.37
X237.3Y-109.37
X248.8Y-109.37
X260.3Y-109.37
X271.8Y-109.37
T9
X33.0Y-117.67
X44.5Y-117.67
X56.0Y-117.67
X67.5Y-117.67
X79.0Y-117.67
X90.5Y-117.67
X102.0Y-117.67
X113.5Y-117.67
X136.0Y-117.67
X168.8Y-117.67
X191.3Y-117.67
X202.8Y-117.67
X214.3Y-117.67
X225.8Y-117.67
X237.3Y-117.67
X248.8Y-117.67
X260.3Y-117.67
X271.8Y-117.67
T6
X6.2Y-14.85G85X6.2Y-14.15
G05
X6.2Y-34.275G85X6.2Y-34.975
G05
X6.2Y-54.4G85X6.2Y-55.1
G05
X6.2Y-74.525G85X6.2Y-75.225
G05
X6.2Y-94.65G85X6.2Y-95.35
G05
X15.8Y-14.85G85X15.8Y-14.15
G05
X15.8Y-34.275G85X15.8Y-34.975
G05
X15.8Y-54.4G85X15.8Y-55.1
G05
X15.8Y-74.525G85X15.8Y-75.225
G05
X15.8Y-94.65G85X15.8Y-95.35
G05
X26.4Y-14.85G85X26.4Y-14.15
G05
X26.4Y-34.275G85X26.4Y-34.975
G05
X26.4Y-54.4G85X26.4Y-55.1
G05
X26.4Y-74.525G85X26.4Y-75.225
G05
X26.4Y-94.65G85X26.4Y-95.35
G05
X36.0Y-14.85G85X36.0Y-14.15
G05
X36.0Y-34.275G85X36.0Y-34.975
G05
X36.0Y-54.4G85X36.0Y-55.1
G05
X36.0Y-74.525G85X36.0Y-75.225
G05
X36.0Y-94.65G85X36.0Y-95.35
G05
X46.6Y-14.85G85X46.6Y-14.15
G05
X46.6Y-34.275G85X46.6Y-34.975
G05
X46.6Y-54.4G85X46.6Y-55.1
G05
X46.6Y-74.525G85X46.6Y-75.225
G05
X46.6Y-94.65G85X46.6Y-95.35
G05
X56.2Y-14.85G85X56.2Y-14.15
G05
X56.2Y-34.275G85X56.2Y-34.975
G05
X56.2Y-54.4G85X56.2Y-55.1
G05
X56.2Y-74.525G85X56.2Y-75.225
G05
X56.2Y-94.65G85X56.2Y-95.35
G05
X66.8Y-14.85G85X66.8Y-14.15
G05
X66.8Y-34.275G85X66.8Y-34.975
G05
X66.8Y-54.4G85X66.8Y-55.1
G05
X66.8Y-74.525G85X66.8Y-75.225
G05
X66.8Y-94.65G85X66.8Y-95.35
G05
X76.4Y-14.85G85X76.4Y-14.15
G05
X76.4Y-34.275G85X76.4Y-34.975
G05
X76.4Y-54.4G85X76.4Y-55.1
G05
X76.4Y-74.525G85X76.4Y-75.225
G05
X76.4Y-94.65G85X76.4Y-95.35
G05
X87.0Y-14.85G85X87.0Y-14.15
G05
X87.0Y-34.275G85X87.0Y-34.975
G05
X87.0Y-54.4G85X87.0Y-55.1
G05
X87.0Y-74.525G85X87.0Y-75.225
G05
X87.0Y-94.65G85X87.0Y-95.35
G05
X96.6Y-14.85G85X96.6Y-14.15
G05
X96.6Y-34.275G85X96.6Y-34.975
G05
X96.6Y-54.4G85X96.6Y-55.1
G05
X96.6Y-74.525G85X96.6Y-75.225
G05
X96.6Y-94.65G85X96.6Y-95.35
G05
X107.2Y-34.275G85X107.2Y-34.975
G05
X107.2Y-54.4G85X107.2Y-55.1
G05
X107.2Y-74.525G85X107.2Y-75.225
G05
X107.2Y-94.65G85X107.2Y-95.35
G05
X116.8Y-34.275G85X116.8Y-34.975
G05
X116.8Y-54.4G85X116.8Y-55.1
G05
X116.8Y-74.525G85X116.8Y-75.225
G05
X116.8Y-94.65G85X116.8Y-95.35
G05
X124.6Y-14.85G85X124.6Y-14.15
G05
X124.6Y-34.275G85X124.6Y-34.975
G05
X124.6Y-54.4G85X124.6Y-55.1
G05
X124.6Y-74.525G85X124.6Y-75.225
G05
X124.6Y-94.65G85X124.6Y-95.35
G05
X134.2Y-14.85G85X134.2Y-14.15
G05
X134.2Y-34.275G85X134.2Y-34.975
G05
X134.2Y-54.4G85X134.2Y-55.1
G05
X134.2Y-74.525G85X134.2Y-75.225
G05
X134.2Y-94.65G85X134.2Y-95.35
G05
X147.6Y-14.85G85X147.6Y-14.15
G05
X147.6Y-34.275G85X147.6Y-34.975
G05
X147.6Y-54.4G85X147.6Y-55.1
G05
X147.6Y-74.525G85X147.6Y-75.225
G05
X147.6Y-94.65G85X147.6Y-95.35
G05
X157.2Y-14.85G85X157.2Y-14.15
G05
X157.2Y-34.275G85X157.2Y-34.975
G05
X157.2Y-54.4G85X157.2Y-55.1
G05
X157.2Y-74.525G85X157.2Y-75.225
G05
X157.2Y-94.65G85X157.2Y-95.35
G05
X170.6Y-14.85G85X170.6Y-14.15
G05
X170.6Y-34.275G85X170.6Y-34.975
G05
X170.6Y-54.4G85X170.6Y-55.1
G05
X170.6Y-74.525G85X170.6Y-75.225
G05
X170.6Y-94.65G85X170.6Y-95.35
G05
X180.2Y-14.85G85X180.2Y-14.15
G05
X180.2Y-34.275G85X180.2Y-34.975
G05
X180.2Y-54.4G85X180.2Y-55.1
G05
X180.2Y-74.525G85X180.2Y-75.225
G05
X180.2Y-94.65G85X180.2Y-95.35
G05
X188.0Y-34.275G85X188.0Y-34.975
G05
X188.0Y-54.4G85X188.0Y-55.1
G05
X188.0Y-74.525G85X188.0Y-75.225
G05
X188.0Y-94.65G85X188.0Y-95.35
G05
X197.6Y-34.275G85X197.6Y-34.975
G05
X197.6Y-54.4G85X197.6Y-55.1
G05
X197.6Y-74.525G85X197.6Y-75.225
G05
X197.6Y-94.65G85X197.6Y-95.35
G05
X208.2Y-14.85G85X208.2Y-14.15
G05
X208.2Y-34.275G85X208.2Y-34.975
G05
X208.2Y-54.4G85X208.2Y-55.1
G05
X208.2Y-74.525G85X208.2Y-75.225
G05
X208.2Y-94.65G85X208.2Y-95.35
G05
X217.8Y-14.85G85X217.8Y-14.15
G05
X217.8Y-34.275G85X217.8Y-34.975
G05
X217.8Y-54.4G85X217.8Y-55.1
G05
X217.8Y-74.525G85X217.8Y-75.225
G05
X217.8Y-94.65G85X217.8Y-95.35
G05
X228.4Y-14.85G85X228.4Y-14.15
G05
X228.4Y-34.275G85X228.4Y-34.975
G05
X228.4Y-54.4G85X228.4Y-55.1
G05
X228.4Y-74.525G85X228.4Y-75.225
G05
X228.4Y-94.65G85X228.4Y-95.35
G05
X238.0Y-14.85G85X238.0Y-14.15
G05
X238.0Y-34.275G85X238.0Y-34.975
G05
X238.0Y-54.4G85X238.0Y-55.1
G05
X238.0Y-74.525G85X238.0Y-75.225
G05
X238.0Y-94.65G85X238.0Y-95.35
G05
X248.6Y-14.85G85X248.6Y-14.15
G05
X248.6Y-34.275G85X248.6Y-34.975
G05
X248.6Y-54.4G85X248.6Y-55.1
G05
X248.6Y-74.525G85X248.6Y-75.225
G05
X248.6Y-94.65G85X248.6Y-95.35
G05
X258.2Y-14.85G85X258.2Y-14.15
G05
X258.2Y-34.275G85X258.2Y-34.975
G05
X258.2Y-54.4G85X258.2Y-55.1
G05
X258.2Y-74.525G85X258.2Y-75.225
G05
X258.2Y-94.65G85X258.2Y-95.35
G05
X268.8Y-14.85G85X268.8Y-14.15
G05
X268.8Y-34.275G85X268.8Y-34.975
G05
X268.8Y-54.4G85X268.8Y-55.1
G05
X268.8Y-74.525G85X268.8Y-75.225
G05
X268.8Y-94.65G85X268.8Y-95.35
G05
X278.4Y-14.85G85X278.4Y-14.15
G05
X278.4Y-34.275G85X278.4Y-34.975
G05
X278.4Y-54.4G85X278.4Y-55.1
G05
X278.4Y-74.525G85X278.4Y-75.225
G05
X278.4Y-94.65G85X278.4Y-95.35
G05
X289.0Y-14.85G85X289.0Y-14.15
G05
X289.0Y-34.275G85X289.0Y-34.975
G05
X289.0Y-54.4G85X289.0Y-55.1
G05
X289.0Y-74.525G85X289.0Y-75.225
G05
X289.0Y-94.65G85X289.0Y-95.35
G05
X298.6Y-14.85G85X298.6Y-14.15
G05
X298.6Y-34.275G85X298.6Y-34.975
G05
X298.6Y-54.4G85X298.6Y-55.1
G05
X298.6Y-74.525G85X298.6Y-75.225
G05
X298.6Y-94.65G85X298.6Y-95.35
G05
M30
