%TF.GenerationSoftware,KiCad,Pcbnew,10.0.5*%
%TF.CreationDate,2000-01-01T00:00:00+00:00*%
%TF.ProjectId,reva,72657661-2e6b-4696-9361-645f70636258,rev?*%
%TF.SameCoordinates,Original*%
%TF.FileFunction,Legend,Bot*%
%TF.FilePolarity,Positive*%
%FSLAX46Y46*%
G04 Gerber Fmt 4.6, Leading zero omitted, Abs format (unit mm)*
G04 Created by KiCad (PCBNEW 10.0.5) date 2000-01-01 00:00:00*
%MOMM*%
%LPD*%
G01*
G04 APERTURE LIST*
%ADD10C,0.150000*%
%ADD11C,0.120000*%
%ADD12C,0.152400*%
%ADD13C,0.203200*%
G04 APERTURE END LIST*
D10*
X262640238Y-78637704D02*
X262687857Y-78685324D01*
X262687857Y-78685324D02*
X262830714Y-78732943D01*
X262830714Y-78732943D02*
X262925952Y-78732943D01*
X262925952Y-78732943D02*
X263068809Y-78685324D01*
X263068809Y-78685324D02*
X263164047Y-78590085D01*
X263164047Y-78590085D02*
X263211666Y-78494847D01*
X263211666Y-78494847D02*
X263259285Y-78304371D01*
X263259285Y-78304371D02*
X263259285Y-78161514D01*
X263259285Y-78161514D02*
X263211666Y-77971038D01*
X263211666Y-77971038D02*
X263164047Y-77875800D01*
X263164047Y-77875800D02*
X263068809Y-77780562D01*
X263068809Y-77780562D02*
X262925952Y-77732943D01*
X262925952Y-77732943D02*
X262830714Y-77732943D01*
X262830714Y-77732943D02*
X262687857Y-77780562D01*
X262687857Y-77780562D02*
X262640238Y-77828181D01*
X261687857Y-78732943D02*
X262259285Y-78732943D01*
X261973571Y-78732943D02*
X261973571Y-77732943D01*
X261973571Y-77732943D02*
X262068809Y-77875800D01*
X262068809Y-77875800D02*
X262164047Y-77971038D01*
X262164047Y-77971038D02*
X262259285Y-78018657D01*
X260830714Y-77732943D02*
X261021190Y-77732943D01*
X261021190Y-77732943D02*
X261116428Y-77780562D01*
X261116428Y-77780562D02*
X261164047Y-77828181D01*
X261164047Y-77828181D02*
X261259285Y-77971038D01*
X261259285Y-77971038D02*
X261306904Y-78161514D01*
X261306904Y-78161514D02*
X261306904Y-78542466D01*
X261306904Y-78542466D02*
X261259285Y-78637704D01*
X261259285Y-78637704D02*
X261211666Y-78685324D01*
X261211666Y-78685324D02*
X261116428Y-78732943D01*
X261116428Y-78732943D02*
X260925952Y-78732943D01*
X260925952Y-78732943D02*
X260830714Y-78685324D01*
X260830714Y-78685324D02*
X260783095Y-78637704D01*
X260783095Y-78637704D02*
X260735476Y-78542466D01*
X260735476Y-78542466D02*
X260735476Y-78304371D01*
X260735476Y-78304371D02*
X260783095Y-78209133D01*
X260783095Y-78209133D02*
X260830714Y-78161514D01*
X260830714Y-78161514D02*
X260925952Y-78113895D01*
X260925952Y-78113895D02*
X261116428Y-78113895D01*
X261116428Y-78113895D02*
X261211666Y-78161514D01*
X261211666Y-78161514D02*
X261259285Y-78209133D01*
X261259285Y-78209133D02*
X261306904Y-78304371D01*
X74278154Y-71865084D02*
X74325773Y-71912704D01*
X74325773Y-71912704D02*
X74468630Y-71960323D01*
X74468630Y-71960323D02*
X74563868Y-71960323D01*
X74563868Y-71960323D02*
X74706725Y-71912704D01*
X74706725Y-71912704D02*
X74801963Y-71817465D01*
X74801963Y-71817465D02*
X74849582Y-71722227D01*
X74849582Y-71722227D02*
X74897201Y-71531751D01*
X74897201Y-71531751D02*
X74897201Y-71388894D01*
X74897201Y-71388894D02*
X74849582Y-71198418D01*
X74849582Y-71198418D02*
X74801963Y-71103180D01*
X74801963Y-71103180D02*
X74706725Y-71007942D01*
X74706725Y-71007942D02*
X74563868Y-70960323D01*
X74563868Y-70960323D02*
X74468630Y-70960323D01*
X74468630Y-70960323D02*
X74325773Y-71007942D01*
X74325773Y-71007942D02*
X74278154Y-71055561D01*
X73325773Y-71960323D02*
X73897201Y-71960323D01*
X73611487Y-71960323D02*
X73611487Y-70960323D01*
X73611487Y-70960323D02*
X73706725Y-71103180D01*
X73706725Y-71103180D02*
X73801963Y-71198418D01*
X73801963Y-71198418D02*
X73897201Y-71246037D01*
X72754344Y-71388894D02*
X72849582Y-71341275D01*
X72849582Y-71341275D02*
X72897201Y-71293656D01*
X72897201Y-71293656D02*
X72944820Y-71198418D01*
X72944820Y-71198418D02*
X72944820Y-71150799D01*
X72944820Y-71150799D02*
X72897201Y-71055561D01*
X72897201Y-71055561D02*
X72849582Y-71007942D01*
X72849582Y-71007942D02*
X72754344Y-70960323D01*
X72754344Y-70960323D02*
X72563868Y-70960323D01*
X72563868Y-70960323D02*
X72468630Y-71007942D01*
X72468630Y-71007942D02*
X72421011Y-71055561D01*
X72421011Y-71055561D02*
X72373392Y-71150799D01*
X72373392Y-71150799D02*
X72373392Y-71198418D01*
X72373392Y-71198418D02*
X72421011Y-71293656D01*
X72421011Y-71293656D02*
X72468630Y-71341275D01*
X72468630Y-71341275D02*
X72563868Y-71388894D01*
X72563868Y-71388894D02*
X72754344Y-71388894D01*
X72754344Y-71388894D02*
X72849582Y-71436513D01*
X72849582Y-71436513D02*
X72897201Y-71484132D01*
X72897201Y-71484132D02*
X72944820Y-71579370D01*
X72944820Y-71579370D02*
X72944820Y-71769846D01*
X72944820Y-71769846D02*
X72897201Y-71865084D01*
X72897201Y-71865084D02*
X72849582Y-71912704D01*
X72849582Y-71912704D02*
X72754344Y-71960323D01*
X72754344Y-71960323D02*
X72563868Y-71960323D01*
X72563868Y-71960323D02*
X72468630Y-71912704D01*
X72468630Y-71912704D02*
X72421011Y-71865084D01*
X72421011Y-71865084D02*
X72373392Y-71769846D01*
X72373392Y-71769846D02*
X72373392Y-71579370D01*
X72373392Y-71579370D02*
X72421011Y-71484132D01*
X72421011Y-71484132D02*
X72468630Y-71436513D01*
X72468630Y-71436513D02*
X72563868Y-71388894D01*
X44014285Y-17724069D02*
X44014285Y-18533592D01*
X44014285Y-18533592D02*
X43966666Y-18628830D01*
X43966666Y-18628830D02*
X43919047Y-18676450D01*
X43919047Y-18676450D02*
X43823809Y-18724069D01*
X43823809Y-18724069D02*
X43633333Y-18724069D01*
X43633333Y-18724069D02*
X43538095Y-18676450D01*
X43538095Y-18676450D02*
X43490476Y-18628830D01*
X43490476Y-18628830D02*
X43442857Y-18533592D01*
X43442857Y-18533592D02*
X43442857Y-17724069D01*
X43204762Y-18819307D02*
X42442857Y-18819307D01*
X42204761Y-18724069D02*
X42204761Y-17724069D01*
X42204761Y-17724069D02*
X41871428Y-18438354D01*
X41871428Y-18438354D02*
X41538095Y-17724069D01*
X41538095Y-17724069D02*
X41538095Y-18724069D01*
X41061904Y-17724069D02*
X41061904Y-18533592D01*
X41061904Y-18533592D02*
X41014285Y-18628830D01*
X41014285Y-18628830D02*
X40966666Y-18676450D01*
X40966666Y-18676450D02*
X40871428Y-18724069D01*
X40871428Y-18724069D02*
X40680952Y-18724069D01*
X40680952Y-18724069D02*
X40585714Y-18676450D01*
X40585714Y-18676450D02*
X40538095Y-18628830D01*
X40538095Y-18628830D02*
X40490476Y-18533592D01*
X40490476Y-18533592D02*
X40490476Y-17724069D01*
X40109523Y-17724069D02*
X39442857Y-18724069D01*
X39442857Y-17724069D02*
X40109523Y-18724069D01*
X38871428Y-17724069D02*
X38776190Y-17724069D01*
X38776190Y-17724069D02*
X38680952Y-17771688D01*
X38680952Y-17771688D02*
X38633333Y-17819307D01*
X38633333Y-17819307D02*
X38585714Y-17914545D01*
X38585714Y-17914545D02*
X38538095Y-18105021D01*
X38538095Y-18105021D02*
X38538095Y-18343116D01*
X38538095Y-18343116D02*
X38585714Y-18533592D01*
X38585714Y-18533592D02*
X38633333Y-18628830D01*
X38633333Y-18628830D02*
X38680952Y-18676450D01*
X38680952Y-18676450D02*
X38776190Y-18724069D01*
X38776190Y-18724069D02*
X38871428Y-18724069D01*
X38871428Y-18724069D02*
X38966666Y-18676450D01*
X38966666Y-18676450D02*
X39014285Y-18628830D01*
X39014285Y-18628830D02*
X39061904Y-18533592D01*
X39061904Y-18533592D02*
X39109523Y-18343116D01*
X39109523Y-18343116D02*
X39109523Y-18105021D01*
X39109523Y-18105021D02*
X39061904Y-17914545D01*
X39061904Y-17914545D02*
X39014285Y-17819307D01*
X39014285Y-17819307D02*
X38966666Y-17771688D01*
X38966666Y-17771688D02*
X38871428Y-17724069D01*
X43641666Y-55477830D02*
X43689285Y-55525450D01*
X43689285Y-55525450D02*
X43832142Y-55573069D01*
X43832142Y-55573069D02*
X43927380Y-55573069D01*
X43927380Y-55573069D02*
X44070237Y-55525450D01*
X44070237Y-55525450D02*
X44165475Y-55430211D01*
X44165475Y-55430211D02*
X44213094Y-55334973D01*
X44213094Y-55334973D02*
X44260713Y-55144497D01*
X44260713Y-55144497D02*
X44260713Y-55001640D01*
X44260713Y-55001640D02*
X44213094Y-54811164D01*
X44213094Y-54811164D02*
X44165475Y-54715926D01*
X44165475Y-54715926D02*
X44070237Y-54620688D01*
X44070237Y-54620688D02*
X43927380Y-54573069D01*
X43927380Y-54573069D02*
X43832142Y-54573069D01*
X43832142Y-54573069D02*
X43689285Y-54620688D01*
X43689285Y-54620688D02*
X43641666Y-54668307D01*
X43070237Y-55001640D02*
X43165475Y-54954021D01*
X43165475Y-54954021D02*
X43213094Y-54906402D01*
X43213094Y-54906402D02*
X43260713Y-54811164D01*
X43260713Y-54811164D02*
X43260713Y-54763545D01*
X43260713Y-54763545D02*
X43213094Y-54668307D01*
X43213094Y-54668307D02*
X43165475Y-54620688D01*
X43165475Y-54620688D02*
X43070237Y-54573069D01*
X43070237Y-54573069D02*
X42879761Y-54573069D01*
X42879761Y-54573069D02*
X42784523Y-54620688D01*
X42784523Y-54620688D02*
X42736904Y-54668307D01*
X42736904Y-54668307D02*
X42689285Y-54763545D01*
X42689285Y-54763545D02*
X42689285Y-54811164D01*
X42689285Y-54811164D02*
X42736904Y-54906402D01*
X42736904Y-54906402D02*
X42784523Y-54954021D01*
X42784523Y-54954021D02*
X42879761Y-55001640D01*
X42879761Y-55001640D02*
X43070237Y-55001640D01*
X43070237Y-55001640D02*
X43165475Y-55049259D01*
X43165475Y-55049259D02*
X43213094Y-55096878D01*
X43213094Y-55096878D02*
X43260713Y-55192116D01*
X43260713Y-55192116D02*
X43260713Y-55382592D01*
X43260713Y-55382592D02*
X43213094Y-55477830D01*
X43213094Y-55477830D02*
X43165475Y-55525450D01*
X43165475Y-55525450D02*
X43070237Y-55573069D01*
X43070237Y-55573069D02*
X42879761Y-55573069D01*
X42879761Y-55573069D02*
X42784523Y-55525450D01*
X42784523Y-55525450D02*
X42736904Y-55477830D01*
X42736904Y-55477830D02*
X42689285Y-55382592D01*
X42689285Y-55382592D02*
X42689285Y-55192116D01*
X42689285Y-55192116D02*
X42736904Y-55096878D01*
X42736904Y-55096878D02*
X42784523Y-55049259D01*
X42784523Y-55049259D02*
X42879761Y-55001640D01*
X93509196Y-71920820D02*
X93842529Y-71444629D01*
X94080624Y-71920820D02*
X94080624Y-70920820D01*
X94080624Y-70920820D02*
X93699672Y-70920820D01*
X93699672Y-70920820D02*
X93604434Y-70968439D01*
X93604434Y-70968439D02*
X93556815Y-71016058D01*
X93556815Y-71016058D02*
X93509196Y-71111296D01*
X93509196Y-71111296D02*
X93509196Y-71254153D01*
X93509196Y-71254153D02*
X93556815Y-71349391D01*
X93556815Y-71349391D02*
X93604434Y-71397010D01*
X93604434Y-71397010D02*
X93699672Y-71444629D01*
X93699672Y-71444629D02*
X94080624Y-71444629D01*
X92556815Y-71920820D02*
X93128243Y-71920820D01*
X92842529Y-71920820D02*
X92842529Y-70920820D01*
X92842529Y-70920820D02*
X92937767Y-71063677D01*
X92937767Y-71063677D02*
X93033005Y-71158915D01*
X93033005Y-71158915D02*
X93128243Y-71206534D01*
X91604434Y-71920820D02*
X92175862Y-71920820D01*
X91890148Y-71920820D02*
X91890148Y-70920820D01*
X91890148Y-70920820D02*
X91985386Y-71063677D01*
X91985386Y-71063677D02*
X92080624Y-71158915D01*
X92080624Y-71158915D02*
X92175862Y-71206534D01*
X184172857Y-18189569D02*
X184506190Y-17713378D01*
X184744285Y-18189569D02*
X184744285Y-17189569D01*
X184744285Y-17189569D02*
X184363333Y-17189569D01*
X184363333Y-17189569D02*
X184268095Y-17237188D01*
X184268095Y-17237188D02*
X184220476Y-17284807D01*
X184220476Y-17284807D02*
X184172857Y-17380045D01*
X184172857Y-17380045D02*
X184172857Y-17522902D01*
X184172857Y-17522902D02*
X184220476Y-17618140D01*
X184220476Y-17618140D02*
X184268095Y-17665759D01*
X184268095Y-17665759D02*
X184363333Y-17713378D01*
X184363333Y-17713378D02*
X184744285Y-17713378D01*
X183791904Y-17284807D02*
X183744285Y-17237188D01*
X183744285Y-17237188D02*
X183649047Y-17189569D01*
X183649047Y-17189569D02*
X183410952Y-17189569D01*
X183410952Y-17189569D02*
X183315714Y-17237188D01*
X183315714Y-17237188D02*
X183268095Y-17284807D01*
X183268095Y-17284807D02*
X183220476Y-17380045D01*
X183220476Y-17380045D02*
X183220476Y-17475283D01*
X183220476Y-17475283D02*
X183268095Y-17618140D01*
X183268095Y-17618140D02*
X183839523Y-18189569D01*
X183839523Y-18189569D02*
X183220476Y-18189569D01*
X182887142Y-17189569D02*
X182220476Y-17189569D01*
X182220476Y-17189569D02*
X182649047Y-18189569D01*
X114157856Y-75926705D02*
X114205475Y-75974325D01*
X114205475Y-75974325D02*
X114348332Y-76021944D01*
X114348332Y-76021944D02*
X114443570Y-76021944D01*
X114443570Y-76021944D02*
X114586427Y-75974325D01*
X114586427Y-75974325D02*
X114681665Y-75879086D01*
X114681665Y-75879086D02*
X114729284Y-75783848D01*
X114729284Y-75783848D02*
X114776903Y-75593372D01*
X114776903Y-75593372D02*
X114776903Y-75450515D01*
X114776903Y-75450515D02*
X114729284Y-75260039D01*
X114729284Y-75260039D02*
X114681665Y-75164801D01*
X114681665Y-75164801D02*
X114586427Y-75069563D01*
X114586427Y-75069563D02*
X114443570Y-75021944D01*
X114443570Y-75021944D02*
X114348332Y-75021944D01*
X114348332Y-75021944D02*
X114205475Y-75069563D01*
X114205475Y-75069563D02*
X114157856Y-75117182D01*
X113205475Y-76021944D02*
X113776903Y-76021944D01*
X113491189Y-76021944D02*
X113491189Y-75021944D01*
X113491189Y-75021944D02*
X113586427Y-75164801D01*
X113586427Y-75164801D02*
X113681665Y-75260039D01*
X113681665Y-75260039D02*
X113776903Y-75307658D01*
X112729284Y-76021944D02*
X112538808Y-76021944D01*
X112538808Y-76021944D02*
X112443570Y-75974325D01*
X112443570Y-75974325D02*
X112395951Y-75926705D01*
X112395951Y-75926705D02*
X112300713Y-75783848D01*
X112300713Y-75783848D02*
X112253094Y-75593372D01*
X112253094Y-75593372D02*
X112253094Y-75212420D01*
X112253094Y-75212420D02*
X112300713Y-75117182D01*
X112300713Y-75117182D02*
X112348332Y-75069563D01*
X112348332Y-75069563D02*
X112443570Y-75021944D01*
X112443570Y-75021944D02*
X112634046Y-75021944D01*
X112634046Y-75021944D02*
X112729284Y-75069563D01*
X112729284Y-75069563D02*
X112776903Y-75117182D01*
X112776903Y-75117182D02*
X112824522Y-75212420D01*
X112824522Y-75212420D02*
X112824522Y-75450515D01*
X112824522Y-75450515D02*
X112776903Y-75545753D01*
X112776903Y-75545753D02*
X112729284Y-75593372D01*
X112729284Y-75593372D02*
X112634046Y-75640991D01*
X112634046Y-75640991D02*
X112443570Y-75640991D01*
X112443570Y-75640991D02*
X112348332Y-75593372D01*
X112348332Y-75593372D02*
X112300713Y-75545753D01*
X112300713Y-75545753D02*
X112253094Y-75450515D01*
X102467855Y-19902043D02*
X102515474Y-19949663D01*
X102515474Y-19949663D02*
X102658331Y-19997282D01*
X102658331Y-19997282D02*
X102753569Y-19997282D01*
X102753569Y-19997282D02*
X102896426Y-19949663D01*
X102896426Y-19949663D02*
X102991664Y-19854424D01*
X102991664Y-19854424D02*
X103039283Y-19759186D01*
X103039283Y-19759186D02*
X103086902Y-19568710D01*
X103086902Y-19568710D02*
X103086902Y-19425853D01*
X103086902Y-19425853D02*
X103039283Y-19235377D01*
X103039283Y-19235377D02*
X102991664Y-19140139D01*
X102991664Y-19140139D02*
X102896426Y-19044901D01*
X102896426Y-19044901D02*
X102753569Y-18997282D01*
X102753569Y-18997282D02*
X102658331Y-18997282D01*
X102658331Y-18997282D02*
X102515474Y-19044901D01*
X102515474Y-19044901D02*
X102467855Y-19092520D01*
X101515474Y-19997282D02*
X102086902Y-19997282D01*
X101801188Y-19997282D02*
X101801188Y-18997282D01*
X101801188Y-18997282D02*
X101896426Y-19140139D01*
X101896426Y-19140139D02*
X101991664Y-19235377D01*
X101991664Y-19235377D02*
X102086902Y-19282996D01*
X100896426Y-18997282D02*
X100801188Y-18997282D01*
X100801188Y-18997282D02*
X100705950Y-19044901D01*
X100705950Y-19044901D02*
X100658331Y-19092520D01*
X100658331Y-19092520D02*
X100610712Y-19187758D01*
X100610712Y-19187758D02*
X100563093Y-19378234D01*
X100563093Y-19378234D02*
X100563093Y-19616329D01*
X100563093Y-19616329D02*
X100610712Y-19806805D01*
X100610712Y-19806805D02*
X100658331Y-19902043D01*
X100658331Y-19902043D02*
X100705950Y-19949663D01*
X100705950Y-19949663D02*
X100801188Y-19997282D01*
X100801188Y-19997282D02*
X100896426Y-19997282D01*
X100896426Y-19997282D02*
X100991664Y-19949663D01*
X100991664Y-19949663D02*
X101039283Y-19902043D01*
X101039283Y-19902043D02*
X101086902Y-19806805D01*
X101086902Y-19806805D02*
X101134521Y-19616329D01*
X101134521Y-19616329D02*
X101134521Y-19378234D01*
X101134521Y-19378234D02*
X101086902Y-19187758D01*
X101086902Y-19187758D02*
X101039283Y-19092520D01*
X101039283Y-19092520D02*
X100991664Y-19044901D01*
X100991664Y-19044901D02*
X100896426Y-18997282D01*
X178139045Y-55454818D02*
X177567617Y-55454818D01*
X177853331Y-56454818D02*
X177853331Y-55454818D01*
X177234283Y-56454818D02*
X177234283Y-55454818D01*
X177234283Y-55454818D02*
X176853331Y-55454818D01*
X176853331Y-55454818D02*
X176758093Y-55502437D01*
X176758093Y-55502437D02*
X176710474Y-55550056D01*
X176710474Y-55550056D02*
X176662855Y-55645294D01*
X176662855Y-55645294D02*
X176662855Y-55788151D01*
X176662855Y-55788151D02*
X176710474Y-55883389D01*
X176710474Y-55883389D02*
X176758093Y-55931008D01*
X176758093Y-55931008D02*
X176853331Y-55978627D01*
X176853331Y-55978627D02*
X177234283Y-55978627D01*
X175758093Y-55454818D02*
X176234283Y-55454818D01*
X176234283Y-55454818D02*
X176281902Y-55931008D01*
X176281902Y-55931008D02*
X176234283Y-55883389D01*
X176234283Y-55883389D02*
X176139045Y-55835770D01*
X176139045Y-55835770D02*
X175900950Y-55835770D01*
X175900950Y-55835770D02*
X175805712Y-55883389D01*
X175805712Y-55883389D02*
X175758093Y-55931008D01*
X175758093Y-55931008D02*
X175710474Y-56026246D01*
X175710474Y-56026246D02*
X175710474Y-56264341D01*
X175710474Y-56264341D02*
X175758093Y-56359579D01*
X175758093Y-56359579D02*
X175805712Y-56407199D01*
X175805712Y-56407199D02*
X175900950Y-56454818D01*
X175900950Y-56454818D02*
X176139045Y-56454818D01*
X176139045Y-56454818D02*
X176234283Y-56407199D01*
X176234283Y-56407199D02*
X176281902Y-56359579D01*
X60212855Y-58039569D02*
X60546188Y-57563378D01*
X60784283Y-58039569D02*
X60784283Y-57039569D01*
X60784283Y-57039569D02*
X60403331Y-57039569D01*
X60403331Y-57039569D02*
X60308093Y-57087188D01*
X60308093Y-57087188D02*
X60260474Y-57134807D01*
X60260474Y-57134807D02*
X60212855Y-57230045D01*
X60212855Y-57230045D02*
X60212855Y-57372902D01*
X60212855Y-57372902D02*
X60260474Y-57468140D01*
X60260474Y-57468140D02*
X60308093Y-57515759D01*
X60308093Y-57515759D02*
X60403331Y-57563378D01*
X60403331Y-57563378D02*
X60784283Y-57563378D01*
X59831902Y-57134807D02*
X59784283Y-57087188D01*
X59784283Y-57087188D02*
X59689045Y-57039569D01*
X59689045Y-57039569D02*
X59450950Y-57039569D01*
X59450950Y-57039569D02*
X59355712Y-57087188D01*
X59355712Y-57087188D02*
X59308093Y-57134807D01*
X59308093Y-57134807D02*
X59260474Y-57230045D01*
X59260474Y-57230045D02*
X59260474Y-57325283D01*
X59260474Y-57325283D02*
X59308093Y-57468140D01*
X59308093Y-57468140D02*
X59879521Y-58039569D01*
X59879521Y-58039569D02*
X59260474Y-58039569D01*
X58641426Y-57039569D02*
X58546188Y-57039569D01*
X58546188Y-57039569D02*
X58450950Y-57087188D01*
X58450950Y-57087188D02*
X58403331Y-57134807D01*
X58403331Y-57134807D02*
X58355712Y-57230045D01*
X58355712Y-57230045D02*
X58308093Y-57420521D01*
X58308093Y-57420521D02*
X58308093Y-57658616D01*
X58308093Y-57658616D02*
X58355712Y-57849092D01*
X58355712Y-57849092D02*
X58403331Y-57944330D01*
X58403331Y-57944330D02*
X58450950Y-57991950D01*
X58450950Y-57991950D02*
X58546188Y-58039569D01*
X58546188Y-58039569D02*
X58641426Y-58039569D01*
X58641426Y-58039569D02*
X58736664Y-57991950D01*
X58736664Y-57991950D02*
X58784283Y-57944330D01*
X58784283Y-57944330D02*
X58831902Y-57849092D01*
X58831902Y-57849092D02*
X58879521Y-57658616D01*
X58879521Y-57658616D02*
X58879521Y-57420521D01*
X58879521Y-57420521D02*
X58831902Y-57230045D01*
X58831902Y-57230045D02*
X58784283Y-57134807D01*
X58784283Y-57134807D02*
X58736664Y-57087188D01*
X58736664Y-57087188D02*
X58641426Y-57039569D01*
X256671546Y-57056318D02*
X256671546Y-57865841D01*
X256671546Y-57865841D02*
X256623927Y-57961079D01*
X256623927Y-57961079D02*
X256576308Y-58008699D01*
X256576308Y-58008699D02*
X256481070Y-58056318D01*
X256481070Y-58056318D02*
X256290594Y-58056318D01*
X256290594Y-58056318D02*
X256195356Y-58008699D01*
X256195356Y-58008699D02*
X256147737Y-57961079D01*
X256147737Y-57961079D02*
X256100118Y-57865841D01*
X256100118Y-57865841D02*
X256100118Y-57056318D01*
X255862023Y-58151556D02*
X255100118Y-58151556D01*
X254909641Y-58008699D02*
X254766784Y-58056318D01*
X254766784Y-58056318D02*
X254528689Y-58056318D01*
X254528689Y-58056318D02*
X254433451Y-58008699D01*
X254433451Y-58008699D02*
X254385832Y-57961079D01*
X254385832Y-57961079D02*
X254338213Y-57865841D01*
X254338213Y-57865841D02*
X254338213Y-57770603D01*
X254338213Y-57770603D02*
X254385832Y-57675365D01*
X254385832Y-57675365D02*
X254433451Y-57627746D01*
X254433451Y-57627746D02*
X254528689Y-57580127D01*
X254528689Y-57580127D02*
X254719165Y-57532508D01*
X254719165Y-57532508D02*
X254814403Y-57484889D01*
X254814403Y-57484889D02*
X254862022Y-57437270D01*
X254862022Y-57437270D02*
X254909641Y-57342032D01*
X254909641Y-57342032D02*
X254909641Y-57246794D01*
X254909641Y-57246794D02*
X254862022Y-57151556D01*
X254862022Y-57151556D02*
X254814403Y-57103937D01*
X254814403Y-57103937D02*
X254719165Y-57056318D01*
X254719165Y-57056318D02*
X254481070Y-57056318D01*
X254481070Y-57056318D02*
X254338213Y-57103937D01*
X253338213Y-58056318D02*
X253671546Y-57580127D01*
X253909641Y-58056318D02*
X253909641Y-57056318D01*
X253909641Y-57056318D02*
X253528689Y-57056318D01*
X253528689Y-57056318D02*
X253433451Y-57103937D01*
X253433451Y-57103937D02*
X253385832Y-57151556D01*
X253385832Y-57151556D02*
X253338213Y-57246794D01*
X253338213Y-57246794D02*
X253338213Y-57389651D01*
X253338213Y-57389651D02*
X253385832Y-57484889D01*
X253385832Y-57484889D02*
X253433451Y-57532508D01*
X253433451Y-57532508D02*
X253528689Y-57580127D01*
X253528689Y-57580127D02*
X253909641Y-57580127D01*
X252481070Y-57389651D02*
X252481070Y-58056318D01*
X252719165Y-57008699D02*
X252957260Y-57722984D01*
X252957260Y-57722984D02*
X252338213Y-57722984D01*
X191310941Y-42221903D02*
X191644274Y-41745712D01*
X191882369Y-42221903D02*
X191882369Y-41221903D01*
X191882369Y-41221903D02*
X191501417Y-41221903D01*
X191501417Y-41221903D02*
X191406179Y-41269522D01*
X191406179Y-41269522D02*
X191358560Y-41317141D01*
X191358560Y-41317141D02*
X191310941Y-41412379D01*
X191310941Y-41412379D02*
X191310941Y-41555236D01*
X191310941Y-41555236D02*
X191358560Y-41650474D01*
X191358560Y-41650474D02*
X191406179Y-41698093D01*
X191406179Y-41698093D02*
X191501417Y-41745712D01*
X191501417Y-41745712D02*
X191882369Y-41745712D01*
X190977607Y-41221903D02*
X190310941Y-41221903D01*
X190310941Y-41221903D02*
X190739512Y-42221903D01*
X25162857Y-117028069D02*
X25496190Y-116551878D01*
X25734285Y-117028069D02*
X25734285Y-116028069D01*
X25734285Y-116028069D02*
X25353333Y-116028069D01*
X25353333Y-116028069D02*
X25258095Y-116075688D01*
X25258095Y-116075688D02*
X25210476Y-116123307D01*
X25210476Y-116123307D02*
X25162857Y-116218545D01*
X25162857Y-116218545D02*
X25162857Y-116361402D01*
X25162857Y-116361402D02*
X25210476Y-116456640D01*
X25210476Y-116456640D02*
X25258095Y-116504259D01*
X25258095Y-116504259D02*
X25353333Y-116551878D01*
X25353333Y-116551878D02*
X25734285Y-116551878D01*
X24210476Y-117028069D02*
X24781904Y-117028069D01*
X24496190Y-117028069D02*
X24496190Y-116028069D01*
X24496190Y-116028069D02*
X24591428Y-116170926D01*
X24591428Y-116170926D02*
X24686666Y-116266164D01*
X24686666Y-116266164D02*
X24781904Y-116313783D01*
X23639047Y-116456640D02*
X23734285Y-116409021D01*
X23734285Y-116409021D02*
X23781904Y-116361402D01*
X23781904Y-116361402D02*
X23829523Y-116266164D01*
X23829523Y-116266164D02*
X23829523Y-116218545D01*
X23829523Y-116218545D02*
X23781904Y-116123307D01*
X23781904Y-116123307D02*
X23734285Y-116075688D01*
X23734285Y-116075688D02*
X23639047Y-116028069D01*
X23639047Y-116028069D02*
X23448571Y-116028069D01*
X23448571Y-116028069D02*
X23353333Y-116075688D01*
X23353333Y-116075688D02*
X23305714Y-116123307D01*
X23305714Y-116123307D02*
X23258095Y-116218545D01*
X23258095Y-116218545D02*
X23258095Y-116266164D01*
X23258095Y-116266164D02*
X23305714Y-116361402D01*
X23305714Y-116361402D02*
X23353333Y-116409021D01*
X23353333Y-116409021D02*
X23448571Y-116456640D01*
X23448571Y-116456640D02*
X23639047Y-116456640D01*
X23639047Y-116456640D02*
X23734285Y-116504259D01*
X23734285Y-116504259D02*
X23781904Y-116551878D01*
X23781904Y-116551878D02*
X23829523Y-116647116D01*
X23829523Y-116647116D02*
X23829523Y-116837592D01*
X23829523Y-116837592D02*
X23781904Y-116932830D01*
X23781904Y-116932830D02*
X23734285Y-116980450D01*
X23734285Y-116980450D02*
X23639047Y-117028069D01*
X23639047Y-117028069D02*
X23448571Y-117028069D01*
X23448571Y-117028069D02*
X23353333Y-116980450D01*
X23353333Y-116980450D02*
X23305714Y-116932830D01*
X23305714Y-116932830D02*
X23258095Y-116837592D01*
X23258095Y-116837592D02*
X23258095Y-116647116D01*
X23258095Y-116647116D02*
X23305714Y-116551878D01*
X23305714Y-116551878D02*
X23353333Y-116504259D01*
X23353333Y-116504259D02*
X23448571Y-116456640D01*
X140058571Y-19496330D02*
X140106190Y-19543950D01*
X140106190Y-19543950D02*
X140249047Y-19591569D01*
X140249047Y-19591569D02*
X140344285Y-19591569D01*
X140344285Y-19591569D02*
X140487142Y-19543950D01*
X140487142Y-19543950D02*
X140582380Y-19448711D01*
X140582380Y-19448711D02*
X140629999Y-19353473D01*
X140629999Y-19353473D02*
X140677618Y-19162997D01*
X140677618Y-19162997D02*
X140677618Y-19020140D01*
X140677618Y-19020140D02*
X140629999Y-18829664D01*
X140629999Y-18829664D02*
X140582380Y-18734426D01*
X140582380Y-18734426D02*
X140487142Y-18639188D01*
X140487142Y-18639188D02*
X140344285Y-18591569D01*
X140344285Y-18591569D02*
X140249047Y-18591569D01*
X140249047Y-18591569D02*
X140106190Y-18639188D01*
X140106190Y-18639188D02*
X140058571Y-18686807D01*
X139868095Y-19686807D02*
X139106190Y-19686807D01*
X138915713Y-19543950D02*
X138772856Y-19591569D01*
X138772856Y-19591569D02*
X138534761Y-19591569D01*
X138534761Y-19591569D02*
X138439523Y-19543950D01*
X138439523Y-19543950D02*
X138391904Y-19496330D01*
X138391904Y-19496330D02*
X138344285Y-19401092D01*
X138344285Y-19401092D02*
X138344285Y-19305854D01*
X138344285Y-19305854D02*
X138391904Y-19210616D01*
X138391904Y-19210616D02*
X138439523Y-19162997D01*
X138439523Y-19162997D02*
X138534761Y-19115378D01*
X138534761Y-19115378D02*
X138725237Y-19067759D01*
X138725237Y-19067759D02*
X138820475Y-19020140D01*
X138820475Y-19020140D02*
X138868094Y-18972521D01*
X138868094Y-18972521D02*
X138915713Y-18877283D01*
X138915713Y-18877283D02*
X138915713Y-18782045D01*
X138915713Y-18782045D02*
X138868094Y-18686807D01*
X138868094Y-18686807D02*
X138820475Y-18639188D01*
X138820475Y-18639188D02*
X138725237Y-18591569D01*
X138725237Y-18591569D02*
X138487142Y-18591569D01*
X138487142Y-18591569D02*
X138344285Y-18639188D01*
X137915713Y-19067759D02*
X137582380Y-19067759D01*
X137439523Y-19591569D02*
X137915713Y-19591569D01*
X137915713Y-19591569D02*
X137915713Y-18591569D01*
X137915713Y-18591569D02*
X137439523Y-18591569D01*
X137010951Y-19591569D02*
X137010951Y-18591569D01*
X137010951Y-18591569D02*
X136439523Y-19591569D01*
X136439523Y-19591569D02*
X136439523Y-18591569D01*
X136010951Y-19543950D02*
X135868094Y-19591569D01*
X135868094Y-19591569D02*
X135629999Y-19591569D01*
X135629999Y-19591569D02*
X135534761Y-19543950D01*
X135534761Y-19543950D02*
X135487142Y-19496330D01*
X135487142Y-19496330D02*
X135439523Y-19401092D01*
X135439523Y-19401092D02*
X135439523Y-19305854D01*
X135439523Y-19305854D02*
X135487142Y-19210616D01*
X135487142Y-19210616D02*
X135534761Y-19162997D01*
X135534761Y-19162997D02*
X135629999Y-19115378D01*
X135629999Y-19115378D02*
X135820475Y-19067759D01*
X135820475Y-19067759D02*
X135915713Y-19020140D01*
X135915713Y-19020140D02*
X135963332Y-18972521D01*
X135963332Y-18972521D02*
X136010951Y-18877283D01*
X136010951Y-18877283D02*
X136010951Y-18782045D01*
X136010951Y-18782045D02*
X135963332Y-18686807D01*
X135963332Y-18686807D02*
X135915713Y-18639188D01*
X135915713Y-18639188D02*
X135820475Y-18591569D01*
X135820475Y-18591569D02*
X135582380Y-18591569D01*
X135582380Y-18591569D02*
X135439523Y-18639188D01*
X135010951Y-19067759D02*
X134677618Y-19067759D01*
X134534761Y-19591569D02*
X135010951Y-19591569D01*
X135010951Y-19591569D02*
X135010951Y-18591569D01*
X135010951Y-18591569D02*
X134534761Y-18591569D01*
X133915713Y-18591569D02*
X133820475Y-18591569D01*
X133820475Y-18591569D02*
X133725237Y-18639188D01*
X133725237Y-18639188D02*
X133677618Y-18686807D01*
X133677618Y-18686807D02*
X133629999Y-18782045D01*
X133629999Y-18782045D02*
X133582380Y-18972521D01*
X133582380Y-18972521D02*
X133582380Y-19210616D01*
X133582380Y-19210616D02*
X133629999Y-19401092D01*
X133629999Y-19401092D02*
X133677618Y-19496330D01*
X133677618Y-19496330D02*
X133725237Y-19543950D01*
X133725237Y-19543950D02*
X133820475Y-19591569D01*
X133820475Y-19591569D02*
X133915713Y-19591569D01*
X133915713Y-19591569D02*
X134010951Y-19543950D01*
X134010951Y-19543950D02*
X134058570Y-19496330D01*
X134058570Y-19496330D02*
X134106189Y-19401092D01*
X134106189Y-19401092D02*
X134153808Y-19210616D01*
X134153808Y-19210616D02*
X134153808Y-18972521D01*
X134153808Y-18972521D02*
X134106189Y-18782045D01*
X134106189Y-18782045D02*
X134058570Y-18686807D01*
X134058570Y-18686807D02*
X134010951Y-18639188D01*
X134010951Y-18639188D02*
X133915713Y-18591569D01*
X176777257Y-35572618D02*
X176205829Y-35572618D01*
X176491543Y-36572618D02*
X176491543Y-35572618D01*
X175872495Y-36572618D02*
X175872495Y-35572618D01*
X175872495Y-35572618D02*
X175491543Y-35572618D01*
X175491543Y-35572618D02*
X175396305Y-35620237D01*
X175396305Y-35620237D02*
X175348686Y-35667856D01*
X175348686Y-35667856D02*
X175301067Y-35763094D01*
X175301067Y-35763094D02*
X175301067Y-35905951D01*
X175301067Y-35905951D02*
X175348686Y-36001189D01*
X175348686Y-36001189D02*
X175396305Y-36048808D01*
X175396305Y-36048808D02*
X175491543Y-36096427D01*
X175491543Y-36096427D02*
X175872495Y-36096427D01*
X174443924Y-35905951D02*
X174443924Y-36572618D01*
X174682019Y-35524999D02*
X174920114Y-36239284D01*
X174920114Y-36239284D02*
X174301067Y-36239284D01*
X154114285Y-90579269D02*
X154114285Y-91388792D01*
X154114285Y-91388792D02*
X154066666Y-91484030D01*
X154066666Y-91484030D02*
X154019047Y-91531650D01*
X154019047Y-91531650D02*
X153923809Y-91579269D01*
X153923809Y-91579269D02*
X153733333Y-91579269D01*
X153733333Y-91579269D02*
X153638095Y-91531650D01*
X153638095Y-91531650D02*
X153590476Y-91484030D01*
X153590476Y-91484030D02*
X153542857Y-91388792D01*
X153542857Y-91388792D02*
X153542857Y-90579269D01*
X153304762Y-91674507D02*
X152542857Y-91674507D01*
X152352380Y-91531650D02*
X152209523Y-91579269D01*
X152209523Y-91579269D02*
X151971428Y-91579269D01*
X151971428Y-91579269D02*
X151876190Y-91531650D01*
X151876190Y-91531650D02*
X151828571Y-91484030D01*
X151828571Y-91484030D02*
X151780952Y-91388792D01*
X151780952Y-91388792D02*
X151780952Y-91293554D01*
X151780952Y-91293554D02*
X151828571Y-91198316D01*
X151828571Y-91198316D02*
X151876190Y-91150697D01*
X151876190Y-91150697D02*
X151971428Y-91103078D01*
X151971428Y-91103078D02*
X152161904Y-91055459D01*
X152161904Y-91055459D02*
X152257142Y-91007840D01*
X152257142Y-91007840D02*
X152304761Y-90960221D01*
X152304761Y-90960221D02*
X152352380Y-90864983D01*
X152352380Y-90864983D02*
X152352380Y-90769745D01*
X152352380Y-90769745D02*
X152304761Y-90674507D01*
X152304761Y-90674507D02*
X152257142Y-90626888D01*
X152257142Y-90626888D02*
X152161904Y-90579269D01*
X152161904Y-90579269D02*
X151923809Y-90579269D01*
X151923809Y-90579269D02*
X151780952Y-90626888D01*
X151352380Y-91579269D02*
X151352380Y-90579269D01*
X151352380Y-90579269D02*
X151019047Y-91293554D01*
X151019047Y-91293554D02*
X150685714Y-90579269D01*
X150685714Y-90579269D02*
X150685714Y-91579269D01*
X144060959Y-38066623D02*
X144060959Y-36898223D01*
X143504578Y-38066623D02*
X143504578Y-36898223D01*
X143504578Y-36898223D02*
X142836921Y-38066623D01*
X142836921Y-38066623D02*
X142836921Y-36898223D01*
X142336178Y-38010985D02*
X142169264Y-38066623D01*
X142169264Y-38066623D02*
X141891073Y-38066623D01*
X141891073Y-38066623D02*
X141779797Y-38010985D01*
X141779797Y-38010985D02*
X141724159Y-37955346D01*
X141724159Y-37955346D02*
X141668521Y-37844070D01*
X141668521Y-37844070D02*
X141668521Y-37732794D01*
X141668521Y-37732794D02*
X141724159Y-37621518D01*
X141724159Y-37621518D02*
X141779797Y-37565880D01*
X141779797Y-37565880D02*
X141891073Y-37510242D01*
X141891073Y-37510242D02*
X142113626Y-37454604D01*
X142113626Y-37454604D02*
X142224902Y-37398965D01*
X142224902Y-37398965D02*
X142280540Y-37343327D01*
X142280540Y-37343327D02*
X142336178Y-37232051D01*
X142336178Y-37232051D02*
X142336178Y-37120775D01*
X142336178Y-37120775D02*
X142280540Y-37009499D01*
X142280540Y-37009499D02*
X142224902Y-36953861D01*
X142224902Y-36953861D02*
X142113626Y-36898223D01*
X142113626Y-36898223D02*
X141835435Y-36898223D01*
X141835435Y-36898223D02*
X141668521Y-36953861D01*
X141334692Y-36898223D02*
X140667035Y-36898223D01*
X141000864Y-38066623D02*
X141000864Y-36898223D01*
X140333206Y-37732794D02*
X139776825Y-37732794D01*
X140444482Y-38066623D02*
X140055016Y-36898223D01*
X140055016Y-36898223D02*
X139665549Y-38066623D01*
X138719701Y-38066623D02*
X139276082Y-38066623D01*
X139276082Y-38066623D02*
X139276082Y-36898223D01*
X137773853Y-38066623D02*
X138330234Y-38066623D01*
X138330234Y-38066623D02*
X138330234Y-36898223D01*
X136271624Y-36898223D02*
X136049071Y-36898223D01*
X136049071Y-36898223D02*
X135937795Y-36953861D01*
X135937795Y-36953861D02*
X135826519Y-37065137D01*
X135826519Y-37065137D02*
X135770881Y-37287689D01*
X135770881Y-37287689D02*
X135770881Y-37677156D01*
X135770881Y-37677156D02*
X135826519Y-37899708D01*
X135826519Y-37899708D02*
X135937795Y-38010985D01*
X135937795Y-38010985D02*
X136049071Y-38066623D01*
X136049071Y-38066623D02*
X136271624Y-38066623D01*
X136271624Y-38066623D02*
X136382900Y-38010985D01*
X136382900Y-38010985D02*
X136494176Y-37899708D01*
X136494176Y-37899708D02*
X136549814Y-37677156D01*
X136549814Y-37677156D02*
X136549814Y-37287689D01*
X136549814Y-37287689D02*
X136494176Y-37065137D01*
X136494176Y-37065137D02*
X136382900Y-36953861D01*
X136382900Y-36953861D02*
X136271624Y-36898223D01*
X135270138Y-38066623D02*
X135270138Y-36898223D01*
X135270138Y-36898223D02*
X134602481Y-38066623D01*
X134602481Y-38066623D02*
X134602481Y-36898223D01*
X144227873Y-38779282D02*
X143560216Y-38779282D01*
X143894045Y-39947682D02*
X143894045Y-38779282D01*
X143170749Y-39947682D02*
X143170749Y-38779282D01*
X143170749Y-39335663D02*
X142503092Y-39335663D01*
X142503092Y-39947682D02*
X142503092Y-38779282D01*
X141946711Y-39947682D02*
X141946711Y-38779282D01*
X141445968Y-39892044D02*
X141279054Y-39947682D01*
X141279054Y-39947682D02*
X141000863Y-39947682D01*
X141000863Y-39947682D02*
X140889587Y-39892044D01*
X140889587Y-39892044D02*
X140833949Y-39836405D01*
X140833949Y-39836405D02*
X140778311Y-39725129D01*
X140778311Y-39725129D02*
X140778311Y-39613853D01*
X140778311Y-39613853D02*
X140833949Y-39502577D01*
X140833949Y-39502577D02*
X140889587Y-39446939D01*
X140889587Y-39446939D02*
X141000863Y-39391301D01*
X141000863Y-39391301D02*
X141223416Y-39335663D01*
X141223416Y-39335663D02*
X141334692Y-39280024D01*
X141334692Y-39280024D02*
X141390330Y-39224386D01*
X141390330Y-39224386D02*
X141445968Y-39113110D01*
X141445968Y-39113110D02*
X141445968Y-39001834D01*
X141445968Y-39001834D02*
X141390330Y-38890558D01*
X141390330Y-38890558D02*
X141334692Y-38834920D01*
X141334692Y-38834920D02*
X141223416Y-38779282D01*
X141223416Y-38779282D02*
X140945225Y-38779282D01*
X140945225Y-38779282D02*
X140778311Y-38834920D01*
X139442996Y-39892044D02*
X139276082Y-39947682D01*
X139276082Y-39947682D02*
X138997891Y-39947682D01*
X138997891Y-39947682D02*
X138886615Y-39892044D01*
X138886615Y-39892044D02*
X138830977Y-39836405D01*
X138830977Y-39836405D02*
X138775339Y-39725129D01*
X138775339Y-39725129D02*
X138775339Y-39613853D01*
X138775339Y-39613853D02*
X138830977Y-39502577D01*
X138830977Y-39502577D02*
X138886615Y-39446939D01*
X138886615Y-39446939D02*
X138997891Y-39391301D01*
X138997891Y-39391301D02*
X139220444Y-39335663D01*
X139220444Y-39335663D02*
X139331720Y-39280024D01*
X139331720Y-39280024D02*
X139387358Y-39224386D01*
X139387358Y-39224386D02*
X139442996Y-39113110D01*
X139442996Y-39113110D02*
X139442996Y-39001834D01*
X139442996Y-39001834D02*
X139387358Y-38890558D01*
X139387358Y-38890558D02*
X139331720Y-38834920D01*
X139331720Y-38834920D02*
X139220444Y-38779282D01*
X139220444Y-38779282D02*
X138942253Y-38779282D01*
X138942253Y-38779282D02*
X138775339Y-38834920D01*
X138274596Y-39947682D02*
X138274596Y-38779282D01*
X137718215Y-39947682D02*
X137718215Y-38779282D01*
X137718215Y-38779282D02*
X137440025Y-38779282D01*
X137440025Y-38779282D02*
X137273110Y-38834920D01*
X137273110Y-38834920D02*
X137161834Y-38946196D01*
X137161834Y-38946196D02*
X137106196Y-39057472D01*
X137106196Y-39057472D02*
X137050558Y-39280024D01*
X137050558Y-39280024D02*
X137050558Y-39446939D01*
X137050558Y-39446939D02*
X137106196Y-39669491D01*
X137106196Y-39669491D02*
X137161834Y-39780767D01*
X137161834Y-39780767D02*
X137273110Y-39892044D01*
X137273110Y-39892044D02*
X137440025Y-39947682D01*
X137440025Y-39947682D02*
X137718215Y-39947682D01*
X136549815Y-39335663D02*
X136160348Y-39335663D01*
X135993434Y-39947682D02*
X136549815Y-39947682D01*
X136549815Y-39947682D02*
X136549815Y-38779282D01*
X136549815Y-38779282D02*
X135993434Y-38779282D01*
X102367857Y-60116330D02*
X102415476Y-60163950D01*
X102415476Y-60163950D02*
X102558333Y-60211569D01*
X102558333Y-60211569D02*
X102653571Y-60211569D01*
X102653571Y-60211569D02*
X102796428Y-60163950D01*
X102796428Y-60163950D02*
X102891666Y-60068711D01*
X102891666Y-60068711D02*
X102939285Y-59973473D01*
X102939285Y-59973473D02*
X102986904Y-59782997D01*
X102986904Y-59782997D02*
X102986904Y-59640140D01*
X102986904Y-59640140D02*
X102939285Y-59449664D01*
X102939285Y-59449664D02*
X102891666Y-59354426D01*
X102891666Y-59354426D02*
X102796428Y-59259188D01*
X102796428Y-59259188D02*
X102653571Y-59211569D01*
X102653571Y-59211569D02*
X102558333Y-59211569D01*
X102558333Y-59211569D02*
X102415476Y-59259188D01*
X102415476Y-59259188D02*
X102367857Y-59306807D01*
X101415476Y-60211569D02*
X101986904Y-60211569D01*
X101701190Y-60211569D02*
X101701190Y-59211569D01*
X101701190Y-59211569D02*
X101796428Y-59354426D01*
X101796428Y-59354426D02*
X101891666Y-59449664D01*
X101891666Y-59449664D02*
X101986904Y-59497283D01*
X100463095Y-60211569D02*
X101034523Y-60211569D01*
X100748809Y-60211569D02*
X100748809Y-59211569D01*
X100748809Y-59211569D02*
X100844047Y-59354426D01*
X100844047Y-59354426D02*
X100939285Y-59449664D01*
X100939285Y-59449664D02*
X101034523Y-59497283D01*
X256114284Y-84701194D02*
X256114284Y-85510717D01*
X256114284Y-85510717D02*
X256066665Y-85605955D01*
X256066665Y-85605955D02*
X256019046Y-85653575D01*
X256019046Y-85653575D02*
X255923808Y-85701194D01*
X255923808Y-85701194D02*
X255733332Y-85701194D01*
X255733332Y-85701194D02*
X255638094Y-85653575D01*
X255638094Y-85653575D02*
X255590475Y-85605955D01*
X255590475Y-85605955D02*
X255542856Y-85510717D01*
X255542856Y-85510717D02*
X255542856Y-84701194D01*
X255304761Y-85796432D02*
X254542856Y-85796432D01*
X254304760Y-85701194D02*
X254304760Y-84701194D01*
X254304760Y-84701194D02*
X253971427Y-85415479D01*
X253971427Y-85415479D02*
X253638094Y-84701194D01*
X253638094Y-84701194D02*
X253638094Y-85701194D01*
X253161903Y-84701194D02*
X253161903Y-85510717D01*
X253161903Y-85510717D02*
X253114284Y-85605955D01*
X253114284Y-85605955D02*
X253066665Y-85653575D01*
X253066665Y-85653575D02*
X252971427Y-85701194D01*
X252971427Y-85701194D02*
X252780951Y-85701194D01*
X252780951Y-85701194D02*
X252685713Y-85653575D01*
X252685713Y-85653575D02*
X252638094Y-85605955D01*
X252638094Y-85605955D02*
X252590475Y-85510717D01*
X252590475Y-85510717D02*
X252590475Y-84701194D01*
X252209522Y-84701194D02*
X251542856Y-85701194D01*
X251542856Y-84701194D02*
X252209522Y-85701194D01*
X250685713Y-84701194D02*
X251161903Y-84701194D01*
X251161903Y-84701194D02*
X251209522Y-85177384D01*
X251209522Y-85177384D02*
X251161903Y-85129765D01*
X251161903Y-85129765D02*
X251066665Y-85082146D01*
X251066665Y-85082146D02*
X250828570Y-85082146D01*
X250828570Y-85082146D02*
X250733332Y-85129765D01*
X250733332Y-85129765D02*
X250685713Y-85177384D01*
X250685713Y-85177384D02*
X250638094Y-85272622D01*
X250638094Y-85272622D02*
X250638094Y-85510717D01*
X250638094Y-85510717D02*
X250685713Y-85605955D01*
X250685713Y-85605955D02*
X250733332Y-85653575D01*
X250733332Y-85653575D02*
X250828570Y-85701194D01*
X250828570Y-85701194D02*
X251066665Y-85701194D01*
X251066665Y-85701194D02*
X251161903Y-85653575D01*
X251161903Y-85653575D02*
X251209522Y-85605955D01*
X283212857Y-109381569D02*
X283546190Y-108905378D01*
X283784285Y-109381569D02*
X283784285Y-108381569D01*
X283784285Y-108381569D02*
X283403333Y-108381569D01*
X283403333Y-108381569D02*
X283308095Y-108429188D01*
X283308095Y-108429188D02*
X283260476Y-108476807D01*
X283260476Y-108476807D02*
X283212857Y-108572045D01*
X283212857Y-108572045D02*
X283212857Y-108714902D01*
X283212857Y-108714902D02*
X283260476Y-108810140D01*
X283260476Y-108810140D02*
X283308095Y-108857759D01*
X283308095Y-108857759D02*
X283403333Y-108905378D01*
X283403333Y-108905378D02*
X283784285Y-108905378D01*
X282879523Y-108381569D02*
X282260476Y-108381569D01*
X282260476Y-108381569D02*
X282593809Y-108762521D01*
X282593809Y-108762521D02*
X282450952Y-108762521D01*
X282450952Y-108762521D02*
X282355714Y-108810140D01*
X282355714Y-108810140D02*
X282308095Y-108857759D01*
X282308095Y-108857759D02*
X282260476Y-108952997D01*
X282260476Y-108952997D02*
X282260476Y-109191092D01*
X282260476Y-109191092D02*
X282308095Y-109286330D01*
X282308095Y-109286330D02*
X282355714Y-109333950D01*
X282355714Y-109333950D02*
X282450952Y-109381569D01*
X282450952Y-109381569D02*
X282736666Y-109381569D01*
X282736666Y-109381569D02*
X282831904Y-109333950D01*
X282831904Y-109333950D02*
X282879523Y-109286330D01*
X281879523Y-108476807D02*
X281831904Y-108429188D01*
X281831904Y-108429188D02*
X281736666Y-108381569D01*
X281736666Y-108381569D02*
X281498571Y-108381569D01*
X281498571Y-108381569D02*
X281403333Y-108429188D01*
X281403333Y-108429188D02*
X281355714Y-108476807D01*
X281355714Y-108476807D02*
X281308095Y-108572045D01*
X281308095Y-108572045D02*
X281308095Y-108667283D01*
X281308095Y-108667283D02*
X281355714Y-108810140D01*
X281355714Y-108810140D02*
X281927142Y-109381569D01*
X281927142Y-109381569D02*
X281308095Y-109381569D01*
X92924195Y-51813678D02*
X93257528Y-51337487D01*
X93495623Y-51813678D02*
X93495623Y-50813678D01*
X93495623Y-50813678D02*
X93114671Y-50813678D01*
X93114671Y-50813678D02*
X93019433Y-50861297D01*
X93019433Y-50861297D02*
X92971814Y-50908916D01*
X92971814Y-50908916D02*
X92924195Y-51004154D01*
X92924195Y-51004154D02*
X92924195Y-51147011D01*
X92924195Y-51147011D02*
X92971814Y-51242249D01*
X92971814Y-51242249D02*
X93019433Y-51289868D01*
X93019433Y-51289868D02*
X93114671Y-51337487D01*
X93114671Y-51337487D02*
X93495623Y-51337487D01*
X91971814Y-51813678D02*
X92543242Y-51813678D01*
X92257528Y-51813678D02*
X92257528Y-50813678D01*
X92257528Y-50813678D02*
X92352766Y-50956535D01*
X92352766Y-50956535D02*
X92448004Y-51051773D01*
X92448004Y-51051773D02*
X92543242Y-51099392D01*
X91352766Y-50813678D02*
X91257528Y-50813678D01*
X91257528Y-50813678D02*
X91162290Y-50861297D01*
X91162290Y-50861297D02*
X91114671Y-50908916D01*
X91114671Y-50908916D02*
X91067052Y-51004154D01*
X91067052Y-51004154D02*
X91019433Y-51194630D01*
X91019433Y-51194630D02*
X91019433Y-51432725D01*
X91019433Y-51432725D02*
X91067052Y-51623201D01*
X91067052Y-51623201D02*
X91114671Y-51718439D01*
X91114671Y-51718439D02*
X91162290Y-51766059D01*
X91162290Y-51766059D02*
X91257528Y-51813678D01*
X91257528Y-51813678D02*
X91352766Y-51813678D01*
X91352766Y-51813678D02*
X91448004Y-51766059D01*
X91448004Y-51766059D02*
X91495623Y-51718439D01*
X91495623Y-51718439D02*
X91543242Y-51623201D01*
X91543242Y-51623201D02*
X91590861Y-51432725D01*
X91590861Y-51432725D02*
X91590861Y-51194630D01*
X91590861Y-51194630D02*
X91543242Y-51004154D01*
X91543242Y-51004154D02*
X91495623Y-50908916D01*
X91495623Y-50908916D02*
X91448004Y-50861297D01*
X91448004Y-50861297D02*
X91352766Y-50813678D01*
X127142857Y-114508068D02*
X127476190Y-114031877D01*
X127714285Y-114508068D02*
X127714285Y-113508068D01*
X127714285Y-113508068D02*
X127333333Y-113508068D01*
X127333333Y-113508068D02*
X127238095Y-113555687D01*
X127238095Y-113555687D02*
X127190476Y-113603306D01*
X127190476Y-113603306D02*
X127142857Y-113698544D01*
X127142857Y-113698544D02*
X127142857Y-113841401D01*
X127142857Y-113841401D02*
X127190476Y-113936639D01*
X127190476Y-113936639D02*
X127238095Y-113984258D01*
X127238095Y-113984258D02*
X127333333Y-114031877D01*
X127333333Y-114031877D02*
X127714285Y-114031877D01*
X126761904Y-113603306D02*
X126714285Y-113555687D01*
X126714285Y-113555687D02*
X126619047Y-113508068D01*
X126619047Y-113508068D02*
X126380952Y-113508068D01*
X126380952Y-113508068D02*
X126285714Y-113555687D01*
X126285714Y-113555687D02*
X126238095Y-113603306D01*
X126238095Y-113603306D02*
X126190476Y-113698544D01*
X126190476Y-113698544D02*
X126190476Y-113793782D01*
X126190476Y-113793782D02*
X126238095Y-113936639D01*
X126238095Y-113936639D02*
X126809523Y-114508068D01*
X126809523Y-114508068D02*
X126190476Y-114508068D01*
X125333333Y-113841401D02*
X125333333Y-114508068D01*
X125571428Y-113460449D02*
X125809523Y-114174734D01*
X125809523Y-114174734D02*
X125190476Y-114174734D01*
X129562220Y-60601325D02*
X128990792Y-60601325D01*
X129276506Y-61601325D02*
X129276506Y-60601325D01*
X128657458Y-61601325D02*
X128657458Y-60601325D01*
X128657458Y-60601325D02*
X128276506Y-60601325D01*
X128276506Y-60601325D02*
X128181268Y-60648944D01*
X128181268Y-60648944D02*
X128133649Y-60696563D01*
X128133649Y-60696563D02*
X128086030Y-60791801D01*
X128086030Y-60791801D02*
X128086030Y-60934658D01*
X128086030Y-60934658D02*
X128133649Y-61029896D01*
X128133649Y-61029896D02*
X128181268Y-61077515D01*
X128181268Y-61077515D02*
X128276506Y-61125134D01*
X128276506Y-61125134D02*
X128657458Y-61125134D01*
X127133649Y-61601325D02*
X127705077Y-61601325D01*
X127419363Y-61601325D02*
X127419363Y-60601325D01*
X127419363Y-60601325D02*
X127514601Y-60744182D01*
X127514601Y-60744182D02*
X127609839Y-60839420D01*
X127609839Y-60839420D02*
X127705077Y-60887039D01*
X126181268Y-61601325D02*
X126752696Y-61601325D01*
X126466982Y-61601325D02*
X126466982Y-60601325D01*
X126466982Y-60601325D02*
X126562220Y-60744182D01*
X126562220Y-60744182D02*
X126657458Y-60839420D01*
X126657458Y-60839420D02*
X126752696Y-60887039D01*
X98861569Y-64910714D02*
X99671092Y-64910714D01*
X99671092Y-64910714D02*
X99766330Y-64958333D01*
X99766330Y-64958333D02*
X99813950Y-65005952D01*
X99813950Y-65005952D02*
X99861569Y-65101190D01*
X99861569Y-65101190D02*
X99861569Y-65291666D01*
X99861569Y-65291666D02*
X99813950Y-65386904D01*
X99813950Y-65386904D02*
X99766330Y-65434523D01*
X99766330Y-65434523D02*
X99671092Y-65482142D01*
X99671092Y-65482142D02*
X98861569Y-65482142D01*
X99956807Y-65720238D02*
X99956807Y-66482142D01*
X99861569Y-66720238D02*
X98861569Y-66720238D01*
X98861569Y-66720238D02*
X99575854Y-67053571D01*
X99575854Y-67053571D02*
X98861569Y-67386904D01*
X98861569Y-67386904D02*
X99861569Y-67386904D01*
X98861569Y-67863095D02*
X99671092Y-67863095D01*
X99671092Y-67863095D02*
X99766330Y-67910714D01*
X99766330Y-67910714D02*
X99813950Y-67958333D01*
X99813950Y-67958333D02*
X99861569Y-68053571D01*
X99861569Y-68053571D02*
X99861569Y-68244047D01*
X99861569Y-68244047D02*
X99813950Y-68339285D01*
X99813950Y-68339285D02*
X99766330Y-68386904D01*
X99766330Y-68386904D02*
X99671092Y-68434523D01*
X99671092Y-68434523D02*
X98861569Y-68434523D01*
X98861569Y-68815476D02*
X99861569Y-69482142D01*
X98861569Y-69482142D02*
X99861569Y-68815476D01*
X98861569Y-69767857D02*
X98861569Y-70434523D01*
X98861569Y-70434523D02*
X99861569Y-70005952D01*
X173925941Y-41620340D02*
X174259274Y-41144149D01*
X174497369Y-41620340D02*
X174497369Y-40620340D01*
X174497369Y-40620340D02*
X174116417Y-40620340D01*
X174116417Y-40620340D02*
X174021179Y-40667959D01*
X174021179Y-40667959D02*
X173973560Y-40715578D01*
X173973560Y-40715578D02*
X173925941Y-40810816D01*
X173925941Y-40810816D02*
X173925941Y-40953673D01*
X173925941Y-40953673D02*
X173973560Y-41048911D01*
X173973560Y-41048911D02*
X174021179Y-41096530D01*
X174021179Y-41096530D02*
X174116417Y-41144149D01*
X174116417Y-41144149D02*
X174497369Y-41144149D01*
X173354512Y-41048911D02*
X173449750Y-41001292D01*
X173449750Y-41001292D02*
X173497369Y-40953673D01*
X173497369Y-40953673D02*
X173544988Y-40858435D01*
X173544988Y-40858435D02*
X173544988Y-40810816D01*
X173544988Y-40810816D02*
X173497369Y-40715578D01*
X173497369Y-40715578D02*
X173449750Y-40667959D01*
X173449750Y-40667959D02*
X173354512Y-40620340D01*
X173354512Y-40620340D02*
X173164036Y-40620340D01*
X173164036Y-40620340D02*
X173068798Y-40667959D01*
X173068798Y-40667959D02*
X173021179Y-40715578D01*
X173021179Y-40715578D02*
X172973560Y-40810816D01*
X172973560Y-40810816D02*
X172973560Y-40858435D01*
X172973560Y-40858435D02*
X173021179Y-40953673D01*
X173021179Y-40953673D02*
X173068798Y-41001292D01*
X173068798Y-41001292D02*
X173164036Y-41048911D01*
X173164036Y-41048911D02*
X173354512Y-41048911D01*
X173354512Y-41048911D02*
X173449750Y-41096530D01*
X173449750Y-41096530D02*
X173497369Y-41144149D01*
X173497369Y-41144149D02*
X173544988Y-41239387D01*
X173544988Y-41239387D02*
X173544988Y-41429863D01*
X173544988Y-41429863D02*
X173497369Y-41525101D01*
X173497369Y-41525101D02*
X173449750Y-41572721D01*
X173449750Y-41572721D02*
X173354512Y-41620340D01*
X173354512Y-41620340D02*
X173164036Y-41620340D01*
X173164036Y-41620340D02*
X173068798Y-41572721D01*
X173068798Y-41572721D02*
X173021179Y-41525101D01*
X173021179Y-41525101D02*
X172973560Y-41429863D01*
X172973560Y-41429863D02*
X172973560Y-41239387D01*
X172973560Y-41239387D02*
X173021179Y-41144149D01*
X173021179Y-41144149D02*
X173068798Y-41096530D01*
X173068798Y-41096530D02*
X173164036Y-41048911D01*
X43941666Y-32790329D02*
X43989285Y-32837949D01*
X43989285Y-32837949D02*
X44132142Y-32885568D01*
X44132142Y-32885568D02*
X44227380Y-32885568D01*
X44227380Y-32885568D02*
X44370237Y-32837949D01*
X44370237Y-32837949D02*
X44465475Y-32742710D01*
X44465475Y-32742710D02*
X44513094Y-32647472D01*
X44513094Y-32647472D02*
X44560713Y-32456996D01*
X44560713Y-32456996D02*
X44560713Y-32314139D01*
X44560713Y-32314139D02*
X44513094Y-32123663D01*
X44513094Y-32123663D02*
X44465475Y-32028425D01*
X44465475Y-32028425D02*
X44370237Y-31933187D01*
X44370237Y-31933187D02*
X44227380Y-31885568D01*
X44227380Y-31885568D02*
X44132142Y-31885568D01*
X44132142Y-31885568D02*
X43989285Y-31933187D01*
X43989285Y-31933187D02*
X43941666Y-31980806D01*
X43608332Y-31885568D02*
X42941666Y-31885568D01*
X42941666Y-31885568D02*
X43370237Y-32885568D01*
X110389046Y-84863444D02*
X110389046Y-85672967D01*
X110389046Y-85672967D02*
X110341427Y-85768205D01*
X110341427Y-85768205D02*
X110293808Y-85815825D01*
X110293808Y-85815825D02*
X110198570Y-85863444D01*
X110198570Y-85863444D02*
X110008094Y-85863444D01*
X110008094Y-85863444D02*
X109912856Y-85815825D01*
X109912856Y-85815825D02*
X109865237Y-85768205D01*
X109865237Y-85768205D02*
X109817618Y-85672967D01*
X109817618Y-85672967D02*
X109817618Y-84863444D01*
X109579523Y-85958682D02*
X108817618Y-85958682D01*
X108627141Y-85815825D02*
X108484284Y-85863444D01*
X108484284Y-85863444D02*
X108246189Y-85863444D01*
X108246189Y-85863444D02*
X108150951Y-85815825D01*
X108150951Y-85815825D02*
X108103332Y-85768205D01*
X108103332Y-85768205D02*
X108055713Y-85672967D01*
X108055713Y-85672967D02*
X108055713Y-85577729D01*
X108055713Y-85577729D02*
X108103332Y-85482491D01*
X108103332Y-85482491D02*
X108150951Y-85434872D01*
X108150951Y-85434872D02*
X108246189Y-85387253D01*
X108246189Y-85387253D02*
X108436665Y-85339634D01*
X108436665Y-85339634D02*
X108531903Y-85292015D01*
X108531903Y-85292015D02*
X108579522Y-85244396D01*
X108579522Y-85244396D02*
X108627141Y-85149158D01*
X108627141Y-85149158D02*
X108627141Y-85053920D01*
X108627141Y-85053920D02*
X108579522Y-84958682D01*
X108579522Y-84958682D02*
X108531903Y-84911063D01*
X108531903Y-84911063D02*
X108436665Y-84863444D01*
X108436665Y-84863444D02*
X108198570Y-84863444D01*
X108198570Y-84863444D02*
X108055713Y-84911063D01*
X107055713Y-85863444D02*
X107389046Y-85387253D01*
X107627141Y-85863444D02*
X107627141Y-84863444D01*
X107627141Y-84863444D02*
X107246189Y-84863444D01*
X107246189Y-84863444D02*
X107150951Y-84911063D01*
X107150951Y-84911063D02*
X107103332Y-84958682D01*
X107103332Y-84958682D02*
X107055713Y-85053920D01*
X107055713Y-85053920D02*
X107055713Y-85196777D01*
X107055713Y-85196777D02*
X107103332Y-85292015D01*
X107103332Y-85292015D02*
X107150951Y-85339634D01*
X107150951Y-85339634D02*
X107246189Y-85387253D01*
X107246189Y-85387253D02*
X107627141Y-85387253D01*
X106722379Y-84863444D02*
X106103332Y-84863444D01*
X106103332Y-84863444D02*
X106436665Y-85244396D01*
X106436665Y-85244396D02*
X106293808Y-85244396D01*
X106293808Y-85244396D02*
X106198570Y-85292015D01*
X106198570Y-85292015D02*
X106150951Y-85339634D01*
X106150951Y-85339634D02*
X106103332Y-85434872D01*
X106103332Y-85434872D02*
X106103332Y-85672967D01*
X106103332Y-85672967D02*
X106150951Y-85768205D01*
X106150951Y-85768205D02*
X106198570Y-85815825D01*
X106198570Y-85815825D02*
X106293808Y-85863444D01*
X106293808Y-85863444D02*
X106579522Y-85863444D01*
X106579522Y-85863444D02*
X106674760Y-85815825D01*
X106674760Y-85815825D02*
X106722379Y-85768205D01*
X44014285Y-75599069D02*
X44014285Y-76408592D01*
X44014285Y-76408592D02*
X43966666Y-76503830D01*
X43966666Y-76503830D02*
X43919047Y-76551450D01*
X43919047Y-76551450D02*
X43823809Y-76599069D01*
X43823809Y-76599069D02*
X43633333Y-76599069D01*
X43633333Y-76599069D02*
X43538095Y-76551450D01*
X43538095Y-76551450D02*
X43490476Y-76503830D01*
X43490476Y-76503830D02*
X43442857Y-76408592D01*
X43442857Y-76408592D02*
X43442857Y-75599069D01*
X43204762Y-76694307D02*
X42442857Y-76694307D01*
X42204761Y-76599069D02*
X42204761Y-75599069D01*
X42204761Y-75599069D02*
X41871428Y-76313354D01*
X41871428Y-76313354D02*
X41538095Y-75599069D01*
X41538095Y-75599069D02*
X41538095Y-76599069D01*
X41061904Y-75599069D02*
X41061904Y-76408592D01*
X41061904Y-76408592D02*
X41014285Y-76503830D01*
X41014285Y-76503830D02*
X40966666Y-76551450D01*
X40966666Y-76551450D02*
X40871428Y-76599069D01*
X40871428Y-76599069D02*
X40680952Y-76599069D01*
X40680952Y-76599069D02*
X40585714Y-76551450D01*
X40585714Y-76551450D02*
X40538095Y-76503830D01*
X40538095Y-76503830D02*
X40490476Y-76408592D01*
X40490476Y-76408592D02*
X40490476Y-75599069D01*
X40109523Y-75599069D02*
X39442857Y-76599069D01*
X39442857Y-75599069D02*
X40109523Y-76599069D01*
X39109523Y-75694307D02*
X39061904Y-75646688D01*
X39061904Y-75646688D02*
X38966666Y-75599069D01*
X38966666Y-75599069D02*
X38728571Y-75599069D01*
X38728571Y-75599069D02*
X38633333Y-75646688D01*
X38633333Y-75646688D02*
X38585714Y-75694307D01*
X38585714Y-75694307D02*
X38538095Y-75789545D01*
X38538095Y-75789545D02*
X38538095Y-75884783D01*
X38538095Y-75884783D02*
X38585714Y-76027640D01*
X38585714Y-76027640D02*
X39157142Y-76599069D01*
X39157142Y-76599069D02*
X38538095Y-76599069D01*
X178139045Y-52454818D02*
X177567617Y-52454818D01*
X177853331Y-53454818D02*
X177853331Y-52454818D01*
X177234283Y-53454818D02*
X177234283Y-52454818D01*
X177234283Y-52454818D02*
X176853331Y-52454818D01*
X176853331Y-52454818D02*
X176758093Y-52502437D01*
X176758093Y-52502437D02*
X176710474Y-52550056D01*
X176710474Y-52550056D02*
X176662855Y-52645294D01*
X176662855Y-52645294D02*
X176662855Y-52788151D01*
X176662855Y-52788151D02*
X176710474Y-52883389D01*
X176710474Y-52883389D02*
X176758093Y-52931008D01*
X176758093Y-52931008D02*
X176853331Y-52978627D01*
X176853331Y-52978627D02*
X177234283Y-52978627D01*
X175805712Y-52454818D02*
X175996188Y-52454818D01*
X175996188Y-52454818D02*
X176091426Y-52502437D01*
X176091426Y-52502437D02*
X176139045Y-52550056D01*
X176139045Y-52550056D02*
X176234283Y-52692913D01*
X176234283Y-52692913D02*
X176281902Y-52883389D01*
X176281902Y-52883389D02*
X176281902Y-53264341D01*
X176281902Y-53264341D02*
X176234283Y-53359579D01*
X176234283Y-53359579D02*
X176186664Y-53407199D01*
X176186664Y-53407199D02*
X176091426Y-53454818D01*
X176091426Y-53454818D02*
X175900950Y-53454818D01*
X175900950Y-53454818D02*
X175805712Y-53407199D01*
X175805712Y-53407199D02*
X175758093Y-53359579D01*
X175758093Y-53359579D02*
X175710474Y-53264341D01*
X175710474Y-53264341D02*
X175710474Y-53026246D01*
X175710474Y-53026246D02*
X175758093Y-52931008D01*
X175758093Y-52931008D02*
X175805712Y-52883389D01*
X175805712Y-52883389D02*
X175900950Y-52835770D01*
X175900950Y-52835770D02*
X176091426Y-52835770D01*
X176091426Y-52835770D02*
X176186664Y-52883389D01*
X176186664Y-52883389D02*
X176234283Y-52931008D01*
X176234283Y-52931008D02*
X176281902Y-53026246D01*
X107042597Y-46213114D02*
X107042597Y-47022637D01*
X107042597Y-47022637D02*
X106994978Y-47117875D01*
X106994978Y-47117875D02*
X106947359Y-47165495D01*
X106947359Y-47165495D02*
X106852121Y-47213114D01*
X106852121Y-47213114D02*
X106661645Y-47213114D01*
X106661645Y-47213114D02*
X106566407Y-47165495D01*
X106566407Y-47165495D02*
X106518788Y-47117875D01*
X106518788Y-47117875D02*
X106471169Y-47022637D01*
X106471169Y-47022637D02*
X106471169Y-46213114D01*
X106233074Y-47308352D02*
X105471169Y-47308352D01*
X105280692Y-47165495D02*
X105137835Y-47213114D01*
X105137835Y-47213114D02*
X104899740Y-47213114D01*
X104899740Y-47213114D02*
X104804502Y-47165495D01*
X104804502Y-47165495D02*
X104756883Y-47117875D01*
X104756883Y-47117875D02*
X104709264Y-47022637D01*
X104709264Y-47022637D02*
X104709264Y-46927399D01*
X104709264Y-46927399D02*
X104756883Y-46832161D01*
X104756883Y-46832161D02*
X104804502Y-46784542D01*
X104804502Y-46784542D02*
X104899740Y-46736923D01*
X104899740Y-46736923D02*
X105090216Y-46689304D01*
X105090216Y-46689304D02*
X105185454Y-46641685D01*
X105185454Y-46641685D02*
X105233073Y-46594066D01*
X105233073Y-46594066D02*
X105280692Y-46498828D01*
X105280692Y-46498828D02*
X105280692Y-46403590D01*
X105280692Y-46403590D02*
X105233073Y-46308352D01*
X105233073Y-46308352D02*
X105185454Y-46260733D01*
X105185454Y-46260733D02*
X105090216Y-46213114D01*
X105090216Y-46213114D02*
X104852121Y-46213114D01*
X104852121Y-46213114D02*
X104709264Y-46260733D01*
X103709264Y-47213114D02*
X104042597Y-46736923D01*
X104280692Y-47213114D02*
X104280692Y-46213114D01*
X104280692Y-46213114D02*
X103899740Y-46213114D01*
X103899740Y-46213114D02*
X103804502Y-46260733D01*
X103804502Y-46260733D02*
X103756883Y-46308352D01*
X103756883Y-46308352D02*
X103709264Y-46403590D01*
X103709264Y-46403590D02*
X103709264Y-46546447D01*
X103709264Y-46546447D02*
X103756883Y-46641685D01*
X103756883Y-46641685D02*
X103804502Y-46689304D01*
X103804502Y-46689304D02*
X103899740Y-46736923D01*
X103899740Y-46736923D02*
X104280692Y-46736923D01*
X102756883Y-47213114D02*
X103328311Y-47213114D01*
X103042597Y-47213114D02*
X103042597Y-46213114D01*
X103042597Y-46213114D02*
X103137835Y-46355971D01*
X103137835Y-46355971D02*
X103233073Y-46451209D01*
X103233073Y-46451209D02*
X103328311Y-46498828D01*
X129551696Y-71588633D02*
X129885029Y-71112442D01*
X130123124Y-71588633D02*
X130123124Y-70588633D01*
X130123124Y-70588633D02*
X129742172Y-70588633D01*
X129742172Y-70588633D02*
X129646934Y-70636252D01*
X129646934Y-70636252D02*
X129599315Y-70683871D01*
X129599315Y-70683871D02*
X129551696Y-70779109D01*
X129551696Y-70779109D02*
X129551696Y-70921966D01*
X129551696Y-70921966D02*
X129599315Y-71017204D01*
X129599315Y-71017204D02*
X129646934Y-71064823D01*
X129646934Y-71064823D02*
X129742172Y-71112442D01*
X129742172Y-71112442D02*
X130123124Y-71112442D01*
X128599315Y-71588633D02*
X129170743Y-71588633D01*
X128885029Y-71588633D02*
X128885029Y-70588633D01*
X128885029Y-70588633D02*
X128980267Y-70731490D01*
X128980267Y-70731490D02*
X129075505Y-70826728D01*
X129075505Y-70826728D02*
X129170743Y-70874347D01*
X128265981Y-70588633D02*
X127646934Y-70588633D01*
X127646934Y-70588633D02*
X127980267Y-70969585D01*
X127980267Y-70969585D02*
X127837410Y-70969585D01*
X127837410Y-70969585D02*
X127742172Y-71017204D01*
X127742172Y-71017204D02*
X127694553Y-71064823D01*
X127694553Y-71064823D02*
X127646934Y-71160061D01*
X127646934Y-71160061D02*
X127646934Y-71398156D01*
X127646934Y-71398156D02*
X127694553Y-71493394D01*
X127694553Y-71493394D02*
X127742172Y-71541014D01*
X127742172Y-71541014D02*
X127837410Y-71588633D01*
X127837410Y-71588633D02*
X128123124Y-71588633D01*
X128123124Y-71588633D02*
X128218362Y-71541014D01*
X128218362Y-71541014D02*
X128265981Y-71493394D01*
X239915238Y-38447080D02*
X239962857Y-38494700D01*
X239962857Y-38494700D02*
X240105714Y-38542319D01*
X240105714Y-38542319D02*
X240200952Y-38542319D01*
X240200952Y-38542319D02*
X240343809Y-38494700D01*
X240343809Y-38494700D02*
X240439047Y-38399461D01*
X240439047Y-38399461D02*
X240486666Y-38304223D01*
X240486666Y-38304223D02*
X240534285Y-38113747D01*
X240534285Y-38113747D02*
X240534285Y-37970890D01*
X240534285Y-37970890D02*
X240486666Y-37780414D01*
X240486666Y-37780414D02*
X240439047Y-37685176D01*
X240439047Y-37685176D02*
X240343809Y-37589938D01*
X240343809Y-37589938D02*
X240200952Y-37542319D01*
X240200952Y-37542319D02*
X240105714Y-37542319D01*
X240105714Y-37542319D02*
X239962857Y-37589938D01*
X239962857Y-37589938D02*
X239915238Y-37637557D01*
X238962857Y-38542319D02*
X239534285Y-38542319D01*
X239248571Y-38542319D02*
X239248571Y-37542319D01*
X239248571Y-37542319D02*
X239343809Y-37685176D01*
X239343809Y-37685176D02*
X239439047Y-37780414D01*
X239439047Y-37780414D02*
X239534285Y-37828033D01*
X238058095Y-37542319D02*
X238534285Y-37542319D01*
X238534285Y-37542319D02*
X238581904Y-38018509D01*
X238581904Y-38018509D02*
X238534285Y-37970890D01*
X238534285Y-37970890D02*
X238439047Y-37923271D01*
X238439047Y-37923271D02*
X238200952Y-37923271D01*
X238200952Y-37923271D02*
X238105714Y-37970890D01*
X238105714Y-37970890D02*
X238058095Y-38018509D01*
X238058095Y-38018509D02*
X238010476Y-38113747D01*
X238010476Y-38113747D02*
X238010476Y-38351842D01*
X238010476Y-38351842D02*
X238058095Y-38447080D01*
X238058095Y-38447080D02*
X238105714Y-38494700D01*
X238105714Y-38494700D02*
X238200952Y-38542319D01*
X238200952Y-38542319D02*
X238439047Y-38542319D01*
X238439047Y-38542319D02*
X238534285Y-38494700D01*
X238534285Y-38494700D02*
X238581904Y-38447080D01*
X184812857Y-57701955D02*
X184860476Y-57749575D01*
X184860476Y-57749575D02*
X185003333Y-57797194D01*
X185003333Y-57797194D02*
X185098571Y-57797194D01*
X185098571Y-57797194D02*
X185241428Y-57749575D01*
X185241428Y-57749575D02*
X185336666Y-57654336D01*
X185336666Y-57654336D02*
X185384285Y-57559098D01*
X185384285Y-57559098D02*
X185431904Y-57368622D01*
X185431904Y-57368622D02*
X185431904Y-57225765D01*
X185431904Y-57225765D02*
X185384285Y-57035289D01*
X185384285Y-57035289D02*
X185336666Y-56940051D01*
X185336666Y-56940051D02*
X185241428Y-56844813D01*
X185241428Y-56844813D02*
X185098571Y-56797194D01*
X185098571Y-56797194D02*
X185003333Y-56797194D01*
X185003333Y-56797194D02*
X184860476Y-56844813D01*
X184860476Y-56844813D02*
X184812857Y-56892432D01*
X183860476Y-57797194D02*
X184431904Y-57797194D01*
X184146190Y-57797194D02*
X184146190Y-56797194D01*
X184146190Y-56797194D02*
X184241428Y-56940051D01*
X184241428Y-56940051D02*
X184336666Y-57035289D01*
X184336666Y-57035289D02*
X184431904Y-57082908D01*
X183527142Y-56797194D02*
X182908095Y-56797194D01*
X182908095Y-56797194D02*
X183241428Y-57178146D01*
X183241428Y-57178146D02*
X183098571Y-57178146D01*
X183098571Y-57178146D02*
X183003333Y-57225765D01*
X183003333Y-57225765D02*
X182955714Y-57273384D01*
X182955714Y-57273384D02*
X182908095Y-57368622D01*
X182908095Y-57368622D02*
X182908095Y-57606717D01*
X182908095Y-57606717D02*
X182955714Y-57701955D01*
X182955714Y-57701955D02*
X183003333Y-57749575D01*
X183003333Y-57749575D02*
X183098571Y-57797194D01*
X183098571Y-57797194D02*
X183384285Y-57797194D01*
X183384285Y-57797194D02*
X183479523Y-57749575D01*
X183479523Y-57749575D02*
X183527142Y-57701955D01*
X129602220Y-48912326D02*
X129030792Y-48912326D01*
X129316506Y-49912326D02*
X129316506Y-48912326D01*
X128697458Y-49912326D02*
X128697458Y-48912326D01*
X128697458Y-48912326D02*
X128316506Y-48912326D01*
X128316506Y-48912326D02*
X128221268Y-48959945D01*
X128221268Y-48959945D02*
X128173649Y-49007564D01*
X128173649Y-49007564D02*
X128126030Y-49102802D01*
X128126030Y-49102802D02*
X128126030Y-49245659D01*
X128126030Y-49245659D02*
X128173649Y-49340897D01*
X128173649Y-49340897D02*
X128221268Y-49388516D01*
X128221268Y-49388516D02*
X128316506Y-49436135D01*
X128316506Y-49436135D02*
X128697458Y-49436135D01*
X127173649Y-49912326D02*
X127745077Y-49912326D01*
X127459363Y-49912326D02*
X127459363Y-48912326D01*
X127459363Y-48912326D02*
X127554601Y-49055183D01*
X127554601Y-49055183D02*
X127649839Y-49150421D01*
X127649839Y-49150421D02*
X127745077Y-49198040D01*
X126840315Y-48912326D02*
X126221268Y-48912326D01*
X126221268Y-48912326D02*
X126554601Y-49293278D01*
X126554601Y-49293278D02*
X126411744Y-49293278D01*
X126411744Y-49293278D02*
X126316506Y-49340897D01*
X126316506Y-49340897D02*
X126268887Y-49388516D01*
X126268887Y-49388516D02*
X126221268Y-49483754D01*
X126221268Y-49483754D02*
X126221268Y-49721849D01*
X126221268Y-49721849D02*
X126268887Y-49817087D01*
X126268887Y-49817087D02*
X126316506Y-49864707D01*
X126316506Y-49864707D02*
X126411744Y-49912326D01*
X126411744Y-49912326D02*
X126697458Y-49912326D01*
X126697458Y-49912326D02*
X126792696Y-49864707D01*
X126792696Y-49864707D02*
X126840315Y-49817087D01*
X209105649Y-47495568D02*
X208534221Y-47495568D01*
X208819935Y-48495568D02*
X208819935Y-47495568D01*
X208200887Y-48495568D02*
X208200887Y-47495568D01*
X208200887Y-47495568D02*
X207819935Y-47495568D01*
X207819935Y-47495568D02*
X207724697Y-47543187D01*
X207724697Y-47543187D02*
X207677078Y-47590806D01*
X207677078Y-47590806D02*
X207629459Y-47686044D01*
X207629459Y-47686044D02*
X207629459Y-47828901D01*
X207629459Y-47828901D02*
X207677078Y-47924139D01*
X207677078Y-47924139D02*
X207724697Y-47971758D01*
X207724697Y-47971758D02*
X207819935Y-48019377D01*
X207819935Y-48019377D02*
X208200887Y-48019377D01*
X207248506Y-47590806D02*
X207200887Y-47543187D01*
X207200887Y-47543187D02*
X207105649Y-47495568D01*
X207105649Y-47495568D02*
X206867554Y-47495568D01*
X206867554Y-47495568D02*
X206772316Y-47543187D01*
X206772316Y-47543187D02*
X206724697Y-47590806D01*
X206724697Y-47590806D02*
X206677078Y-47686044D01*
X206677078Y-47686044D02*
X206677078Y-47781282D01*
X206677078Y-47781282D02*
X206724697Y-47924139D01*
X206724697Y-47924139D02*
X207296125Y-48495568D01*
X207296125Y-48495568D02*
X206677078Y-48495568D01*
X153377808Y-116007829D02*
X153425427Y-116055449D01*
X153425427Y-116055449D02*
X153568284Y-116103068D01*
X153568284Y-116103068D02*
X153663522Y-116103068D01*
X153663522Y-116103068D02*
X153806379Y-116055449D01*
X153806379Y-116055449D02*
X153901617Y-115960210D01*
X153901617Y-115960210D02*
X153949236Y-115864972D01*
X153949236Y-115864972D02*
X153996855Y-115674496D01*
X153996855Y-115674496D02*
X153996855Y-115531639D01*
X153996855Y-115531639D02*
X153949236Y-115341163D01*
X153949236Y-115341163D02*
X153901617Y-115245925D01*
X153901617Y-115245925D02*
X153806379Y-115150687D01*
X153806379Y-115150687D02*
X153663522Y-115103068D01*
X153663522Y-115103068D02*
X153568284Y-115103068D01*
X153568284Y-115103068D02*
X153425427Y-115150687D01*
X153425427Y-115150687D02*
X153377808Y-115198306D01*
X153187332Y-116198306D02*
X152425427Y-116198306D01*
X152234950Y-116055449D02*
X152092093Y-116103068D01*
X152092093Y-116103068D02*
X151853998Y-116103068D01*
X151853998Y-116103068D02*
X151758760Y-116055449D01*
X151758760Y-116055449D02*
X151711141Y-116007829D01*
X151711141Y-116007829D02*
X151663522Y-115912591D01*
X151663522Y-115912591D02*
X151663522Y-115817353D01*
X151663522Y-115817353D02*
X151711141Y-115722115D01*
X151711141Y-115722115D02*
X151758760Y-115674496D01*
X151758760Y-115674496D02*
X151853998Y-115626877D01*
X151853998Y-115626877D02*
X152044474Y-115579258D01*
X152044474Y-115579258D02*
X152139712Y-115531639D01*
X152139712Y-115531639D02*
X152187331Y-115484020D01*
X152187331Y-115484020D02*
X152234950Y-115388782D01*
X152234950Y-115388782D02*
X152234950Y-115293544D01*
X152234950Y-115293544D02*
X152187331Y-115198306D01*
X152187331Y-115198306D02*
X152139712Y-115150687D01*
X152139712Y-115150687D02*
X152044474Y-115103068D01*
X152044474Y-115103068D02*
X151806379Y-115103068D01*
X151806379Y-115103068D02*
X151663522Y-115150687D01*
X151234950Y-116103068D02*
X151234950Y-115103068D01*
X151234950Y-115103068D02*
X150996855Y-115103068D01*
X150996855Y-115103068D02*
X150853998Y-115150687D01*
X150853998Y-115150687D02*
X150758760Y-115245925D01*
X150758760Y-115245925D02*
X150711141Y-115341163D01*
X150711141Y-115341163D02*
X150663522Y-115531639D01*
X150663522Y-115531639D02*
X150663522Y-115674496D01*
X150663522Y-115674496D02*
X150711141Y-115864972D01*
X150711141Y-115864972D02*
X150758760Y-115960210D01*
X150758760Y-115960210D02*
X150853998Y-116055449D01*
X150853998Y-116055449D02*
X150996855Y-116103068D01*
X150996855Y-116103068D02*
X151234950Y-116103068D01*
X150282569Y-115198306D02*
X150234950Y-115150687D01*
X150234950Y-115150687D02*
X150139712Y-115103068D01*
X150139712Y-115103068D02*
X149901617Y-115103068D01*
X149901617Y-115103068D02*
X149806379Y-115150687D01*
X149806379Y-115150687D02*
X149758760Y-115198306D01*
X149758760Y-115198306D02*
X149711141Y-115293544D01*
X149711141Y-115293544D02*
X149711141Y-115388782D01*
X149711141Y-115388782D02*
X149758760Y-115531639D01*
X149758760Y-115531639D02*
X150330188Y-116103068D01*
X150330188Y-116103068D02*
X149711141Y-116103068D01*
X244342857Y-22916069D02*
X244676190Y-22439878D01*
X244914285Y-22916069D02*
X244914285Y-21916069D01*
X244914285Y-21916069D02*
X244533333Y-21916069D01*
X244533333Y-21916069D02*
X244438095Y-21963688D01*
X244438095Y-21963688D02*
X244390476Y-22011307D01*
X244390476Y-22011307D02*
X244342857Y-22106545D01*
X244342857Y-22106545D02*
X244342857Y-22249402D01*
X244342857Y-22249402D02*
X244390476Y-22344640D01*
X244390476Y-22344640D02*
X244438095Y-22392259D01*
X244438095Y-22392259D02*
X244533333Y-22439878D01*
X244533333Y-22439878D02*
X244914285Y-22439878D01*
X244009523Y-21916069D02*
X243390476Y-21916069D01*
X243390476Y-21916069D02*
X243723809Y-22297021D01*
X243723809Y-22297021D02*
X243580952Y-22297021D01*
X243580952Y-22297021D02*
X243485714Y-22344640D01*
X243485714Y-22344640D02*
X243438095Y-22392259D01*
X243438095Y-22392259D02*
X243390476Y-22487497D01*
X243390476Y-22487497D02*
X243390476Y-22725592D01*
X243390476Y-22725592D02*
X243438095Y-22820830D01*
X243438095Y-22820830D02*
X243485714Y-22868450D01*
X243485714Y-22868450D02*
X243580952Y-22916069D01*
X243580952Y-22916069D02*
X243866666Y-22916069D01*
X243866666Y-22916069D02*
X243961904Y-22868450D01*
X243961904Y-22868450D02*
X244009523Y-22820830D01*
X242771428Y-21916069D02*
X242676190Y-21916069D01*
X242676190Y-21916069D02*
X242580952Y-21963688D01*
X242580952Y-21963688D02*
X242533333Y-22011307D01*
X242533333Y-22011307D02*
X242485714Y-22106545D01*
X242485714Y-22106545D02*
X242438095Y-22297021D01*
X242438095Y-22297021D02*
X242438095Y-22535116D01*
X242438095Y-22535116D02*
X242485714Y-22725592D01*
X242485714Y-22725592D02*
X242533333Y-22820830D01*
X242533333Y-22820830D02*
X242580952Y-22868450D01*
X242580952Y-22868450D02*
X242676190Y-22916069D01*
X242676190Y-22916069D02*
X242771428Y-22916069D01*
X242771428Y-22916069D02*
X242866666Y-22868450D01*
X242866666Y-22868450D02*
X242914285Y-22820830D01*
X242914285Y-22820830D02*
X242961904Y-22725592D01*
X242961904Y-22725592D02*
X243009523Y-22535116D01*
X243009523Y-22535116D02*
X243009523Y-22297021D01*
X243009523Y-22297021D02*
X242961904Y-22106545D01*
X242961904Y-22106545D02*
X242914285Y-22011307D01*
X242914285Y-22011307D02*
X242866666Y-21963688D01*
X242866666Y-21963688D02*
X242771428Y-21916069D01*
X100612857Y-80314569D02*
X100946190Y-79838378D01*
X101184285Y-80314569D02*
X101184285Y-79314569D01*
X101184285Y-79314569D02*
X100803333Y-79314569D01*
X100803333Y-79314569D02*
X100708095Y-79362188D01*
X100708095Y-79362188D02*
X100660476Y-79409807D01*
X100660476Y-79409807D02*
X100612857Y-79505045D01*
X100612857Y-79505045D02*
X100612857Y-79647902D01*
X100612857Y-79647902D02*
X100660476Y-79743140D01*
X100660476Y-79743140D02*
X100708095Y-79790759D01*
X100708095Y-79790759D02*
X100803333Y-79838378D01*
X100803333Y-79838378D02*
X101184285Y-79838378D01*
X100231904Y-79409807D02*
X100184285Y-79362188D01*
X100184285Y-79362188D02*
X100089047Y-79314569D01*
X100089047Y-79314569D02*
X99850952Y-79314569D01*
X99850952Y-79314569D02*
X99755714Y-79362188D01*
X99755714Y-79362188D02*
X99708095Y-79409807D01*
X99708095Y-79409807D02*
X99660476Y-79505045D01*
X99660476Y-79505045D02*
X99660476Y-79600283D01*
X99660476Y-79600283D02*
X99708095Y-79743140D01*
X99708095Y-79743140D02*
X100279523Y-80314569D01*
X100279523Y-80314569D02*
X99660476Y-80314569D01*
X99279523Y-79409807D02*
X99231904Y-79362188D01*
X99231904Y-79362188D02*
X99136666Y-79314569D01*
X99136666Y-79314569D02*
X98898571Y-79314569D01*
X98898571Y-79314569D02*
X98803333Y-79362188D01*
X98803333Y-79362188D02*
X98755714Y-79409807D01*
X98755714Y-79409807D02*
X98708095Y-79505045D01*
X98708095Y-79505045D02*
X98708095Y-79600283D01*
X98708095Y-79600283D02*
X98755714Y-79743140D01*
X98755714Y-79743140D02*
X99327142Y-80314569D01*
X99327142Y-80314569D02*
X98708095Y-80314569D01*
X28086665Y-104546329D02*
X28134284Y-104593949D01*
X28134284Y-104593949D02*
X28277141Y-104641568D01*
X28277141Y-104641568D02*
X28372379Y-104641568D01*
X28372379Y-104641568D02*
X28515236Y-104593949D01*
X28515236Y-104593949D02*
X28610474Y-104498710D01*
X28610474Y-104498710D02*
X28658093Y-104403472D01*
X28658093Y-104403472D02*
X28705712Y-104212996D01*
X28705712Y-104212996D02*
X28705712Y-104070139D01*
X28705712Y-104070139D02*
X28658093Y-103879663D01*
X28658093Y-103879663D02*
X28610474Y-103784425D01*
X28610474Y-103784425D02*
X28515236Y-103689187D01*
X28515236Y-103689187D02*
X28372379Y-103641568D01*
X28372379Y-103641568D02*
X28277141Y-103641568D01*
X28277141Y-103641568D02*
X28134284Y-103689187D01*
X28134284Y-103689187D02*
X28086665Y-103736806D01*
X27753331Y-103641568D02*
X27134284Y-103641568D01*
X27134284Y-103641568D02*
X27467617Y-104022520D01*
X27467617Y-104022520D02*
X27324760Y-104022520D01*
X27324760Y-104022520D02*
X27229522Y-104070139D01*
X27229522Y-104070139D02*
X27181903Y-104117758D01*
X27181903Y-104117758D02*
X27134284Y-104212996D01*
X27134284Y-104212996D02*
X27134284Y-104451091D01*
X27134284Y-104451091D02*
X27181903Y-104546329D01*
X27181903Y-104546329D02*
X27229522Y-104593949D01*
X27229522Y-104593949D02*
X27324760Y-104641568D01*
X27324760Y-104641568D02*
X27610474Y-104641568D01*
X27610474Y-104641568D02*
X27705712Y-104593949D01*
X27705712Y-104593949D02*
X27753331Y-104546329D01*
X119912857Y-16939569D02*
X120246190Y-16463378D01*
X120484285Y-16939569D02*
X120484285Y-15939569D01*
X120484285Y-15939569D02*
X120103333Y-15939569D01*
X120103333Y-15939569D02*
X120008095Y-15987188D01*
X120008095Y-15987188D02*
X119960476Y-16034807D01*
X119960476Y-16034807D02*
X119912857Y-16130045D01*
X119912857Y-16130045D02*
X119912857Y-16272902D01*
X119912857Y-16272902D02*
X119960476Y-16368140D01*
X119960476Y-16368140D02*
X120008095Y-16415759D01*
X120008095Y-16415759D02*
X120103333Y-16463378D01*
X120103333Y-16463378D02*
X120484285Y-16463378D01*
X119531904Y-16034807D02*
X119484285Y-15987188D01*
X119484285Y-15987188D02*
X119389047Y-15939569D01*
X119389047Y-15939569D02*
X119150952Y-15939569D01*
X119150952Y-15939569D02*
X119055714Y-15987188D01*
X119055714Y-15987188D02*
X119008095Y-16034807D01*
X119008095Y-16034807D02*
X118960476Y-16130045D01*
X118960476Y-16130045D02*
X118960476Y-16225283D01*
X118960476Y-16225283D02*
X119008095Y-16368140D01*
X119008095Y-16368140D02*
X119579523Y-16939569D01*
X119579523Y-16939569D02*
X118960476Y-16939569D01*
X118627142Y-15939569D02*
X118008095Y-15939569D01*
X118008095Y-15939569D02*
X118341428Y-16320521D01*
X118341428Y-16320521D02*
X118198571Y-16320521D01*
X118198571Y-16320521D02*
X118103333Y-16368140D01*
X118103333Y-16368140D02*
X118055714Y-16415759D01*
X118055714Y-16415759D02*
X118008095Y-16510997D01*
X118008095Y-16510997D02*
X118008095Y-16749092D01*
X118008095Y-16749092D02*
X118055714Y-16844330D01*
X118055714Y-16844330D02*
X118103333Y-16891950D01*
X118103333Y-16891950D02*
X118198571Y-16939569D01*
X118198571Y-16939569D02*
X118484285Y-16939569D01*
X118484285Y-16939569D02*
X118579523Y-16891950D01*
X118579523Y-16891950D02*
X118627142Y-16844330D01*
X187419497Y-24589285D02*
X188229020Y-24589285D01*
X188229020Y-24589285D02*
X188324258Y-24636904D01*
X188324258Y-24636904D02*
X188371878Y-24684523D01*
X188371878Y-24684523D02*
X188419497Y-24779761D01*
X188419497Y-24779761D02*
X188419497Y-24970237D01*
X188419497Y-24970237D02*
X188371878Y-25065475D01*
X188371878Y-25065475D02*
X188324258Y-25113094D01*
X188324258Y-25113094D02*
X188229020Y-25160713D01*
X188229020Y-25160713D02*
X187419497Y-25160713D01*
X188514735Y-25398809D02*
X188514735Y-26160713D01*
X188419497Y-26398809D02*
X187419497Y-26398809D01*
X187419497Y-26398809D02*
X188133782Y-26732142D01*
X188133782Y-26732142D02*
X187419497Y-27065475D01*
X187419497Y-27065475D02*
X188419497Y-27065475D01*
X187419497Y-27541666D02*
X188229020Y-27541666D01*
X188229020Y-27541666D02*
X188324258Y-27589285D01*
X188324258Y-27589285D02*
X188371878Y-27636904D01*
X188371878Y-27636904D02*
X188419497Y-27732142D01*
X188419497Y-27732142D02*
X188419497Y-27922618D01*
X188419497Y-27922618D02*
X188371878Y-28017856D01*
X188371878Y-28017856D02*
X188324258Y-28065475D01*
X188324258Y-28065475D02*
X188229020Y-28113094D01*
X188229020Y-28113094D02*
X187419497Y-28113094D01*
X187419497Y-28494047D02*
X188419497Y-29160713D01*
X187419497Y-29160713D02*
X188419497Y-28494047D01*
X187848068Y-29684523D02*
X187800449Y-29589285D01*
X187800449Y-29589285D02*
X187752830Y-29541666D01*
X187752830Y-29541666D02*
X187657592Y-29494047D01*
X187657592Y-29494047D02*
X187609973Y-29494047D01*
X187609973Y-29494047D02*
X187514735Y-29541666D01*
X187514735Y-29541666D02*
X187467116Y-29589285D01*
X187467116Y-29589285D02*
X187419497Y-29684523D01*
X187419497Y-29684523D02*
X187419497Y-29874999D01*
X187419497Y-29874999D02*
X187467116Y-29970237D01*
X187467116Y-29970237D02*
X187514735Y-30017856D01*
X187514735Y-30017856D02*
X187609973Y-30065475D01*
X187609973Y-30065475D02*
X187657592Y-30065475D01*
X187657592Y-30065475D02*
X187752830Y-30017856D01*
X187752830Y-30017856D02*
X187800449Y-29970237D01*
X187800449Y-29970237D02*
X187848068Y-29874999D01*
X187848068Y-29874999D02*
X187848068Y-29684523D01*
X187848068Y-29684523D02*
X187895687Y-29589285D01*
X187895687Y-29589285D02*
X187943306Y-29541666D01*
X187943306Y-29541666D02*
X188038544Y-29494047D01*
X188038544Y-29494047D02*
X188229020Y-29494047D01*
X188229020Y-29494047D02*
X188324258Y-29541666D01*
X188324258Y-29541666D02*
X188371878Y-29589285D01*
X188371878Y-29589285D02*
X188419497Y-29684523D01*
X188419497Y-29684523D02*
X188419497Y-29874999D01*
X188419497Y-29874999D02*
X188371878Y-29970237D01*
X188371878Y-29970237D02*
X188324258Y-30017856D01*
X188324258Y-30017856D02*
X188229020Y-30065475D01*
X188229020Y-30065475D02*
X188038544Y-30065475D01*
X188038544Y-30065475D02*
X187943306Y-30017856D01*
X187943306Y-30017856D02*
X187895687Y-29970237D01*
X187895687Y-29970237D02*
X187848068Y-29874999D01*
X45560357Y-88233068D02*
X45893690Y-87756877D01*
X46131785Y-88233068D02*
X46131785Y-87233068D01*
X46131785Y-87233068D02*
X45750833Y-87233068D01*
X45750833Y-87233068D02*
X45655595Y-87280687D01*
X45655595Y-87280687D02*
X45607976Y-87328306D01*
X45607976Y-87328306D02*
X45560357Y-87423544D01*
X45560357Y-87423544D02*
X45560357Y-87566401D01*
X45560357Y-87566401D02*
X45607976Y-87661639D01*
X45607976Y-87661639D02*
X45655595Y-87709258D01*
X45655595Y-87709258D02*
X45750833Y-87756877D01*
X45750833Y-87756877D02*
X46131785Y-87756877D01*
X44607976Y-88233068D02*
X45179404Y-88233068D01*
X44893690Y-88233068D02*
X44893690Y-87233068D01*
X44893690Y-87233068D02*
X44988928Y-87375925D01*
X44988928Y-87375925D02*
X45084166Y-87471163D01*
X45084166Y-87471163D02*
X45179404Y-87518782D01*
X44274642Y-87233068D02*
X43607976Y-87233068D01*
X43607976Y-87233068D02*
X44036547Y-88233068D01*
X208012856Y-80314569D02*
X208346189Y-79838378D01*
X208584284Y-80314569D02*
X208584284Y-79314569D01*
X208584284Y-79314569D02*
X208203332Y-79314569D01*
X208203332Y-79314569D02*
X208108094Y-79362188D01*
X208108094Y-79362188D02*
X208060475Y-79409807D01*
X208060475Y-79409807D02*
X208012856Y-79505045D01*
X208012856Y-79505045D02*
X208012856Y-79647902D01*
X208012856Y-79647902D02*
X208060475Y-79743140D01*
X208060475Y-79743140D02*
X208108094Y-79790759D01*
X208108094Y-79790759D02*
X208203332Y-79838378D01*
X208203332Y-79838378D02*
X208584284Y-79838378D01*
X207631903Y-79409807D02*
X207584284Y-79362188D01*
X207584284Y-79362188D02*
X207489046Y-79314569D01*
X207489046Y-79314569D02*
X207250951Y-79314569D01*
X207250951Y-79314569D02*
X207155713Y-79362188D01*
X207155713Y-79362188D02*
X207108094Y-79409807D01*
X207108094Y-79409807D02*
X207060475Y-79505045D01*
X207060475Y-79505045D02*
X207060475Y-79600283D01*
X207060475Y-79600283D02*
X207108094Y-79743140D01*
X207108094Y-79743140D02*
X207679522Y-80314569D01*
X207679522Y-80314569D02*
X207060475Y-80314569D01*
X206489046Y-79743140D02*
X206584284Y-79695521D01*
X206584284Y-79695521D02*
X206631903Y-79647902D01*
X206631903Y-79647902D02*
X206679522Y-79552664D01*
X206679522Y-79552664D02*
X206679522Y-79505045D01*
X206679522Y-79505045D02*
X206631903Y-79409807D01*
X206631903Y-79409807D02*
X206584284Y-79362188D01*
X206584284Y-79362188D02*
X206489046Y-79314569D01*
X206489046Y-79314569D02*
X206298570Y-79314569D01*
X206298570Y-79314569D02*
X206203332Y-79362188D01*
X206203332Y-79362188D02*
X206155713Y-79409807D01*
X206155713Y-79409807D02*
X206108094Y-79505045D01*
X206108094Y-79505045D02*
X206108094Y-79552664D01*
X206108094Y-79552664D02*
X206155713Y-79647902D01*
X206155713Y-79647902D02*
X206203332Y-79695521D01*
X206203332Y-79695521D02*
X206298570Y-79743140D01*
X206298570Y-79743140D02*
X206489046Y-79743140D01*
X206489046Y-79743140D02*
X206584284Y-79790759D01*
X206584284Y-79790759D02*
X206631903Y-79838378D01*
X206631903Y-79838378D02*
X206679522Y-79933616D01*
X206679522Y-79933616D02*
X206679522Y-80124092D01*
X206679522Y-80124092D02*
X206631903Y-80219330D01*
X206631903Y-80219330D02*
X206584284Y-80266950D01*
X206584284Y-80266950D02*
X206489046Y-80314569D01*
X206489046Y-80314569D02*
X206298570Y-80314569D01*
X206298570Y-80314569D02*
X206203332Y-80266950D01*
X206203332Y-80266950D02*
X206155713Y-80219330D01*
X206155713Y-80219330D02*
X206108094Y-80124092D01*
X206108094Y-80124092D02*
X206108094Y-79933616D01*
X206108094Y-79933616D02*
X206155713Y-79838378D01*
X206155713Y-79838378D02*
X206203332Y-79790759D01*
X206203332Y-79790759D02*
X206298570Y-79743140D01*
X118664443Y-52963911D02*
X118664443Y-53535339D01*
X119664443Y-53249625D02*
X118664443Y-53249625D01*
X119664443Y-53868673D02*
X118664443Y-53868673D01*
X118664443Y-53868673D02*
X118664443Y-54249625D01*
X118664443Y-54249625D02*
X118712062Y-54344863D01*
X118712062Y-54344863D02*
X118759681Y-54392482D01*
X118759681Y-54392482D02*
X118854919Y-54440101D01*
X118854919Y-54440101D02*
X118997776Y-54440101D01*
X118997776Y-54440101D02*
X119093014Y-54392482D01*
X119093014Y-54392482D02*
X119140633Y-54344863D01*
X119140633Y-54344863D02*
X119188252Y-54249625D01*
X119188252Y-54249625D02*
X119188252Y-53868673D01*
X119664443Y-55392482D02*
X119664443Y-54821054D01*
X119664443Y-55106768D02*
X118664443Y-55106768D01*
X118664443Y-55106768D02*
X118807300Y-55011530D01*
X118807300Y-55011530D02*
X118902538Y-54916292D01*
X118902538Y-54916292D02*
X118950157Y-54821054D01*
X118664443Y-56011530D02*
X118664443Y-56106768D01*
X118664443Y-56106768D02*
X118712062Y-56202006D01*
X118712062Y-56202006D02*
X118759681Y-56249625D01*
X118759681Y-56249625D02*
X118854919Y-56297244D01*
X118854919Y-56297244D02*
X119045395Y-56344863D01*
X119045395Y-56344863D02*
X119283490Y-56344863D01*
X119283490Y-56344863D02*
X119473966Y-56297244D01*
X119473966Y-56297244D02*
X119569204Y-56249625D01*
X119569204Y-56249625D02*
X119616824Y-56202006D01*
X119616824Y-56202006D02*
X119664443Y-56106768D01*
X119664443Y-56106768D02*
X119664443Y-56011530D01*
X119664443Y-56011530D02*
X119616824Y-55916292D01*
X119616824Y-55916292D02*
X119569204Y-55868673D01*
X119569204Y-55868673D02*
X119473966Y-55821054D01*
X119473966Y-55821054D02*
X119283490Y-55773435D01*
X119283490Y-55773435D02*
X119045395Y-55773435D01*
X119045395Y-55773435D02*
X118854919Y-55821054D01*
X118854919Y-55821054D02*
X118759681Y-55868673D01*
X118759681Y-55868673D02*
X118712062Y-55916292D01*
X118712062Y-55916292D02*
X118664443Y-56011530D01*
X92655356Y-37608068D02*
X92988689Y-37131877D01*
X93226784Y-37608068D02*
X93226784Y-36608068D01*
X93226784Y-36608068D02*
X92845832Y-36608068D01*
X92845832Y-36608068D02*
X92750594Y-36655687D01*
X92750594Y-36655687D02*
X92702975Y-36703306D01*
X92702975Y-36703306D02*
X92655356Y-36798544D01*
X92655356Y-36798544D02*
X92655356Y-36941401D01*
X92655356Y-36941401D02*
X92702975Y-37036639D01*
X92702975Y-37036639D02*
X92750594Y-37084258D01*
X92750594Y-37084258D02*
X92845832Y-37131877D01*
X92845832Y-37131877D02*
X93226784Y-37131877D01*
X91702975Y-37608068D02*
X92274403Y-37608068D01*
X91988689Y-37608068D02*
X91988689Y-36608068D01*
X91988689Y-36608068D02*
X92083927Y-36750925D01*
X92083927Y-36750925D02*
X92179165Y-36846163D01*
X92179165Y-36846163D02*
X92274403Y-36893782D01*
X90845832Y-36941401D02*
X90845832Y-37608068D01*
X91083927Y-36560449D02*
X91322022Y-37274734D01*
X91322022Y-37274734D02*
X90702975Y-37274734D01*
X170598571Y-19496330D02*
X170646190Y-19543950D01*
X170646190Y-19543950D02*
X170789047Y-19591569D01*
X170789047Y-19591569D02*
X170884285Y-19591569D01*
X170884285Y-19591569D02*
X171027142Y-19543950D01*
X171027142Y-19543950D02*
X171122380Y-19448711D01*
X171122380Y-19448711D02*
X171169999Y-19353473D01*
X171169999Y-19353473D02*
X171217618Y-19162997D01*
X171217618Y-19162997D02*
X171217618Y-19020140D01*
X171217618Y-19020140D02*
X171169999Y-18829664D01*
X171169999Y-18829664D02*
X171122380Y-18734426D01*
X171122380Y-18734426D02*
X171027142Y-18639188D01*
X171027142Y-18639188D02*
X170884285Y-18591569D01*
X170884285Y-18591569D02*
X170789047Y-18591569D01*
X170789047Y-18591569D02*
X170646190Y-18639188D01*
X170646190Y-18639188D02*
X170598571Y-18686807D01*
X170408095Y-19686807D02*
X169646190Y-19686807D01*
X169455713Y-19543950D02*
X169312856Y-19591569D01*
X169312856Y-19591569D02*
X169074761Y-19591569D01*
X169074761Y-19591569D02*
X168979523Y-19543950D01*
X168979523Y-19543950D02*
X168931904Y-19496330D01*
X168931904Y-19496330D02*
X168884285Y-19401092D01*
X168884285Y-19401092D02*
X168884285Y-19305854D01*
X168884285Y-19305854D02*
X168931904Y-19210616D01*
X168931904Y-19210616D02*
X168979523Y-19162997D01*
X168979523Y-19162997D02*
X169074761Y-19115378D01*
X169074761Y-19115378D02*
X169265237Y-19067759D01*
X169265237Y-19067759D02*
X169360475Y-19020140D01*
X169360475Y-19020140D02*
X169408094Y-18972521D01*
X169408094Y-18972521D02*
X169455713Y-18877283D01*
X169455713Y-18877283D02*
X169455713Y-18782045D01*
X169455713Y-18782045D02*
X169408094Y-18686807D01*
X169408094Y-18686807D02*
X169360475Y-18639188D01*
X169360475Y-18639188D02*
X169265237Y-18591569D01*
X169265237Y-18591569D02*
X169027142Y-18591569D01*
X169027142Y-18591569D02*
X168884285Y-18639188D01*
X168455713Y-19067759D02*
X168122380Y-19067759D01*
X167979523Y-19591569D02*
X168455713Y-19591569D01*
X168455713Y-19591569D02*
X168455713Y-18591569D01*
X168455713Y-18591569D02*
X167979523Y-18591569D01*
X167550951Y-19591569D02*
X167550951Y-18591569D01*
X167550951Y-18591569D02*
X166979523Y-19591569D01*
X166979523Y-19591569D02*
X166979523Y-18591569D01*
X166550951Y-19543950D02*
X166408094Y-19591569D01*
X166408094Y-19591569D02*
X166169999Y-19591569D01*
X166169999Y-19591569D02*
X166074761Y-19543950D01*
X166074761Y-19543950D02*
X166027142Y-19496330D01*
X166027142Y-19496330D02*
X165979523Y-19401092D01*
X165979523Y-19401092D02*
X165979523Y-19305854D01*
X165979523Y-19305854D02*
X166027142Y-19210616D01*
X166027142Y-19210616D02*
X166074761Y-19162997D01*
X166074761Y-19162997D02*
X166169999Y-19115378D01*
X166169999Y-19115378D02*
X166360475Y-19067759D01*
X166360475Y-19067759D02*
X166455713Y-19020140D01*
X166455713Y-19020140D02*
X166503332Y-18972521D01*
X166503332Y-18972521D02*
X166550951Y-18877283D01*
X166550951Y-18877283D02*
X166550951Y-18782045D01*
X166550951Y-18782045D02*
X166503332Y-18686807D01*
X166503332Y-18686807D02*
X166455713Y-18639188D01*
X166455713Y-18639188D02*
X166360475Y-18591569D01*
X166360475Y-18591569D02*
X166122380Y-18591569D01*
X166122380Y-18591569D02*
X165979523Y-18639188D01*
X165550951Y-19067759D02*
X165217618Y-19067759D01*
X165074761Y-19591569D02*
X165550951Y-19591569D01*
X165550951Y-19591569D02*
X165550951Y-18591569D01*
X165550951Y-18591569D02*
X165074761Y-18591569D01*
X164693808Y-18686807D02*
X164646189Y-18639188D01*
X164646189Y-18639188D02*
X164550951Y-18591569D01*
X164550951Y-18591569D02*
X164312856Y-18591569D01*
X164312856Y-18591569D02*
X164217618Y-18639188D01*
X164217618Y-18639188D02*
X164169999Y-18686807D01*
X164169999Y-18686807D02*
X164122380Y-18782045D01*
X164122380Y-18782045D02*
X164122380Y-18877283D01*
X164122380Y-18877283D02*
X164169999Y-19020140D01*
X164169999Y-19020140D02*
X164741427Y-19591569D01*
X164741427Y-19591569D02*
X164122380Y-19591569D01*
X31612855Y-95839578D02*
X31660474Y-95887198D01*
X31660474Y-95887198D02*
X31803331Y-95934817D01*
X31803331Y-95934817D02*
X31898569Y-95934817D01*
X31898569Y-95934817D02*
X32041426Y-95887198D01*
X32041426Y-95887198D02*
X32136664Y-95791959D01*
X32136664Y-95791959D02*
X32184283Y-95696721D01*
X32184283Y-95696721D02*
X32231902Y-95506245D01*
X32231902Y-95506245D02*
X32231902Y-95363388D01*
X32231902Y-95363388D02*
X32184283Y-95172912D01*
X32184283Y-95172912D02*
X32136664Y-95077674D01*
X32136664Y-95077674D02*
X32041426Y-94982436D01*
X32041426Y-94982436D02*
X31898569Y-94934817D01*
X31898569Y-94934817D02*
X31803331Y-94934817D01*
X31803331Y-94934817D02*
X31660474Y-94982436D01*
X31660474Y-94982436D02*
X31612855Y-95030055D01*
X30755712Y-94934817D02*
X30946188Y-94934817D01*
X30946188Y-94934817D02*
X31041426Y-94982436D01*
X31041426Y-94982436D02*
X31089045Y-95030055D01*
X31089045Y-95030055D02*
X31184283Y-95172912D01*
X31184283Y-95172912D02*
X31231902Y-95363388D01*
X31231902Y-95363388D02*
X31231902Y-95744340D01*
X31231902Y-95744340D02*
X31184283Y-95839578D01*
X31184283Y-95839578D02*
X31136664Y-95887198D01*
X31136664Y-95887198D02*
X31041426Y-95934817D01*
X31041426Y-95934817D02*
X30850950Y-95934817D01*
X30850950Y-95934817D02*
X30755712Y-95887198D01*
X30755712Y-95887198D02*
X30708093Y-95839578D01*
X30708093Y-95839578D02*
X30660474Y-95744340D01*
X30660474Y-95744340D02*
X30660474Y-95506245D01*
X30660474Y-95506245D02*
X30708093Y-95411007D01*
X30708093Y-95411007D02*
X30755712Y-95363388D01*
X30755712Y-95363388D02*
X30850950Y-95315769D01*
X30850950Y-95315769D02*
X31041426Y-95315769D01*
X31041426Y-95315769D02*
X31136664Y-95363388D01*
X31136664Y-95363388D02*
X31184283Y-95411007D01*
X31184283Y-95411007D02*
X31231902Y-95506245D01*
X30939046Y-116778067D02*
X30939046Y-115778067D01*
X30939046Y-115778067D02*
X30700951Y-115778067D01*
X30700951Y-115778067D02*
X30558094Y-115825686D01*
X30558094Y-115825686D02*
X30462856Y-115920924D01*
X30462856Y-115920924D02*
X30415237Y-116016162D01*
X30415237Y-116016162D02*
X30367618Y-116206638D01*
X30367618Y-116206638D02*
X30367618Y-116349495D01*
X30367618Y-116349495D02*
X30415237Y-116539971D01*
X30415237Y-116539971D02*
X30462856Y-116635209D01*
X30462856Y-116635209D02*
X30558094Y-116730448D01*
X30558094Y-116730448D02*
X30700951Y-116778067D01*
X30700951Y-116778067D02*
X30939046Y-116778067D01*
X30177142Y-116873305D02*
X29415237Y-116873305D01*
X29177141Y-116778067D02*
X29177141Y-115778067D01*
X29177141Y-115778067D02*
X28605713Y-116778067D01*
X28605713Y-116778067D02*
X28605713Y-115778067D01*
X27605713Y-116778067D02*
X28177141Y-116778067D01*
X27891427Y-116778067D02*
X27891427Y-115778067D01*
X27891427Y-115778067D02*
X27986665Y-115920924D01*
X27986665Y-115920924D02*
X28081903Y-116016162D01*
X28081903Y-116016162D02*
X28177141Y-116063781D01*
X27224760Y-115873305D02*
X27177141Y-115825686D01*
X27177141Y-115825686D02*
X27081903Y-115778067D01*
X27081903Y-115778067D02*
X26843808Y-115778067D01*
X26843808Y-115778067D02*
X26748570Y-115825686D01*
X26748570Y-115825686D02*
X26700951Y-115873305D01*
X26700951Y-115873305D02*
X26653332Y-115968543D01*
X26653332Y-115968543D02*
X26653332Y-116063781D01*
X26653332Y-116063781D02*
X26700951Y-116206638D01*
X26700951Y-116206638D02*
X27272379Y-116778067D01*
X27272379Y-116778067D02*
X26653332Y-116778067D01*
X118377634Y-57956825D02*
X117806206Y-57956825D01*
X118091920Y-58956825D02*
X118091920Y-57956825D01*
X117472872Y-58956825D02*
X117472872Y-57956825D01*
X117472872Y-57956825D02*
X117091920Y-57956825D01*
X117091920Y-57956825D02*
X116996682Y-58004444D01*
X116996682Y-58004444D02*
X116949063Y-58052063D01*
X116949063Y-58052063D02*
X116901444Y-58147301D01*
X116901444Y-58147301D02*
X116901444Y-58290158D01*
X116901444Y-58290158D02*
X116949063Y-58385396D01*
X116949063Y-58385396D02*
X116996682Y-58433015D01*
X116996682Y-58433015D02*
X117091920Y-58480634D01*
X117091920Y-58480634D02*
X117472872Y-58480634D01*
X115949063Y-58956825D02*
X116520491Y-58956825D01*
X116234777Y-58956825D02*
X116234777Y-57956825D01*
X116234777Y-57956825D02*
X116330015Y-58099682D01*
X116330015Y-58099682D02*
X116425253Y-58194920D01*
X116425253Y-58194920D02*
X116520491Y-58242539D01*
X115568110Y-58052063D02*
X115520491Y-58004444D01*
X115520491Y-58004444D02*
X115425253Y-57956825D01*
X115425253Y-57956825D02*
X115187158Y-57956825D01*
X115187158Y-57956825D02*
X115091920Y-58004444D01*
X115091920Y-58004444D02*
X115044301Y-58052063D01*
X115044301Y-58052063D02*
X114996682Y-58147301D01*
X114996682Y-58147301D02*
X114996682Y-58242539D01*
X114996682Y-58242539D02*
X115044301Y-58385396D01*
X115044301Y-58385396D02*
X115615729Y-58956825D01*
X115615729Y-58956825D02*
X114996682Y-58956825D01*
X84351725Y-73478573D02*
X84351725Y-74288096D01*
X84351725Y-74288096D02*
X84304106Y-74383334D01*
X84304106Y-74383334D02*
X84256487Y-74430954D01*
X84256487Y-74430954D02*
X84161249Y-74478573D01*
X84161249Y-74478573D02*
X83970773Y-74478573D01*
X83970773Y-74478573D02*
X83875535Y-74430954D01*
X83875535Y-74430954D02*
X83827916Y-74383334D01*
X83827916Y-74383334D02*
X83780297Y-74288096D01*
X83780297Y-74288096D02*
X83780297Y-73478573D01*
X83542202Y-74573811D02*
X82780297Y-74573811D01*
X82589820Y-74430954D02*
X82446963Y-74478573D01*
X82446963Y-74478573D02*
X82208868Y-74478573D01*
X82208868Y-74478573D02*
X82113630Y-74430954D01*
X82113630Y-74430954D02*
X82066011Y-74383334D01*
X82066011Y-74383334D02*
X82018392Y-74288096D01*
X82018392Y-74288096D02*
X82018392Y-74192858D01*
X82018392Y-74192858D02*
X82066011Y-74097620D01*
X82066011Y-74097620D02*
X82113630Y-74050001D01*
X82113630Y-74050001D02*
X82208868Y-74002382D01*
X82208868Y-74002382D02*
X82399344Y-73954763D01*
X82399344Y-73954763D02*
X82494582Y-73907144D01*
X82494582Y-73907144D02*
X82542201Y-73859525D01*
X82542201Y-73859525D02*
X82589820Y-73764287D01*
X82589820Y-73764287D02*
X82589820Y-73669049D01*
X82589820Y-73669049D02*
X82542201Y-73573811D01*
X82542201Y-73573811D02*
X82494582Y-73526192D01*
X82494582Y-73526192D02*
X82399344Y-73478573D01*
X82399344Y-73478573D02*
X82161249Y-73478573D01*
X82161249Y-73478573D02*
X82018392Y-73526192D01*
X81018392Y-74478573D02*
X81351725Y-74002382D01*
X81589820Y-74478573D02*
X81589820Y-73478573D01*
X81589820Y-73478573D02*
X81208868Y-73478573D01*
X81208868Y-73478573D02*
X81113630Y-73526192D01*
X81113630Y-73526192D02*
X81066011Y-73573811D01*
X81066011Y-73573811D02*
X81018392Y-73669049D01*
X81018392Y-73669049D02*
X81018392Y-73811906D01*
X81018392Y-73811906D02*
X81066011Y-73907144D01*
X81066011Y-73907144D02*
X81113630Y-73954763D01*
X81113630Y-73954763D02*
X81208868Y-74002382D01*
X81208868Y-74002382D02*
X81589820Y-74002382D01*
X80637439Y-73573811D02*
X80589820Y-73526192D01*
X80589820Y-73526192D02*
X80494582Y-73478573D01*
X80494582Y-73478573D02*
X80256487Y-73478573D01*
X80256487Y-73478573D02*
X80161249Y-73526192D01*
X80161249Y-73526192D02*
X80113630Y-73573811D01*
X80113630Y-73573811D02*
X80066011Y-73669049D01*
X80066011Y-73669049D02*
X80066011Y-73764287D01*
X80066011Y-73764287D02*
X80113630Y-73907144D01*
X80113630Y-73907144D02*
X80685058Y-74478573D01*
X80685058Y-74478573D02*
X80066011Y-74478573D01*
X290415238Y-38350205D02*
X290462857Y-38397825D01*
X290462857Y-38397825D02*
X290605714Y-38445444D01*
X290605714Y-38445444D02*
X290700952Y-38445444D01*
X290700952Y-38445444D02*
X290843809Y-38397825D01*
X290843809Y-38397825D02*
X290939047Y-38302586D01*
X290939047Y-38302586D02*
X290986666Y-38207348D01*
X290986666Y-38207348D02*
X291034285Y-38016872D01*
X291034285Y-38016872D02*
X291034285Y-37874015D01*
X291034285Y-37874015D02*
X290986666Y-37683539D01*
X290986666Y-37683539D02*
X290939047Y-37588301D01*
X290939047Y-37588301D02*
X290843809Y-37493063D01*
X290843809Y-37493063D02*
X290700952Y-37445444D01*
X290700952Y-37445444D02*
X290605714Y-37445444D01*
X290605714Y-37445444D02*
X290462857Y-37493063D01*
X290462857Y-37493063D02*
X290415238Y-37540682D01*
X289462857Y-38445444D02*
X290034285Y-38445444D01*
X289748571Y-38445444D02*
X289748571Y-37445444D01*
X289748571Y-37445444D02*
X289843809Y-37588301D01*
X289843809Y-37588301D02*
X289939047Y-37683539D01*
X289939047Y-37683539D02*
X290034285Y-37731158D01*
X288605714Y-37778777D02*
X288605714Y-38445444D01*
X288843809Y-37397825D02*
X289081904Y-38112110D01*
X289081904Y-38112110D02*
X288462857Y-38112110D01*
X44014285Y-40411569D02*
X44014285Y-41221092D01*
X44014285Y-41221092D02*
X43966666Y-41316330D01*
X43966666Y-41316330D02*
X43919047Y-41363950D01*
X43919047Y-41363950D02*
X43823809Y-41411569D01*
X43823809Y-41411569D02*
X43633333Y-41411569D01*
X43633333Y-41411569D02*
X43538095Y-41363950D01*
X43538095Y-41363950D02*
X43490476Y-41316330D01*
X43490476Y-41316330D02*
X43442857Y-41221092D01*
X43442857Y-41221092D02*
X43442857Y-40411569D01*
X43204762Y-41506807D02*
X42442857Y-41506807D01*
X42204761Y-41411569D02*
X42204761Y-40411569D01*
X42204761Y-40411569D02*
X41871428Y-41125854D01*
X41871428Y-41125854D02*
X41538095Y-40411569D01*
X41538095Y-40411569D02*
X41538095Y-41411569D01*
X41061904Y-40411569D02*
X41061904Y-41221092D01*
X41061904Y-41221092D02*
X41014285Y-41316330D01*
X41014285Y-41316330D02*
X40966666Y-41363950D01*
X40966666Y-41363950D02*
X40871428Y-41411569D01*
X40871428Y-41411569D02*
X40680952Y-41411569D01*
X40680952Y-41411569D02*
X40585714Y-41363950D01*
X40585714Y-41363950D02*
X40538095Y-41316330D01*
X40538095Y-41316330D02*
X40490476Y-41221092D01*
X40490476Y-41221092D02*
X40490476Y-40411569D01*
X40109523Y-40411569D02*
X39442857Y-41411569D01*
X39442857Y-40411569D02*
X40109523Y-41411569D01*
X38538095Y-41411569D02*
X39109523Y-41411569D01*
X38823809Y-41411569D02*
X38823809Y-40411569D01*
X38823809Y-40411569D02*
X38919047Y-40554426D01*
X38919047Y-40554426D02*
X39014285Y-40649664D01*
X39014285Y-40649664D02*
X39109523Y-40697283D01*
X129220475Y-30359580D02*
X129268094Y-30407200D01*
X129268094Y-30407200D02*
X129410951Y-30454819D01*
X129410951Y-30454819D02*
X129506189Y-30454819D01*
X129506189Y-30454819D02*
X129649046Y-30407200D01*
X129649046Y-30407200D02*
X129744284Y-30311961D01*
X129744284Y-30311961D02*
X129791903Y-30216723D01*
X129791903Y-30216723D02*
X129839522Y-30026247D01*
X129839522Y-30026247D02*
X129839522Y-29883390D01*
X129839522Y-29883390D02*
X129791903Y-29692914D01*
X129791903Y-29692914D02*
X129744284Y-29597676D01*
X129744284Y-29597676D02*
X129649046Y-29502438D01*
X129649046Y-29502438D02*
X129506189Y-29454819D01*
X129506189Y-29454819D02*
X129410951Y-29454819D01*
X129410951Y-29454819D02*
X129268094Y-29502438D01*
X129268094Y-29502438D02*
X129220475Y-29550057D01*
X129029999Y-30550057D02*
X128268094Y-30550057D01*
X128077617Y-30407200D02*
X127934760Y-30454819D01*
X127934760Y-30454819D02*
X127696665Y-30454819D01*
X127696665Y-30454819D02*
X127601427Y-30407200D01*
X127601427Y-30407200D02*
X127553808Y-30359580D01*
X127553808Y-30359580D02*
X127506189Y-30264342D01*
X127506189Y-30264342D02*
X127506189Y-30169104D01*
X127506189Y-30169104D02*
X127553808Y-30073866D01*
X127553808Y-30073866D02*
X127601427Y-30026247D01*
X127601427Y-30026247D02*
X127696665Y-29978628D01*
X127696665Y-29978628D02*
X127887141Y-29931009D01*
X127887141Y-29931009D02*
X127982379Y-29883390D01*
X127982379Y-29883390D02*
X128029998Y-29835771D01*
X128029998Y-29835771D02*
X128077617Y-29740533D01*
X128077617Y-29740533D02*
X128077617Y-29645295D01*
X128077617Y-29645295D02*
X128029998Y-29550057D01*
X128029998Y-29550057D02*
X127982379Y-29502438D01*
X127982379Y-29502438D02*
X127887141Y-29454819D01*
X127887141Y-29454819D02*
X127649046Y-29454819D01*
X127649046Y-29454819D02*
X127506189Y-29502438D01*
X127077617Y-29931009D02*
X126744284Y-29931009D01*
X126601427Y-30454819D02*
X127077617Y-30454819D01*
X127077617Y-30454819D02*
X127077617Y-29454819D01*
X127077617Y-29454819D02*
X126601427Y-29454819D01*
X126172855Y-30454819D02*
X126172855Y-29454819D01*
X126172855Y-29454819D02*
X125601427Y-30454819D01*
X125601427Y-30454819D02*
X125601427Y-29454819D01*
X125172855Y-30407200D02*
X125029998Y-30454819D01*
X125029998Y-30454819D02*
X124791903Y-30454819D01*
X124791903Y-30454819D02*
X124696665Y-30407200D01*
X124696665Y-30407200D02*
X124649046Y-30359580D01*
X124649046Y-30359580D02*
X124601427Y-30264342D01*
X124601427Y-30264342D02*
X124601427Y-30169104D01*
X124601427Y-30169104D02*
X124649046Y-30073866D01*
X124649046Y-30073866D02*
X124696665Y-30026247D01*
X124696665Y-30026247D02*
X124791903Y-29978628D01*
X124791903Y-29978628D02*
X124982379Y-29931009D01*
X124982379Y-29931009D02*
X125077617Y-29883390D01*
X125077617Y-29883390D02*
X125125236Y-29835771D01*
X125125236Y-29835771D02*
X125172855Y-29740533D01*
X125172855Y-29740533D02*
X125172855Y-29645295D01*
X125172855Y-29645295D02*
X125125236Y-29550057D01*
X125125236Y-29550057D02*
X125077617Y-29502438D01*
X125077617Y-29502438D02*
X124982379Y-29454819D01*
X124982379Y-29454819D02*
X124744284Y-29454819D01*
X124744284Y-29454819D02*
X124601427Y-29502438D01*
X124172855Y-29931009D02*
X123839522Y-29931009D01*
X123696665Y-30454819D02*
X124172855Y-30454819D01*
X124172855Y-30454819D02*
X124172855Y-29454819D01*
X124172855Y-29454819D02*
X123696665Y-29454819D01*
X122744284Y-30454819D02*
X123315712Y-30454819D01*
X123029998Y-30454819D02*
X123029998Y-29454819D01*
X123029998Y-29454819D02*
X123125236Y-29597676D01*
X123125236Y-29597676D02*
X123220474Y-29692914D01*
X123220474Y-29692914D02*
X123315712Y-29740533D01*
X69708441Y-61807840D02*
X70041774Y-61331649D01*
X70279869Y-61807840D02*
X70279869Y-60807840D01*
X70279869Y-60807840D02*
X69898917Y-60807840D01*
X69898917Y-60807840D02*
X69803679Y-60855459D01*
X69803679Y-60855459D02*
X69756060Y-60903078D01*
X69756060Y-60903078D02*
X69708441Y-60998316D01*
X69708441Y-60998316D02*
X69708441Y-61141173D01*
X69708441Y-61141173D02*
X69756060Y-61236411D01*
X69756060Y-61236411D02*
X69803679Y-61284030D01*
X69803679Y-61284030D02*
X69898917Y-61331649D01*
X69898917Y-61331649D02*
X70279869Y-61331649D01*
X68851298Y-60807840D02*
X69041774Y-60807840D01*
X69041774Y-60807840D02*
X69137012Y-60855459D01*
X69137012Y-60855459D02*
X69184631Y-60903078D01*
X69184631Y-60903078D02*
X69279869Y-61045935D01*
X69279869Y-61045935D02*
X69327488Y-61236411D01*
X69327488Y-61236411D02*
X69327488Y-61617363D01*
X69327488Y-61617363D02*
X69279869Y-61712601D01*
X69279869Y-61712601D02*
X69232250Y-61760221D01*
X69232250Y-61760221D02*
X69137012Y-61807840D01*
X69137012Y-61807840D02*
X68946536Y-61807840D01*
X68946536Y-61807840D02*
X68851298Y-61760221D01*
X68851298Y-61760221D02*
X68803679Y-61712601D01*
X68803679Y-61712601D02*
X68756060Y-61617363D01*
X68756060Y-61617363D02*
X68756060Y-61379268D01*
X68756060Y-61379268D02*
X68803679Y-61284030D01*
X68803679Y-61284030D02*
X68851298Y-61236411D01*
X68851298Y-61236411D02*
X68946536Y-61188792D01*
X68946536Y-61188792D02*
X69137012Y-61188792D01*
X69137012Y-61188792D02*
X69232250Y-61236411D01*
X69232250Y-61236411D02*
X69279869Y-61284030D01*
X69279869Y-61284030D02*
X69327488Y-61379268D01*
X12381904Y-85686329D02*
X12429523Y-85733949D01*
X12429523Y-85733949D02*
X12572380Y-85781568D01*
X12572380Y-85781568D02*
X12667618Y-85781568D01*
X12667618Y-85781568D02*
X12810475Y-85733949D01*
X12810475Y-85733949D02*
X12905713Y-85638710D01*
X12905713Y-85638710D02*
X12953332Y-85543472D01*
X12953332Y-85543472D02*
X13000951Y-85352996D01*
X13000951Y-85352996D02*
X13000951Y-85210139D01*
X13000951Y-85210139D02*
X12953332Y-85019663D01*
X12953332Y-85019663D02*
X12905713Y-84924425D01*
X12905713Y-84924425D02*
X12810475Y-84829187D01*
X12810475Y-84829187D02*
X12667618Y-84781568D01*
X12667618Y-84781568D02*
X12572380Y-84781568D01*
X12572380Y-84781568D02*
X12429523Y-84829187D01*
X12429523Y-84829187D02*
X12381904Y-84876806D01*
X12191428Y-85876806D02*
X11429523Y-85876806D01*
X10715237Y-85781568D02*
X11191427Y-85781568D01*
X11191427Y-85781568D02*
X11191427Y-84781568D01*
X10381903Y-85781568D02*
X10381903Y-84781568D01*
X10381903Y-84781568D02*
X10143808Y-84781568D01*
X10143808Y-84781568D02*
X10000951Y-84829187D01*
X10000951Y-84829187D02*
X9905713Y-84924425D01*
X9905713Y-84924425D02*
X9858094Y-85019663D01*
X9858094Y-85019663D02*
X9810475Y-85210139D01*
X9810475Y-85210139D02*
X9810475Y-85352996D01*
X9810475Y-85352996D02*
X9858094Y-85543472D01*
X9858094Y-85543472D02*
X9905713Y-85638710D01*
X9905713Y-85638710D02*
X10000951Y-85733949D01*
X10000951Y-85733949D02*
X10143808Y-85781568D01*
X10143808Y-85781568D02*
X10381903Y-85781568D01*
X9191427Y-84781568D02*
X9000951Y-84781568D01*
X9000951Y-84781568D02*
X8905713Y-84829187D01*
X8905713Y-84829187D02*
X8810475Y-84924425D01*
X8810475Y-84924425D02*
X8762856Y-85114901D01*
X8762856Y-85114901D02*
X8762856Y-85448234D01*
X8762856Y-85448234D02*
X8810475Y-85638710D01*
X8810475Y-85638710D02*
X8905713Y-85733949D01*
X8905713Y-85733949D02*
X9000951Y-85781568D01*
X9000951Y-85781568D02*
X9191427Y-85781568D01*
X9191427Y-85781568D02*
X9286665Y-85733949D01*
X9286665Y-85733949D02*
X9381903Y-85638710D01*
X9381903Y-85638710D02*
X9429522Y-85448234D01*
X9429522Y-85448234D02*
X9429522Y-85114901D01*
X9429522Y-85114901D02*
X9381903Y-84924425D01*
X9381903Y-84924425D02*
X9286665Y-84829187D01*
X9286665Y-84829187D02*
X9191427Y-84781568D01*
X8572380Y-85876806D02*
X7810475Y-85876806D01*
X7715236Y-84781568D02*
X7143808Y-84781568D01*
X7429522Y-85781568D02*
X7429522Y-84781568D01*
X124816030Y-68251325D02*
X124244602Y-68251325D01*
X124530316Y-69251325D02*
X124530316Y-68251325D01*
X123911268Y-69251325D02*
X123911268Y-68251325D01*
X123911268Y-68251325D02*
X123530316Y-68251325D01*
X123530316Y-68251325D02*
X123435078Y-68298944D01*
X123435078Y-68298944D02*
X123387459Y-68346563D01*
X123387459Y-68346563D02*
X123339840Y-68441801D01*
X123339840Y-68441801D02*
X123339840Y-68584658D01*
X123339840Y-68584658D02*
X123387459Y-68679896D01*
X123387459Y-68679896D02*
X123435078Y-68727515D01*
X123435078Y-68727515D02*
X123530316Y-68775134D01*
X123530316Y-68775134D02*
X123911268Y-68775134D01*
X122768411Y-68679896D02*
X122863649Y-68632277D01*
X122863649Y-68632277D02*
X122911268Y-68584658D01*
X122911268Y-68584658D02*
X122958887Y-68489420D01*
X122958887Y-68489420D02*
X122958887Y-68441801D01*
X122958887Y-68441801D02*
X122911268Y-68346563D01*
X122911268Y-68346563D02*
X122863649Y-68298944D01*
X122863649Y-68298944D02*
X122768411Y-68251325D01*
X122768411Y-68251325D02*
X122577935Y-68251325D01*
X122577935Y-68251325D02*
X122482697Y-68298944D01*
X122482697Y-68298944D02*
X122435078Y-68346563D01*
X122435078Y-68346563D02*
X122387459Y-68441801D01*
X122387459Y-68441801D02*
X122387459Y-68489420D01*
X122387459Y-68489420D02*
X122435078Y-68584658D01*
X122435078Y-68584658D02*
X122482697Y-68632277D01*
X122482697Y-68632277D02*
X122577935Y-68679896D01*
X122577935Y-68679896D02*
X122768411Y-68679896D01*
X122768411Y-68679896D02*
X122863649Y-68727515D01*
X122863649Y-68727515D02*
X122911268Y-68775134D01*
X122911268Y-68775134D02*
X122958887Y-68870372D01*
X122958887Y-68870372D02*
X122958887Y-69060848D01*
X122958887Y-69060848D02*
X122911268Y-69156086D01*
X122911268Y-69156086D02*
X122863649Y-69203706D01*
X122863649Y-69203706D02*
X122768411Y-69251325D01*
X122768411Y-69251325D02*
X122577935Y-69251325D01*
X122577935Y-69251325D02*
X122482697Y-69203706D01*
X122482697Y-69203706D02*
X122435078Y-69156086D01*
X122435078Y-69156086D02*
X122387459Y-69060848D01*
X122387459Y-69060848D02*
X122387459Y-68870372D01*
X122387459Y-68870372D02*
X122435078Y-68775134D01*
X122435078Y-68775134D02*
X122482697Y-68727515D01*
X122482697Y-68727515D02*
X122577935Y-68679896D01*
X124142219Y-48612325D02*
X123570791Y-48612325D01*
X123856505Y-49612325D02*
X123856505Y-48612325D01*
X123237457Y-49612325D02*
X123237457Y-48612325D01*
X123237457Y-48612325D02*
X122856505Y-48612325D01*
X122856505Y-48612325D02*
X122761267Y-48659944D01*
X122761267Y-48659944D02*
X122713648Y-48707563D01*
X122713648Y-48707563D02*
X122666029Y-48802801D01*
X122666029Y-48802801D02*
X122666029Y-48945658D01*
X122666029Y-48945658D02*
X122713648Y-49040896D01*
X122713648Y-49040896D02*
X122761267Y-49088515D01*
X122761267Y-49088515D02*
X122856505Y-49136134D01*
X122856505Y-49136134D02*
X123237457Y-49136134D01*
X121713648Y-49612325D02*
X122285076Y-49612325D01*
X121999362Y-49612325D02*
X121999362Y-48612325D01*
X121999362Y-48612325D02*
X122094600Y-48755182D01*
X122094600Y-48755182D02*
X122189838Y-48850420D01*
X122189838Y-48850420D02*
X122285076Y-48898039D01*
X120808886Y-48612325D02*
X121285076Y-48612325D01*
X121285076Y-48612325D02*
X121332695Y-49088515D01*
X121332695Y-49088515D02*
X121285076Y-49040896D01*
X121285076Y-49040896D02*
X121189838Y-48993277D01*
X121189838Y-48993277D02*
X120951743Y-48993277D01*
X120951743Y-48993277D02*
X120856505Y-49040896D01*
X120856505Y-49040896D02*
X120808886Y-49088515D01*
X120808886Y-49088515D02*
X120761267Y-49183753D01*
X120761267Y-49183753D02*
X120761267Y-49421848D01*
X120761267Y-49421848D02*
X120808886Y-49517086D01*
X120808886Y-49517086D02*
X120856505Y-49564706D01*
X120856505Y-49564706D02*
X120951743Y-49612325D01*
X120951743Y-49612325D02*
X121189838Y-49612325D01*
X121189838Y-49612325D02*
X121285076Y-49564706D01*
X121285076Y-49564706D02*
X121332695Y-49517086D01*
X173342857Y-114508068D02*
X173676190Y-114031877D01*
X173914285Y-114508068D02*
X173914285Y-113508068D01*
X173914285Y-113508068D02*
X173533333Y-113508068D01*
X173533333Y-113508068D02*
X173438095Y-113555687D01*
X173438095Y-113555687D02*
X173390476Y-113603306D01*
X173390476Y-113603306D02*
X173342857Y-113698544D01*
X173342857Y-113698544D02*
X173342857Y-113841401D01*
X173342857Y-113841401D02*
X173390476Y-113936639D01*
X173390476Y-113936639D02*
X173438095Y-113984258D01*
X173438095Y-113984258D02*
X173533333Y-114031877D01*
X173533333Y-114031877D02*
X173914285Y-114031877D01*
X172961904Y-113603306D02*
X172914285Y-113555687D01*
X172914285Y-113555687D02*
X172819047Y-113508068D01*
X172819047Y-113508068D02*
X172580952Y-113508068D01*
X172580952Y-113508068D02*
X172485714Y-113555687D01*
X172485714Y-113555687D02*
X172438095Y-113603306D01*
X172438095Y-113603306D02*
X172390476Y-113698544D01*
X172390476Y-113698544D02*
X172390476Y-113793782D01*
X172390476Y-113793782D02*
X172438095Y-113936639D01*
X172438095Y-113936639D02*
X173009523Y-114508068D01*
X173009523Y-114508068D02*
X172390476Y-114508068D01*
X171533333Y-113508068D02*
X171723809Y-113508068D01*
X171723809Y-113508068D02*
X171819047Y-113555687D01*
X171819047Y-113555687D02*
X171866666Y-113603306D01*
X171866666Y-113603306D02*
X171961904Y-113746163D01*
X171961904Y-113746163D02*
X172009523Y-113936639D01*
X172009523Y-113936639D02*
X172009523Y-114317591D01*
X172009523Y-114317591D02*
X171961904Y-114412829D01*
X171961904Y-114412829D02*
X171914285Y-114460449D01*
X171914285Y-114460449D02*
X171819047Y-114508068D01*
X171819047Y-114508068D02*
X171628571Y-114508068D01*
X171628571Y-114508068D02*
X171533333Y-114460449D01*
X171533333Y-114460449D02*
X171485714Y-114412829D01*
X171485714Y-114412829D02*
X171438095Y-114317591D01*
X171438095Y-114317591D02*
X171438095Y-114079496D01*
X171438095Y-114079496D02*
X171485714Y-113984258D01*
X171485714Y-113984258D02*
X171533333Y-113936639D01*
X171533333Y-113936639D02*
X171628571Y-113889020D01*
X171628571Y-113889020D02*
X171819047Y-113889020D01*
X171819047Y-113889020D02*
X171914285Y-113936639D01*
X171914285Y-113936639D02*
X171961904Y-113984258D01*
X171961904Y-113984258D02*
X172009523Y-114079496D01*
X80128650Y-43090318D02*
X79557222Y-43090318D01*
X79842936Y-44090318D02*
X79842936Y-43090318D01*
X79223888Y-44090318D02*
X79223888Y-43090318D01*
X79223888Y-43090318D02*
X78842936Y-43090318D01*
X78842936Y-43090318D02*
X78747698Y-43137937D01*
X78747698Y-43137937D02*
X78700079Y-43185556D01*
X78700079Y-43185556D02*
X78652460Y-43280794D01*
X78652460Y-43280794D02*
X78652460Y-43423651D01*
X78652460Y-43423651D02*
X78700079Y-43518889D01*
X78700079Y-43518889D02*
X78747698Y-43566508D01*
X78747698Y-43566508D02*
X78842936Y-43614127D01*
X78842936Y-43614127D02*
X79223888Y-43614127D01*
X77700079Y-44090318D02*
X78271507Y-44090318D01*
X77985793Y-44090318D02*
X77985793Y-43090318D01*
X77985793Y-43090318D02*
X78081031Y-43233175D01*
X78081031Y-43233175D02*
X78176269Y-43328413D01*
X78176269Y-43328413D02*
X78271507Y-43376032D01*
X183325357Y-86733068D02*
X183658690Y-86256877D01*
X183896785Y-86733068D02*
X183896785Y-85733068D01*
X183896785Y-85733068D02*
X183515833Y-85733068D01*
X183515833Y-85733068D02*
X183420595Y-85780687D01*
X183420595Y-85780687D02*
X183372976Y-85828306D01*
X183372976Y-85828306D02*
X183325357Y-85923544D01*
X183325357Y-85923544D02*
X183325357Y-86066401D01*
X183325357Y-86066401D02*
X183372976Y-86161639D01*
X183372976Y-86161639D02*
X183420595Y-86209258D01*
X183420595Y-86209258D02*
X183515833Y-86256877D01*
X183515833Y-86256877D02*
X183896785Y-86256877D01*
X182372976Y-86733068D02*
X182944404Y-86733068D01*
X182658690Y-86733068D02*
X182658690Y-85733068D01*
X182658690Y-85733068D02*
X182753928Y-85875925D01*
X182753928Y-85875925D02*
X182849166Y-85971163D01*
X182849166Y-85971163D02*
X182944404Y-86018782D01*
X181515833Y-85733068D02*
X181706309Y-85733068D01*
X181706309Y-85733068D02*
X181801547Y-85780687D01*
X181801547Y-85780687D02*
X181849166Y-85828306D01*
X181849166Y-85828306D02*
X181944404Y-85971163D01*
X181944404Y-85971163D02*
X181992023Y-86161639D01*
X181992023Y-86161639D02*
X181992023Y-86542591D01*
X181992023Y-86542591D02*
X181944404Y-86637829D01*
X181944404Y-86637829D02*
X181896785Y-86685449D01*
X181896785Y-86685449D02*
X181801547Y-86733068D01*
X181801547Y-86733068D02*
X181611071Y-86733068D01*
X181611071Y-86733068D02*
X181515833Y-86685449D01*
X181515833Y-86685449D02*
X181468214Y-86637829D01*
X181468214Y-86637829D02*
X181420595Y-86542591D01*
X181420595Y-86542591D02*
X181420595Y-86304496D01*
X181420595Y-86304496D02*
X181468214Y-86209258D01*
X181468214Y-86209258D02*
X181515833Y-86161639D01*
X181515833Y-86161639D02*
X181611071Y-86114020D01*
X181611071Y-86114020D02*
X181801547Y-86114020D01*
X181801547Y-86114020D02*
X181896785Y-86161639D01*
X181896785Y-86161639D02*
X181944404Y-86209258D01*
X181944404Y-86209258D02*
X181992023Y-86304496D01*
X189361666Y-61845444D02*
X189361666Y-62654967D01*
X189361666Y-62654967D02*
X189314047Y-62750205D01*
X189314047Y-62750205D02*
X189266428Y-62797825D01*
X189266428Y-62797825D02*
X189171190Y-62845444D01*
X189171190Y-62845444D02*
X188980714Y-62845444D01*
X188980714Y-62845444D02*
X188885476Y-62797825D01*
X188885476Y-62797825D02*
X188837857Y-62750205D01*
X188837857Y-62750205D02*
X188790238Y-62654967D01*
X188790238Y-62654967D02*
X188790238Y-61845444D01*
X188552143Y-62940682D02*
X187790238Y-62940682D01*
X187552142Y-62845444D02*
X187552142Y-61845444D01*
X187552142Y-61845444D02*
X187218809Y-62559729D01*
X187218809Y-62559729D02*
X186885476Y-61845444D01*
X186885476Y-61845444D02*
X186885476Y-62845444D01*
X186409285Y-61845444D02*
X186409285Y-62654967D01*
X186409285Y-62654967D02*
X186361666Y-62750205D01*
X186361666Y-62750205D02*
X186314047Y-62797825D01*
X186314047Y-62797825D02*
X186218809Y-62845444D01*
X186218809Y-62845444D02*
X186028333Y-62845444D01*
X186028333Y-62845444D02*
X185933095Y-62797825D01*
X185933095Y-62797825D02*
X185885476Y-62750205D01*
X185885476Y-62750205D02*
X185837857Y-62654967D01*
X185837857Y-62654967D02*
X185837857Y-61845444D01*
X185456904Y-61845444D02*
X184790238Y-62845444D01*
X184790238Y-61845444D02*
X185456904Y-62845444D01*
X184361666Y-62845444D02*
X184171190Y-62845444D01*
X184171190Y-62845444D02*
X184075952Y-62797825D01*
X184075952Y-62797825D02*
X184028333Y-62750205D01*
X184028333Y-62750205D02*
X183933095Y-62607348D01*
X183933095Y-62607348D02*
X183885476Y-62416872D01*
X183885476Y-62416872D02*
X183885476Y-62035920D01*
X183885476Y-62035920D02*
X183933095Y-61940682D01*
X183933095Y-61940682D02*
X183980714Y-61893063D01*
X183980714Y-61893063D02*
X184075952Y-61845444D01*
X184075952Y-61845444D02*
X184266428Y-61845444D01*
X184266428Y-61845444D02*
X184361666Y-61893063D01*
X184361666Y-61893063D02*
X184409285Y-61940682D01*
X184409285Y-61940682D02*
X184456904Y-62035920D01*
X184456904Y-62035920D02*
X184456904Y-62274015D01*
X184456904Y-62274015D02*
X184409285Y-62369253D01*
X184409285Y-62369253D02*
X184361666Y-62416872D01*
X184361666Y-62416872D02*
X184266428Y-62464491D01*
X184266428Y-62464491D02*
X184075952Y-62464491D01*
X184075952Y-62464491D02*
X183980714Y-62416872D01*
X183980714Y-62416872D02*
X183933095Y-62369253D01*
X183933095Y-62369253D02*
X183885476Y-62274015D01*
X66612857Y-78164569D02*
X66946190Y-77688378D01*
X67184285Y-78164569D02*
X67184285Y-77164569D01*
X67184285Y-77164569D02*
X66803333Y-77164569D01*
X66803333Y-77164569D02*
X66708095Y-77212188D01*
X66708095Y-77212188D02*
X66660476Y-77259807D01*
X66660476Y-77259807D02*
X66612857Y-77355045D01*
X66612857Y-77355045D02*
X66612857Y-77497902D01*
X66612857Y-77497902D02*
X66660476Y-77593140D01*
X66660476Y-77593140D02*
X66708095Y-77640759D01*
X66708095Y-77640759D02*
X66803333Y-77688378D01*
X66803333Y-77688378D02*
X67184285Y-77688378D01*
X66231904Y-77259807D02*
X66184285Y-77212188D01*
X66184285Y-77212188D02*
X66089047Y-77164569D01*
X66089047Y-77164569D02*
X65850952Y-77164569D01*
X65850952Y-77164569D02*
X65755714Y-77212188D01*
X65755714Y-77212188D02*
X65708095Y-77259807D01*
X65708095Y-77259807D02*
X65660476Y-77355045D01*
X65660476Y-77355045D02*
X65660476Y-77450283D01*
X65660476Y-77450283D02*
X65708095Y-77593140D01*
X65708095Y-77593140D02*
X66279523Y-78164569D01*
X66279523Y-78164569D02*
X65660476Y-78164569D01*
X64708095Y-78164569D02*
X65279523Y-78164569D01*
X64993809Y-78164569D02*
X64993809Y-77164569D01*
X64993809Y-77164569D02*
X65089047Y-77307426D01*
X65089047Y-77307426D02*
X65184285Y-77402664D01*
X65184285Y-77402664D02*
X65279523Y-77450283D01*
X29612855Y-108839578D02*
X29660474Y-108887198D01*
X29660474Y-108887198D02*
X29803331Y-108934817D01*
X29803331Y-108934817D02*
X29898569Y-108934817D01*
X29898569Y-108934817D02*
X30041426Y-108887198D01*
X30041426Y-108887198D02*
X30136664Y-108791959D01*
X30136664Y-108791959D02*
X30184283Y-108696721D01*
X30184283Y-108696721D02*
X30231902Y-108506245D01*
X30231902Y-108506245D02*
X30231902Y-108363388D01*
X30231902Y-108363388D02*
X30184283Y-108172912D01*
X30184283Y-108172912D02*
X30136664Y-108077674D01*
X30136664Y-108077674D02*
X30041426Y-107982436D01*
X30041426Y-107982436D02*
X29898569Y-107934817D01*
X29898569Y-107934817D02*
X29803331Y-107934817D01*
X29803331Y-107934817D02*
X29660474Y-107982436D01*
X29660474Y-107982436D02*
X29612855Y-108030055D01*
X29231902Y-108030055D02*
X29184283Y-107982436D01*
X29184283Y-107982436D02*
X29089045Y-107934817D01*
X29089045Y-107934817D02*
X28850950Y-107934817D01*
X28850950Y-107934817D02*
X28755712Y-107982436D01*
X28755712Y-107982436D02*
X28708093Y-108030055D01*
X28708093Y-108030055D02*
X28660474Y-108125293D01*
X28660474Y-108125293D02*
X28660474Y-108220531D01*
X28660474Y-108220531D02*
X28708093Y-108363388D01*
X28708093Y-108363388D02*
X29279521Y-108934817D01*
X29279521Y-108934817D02*
X28660474Y-108934817D01*
X130684390Y-53161814D02*
X131017723Y-52685623D01*
X131255818Y-53161814D02*
X131255818Y-52161814D01*
X131255818Y-52161814D02*
X130874866Y-52161814D01*
X130874866Y-52161814D02*
X130779628Y-52209433D01*
X130779628Y-52209433D02*
X130732009Y-52257052D01*
X130732009Y-52257052D02*
X130684390Y-52352290D01*
X130684390Y-52352290D02*
X130684390Y-52495147D01*
X130684390Y-52495147D02*
X130732009Y-52590385D01*
X130732009Y-52590385D02*
X130779628Y-52638004D01*
X130779628Y-52638004D02*
X130874866Y-52685623D01*
X130874866Y-52685623D02*
X131255818Y-52685623D01*
X129732009Y-53161814D02*
X130303437Y-53161814D01*
X130017723Y-53161814D02*
X130017723Y-52161814D01*
X130017723Y-52161814D02*
X130112961Y-52304671D01*
X130112961Y-52304671D02*
X130208199Y-52399909D01*
X130208199Y-52399909D02*
X130303437Y-52447528D01*
X283889285Y-44513694D02*
X283889285Y-45323217D01*
X283889285Y-45323217D02*
X283841666Y-45418455D01*
X283841666Y-45418455D02*
X283794047Y-45466075D01*
X283794047Y-45466075D02*
X283698809Y-45513694D01*
X283698809Y-45513694D02*
X283508333Y-45513694D01*
X283508333Y-45513694D02*
X283413095Y-45466075D01*
X283413095Y-45466075D02*
X283365476Y-45418455D01*
X283365476Y-45418455D02*
X283317857Y-45323217D01*
X283317857Y-45323217D02*
X283317857Y-44513694D01*
X283079762Y-45608932D02*
X282317857Y-45608932D01*
X282079761Y-45513694D02*
X282079761Y-44513694D01*
X282079761Y-44513694D02*
X281746428Y-45227979D01*
X281746428Y-45227979D02*
X281413095Y-44513694D01*
X281413095Y-44513694D02*
X281413095Y-45513694D01*
X280936904Y-44513694D02*
X280936904Y-45323217D01*
X280936904Y-45323217D02*
X280889285Y-45418455D01*
X280889285Y-45418455D02*
X280841666Y-45466075D01*
X280841666Y-45466075D02*
X280746428Y-45513694D01*
X280746428Y-45513694D02*
X280555952Y-45513694D01*
X280555952Y-45513694D02*
X280460714Y-45466075D01*
X280460714Y-45466075D02*
X280413095Y-45418455D01*
X280413095Y-45418455D02*
X280365476Y-45323217D01*
X280365476Y-45323217D02*
X280365476Y-44513694D01*
X279984523Y-44513694D02*
X279317857Y-45513694D01*
X279317857Y-44513694D02*
X279984523Y-45513694D01*
X279032142Y-44513694D02*
X278413095Y-44513694D01*
X278413095Y-44513694D02*
X278746428Y-44894646D01*
X278746428Y-44894646D02*
X278603571Y-44894646D01*
X278603571Y-44894646D02*
X278508333Y-44942265D01*
X278508333Y-44942265D02*
X278460714Y-44989884D01*
X278460714Y-44989884D02*
X278413095Y-45085122D01*
X278413095Y-45085122D02*
X278413095Y-45323217D01*
X278413095Y-45323217D02*
X278460714Y-45418455D01*
X278460714Y-45418455D02*
X278508333Y-45466075D01*
X278508333Y-45466075D02*
X278603571Y-45513694D01*
X278603571Y-45513694D02*
X278889285Y-45513694D01*
X278889285Y-45513694D02*
X278984523Y-45466075D01*
X278984523Y-45466075D02*
X279032142Y-45418455D01*
X19986665Y-111412829D02*
X20034284Y-111460449D01*
X20034284Y-111460449D02*
X20177141Y-111508068D01*
X20177141Y-111508068D02*
X20272379Y-111508068D01*
X20272379Y-111508068D02*
X20415236Y-111460449D01*
X20415236Y-111460449D02*
X20510474Y-111365210D01*
X20510474Y-111365210D02*
X20558093Y-111269972D01*
X20558093Y-111269972D02*
X20605712Y-111079496D01*
X20605712Y-111079496D02*
X20605712Y-110936639D01*
X20605712Y-110936639D02*
X20558093Y-110746163D01*
X20558093Y-110746163D02*
X20510474Y-110650925D01*
X20510474Y-110650925D02*
X20415236Y-110555687D01*
X20415236Y-110555687D02*
X20272379Y-110508068D01*
X20272379Y-110508068D02*
X20177141Y-110508068D01*
X20177141Y-110508068D02*
X20034284Y-110555687D01*
X20034284Y-110555687D02*
X19986665Y-110603306D01*
X19034284Y-111508068D02*
X19605712Y-111508068D01*
X19319998Y-111508068D02*
X19319998Y-110508068D01*
X19319998Y-110508068D02*
X19415236Y-110650925D01*
X19415236Y-110650925D02*
X19510474Y-110746163D01*
X19510474Y-110746163D02*
X19605712Y-110793782D01*
X185489284Y-35531401D02*
X185536903Y-35579021D01*
X185536903Y-35579021D02*
X185679760Y-35626640D01*
X185679760Y-35626640D02*
X185774998Y-35626640D01*
X185774998Y-35626640D02*
X185917855Y-35579021D01*
X185917855Y-35579021D02*
X186013093Y-35483782D01*
X186013093Y-35483782D02*
X186060712Y-35388544D01*
X186060712Y-35388544D02*
X186108331Y-35198068D01*
X186108331Y-35198068D02*
X186108331Y-35055211D01*
X186108331Y-35055211D02*
X186060712Y-34864735D01*
X186060712Y-34864735D02*
X186013093Y-34769497D01*
X186013093Y-34769497D02*
X185917855Y-34674259D01*
X185917855Y-34674259D02*
X185774998Y-34626640D01*
X185774998Y-34626640D02*
X185679760Y-34626640D01*
X185679760Y-34626640D02*
X185536903Y-34674259D01*
X185536903Y-34674259D02*
X185489284Y-34721878D01*
X184536903Y-35626640D02*
X185108331Y-35626640D01*
X184822617Y-35626640D02*
X184822617Y-34626640D01*
X184822617Y-34626640D02*
X184917855Y-34769497D01*
X184917855Y-34769497D02*
X185013093Y-34864735D01*
X185013093Y-34864735D02*
X185108331Y-34912354D01*
X184155950Y-34721878D02*
X184108331Y-34674259D01*
X184108331Y-34674259D02*
X184013093Y-34626640D01*
X184013093Y-34626640D02*
X183774998Y-34626640D01*
X183774998Y-34626640D02*
X183679760Y-34674259D01*
X183679760Y-34674259D02*
X183632141Y-34721878D01*
X183632141Y-34721878D02*
X183584522Y-34817116D01*
X183584522Y-34817116D02*
X183584522Y-34912354D01*
X183584522Y-34912354D02*
X183632141Y-35055211D01*
X183632141Y-35055211D02*
X184203569Y-35626640D01*
X184203569Y-35626640D02*
X183584522Y-35626640D01*
X104554818Y-16174047D02*
X105364341Y-16174047D01*
X105364341Y-16174047D02*
X105459579Y-16221666D01*
X105459579Y-16221666D02*
X105507199Y-16269285D01*
X105507199Y-16269285D02*
X105554818Y-16364523D01*
X105554818Y-16364523D02*
X105554818Y-16554999D01*
X105554818Y-16554999D02*
X105507199Y-16650237D01*
X105507199Y-16650237D02*
X105459579Y-16697856D01*
X105459579Y-16697856D02*
X105364341Y-16745475D01*
X105364341Y-16745475D02*
X104554818Y-16745475D01*
X105650056Y-16983571D02*
X105650056Y-17745475D01*
X105554818Y-17983571D02*
X104554818Y-17983571D01*
X104554818Y-17983571D02*
X105269103Y-18316904D01*
X105269103Y-18316904D02*
X104554818Y-18650237D01*
X104554818Y-18650237D02*
X105554818Y-18650237D01*
X104554818Y-19126428D02*
X105364341Y-19126428D01*
X105364341Y-19126428D02*
X105459579Y-19174047D01*
X105459579Y-19174047D02*
X105507199Y-19221666D01*
X105507199Y-19221666D02*
X105554818Y-19316904D01*
X105554818Y-19316904D02*
X105554818Y-19507380D01*
X105554818Y-19507380D02*
X105507199Y-19602618D01*
X105507199Y-19602618D02*
X105459579Y-19650237D01*
X105459579Y-19650237D02*
X105364341Y-19697856D01*
X105364341Y-19697856D02*
X104554818Y-19697856D01*
X104554818Y-20078809D02*
X105554818Y-20745475D01*
X104554818Y-20745475D02*
X105554818Y-20078809D01*
X104554818Y-21554999D02*
X104554818Y-21364523D01*
X104554818Y-21364523D02*
X104602437Y-21269285D01*
X104602437Y-21269285D02*
X104650056Y-21221666D01*
X104650056Y-21221666D02*
X104792913Y-21126428D01*
X104792913Y-21126428D02*
X104983389Y-21078809D01*
X104983389Y-21078809D02*
X105364341Y-21078809D01*
X105364341Y-21078809D02*
X105459579Y-21126428D01*
X105459579Y-21126428D02*
X105507199Y-21174047D01*
X105507199Y-21174047D02*
X105554818Y-21269285D01*
X105554818Y-21269285D02*
X105554818Y-21459761D01*
X105554818Y-21459761D02*
X105507199Y-21554999D01*
X105507199Y-21554999D02*
X105459579Y-21602618D01*
X105459579Y-21602618D02*
X105364341Y-21650237D01*
X105364341Y-21650237D02*
X105126246Y-21650237D01*
X105126246Y-21650237D02*
X105031008Y-21602618D01*
X105031008Y-21602618D02*
X104983389Y-21554999D01*
X104983389Y-21554999D02*
X104935770Y-21459761D01*
X104935770Y-21459761D02*
X104935770Y-21269285D01*
X104935770Y-21269285D02*
X104983389Y-21174047D01*
X104983389Y-21174047D02*
X105031008Y-21126428D01*
X105031008Y-21126428D02*
X105126246Y-21078809D01*
X262040355Y-57706080D02*
X262087974Y-57753700D01*
X262087974Y-57753700D02*
X262230831Y-57801319D01*
X262230831Y-57801319D02*
X262326069Y-57801319D01*
X262326069Y-57801319D02*
X262468926Y-57753700D01*
X262468926Y-57753700D02*
X262564164Y-57658461D01*
X262564164Y-57658461D02*
X262611783Y-57563223D01*
X262611783Y-57563223D02*
X262659402Y-57372747D01*
X262659402Y-57372747D02*
X262659402Y-57229890D01*
X262659402Y-57229890D02*
X262611783Y-57039414D01*
X262611783Y-57039414D02*
X262564164Y-56944176D01*
X262564164Y-56944176D02*
X262468926Y-56848938D01*
X262468926Y-56848938D02*
X262326069Y-56801319D01*
X262326069Y-56801319D02*
X262230831Y-56801319D01*
X262230831Y-56801319D02*
X262087974Y-56848938D01*
X262087974Y-56848938D02*
X262040355Y-56896557D01*
X261659402Y-56896557D02*
X261611783Y-56848938D01*
X261611783Y-56848938D02*
X261516545Y-56801319D01*
X261516545Y-56801319D02*
X261278450Y-56801319D01*
X261278450Y-56801319D02*
X261183212Y-56848938D01*
X261183212Y-56848938D02*
X261135593Y-56896557D01*
X261135593Y-56896557D02*
X261087974Y-56991795D01*
X261087974Y-56991795D02*
X261087974Y-57087033D01*
X261087974Y-57087033D02*
X261135593Y-57229890D01*
X261135593Y-57229890D02*
X261707021Y-57801319D01*
X261707021Y-57801319D02*
X261087974Y-57801319D01*
X260468926Y-56801319D02*
X260373688Y-56801319D01*
X260373688Y-56801319D02*
X260278450Y-56848938D01*
X260278450Y-56848938D02*
X260230831Y-56896557D01*
X260230831Y-56896557D02*
X260183212Y-56991795D01*
X260183212Y-56991795D02*
X260135593Y-57182271D01*
X260135593Y-57182271D02*
X260135593Y-57420366D01*
X260135593Y-57420366D02*
X260183212Y-57610842D01*
X260183212Y-57610842D02*
X260230831Y-57706080D01*
X260230831Y-57706080D02*
X260278450Y-57753700D01*
X260278450Y-57753700D02*
X260373688Y-57801319D01*
X260373688Y-57801319D02*
X260468926Y-57801319D01*
X260468926Y-57801319D02*
X260564164Y-57753700D01*
X260564164Y-57753700D02*
X260611783Y-57706080D01*
X260611783Y-57706080D02*
X260659402Y-57610842D01*
X260659402Y-57610842D02*
X260707021Y-57420366D01*
X260707021Y-57420366D02*
X260707021Y-57182271D01*
X260707021Y-57182271D02*
X260659402Y-56991795D01*
X260659402Y-56991795D02*
X260611783Y-56896557D01*
X260611783Y-56896557D02*
X260564164Y-56848938D01*
X260564164Y-56848938D02*
X260468926Y-56801319D01*
X133301815Y-30099522D02*
X133301815Y-30670950D01*
X134301815Y-30385236D02*
X133301815Y-30385236D01*
X134301815Y-31004284D02*
X133301815Y-31004284D01*
X133301815Y-31004284D02*
X133301815Y-31385236D01*
X133301815Y-31385236D02*
X133349434Y-31480474D01*
X133349434Y-31480474D02*
X133397053Y-31528093D01*
X133397053Y-31528093D02*
X133492291Y-31575712D01*
X133492291Y-31575712D02*
X133635148Y-31575712D01*
X133635148Y-31575712D02*
X133730386Y-31528093D01*
X133730386Y-31528093D02*
X133778005Y-31480474D01*
X133778005Y-31480474D02*
X133825624Y-31385236D01*
X133825624Y-31385236D02*
X133825624Y-31004284D01*
X133301815Y-31909046D02*
X133301815Y-32528093D01*
X133301815Y-32528093D02*
X133682767Y-32194760D01*
X133682767Y-32194760D02*
X133682767Y-32337617D01*
X133682767Y-32337617D02*
X133730386Y-32432855D01*
X133730386Y-32432855D02*
X133778005Y-32480474D01*
X133778005Y-32480474D02*
X133873243Y-32528093D01*
X133873243Y-32528093D02*
X134111338Y-32528093D01*
X134111338Y-32528093D02*
X134206576Y-32480474D01*
X134206576Y-32480474D02*
X134254196Y-32432855D01*
X134254196Y-32432855D02*
X134301815Y-32337617D01*
X134301815Y-32337617D02*
X134301815Y-32051903D01*
X134301815Y-32051903D02*
X134254196Y-31956665D01*
X134254196Y-31956665D02*
X134206576Y-31909046D01*
X72358441Y-43524091D02*
X72691774Y-43047900D01*
X72929869Y-43524091D02*
X72929869Y-42524091D01*
X72929869Y-42524091D02*
X72548917Y-42524091D01*
X72548917Y-42524091D02*
X72453679Y-42571710D01*
X72453679Y-42571710D02*
X72406060Y-42619329D01*
X72406060Y-42619329D02*
X72358441Y-42714567D01*
X72358441Y-42714567D02*
X72358441Y-42857424D01*
X72358441Y-42857424D02*
X72406060Y-42952662D01*
X72406060Y-42952662D02*
X72453679Y-43000281D01*
X72453679Y-43000281D02*
X72548917Y-43047900D01*
X72548917Y-43047900D02*
X72929869Y-43047900D01*
X71453679Y-42524091D02*
X71929869Y-42524091D01*
X71929869Y-42524091D02*
X71977488Y-43000281D01*
X71977488Y-43000281D02*
X71929869Y-42952662D01*
X71929869Y-42952662D02*
X71834631Y-42905043D01*
X71834631Y-42905043D02*
X71596536Y-42905043D01*
X71596536Y-42905043D02*
X71501298Y-42952662D01*
X71501298Y-42952662D02*
X71453679Y-43000281D01*
X71453679Y-43000281D02*
X71406060Y-43095519D01*
X71406060Y-43095519D02*
X71406060Y-43333614D01*
X71406060Y-43333614D02*
X71453679Y-43428852D01*
X71453679Y-43428852D02*
X71501298Y-43476472D01*
X71501298Y-43476472D02*
X71596536Y-43524091D01*
X71596536Y-43524091D02*
X71834631Y-43524091D01*
X71834631Y-43524091D02*
X71929869Y-43476472D01*
X71929869Y-43476472D02*
X71977488Y-43428852D01*
X48311665Y-81395330D02*
X48359284Y-81442950D01*
X48359284Y-81442950D02*
X48502141Y-81490569D01*
X48502141Y-81490569D02*
X48597379Y-81490569D01*
X48597379Y-81490569D02*
X48740236Y-81442950D01*
X48740236Y-81442950D02*
X48835474Y-81347711D01*
X48835474Y-81347711D02*
X48883093Y-81252473D01*
X48883093Y-81252473D02*
X48930712Y-81061997D01*
X48930712Y-81061997D02*
X48930712Y-80919140D01*
X48930712Y-80919140D02*
X48883093Y-80728664D01*
X48883093Y-80728664D02*
X48835474Y-80633426D01*
X48835474Y-80633426D02*
X48740236Y-80538188D01*
X48740236Y-80538188D02*
X48597379Y-80490569D01*
X48597379Y-80490569D02*
X48502141Y-80490569D01*
X48502141Y-80490569D02*
X48359284Y-80538188D01*
X48359284Y-80538188D02*
X48311665Y-80585807D01*
X47835474Y-81490569D02*
X47644998Y-81490569D01*
X47644998Y-81490569D02*
X47549760Y-81442950D01*
X47549760Y-81442950D02*
X47502141Y-81395330D01*
X47502141Y-81395330D02*
X47406903Y-81252473D01*
X47406903Y-81252473D02*
X47359284Y-81061997D01*
X47359284Y-81061997D02*
X47359284Y-80681045D01*
X47359284Y-80681045D02*
X47406903Y-80585807D01*
X47406903Y-80585807D02*
X47454522Y-80538188D01*
X47454522Y-80538188D02*
X47549760Y-80490569D01*
X47549760Y-80490569D02*
X47740236Y-80490569D01*
X47740236Y-80490569D02*
X47835474Y-80538188D01*
X47835474Y-80538188D02*
X47883093Y-80585807D01*
X47883093Y-80585807D02*
X47930712Y-80681045D01*
X47930712Y-80681045D02*
X47930712Y-80919140D01*
X47930712Y-80919140D02*
X47883093Y-81014378D01*
X47883093Y-81014378D02*
X47835474Y-81061997D01*
X47835474Y-81061997D02*
X47740236Y-81109616D01*
X47740236Y-81109616D02*
X47549760Y-81109616D01*
X47549760Y-81109616D02*
X47454522Y-81061997D01*
X47454522Y-81061997D02*
X47406903Y-81014378D01*
X47406903Y-81014378D02*
X47359284Y-80919140D01*
X119546030Y-63301325D02*
X118974602Y-63301325D01*
X119260316Y-64301325D02*
X119260316Y-63301325D01*
X118641268Y-64301325D02*
X118641268Y-63301325D01*
X118641268Y-63301325D02*
X118260316Y-63301325D01*
X118260316Y-63301325D02*
X118165078Y-63348944D01*
X118165078Y-63348944D02*
X118117459Y-63396563D01*
X118117459Y-63396563D02*
X118069840Y-63491801D01*
X118069840Y-63491801D02*
X118069840Y-63634658D01*
X118069840Y-63634658D02*
X118117459Y-63729896D01*
X118117459Y-63729896D02*
X118165078Y-63777515D01*
X118165078Y-63777515D02*
X118260316Y-63825134D01*
X118260316Y-63825134D02*
X118641268Y-63825134D01*
X117593649Y-64301325D02*
X117403173Y-64301325D01*
X117403173Y-64301325D02*
X117307935Y-64253706D01*
X117307935Y-64253706D02*
X117260316Y-64206086D01*
X117260316Y-64206086D02*
X117165078Y-64063229D01*
X117165078Y-64063229D02*
X117117459Y-63872753D01*
X117117459Y-63872753D02*
X117117459Y-63491801D01*
X117117459Y-63491801D02*
X117165078Y-63396563D01*
X117165078Y-63396563D02*
X117212697Y-63348944D01*
X117212697Y-63348944D02*
X117307935Y-63301325D01*
X117307935Y-63301325D02*
X117498411Y-63301325D01*
X117498411Y-63301325D02*
X117593649Y-63348944D01*
X117593649Y-63348944D02*
X117641268Y-63396563D01*
X117641268Y-63396563D02*
X117688887Y-63491801D01*
X117688887Y-63491801D02*
X117688887Y-63729896D01*
X117688887Y-63729896D02*
X117641268Y-63825134D01*
X117641268Y-63825134D02*
X117593649Y-63872753D01*
X117593649Y-63872753D02*
X117498411Y-63920372D01*
X117498411Y-63920372D02*
X117307935Y-63920372D01*
X117307935Y-63920372D02*
X117212697Y-63872753D01*
X117212697Y-63872753D02*
X117165078Y-63825134D01*
X117165078Y-63825134D02*
X117117459Y-63729896D01*
X121328237Y-66384837D02*
X121375856Y-66432457D01*
X121375856Y-66432457D02*
X121518713Y-66480076D01*
X121518713Y-66480076D02*
X121613951Y-66480076D01*
X121613951Y-66480076D02*
X121756808Y-66432457D01*
X121756808Y-66432457D02*
X121852046Y-66337218D01*
X121852046Y-66337218D02*
X121899665Y-66241980D01*
X121899665Y-66241980D02*
X121947284Y-66051504D01*
X121947284Y-66051504D02*
X121947284Y-65908647D01*
X121947284Y-65908647D02*
X121899665Y-65718171D01*
X121899665Y-65718171D02*
X121852046Y-65622933D01*
X121852046Y-65622933D02*
X121756808Y-65527695D01*
X121756808Y-65527695D02*
X121613951Y-65480076D01*
X121613951Y-65480076D02*
X121518713Y-65480076D01*
X121518713Y-65480076D02*
X121375856Y-65527695D01*
X121375856Y-65527695D02*
X121328237Y-65575314D01*
X120947284Y-65575314D02*
X120899665Y-65527695D01*
X120899665Y-65527695D02*
X120804427Y-65480076D01*
X120804427Y-65480076D02*
X120566332Y-65480076D01*
X120566332Y-65480076D02*
X120471094Y-65527695D01*
X120471094Y-65527695D02*
X120423475Y-65575314D01*
X120423475Y-65575314D02*
X120375856Y-65670552D01*
X120375856Y-65670552D02*
X120375856Y-65765790D01*
X120375856Y-65765790D02*
X120423475Y-65908647D01*
X120423475Y-65908647D02*
X120994903Y-66480076D01*
X120994903Y-66480076D02*
X120375856Y-66480076D01*
X119423475Y-66480076D02*
X119994903Y-66480076D01*
X119709189Y-66480076D02*
X119709189Y-65480076D01*
X119709189Y-65480076D02*
X119804427Y-65622933D01*
X119804427Y-65622933D02*
X119899665Y-65718171D01*
X119899665Y-65718171D02*
X119994903Y-65765790D01*
X129446382Y-42923110D02*
X129779715Y-42446919D01*
X130017810Y-42923110D02*
X130017810Y-41923110D01*
X130017810Y-41923110D02*
X129636858Y-41923110D01*
X129636858Y-41923110D02*
X129541620Y-41970729D01*
X129541620Y-41970729D02*
X129494001Y-42018348D01*
X129494001Y-42018348D02*
X129446382Y-42113586D01*
X129446382Y-42113586D02*
X129446382Y-42256443D01*
X129446382Y-42256443D02*
X129494001Y-42351681D01*
X129494001Y-42351681D02*
X129541620Y-42399300D01*
X129541620Y-42399300D02*
X129636858Y-42446919D01*
X129636858Y-42446919D02*
X130017810Y-42446919D01*
X129065429Y-42018348D02*
X129017810Y-41970729D01*
X129017810Y-41970729D02*
X128922572Y-41923110D01*
X128922572Y-41923110D02*
X128684477Y-41923110D01*
X128684477Y-41923110D02*
X128589239Y-41970729D01*
X128589239Y-41970729D02*
X128541620Y-42018348D01*
X128541620Y-42018348D02*
X128494001Y-42113586D01*
X128494001Y-42113586D02*
X128494001Y-42208824D01*
X128494001Y-42208824D02*
X128541620Y-42351681D01*
X128541620Y-42351681D02*
X129113048Y-42923110D01*
X129113048Y-42923110D02*
X128494001Y-42923110D01*
X111611407Y-37276375D02*
X111659026Y-37323995D01*
X111659026Y-37323995D02*
X111801883Y-37371614D01*
X111801883Y-37371614D02*
X111897121Y-37371614D01*
X111897121Y-37371614D02*
X112039978Y-37323995D01*
X112039978Y-37323995D02*
X112135216Y-37228756D01*
X112135216Y-37228756D02*
X112182835Y-37133518D01*
X112182835Y-37133518D02*
X112230454Y-36943042D01*
X112230454Y-36943042D02*
X112230454Y-36800185D01*
X112230454Y-36800185D02*
X112182835Y-36609709D01*
X112182835Y-36609709D02*
X112135216Y-36514471D01*
X112135216Y-36514471D02*
X112039978Y-36419233D01*
X112039978Y-36419233D02*
X111897121Y-36371614D01*
X111897121Y-36371614D02*
X111801883Y-36371614D01*
X111801883Y-36371614D02*
X111659026Y-36419233D01*
X111659026Y-36419233D02*
X111611407Y-36466852D01*
X110659026Y-37371614D02*
X111230454Y-37371614D01*
X110944740Y-37371614D02*
X110944740Y-36371614D01*
X110944740Y-36371614D02*
X111039978Y-36514471D01*
X111039978Y-36514471D02*
X111135216Y-36609709D01*
X111135216Y-36609709D02*
X111230454Y-36657328D01*
X110325692Y-36371614D02*
X109659026Y-36371614D01*
X109659026Y-36371614D02*
X110087597Y-37371614D01*
X248412856Y-58039569D02*
X248746189Y-57563378D01*
X248984284Y-58039569D02*
X248984284Y-57039569D01*
X248984284Y-57039569D02*
X248603332Y-57039569D01*
X248603332Y-57039569D02*
X248508094Y-57087188D01*
X248508094Y-57087188D02*
X248460475Y-57134807D01*
X248460475Y-57134807D02*
X248412856Y-57230045D01*
X248412856Y-57230045D02*
X248412856Y-57372902D01*
X248412856Y-57372902D02*
X248460475Y-57468140D01*
X248460475Y-57468140D02*
X248508094Y-57515759D01*
X248508094Y-57515759D02*
X248603332Y-57563378D01*
X248603332Y-57563378D02*
X248984284Y-57563378D01*
X248079522Y-57039569D02*
X247460475Y-57039569D01*
X247460475Y-57039569D02*
X247793808Y-57420521D01*
X247793808Y-57420521D02*
X247650951Y-57420521D01*
X247650951Y-57420521D02*
X247555713Y-57468140D01*
X247555713Y-57468140D02*
X247508094Y-57515759D01*
X247508094Y-57515759D02*
X247460475Y-57610997D01*
X247460475Y-57610997D02*
X247460475Y-57849092D01*
X247460475Y-57849092D02*
X247508094Y-57944330D01*
X247508094Y-57944330D02*
X247555713Y-57991950D01*
X247555713Y-57991950D02*
X247650951Y-58039569D01*
X247650951Y-58039569D02*
X247936665Y-58039569D01*
X247936665Y-58039569D02*
X248031903Y-57991950D01*
X248031903Y-57991950D02*
X248079522Y-57944330D01*
X246508094Y-58039569D02*
X247079522Y-58039569D01*
X246793808Y-58039569D02*
X246793808Y-57039569D01*
X246793808Y-57039569D02*
X246889046Y-57182426D01*
X246889046Y-57182426D02*
X246984284Y-57277664D01*
X246984284Y-57277664D02*
X247079522Y-57325283D01*
X86047618Y-60789817D02*
X86047618Y-61599340D01*
X86047618Y-61599340D02*
X85999999Y-61694578D01*
X85999999Y-61694578D02*
X85952380Y-61742198D01*
X85952380Y-61742198D02*
X85857142Y-61789817D01*
X85857142Y-61789817D02*
X85666666Y-61789817D01*
X85666666Y-61789817D02*
X85571428Y-61742198D01*
X85571428Y-61742198D02*
X85523809Y-61694578D01*
X85523809Y-61694578D02*
X85476190Y-61599340D01*
X85476190Y-61599340D02*
X85476190Y-60789817D01*
X85238095Y-61885055D02*
X84476190Y-61885055D01*
X84238094Y-61789817D02*
X84238094Y-60789817D01*
X83761904Y-61789817D02*
X83761904Y-60789817D01*
X83761904Y-60789817D02*
X83190476Y-61789817D01*
X83190476Y-61789817D02*
X83190476Y-60789817D01*
X82190476Y-61789817D02*
X82761904Y-61789817D01*
X82476190Y-61789817D02*
X82476190Y-60789817D01*
X82476190Y-60789817D02*
X82571428Y-60932674D01*
X82571428Y-60932674D02*
X82666666Y-61027912D01*
X82666666Y-61027912D02*
X82761904Y-61075531D01*
X178139045Y-49454818D02*
X177567617Y-49454818D01*
X177853331Y-50454818D02*
X177853331Y-49454818D01*
X177234283Y-50454818D02*
X177234283Y-49454818D01*
X177234283Y-49454818D02*
X176853331Y-49454818D01*
X176853331Y-49454818D02*
X176758093Y-49502437D01*
X176758093Y-49502437D02*
X176710474Y-49550056D01*
X176710474Y-49550056D02*
X176662855Y-49645294D01*
X176662855Y-49645294D02*
X176662855Y-49788151D01*
X176662855Y-49788151D02*
X176710474Y-49883389D01*
X176710474Y-49883389D02*
X176758093Y-49931008D01*
X176758093Y-49931008D02*
X176853331Y-49978627D01*
X176853331Y-49978627D02*
X177234283Y-49978627D01*
X176329521Y-49454818D02*
X175662855Y-49454818D01*
X175662855Y-49454818D02*
X176091426Y-50454818D01*
X241911665Y-40017319D02*
X241911665Y-40826842D01*
X241911665Y-40826842D02*
X241864046Y-40922080D01*
X241864046Y-40922080D02*
X241816427Y-40969700D01*
X241816427Y-40969700D02*
X241721189Y-41017319D01*
X241721189Y-41017319D02*
X241530713Y-41017319D01*
X241530713Y-41017319D02*
X241435475Y-40969700D01*
X241435475Y-40969700D02*
X241387856Y-40922080D01*
X241387856Y-40922080D02*
X241340237Y-40826842D01*
X241340237Y-40826842D02*
X241340237Y-40017319D01*
X241102142Y-41112557D02*
X240340237Y-41112557D01*
X240102141Y-41017319D02*
X240102141Y-40017319D01*
X240102141Y-40017319D02*
X239768808Y-40731604D01*
X239768808Y-40731604D02*
X239435475Y-40017319D01*
X239435475Y-40017319D02*
X239435475Y-41017319D01*
X238959284Y-40017319D02*
X238959284Y-40826842D01*
X238959284Y-40826842D02*
X238911665Y-40922080D01*
X238911665Y-40922080D02*
X238864046Y-40969700D01*
X238864046Y-40969700D02*
X238768808Y-41017319D01*
X238768808Y-41017319D02*
X238578332Y-41017319D01*
X238578332Y-41017319D02*
X238483094Y-40969700D01*
X238483094Y-40969700D02*
X238435475Y-40922080D01*
X238435475Y-40922080D02*
X238387856Y-40826842D01*
X238387856Y-40826842D02*
X238387856Y-40017319D01*
X238006903Y-40017319D02*
X237340237Y-41017319D01*
X237340237Y-40017319D02*
X238006903Y-41017319D01*
X236530713Y-40350652D02*
X236530713Y-41017319D01*
X236768808Y-39969700D02*
X237006903Y-40683985D01*
X237006903Y-40683985D02*
X236387856Y-40683985D01*
X120917634Y-50956825D02*
X120346206Y-50956825D01*
X120631920Y-51956825D02*
X120631920Y-50956825D01*
X120012872Y-51956825D02*
X120012872Y-50956825D01*
X120012872Y-50956825D02*
X119631920Y-50956825D01*
X119631920Y-50956825D02*
X119536682Y-51004444D01*
X119536682Y-51004444D02*
X119489063Y-51052063D01*
X119489063Y-51052063D02*
X119441444Y-51147301D01*
X119441444Y-51147301D02*
X119441444Y-51290158D01*
X119441444Y-51290158D02*
X119489063Y-51385396D01*
X119489063Y-51385396D02*
X119536682Y-51433015D01*
X119536682Y-51433015D02*
X119631920Y-51480634D01*
X119631920Y-51480634D02*
X120012872Y-51480634D01*
X118489063Y-51956825D02*
X119060491Y-51956825D01*
X118774777Y-51956825D02*
X118774777Y-50956825D01*
X118774777Y-50956825D02*
X118870015Y-51099682D01*
X118870015Y-51099682D02*
X118965253Y-51194920D01*
X118965253Y-51194920D02*
X119060491Y-51242539D01*
X117631920Y-51290158D02*
X117631920Y-51956825D01*
X117870015Y-50909206D02*
X118108110Y-51623491D01*
X118108110Y-51623491D02*
X117489063Y-51623491D01*
X36918569Y-91434817D02*
X36918569Y-90434817D01*
X36918569Y-90434817D02*
X36680474Y-90434817D01*
X36680474Y-90434817D02*
X36537617Y-90482436D01*
X36537617Y-90482436D02*
X36442379Y-90577674D01*
X36442379Y-90577674D02*
X36394760Y-90672912D01*
X36394760Y-90672912D02*
X36347141Y-90863388D01*
X36347141Y-90863388D02*
X36347141Y-91006245D01*
X36347141Y-91006245D02*
X36394760Y-91196721D01*
X36394760Y-91196721D02*
X36442379Y-91291959D01*
X36442379Y-91291959D02*
X36537617Y-91387198D01*
X36537617Y-91387198D02*
X36680474Y-91434817D01*
X36680474Y-91434817D02*
X36918569Y-91434817D01*
X36156665Y-91530055D02*
X35394760Y-91530055D01*
X35156664Y-91434817D02*
X35156664Y-90434817D01*
X35156664Y-90434817D02*
X34775712Y-90434817D01*
X34775712Y-90434817D02*
X34680474Y-90482436D01*
X34680474Y-90482436D02*
X34632855Y-90530055D01*
X34632855Y-90530055D02*
X34585236Y-90625293D01*
X34585236Y-90625293D02*
X34585236Y-90768150D01*
X34585236Y-90768150D02*
X34632855Y-90863388D01*
X34632855Y-90863388D02*
X34680474Y-90911007D01*
X34680474Y-90911007D02*
X34775712Y-90958626D01*
X34775712Y-90958626D02*
X35156664Y-90958626D01*
X33632855Y-91434817D02*
X34204283Y-91434817D01*
X33918569Y-91434817D02*
X33918569Y-90434817D01*
X33918569Y-90434817D02*
X34013807Y-90577674D01*
X34013807Y-90577674D02*
X34109045Y-90672912D01*
X34109045Y-90672912D02*
X34204283Y-90720531D01*
X33251902Y-90530055D02*
X33204283Y-90482436D01*
X33204283Y-90482436D02*
X33109045Y-90434817D01*
X33109045Y-90434817D02*
X32870950Y-90434817D01*
X32870950Y-90434817D02*
X32775712Y-90482436D01*
X32775712Y-90482436D02*
X32728093Y-90530055D01*
X32728093Y-90530055D02*
X32680474Y-90625293D01*
X32680474Y-90625293D02*
X32680474Y-90720531D01*
X32680474Y-90720531D02*
X32728093Y-90863388D01*
X32728093Y-90863388D02*
X33299521Y-91434817D01*
X33299521Y-91434817D02*
X32680474Y-91434817D01*
X29832855Y-110839578D02*
X29880474Y-110887198D01*
X29880474Y-110887198D02*
X30023331Y-110934817D01*
X30023331Y-110934817D02*
X30118569Y-110934817D01*
X30118569Y-110934817D02*
X30261426Y-110887198D01*
X30261426Y-110887198D02*
X30356664Y-110791959D01*
X30356664Y-110791959D02*
X30404283Y-110696721D01*
X30404283Y-110696721D02*
X30451902Y-110506245D01*
X30451902Y-110506245D02*
X30451902Y-110363388D01*
X30451902Y-110363388D02*
X30404283Y-110172912D01*
X30404283Y-110172912D02*
X30356664Y-110077674D01*
X30356664Y-110077674D02*
X30261426Y-109982436D01*
X30261426Y-109982436D02*
X30118569Y-109934817D01*
X30118569Y-109934817D02*
X30023331Y-109934817D01*
X30023331Y-109934817D02*
X29880474Y-109982436D01*
X29880474Y-109982436D02*
X29832855Y-110030055D01*
X28928093Y-109934817D02*
X29404283Y-109934817D01*
X29404283Y-109934817D02*
X29451902Y-110411007D01*
X29451902Y-110411007D02*
X29404283Y-110363388D01*
X29404283Y-110363388D02*
X29309045Y-110315769D01*
X29309045Y-110315769D02*
X29070950Y-110315769D01*
X29070950Y-110315769D02*
X28975712Y-110363388D01*
X28975712Y-110363388D02*
X28928093Y-110411007D01*
X28928093Y-110411007D02*
X28880474Y-110506245D01*
X28880474Y-110506245D02*
X28880474Y-110744340D01*
X28880474Y-110744340D02*
X28928093Y-110839578D01*
X28928093Y-110839578D02*
X28975712Y-110887198D01*
X28975712Y-110887198D02*
X29070950Y-110934817D01*
X29070950Y-110934817D02*
X29309045Y-110934817D01*
X29309045Y-110934817D02*
X29404283Y-110887198D01*
X29404283Y-110887198D02*
X29451902Y-110839578D01*
X129137976Y-35784818D02*
X129471309Y-35308627D01*
X129709404Y-35784818D02*
X129709404Y-34784818D01*
X129709404Y-34784818D02*
X129328452Y-34784818D01*
X129328452Y-34784818D02*
X129233214Y-34832437D01*
X129233214Y-34832437D02*
X129185595Y-34880056D01*
X129185595Y-34880056D02*
X129137976Y-34975294D01*
X129137976Y-34975294D02*
X129137976Y-35118151D01*
X129137976Y-35118151D02*
X129185595Y-35213389D01*
X129185595Y-35213389D02*
X129233214Y-35261008D01*
X129233214Y-35261008D02*
X129328452Y-35308627D01*
X129328452Y-35308627D02*
X129709404Y-35308627D01*
X128185595Y-35784818D02*
X128757023Y-35784818D01*
X128471309Y-35784818D02*
X128471309Y-34784818D01*
X128471309Y-34784818D02*
X128566547Y-34927675D01*
X128566547Y-34927675D02*
X128661785Y-35022913D01*
X128661785Y-35022913D02*
X128757023Y-35070532D01*
X127280833Y-34784818D02*
X127757023Y-34784818D01*
X127757023Y-34784818D02*
X127804642Y-35261008D01*
X127804642Y-35261008D02*
X127757023Y-35213389D01*
X127757023Y-35213389D02*
X127661785Y-35165770D01*
X127661785Y-35165770D02*
X127423690Y-35165770D01*
X127423690Y-35165770D02*
X127328452Y-35213389D01*
X127328452Y-35213389D02*
X127280833Y-35261008D01*
X127280833Y-35261008D02*
X127233214Y-35356246D01*
X127233214Y-35356246D02*
X127233214Y-35594341D01*
X127233214Y-35594341D02*
X127280833Y-35689579D01*
X127280833Y-35689579D02*
X127328452Y-35737199D01*
X127328452Y-35737199D02*
X127423690Y-35784818D01*
X127423690Y-35784818D02*
X127661785Y-35784818D01*
X127661785Y-35784818D02*
X127757023Y-35737199D01*
X127757023Y-35737199D02*
X127804642Y-35689579D01*
X153377808Y-107511330D02*
X153425427Y-107558950D01*
X153425427Y-107558950D02*
X153568284Y-107606569D01*
X153568284Y-107606569D02*
X153663522Y-107606569D01*
X153663522Y-107606569D02*
X153806379Y-107558950D01*
X153806379Y-107558950D02*
X153901617Y-107463711D01*
X153901617Y-107463711D02*
X153949236Y-107368473D01*
X153949236Y-107368473D02*
X153996855Y-107177997D01*
X153996855Y-107177997D02*
X153996855Y-107035140D01*
X153996855Y-107035140D02*
X153949236Y-106844664D01*
X153949236Y-106844664D02*
X153901617Y-106749426D01*
X153901617Y-106749426D02*
X153806379Y-106654188D01*
X153806379Y-106654188D02*
X153663522Y-106606569D01*
X153663522Y-106606569D02*
X153568284Y-106606569D01*
X153568284Y-106606569D02*
X153425427Y-106654188D01*
X153425427Y-106654188D02*
X153377808Y-106701807D01*
X153187332Y-107701807D02*
X152425427Y-107701807D01*
X152234950Y-107558950D02*
X152092093Y-107606569D01*
X152092093Y-107606569D02*
X151853998Y-107606569D01*
X151853998Y-107606569D02*
X151758760Y-107558950D01*
X151758760Y-107558950D02*
X151711141Y-107511330D01*
X151711141Y-107511330D02*
X151663522Y-107416092D01*
X151663522Y-107416092D02*
X151663522Y-107320854D01*
X151663522Y-107320854D02*
X151711141Y-107225616D01*
X151711141Y-107225616D02*
X151758760Y-107177997D01*
X151758760Y-107177997D02*
X151853998Y-107130378D01*
X151853998Y-107130378D02*
X152044474Y-107082759D01*
X152044474Y-107082759D02*
X152139712Y-107035140D01*
X152139712Y-107035140D02*
X152187331Y-106987521D01*
X152187331Y-106987521D02*
X152234950Y-106892283D01*
X152234950Y-106892283D02*
X152234950Y-106797045D01*
X152234950Y-106797045D02*
X152187331Y-106701807D01*
X152187331Y-106701807D02*
X152139712Y-106654188D01*
X152139712Y-106654188D02*
X152044474Y-106606569D01*
X152044474Y-106606569D02*
X151806379Y-106606569D01*
X151806379Y-106606569D02*
X151663522Y-106654188D01*
X151234950Y-107606569D02*
X151234950Y-106606569D01*
X151234950Y-106606569D02*
X150996855Y-106606569D01*
X150996855Y-106606569D02*
X150853998Y-106654188D01*
X150853998Y-106654188D02*
X150758760Y-106749426D01*
X150758760Y-106749426D02*
X150711141Y-106844664D01*
X150711141Y-106844664D02*
X150663522Y-107035140D01*
X150663522Y-107035140D02*
X150663522Y-107177997D01*
X150663522Y-107177997D02*
X150711141Y-107368473D01*
X150711141Y-107368473D02*
X150758760Y-107463711D01*
X150758760Y-107463711D02*
X150853998Y-107558950D01*
X150853998Y-107558950D02*
X150996855Y-107606569D01*
X150996855Y-107606569D02*
X151234950Y-107606569D01*
X149711141Y-107606569D02*
X150282569Y-107606569D01*
X149996855Y-107606569D02*
X149996855Y-106606569D01*
X149996855Y-106606569D02*
X150092093Y-106749426D01*
X150092093Y-106749426D02*
X150187331Y-106844664D01*
X150187331Y-106844664D02*
X150282569Y-106892283D01*
X83117857Y-56646329D02*
X83165476Y-56693949D01*
X83165476Y-56693949D02*
X83308333Y-56741568D01*
X83308333Y-56741568D02*
X83403571Y-56741568D01*
X83403571Y-56741568D02*
X83546428Y-56693949D01*
X83546428Y-56693949D02*
X83641666Y-56598710D01*
X83641666Y-56598710D02*
X83689285Y-56503472D01*
X83689285Y-56503472D02*
X83736904Y-56312996D01*
X83736904Y-56312996D02*
X83736904Y-56170139D01*
X83736904Y-56170139D02*
X83689285Y-55979663D01*
X83689285Y-55979663D02*
X83641666Y-55884425D01*
X83641666Y-55884425D02*
X83546428Y-55789187D01*
X83546428Y-55789187D02*
X83403571Y-55741568D01*
X83403571Y-55741568D02*
X83308333Y-55741568D01*
X83308333Y-55741568D02*
X83165476Y-55789187D01*
X83165476Y-55789187D02*
X83117857Y-55836806D01*
X82736904Y-55836806D02*
X82689285Y-55789187D01*
X82689285Y-55789187D02*
X82594047Y-55741568D01*
X82594047Y-55741568D02*
X82355952Y-55741568D01*
X82355952Y-55741568D02*
X82260714Y-55789187D01*
X82260714Y-55789187D02*
X82213095Y-55836806D01*
X82213095Y-55836806D02*
X82165476Y-55932044D01*
X82165476Y-55932044D02*
X82165476Y-56027282D01*
X82165476Y-56027282D02*
X82213095Y-56170139D01*
X82213095Y-56170139D02*
X82784523Y-56741568D01*
X82784523Y-56741568D02*
X82165476Y-56741568D01*
X81784523Y-55836806D02*
X81736904Y-55789187D01*
X81736904Y-55789187D02*
X81641666Y-55741568D01*
X81641666Y-55741568D02*
X81403571Y-55741568D01*
X81403571Y-55741568D02*
X81308333Y-55789187D01*
X81308333Y-55789187D02*
X81260714Y-55836806D01*
X81260714Y-55836806D02*
X81213095Y-55932044D01*
X81213095Y-55932044D02*
X81213095Y-56027282D01*
X81213095Y-56027282D02*
X81260714Y-56170139D01*
X81260714Y-56170139D02*
X81832142Y-56741568D01*
X81832142Y-56741568D02*
X81213095Y-56741568D01*
X127852529Y-45531856D02*
X128185862Y-45055665D01*
X128423957Y-45531856D02*
X128423957Y-44531856D01*
X128423957Y-44531856D02*
X128043005Y-44531856D01*
X128043005Y-44531856D02*
X127947767Y-44579475D01*
X127947767Y-44579475D02*
X127900148Y-44627094D01*
X127900148Y-44627094D02*
X127852529Y-44722332D01*
X127852529Y-44722332D02*
X127852529Y-44865189D01*
X127852529Y-44865189D02*
X127900148Y-44960427D01*
X127900148Y-44960427D02*
X127947767Y-45008046D01*
X127947767Y-45008046D02*
X128043005Y-45055665D01*
X128043005Y-45055665D02*
X128423957Y-45055665D01*
X126900148Y-45531856D02*
X127471576Y-45531856D01*
X127185862Y-45531856D02*
X127185862Y-44531856D01*
X127185862Y-44531856D02*
X127281100Y-44674713D01*
X127281100Y-44674713D02*
X127376338Y-44769951D01*
X127376338Y-44769951D02*
X127471576Y-44817570D01*
X126519195Y-44627094D02*
X126471576Y-44579475D01*
X126471576Y-44579475D02*
X126376338Y-44531856D01*
X126376338Y-44531856D02*
X126138243Y-44531856D01*
X126138243Y-44531856D02*
X126043005Y-44579475D01*
X126043005Y-44579475D02*
X125995386Y-44627094D01*
X125995386Y-44627094D02*
X125947767Y-44722332D01*
X125947767Y-44722332D02*
X125947767Y-44817570D01*
X125947767Y-44817570D02*
X125995386Y-44960427D01*
X125995386Y-44960427D02*
X126566814Y-45531856D01*
X126566814Y-45531856D02*
X125947767Y-45531856D01*
X129253654Y-39807655D02*
X129586987Y-39331464D01*
X129825082Y-39807655D02*
X129825082Y-38807655D01*
X129825082Y-38807655D02*
X129444130Y-38807655D01*
X129444130Y-38807655D02*
X129348892Y-38855274D01*
X129348892Y-38855274D02*
X129301273Y-38902893D01*
X129301273Y-38902893D02*
X129253654Y-38998131D01*
X129253654Y-38998131D02*
X129253654Y-39140988D01*
X129253654Y-39140988D02*
X129301273Y-39236226D01*
X129301273Y-39236226D02*
X129348892Y-39283845D01*
X129348892Y-39283845D02*
X129444130Y-39331464D01*
X129444130Y-39331464D02*
X129825082Y-39331464D01*
X128920320Y-38807655D02*
X128301273Y-38807655D01*
X128301273Y-38807655D02*
X128634606Y-39188607D01*
X128634606Y-39188607D02*
X128491749Y-39188607D01*
X128491749Y-39188607D02*
X128396511Y-39236226D01*
X128396511Y-39236226D02*
X128348892Y-39283845D01*
X128348892Y-39283845D02*
X128301273Y-39379083D01*
X128301273Y-39379083D02*
X128301273Y-39617178D01*
X128301273Y-39617178D02*
X128348892Y-39712416D01*
X128348892Y-39712416D02*
X128396511Y-39760036D01*
X128396511Y-39760036D02*
X128491749Y-39807655D01*
X128491749Y-39807655D02*
X128777463Y-39807655D01*
X128777463Y-39807655D02*
X128872701Y-39760036D01*
X128872701Y-39760036D02*
X128920320Y-39712416D01*
X23239046Y-86941568D02*
X23239046Y-87751091D01*
X23239046Y-87751091D02*
X23191427Y-87846329D01*
X23191427Y-87846329D02*
X23143808Y-87893949D01*
X23143808Y-87893949D02*
X23048570Y-87941568D01*
X23048570Y-87941568D02*
X22858094Y-87941568D01*
X22858094Y-87941568D02*
X22762856Y-87893949D01*
X22762856Y-87893949D02*
X22715237Y-87846329D01*
X22715237Y-87846329D02*
X22667618Y-87751091D01*
X22667618Y-87751091D02*
X22667618Y-86941568D01*
X22429523Y-88036806D02*
X21667618Y-88036806D01*
X20858094Y-87941568D02*
X21191427Y-87465377D01*
X21429522Y-87941568D02*
X21429522Y-86941568D01*
X21429522Y-86941568D02*
X21048570Y-86941568D01*
X21048570Y-86941568D02*
X20953332Y-86989187D01*
X20953332Y-86989187D02*
X20905713Y-87036806D01*
X20905713Y-87036806D02*
X20858094Y-87132044D01*
X20858094Y-87132044D02*
X20858094Y-87274901D01*
X20858094Y-87274901D02*
X20905713Y-87370139D01*
X20905713Y-87370139D02*
X20953332Y-87417758D01*
X20953332Y-87417758D02*
X21048570Y-87465377D01*
X21048570Y-87465377D02*
X21429522Y-87465377D01*
X20429522Y-87417758D02*
X20096189Y-87417758D01*
X19953332Y-87941568D02*
X20429522Y-87941568D01*
X20429522Y-87941568D02*
X20429522Y-86941568D01*
X20429522Y-86941568D02*
X19953332Y-86941568D01*
X19000951Y-86989187D02*
X19096189Y-86941568D01*
X19096189Y-86941568D02*
X19239046Y-86941568D01*
X19239046Y-86941568D02*
X19381903Y-86989187D01*
X19381903Y-86989187D02*
X19477141Y-87084425D01*
X19477141Y-87084425D02*
X19524760Y-87179663D01*
X19524760Y-87179663D02*
X19572379Y-87370139D01*
X19572379Y-87370139D02*
X19572379Y-87512996D01*
X19572379Y-87512996D02*
X19524760Y-87703472D01*
X19524760Y-87703472D02*
X19477141Y-87798710D01*
X19477141Y-87798710D02*
X19381903Y-87893949D01*
X19381903Y-87893949D02*
X19239046Y-87941568D01*
X19239046Y-87941568D02*
X19143808Y-87941568D01*
X19143808Y-87941568D02*
X19000951Y-87893949D01*
X19000951Y-87893949D02*
X18953332Y-87846329D01*
X18953332Y-87846329D02*
X18953332Y-87512996D01*
X18953332Y-87512996D02*
X19143808Y-87512996D01*
X242012856Y-78164569D02*
X242346189Y-77688378D01*
X242584284Y-78164569D02*
X242584284Y-77164569D01*
X242584284Y-77164569D02*
X242203332Y-77164569D01*
X242203332Y-77164569D02*
X242108094Y-77212188D01*
X242108094Y-77212188D02*
X242060475Y-77259807D01*
X242060475Y-77259807D02*
X242012856Y-77355045D01*
X242012856Y-77355045D02*
X242012856Y-77497902D01*
X242012856Y-77497902D02*
X242060475Y-77593140D01*
X242060475Y-77593140D02*
X242108094Y-77640759D01*
X242108094Y-77640759D02*
X242203332Y-77688378D01*
X242203332Y-77688378D02*
X242584284Y-77688378D01*
X241631903Y-77259807D02*
X241584284Y-77212188D01*
X241584284Y-77212188D02*
X241489046Y-77164569D01*
X241489046Y-77164569D02*
X241250951Y-77164569D01*
X241250951Y-77164569D02*
X241155713Y-77212188D01*
X241155713Y-77212188D02*
X241108094Y-77259807D01*
X241108094Y-77259807D02*
X241060475Y-77355045D01*
X241060475Y-77355045D02*
X241060475Y-77450283D01*
X241060475Y-77450283D02*
X241108094Y-77593140D01*
X241108094Y-77593140D02*
X241679522Y-78164569D01*
X241679522Y-78164569D02*
X241060475Y-78164569D01*
X240584284Y-78164569D02*
X240393808Y-78164569D01*
X240393808Y-78164569D02*
X240298570Y-78116950D01*
X240298570Y-78116950D02*
X240250951Y-78069330D01*
X240250951Y-78069330D02*
X240155713Y-77926473D01*
X240155713Y-77926473D02*
X240108094Y-77735997D01*
X240108094Y-77735997D02*
X240108094Y-77355045D01*
X240108094Y-77355045D02*
X240155713Y-77259807D01*
X240155713Y-77259807D02*
X240203332Y-77212188D01*
X240203332Y-77212188D02*
X240298570Y-77164569D01*
X240298570Y-77164569D02*
X240489046Y-77164569D01*
X240489046Y-77164569D02*
X240584284Y-77212188D01*
X240584284Y-77212188D02*
X240631903Y-77259807D01*
X240631903Y-77259807D02*
X240679522Y-77355045D01*
X240679522Y-77355045D02*
X240679522Y-77593140D01*
X240679522Y-77593140D02*
X240631903Y-77688378D01*
X240631903Y-77688378D02*
X240584284Y-77735997D01*
X240584284Y-77735997D02*
X240489046Y-77783616D01*
X240489046Y-77783616D02*
X240298570Y-77783616D01*
X240298570Y-77783616D02*
X240203332Y-77735997D01*
X240203332Y-77735997D02*
X240155713Y-77688378D01*
X240155713Y-77688378D02*
X240108094Y-77593140D01*
X14086665Y-92566329D02*
X14134284Y-92613949D01*
X14134284Y-92613949D02*
X14277141Y-92661568D01*
X14277141Y-92661568D02*
X14372379Y-92661568D01*
X14372379Y-92661568D02*
X14515236Y-92613949D01*
X14515236Y-92613949D02*
X14610474Y-92518710D01*
X14610474Y-92518710D02*
X14658093Y-92423472D01*
X14658093Y-92423472D02*
X14705712Y-92232996D01*
X14705712Y-92232996D02*
X14705712Y-92090139D01*
X14705712Y-92090139D02*
X14658093Y-91899663D01*
X14658093Y-91899663D02*
X14610474Y-91804425D01*
X14610474Y-91804425D02*
X14515236Y-91709187D01*
X14515236Y-91709187D02*
X14372379Y-91661568D01*
X14372379Y-91661568D02*
X14277141Y-91661568D01*
X14277141Y-91661568D02*
X14134284Y-91709187D01*
X14134284Y-91709187D02*
X14086665Y-91756806D01*
X13229522Y-91994901D02*
X13229522Y-92661568D01*
X13467617Y-91613949D02*
X13705712Y-92328234D01*
X13705712Y-92328234D02*
X13086665Y-92328234D01*
X72993441Y-35826841D02*
X73326774Y-35350650D01*
X73564869Y-35826841D02*
X73564869Y-34826841D01*
X73564869Y-34826841D02*
X73183917Y-34826841D01*
X73183917Y-34826841D02*
X73088679Y-34874460D01*
X73088679Y-34874460D02*
X73041060Y-34922079D01*
X73041060Y-34922079D02*
X72993441Y-35017317D01*
X72993441Y-35017317D02*
X72993441Y-35160174D01*
X72993441Y-35160174D02*
X73041060Y-35255412D01*
X73041060Y-35255412D02*
X73088679Y-35303031D01*
X73088679Y-35303031D02*
X73183917Y-35350650D01*
X73183917Y-35350650D02*
X73564869Y-35350650D01*
X72136298Y-35160174D02*
X72136298Y-35826841D01*
X72374393Y-34779222D02*
X72612488Y-35493507D01*
X72612488Y-35493507D02*
X71993441Y-35493507D01*
X174243005Y-80344883D02*
X174576338Y-79868692D01*
X174814433Y-80344883D02*
X174814433Y-79344883D01*
X174814433Y-79344883D02*
X174433481Y-79344883D01*
X174433481Y-79344883D02*
X174338243Y-79392502D01*
X174338243Y-79392502D02*
X174290624Y-79440121D01*
X174290624Y-79440121D02*
X174243005Y-79535359D01*
X174243005Y-79535359D02*
X174243005Y-79678216D01*
X174243005Y-79678216D02*
X174290624Y-79773454D01*
X174290624Y-79773454D02*
X174338243Y-79821073D01*
X174338243Y-79821073D02*
X174433481Y-79868692D01*
X174433481Y-79868692D02*
X174814433Y-79868692D01*
X173766814Y-80344883D02*
X173576338Y-80344883D01*
X173576338Y-80344883D02*
X173481100Y-80297264D01*
X173481100Y-80297264D02*
X173433481Y-80249644D01*
X173433481Y-80249644D02*
X173338243Y-80106787D01*
X173338243Y-80106787D02*
X173290624Y-79916311D01*
X173290624Y-79916311D02*
X173290624Y-79535359D01*
X173290624Y-79535359D02*
X173338243Y-79440121D01*
X173338243Y-79440121D02*
X173385862Y-79392502D01*
X173385862Y-79392502D02*
X173481100Y-79344883D01*
X173481100Y-79344883D02*
X173671576Y-79344883D01*
X173671576Y-79344883D02*
X173766814Y-79392502D01*
X173766814Y-79392502D02*
X173814433Y-79440121D01*
X173814433Y-79440121D02*
X173862052Y-79535359D01*
X173862052Y-79535359D02*
X173862052Y-79773454D01*
X173862052Y-79773454D02*
X173814433Y-79868692D01*
X173814433Y-79868692D02*
X173766814Y-79916311D01*
X173766814Y-79916311D02*
X173671576Y-79963930D01*
X173671576Y-79963930D02*
X173481100Y-79963930D01*
X173481100Y-79963930D02*
X173385862Y-79916311D01*
X173385862Y-79916311D02*
X173338243Y-79868692D01*
X173338243Y-79868692D02*
X173290624Y-79773454D01*
X35812856Y-101934818D02*
X35812856Y-102649103D01*
X35812856Y-102649103D02*
X35860475Y-102791960D01*
X35860475Y-102791960D02*
X35955713Y-102887199D01*
X35955713Y-102887199D02*
X36098570Y-102934818D01*
X36098570Y-102934818D02*
X36193808Y-102934818D01*
X35574761Y-103030056D02*
X34812856Y-103030056D01*
X34574760Y-102934818D02*
X34574760Y-101934818D01*
X34574760Y-101934818D02*
X34193808Y-101934818D01*
X34193808Y-101934818D02*
X34098570Y-101982437D01*
X34098570Y-101982437D02*
X34050951Y-102030056D01*
X34050951Y-102030056D02*
X34003332Y-102125294D01*
X34003332Y-102125294D02*
X34003332Y-102268151D01*
X34003332Y-102268151D02*
X34050951Y-102363389D01*
X34050951Y-102363389D02*
X34098570Y-102411008D01*
X34098570Y-102411008D02*
X34193808Y-102458627D01*
X34193808Y-102458627D02*
X34574760Y-102458627D01*
X33669998Y-101934818D02*
X33431903Y-102934818D01*
X33431903Y-102934818D02*
X33241427Y-102220532D01*
X33241427Y-102220532D02*
X33050951Y-102934818D01*
X33050951Y-102934818D02*
X32812856Y-101934818D01*
X31860475Y-102934818D02*
X32193808Y-102458627D01*
X32431903Y-102934818D02*
X32431903Y-101934818D01*
X32431903Y-101934818D02*
X32050951Y-101934818D01*
X32050951Y-101934818D02*
X31955713Y-101982437D01*
X31955713Y-101982437D02*
X31908094Y-102030056D01*
X31908094Y-102030056D02*
X31860475Y-102125294D01*
X31860475Y-102125294D02*
X31860475Y-102268151D01*
X31860475Y-102268151D02*
X31908094Y-102363389D01*
X31908094Y-102363389D02*
X31955713Y-102411008D01*
X31955713Y-102411008D02*
X32050951Y-102458627D01*
X32050951Y-102458627D02*
X32431903Y-102458627D01*
X56942857Y-17769569D02*
X57276190Y-17293378D01*
X57514285Y-17769569D02*
X57514285Y-16769569D01*
X57514285Y-16769569D02*
X57133333Y-16769569D01*
X57133333Y-16769569D02*
X57038095Y-16817188D01*
X57038095Y-16817188D02*
X56990476Y-16864807D01*
X56990476Y-16864807D02*
X56942857Y-16960045D01*
X56942857Y-16960045D02*
X56942857Y-17102902D01*
X56942857Y-17102902D02*
X56990476Y-17198140D01*
X56990476Y-17198140D02*
X57038095Y-17245759D01*
X57038095Y-17245759D02*
X57133333Y-17293378D01*
X57133333Y-17293378D02*
X57514285Y-17293378D01*
X55990476Y-17769569D02*
X56561904Y-17769569D01*
X56276190Y-17769569D02*
X56276190Y-16769569D01*
X56276190Y-16769569D02*
X56371428Y-16912426D01*
X56371428Y-16912426D02*
X56466666Y-17007664D01*
X56466666Y-17007664D02*
X56561904Y-17055283D01*
X55514285Y-17769569D02*
X55323809Y-17769569D01*
X55323809Y-17769569D02*
X55228571Y-17721950D01*
X55228571Y-17721950D02*
X55180952Y-17674330D01*
X55180952Y-17674330D02*
X55085714Y-17531473D01*
X55085714Y-17531473D02*
X55038095Y-17340997D01*
X55038095Y-17340997D02*
X55038095Y-16960045D01*
X55038095Y-16960045D02*
X55085714Y-16864807D01*
X55085714Y-16864807D02*
X55133333Y-16817188D01*
X55133333Y-16817188D02*
X55228571Y-16769569D01*
X55228571Y-16769569D02*
X55419047Y-16769569D01*
X55419047Y-16769569D02*
X55514285Y-16817188D01*
X55514285Y-16817188D02*
X55561904Y-16864807D01*
X55561904Y-16864807D02*
X55609523Y-16960045D01*
X55609523Y-16960045D02*
X55609523Y-17198140D01*
X55609523Y-17198140D02*
X55561904Y-17293378D01*
X55561904Y-17293378D02*
X55514285Y-17340997D01*
X55514285Y-17340997D02*
X55419047Y-17388616D01*
X55419047Y-17388616D02*
X55228571Y-17388616D01*
X55228571Y-17388616D02*
X55133333Y-17340997D01*
X55133333Y-17340997D02*
X55085714Y-17293378D01*
X55085714Y-17293378D02*
X55038095Y-17198140D01*
%TO.C,C16*%
D11*
X258935000Y-78418705D02*
X258935000Y-78137545D01*
X259955000Y-78418705D02*
X259955000Y-78137545D01*
%TO.C,C18*%
X75677678Y-71646084D02*
X75677678Y-71364924D01*
X76697678Y-71646084D02*
X76697678Y-71364924D01*
%TO.C,U_MUX0*%
X39240000Y-19502500D02*
X39240000Y-19557500D01*
X39240000Y-29567500D02*
X39240000Y-29622500D01*
X39240000Y-29622500D02*
X43360000Y-29622500D01*
X43360000Y-19502500D02*
X39240000Y-19502500D01*
X43360000Y-19557500D02*
X43360000Y-19502500D01*
X43360000Y-29622500D02*
X43360000Y-29567500D01*
X38700000Y-29572500D02*
X38460000Y-29902500D01*
X38940000Y-29902500D01*
X38700000Y-29572500D01*
G36*
X38940000Y-29902500D02*
G01*
X38460000Y-29902500D01*
X38700000Y-29572500D01*
X38940000Y-29902500D01*
G37*
%TO.C,C8*%
X43334420Y-52785000D02*
X43615580Y-52785000D01*
X43334420Y-53805000D02*
X43615580Y-53805000D01*
%TO.C,C_SENSE3*%
X173160000Y-30140580D02*
X173160000Y-29859420D01*
X174180000Y-30140580D02*
X174180000Y-29859420D01*
%TO.C,R11*%
X92629081Y-69120252D02*
X93103597Y-69120252D01*
X92629081Y-70165252D02*
X93103597Y-70165252D01*
%TO.C,R27*%
X183007500Y-20545258D02*
X183007500Y-20070742D01*
X184052500Y-20545258D02*
X184052500Y-20070742D01*
%TO.C,C19*%
X113804999Y-78280955D02*
X113804999Y-77999795D01*
X114824999Y-78280955D02*
X114824999Y-77999795D01*
%TO.C,C10*%
X101684419Y-20855713D02*
X101965579Y-20855713D01*
X101684419Y-21875713D02*
X101965579Y-21875713D01*
%TO.C,TP5*%
X174850000Y-56000000D02*
G75*
G02*
X172950000Y-56000000I-950000J0D01*
G01*
X172950000Y-56000000D02*
G75*
G02*
X174850000Y-56000000I950000J0D01*
G01*
%TO.C,R20*%
X59332741Y-58885500D02*
X59807257Y-58885500D01*
X59332741Y-59930500D02*
X59807257Y-59930500D01*
%TO.C,U_SR4*%
X249492499Y-60334750D02*
X249492499Y-64454750D01*
X249492499Y-64454750D02*
X249547499Y-64454750D01*
X249547499Y-60334750D02*
X249492499Y-60334750D01*
X259557499Y-64454750D02*
X259612499Y-64454750D01*
X259612499Y-60334750D02*
X259557499Y-60334750D01*
X259612499Y-64454750D02*
X259612499Y-60334750D01*
X259562499Y-64994750D02*
X259892499Y-65234750D01*
X259892499Y-64754750D01*
X259562499Y-64994750D01*
G36*
X259892499Y-65234750D02*
G01*
X259562499Y-64994750D01*
X259892499Y-64754750D01*
X259892499Y-65234750D01*
G37*
%TO.C,R7*%
X190907017Y-43067834D02*
X191381533Y-43067834D01*
X190907017Y-44112834D02*
X191381533Y-44112834D01*
%TO.C,R18*%
X24282742Y-114227500D02*
X24757258Y-114227500D01*
X24282742Y-115272500D02*
X24757258Y-115272500D01*
%TO.C,C_SENSE0*%
X136989420Y-20450000D02*
X137270580Y-20450000D01*
X136989420Y-21470000D02*
X137270580Y-21470000D01*
%TO.C,TP4*%
X176466607Y-38462299D02*
G75*
G02*
X174566607Y-38462299I-950000J0D01*
G01*
X174566607Y-38462299D02*
G75*
G02*
X176466607Y-38462299I950000J0D01*
G01*
%TO.C,U_SM*%
D12*
X132400000Y-22000000D02*
X132400000Y-90000000D01*
D13*
X132415000Y-80825000D02*
X132415000Y-87175000D01*
X132415000Y-87175000D02*
X146385000Y-87175000D01*
X135225000Y-22015000D02*
X135225000Y-35985000D01*
X135225000Y-35985000D02*
X141575000Y-35985000D01*
X141575000Y-22015000D02*
X135225000Y-22015000D01*
X141575000Y-35985000D02*
X141575000Y-22015000D01*
X146385000Y-80825000D02*
X132415000Y-80825000D01*
X146385000Y-87175000D02*
X146385000Y-80825000D01*
X158415000Y-80825000D02*
X158415000Y-87175000D01*
X158415000Y-87175000D02*
X172385000Y-87175000D01*
X163225000Y-22015000D02*
X163225000Y-35985000D01*
X163225000Y-35985000D02*
X169575000Y-35985000D01*
X169575000Y-22015000D02*
X163225000Y-22015000D01*
X169575000Y-35985000D02*
X169575000Y-22015000D01*
X172385000Y-80825000D02*
X158415000Y-80825000D01*
X172385000Y-87175000D02*
X172385000Y-80825000D01*
D12*
X172400000Y-22000000D02*
X132400000Y-22000000D01*
X172400000Y-22000000D02*
X172400000Y-90000000D01*
X172400000Y-90000000D02*
X132400000Y-90000000D01*
%TO.C,C11*%
D11*
X101584420Y-61070000D02*
X101865580Y-61070000D01*
X101584420Y-62090000D02*
X101865580Y-62090000D01*
%TO.C,U_MUX5*%
X248340000Y-78393125D02*
X248340000Y-82513125D01*
X248340000Y-82513125D02*
X248395000Y-82513125D01*
X248395000Y-78393125D02*
X248340000Y-78393125D01*
X258405000Y-82513125D02*
X258460000Y-82513125D01*
X258460000Y-78393125D02*
X258405000Y-78393125D01*
X258460000Y-82513125D02*
X258460000Y-78393125D01*
X258410000Y-83053125D02*
X258740000Y-83293125D01*
X258740000Y-82813125D01*
X258410000Y-83053125D01*
G36*
X258740000Y-83293125D02*
G01*
X258410000Y-83053125D01*
X258740000Y-82813125D01*
X258740000Y-83293125D01*
G37*
%TO.C,R32*%
X282332742Y-110227500D02*
X282807258Y-110227500D01*
X282332742Y-111272500D02*
X282807258Y-111272500D01*
%TO.C,R25*%
X130797500Y-55895258D02*
X130797500Y-55420742D01*
X131842500Y-55895258D02*
X131842500Y-55420742D01*
%TO.C,R10*%
X92044080Y-49013109D02*
X92518596Y-49013109D01*
X92044080Y-50058109D02*
X92518596Y-50058109D01*
%TO.C,R24*%
X126777500Y-111717258D02*
X126777500Y-111242742D01*
X127822500Y-111717258D02*
X127822500Y-111242742D01*
%TO.C,TP11*%
X128775380Y-55502007D02*
G75*
G02*
X126875380Y-55502007I-950000J0D01*
G01*
X126875380Y-55502007D02*
G75*
G02*
X128775380Y-55502007I950000J0D01*
G01*
%TO.C,U_MUX7*%
X102140000Y-62565000D02*
X102140000Y-62620000D01*
X102140000Y-72630000D02*
X102140000Y-72685000D01*
X102140000Y-72685000D02*
X106260000Y-72685000D01*
X106260000Y-62565000D02*
X102140000Y-62565000D01*
X106260000Y-62620000D02*
X106260000Y-62565000D01*
X106260000Y-72685000D02*
X106260000Y-72630000D01*
X106800000Y-62615000D02*
X107040000Y-62285000D01*
X106560000Y-62285000D01*
X106800000Y-62615000D01*
G36*
X106800000Y-62615000D02*
G01*
X106560000Y-62285000D01*
X107040000Y-62285000D01*
X106800000Y-62615000D01*
G37*
%TO.C,R8*%
X173236775Y-43976030D02*
X173236775Y-43501514D01*
X174281775Y-43976030D02*
X174281775Y-43501514D01*
%TO.C,C7*%
X43634420Y-30097500D02*
X43915580Y-30097500D01*
X43634420Y-31117500D02*
X43915580Y-31117500D01*
%TO.C,U_SR3*%
X103209999Y-78555375D02*
X103209999Y-82675375D01*
X103209999Y-82675375D02*
X103264999Y-82675375D01*
X103264999Y-78555375D02*
X103209999Y-78555375D01*
X113274999Y-82675375D02*
X113329999Y-82675375D01*
X113329999Y-78555375D02*
X113274999Y-78555375D01*
X113329999Y-82675375D02*
X113329999Y-78555375D01*
X113279999Y-83215375D02*
X113609999Y-83455375D01*
X113609999Y-82975375D01*
X113279999Y-83215375D01*
G36*
X113609999Y-83455375D02*
G01*
X113279999Y-83215375D01*
X113609999Y-82975375D01*
X113609999Y-83455375D01*
G37*
%TO.C,U_MUX2*%
X36240000Y-78877500D02*
X36240000Y-82997500D01*
X36240000Y-82997500D02*
X36295000Y-82997500D01*
X36295000Y-78877500D02*
X36240000Y-78877500D01*
X46305000Y-82997500D02*
X46360000Y-82997500D01*
X46360000Y-78877500D02*
X46305000Y-78877500D01*
X46360000Y-82997500D02*
X46360000Y-78877500D01*
X46310000Y-83537500D02*
X46640000Y-83777500D01*
X46640000Y-83297500D01*
X46310000Y-83537500D01*
G36*
X46640000Y-83777500D02*
G01*
X46310000Y-83537500D01*
X46640000Y-83297500D01*
X46640000Y-83777500D01*
G37*
%TO.C,TP6*%
X174850000Y-53000000D02*
G75*
G02*
X172950000Y-53000000I-950000J0D01*
G01*
X172950000Y-53000000D02*
G75*
G02*
X174850000Y-53000000I950000J0D01*
G01*
%TO.C,U_SR1*%
X99863550Y-39905045D02*
X99863550Y-44025045D01*
X99863550Y-44025045D02*
X99918550Y-44025045D01*
X99918550Y-39905045D02*
X99863550Y-39905045D01*
X109928550Y-44025045D02*
X109983550Y-44025045D01*
X109983550Y-39905045D02*
X109928550Y-39905045D01*
X109983550Y-44025045D02*
X109983550Y-39905045D01*
X109933550Y-44565045D02*
X110263550Y-44805045D01*
X110263550Y-44325045D01*
X109933550Y-44565045D01*
G36*
X110263550Y-44805045D02*
G01*
X109933550Y-44565045D01*
X110263550Y-44325045D01*
X110263550Y-44805045D01*
G37*
%TO.C,R13*%
X128671581Y-68788064D02*
X129146097Y-68788064D01*
X128671581Y-69833064D02*
X129146097Y-69833064D01*
%TO.C,C15*%
X236210000Y-38228080D02*
X236210000Y-37946920D01*
X237230000Y-38228080D02*
X237230000Y-37946920D01*
%TO.C,C13*%
X183660000Y-60056205D02*
X183660000Y-59775045D01*
X184680000Y-60056205D02*
X184680000Y-59775045D01*
%TO.C,TP13*%
X128815380Y-52502007D02*
G75*
G02*
X126915380Y-52502007I-950000J0D01*
G01*
X126915380Y-52502007D02*
G75*
G02*
X128815380Y-52502007I950000J0D01*
G01*
%TO.C,TP2*%
X208794999Y-45696250D02*
G75*
G02*
X206894999Y-45696250I-950000J0D01*
G01*
X206894999Y-45696250D02*
G75*
G02*
X208794999Y-45696250I950000J0D01*
G01*
%TO.C,C_SD2*%
X151592748Y-112840000D02*
X152115252Y-112840000D01*
X151592748Y-114310000D02*
X152115252Y-114310000D01*
%TO.C,R30*%
X243977500Y-20125258D02*
X243977500Y-19650742D01*
X245022500Y-20125258D02*
X245022500Y-19650742D01*
%TO.C,U_SR5*%
X121670380Y-58917007D02*
X121670380Y-63037007D01*
X121670380Y-63037007D02*
X121725380Y-63037007D01*
X121725380Y-58917007D02*
X121670380Y-58917007D01*
X131735380Y-63037007D02*
X131790380Y-63037007D01*
X131790380Y-58917007D02*
X131735380Y-58917007D01*
X131790380Y-63037007D02*
X131790380Y-58917007D01*
X121720380Y-58377007D02*
X121390380Y-58137007D01*
X121390380Y-58617007D01*
X121720380Y-58377007D01*
G36*
X121720380Y-58377007D02*
G01*
X121390380Y-58617007D01*
X121390380Y-58137007D01*
X121720380Y-58377007D01*
G37*
%TO.C,R22*%
X99732742Y-81160500D02*
X100207258Y-81160500D01*
X99732742Y-82205500D02*
X100207258Y-82205500D01*
%TO.C,C3*%
X26384999Y-109741251D02*
X26384999Y-109218747D01*
X27854999Y-109741251D02*
X27854999Y-109218747D01*
%TO.C,R23*%
X119032742Y-17785500D02*
X119507258Y-17785500D01*
X119032742Y-18830500D02*
X119507258Y-18830500D01*
%TO.C,U_MUX8*%
X181111428Y-22243571D02*
X181111428Y-22298571D01*
X181111428Y-32308571D02*
X181111428Y-32363571D01*
X181111428Y-32363571D02*
X185231428Y-32363571D01*
X185231428Y-22243571D02*
X181111428Y-22243571D01*
X185231428Y-22298571D02*
X185231428Y-22243571D01*
X185231428Y-32363571D02*
X185231428Y-32308571D01*
X180571428Y-32313571D02*
X180331428Y-32643571D01*
X180811428Y-32643571D01*
X180571428Y-32313571D01*
G36*
X180811428Y-32643571D02*
G01*
X180331428Y-32643571D01*
X180571428Y-32313571D01*
X180811428Y-32643571D01*
G37*
%TO.C,R17*%
X44680242Y-85432499D02*
X45154758Y-85432499D01*
X44680242Y-86477499D02*
X45154758Y-86477499D01*
%TO.C,R28*%
X207132741Y-81160500D02*
X207607257Y-81160500D01*
X207132741Y-82205500D02*
X207607257Y-82205500D01*
%TO.C,TP10*%
X122505380Y-55502007D02*
G75*
G02*
X120605380Y-55502007I-950000J0D01*
G01*
X120605380Y-55502007D02*
G75*
G02*
X122505380Y-55502007I950000J0D01*
G01*
%TO.C,R14*%
X91775242Y-34807499D02*
X92249758Y-34807499D01*
X91775242Y-35852499D02*
X92249758Y-35852499D01*
%TO.C,C_SENSE2*%
X167529420Y-20450000D02*
X167810580Y-20450000D01*
X167529420Y-21470000D02*
X167810580Y-21470000D01*
%TO.C,C6*%
X28384999Y-95218747D02*
X28384999Y-95741251D01*
X29854999Y-95218747D02*
X29854999Y-95741251D01*
%TO.C,D_N12*%
X26109999Y-111829999D02*
X31619999Y-111829999D01*
X26109999Y-115129999D02*
X26109999Y-111829999D01*
X26109999Y-115129999D02*
X31619999Y-115129999D01*
%TO.C,TP12*%
X121045380Y-58502007D02*
G75*
G02*
X119145380Y-58502007I-950000J0D01*
G01*
X119145380Y-58502007D02*
G75*
G02*
X121045380Y-58502007I950000J0D01*
G01*
%TO.C,U_SR2*%
X77172678Y-67170504D02*
X77172678Y-71290504D01*
X77172678Y-71290504D02*
X77227678Y-71290504D01*
X77227678Y-67170504D02*
X77172678Y-67170504D01*
X87237678Y-71290504D02*
X87292678Y-71290504D01*
X87292678Y-67170504D02*
X87237678Y-67170504D01*
X87292678Y-71290504D02*
X87292678Y-67170504D01*
X77222678Y-66630504D02*
X76892678Y-66390504D01*
X76892678Y-66870504D01*
X77222678Y-66630504D01*
G36*
X77222678Y-66630504D02*
G01*
X76892678Y-66870504D01*
X76892678Y-66390504D01*
X77222678Y-66630504D01*
G37*
%TO.C,C14*%
X286710000Y-38131205D02*
X286710000Y-37850045D01*
X287730000Y-38131205D02*
X287730000Y-37850045D01*
%TO.C,U_MUX1*%
X39240000Y-42190000D02*
X39240000Y-42245000D01*
X39240000Y-52255000D02*
X39240000Y-52310000D01*
X39240000Y-52310000D02*
X43360000Y-52310000D01*
X43360000Y-42190000D02*
X39240000Y-42190000D01*
X43360000Y-42245000D02*
X43360000Y-42190000D01*
X43360000Y-52310000D02*
X43360000Y-52255000D01*
X38700000Y-52260000D02*
X38460000Y-52590000D01*
X38940000Y-52590000D01*
X38700000Y-52260000D01*
G36*
X38940000Y-52590000D02*
G01*
X38460000Y-52590000D01*
X38700000Y-52260000D01*
X38940000Y-52590000D01*
G37*
%TO.C,C_SENSE1*%
X130620000Y-30140580D02*
X130620000Y-29859420D01*
X131640000Y-30140580D02*
X131640000Y-29859420D01*
%TO.C,R6*%
X69819275Y-64163530D02*
X69819275Y-63689014D01*
X70864275Y-64163530D02*
X70864275Y-63689014D01*
%TO.C,C_LDO_T*%
X8409999Y-97244999D02*
X8409999Y-90479999D01*
X11829999Y-90479999D02*
X11829999Y-97244999D01*
X11829999Y-97244999D02*
X8409999Y-97244999D01*
%TO.C,TP8*%
X124505380Y-66452007D02*
G75*
G02*
X122605380Y-66452007I-950000J0D01*
G01*
X122605380Y-66452007D02*
G75*
G02*
X124505380Y-66452007I950000J0D01*
G01*
%TO.C,TP15*%
X123355380Y-51502007D02*
G75*
G02*
X121455380Y-51502007I-950000J0D01*
G01*
X121455380Y-51502007D02*
G75*
G02*
X123355380Y-51502007I950000J0D01*
G01*
%TO.C,R26*%
X172977500Y-111717258D02*
X172977500Y-111242742D01*
X174022500Y-111717258D02*
X174022500Y-111242742D01*
%TO.C,TP1*%
X79818000Y-41291000D02*
G75*
G02*
X77918000Y-41291000I-950000J0D01*
G01*
X77918000Y-41291000D02*
G75*
G02*
X79818000Y-41291000I950000J0D01*
G01*
%TO.C,R16*%
X182445242Y-83932499D02*
X182919758Y-83932499D01*
X182445242Y-84977499D02*
X182919758Y-84977499D01*
%TO.C,U_MUX9*%
X173065000Y-60330625D02*
X173065000Y-64450625D01*
X173065000Y-64450625D02*
X173120000Y-64450625D01*
X173120000Y-60330625D02*
X173065000Y-60330625D01*
X183130000Y-64450625D02*
X183185000Y-64450625D01*
X183185000Y-60330625D02*
X183130000Y-60330625D01*
X183185000Y-64450625D02*
X183185000Y-60330625D01*
X183135000Y-64990625D02*
X183465000Y-65230625D01*
X183465000Y-64750625D01*
X183135000Y-64990625D01*
G36*
X183465000Y-65230625D02*
G01*
X183135000Y-64990625D01*
X183465000Y-64750625D01*
X183465000Y-65230625D01*
G37*
%TO.C,R21*%
X65732742Y-79010500D02*
X66207258Y-79010500D01*
X65732742Y-80055500D02*
X66207258Y-80055500D01*
%TO.C,C2*%
X23979419Y-107969999D02*
X24260579Y-107969999D01*
X23979419Y-108989999D02*
X24260579Y-108989999D01*
%TO.C,R1*%
X130795225Y-50371003D02*
X130795225Y-49896487D01*
X131840225Y-50371003D02*
X131840225Y-49896487D01*
%TO.C,U_MUX3*%
X276115000Y-38205625D02*
X276115000Y-42325625D01*
X276115000Y-42325625D02*
X276170000Y-42325625D01*
X276170000Y-38205625D02*
X276115000Y-38205625D01*
X286180000Y-42325625D02*
X286235000Y-42325625D01*
X286235000Y-38205625D02*
X286180000Y-38205625D01*
X286235000Y-42325625D02*
X286235000Y-38205625D01*
X286185000Y-42865625D02*
X286515000Y-43105625D01*
X286515000Y-42625625D01*
X286185000Y-42865625D01*
G36*
X286515000Y-43105625D02*
G01*
X286185000Y-42865625D01*
X286515000Y-42625625D01*
X286515000Y-43105625D01*
G37*
%TO.C,C1*%
X20358747Y-108244999D02*
X20881251Y-108244999D01*
X20358747Y-109714999D02*
X20881251Y-109714999D01*
%TO.C,C12*%
X184987007Y-32838571D02*
X184705847Y-32838571D01*
X184987007Y-33858571D02*
X184705847Y-33858571D01*
%TO.C,U_MUX6*%
X102239999Y-22350714D02*
X102239999Y-22405714D01*
X102239999Y-32415714D02*
X102239999Y-32470714D01*
X102239999Y-32470714D02*
X106359999Y-32470714D01*
X106359999Y-22350714D02*
X102239999Y-22350714D01*
X106359999Y-22405714D02*
X106359999Y-22350714D01*
X106359999Y-32470714D02*
X106359999Y-32415714D01*
X106899999Y-22400714D02*
X107139999Y-22070714D01*
X106659999Y-22070714D01*
X106899999Y-22400714D01*
G36*
X106899999Y-22400714D02*
G01*
X106659999Y-22070714D01*
X107139999Y-22070714D01*
X106899999Y-22400714D01*
G37*
%TO.C,C20*%
X260087499Y-60060330D02*
X260087499Y-59779170D01*
X261107499Y-60060330D02*
X261107499Y-59779170D01*
%TO.C,TP3*%
X129953749Y-32161428D02*
G75*
G02*
X128053749Y-32161428I-950000J0D01*
G01*
X128053749Y-32161428D02*
G75*
G02*
X129953749Y-32161428I950000J0D01*
G01*
%TO.C,R5*%
X71954517Y-44370022D02*
X72429033Y-44370022D01*
X71954517Y-45415022D02*
X72429033Y-45415022D01*
%TO.C,C9*%
X46835000Y-78603080D02*
X46835000Y-78321920D01*
X47855000Y-78603080D02*
X47855000Y-78321920D01*
%TO.C,TP9*%
X119235380Y-61502007D02*
G75*
G02*
X117335380Y-61502007I-950000J0D01*
G01*
X117335380Y-61502007D02*
G75*
G02*
X119235380Y-61502007I950000J0D01*
G01*
%TO.C,C21*%
X120175380Y-63592587D02*
X120175380Y-63311427D01*
X121195380Y-63592587D02*
X121195380Y-63311427D01*
%TO.C,R2*%
X130833407Y-42705549D02*
X130833407Y-42231033D01*
X131878407Y-42705549D02*
X131878407Y-42231033D01*
%TO.C,C17*%
X110458550Y-39630625D02*
X110458550Y-39349465D01*
X111478550Y-39630625D02*
X111478550Y-39349465D01*
%TO.C,R31*%
X247532742Y-58885500D02*
X248007258Y-58885500D01*
X247532742Y-59930500D02*
X248007258Y-59930500D01*
%TO.C,U_IN1*%
X71370000Y-59274999D02*
X71370000Y-63394999D01*
X71370000Y-63394999D02*
X71425000Y-63394999D01*
X71425000Y-59274999D02*
X71370000Y-59274999D01*
X81435000Y-63394999D02*
X81490000Y-63394999D01*
X81490000Y-59274999D02*
X81435000Y-59274999D01*
X81490000Y-63394999D02*
X81490000Y-59274999D01*
X81440000Y-63934999D02*
X81770000Y-64174999D01*
X81770000Y-63694999D01*
X81440000Y-63934999D01*
G36*
X81770000Y-64174999D02*
G01*
X81440000Y-63934999D01*
X81770000Y-63694999D01*
X81770000Y-64174999D01*
G37*
%TO.C,TP7*%
X174850000Y-50000000D02*
G75*
G02*
X172950000Y-50000000I-950000J0D01*
G01*
X172950000Y-50000000D02*
G75*
G02*
X174850000Y-50000000I950000J0D01*
G01*
%TO.C,U_MUX4*%
X225615000Y-38502500D02*
X225615000Y-42622500D01*
X225615000Y-42622500D02*
X225670000Y-42622500D01*
X225670000Y-38502500D02*
X225615000Y-38502500D01*
X235680000Y-42622500D02*
X235735000Y-42622500D01*
X235735000Y-38502500D02*
X235680000Y-38502500D01*
X235735000Y-42622500D02*
X235735000Y-38502500D01*
X235685000Y-43162500D02*
X236015000Y-43402500D01*
X236015000Y-42922500D01*
X235685000Y-43162500D01*
G36*
X236015000Y-43402500D02*
G01*
X235685000Y-43162500D01*
X236015000Y-42922500D01*
X236015000Y-43402500D01*
G37*
%TO.C,TP14*%
X126085380Y-51502007D02*
G75*
G02*
X124185380Y-51502007I-950000J0D01*
G01*
X124185380Y-51502007D02*
G75*
G02*
X126085380Y-51502007I950000J0D01*
G01*
%TO.C,D_P12*%
X25109999Y-89329999D02*
X30619999Y-89329999D01*
X25109999Y-92629999D02*
X25109999Y-89329999D01*
X25109999Y-92629999D02*
X30619999Y-92629999D01*
%TO.C,C5*%
X23858747Y-109744999D02*
X24381251Y-109744999D01*
X23858747Y-111214999D02*
X24381251Y-111214999D01*
%TO.C,R15*%
X130525000Y-35567257D02*
X130525000Y-35092741D01*
X131570000Y-35567257D02*
X131570000Y-35092741D01*
%TO.C,C_SD1*%
X151713420Y-108465000D02*
X151994580Y-108465000D01*
X151713420Y-109485000D02*
X151994580Y-109485000D01*
%TO.C,C22*%
X81965000Y-59000579D02*
X81965000Y-58719419D01*
X82985000Y-59000579D02*
X82985000Y-58719419D01*
%TO.C,R12*%
X130274795Y-44554537D02*
X130749311Y-44554537D01*
X130274795Y-45599537D02*
X130749311Y-45599537D01*
%TO.C,R3*%
X130640679Y-39590094D02*
X130640679Y-39115578D01*
X131685679Y-39590094D02*
X131685679Y-39115578D01*
%TO.C,U_REG*%
X17709999Y-91069999D02*
X18969999Y-91069999D01*
X17709999Y-94829999D02*
X17709999Y-91069999D01*
X24529999Y-91069999D02*
X23269999Y-91069999D01*
X24529999Y-94829999D02*
X24529999Y-91069999D01*
X24429999Y-96109999D02*
X24759999Y-96349999D01*
X24759999Y-95869999D01*
X24429999Y-96109999D01*
G36*
X24759999Y-96349999D02*
G01*
X24429999Y-96109999D01*
X24759999Y-95869999D01*
X24759999Y-96349999D01*
G37*
%TO.C,R29*%
X241132741Y-79010500D02*
X241607257Y-79010500D01*
X241132741Y-80055500D02*
X241607257Y-80055500D01*
%TO.C,C4*%
X12609999Y-95620579D02*
X12609999Y-95339419D01*
X13629999Y-95620579D02*
X13629999Y-95339419D01*
%TO.C,R4*%
X72589517Y-33026272D02*
X73064033Y-33026272D01*
X72589517Y-34071272D02*
X73064033Y-34071272D01*
%TO.C,R9*%
X172753839Y-77554072D02*
X172753839Y-77079556D01*
X173798839Y-77554072D02*
X173798839Y-77079556D01*
%TO.C,J_PWR*%
X10330000Y-97920000D02*
X10330000Y-107040000D01*
X10330000Y-107040000D02*
X30910000Y-107040000D01*
X11630000Y-99230000D02*
X11630000Y-105730000D01*
X11630000Y-105730000D02*
X18570000Y-105730000D01*
X18570000Y-105730000D02*
X18570000Y-107040000D01*
X22670000Y-105730000D02*
X29610000Y-105730000D01*
X22670000Y-107040000D02*
X22670000Y-105730000D01*
X25200000Y-108430000D02*
X25700000Y-107430000D01*
X25700000Y-107430000D02*
X26200000Y-108430000D01*
X26200000Y-108430000D02*
X25200000Y-108430000D01*
X29610000Y-99230000D02*
X11630000Y-99230000D01*
X29610000Y-105730000D02*
X29610000Y-99230000D01*
X30910000Y-97920000D02*
X10330000Y-97920000D01*
X30910000Y-107040000D02*
X30910000Y-97920000D01*
%TO.C,R19*%
X55777500Y-20125258D02*
X55777500Y-19650742D01*
X56822500Y-20125258D02*
X56822500Y-19650742D01*
%TD*%
M02*
