<svg xmlns="http://www.w3.org/2000/svg" width="304.800mm" height="128.500mm" viewBox="0 0 304.800 128.500">
<circle cx="61.000" cy="14.500" r="3.500" fill="none" stroke="#0000ff" stroke-width="0.01"/>
<circle cx="18.250" cy="34.000" r="3.500" fill="none" stroke="#0000ff" stroke-width="0.01"/>
<circle cx="40.750" cy="53.000" r="3.500" fill="none" stroke="#0000ff" stroke-width="0.01"/>
<circle cx="31.250" cy="34.000" r="3.500" fill="none" stroke="#0000ff" stroke-width="0.01"/>
<circle cx="44.250" cy="34.000" r="3.500" fill="none" stroke="#0000ff" stroke-width="0.01"/>
<circle cx="74.000" cy="14.500" r="3.500" fill="none" stroke="#0000ff" stroke-width="0.01"/>
<circle cx="21.750" cy="53.000" r="3.500" fill="none" stroke="#0000ff" stroke-width="0.01"/>
<circle cx="17.000" cy="74.400" r="3.500" fill="none" stroke="#0000ff" stroke-width="0.01"/>
<circle cx="68.250" cy="34.000" r="3.500" fill="none" stroke="#0000ff" stroke-width="0.01"/>
<circle cx="81.250" cy="34.000" r="3.500" fill="none" stroke="#0000ff" stroke-width="0.01"/>
<circle cx="94.250" cy="34.000" r="3.500" fill="none" stroke="#0000ff" stroke-width="0.01"/>
<circle cx="107.250" cy="34.000" r="3.500" fill="none" stroke="#0000ff" stroke-width="0.01"/>
<circle cx="72.875" cy="50.220" r="3.500" fill="none" stroke="#0000ff" stroke-width="0.01"/>
<circle cx="67.000" cy="79.000" r="3.500" fill="none" stroke="#0000ff" stroke-width="0.01"/>
<circle cx="116.750" cy="97.000" r="3.500" fill="none" stroke="#0000ff" stroke-width="0.01"/>
<circle cx="106.500" cy="79.000" r="3.500" fill="none" stroke="#0000ff" stroke-width="0.01"/>
<circle cx="35.000" cy="14.500" r="3.500" fill="none" stroke="#0000ff" stroke-width="0.01"/>
<circle cx="16.250" cy="14.500" r="3.500" fill="none" stroke="#0000ff" stroke-width="0.01"/>
<circle cx="30.000" cy="74.400" r="3.500" fill="none" stroke="#0000ff" stroke-width="0.01"/>
<circle cx="48.000" cy="14.500" r="3.500" fill="none" stroke="#0000ff" stroke-width="0.01"/>
<circle cx="243.800" cy="14.500" r="3.500" fill="none" stroke="#0000ff" stroke-width="0.01"/>
<circle cx="286.550" cy="34.000" r="3.500" fill="none" stroke="#0000ff" stroke-width="0.01"/>
<circle cx="264.050" cy="53.000" r="3.500" fill="none" stroke="#0000ff" stroke-width="0.01"/>
<circle cx="273.550" cy="34.000" r="3.500" fill="none" stroke="#0000ff" stroke-width="0.01"/>
<circle cx="260.550" cy="34.000" r="3.500" fill="none" stroke="#0000ff" stroke-width="0.01"/>
<circle cx="230.800" cy="14.500" r="3.500" fill="none" stroke="#0000ff" stroke-width="0.01"/>
<circle cx="283.050" cy="53.000" r="3.500" fill="none" stroke="#0000ff" stroke-width="0.01"/>
<circle cx="287.800" cy="74.400" r="3.500" fill="none" stroke="#0000ff" stroke-width="0.01"/>
<circle cx="236.550" cy="34.000" r="3.500" fill="none" stroke="#0000ff" stroke-width="0.01"/>
<circle cx="223.550" cy="34.000" r="3.500" fill="none" stroke="#0000ff" stroke-width="0.01"/>
<circle cx="210.550" cy="34.000" r="3.500" fill="none" stroke="#0000ff" stroke-width="0.01"/>
<circle cx="197.550" cy="34.000" r="3.500" fill="none" stroke="#0000ff" stroke-width="0.01"/>
<circle cx="231.925" cy="50.220" r="3.500" fill="none" stroke="#0000ff" stroke-width="0.01"/>
<circle cx="237.800" cy="79.000" r="3.500" fill="none" stroke="#0000ff" stroke-width="0.01"/>
<circle cx="188.050" cy="97.000" r="3.500" fill="none" stroke="#0000ff" stroke-width="0.01"/>
<circle cx="198.300" cy="79.000" r="3.500" fill="none" stroke="#0000ff" stroke-width="0.01"/>
<circle cx="269.800" cy="14.500" r="3.500" fill="none" stroke="#0000ff" stroke-width="0.01"/>
<circle cx="288.550" cy="14.500" r="3.500" fill="none" stroke="#0000ff" stroke-width="0.01"/>
<circle cx="274.800" cy="74.400" r="3.500" fill="none" stroke="#0000ff" stroke-width="0.01"/>
<circle cx="256.800" cy="14.500" r="3.500" fill="none" stroke="#0000ff" stroke-width="0.01"/>
<circle cx="152.400" cy="53.000" r="3.500" fill="none" stroke="#0000ff" stroke-width="0.01"/>
<circle cx="139.400" cy="34.000" r="3.500" fill="none" stroke="#0000ff" stroke-width="0.01"/>
<circle cx="152.400" cy="34.000" r="3.500" fill="none" stroke="#0000ff" stroke-width="0.01"/>
<circle cx="132.900" cy="14.500" r="3.500" fill="none" stroke="#0000ff" stroke-width="0.01"/>
<circle cx="145.900" cy="14.500" r="3.500" fill="none" stroke="#0000ff" stroke-width="0.01"/>
<circle cx="136.400" cy="74.400" r="3.500" fill="none" stroke="#0000ff" stroke-width="0.01"/>
<circle cx="152.400" cy="79.000" r="3.500" fill="none" stroke="#0000ff" stroke-width="0.01"/>
<circle cx="152.400" cy="97.000" r="3.500" fill="none" stroke="#0000ff" stroke-width="0.01"/>
<circle cx="168.400" cy="74.400" r="3.500" fill="none" stroke="#0000ff" stroke-width="0.01"/>
<circle cx="158.900" cy="14.500" r="3.500" fill="none" stroke="#0000ff" stroke-width="0.01"/>
<circle cx="88.875" cy="53.000" r="3.500" fill="none" stroke="#0000ff" stroke-width="0.01"/>
<circle cx="215.925" cy="53.000" r="3.500" fill="none" stroke="#0000ff" stroke-width="0.01"/>
<circle cx="136.400" cy="50.220" r="3.500" fill="none" stroke="#0000ff" stroke-width="0.01"/>
<circle cx="54.000" cy="89.860" r="3.500" fill="none" stroke="#0000ff" stroke-width="0.01"/>
<circle cx="250.800" cy="89.860" r="3.500" fill="none" stroke="#0000ff" stroke-width="0.01"/>
<circle cx="67.000" cy="97.000" r="3.500" fill="none" stroke="#0000ff" stroke-width="0.01"/>
<circle cx="237.800" cy="97.000" r="3.500" fill="none" stroke="#0000ff" stroke-width="0.01"/>
<circle cx="23.500" cy="95.000" r="3.500" fill="none" stroke="#0000ff" stroke-width="0.01"/>
<circle cx="281.300" cy="95.000" r="3.500" fill="none" stroke="#0000ff" stroke-width="0.01"/>
<circle cx="80.000" cy="89.860" r="3.500" fill="none" stroke="#0000ff" stroke-width="0.01"/>
<circle cx="224.800" cy="89.860" r="3.500" fill="none" stroke="#0000ff" stroke-width="0.01"/>
<circle cx="101.000" cy="14.500" r="3.100" fill="none" stroke="#0000ff" stroke-width="0.01"/>
<circle cx="203.800" cy="14.500" r="3.100" fill="none" stroke="#0000ff" stroke-width="0.01"/>
<circle cx="129.750" cy="97.000" r="3.500" fill="none" stroke="#0000ff" stroke-width="0.01"/>
<circle cx="175.050" cy="97.000" r="3.500" fill="none" stroke="#0000ff" stroke-width="0.01"/>
<circle cx="165.400" cy="34.000" r="3.500" fill="none" stroke="#0000ff" stroke-width="0.01"/>
<circle cx="168.400" cy="50.220" r="3.500" fill="none" stroke="#0000ff" stroke-width="0.01"/>
<circle cx="104.875" cy="50.220" r="3.500" fill="none" stroke="#0000ff" stroke-width="0.01"/>
<circle cx="199.925" cy="50.220" r="3.500" fill="none" stroke="#0000ff" stroke-width="0.01"/>
<circle cx="171.900" cy="14.500" r="3.500" fill="none" stroke="#0000ff" stroke-width="0.01"/>
<circle cx="103.750" cy="97.000" r="3.500" fill="none" stroke="#0000ff" stroke-width="0.01"/>
<circle cx="201.050" cy="97.000" r="3.500" fill="none" stroke="#0000ff" stroke-width="0.01"/>
<circle cx="290.800" cy="114.000" r="3.100" fill="none" stroke="#0000ff" stroke-width="0.01"/>
<circle cx="33.000" cy="114.000" r="3.000" fill="none" stroke="#0000ff" stroke-width="0.01"/>
<circle cx="44.500" cy="114.000" r="3.000" fill="none" stroke="#0000ff" stroke-width="0.01"/>
<circle cx="136.000" cy="114.000" r="3.000" fill="none" stroke="#0000ff" stroke-width="0.01"/>
<circle cx="168.800" cy="114.000" r="3.000" fill="none" stroke="#0000ff" stroke-width="0.01"/>
<circle cx="79.000" cy="114.000" r="3.000" fill="none" stroke="#0000ff" stroke-width="0.01"/>
<circle cx="90.500" cy="114.000" r="3.000" fill="none" stroke="#0000ff" stroke-width="0.01"/>
<circle cx="102.000" cy="114.000" r="3.000" fill="none" stroke="#0000ff" stroke-width="0.01"/>
<circle cx="113.500" cy="114.000" r="3.000" fill="none" stroke="#0000ff" stroke-width="0.01"/>
<circle cx="225.800" cy="114.000" r="3.000" fill="none" stroke="#0000ff" stroke-width="0.01"/>
<circle cx="214.300" cy="114.000" r="3.000" fill="none" stroke="#0000ff" stroke-width="0.01"/>
<circle cx="202.800" cy="114.000" r="3.000" fill="none" stroke="#0000ff" stroke-width="0.01"/>
<circle cx="191.300" cy="114.000" r="3.000" fill="none" stroke="#0000ff" stroke-width="0.01"/>
<circle cx="260.300" cy="114.000" r="3.000" fill="none" stroke="#0000ff" stroke-width="0.01"/>
<circle cx="271.800" cy="114.000" r="3.000" fill="none" stroke="#0000ff" stroke-width="0.01"/>
<circle cx="56.000" cy="114.000" r="3.000" fill="none" stroke="#0000ff" stroke-width="0.01"/>
<circle cx="67.500" cy="114.000" r="3.000" fill="none" stroke="#0000ff" stroke-width="0.01"/>
<circle cx="248.800" cy="114.000" r="3.000" fill="none" stroke="#0000ff" stroke-width="0.01"/>
<circle cx="237.300" cy="114.000" r="3.000" fill="none" stroke="#0000ff" stroke-width="0.01"/>
<circle cx="70.300" cy="41.208" r="1.550" fill="none" stroke="#0000ff" stroke-width="0.01"/>
<circle cx="238.600" cy="41.208" r="1.550" fill="none" stroke="#0000ff" stroke-width="0.01"/>
<circle cx="108.500" cy="14.500" r="1.550" fill="none" stroke="#0000ff" stroke-width="0.01"/>
<circle cx="196.300" cy="14.500" r="1.550" fill="none" stroke="#0000ff" stroke-width="0.01"/>
<circle cx="75.475" cy="57.428" r="1.550" fill="none" stroke="#0000ff" stroke-width="0.01"/>
<circle cx="234.525" cy="57.428" r="1.550" fill="none" stroke="#0000ff" stroke-width="0.01"/>
<circle cx="91.475" cy="61.808" r="1.550" fill="none" stroke="#0000ff" stroke-width="0.01"/>
<circle cx="218.525" cy="61.808" r="1.550" fill="none" stroke="#0000ff" stroke-width="0.01"/>
<circle cx="26.100" cy="103.808" r="1.550" fill="none" stroke="#0000ff" stroke-width="0.01"/>
<circle cx="283.900" cy="103.808" r="1.550" fill="none" stroke="#0000ff" stroke-width="0.01"/>
<circle cx="108.550" cy="87.808" r="1.550" fill="none" stroke="#0000ff" stroke-width="0.01"/>
<circle cx="200.350" cy="87.808" r="1.550" fill="none" stroke="#0000ff" stroke-width="0.01"/>
<circle cx="50.600" cy="21.708" r="1.550" fill="none" stroke="#0000ff" stroke-width="0.01"/>
<circle cx="259.400" cy="21.708" r="1.550" fill="none" stroke="#0000ff" stroke-width="0.01"/>
<circle cx="142.000" cy="41.208" r="1.550" fill="none" stroke="#0000ff" stroke-width="0.01"/>
<circle cx="129.300" cy="114.000" r="1.550" fill="none" stroke="#0000ff" stroke-width="0.01"/>
<circle cx="284.100" cy="114.000" r="1.550" fill="none" stroke="#0000ff" stroke-width="0.01"/>
<circle cx="20.700" cy="114.000" r="1.550" fill="none" stroke="#0000ff" stroke-width="0.01"/>
<circle cx="278.500" cy="114.000" r="1.550" fill="none" stroke="#0000ff" stroke-width="0.01"/>
<circle cx="14.000" cy="114.000" r="3.100" fill="none" stroke="#0000ff" stroke-width="0.01"/>
<rect x="146.900" y="111.000" width="11.000" height="6.000" rx="0.000" fill="none" stroke="#0000ff" stroke-width="0.01"/>
<rect x="5.100" y="1.400" width="5.200" height="3.200" rx="1.600" fill="none" stroke="#0000ff" stroke-width="0.01"/>
<rect x="294.660" y="1.400" width="5.200" height="3.200" rx="1.600" fill="none" stroke="#0000ff" stroke-width="0.01"/>
<rect x="5.100" y="123.900" width="5.200" height="3.200" rx="1.600" fill="none" stroke="#0000ff" stroke-width="0.01"/>
<rect x="294.660" y="123.900" width="5.200" height="3.200" rx="1.600" fill="none" stroke="#0000ff" stroke-width="0.01"/>
<rect x="0.200" y="0.000" width="304.400" height="128.500" fill="none" stroke="#0000ff" stroke-width="0.01"/>
</svg>
