%TF.GenerationSoftware,KiCad,Pcbnew,10.0.5*%
%TF.CreationDate,2026-09-02T19:16:21+02:00*%
%TF.ProjectId,coupon,636f7570-6f6e-42e6-9b69-6361645f7063,rev?*%
%TF.SameCoordinates,Original*%
%TF.FileFunction,Other,User*%
%FSLAX46Y46*%
G04 Gerber Fmt 4.6, Leading zero omitted, Abs format (unit mm)*
G04 Created by KiCad (PCBNEW 10.0.5) date 2026-09-02 19:16:21*
%MOMM*%
%LPD*%
G01*
G04 APERTURE LIST*
%ADD10C,0.050000*%
G04 APERTURE END LIST*
%TO.C,TP_COM16*%
D10*
X87750000Y-52000000D02*
G75*
G02*
X85250000Y-52000000I-1250000J0D01*
G01*
X85250000Y-52000000D02*
G75*
G02*
X87750000Y-52000000I1250000J0D01*
G01*
%TO.C,R_LO2*%
X84150000Y-75050000D02*
X87850000Y-75050000D01*
X87850000Y-76950000D01*
X84150000Y-76950000D01*
X84150000Y-75050000D01*
%TO.C,R_S16*%
X78590000Y-47150000D02*
X80490000Y-47150000D01*
X80490000Y-50850000D01*
X78590000Y-50850000D01*
X78590000Y-47150000D01*
%TO.C,J_PWR*%
X84320000Y-16400000D02*
X94220000Y-16400000D01*
X94220000Y-37760000D01*
X84320000Y-37760000D01*
X84320000Y-16400000D01*
%TO.C,C_BP12*%
X95520000Y-34120000D02*
X97480000Y-34120000D01*
X97480000Y-37880000D01*
X95520000Y-37880000D01*
X95520000Y-34120000D01*
%TO.C,R_SP13*%
X58150000Y-76550000D02*
X61850000Y-76550000D01*
X61850000Y-78450000D01*
X58150000Y-78450000D01*
X58150000Y-76550000D01*
%TO.C,R_SP10*%
X58150000Y-72550000D02*
X61850000Y-72550000D01*
X61850000Y-74450000D01*
X58150000Y-74450000D01*
X58150000Y-72550000D01*
%TO.C,R_SP15*%
X68150000Y-76550000D02*
X71850000Y-76550000D01*
X71850000Y-78450000D01*
X68150000Y-78450000D01*
X68150000Y-76550000D01*
%TO.C,JP_3V3*%
X80830000Y-49750000D02*
X80830000Y-46450000D01*
X80830000Y-49750000D02*
X83330000Y-49750000D01*
X83330000Y-46450000D02*
X80830000Y-46450000D01*
X83330000Y-46450000D02*
X83330000Y-49750000D01*
%TO.C,D2*%
X10050000Y-6150000D02*
X11950000Y-6150000D01*
X11950000Y-9850000D01*
X10050000Y-9850000D01*
X10050000Y-6150000D01*
%TO.C,R_LO3*%
X77450000Y-67750000D02*
X79350000Y-67750000D01*
X79350000Y-71450000D01*
X77450000Y-71450000D01*
X77450000Y-67750000D01*
%TO.C,R_LED2*%
X13050000Y-6150000D02*
X14950000Y-6150000D01*
X14950000Y-9850000D01*
X13050000Y-9850000D01*
X13050000Y-6150000D01*
%TO.C,U_MUX16*%
X82070000Y-54460000D02*
X84000000Y-54460000D01*
X82070000Y-69540000D02*
X82070000Y-54460000D01*
X84000000Y-54050000D02*
X92000000Y-54050000D01*
X84000000Y-54460000D02*
X84000000Y-54050000D01*
X84000000Y-69540000D02*
X82070000Y-69540000D01*
X84000000Y-69950000D02*
X84000000Y-69540000D01*
X92000000Y-54050000D02*
X92000000Y-54460000D01*
X92000000Y-54460000D02*
X93930000Y-54460000D01*
X92000000Y-69540000D02*
X92000000Y-69950000D01*
X92000000Y-69950000D02*
X84000000Y-69950000D01*
X93930000Y-54460000D02*
X93930000Y-69540000D01*
X93930000Y-69540000D02*
X92000000Y-69540000D01*
%TO.C,R_REFC1*%
X63150000Y-68550000D02*
X66850000Y-68550000D01*
X66850000Y-70450000D01*
X63150000Y-70450000D01*
X63150000Y-68550000D01*
%TO.C,D8*%
X10050000Y-30150000D02*
X11950000Y-30150000D01*
X11950000Y-33850000D01*
X10050000Y-33850000D01*
X10050000Y-30150000D01*
%TO.C,R_REFA1*%
X58150000Y-64550000D02*
X61850000Y-64550000D01*
X61850000Y-66450000D01*
X58150000Y-66450000D01*
X58150000Y-64550000D01*
%TO.C,SW1*%
X84500000Y-6500000D02*
X84750000Y-6500000D01*
X84500000Y-6750000D02*
X84500000Y-6500000D01*
X84500000Y-13750000D02*
X84500000Y-6750000D01*
X84500000Y-13750000D02*
X84500000Y-14000000D01*
X84500000Y-14000000D02*
X84750000Y-14000000D01*
X84750000Y-6500000D02*
X93750000Y-6500000D01*
X93750000Y-6500000D02*
X94000000Y-6500000D01*
X93750000Y-14000000D02*
X84750000Y-14000000D01*
X93750000Y-14000000D02*
X94000000Y-14000000D01*
X94000000Y-6500000D02*
X94000000Y-6750000D01*
X94000000Y-6750000D02*
X94000000Y-13750000D01*
X94000000Y-14000000D02*
X94000000Y-13750000D01*
%TO.C,RV2*%
X30590000Y-49350000D02*
X30590000Y-63100000D01*
X30590000Y-63100000D02*
X43410000Y-63100000D01*
X43410000Y-49350000D02*
X30590000Y-49350000D01*
X43410000Y-63100000D02*
X43410000Y-49350000D01*
%TO.C,C_BN12*%
X95520000Y-22120000D02*
X97480000Y-22120000D01*
X97480000Y-25880000D01*
X95520000Y-25880000D01*
X95520000Y-22120000D01*
%TO.C,TP_AGND*%
X11250000Y-66000000D02*
G75*
G02*
X8750000Y-66000000I-1250000J0D01*
G01*
X8750000Y-66000000D02*
G75*
G02*
X11250000Y-66000000I1250000J0D01*
G01*
%TO.C,R_LED6*%
X13050000Y-22150000D02*
X14950000Y-22150000D01*
X14950000Y-25850000D01*
X13050000Y-25850000D01*
X13050000Y-22150000D01*
%TO.C,R_REFC2*%
X68150000Y-68550000D02*
X71850000Y-68550000D01*
X71850000Y-70450000D01*
X68150000Y-70450000D01*
X68150000Y-68550000D01*
%TO.C,C_M8*%
X78000000Y-52850000D02*
X79960000Y-52850000D01*
X79960000Y-56610000D01*
X78000000Y-56610000D01*
X78000000Y-52850000D01*
%TO.C,R_REFB1*%
X68150000Y-64550000D02*
X71850000Y-64550000D01*
X71850000Y-66450000D01*
X68150000Y-66450000D01*
X68150000Y-64550000D01*
%TO.C,TP_AUDIO_L*%
X7250000Y-66000000D02*
G75*
G02*
X4750000Y-66000000I-1250000J0D01*
G01*
X4750000Y-66000000D02*
G75*
G02*
X7250000Y-66000000I1250000J0D01*
G01*
%TO.C,R_S8*%
X76050000Y-47150000D02*
X77950000Y-47150000D01*
X77950000Y-50850000D01*
X76050000Y-50850000D01*
X76050000Y-47150000D01*
%TO.C,C_COM16*%
X80620000Y-51020000D02*
X84380000Y-51020000D01*
X84380000Y-52980000D01*
X80620000Y-52980000D01*
X80620000Y-51020000D01*
%TO.C,RV3*%
X44090000Y-49350000D02*
X44090000Y-63100000D01*
X44090000Y-63100000D02*
X56910000Y-63100000D01*
X56910000Y-49350000D02*
X44090000Y-49350000D01*
X56910000Y-63100000D02*
X56910000Y-49350000D01*
%TO.C,R_REFA2*%
X63150000Y-64550000D02*
X66850000Y-64550000D01*
X66850000Y-66450000D01*
X63150000Y-66450000D01*
X63150000Y-64550000D01*
%TO.C,C_B3V3*%
X95520000Y-26120000D02*
X97480000Y-26120000D01*
X97480000Y-29880000D01*
X95520000Y-29880000D01*
X95520000Y-26120000D01*
%TO.C,J_AUDIO*%
X-3200000Y-49750000D02*
X15300000Y-49750000D01*
X15300000Y-62250000D01*
X-3200000Y-62250000D01*
X-3200000Y-49750000D01*
%TO.C,D4*%
X10050000Y-14150000D02*
X11950000Y-14150000D01*
X11950000Y-17850000D01*
X10050000Y-17850000D01*
X10050000Y-14150000D01*
%TO.C,R_LED8*%
X13050000Y-30150000D02*
X14950000Y-30150000D01*
X14950000Y-33850000D01*
X13050000Y-33850000D01*
X13050000Y-30150000D01*
%TO.C,TP_3V3*%
X97750000Y-32000000D02*
G75*
G02*
X95250000Y-32000000I-1250000J0D01*
G01*
X95250000Y-32000000D02*
G75*
G02*
X97750000Y-32000000I1250000J0D01*
G01*
%TO.C,U_MUX8*%
X72800000Y-57000000D02*
X74300000Y-57000000D01*
X72800000Y-67000000D02*
X72800000Y-57000000D01*
X74300000Y-56800000D02*
X78700000Y-56800000D01*
X74300000Y-57000000D02*
X74300000Y-56800000D01*
X74300000Y-67000000D02*
X72800000Y-67000000D01*
X74300000Y-67200000D02*
X74300000Y-67000000D01*
X78700000Y-56800000D02*
X78700000Y-57000000D01*
X78700000Y-57000000D02*
X80200000Y-57000000D01*
X78700000Y-67000000D02*
X78700000Y-67200000D01*
X78700000Y-67200000D02*
X74300000Y-67200000D01*
X80200000Y-57000000D02*
X80200000Y-67000000D01*
X80200000Y-67000000D02*
X78700000Y-67000000D01*
%TO.C,R_SP14*%
X63150000Y-76550000D02*
X66850000Y-76550000D01*
X66850000Y-78450000D01*
X63150000Y-78450000D01*
X63150000Y-76550000D01*
%TO.C,TP_COM8*%
X75270000Y-55300000D02*
G75*
G02*
X72770000Y-55300000I-1250000J0D01*
G01*
X72770000Y-55300000D02*
G75*
G02*
X75270000Y-55300000I1250000J0D01*
G01*
%TO.C,R_LO1*%
X89150000Y-71050000D02*
X92850000Y-71050000D01*
X92850000Y-72950000D01*
X89150000Y-72950000D01*
X89150000Y-71050000D01*
%TO.C,TP_A3V3*%
X15250000Y-66000000D02*
G75*
G02*
X12750000Y-66000000I-1250000J0D01*
G01*
X12750000Y-66000000D02*
G75*
G02*
X15250000Y-66000000I1250000J0D01*
G01*
%TO.C,RV1*%
X17090000Y-49350000D02*
X17090000Y-63100000D01*
X17090000Y-63100000D02*
X29910000Y-63100000D01*
X29910000Y-49350000D02*
X17090000Y-49350000D01*
X29910000Y-63100000D02*
X29910000Y-49350000D01*
%TO.C,R_LED3*%
X13050000Y-10150000D02*
X14950000Y-10150000D01*
X14950000Y-13850000D01*
X13050000Y-13850000D01*
X13050000Y-10150000D01*
%TO.C,C_SR2*%
X6500000Y-15685000D02*
X8460000Y-15685000D01*
X8460000Y-19445000D01*
X6500000Y-19445000D01*
X6500000Y-15685000D01*
%TO.C,D1*%
X10050000Y-2150000D02*
X11950000Y-2150000D01*
X11950000Y-5850000D01*
X10050000Y-5850000D01*
X10050000Y-2150000D01*
%TO.C,C_SR1*%
X6500000Y-1045000D02*
X8460000Y-1045000D01*
X8460000Y-4805000D01*
X6500000Y-4805000D01*
X6500000Y-1045000D01*
%TO.C,D7*%
X10050000Y-26150000D02*
X11950000Y-26150000D01*
X11950000Y-29850000D01*
X10050000Y-29850000D01*
X10050000Y-26150000D01*
%TO.C,R_LED7*%
X13050000Y-26150000D02*
X14950000Y-26150000D01*
X14950000Y-29850000D01*
X13050000Y-29850000D01*
X13050000Y-26150000D01*
%TO.C,U_SR2*%
X1300000Y-19885000D02*
X2800000Y-19885000D01*
X1300000Y-29885000D02*
X1300000Y-19885000D01*
X2800000Y-19685000D02*
X7200000Y-19685000D01*
X2800000Y-19885000D02*
X2800000Y-19685000D01*
X2800000Y-29885000D02*
X1300000Y-29885000D01*
X2800000Y-30085000D02*
X2800000Y-29885000D01*
X7200000Y-19685000D02*
X7200000Y-19885000D01*
X7200000Y-19885000D02*
X8700000Y-19885000D01*
X7200000Y-29885000D02*
X7200000Y-30085000D01*
X7200000Y-30085000D02*
X2800000Y-30085000D01*
X8700000Y-19885000D02*
X8700000Y-29885000D01*
X8700000Y-29885000D02*
X7200000Y-29885000D01*
%TO.C,C_IN1*%
X6500000Y-30325000D02*
X8460000Y-30325000D01*
X8460000Y-34085000D01*
X6500000Y-34085000D01*
X6500000Y-30325000D01*
%TO.C,C_BA3V3*%
X95520000Y-55120000D02*
X97480000Y-55120000D01*
X97480000Y-58880000D01*
X95520000Y-58880000D01*
X95520000Y-55120000D01*
%TO.C,R_HI2*%
X94150000Y-71050000D02*
X97850000Y-71050000D01*
X97850000Y-72950000D01*
X94150000Y-72950000D01*
X94150000Y-71050000D01*
%TO.C,R_SP12*%
X68150000Y-72550000D02*
X71850000Y-72550000D01*
X71850000Y-74450000D01*
X68150000Y-74450000D01*
X68150000Y-72550000D01*
%TO.C,TP_ADC11*%
X87250000Y-3000000D02*
G75*
G02*
X84750000Y-3000000I-1250000J0D01*
G01*
X84750000Y-3000000D02*
G75*
G02*
X87250000Y-3000000I1250000J0D01*
G01*
%TO.C,C_M16*%
X91670000Y-50120000D02*
X93630000Y-50120000D01*
X93630000Y-53880000D01*
X91670000Y-53880000D01*
X91670000Y-50120000D01*
%TO.C,RV5*%
X17090000Y-63850000D02*
X17090000Y-77600000D01*
X17090000Y-77600000D02*
X29910000Y-77600000D01*
X29910000Y-63850000D02*
X17090000Y-63850000D01*
X29910000Y-77600000D02*
X29910000Y-63850000D01*
%TO.C,R_BTN*%
X96050000Y-8150000D02*
X97950000Y-8150000D01*
X97950000Y-11850000D01*
X96050000Y-11850000D01*
X96050000Y-8150000D01*
%TO.C,R_HI4*%
X95550000Y-60150000D02*
X97450000Y-60150000D01*
X97450000Y-63850000D01*
X95550000Y-63850000D01*
X95550000Y-60150000D01*
%TO.C,JP_GND*%
X73210000Y-49750000D02*
X73210000Y-46450000D01*
X73210000Y-49750000D02*
X75710000Y-49750000D01*
X75710000Y-46450000D02*
X73210000Y-46450000D01*
X75710000Y-46450000D02*
X75710000Y-49750000D01*
%TO.C,D5*%
X10050000Y-18150000D02*
X11950000Y-18150000D01*
X11950000Y-21850000D01*
X10050000Y-21850000D01*
X10050000Y-18150000D01*
%TO.C,U_IN1*%
X1300000Y-34525000D02*
X2800000Y-34525000D01*
X1300000Y-44525000D02*
X1300000Y-34525000D01*
X2800000Y-34325000D02*
X7200000Y-34325000D01*
X2800000Y-34525000D02*
X2800000Y-34325000D01*
X2800000Y-44525000D02*
X1300000Y-44525000D01*
X2800000Y-44725000D02*
X2800000Y-44525000D01*
X7200000Y-34325000D02*
X7200000Y-34525000D01*
X7200000Y-34525000D02*
X8700000Y-34525000D01*
X7200000Y-44525000D02*
X7200000Y-44725000D01*
X7200000Y-44725000D02*
X2800000Y-44725000D01*
X8700000Y-34525000D02*
X8700000Y-44525000D01*
X8700000Y-44525000D02*
X7200000Y-44525000D01*
%TO.C,TP_GND*%
X95250000Y-3000000D02*
G75*
G02*
X92750000Y-3000000I-1250000J0D01*
G01*
X92750000Y-3000000D02*
G75*
G02*
X95250000Y-3000000I1250000J0D01*
G01*
%TO.C,RV7*%
X44090000Y-63850000D02*
X44090000Y-77600000D01*
X44090000Y-77600000D02*
X56910000Y-77600000D01*
X56910000Y-63850000D02*
X44090000Y-63850000D01*
X56910000Y-77600000D02*
X56910000Y-63850000D01*
%TO.C,C_COM8*%
X73040000Y-49920000D02*
X75000000Y-49920000D01*
X75000000Y-53680000D01*
X73040000Y-53680000D01*
X73040000Y-49920000D01*
%TO.C,R_LED4*%
X13050000Y-14150000D02*
X14950000Y-14150000D01*
X14950000Y-17850000D01*
X13050000Y-17850000D01*
X13050000Y-14150000D01*
%TO.C,R_LED1*%
X13050000Y-2150000D02*
X14950000Y-2150000D01*
X14950000Y-5850000D01*
X13050000Y-5850000D01*
X13050000Y-2150000D01*
%TO.C,D6*%
X10050000Y-22150000D02*
X11950000Y-22150000D01*
X11950000Y-25850000D01*
X10050000Y-25850000D01*
X10050000Y-22150000D01*
%TO.C,R_HI3*%
X89150000Y-75050000D02*
X92850000Y-75050000D01*
X92850000Y-76950000D01*
X89150000Y-76950000D01*
X89150000Y-75050000D01*
%TO.C,TP_ADC12*%
X91250000Y-3000000D02*
G75*
G02*
X88750000Y-3000000I-1250000J0D01*
G01*
X88750000Y-3000000D02*
G75*
G02*
X91250000Y-3000000I1250000J0D01*
G01*
%TO.C,D3*%
X10050000Y-10150000D02*
X11950000Y-10150000D01*
X11950000Y-13850000D01*
X10050000Y-13850000D01*
X10050000Y-10150000D01*
%TO.C,R_REFB2*%
X58150000Y-68550000D02*
X61850000Y-68550000D01*
X61850000Y-70450000D01*
X58150000Y-70450000D01*
X58150000Y-68550000D01*
%TO.C,RV4*%
X57590000Y-49350000D02*
X57590000Y-63100000D01*
X57590000Y-63100000D02*
X70410000Y-63100000D01*
X70410000Y-49350000D02*
X57590000Y-49350000D01*
X70410000Y-63100000D02*
X70410000Y-49350000D01*
%TO.C,R_LO4*%
X95550000Y-64150000D02*
X97450000Y-64150000D01*
X97450000Y-67850000D01*
X95550000Y-67850000D01*
X95550000Y-64150000D01*
%TO.C,U_SR1*%
X1300000Y-5245000D02*
X2800000Y-5245000D01*
X1300000Y-15245000D02*
X1300000Y-5245000D01*
X2800000Y-5045000D02*
X7200000Y-5045000D01*
X2800000Y-5245000D02*
X2800000Y-5045000D01*
X2800000Y-15245000D02*
X1300000Y-15245000D01*
X2800000Y-15445000D02*
X2800000Y-15245000D01*
X7200000Y-5045000D02*
X7200000Y-5245000D01*
X7200000Y-5245000D02*
X8700000Y-5245000D01*
X7200000Y-15245000D02*
X7200000Y-15445000D01*
X7200000Y-15445000D02*
X2800000Y-15445000D01*
X8700000Y-5245000D02*
X8700000Y-15245000D01*
X8700000Y-15245000D02*
X7200000Y-15245000D01*
%TO.C,R_HI1*%
X84150000Y-71050000D02*
X87850000Y-71050000D01*
X87850000Y-72950000D01*
X84150000Y-72950000D01*
X84150000Y-71050000D01*
%TO.C,TP_CLK*%
X98250000Y-4000000D02*
G75*
G02*
X95750000Y-4000000I-1250000J0D01*
G01*
X95750000Y-4000000D02*
G75*
G02*
X98250000Y-4000000I1250000J0D01*
G01*
%TO.C,RV6*%
X30590000Y-63850000D02*
X30590000Y-77600000D01*
X30590000Y-77600000D02*
X43410000Y-77600000D01*
X43410000Y-63850000D02*
X30590000Y-63850000D01*
X43410000Y-77600000D02*
X43410000Y-63850000D01*
%TO.C,R_SP11*%
X63150000Y-72550000D02*
X66850000Y-72550000D01*
X66850000Y-74450000D01*
X63150000Y-74450000D01*
X63150000Y-72550000D01*
%TO.C,R_LED5*%
X13050000Y-18150000D02*
X14950000Y-18150000D01*
X14950000Y-21850000D01*
X13050000Y-21850000D01*
X13050000Y-18150000D01*
%TD*%
M02*
