%TF.GenerationSoftware,KiCad,Pcbnew,10.0.5*%
%TF.CreationDate,2026-09-02T19:16:21+02:00*%
%TF.ProjectId,coupon,636f7570-6f6e-42e6-9b69-6361645f7063,rev?*%
%TF.SameCoordinates,Original*%
%TF.FileFunction,Paste,Top*%
%TF.FilePolarity,Positive*%
%FSLAX46Y46*%
G04 Gerber Fmt 4.6, Leading zero omitted, Abs format (unit mm)*
G04 Created by KiCad (PCBNEW 10.0.5) date 2026-09-02 19:16:21*
%MOMM*%
%LPD*%
G01*
G04 APERTURE LIST*
G04 Aperture macros list*
%AMRoundRect*
0 Rectangle with rounded corners*
0 $1 Rounding radius*
0 $2 $3 $4 $5 $6 $7 $8 $9 X,Y pos of 4 corners*
0 Add a 4 corners polygon primitive as box body*
4,1,4,$2,$3,$4,$5,$6,$7,$8,$9,$2,$3,0*
0 Add four circle primitives for the rounded corners*
1,1,$1+$1,$2,$3*
1,1,$1+$1,$4,$5*
1,1,$1+$1,$6,$7*
1,1,$1+$1,$8,$9*
0 Add four rect primitives between the rounded corners*
20,1,$1+$1,$2,$3,$4,$5,0*
20,1,$1+$1,$4,$5,$6,$7,0*
20,1,$1+$1,$6,$7,$8,$9,0*
20,1,$1+$1,$8,$9,$2,$3,0*%
G04 Aperture macros list end*
%ADD10RoundRect,0.250000X-0.350000X-0.450000X0.350000X-0.450000X0.350000X0.450000X-0.350000X0.450000X0*%
%ADD11RoundRect,0.250000X0.450000X-0.350000X0.450000X0.350000X-0.450000X0.350000X-0.450000X-0.350000X0*%
%ADD12RoundRect,0.250000X0.475000X-0.337500X0.475000X0.337500X-0.475000X0.337500X-0.475000X-0.337500X0*%
%ADD13RoundRect,0.250000X0.450000X-0.325000X0.450000X0.325000X-0.450000X0.325000X-0.450000X-0.325000X0*%
%ADD14RoundRect,0.150000X-0.875000X-0.150000X0.875000X-0.150000X0.875000X0.150000X-0.875000X0.150000X0*%
%ADD15RoundRect,0.250000X0.337500X0.475000X-0.337500X0.475000X-0.337500X-0.475000X0.337500X-0.475000X0*%
%ADD16RoundRect,0.150000X-0.825000X-0.150000X0.825000X-0.150000X0.825000X0.150000X-0.825000X0.150000X0*%
G04 APERTURE END LIST*
D10*
%TO.C,R_LO2*%
X85000000Y-76000000D03*
X87000000Y-76000000D03*
%TD*%
D11*
%TO.C,R_S16*%
X79540000Y-50000000D03*
X79540000Y-48000000D03*
%TD*%
D12*
%TO.C,C_BP12*%
X96500000Y-37037500D03*
X96500000Y-34962500D03*
%TD*%
D10*
%TO.C,R_SP13*%
X59000000Y-77500000D03*
X61000000Y-77500000D03*
%TD*%
%TO.C,R_SP10*%
X59000000Y-73500000D03*
X61000000Y-73500000D03*
%TD*%
%TO.C,R_SP15*%
X69000000Y-77500000D03*
X71000000Y-77500000D03*
%TD*%
D13*
%TO.C,D2*%
X11000000Y-9025000D03*
X11000000Y-6975000D03*
%TD*%
D11*
%TO.C,R_LO3*%
X78400000Y-70600000D03*
X78400000Y-68600000D03*
%TD*%
%TO.C,R_LED2*%
X14000000Y-9000000D03*
X14000000Y-7000000D03*
%TD*%
D14*
%TO.C,U_MUX16*%
X83350000Y-55015000D03*
X83350000Y-56285000D03*
X83350000Y-57555000D03*
X83350000Y-58825000D03*
X83350000Y-60095000D03*
X83350000Y-61365000D03*
X83350000Y-62635000D03*
X83350000Y-63905000D03*
X83350000Y-65175000D03*
X83350000Y-66445000D03*
X83350000Y-67715000D03*
X83350000Y-68985000D03*
X92650000Y-68985000D03*
X92650000Y-67715000D03*
X92650000Y-66445000D03*
X92650000Y-65175000D03*
X92650000Y-63905000D03*
X92650000Y-62635000D03*
X92650000Y-61365000D03*
X92650000Y-60095000D03*
X92650000Y-58825000D03*
X92650000Y-57555000D03*
X92650000Y-56285000D03*
X92650000Y-55015000D03*
%TD*%
D10*
%TO.C,R_REFC1*%
X64000000Y-69500000D03*
X66000000Y-69500000D03*
%TD*%
D13*
%TO.C,D8*%
X11000000Y-33025000D03*
X11000000Y-30975000D03*
%TD*%
D10*
%TO.C,R_REFA1*%
X59000000Y-65500000D03*
X61000000Y-65500000D03*
%TD*%
D12*
%TO.C,C_BN12*%
X96500000Y-25037500D03*
X96500000Y-22962500D03*
%TD*%
D11*
%TO.C,R_LED6*%
X14000000Y-25000000D03*
X14000000Y-23000000D03*
%TD*%
D10*
%TO.C,R_REFC2*%
X69000000Y-69500000D03*
X71000000Y-69500000D03*
%TD*%
D12*
%TO.C,C_M8*%
X78980000Y-55767500D03*
X78980000Y-53692500D03*
%TD*%
D10*
%TO.C,R_REFB1*%
X69000000Y-65500000D03*
X71000000Y-65500000D03*
%TD*%
D11*
%TO.C,R_S8*%
X77000000Y-50000000D03*
X77000000Y-48000000D03*
%TD*%
D15*
%TO.C,C_COM16*%
X83537500Y-52000000D03*
X81462500Y-52000000D03*
%TD*%
D10*
%TO.C,R_REFA2*%
X64000000Y-65500000D03*
X66000000Y-65500000D03*
%TD*%
D12*
%TO.C,C_B3V3*%
X96500000Y-29037500D03*
X96500000Y-26962500D03*
%TD*%
D13*
%TO.C,D4*%
X11000000Y-17025000D03*
X11000000Y-14975000D03*
%TD*%
D11*
%TO.C,R_LED8*%
X14000000Y-33000000D03*
X14000000Y-31000000D03*
%TD*%
D16*
%TO.C,U_MUX8*%
X74025000Y-57555000D03*
X74025000Y-58825000D03*
X74025000Y-60095000D03*
X74025000Y-61365000D03*
X74025000Y-62635000D03*
X74025000Y-63905000D03*
X74025000Y-65175000D03*
X74025000Y-66445000D03*
X78975000Y-66445000D03*
X78975000Y-65175000D03*
X78975000Y-63905000D03*
X78975000Y-62635000D03*
X78975000Y-61365000D03*
X78975000Y-60095000D03*
X78975000Y-58825000D03*
X78975000Y-57555000D03*
%TD*%
D10*
%TO.C,R_SP14*%
X64000000Y-77500000D03*
X66000000Y-77500000D03*
%TD*%
%TO.C,R_LO1*%
X90000000Y-72000000D03*
X92000000Y-72000000D03*
%TD*%
D11*
%TO.C,R_LED3*%
X14000000Y-13000000D03*
X14000000Y-11000000D03*
%TD*%
D12*
%TO.C,C_SR2*%
X7480000Y-18602500D03*
X7480000Y-16527500D03*
%TD*%
D13*
%TO.C,D1*%
X11000000Y-5025000D03*
X11000000Y-2975000D03*
%TD*%
D12*
%TO.C,C_SR1*%
X7480000Y-3962500D03*
X7480000Y-1887500D03*
%TD*%
D13*
%TO.C,D7*%
X11000000Y-29025000D03*
X11000000Y-26975000D03*
%TD*%
D11*
%TO.C,R_LED7*%
X14000000Y-29000000D03*
X14000000Y-27000000D03*
%TD*%
D16*
%TO.C,U_SR2*%
X2525000Y-20440000D03*
X2525000Y-21710000D03*
X2525000Y-22980000D03*
X2525000Y-24250000D03*
X2525000Y-25520000D03*
X2525000Y-26790000D03*
X2525000Y-28060000D03*
X2525000Y-29330000D03*
X7475000Y-29330000D03*
X7475000Y-28060000D03*
X7475000Y-26790000D03*
X7475000Y-25520000D03*
X7475000Y-24250000D03*
X7475000Y-22980000D03*
X7475000Y-21710000D03*
X7475000Y-20440000D03*
%TD*%
D12*
%TO.C,C_IN1*%
X7480000Y-33242500D03*
X7480000Y-31167500D03*
%TD*%
%TO.C,C_BA3V3*%
X96500000Y-58037500D03*
X96500000Y-55962500D03*
%TD*%
D10*
%TO.C,R_HI2*%
X95000000Y-72000000D03*
X97000000Y-72000000D03*
%TD*%
%TO.C,R_SP12*%
X69000000Y-73500000D03*
X71000000Y-73500000D03*
%TD*%
D12*
%TO.C,C_M16*%
X92650000Y-53037500D03*
X92650000Y-50962500D03*
%TD*%
D11*
%TO.C,R_BTN*%
X97000000Y-11000000D03*
X97000000Y-9000000D03*
%TD*%
%TO.C,R_HI4*%
X96500000Y-63000000D03*
X96500000Y-61000000D03*
%TD*%
D13*
%TO.C,D5*%
X11000000Y-21025000D03*
X11000000Y-18975000D03*
%TD*%
D16*
%TO.C,U_IN1*%
X2525000Y-35080000D03*
X2525000Y-36350000D03*
X2525000Y-37620000D03*
X2525000Y-38890000D03*
X2525000Y-40160000D03*
X2525000Y-41430000D03*
X2525000Y-42700000D03*
X2525000Y-43970000D03*
X7475000Y-43970000D03*
X7475000Y-42700000D03*
X7475000Y-41430000D03*
X7475000Y-40160000D03*
X7475000Y-38890000D03*
X7475000Y-37620000D03*
X7475000Y-36350000D03*
X7475000Y-35080000D03*
%TD*%
D12*
%TO.C,C_COM8*%
X74020000Y-52837500D03*
X74020000Y-50762500D03*
%TD*%
D11*
%TO.C,R_LED4*%
X14000000Y-17000000D03*
X14000000Y-15000000D03*
%TD*%
%TO.C,R_LED1*%
X14000000Y-5000000D03*
X14000000Y-3000000D03*
%TD*%
D13*
%TO.C,D6*%
X11000000Y-25025000D03*
X11000000Y-22975000D03*
%TD*%
D10*
%TO.C,R_HI3*%
X90000000Y-76000000D03*
X92000000Y-76000000D03*
%TD*%
D13*
%TO.C,D3*%
X11000000Y-13025000D03*
X11000000Y-10975000D03*
%TD*%
D10*
%TO.C,R_REFB2*%
X59000000Y-69500000D03*
X61000000Y-69500000D03*
%TD*%
D11*
%TO.C,R_LO4*%
X96500000Y-67000000D03*
X96500000Y-65000000D03*
%TD*%
D16*
%TO.C,U_SR1*%
X2525000Y-5800000D03*
X2525000Y-7070000D03*
X2525000Y-8340000D03*
X2525000Y-9610000D03*
X2525000Y-10880000D03*
X2525000Y-12150000D03*
X2525000Y-13420000D03*
X2525000Y-14690000D03*
X7475000Y-14690000D03*
X7475000Y-13420000D03*
X7475000Y-12150000D03*
X7475000Y-10880000D03*
X7475000Y-9610000D03*
X7475000Y-8340000D03*
X7475000Y-7070000D03*
X7475000Y-5800000D03*
%TD*%
D10*
%TO.C,R_HI1*%
X85000000Y-72000000D03*
X87000000Y-72000000D03*
%TD*%
%TO.C,R_SP11*%
X64000000Y-73500000D03*
X66000000Y-73500000D03*
%TD*%
D11*
%TO.C,R_LED5*%
X14000000Y-21000000D03*
X14000000Y-19000000D03*
%TD*%
M02*
