%TF.GenerationSoftware,KiCad,Pcbnew,10.0.5*%
%TF.CreationDate,2026-09-02T19:16:21+02:00*%
%TF.ProjectId,coupon,636f7570-6f6e-42e6-9b69-6361645f7063,rev?*%
%TF.SameCoordinates,Original*%
%TF.FileFunction,Copper,L1,Top*%
%TF.FilePolarity,Positive*%
%FSLAX46Y46*%
G04 Gerber Fmt 4.6, Leading zero omitted, Abs format (unit mm)*
G04 Created by KiCad (PCBNEW 10.0.5) date 2026-09-02 19:16:21*
%MOMM*%
%LPD*%
G01*
G04 APERTURE LIST*
G04 Aperture macros list*
%AMRoundRect*
0 Rectangle with rounded corners*
0 $1 Rounding radius*
0 $2 $3 $4 $5 $6 $7 $8 $9 X,Y pos of 4 corners*
0 Add a 4 corners polygon primitive as box body*
4,1,4,$2,$3,$4,$5,$6,$7,$8,$9,$2,$3,0*
0 Add four circle primitives for the rounded corners*
1,1,$1+$1,$2,$3*
1,1,$1+$1,$4,$5*
1,1,$1+$1,$6,$7*
1,1,$1+$1,$8,$9*
0 Add four rect primitives between the rounded corners*
20,1,$1+$1,$2,$3,$4,$5,0*
20,1,$1+$1,$4,$5,$6,$7,0*
20,1,$1+$1,$6,$7,$8,$9,0*
20,1,$1+$1,$8,$9,$2,$3,0*%
%AMOutline5P*
0 Free polygon, 5 corners , with rotation*
0 The origin of the aperture is its center*
0 number of corners: always 5*
0 $1 to $10 corner X, Y*
0 $11 Rotation angle, in degrees counterclockwise*
0 create outline with 5 corners*
4,1,5,$1,$2,$3,$4,$5,$6,$7,$8,$9,$10,$1,$2,$11*%
%AMOutline6P*
0 Free polygon, 6 corners , with rotation*
0 The origin of the aperture is its center*
0 number of corners: always 6*
0 $1 to $12 corner X, Y*
0 $13 Rotation angle, in degrees counterclockwise*
0 create outline with 6 corners*
4,1,6,$1,$2,$3,$4,$5,$6,$7,$8,$9,$10,$11,$12,$1,$2,$13*%
%AMOutline7P*
0 Free polygon, 7 corners , with rotation*
0 The origin of the aperture is its center*
0 number of corners: always 7*
0 $1 to $14 corner X, Y*
0 $15 Rotation angle, in degrees counterclockwise*
0 create outline with 7 corners*
4,1,7,$1,$2,$3,$4,$5,$6,$7,$8,$9,$10,$11,$12,$13,$14,$1,$2,$15*%
%AMOutline8P*
0 Free polygon, 8 corners , with rotation*
0 The origin of the aperture is its center*
0 number of corners: always 8*
0 $1 to $16 corner X, Y*
0 $17 Rotation angle, in degrees counterclockwise*
0 create outline with 8 corners*
4,1,8,$1,$2,$3,$4,$5,$6,$7,$8,$9,$10,$11,$12,$13,$14,$15,$16,$1,$2,$17*%
G04 Aperture macros list end*
%TA.AperFunction,SMDPad,CuDef*%
%ADD10C,1.500000*%
%TD*%
%TA.AperFunction,SMDPad,CuDef*%
%ADD11RoundRect,0.250000X-0.350000X-0.450000X0.350000X-0.450000X0.350000X0.450000X-0.350000X0.450000X0*%
%TD*%
%TA.AperFunction,SMDPad,CuDef*%
%ADD12RoundRect,0.250000X0.450000X-0.350000X0.450000X0.350000X-0.450000X0.350000X-0.450000X-0.350000X0*%
%TD*%
%TA.AperFunction,ComponentPad*%
%ADD13RoundRect,0.250000X-0.600000X-0.600000X0.600000X-0.600000X0.600000X0.600000X-0.600000X0.600000X0*%
%TD*%
%TA.AperFunction,ComponentPad*%
%ADD14C,1.700000*%
%TD*%
%TA.AperFunction,SMDPad,CuDef*%
%ADD15RoundRect,0.250000X0.475000X-0.337500X0.475000X0.337500X-0.475000X0.337500X-0.475000X-0.337500X0*%
%TD*%
%TA.AperFunction,SMDPad,CuDef*%
%ADD16R,1.500000X1.000000*%
%TD*%
%TA.AperFunction,SMDPad,CuDef*%
%ADD17RoundRect,0.250000X0.450000X-0.325000X0.450000X0.325000X-0.450000X0.325000X-0.450000X-0.325000X0*%
%TD*%
%TA.AperFunction,SMDPad,CuDef*%
%ADD18RoundRect,0.150000X-0.875000X-0.150000X0.875000X-0.150000X0.875000X0.150000X-0.875000X0.150000X0*%
%TD*%
%TA.AperFunction,ComponentPad*%
%ADD19C,2.000000*%
%TD*%
%TA.AperFunction,ComponentPad*%
%ADD20O,2.720000X3.240000*%
%TD*%
%TA.AperFunction,ComponentPad*%
%ADD21R,1.800000X1.800000*%
%TD*%
%TA.AperFunction,ComponentPad*%
%ADD22C,1.800000*%
%TD*%
%TA.AperFunction,SMDPad,CuDef*%
%ADD23RoundRect,0.250000X0.337500X0.475000X-0.337500X0.475000X-0.337500X-0.475000X0.337500X-0.475000X0*%
%TD*%
%TA.AperFunction,ComponentPad*%
%ADD24O,3.000000X1.500000*%
%TD*%
%TA.AperFunction,ComponentPad*%
%ADD25O,2.500000X3.500000*%
%TD*%
%TA.AperFunction,ComponentPad*%
%ADD26O,3.500000X2.500000*%
%TD*%
%TA.AperFunction,SMDPad,CuDef*%
%ADD27RoundRect,0.150000X-0.825000X-0.150000X0.825000X-0.150000X0.825000X0.150000X-0.825000X0.150000X0*%
%TD*%
%TA.AperFunction,ComponentPad*%
%ADD28Outline8P,-0.939800X0.389278X-0.389278X0.939800X0.389278X0.939800X0.939800X0.389278X0.939800X-0.389278X0.389278X-0.939800X-0.389278X-0.939800X-0.939800X-0.389278X90.000000*%
%TD*%
%TA.AperFunction,ComponentPad*%
%ADD29Outline8P,-0.939800X0.389278X-0.389278X0.939800X0.389278X0.939800X0.939800X0.389278X0.939800X-0.389278X0.389278X-0.939800X-0.389278X-0.939800X-0.939800X-0.389278X0.000000*%
%TD*%
%TA.AperFunction,ViaPad*%
%ADD30C,0.600000*%
%TD*%
%TA.AperFunction,Conductor*%
%ADD31C,0.800000*%
%TD*%
%TA.AperFunction,Conductor*%
%ADD32C,0.250000*%
%TD*%
%TA.AperFunction,Conductor*%
%ADD33C,0.500000*%
%TD*%
G04 APERTURE END LIST*
D10*
%TO.P,TP_COM16,1*%
%TO.N,MUX16_COM*%
X86500000Y-52000000D03*
%TD*%
D11*
%TO.P,R_LO2,1*%
%TO.N,AGND*%
X85000000Y-76000000D03*
%TO.P,R_LO2,2*%
%TO.N,MUX16_CH7*%
X87000000Y-76000000D03*
%TD*%
D12*
%TO.P,R_S16,1*%
%TO.N,MUX16_COM*%
X79540000Y-50000000D03*
%TO.P,R_S16,2*%
%TO.N,SENSE_ADC9_MUX16*%
X79540000Y-48000000D03*
%TD*%
D13*
%TO.P,J_PWR,1*%
%TO.N,-12V*%
X88000000Y-22000000D03*
D14*
%TO.P,J_PWR,2*%
X90540000Y-22000000D03*
%TO.P,J_PWR,3*%
%TO.N,GND*%
X88000000Y-24540000D03*
%TO.P,J_PWR,4*%
X90540000Y-24540000D03*
%TO.P,J_PWR,5*%
X88000000Y-27080000D03*
%TO.P,J_PWR,6*%
X90540000Y-27080000D03*
%TO.P,J_PWR,7*%
%TO.N,N/C*%
X88000000Y-29620000D03*
%TO.P,J_PWR,8*%
X90540000Y-29620000D03*
%TO.P,J_PWR,9*%
%TO.N,+12V*%
X88000000Y-32160000D03*
%TO.P,J_PWR,10*%
X90540000Y-32160000D03*
%TD*%
D15*
%TO.P,C_BP12,1*%
%TO.N,+12V*%
X96500000Y-37037500D03*
%TO.P,C_BP12,2*%
%TO.N,GND*%
X96500000Y-34962500D03*
%TD*%
D11*
%TO.P,R_SP13,1*%
%TO.N,AGND*%
X59000000Y-77500000D03*
%TO.P,R_SP13,2*%
%TO.N,MUX16_CH13*%
X61000000Y-77500000D03*
%TD*%
%TO.P,R_SP10,1*%
%TO.N,AGND*%
X59000000Y-73500000D03*
%TO.P,R_SP10,2*%
%TO.N,MUX16_CH10*%
X61000000Y-73500000D03*
%TD*%
%TO.P,R_SP15,1*%
%TO.N,AGND*%
X69000000Y-77500000D03*
%TO.P,R_SP15,2*%
%TO.N,MUX16_CH15*%
X71000000Y-77500000D03*
%TD*%
D16*
%TO.P,JP_3V3,1*%
%TO.N,+3V3*%
X82080000Y-47450000D03*
%TO.P,JP_3V3,2*%
%TO.N,A+3V3*%
X82080000Y-48750000D03*
%TD*%
D17*
%TO.P,D2,1*%
%TO.N,LED_2_K*%
X11000000Y-9025000D03*
%TO.P,D2,2*%
%TO.N,LED_2*%
X11000000Y-6975000D03*
%TD*%
D12*
%TO.P,R_LO3,1*%
%TO.N,AGND*%
X78400000Y-70600000D03*
%TO.P,R_LO3,2*%
%TO.N,MUX8_CH3*%
X78400000Y-68600000D03*
%TD*%
%TO.P,R_LED2,1*%
%TO.N,LED_2_K*%
X14000000Y-9000000D03*
%TO.P,R_LED2,2*%
%TO.N,GND*%
X14000000Y-7000000D03*
%TD*%
D18*
%TO.P,U_MUX16,1*%
%TO.N,MUX16_COM*%
X83350000Y-55015000D03*
%TO.P,U_MUX16,2*%
%TO.N,MUX16_CH7*%
X83350000Y-56285000D03*
%TO.P,U_MUX16,3*%
%TO.N,MUX16_CH6*%
X83350000Y-57555000D03*
%TO.P,U_MUX16,4*%
%TO.N,MUX16_CH5*%
X83350000Y-58825000D03*
%TO.P,U_MUX16,5*%
%TO.N,MUX16_CH4*%
X83350000Y-60095000D03*
%TO.P,U_MUX16,6*%
%TO.N,MUX16_CH3*%
X83350000Y-61365000D03*
%TO.P,U_MUX16,7*%
%TO.N,MUX16_CH2*%
X83350000Y-62635000D03*
%TO.P,U_MUX16,8*%
%TO.N,MUX16_CH1*%
X83350000Y-63905000D03*
%TO.P,U_MUX16,9*%
%TO.N,MUX16_CH0*%
X83350000Y-65175000D03*
%TO.P,U_MUX16,10*%
%TO.N,MUX_A0*%
X83350000Y-66445000D03*
%TO.P,U_MUX16,11*%
%TO.N,MUX_A1*%
X83350000Y-67715000D03*
%TO.P,U_MUX16,12*%
%TO.N,AGND*%
X83350000Y-68985000D03*
%TO.P,U_MUX16,13*%
%TO.N,MUX_A3*%
X92650000Y-68985000D03*
%TO.P,U_MUX16,14*%
%TO.N,MUX_A2*%
X92650000Y-67715000D03*
%TO.P,U_MUX16,15*%
%TO.N,MUX16_EN_N*%
X92650000Y-66445000D03*
%TO.P,U_MUX16,16*%
%TO.N,MUX16_CH15*%
X92650000Y-65175000D03*
%TO.P,U_MUX16,17*%
%TO.N,MUX16_CH14*%
X92650000Y-63905000D03*
%TO.P,U_MUX16,18*%
%TO.N,MUX16_CH13*%
X92650000Y-62635000D03*
%TO.P,U_MUX16,19*%
%TO.N,MUX16_CH12*%
X92650000Y-61365000D03*
%TO.P,U_MUX16,20*%
%TO.N,MUX16_CH11*%
X92650000Y-60095000D03*
%TO.P,U_MUX16,21*%
%TO.N,MUX16_CH10*%
X92650000Y-58825000D03*
%TO.P,U_MUX16,22*%
%TO.N,MUX16_CH9*%
X92650000Y-57555000D03*
%TO.P,U_MUX16,23*%
%TO.N,MUX16_CH8*%
X92650000Y-56285000D03*
%TO.P,U_MUX16,24*%
%TO.N,A+3V3*%
X92650000Y-55015000D03*
%TD*%
D11*
%TO.P,R_REFC1,1*%
%TO.N,A+3V3*%
X64000000Y-69500000D03*
%TO.P,R_REFC1,2*%
%TO.N,MUX8_CH6*%
X66000000Y-69500000D03*
%TD*%
D17*
%TO.P,D8,1*%
%TO.N,LED_8_K*%
X11000000Y-33025000D03*
%TO.P,D8,2*%
%TO.N,LED_8*%
X11000000Y-30975000D03*
%TD*%
D11*
%TO.P,R_REFA1,1*%
%TO.N,A+3V3*%
X59000000Y-65500000D03*
%TO.P,R_REFA1,2*%
%TO.N,MUX16_CH8*%
X61000000Y-65500000D03*
%TD*%
D19*
%TO.P,SW1,1*%
%TO.N,BTN_1*%
X86000000Y-8000000D03*
X92500000Y-8000000D03*
%TO.P,SW1,2*%
%TO.N,GND*%
X86000000Y-12500000D03*
X92500000Y-12500000D03*
%TD*%
D20*
%TO.P,RV2,*%
%TO.N,*%
X41800000Y-58000000D03*
X32200000Y-58000000D03*
D21*
%TO.P,RV2,1*%
%TO.N,AGND*%
X39500000Y-50500000D03*
D22*
%TO.P,RV2,2*%
%TO.N,MUX16_CH2*%
X37000000Y-50500000D03*
%TO.P,RV2,3*%
%TO.N,A+3V3*%
X34500000Y-50500000D03*
%TD*%
D15*
%TO.P,C_BN12,1*%
%TO.N,-12V*%
X96500000Y-25037500D03*
%TO.P,C_BN12,2*%
%TO.N,GND*%
X96500000Y-22962500D03*
%TD*%
D10*
%TO.P,TP_AGND,1*%
%TO.N,AGND*%
X10000000Y-66000000D03*
%TD*%
D12*
%TO.P,R_LED6,1*%
%TO.N,LED_6_K*%
X14000000Y-25000000D03*
%TO.P,R_LED6,2*%
%TO.N,GND*%
X14000000Y-23000000D03*
%TD*%
D11*
%TO.P,R_REFC2,1*%
%TO.N,MUX8_CH6*%
X69000000Y-69500000D03*
%TO.P,R_REFC2,2*%
%TO.N,AGND*%
X71000000Y-69500000D03*
%TD*%
D15*
%TO.P,C_M8,1*%
%TO.N,A+3V3*%
X78980000Y-55767500D03*
%TO.P,C_M8,2*%
%TO.N,AGND*%
X78980000Y-53692500D03*
%TD*%
D11*
%TO.P,R_REFB1,1*%
%TO.N,A+3V3*%
X69000000Y-65500000D03*
%TO.P,R_REFB1,2*%
%TO.N,MUX16_CH9*%
X71000000Y-65500000D03*
%TD*%
D10*
%TO.P,TP_AUDIO_L,1*%
%TO.N,AUDIO_OUT_L*%
X6000000Y-66000000D03*
%TD*%
D12*
%TO.P,R_S8,1*%
%TO.N,MUX8_COM*%
X77000000Y-50000000D03*
%TO.P,R_S8,2*%
%TO.N,SENSE_ADC10_MUX8*%
X77000000Y-48000000D03*
%TD*%
D23*
%TO.P,C_COM16,1*%
%TO.N,MUX16_COM*%
X83537500Y-52000000D03*
%TO.P,C_COM16,2*%
%TO.N,AGND*%
X81462500Y-52000000D03*
%TD*%
D20*
%TO.P,RV3,*%
%TO.N,*%
X55300000Y-58000000D03*
X45700000Y-58000000D03*
D21*
%TO.P,RV3,1*%
%TO.N,AGND*%
X53000000Y-50500000D03*
D22*
%TO.P,RV3,2*%
%TO.N,MUX16_CH4*%
X50500000Y-50500000D03*
%TO.P,RV3,3*%
%TO.N,A+3V3*%
X48000000Y-50500000D03*
%TD*%
D11*
%TO.P,R_REFA2,1*%
%TO.N,MUX16_CH8*%
X64000000Y-65500000D03*
%TO.P,R_REFA2,2*%
%TO.N,AGND*%
X66000000Y-65500000D03*
%TD*%
D15*
%TO.P,C_B3V3,1*%
%TO.N,+3V3*%
X96500000Y-29037500D03*
%TO.P,C_B3V3,2*%
%TO.N,GND*%
X96500000Y-26962500D03*
%TD*%
D24*
%TO.P,J_AUDIO,R*%
%TO.N,AUDIO_OUT_R*%
X10900000Y-51000000D03*
D25*
%TO.P,J_AUDIO,S*%
%TO.N,AGND*%
X2600000Y-56000000D03*
D26*
%TO.P,J_AUDIO,T*%
%TO.N,AUDIO_OUT_L*%
X6100000Y-60500000D03*
%TD*%
D17*
%TO.P,D4,1*%
%TO.N,LED_4_K*%
X11000000Y-17025000D03*
%TO.P,D4,2*%
%TO.N,LED_4*%
X11000000Y-14975000D03*
%TD*%
D12*
%TO.P,R_LED8,1*%
%TO.N,LED_8_K*%
X14000000Y-33000000D03*
%TO.P,R_LED8,2*%
%TO.N,GND*%
X14000000Y-31000000D03*
%TD*%
D10*
%TO.P,TP_3V3,1*%
%TO.N,+3V3*%
X96500000Y-32000000D03*
%TD*%
D27*
%TO.P,U_MUX8,1*%
%TO.N,MUX8_CH4*%
X74025000Y-57555000D03*
%TO.P,U_MUX8,2*%
%TO.N,MUX8_CH6*%
X74025000Y-58825000D03*
%TO.P,U_MUX8,3*%
%TO.N,MUX8_COM*%
X74025000Y-60095000D03*
%TO.P,U_MUX8,4*%
%TO.N,MUX8_CH7*%
X74025000Y-61365000D03*
%TO.P,U_MUX8,5*%
%TO.N,MUX8_CH5*%
X74025000Y-62635000D03*
%TO.P,U_MUX8,6*%
%TO.N,MUX8_EN_N*%
X74025000Y-63905000D03*
%TO.P,U_MUX8,7*%
%TO.N,AGND*%
X74025000Y-65175000D03*
%TO.P,U_MUX8,8*%
X74025000Y-66445000D03*
%TO.P,U_MUX8,9*%
%TO.N,MUX_A2*%
X78975000Y-66445000D03*
%TO.P,U_MUX8,10*%
%TO.N,MUX_A1*%
X78975000Y-65175000D03*
%TO.P,U_MUX8,11*%
%TO.N,MUX_A0*%
X78975000Y-63905000D03*
%TO.P,U_MUX8,12*%
%TO.N,MUX8_CH3*%
X78975000Y-62635000D03*
%TO.P,U_MUX8,13*%
%TO.N,MUX8_CH0*%
X78975000Y-61365000D03*
%TO.P,U_MUX8,14*%
%TO.N,MUX8_CH1*%
X78975000Y-60095000D03*
%TO.P,U_MUX8,15*%
%TO.N,MUX8_CH2*%
X78975000Y-58825000D03*
%TO.P,U_MUX8,16*%
%TO.N,A+3V3*%
X78975000Y-57555000D03*
%TD*%
D11*
%TO.P,R_SP14,1*%
%TO.N,AGND*%
X64000000Y-77500000D03*
%TO.P,R_SP14,2*%
%TO.N,MUX16_CH14*%
X66000000Y-77500000D03*
%TD*%
D10*
%TO.P,TP_COM8,1*%
%TO.N,MUX8_COM*%
X74020000Y-55300000D03*
%TD*%
D11*
%TO.P,R_LO1,1*%
%TO.N,AGND*%
X90000000Y-72000000D03*
%TO.P,R_LO1,2*%
%TO.N,MUX16_CH3*%
X92000000Y-72000000D03*
%TD*%
D10*
%TO.P,TP_A3V3,1*%
%TO.N,A+3V3*%
X14000000Y-66000000D03*
%TD*%
D20*
%TO.P,RV1,*%
%TO.N,*%
X28300000Y-58000000D03*
X18700000Y-58000000D03*
D21*
%TO.P,RV1,1*%
%TO.N,AGND*%
X26000000Y-50500000D03*
D22*
%TO.P,RV1,2*%
%TO.N,MUX16_CH0*%
X23500000Y-50500000D03*
%TO.P,RV1,3*%
%TO.N,A+3V3*%
X21000000Y-50500000D03*
%TD*%
D12*
%TO.P,R_LED3,1*%
%TO.N,LED_3_K*%
X14000000Y-13000000D03*
%TO.P,R_LED3,2*%
%TO.N,GND*%
X14000000Y-11000000D03*
%TD*%
D15*
%TO.P,C_SR2,1*%
%TO.N,+3V3*%
X7480000Y-18602500D03*
%TO.P,C_SR2,2*%
%TO.N,GND*%
X7480000Y-16527500D03*
%TD*%
D17*
%TO.P,D1,1*%
%TO.N,LED_1_K*%
X11000000Y-5025000D03*
%TO.P,D1,2*%
%TO.N,LED_1*%
X11000000Y-2975000D03*
%TD*%
D15*
%TO.P,C_SR1,1*%
%TO.N,+3V3*%
X7480000Y-3962500D03*
%TO.P,C_SR1,2*%
%TO.N,GND*%
X7480000Y-1887500D03*
%TD*%
D17*
%TO.P,D7,1*%
%TO.N,LED_7_K*%
X11000000Y-29025000D03*
%TO.P,D7,2*%
%TO.N,LED_7*%
X11000000Y-26975000D03*
%TD*%
D12*
%TO.P,R_LED7,1*%
%TO.N,LED_7_K*%
X14000000Y-29000000D03*
%TO.P,R_LED7,2*%
%TO.N,GND*%
X14000000Y-27000000D03*
%TD*%
D28*
%TO.P,U_SM,A1*%
%TO.N,-12V*%
X82080000Y-41270000D03*
%TO.P,U_SM,A2*%
%TO.N,SENSE_ADC9_MUX16*%
X79540000Y-41270000D03*
%TO.P,U_SM,A3*%
%TO.N,SENSE_ADC10_MUX8*%
X77000000Y-41270000D03*
%TO.P,U_SM,A4*%
%TO.N,GND*%
X74460000Y-41270000D03*
%TO.P,U_SM,A5*%
%TO.N,+12V*%
X71920000Y-41270000D03*
%TO.P,U_SM,A6*%
%TO.N,N/C*%
X71920000Y-38730000D03*
%TO.P,U_SM,A7*%
%TO.N,GND*%
X74460000Y-38730000D03*
%TO.P,U_SM,A8*%
%TO.N,N/C*%
X77000000Y-38730000D03*
%TO.P,U_SM,A9*%
X79540000Y-38730000D03*
%TO.P,U_SM,A10*%
%TO.N,+3V3*%
X82080000Y-38730000D03*
D29*
%TO.P,U_SM,B1*%
%TO.N,AUDIO_OUT_R*%
X20730000Y-44080000D03*
%TO.P,U_SM,B2*%
%TO.N,AUDIO_OUT_L*%
X20730000Y-41540000D03*
%TO.P,U_SM,B3*%
%TO.N,N/C*%
X20730000Y-39000000D03*
%TO.P,U_SM,B4*%
X20730000Y-36460000D03*
%TO.P,U_SM,B5*%
X20730000Y-33920000D03*
%TO.P,U_SM,B6*%
X23270000Y-33920000D03*
%TO.P,U_SM,B7*%
%TO.N,SR_DATA_OUT*%
X23270000Y-36460000D03*
%TO.P,U_SM,B8*%
%TO.N,SR_CLK*%
X23270000Y-39000000D03*
%TO.P,U_SM,B9*%
%TO.N,N/C*%
X23270000Y-41540000D03*
%TO.P,U_SM,B10*%
X23270000Y-44080000D03*
%TO.P,U_SM,C1*%
X20730000Y-18080000D03*
%TO.P,U_SM,C2*%
X20730000Y-15540000D03*
%TO.P,U_SM,C3*%
X20730000Y-13000000D03*
%TO.P,U_SM,C4*%
X20730000Y-10460000D03*
%TO.P,U_SM,C5*%
X20730000Y-7920000D03*
%TO.P,U_SM,C6*%
X23270000Y-7920000D03*
%TO.P,U_SM,C7*%
X23270000Y-10460000D03*
%TO.P,U_SM,C8*%
X23270000Y-13000000D03*
%TO.P,U_SM,C9*%
X23270000Y-15540000D03*
%TO.P,U_SM,C10*%
X23270000Y-18080000D03*
D28*
%TO.P,U_SM,D1*%
%TO.N,SR_LATCH*%
X82080000Y-13270000D03*
%TO.P,U_SM,D2*%
%TO.N,N/C*%
X79540000Y-13270000D03*
%TO.P,U_SM,D3*%
X77000000Y-13270000D03*
%TO.P,U_SM,D4*%
X74460000Y-13270000D03*
%TO.P,U_SM,D5*%
X71920000Y-13270000D03*
%TO.P,U_SM,D6*%
X71920000Y-10730000D03*
%TO.P,U_SM,D7*%
X74460000Y-10730000D03*
%TO.P,U_SM,D8*%
%TO.N,SENSE_ADC11_TP*%
X77000000Y-10730000D03*
%TO.P,U_SM,D9*%
%TO.N,SENSE_ADC12_TP*%
X79540000Y-10730000D03*
%TO.P,U_SM,D10*%
%TO.N,SR_DATA_IN*%
X82080000Y-10730000D03*
%TD*%
D27*
%TO.P,U_SR2,1*%
%TO.N,LED_4*%
X2525000Y-20440000D03*
%TO.P,U_SR2,2*%
%TO.N,LED_5*%
X2525000Y-21710000D03*
%TO.P,U_SR2,3*%
%TO.N,LED_6*%
X2525000Y-22980000D03*
%TO.P,U_SR2,4*%
%TO.N,LED_7*%
X2525000Y-24250000D03*
%TO.P,U_SR2,5*%
%TO.N,LED_8*%
X2525000Y-25520000D03*
%TO.P,U_SR2,6*%
%TO.N,N/C*%
X2525000Y-26790000D03*
%TO.P,U_SR2,7*%
X2525000Y-28060000D03*
%TO.P,U_SR2,8*%
%TO.N,GND*%
X2525000Y-29330000D03*
%TO.P,U_SR2,9*%
%TO.N,N/C*%
X7475000Y-29330000D03*
%TO.P,U_SR2,10*%
%TO.N,+3V3*%
X7475000Y-28060000D03*
%TO.P,U_SR2,11*%
%TO.N,SR_CLK*%
X7475000Y-26790000D03*
%TO.P,U_SR2,12*%
%TO.N,SR_LATCH*%
X7475000Y-25520000D03*
%TO.P,U_SR2,13*%
%TO.N,GND*%
X7475000Y-24250000D03*
%TO.P,U_SR2,14*%
%TO.N,SR1_TO_SR2*%
X7475000Y-22980000D03*
%TO.P,U_SR2,15*%
%TO.N,LED_3*%
X7475000Y-21710000D03*
%TO.P,U_SR2,16*%
%TO.N,+3V3*%
X7475000Y-20440000D03*
%TD*%
D15*
%TO.P,C_IN1,1*%
%TO.N,+3V3*%
X7480000Y-33242500D03*
%TO.P,C_IN1,2*%
%TO.N,GND*%
X7480000Y-31167500D03*
%TD*%
%TO.P,C_BA3V3,1*%
%TO.N,A+3V3*%
X96500000Y-58037500D03*
%TO.P,C_BA3V3,2*%
%TO.N,AGND*%
X96500000Y-55962500D03*
%TD*%
D11*
%TO.P,R_HI2,1*%
%TO.N,A+3V3*%
X95000000Y-72000000D03*
%TO.P,R_HI2,2*%
%TO.N,MUX16_CH5*%
X97000000Y-72000000D03*
%TD*%
%TO.P,R_SP12,1*%
%TO.N,AGND*%
X69000000Y-73500000D03*
%TO.P,R_SP12,2*%
%TO.N,MUX16_CH12*%
X71000000Y-73500000D03*
%TD*%
D10*
%TO.P,TP_ADC11,1*%
%TO.N,SENSE_ADC11_TP*%
X86000000Y-3000000D03*
%TD*%
D15*
%TO.P,C_M16,1*%
%TO.N,A+3V3*%
X92650000Y-53037500D03*
%TO.P,C_M16,2*%
%TO.N,AGND*%
X92650000Y-50962500D03*
%TD*%
D20*
%TO.P,RV5,*%
%TO.N,*%
X28300000Y-72500000D03*
X18700000Y-72500000D03*
D21*
%TO.P,RV5,1*%
%TO.N,AGND*%
X26000000Y-65000000D03*
D22*
%TO.P,RV5,2*%
%TO.N,MUX8_CH0*%
X23500000Y-65000000D03*
%TO.P,RV5,3*%
%TO.N,A+3V3*%
X21000000Y-65000000D03*
%TD*%
D12*
%TO.P,R_BTN,1*%
%TO.N,+3V3*%
X97000000Y-11000000D03*
%TO.P,R_BTN,2*%
%TO.N,BTN_1*%
X97000000Y-9000000D03*
%TD*%
%TO.P,R_HI4,1*%
%TO.N,A+3V3*%
X96500000Y-63000000D03*
%TO.P,R_HI4,2*%
%TO.N,MUX8_CH5*%
X96500000Y-61000000D03*
%TD*%
D16*
%TO.P,JP_GND,1*%
%TO.N,GND*%
X74460000Y-47450000D03*
%TO.P,JP_GND,2*%
%TO.N,AGND*%
X74460000Y-48750000D03*
%TD*%
D17*
%TO.P,D5,1*%
%TO.N,LED_5_K*%
X11000000Y-21025000D03*
%TO.P,D5,2*%
%TO.N,LED_5*%
X11000000Y-18975000D03*
%TD*%
D27*
%TO.P,U_IN1,1*%
%TO.N,SR_LATCH*%
X2525000Y-35080000D03*
%TO.P,U_IN1,2*%
%TO.N,SR_CLK*%
X2525000Y-36350000D03*
%TO.P,U_IN1,3*%
%TO.N,GND*%
X2525000Y-37620000D03*
%TO.P,U_IN1,4*%
X2525000Y-38890000D03*
%TO.P,U_IN1,5*%
X2525000Y-40160000D03*
%TO.P,U_IN1,6*%
X2525000Y-41430000D03*
%TO.P,U_IN1,7*%
%TO.N,N/C*%
X2525000Y-42700000D03*
%TO.P,U_IN1,8*%
%TO.N,GND*%
X2525000Y-43970000D03*
%TO.P,U_IN1,9*%
%TO.N,SR_DATA_IN*%
X7475000Y-43970000D03*
%TO.P,U_IN1,10*%
%TO.N,GND*%
X7475000Y-42700000D03*
%TO.P,U_IN1,11*%
%TO.N,BTN_1*%
X7475000Y-41430000D03*
%TO.P,U_IN1,12*%
%TO.N,GND*%
X7475000Y-40160000D03*
%TO.P,U_IN1,13*%
X7475000Y-38890000D03*
%TO.P,U_IN1,14*%
X7475000Y-37620000D03*
%TO.P,U_IN1,15*%
X7475000Y-36350000D03*
%TO.P,U_IN1,16*%
%TO.N,+3V3*%
X7475000Y-35080000D03*
%TD*%
D10*
%TO.P,TP_GND,1*%
%TO.N,GND*%
X94000000Y-3000000D03*
%TD*%
D20*
%TO.P,RV7,*%
%TO.N,*%
X55300000Y-72500000D03*
X45700000Y-72500000D03*
D21*
%TO.P,RV7,1*%
%TO.N,AGND*%
X53000000Y-65000000D03*
D22*
%TO.P,RV7,2*%
%TO.N,MUX8_CH4*%
X50500000Y-65000000D03*
%TO.P,RV7,3*%
%TO.N,A+3V3*%
X48000000Y-65000000D03*
%TD*%
D15*
%TO.P,C_COM8,1*%
%TO.N,MUX8_COM*%
X74020000Y-52837500D03*
%TO.P,C_COM8,2*%
%TO.N,AGND*%
X74020000Y-50762500D03*
%TD*%
D12*
%TO.P,R_LED4,1*%
%TO.N,LED_4_K*%
X14000000Y-17000000D03*
%TO.P,R_LED4,2*%
%TO.N,GND*%
X14000000Y-15000000D03*
%TD*%
%TO.P,R_LED1,1*%
%TO.N,LED_1_K*%
X14000000Y-5000000D03*
%TO.P,R_LED1,2*%
%TO.N,GND*%
X14000000Y-3000000D03*
%TD*%
D17*
%TO.P,D6,1*%
%TO.N,LED_6_K*%
X11000000Y-25025000D03*
%TO.P,D6,2*%
%TO.N,LED_6*%
X11000000Y-22975000D03*
%TD*%
D11*
%TO.P,R_HI3,1*%
%TO.N,A+3V3*%
X90000000Y-76000000D03*
%TO.P,R_HI3,2*%
%TO.N,MUX8_CH1*%
X92000000Y-76000000D03*
%TD*%
D10*
%TO.P,TP_ADC12,1*%
%TO.N,SENSE_ADC12_TP*%
X90000000Y-3000000D03*
%TD*%
D17*
%TO.P,D3,1*%
%TO.N,LED_3_K*%
X11000000Y-13025000D03*
%TO.P,D3,2*%
%TO.N,LED_3*%
X11000000Y-10975000D03*
%TD*%
D11*
%TO.P,R_REFB2,1*%
%TO.N,MUX16_CH9*%
X59000000Y-69500000D03*
%TO.P,R_REFB2,2*%
%TO.N,AGND*%
X61000000Y-69500000D03*
%TD*%
D20*
%TO.P,RV4,*%
%TO.N,*%
X68800000Y-58000000D03*
X59200000Y-58000000D03*
D21*
%TO.P,RV4,1*%
%TO.N,AGND*%
X66500000Y-50500000D03*
D22*
%TO.P,RV4,2*%
%TO.N,MUX16_CH6*%
X64000000Y-50500000D03*
%TO.P,RV4,3*%
%TO.N,A+3V3*%
X61500000Y-50500000D03*
%TD*%
D12*
%TO.P,R_LO4,1*%
%TO.N,AGND*%
X96500000Y-67000000D03*
%TO.P,R_LO4,2*%
%TO.N,MUX8_CH7*%
X96500000Y-65000000D03*
%TD*%
D27*
%TO.P,U_SR1,1*%
%TO.N,MUX_A1*%
X2525000Y-5800000D03*
%TO.P,U_SR1,2*%
%TO.N,MUX_A2*%
X2525000Y-7070000D03*
%TO.P,U_SR1,3*%
%TO.N,MUX_A3*%
X2525000Y-8340000D03*
%TO.P,U_SR1,4*%
%TO.N,MUX16_EN_N*%
X2525000Y-9610000D03*
%TO.P,U_SR1,5*%
%TO.N,MUX8_EN_N*%
X2525000Y-10880000D03*
%TO.P,U_SR1,6*%
%TO.N,LED_1*%
X2525000Y-12150000D03*
%TO.P,U_SR1,7*%
%TO.N,LED_2*%
X2525000Y-13420000D03*
%TO.P,U_SR1,8*%
%TO.N,GND*%
X2525000Y-14690000D03*
%TO.P,U_SR1,9*%
%TO.N,SR1_TO_SR2*%
X7475000Y-14690000D03*
%TO.P,U_SR1,10*%
%TO.N,+3V3*%
X7475000Y-13420000D03*
%TO.P,U_SR1,11*%
%TO.N,SR_CLK*%
X7475000Y-12150000D03*
%TO.P,U_SR1,12*%
%TO.N,SR_LATCH*%
X7475000Y-10880000D03*
%TO.P,U_SR1,13*%
%TO.N,GND*%
X7475000Y-9610000D03*
%TO.P,U_SR1,14*%
%TO.N,SR_DATA_OUT*%
X7475000Y-8340000D03*
%TO.P,U_SR1,15*%
%TO.N,MUX_A0*%
X7475000Y-7070000D03*
%TO.P,U_SR1,16*%
%TO.N,+3V3*%
X7475000Y-5800000D03*
%TD*%
D11*
%TO.P,R_HI1,1*%
%TO.N,A+3V3*%
X85000000Y-72000000D03*
%TO.P,R_HI1,2*%
%TO.N,MUX16_CH1*%
X87000000Y-72000000D03*
%TD*%
D10*
%TO.P,TP_CLK,1*%
%TO.N,SR_CLK*%
X97000000Y-4000000D03*
%TD*%
D20*
%TO.P,RV6,*%
%TO.N,*%
X41800000Y-72500000D03*
X32200000Y-72500000D03*
D21*
%TO.P,RV6,1*%
%TO.N,AGND*%
X39500000Y-65000000D03*
D22*
%TO.P,RV6,2*%
%TO.N,MUX8_CH2*%
X37000000Y-65000000D03*
%TO.P,RV6,3*%
%TO.N,A+3V3*%
X34500000Y-65000000D03*
%TD*%
D11*
%TO.P,R_SP11,1*%
%TO.N,AGND*%
X64000000Y-73500000D03*
%TO.P,R_SP11,2*%
%TO.N,MUX16_CH11*%
X66000000Y-73500000D03*
%TD*%
D12*
%TO.P,R_LED5,1*%
%TO.N,LED_5_K*%
X14000000Y-21000000D03*
%TO.P,R_LED5,2*%
%TO.N,GND*%
X14000000Y-19000000D03*
%TD*%
D30*
%TO.N,-12V*%
X85000000Y-22000000D03*
%TO.N,SENSE_ADC9_MUX16*%
X79540000Y-46200000D03*
%TO.N,SENSE_ADC10_MUX8*%
X77000000Y-46200000D03*
%TO.N,GND*%
X8475000Y-24250000D03*
X15000000Y-7000000D03*
X7480000Y-887500D03*
X74460000Y-46450000D03*
X97500000Y-26962500D03*
X8475000Y-38890000D03*
X15000000Y-27000000D03*
X15000000Y-23000000D03*
X96500000Y-21962500D03*
X1525000Y-38890000D03*
X15000000Y-19000000D03*
X1525000Y-40160000D03*
X8475000Y-36350000D03*
X96500000Y-33962500D03*
X15000000Y-11000000D03*
X2525000Y-15690000D03*
X95000000Y-3000000D03*
X1525000Y-37620000D03*
X15000000Y-15000000D03*
X8475000Y-37620000D03*
X8475000Y-40160000D03*
X2525000Y-44970000D03*
X7480000Y-30167500D03*
X8475000Y-9610000D03*
X14000000Y-2000000D03*
X1525000Y-41430000D03*
X7480000Y-15527500D03*
X8475000Y-42700000D03*
X15000000Y-31000000D03*
X2525000Y-30330000D03*
%TO.N,+3V3*%
X7480000Y-34242500D03*
X97000000Y-12000000D03*
X7480000Y-4962500D03*
X7475000Y-3800000D03*
X82080000Y-46450000D03*
X96500000Y-30037500D03*
X7475000Y-33080000D03*
X7480000Y-19602500D03*
X97500000Y-32000000D03*
X8475000Y-13420000D03*
X8475000Y-28060000D03*
X7475000Y-18440000D03*
%TO.N,SR_DATA_OUT*%
X6000000Y-7700000D03*
%TO.N,SR_CLK*%
X9700000Y-35500000D03*
X5300000Y-36350000D03*
%TO.N,SR_LATCH*%
X6000000Y-26400000D03*
X5300000Y-34400000D03*
X6000000Y-11520000D03*
%TO.N,SENSE_ADC11_TP*%
X88000000Y-5500000D03*
X86500000Y-3000000D03*
%TO.N,SENSE_ADC12_TP*%
X88750000Y-3500000D03*
X88750000Y-9400000D03*
%TO.N,SR_DATA_IN*%
X9000000Y-45000000D03*
%TO.N,MUX16_CH6*%
X85100000Y-57555000D03*
%TO.N,MUX16_CH4*%
X85100000Y-60095000D03*
%TO.N,MUX16_CH2*%
X85100000Y-62635000D03*
%TO.N,MUX16_CH0*%
X85100000Y-65175000D03*
%TO.N,MUX_A0*%
X5300000Y-4530000D03*
X84500000Y-66444999D03*
X79900000Y-63905000D03*
%TO.N,MUX_A1*%
X84500000Y-67715000D03*
X57000000Y-66250000D03*
X57000000Y-63600000D03*
X79900000Y-65175000D03*
X5300000Y-5800000D03*
%TO.N,AGND*%
X84000000Y-76000000D03*
X78400000Y-71600000D03*
X58000000Y-77500000D03*
X72000000Y-69500000D03*
X62000000Y-69500000D03*
X83350000Y-69985000D03*
X96500000Y-54962500D03*
X73025000Y-65175000D03*
X89000000Y-72000000D03*
X96500000Y-68000000D03*
X68000000Y-73500000D03*
X74025000Y-67445000D03*
X74460000Y-49750000D03*
X74020000Y-48762500D03*
X63000000Y-73500000D03*
X67000000Y-65500000D03*
X78980000Y-52692500D03*
X11000000Y-66000000D03*
X80462500Y-52000000D03*
X58000000Y-73500000D03*
X63000000Y-77500000D03*
X92650000Y-49962500D03*
X68000000Y-77500000D03*
%TO.N,MUX_A3*%
X69500000Y-53500000D03*
X81200000Y-53500000D03*
X5300000Y-8340000D03*
X94000000Y-68985000D03*
X94750000Y-77200000D03*
X20000000Y-52800000D03*
%TO.N,MUX_A2*%
X94000000Y-67715000D03*
X80550000Y-62900000D03*
X5300000Y-7070000D03*
X95650000Y-78000000D03*
%TO.N,MUX16_EN_N*%
X18500000Y-52150000D03*
X94000000Y-66444999D03*
X5300000Y-9610000D03*
X68500000Y-52150000D03*
%TO.N,MUX16_CH15*%
X71000000Y-77500000D03*
X90000000Y-65175000D03*
%TO.N,MUX16_CH14*%
X90000000Y-63905000D03*
X66000000Y-78150000D03*
%TO.N,MUX16_CH13*%
X61000000Y-78800000D03*
X90000000Y-62635000D03*
%TO.N,MUX16_CH12*%
X90000000Y-61365000D03*
X71000000Y-75100000D03*
%TO.N,MUX16_CH11*%
X66000000Y-74900000D03*
X90000000Y-60095000D03*
%TO.N,MUX16_CH10*%
X90000000Y-58825000D03*
X61000000Y-72800000D03*
%TO.N,MUX16_CH9*%
X90000000Y-57555000D03*
X57700000Y-70900000D03*
X72680000Y-70900000D03*
%TO.N,MUX16_CH8*%
X90000000Y-56285000D03*
X62500000Y-67200000D03*
%TO.N,A+3V3*%
X78975000Y-55555000D03*
X63000000Y-69500000D03*
X68000000Y-65500000D03*
X58000000Y-65500000D03*
X97500000Y-63000000D03*
X92650000Y-53015000D03*
X84000000Y-72000000D03*
X94000000Y-72000000D03*
X78980000Y-56767500D03*
X92650000Y-54037500D03*
X15000000Y-66000000D03*
X96500000Y-59037500D03*
X89000000Y-76000000D03*
X82080000Y-49750000D03*
%TO.N,MUX8_CH4*%
X74300000Y-68850000D03*
%TO.N,MUX8_CH6*%
X74700000Y-68100000D03*
X67500000Y-68100000D03*
%TO.N,MUX8_CH7*%
X94200000Y-65000000D03*
X72000000Y-51700000D03*
%TO.N,MUX8_CH5*%
X95000000Y-61400000D03*
X71200000Y-50600000D03*
%TO.N,MUX8_EN_N*%
X6000000Y-46600000D03*
X70500000Y-46600000D03*
%TO.N,MUX8_CH0*%
X77800000Y-75900000D03*
%TO.N,MUX8_CH1*%
X92000000Y-79000000D03*
X92000000Y-76400000D03*
%TO.N,MUX8_CH2*%
X37000000Y-76700000D03*
X75700000Y-76700000D03*
%TO.N,LED_1*%
X12500000Y-2975000D03*
X5300000Y-12150000D03*
%TO.N,LED_2*%
X12500000Y-6975000D03*
X5300000Y-13420000D03*
%TO.N,LED_4*%
X12500000Y-14975000D03*
X5300000Y-20440000D03*
%TO.N,LED_5*%
X12500000Y-18975000D03*
X5300000Y-21710000D03*
%TO.N,LED_6*%
X12500000Y-22980000D03*
X5300000Y-22980000D03*
%TO.N,LED_7*%
X5300000Y-24250000D03*
X12500000Y-26975000D03*
%TO.N,LED_8*%
X12500000Y-30975000D03*
X5300000Y-25520000D03*
%TO.N,LED_3*%
X12500000Y-10975000D03*
X6000000Y-19600000D03*
%TO.N,BTN_1*%
X10200000Y-42000000D03*
%TD*%
%TO.N,-12V*%
D31*
X84600000Y-41270000D02*
X84600000Y-22000000D01*
X92500000Y-22000000D02*
X92500000Y-25038000D01*
X92500000Y-25038000D02*
X96500000Y-25037500D01*
X88000000Y-22000000D02*
X90540000Y-22000000D01*
X84600000Y-22000000D02*
X85000000Y-22000000D01*
X90540000Y-22000000D02*
X92500000Y-22000000D01*
X82080000Y-41270000D02*
X84600000Y-41270000D01*
%TO.N,SENSE_ADC9_MUX16*%
D32*
X79540000Y-48000000D02*
X79540000Y-46200000D01*
%TO.N,SENSE_ADC10_MUX8*%
X77000000Y-48000000D02*
X77000000Y-46200000D01*
%TO.N,GND*%
D33*
X96500000Y-22962500D02*
X96500000Y-21962500D01*
X2525000Y-29330000D02*
X2525000Y-30330000D01*
X14000000Y-15000000D02*
X15000000Y-15000000D01*
X14000000Y-19000000D02*
X15000000Y-19000000D01*
X7475000Y-36350000D02*
X8475000Y-36350000D01*
X2525000Y-37620000D02*
X1525000Y-37620000D01*
X94000000Y-3000000D02*
X95000000Y-3000000D01*
X7475000Y-24250000D02*
X8475000Y-24250000D01*
X2525000Y-41430000D02*
X1525000Y-41430000D01*
X14000000Y-3000000D02*
X14000000Y-2000000D01*
X14000000Y-23000000D02*
X15000000Y-23000000D01*
X7475000Y-42700000D02*
X8475000Y-42700000D01*
X2525000Y-14690000D02*
X2525000Y-15690000D01*
X74460000Y-47450000D02*
X74460000Y-46450000D01*
X2525000Y-40160000D02*
X1525000Y-40160000D01*
X96500000Y-26962500D02*
X97500000Y-26962500D01*
X7480000Y-31167500D02*
X7480000Y-30167500D01*
X7475000Y-40160000D02*
X8475000Y-40160000D01*
X14000000Y-11000000D02*
X15000000Y-11000000D01*
X7475000Y-9610000D02*
X8475000Y-9610000D01*
X14000000Y-27000000D02*
X15000000Y-27000000D01*
X7480000Y-1887500D02*
X7480000Y-887500D01*
X2525000Y-38890000D02*
X1525000Y-38890000D01*
X2525000Y-43970000D02*
X2525000Y-44970000D01*
X7475000Y-38890000D02*
X8475000Y-38890000D01*
X14000000Y-31000000D02*
X15000000Y-31000000D01*
X7480000Y-16527500D02*
X7480000Y-15527500D01*
X96500000Y-34962500D02*
X96500000Y-33962500D01*
X7475000Y-37620000D02*
X8475000Y-37620000D01*
X14000000Y-7000000D02*
X15000000Y-7000000D01*
%TO.N,+12V*%
D31*
X71920000Y-41270000D02*
X71920000Y-44500000D01*
X86000000Y-19600000D02*
X98500000Y-19600000D01*
X98500000Y-37037500D02*
X96500000Y-37037500D01*
X98500000Y-19600000D02*
X98500000Y-37037500D01*
X86000000Y-44500000D02*
X86000000Y-19600000D01*
X71920000Y-44500000D02*
X86000000Y-44500000D01*
X86000000Y-32159999D02*
X88000000Y-32159999D01*
X88000000Y-32159999D02*
X90540000Y-32159999D01*
%TO.N,+3V3*%
D33*
X7480000Y-3962500D02*
X7480000Y-4962500D01*
X7475000Y-35080000D02*
X7475000Y-33080000D01*
X97000000Y-11000000D02*
X97000000Y-12000000D01*
X7475000Y-13420000D02*
X8475000Y-13420000D01*
X7475000Y-20440000D02*
X7475000Y-18440000D01*
X7480000Y-33242500D02*
X7480000Y-34242500D01*
X82080000Y-47450000D02*
X82080000Y-46450000D01*
X96500000Y-29037500D02*
X96500000Y-30037500D01*
X7480000Y-18602500D02*
X7480000Y-19602500D01*
X7475000Y-5800000D02*
X7475000Y-3800000D01*
X96500000Y-32000000D02*
X97500000Y-32000000D01*
X7475000Y-28060000D02*
X8475000Y-28060000D01*
%TO.N,AUDIO_OUT_R*%
D32*
X20730000Y-48800000D02*
X13500000Y-48800000D01*
X13500000Y-48800000D02*
X10900000Y-51000000D01*
X20730000Y-44080000D02*
X20730000Y-48800000D01*
%TO.N,AUDIO_OUT_L*%
X8300000Y-47000000D02*
X8300000Y-60500000D01*
X8300000Y-60500000D02*
X6100000Y-60500000D01*
X18000000Y-47000000D02*
X8300000Y-47000000D01*
X6100000Y-60500000D02*
X6000000Y-66000000D01*
X18000000Y-44000000D02*
X18000000Y-47000000D01*
X20730000Y-41540000D02*
X18000000Y-44000000D01*
%TO.N,SR_DATA_OUT*%
X6000000Y-7700000D02*
X7475000Y-8340000D01*
%TO.N,SR_CLK*%
X19000000Y-5400000D02*
X19000000Y-6000000D01*
X23270000Y-39000000D02*
X27000000Y-38400000D01*
X9700000Y-13000000D02*
X9700000Y-26790000D01*
X27000000Y-5400000D02*
X19000000Y-5400000D01*
X19000000Y-6000000D02*
X9700000Y-6000000D01*
X9700000Y-27600000D02*
X9700000Y-35500000D01*
X7475000Y-12150000D02*
X9700000Y-13000000D01*
X5300000Y-36350000D02*
X2525000Y-36350000D01*
X97000000Y-4000000D02*
X96000000Y-4600000D01*
X9700000Y-26790000D02*
X7475000Y-26790000D01*
X7475000Y-26790000D02*
X9700000Y-27600000D01*
X68000000Y-4600000D02*
X68000000Y-39600000D01*
X27000000Y-38400000D02*
X27000000Y-5400000D01*
X9700000Y-6000000D02*
X9700000Y-12150000D01*
X68000000Y-39600000D02*
X23270000Y-39000000D01*
X96000000Y-4600000D02*
X68000000Y-4600000D01*
X9700000Y-12150000D02*
X7475000Y-12150000D01*
%TO.N,SR_LATCH*%
X6000000Y-11520000D02*
X7475000Y-10880000D01*
X6000000Y-26400000D02*
X7475000Y-25520000D01*
X5300000Y-34400000D02*
X2525000Y-35080000D01*
%TO.N,SENSE_ADC11_TP*%
X77000000Y-5500000D02*
X88000000Y-5500000D01*
X77000000Y-10730000D02*
X77000000Y-5500000D01*
X86500000Y-3000000D02*
X86000000Y-3000000D01*
%TO.N,SENSE_ADC12_TP*%
X79540000Y-9400000D02*
X88750000Y-9400000D01*
X79540000Y-10730000D02*
X79540000Y-9400000D01*
X88750000Y-3500000D02*
X90000000Y-3000000D01*
%TO.N,SR_DATA_IN*%
X9000000Y-45000000D02*
X7475000Y-43970000D01*
%TO.N,MUX16_COM*%
X83537000Y-50600000D02*
X79540000Y-50600000D01*
X83537500Y-52000000D02*
X83537000Y-50600000D01*
X79540000Y-50600000D02*
X79540000Y-50000000D01*
X86500000Y-52000000D02*
X83537500Y-52000000D01*
X83350000Y-55015000D02*
X86500000Y-52000000D01*
%TO.N,MUX16_CH7*%
X81900000Y-73600000D02*
X87000000Y-73600000D01*
X81900000Y-56285000D02*
X81900000Y-73600000D01*
X87000000Y-73600000D02*
X87000000Y-76000000D01*
X83350000Y-56285000D02*
X81900000Y-56285000D01*
%TO.N,MUX16_CH6*%
X85100000Y-57555000D02*
X83350000Y-57555000D01*
%TO.N,MUX16_CH5*%
X88450000Y-58825000D02*
X88450000Y-70790000D01*
X88450000Y-70790000D02*
X98000000Y-70790000D01*
X98000000Y-72000000D02*
X97000000Y-72000000D01*
X98000000Y-70790000D02*
X98000000Y-72000000D01*
X83350000Y-58825000D02*
X88450000Y-58825000D01*
%TO.N,MUX16_CH4*%
X85100000Y-60095000D02*
X83350000Y-60095000D01*
%TO.N,MUX16_CH3*%
X83350000Y-61365000D02*
X88000000Y-61365000D01*
X92000000Y-74950000D02*
X92000000Y-72000000D01*
X88000000Y-74950000D02*
X92000000Y-74950000D01*
X88000000Y-61365000D02*
X88000000Y-74950000D01*
%TO.N,MUX16_CH2*%
X85100000Y-62635000D02*
X83350000Y-62635000D01*
%TO.N,MUX16_CH1*%
X87500000Y-71400000D02*
X87000000Y-72000000D01*
X83350000Y-63905000D02*
X87500000Y-63905000D01*
X87500000Y-63905000D02*
X87500000Y-71400000D01*
%TO.N,MUX16_CH0*%
X85100000Y-65175000D02*
X83350000Y-65175000D01*
%TO.N,MUX_A0*%
X6000000Y-7070000D02*
X6000000Y-4530000D01*
X6000000Y-4530000D02*
X5300000Y-4530000D01*
X79900000Y-63905000D02*
X78975000Y-63905000D01*
X84500000Y-66444999D02*
X83350000Y-66444999D01*
X7475000Y-7070000D02*
X6000000Y-7070000D01*
%TO.N,MUX_A1*%
X2525000Y-5800000D02*
X5300000Y-5800000D01*
X57000000Y-63600000D02*
X57000000Y-66250000D01*
X84500000Y-67715000D02*
X83350000Y-67715000D01*
X79900000Y-65175000D02*
X78975000Y-65175000D01*
%TO.N,AGND*%
D33*
X71000000Y-69500000D02*
X72000000Y-69500000D01*
X59000000Y-77500000D02*
X58000000Y-77500000D01*
X66000000Y-65500000D02*
X67000000Y-65500000D01*
X74025000Y-65175000D02*
X73025000Y-65175000D01*
X69000000Y-73500000D02*
X68000000Y-73500000D01*
X10000000Y-66000000D02*
X11000000Y-66000000D01*
X81462500Y-52000000D02*
X80462500Y-52000000D01*
X96500000Y-67000000D02*
X96500000Y-68000000D01*
X90000000Y-72000000D02*
X89000000Y-72000000D01*
X85000000Y-76000000D02*
X84000000Y-76000000D01*
X64000000Y-73500000D02*
X63000000Y-73500000D01*
X59000000Y-73500000D02*
X58000000Y-73500000D01*
X74025000Y-66444999D02*
X74025000Y-67445000D01*
X92650000Y-50962500D02*
X92650000Y-49962500D01*
X74020000Y-50762500D02*
X74020000Y-48762500D01*
X83350000Y-68985000D02*
X83350000Y-69985000D01*
X61000000Y-69500000D02*
X62000000Y-69500000D01*
X64000000Y-77500000D02*
X63000000Y-77500000D01*
X74460000Y-48750000D02*
X74460000Y-49750000D01*
X69000000Y-77500000D02*
X68000000Y-77500000D01*
X78980000Y-53692500D02*
X78980000Y-52692500D01*
X78400000Y-70600000D02*
X78400000Y-71600000D01*
X96500000Y-55962500D02*
X96500000Y-54962500D01*
%TO.N,MUX_A3*%
D32*
X81200000Y-77200000D02*
X94750000Y-77200000D01*
X20000000Y-52800000D02*
X67000000Y-52800000D01*
X2525000Y-8340000D02*
X5300000Y-8340000D01*
X67000000Y-52800000D02*
X67000000Y-53500000D01*
X81200000Y-53500000D02*
X81200000Y-77200000D01*
X67000000Y-53500000D02*
X69500000Y-53500000D01*
X94000000Y-68985000D02*
X92650000Y-68985000D01*
%TO.N,MUX_A2*%
X94000000Y-67715000D02*
X92650000Y-67715000D01*
X2525000Y-7070000D02*
X5300000Y-7070000D01*
X80550000Y-78000000D02*
X95650000Y-78000000D01*
X80550000Y-66444999D02*
X78975000Y-66444999D01*
X80550000Y-62900000D02*
X80550000Y-78000000D01*
%TO.N,MUX16_EN_N*%
X2525000Y-9610000D02*
X5300000Y-9610000D01*
X94000000Y-66444999D02*
X92650000Y-66444999D01*
X18500000Y-52150000D02*
X68500000Y-52150000D01*
%TO.N,MUX16_CH15*%
X71000000Y-77500000D02*
X71000000Y-77500000D01*
X90000000Y-65175000D02*
X92650000Y-65175000D01*
%TO.N,MUX16_CH14*%
X90000000Y-63905000D02*
X92650000Y-63905000D01*
X66000000Y-78150000D02*
X66000000Y-77500000D01*
%TO.N,MUX16_CH13*%
X61000000Y-78800000D02*
X61000000Y-77500000D01*
X90000000Y-62635000D02*
X92650000Y-62635000D01*
%TO.N,MUX16_CH12*%
X71000000Y-75100000D02*
X71000000Y-73500000D01*
X90000000Y-61365000D02*
X92650000Y-61365000D01*
%TO.N,MUX16_CH11*%
X66000000Y-74900000D02*
X66000000Y-73500000D01*
X90000000Y-60095000D02*
X92650000Y-60095000D01*
%TO.N,MUX16_CH10*%
X61000000Y-72800000D02*
X61000000Y-73500000D01*
X90000000Y-58825000D02*
X92650000Y-58825000D01*
%TO.N,MUX16_CH9*%
X72680000Y-70900000D02*
X72680000Y-66500000D01*
X57700000Y-70900000D02*
X59000000Y-69500000D01*
X90000000Y-57555000D02*
X92650000Y-57555000D01*
X72680000Y-66500000D02*
X71000000Y-65500000D01*
%TO.N,MUX16_CH8*%
X62500000Y-67200000D02*
X62500000Y-65500000D01*
X62500000Y-65500000D02*
X61000000Y-65500000D01*
X62500000Y-65500000D02*
X64000000Y-65500000D01*
X90000000Y-56285000D02*
X92650000Y-56285000D01*
%TO.N,A+3V3*%
D33*
X92650000Y-55015000D02*
X92650000Y-53015000D01*
X64000000Y-69500000D02*
X63000000Y-69500000D01*
X92650000Y-53037500D02*
X92650000Y-54037500D01*
X95000000Y-72000000D02*
X94000000Y-72000000D01*
X96500000Y-58037500D02*
X96500000Y-59037500D01*
X69000000Y-65500000D02*
X68000000Y-65500000D01*
X78980000Y-55767500D02*
X78980000Y-56767500D01*
X82080000Y-48750000D02*
X82080000Y-49750000D01*
X90000000Y-76000000D02*
X89000000Y-76000000D01*
X59000000Y-65500000D02*
X58000000Y-65500000D01*
X14000000Y-66000000D02*
X15000000Y-66000000D01*
X85000000Y-72000000D02*
X84000000Y-72000000D01*
X96500000Y-63000000D02*
X97500000Y-63000000D01*
X78975000Y-57555000D02*
X78975000Y-55555000D01*
%TO.N,MUX8_CH4*%
D32*
X75775000Y-68850000D02*
X74300000Y-68850000D01*
X74025000Y-57555000D02*
X75775000Y-57555000D01*
X75775000Y-57555000D02*
X75775000Y-68850000D01*
%TO.N,MUX8_CH6*%
X67500000Y-68100000D02*
X67500000Y-69500000D01*
X75325000Y-58825000D02*
X75325000Y-68100000D01*
X67500000Y-69500000D02*
X66000000Y-69500000D01*
X67500000Y-69500000D02*
X69000000Y-69500000D01*
X75325000Y-68100000D02*
X74700000Y-68100000D01*
X74025000Y-58825000D02*
X75325000Y-58825000D01*
%TO.N,MUX8_COM*%
X72700000Y-55300000D02*
X74020000Y-55300000D01*
X72700000Y-60095000D02*
X72700000Y-55300000D01*
X74020000Y-52837500D02*
X77000000Y-50000000D01*
X74020000Y-55300000D02*
X74020000Y-52837500D01*
X74025000Y-60095000D02*
X72700000Y-60095000D01*
%TO.N,MUX8_CH7*%
X94200000Y-65000000D02*
X96500000Y-65000000D01*
X74025000Y-61365000D02*
X72000000Y-61365000D01*
X72000000Y-61365000D02*
X72000000Y-51700000D01*
%TO.N,MUX8_CH5*%
X95000000Y-61400000D02*
X96500000Y-61000000D01*
X74025000Y-62635000D02*
X71200000Y-62635000D01*
X71200000Y-62635000D02*
X71200000Y-50600000D01*
%TO.N,MUX8_EN_N*%
X70500000Y-63905000D02*
X74025000Y-63905000D01*
X70500000Y-46600000D02*
X70500000Y-63905000D01*
X1000000Y-33500000D02*
X6000000Y-33500000D01*
X2525000Y-10880000D02*
X1000000Y-10880000D01*
X6000000Y-33500000D02*
X6000000Y-46600000D01*
X1000000Y-10880000D02*
X1000000Y-33500000D01*
%TO.N,MUX8_CH3*%
X77575000Y-68600000D02*
X78400000Y-68600000D01*
X78975000Y-62635000D02*
X77575000Y-62635000D01*
X77575000Y-62635000D02*
X77575000Y-68600000D01*
%TO.N,MUX8_CH0*%
X77125000Y-61365000D02*
X77125000Y-75900000D01*
X78975000Y-61365000D02*
X77125000Y-61365000D01*
X77125000Y-75900000D02*
X77800000Y-75900000D01*
%TO.N,MUX8_CH1*%
X76675000Y-79000000D02*
X92000000Y-79000000D01*
X92000000Y-76400000D02*
X92000000Y-76000000D01*
X78975000Y-60095000D02*
X76675000Y-60095000D01*
X76675000Y-60095000D02*
X76675000Y-79000000D01*
%TO.N,MUX8_CH2*%
X76225000Y-76700000D02*
X75700000Y-76700000D01*
X76225000Y-58825000D02*
X76225000Y-76700000D01*
X78975000Y-58825000D02*
X76225000Y-58825000D01*
X37000000Y-76700000D02*
X37000000Y-65000000D01*
%TO.N,LED_1*%
X12500000Y-2975000D02*
X11000000Y-2975000D01*
X2525000Y-12150000D02*
X5300000Y-12150000D01*
%TO.N,LED_2*%
X2525000Y-13420000D02*
X5300000Y-13420000D01*
X12500000Y-6975000D02*
X11000000Y-6975000D01*
%TO.N,SR1_TO_SR2*%
X7475000Y-14690000D02*
X9150000Y-14690000D01*
X9150000Y-14690000D02*
X9150000Y-22980000D01*
X9150000Y-22980000D02*
X7475000Y-22980000D01*
%TO.N,LED_4*%
X2525000Y-20440000D02*
X5300000Y-20440000D01*
X12500000Y-14975000D02*
X11000000Y-14975000D01*
%TO.N,LED_5*%
X2525000Y-21710000D02*
X5300000Y-21710000D01*
X12500000Y-18975000D02*
X11000000Y-18975000D01*
%TO.N,LED_6*%
X12500000Y-22980000D02*
X11000000Y-22975000D01*
X2525000Y-22980000D02*
X5300000Y-22980000D01*
%TO.N,LED_7*%
X12500000Y-26975000D02*
X11000000Y-26975000D01*
X2525000Y-24250000D02*
X5300000Y-24250000D01*
%TO.N,LED_8*%
X12500000Y-30975000D02*
X11000000Y-30975000D01*
X2525000Y-25520000D02*
X5300000Y-25520000D01*
%TO.N,LED_3*%
X12500000Y-10975000D02*
X11000000Y-10975000D01*
X6000000Y-21710000D02*
X6000000Y-19600000D01*
X7475000Y-21710000D02*
X6000000Y-21710000D01*
%TO.N,BTN_1*%
X10200000Y-42000000D02*
X7475000Y-41430000D01*
X86000000Y-8000000D02*
X97000000Y-9000000D01*
%TO.N,LED_1_K*%
X11000000Y-5025000D02*
X14000000Y-5000000D01*
%TO.N,LED_2_K*%
X11000000Y-9025000D02*
X14000000Y-9000000D01*
%TO.N,LED_3_K*%
X11000000Y-13025000D02*
X14000000Y-13000000D01*
%TO.N,LED_4_K*%
X11000000Y-17025000D02*
X14000000Y-17000000D01*
%TO.N,LED_5_K*%
X11000000Y-21025000D02*
X14000000Y-21000000D01*
%TO.N,LED_6_K*%
X11000000Y-25025000D02*
X14000000Y-25000000D01*
%TO.N,LED_7_K*%
X11000000Y-29025000D02*
X14000000Y-29000000D01*
%TO.N,LED_8_K*%
X11000000Y-33025000D02*
X14000000Y-33000000D01*
%TD*%
M02*
