%TF.GenerationSoftware,KiCad,Pcbnew,10.0.5*%
%TF.CreationDate,2026-09-02T19:16:21+02:00*%
%TF.ProjectId,coupon,636f7570-6f6e-42e6-9b69-6361645f7063,rev?*%
%TF.SameCoordinates,Original*%
%TF.FileFunction,Legend,Top*%
%TF.FilePolarity,Positive*%
%FSLAX46Y46*%
G04 Gerber Fmt 4.6, Leading zero omitted, Abs format (unit mm)*
G04 Created by KiCad (PCBNEW 10.0.5) date 2026-09-02 19:16:21*
%MOMM*%
%LPD*%
G01*
G04 APERTURE LIST*
%ADD10C,0.150000*%
%ADD11C,0.101600*%
%ADD12C,0.120000*%
%ADD13C,0.152400*%
%ADD14C,0.203200*%
G04 APERTURE END LIST*
D10*
X82785714Y-49806819D02*
X83357142Y-49806819D01*
X83071428Y-50806819D02*
X83071428Y-49806819D01*
X83690476Y-50806819D02*
X83690476Y-49806819D01*
X83690476Y-49806819D02*
X84071428Y-49806819D01*
X84071428Y-49806819D02*
X84166666Y-49854438D01*
X84166666Y-49854438D02*
X84214285Y-49902057D01*
X84214285Y-49902057D02*
X84261904Y-49997295D01*
X84261904Y-49997295D02*
X84261904Y-50140152D01*
X84261904Y-50140152D02*
X84214285Y-50235390D01*
X84214285Y-50235390D02*
X84166666Y-50283009D01*
X84166666Y-50283009D02*
X84071428Y-50330628D01*
X84071428Y-50330628D02*
X83690476Y-50330628D01*
X84452381Y-50902057D02*
X85214285Y-50902057D01*
X86023809Y-50711580D02*
X85976190Y-50759200D01*
X85976190Y-50759200D02*
X85833333Y-50806819D01*
X85833333Y-50806819D02*
X85738095Y-50806819D01*
X85738095Y-50806819D02*
X85595238Y-50759200D01*
X85595238Y-50759200D02*
X85500000Y-50663961D01*
X85500000Y-50663961D02*
X85452381Y-50568723D01*
X85452381Y-50568723D02*
X85404762Y-50378247D01*
X85404762Y-50378247D02*
X85404762Y-50235390D01*
X85404762Y-50235390D02*
X85452381Y-50044914D01*
X85452381Y-50044914D02*
X85500000Y-49949676D01*
X85500000Y-49949676D02*
X85595238Y-49854438D01*
X85595238Y-49854438D02*
X85738095Y-49806819D01*
X85738095Y-49806819D02*
X85833333Y-49806819D01*
X85833333Y-49806819D02*
X85976190Y-49854438D01*
X85976190Y-49854438D02*
X86023809Y-49902057D01*
X86642857Y-49806819D02*
X86833333Y-49806819D01*
X86833333Y-49806819D02*
X86928571Y-49854438D01*
X86928571Y-49854438D02*
X87023809Y-49949676D01*
X87023809Y-49949676D02*
X87071428Y-50140152D01*
X87071428Y-50140152D02*
X87071428Y-50473485D01*
X87071428Y-50473485D02*
X87023809Y-50663961D01*
X87023809Y-50663961D02*
X86928571Y-50759200D01*
X86928571Y-50759200D02*
X86833333Y-50806819D01*
X86833333Y-50806819D02*
X86642857Y-50806819D01*
X86642857Y-50806819D02*
X86547619Y-50759200D01*
X86547619Y-50759200D02*
X86452381Y-50663961D01*
X86452381Y-50663961D02*
X86404762Y-50473485D01*
X86404762Y-50473485D02*
X86404762Y-50140152D01*
X86404762Y-50140152D02*
X86452381Y-49949676D01*
X86452381Y-49949676D02*
X86547619Y-49854438D01*
X86547619Y-49854438D02*
X86642857Y-49806819D01*
X87500000Y-50806819D02*
X87500000Y-49806819D01*
X87500000Y-49806819D02*
X87833333Y-50521104D01*
X87833333Y-50521104D02*
X88166666Y-49806819D01*
X88166666Y-49806819D02*
X88166666Y-50806819D01*
X89166666Y-50806819D02*
X88595238Y-50806819D01*
X88880952Y-50806819D02*
X88880952Y-49806819D01*
X88880952Y-49806819D02*
X88785714Y-49949676D01*
X88785714Y-49949676D02*
X88690476Y-50044914D01*
X88690476Y-50044914D02*
X88595238Y-50092533D01*
X90023809Y-49806819D02*
X89833333Y-49806819D01*
X89833333Y-49806819D02*
X89738095Y-49854438D01*
X89738095Y-49854438D02*
X89690476Y-49902057D01*
X89690476Y-49902057D02*
X89595238Y-50044914D01*
X89595238Y-50044914D02*
X89547619Y-50235390D01*
X89547619Y-50235390D02*
X89547619Y-50616342D01*
X89547619Y-50616342D02*
X89595238Y-50711580D01*
X89595238Y-50711580D02*
X89642857Y-50759200D01*
X89642857Y-50759200D02*
X89738095Y-50806819D01*
X89738095Y-50806819D02*
X89928571Y-50806819D01*
X89928571Y-50806819D02*
X90023809Y-50759200D01*
X90023809Y-50759200D02*
X90071428Y-50711580D01*
X90071428Y-50711580D02*
X90119047Y-50616342D01*
X90119047Y-50616342D02*
X90119047Y-50378247D01*
X90119047Y-50378247D02*
X90071428Y-50283009D01*
X90071428Y-50283009D02*
X90023809Y-50235390D01*
X90023809Y-50235390D02*
X89928571Y-50187771D01*
X89928571Y-50187771D02*
X89738095Y-50187771D01*
X89738095Y-50187771D02*
X89642857Y-50235390D01*
X89642857Y-50235390D02*
X89595238Y-50283009D01*
X89595238Y-50283009D02*
X89547619Y-50378247D01*
X84523809Y-74804819D02*
X84190476Y-74328628D01*
X83952381Y-74804819D02*
X83952381Y-73804819D01*
X83952381Y-73804819D02*
X84333333Y-73804819D01*
X84333333Y-73804819D02*
X84428571Y-73852438D01*
X84428571Y-73852438D02*
X84476190Y-73900057D01*
X84476190Y-73900057D02*
X84523809Y-73995295D01*
X84523809Y-73995295D02*
X84523809Y-74138152D01*
X84523809Y-74138152D02*
X84476190Y-74233390D01*
X84476190Y-74233390D02*
X84428571Y-74281009D01*
X84428571Y-74281009D02*
X84333333Y-74328628D01*
X84333333Y-74328628D02*
X83952381Y-74328628D01*
X84714286Y-74900057D02*
X85476190Y-74900057D01*
X86190476Y-74804819D02*
X85714286Y-74804819D01*
X85714286Y-74804819D02*
X85714286Y-73804819D01*
X86714286Y-73804819D02*
X86904762Y-73804819D01*
X86904762Y-73804819D02*
X87000000Y-73852438D01*
X87000000Y-73852438D02*
X87095238Y-73947676D01*
X87095238Y-73947676D02*
X87142857Y-74138152D01*
X87142857Y-74138152D02*
X87142857Y-74471485D01*
X87142857Y-74471485D02*
X87095238Y-74661961D01*
X87095238Y-74661961D02*
X87000000Y-74757200D01*
X87000000Y-74757200D02*
X86904762Y-74804819D01*
X86904762Y-74804819D02*
X86714286Y-74804819D01*
X86714286Y-74804819D02*
X86619048Y-74757200D01*
X86619048Y-74757200D02*
X86523810Y-74661961D01*
X86523810Y-74661961D02*
X86476191Y-74471485D01*
X86476191Y-74471485D02*
X86476191Y-74138152D01*
X86476191Y-74138152D02*
X86523810Y-73947676D01*
X86523810Y-73947676D02*
X86619048Y-73852438D01*
X86619048Y-73852438D02*
X86714286Y-73804819D01*
X87523810Y-73900057D02*
X87571429Y-73852438D01*
X87571429Y-73852438D02*
X87666667Y-73804819D01*
X87666667Y-73804819D02*
X87904762Y-73804819D01*
X87904762Y-73804819D02*
X88000000Y-73852438D01*
X88000000Y-73852438D02*
X88047619Y-73900057D01*
X88047619Y-73900057D02*
X88095238Y-73995295D01*
X88095238Y-73995295D02*
X88095238Y-74090533D01*
X88095238Y-74090533D02*
X88047619Y-74233390D01*
X88047619Y-74233390D02*
X87476191Y-74804819D01*
X87476191Y-74804819D02*
X88095238Y-74804819D01*
X78344819Y-50500000D02*
X77868628Y-50833333D01*
X78344819Y-51071428D02*
X77344819Y-51071428D01*
X77344819Y-51071428D02*
X77344819Y-50690476D01*
X77344819Y-50690476D02*
X77392438Y-50595238D01*
X77392438Y-50595238D02*
X77440057Y-50547619D01*
X77440057Y-50547619D02*
X77535295Y-50500000D01*
X77535295Y-50500000D02*
X77678152Y-50500000D01*
X77678152Y-50500000D02*
X77773390Y-50547619D01*
X77773390Y-50547619D02*
X77821009Y-50595238D01*
X77821009Y-50595238D02*
X77868628Y-50690476D01*
X77868628Y-50690476D02*
X77868628Y-51071428D01*
X78440057Y-50309524D02*
X78440057Y-49547619D01*
X78297200Y-49357142D02*
X78344819Y-49214285D01*
X78344819Y-49214285D02*
X78344819Y-48976190D01*
X78344819Y-48976190D02*
X78297200Y-48880952D01*
X78297200Y-48880952D02*
X78249580Y-48833333D01*
X78249580Y-48833333D02*
X78154342Y-48785714D01*
X78154342Y-48785714D02*
X78059104Y-48785714D01*
X78059104Y-48785714D02*
X77963866Y-48833333D01*
X77963866Y-48833333D02*
X77916247Y-48880952D01*
X77916247Y-48880952D02*
X77868628Y-48976190D01*
X77868628Y-48976190D02*
X77821009Y-49166666D01*
X77821009Y-49166666D02*
X77773390Y-49261904D01*
X77773390Y-49261904D02*
X77725771Y-49309523D01*
X77725771Y-49309523D02*
X77630533Y-49357142D01*
X77630533Y-49357142D02*
X77535295Y-49357142D01*
X77535295Y-49357142D02*
X77440057Y-49309523D01*
X77440057Y-49309523D02*
X77392438Y-49261904D01*
X77392438Y-49261904D02*
X77344819Y-49166666D01*
X77344819Y-49166666D02*
X77344819Y-48928571D01*
X77344819Y-48928571D02*
X77392438Y-48785714D01*
X78344819Y-47833333D02*
X78344819Y-48404761D01*
X78344819Y-48119047D02*
X77344819Y-48119047D01*
X77344819Y-48119047D02*
X77487676Y-48214285D01*
X77487676Y-48214285D02*
X77582914Y-48309523D01*
X77582914Y-48309523D02*
X77630533Y-48404761D01*
X77344819Y-46976190D02*
X77344819Y-47166666D01*
X77344819Y-47166666D02*
X77392438Y-47261904D01*
X77392438Y-47261904D02*
X77440057Y-47309523D01*
X77440057Y-47309523D02*
X77582914Y-47404761D01*
X77582914Y-47404761D02*
X77773390Y-47452380D01*
X77773390Y-47452380D02*
X78154342Y-47452380D01*
X78154342Y-47452380D02*
X78249580Y-47404761D01*
X78249580Y-47404761D02*
X78297200Y-47357142D01*
X78297200Y-47357142D02*
X78344819Y-47261904D01*
X78344819Y-47261904D02*
X78344819Y-47071428D01*
X78344819Y-47071428D02*
X78297200Y-46976190D01*
X78297200Y-46976190D02*
X78249580Y-46928571D01*
X78249580Y-46928571D02*
X78154342Y-46880952D01*
X78154342Y-46880952D02*
X77916247Y-46880952D01*
X77916247Y-46880952D02*
X77821009Y-46928571D01*
X77821009Y-46928571D02*
X77773390Y-46976190D01*
X77773390Y-46976190D02*
X77725771Y-47071428D01*
X77725771Y-47071428D02*
X77725771Y-47261904D01*
X77725771Y-47261904D02*
X77773390Y-47357142D01*
X77773390Y-47357142D02*
X77821009Y-47404761D01*
X77821009Y-47404761D02*
X77916247Y-47452380D01*
X87460476Y-15354819D02*
X87460476Y-16069104D01*
X87460476Y-16069104D02*
X87412857Y-16211961D01*
X87412857Y-16211961D02*
X87317619Y-16307200D01*
X87317619Y-16307200D02*
X87174762Y-16354819D01*
X87174762Y-16354819D02*
X87079524Y-16354819D01*
X87698572Y-16450057D02*
X88460476Y-16450057D01*
X88698572Y-16354819D02*
X88698572Y-15354819D01*
X88698572Y-15354819D02*
X89079524Y-15354819D01*
X89079524Y-15354819D02*
X89174762Y-15402438D01*
X89174762Y-15402438D02*
X89222381Y-15450057D01*
X89222381Y-15450057D02*
X89270000Y-15545295D01*
X89270000Y-15545295D02*
X89270000Y-15688152D01*
X89270000Y-15688152D02*
X89222381Y-15783390D01*
X89222381Y-15783390D02*
X89174762Y-15831009D01*
X89174762Y-15831009D02*
X89079524Y-15878628D01*
X89079524Y-15878628D02*
X88698572Y-15878628D01*
X89603334Y-15354819D02*
X89841429Y-16354819D01*
X89841429Y-16354819D02*
X90031905Y-15640533D01*
X90031905Y-15640533D02*
X90222381Y-16354819D01*
X90222381Y-16354819D02*
X90460477Y-15354819D01*
X91412857Y-16354819D02*
X91079524Y-15878628D01*
X90841429Y-16354819D02*
X90841429Y-15354819D01*
X90841429Y-15354819D02*
X91222381Y-15354819D01*
X91222381Y-15354819D02*
X91317619Y-15402438D01*
X91317619Y-15402438D02*
X91365238Y-15450057D01*
X91365238Y-15450057D02*
X91412857Y-15545295D01*
X91412857Y-15545295D02*
X91412857Y-15688152D01*
X91412857Y-15688152D02*
X91365238Y-15783390D01*
X91365238Y-15783390D02*
X91317619Y-15831009D01*
X91317619Y-15831009D02*
X91222381Y-15878628D01*
X91222381Y-15878628D02*
X90841429Y-15878628D01*
X95179580Y-38023809D02*
X95227200Y-38071428D01*
X95227200Y-38071428D02*
X95274819Y-38214285D01*
X95274819Y-38214285D02*
X95274819Y-38309523D01*
X95274819Y-38309523D02*
X95227200Y-38452380D01*
X95227200Y-38452380D02*
X95131961Y-38547618D01*
X95131961Y-38547618D02*
X95036723Y-38595237D01*
X95036723Y-38595237D02*
X94846247Y-38642856D01*
X94846247Y-38642856D02*
X94703390Y-38642856D01*
X94703390Y-38642856D02*
X94512914Y-38595237D01*
X94512914Y-38595237D02*
X94417676Y-38547618D01*
X94417676Y-38547618D02*
X94322438Y-38452380D01*
X94322438Y-38452380D02*
X94274819Y-38309523D01*
X94274819Y-38309523D02*
X94274819Y-38214285D01*
X94274819Y-38214285D02*
X94322438Y-38071428D01*
X94322438Y-38071428D02*
X94370057Y-38023809D01*
X95370057Y-37833333D02*
X95370057Y-37071428D01*
X94751009Y-36499999D02*
X94798628Y-36357142D01*
X94798628Y-36357142D02*
X94846247Y-36309523D01*
X94846247Y-36309523D02*
X94941485Y-36261904D01*
X94941485Y-36261904D02*
X95084342Y-36261904D01*
X95084342Y-36261904D02*
X95179580Y-36309523D01*
X95179580Y-36309523D02*
X95227200Y-36357142D01*
X95227200Y-36357142D02*
X95274819Y-36452380D01*
X95274819Y-36452380D02*
X95274819Y-36833332D01*
X95274819Y-36833332D02*
X94274819Y-36833332D01*
X94274819Y-36833332D02*
X94274819Y-36499999D01*
X94274819Y-36499999D02*
X94322438Y-36404761D01*
X94322438Y-36404761D02*
X94370057Y-36357142D01*
X94370057Y-36357142D02*
X94465295Y-36309523D01*
X94465295Y-36309523D02*
X94560533Y-36309523D01*
X94560533Y-36309523D02*
X94655771Y-36357142D01*
X94655771Y-36357142D02*
X94703390Y-36404761D01*
X94703390Y-36404761D02*
X94751009Y-36499999D01*
X94751009Y-36499999D02*
X94751009Y-36833332D01*
X95274819Y-35833332D02*
X94274819Y-35833332D01*
X94274819Y-35833332D02*
X94274819Y-35452380D01*
X94274819Y-35452380D02*
X94322438Y-35357142D01*
X94322438Y-35357142D02*
X94370057Y-35309523D01*
X94370057Y-35309523D02*
X94465295Y-35261904D01*
X94465295Y-35261904D02*
X94608152Y-35261904D01*
X94608152Y-35261904D02*
X94703390Y-35309523D01*
X94703390Y-35309523D02*
X94751009Y-35357142D01*
X94751009Y-35357142D02*
X94798628Y-35452380D01*
X94798628Y-35452380D02*
X94798628Y-35833332D01*
X95274819Y-34309523D02*
X95274819Y-34880951D01*
X95274819Y-34595237D02*
X94274819Y-34595237D01*
X94274819Y-34595237D02*
X94417676Y-34690475D01*
X94417676Y-34690475D02*
X94512914Y-34785713D01*
X94512914Y-34785713D02*
X94560533Y-34880951D01*
X94370057Y-33928570D02*
X94322438Y-33880951D01*
X94322438Y-33880951D02*
X94274819Y-33785713D01*
X94274819Y-33785713D02*
X94274819Y-33547618D01*
X94274819Y-33547618D02*
X94322438Y-33452380D01*
X94322438Y-33452380D02*
X94370057Y-33404761D01*
X94370057Y-33404761D02*
X94465295Y-33357142D01*
X94465295Y-33357142D02*
X94560533Y-33357142D01*
X94560533Y-33357142D02*
X94703390Y-33404761D01*
X94703390Y-33404761D02*
X95274819Y-33976189D01*
X95274819Y-33976189D02*
X95274819Y-33357142D01*
X57999999Y-76304819D02*
X57666666Y-75828628D01*
X57428571Y-76304819D02*
X57428571Y-75304819D01*
X57428571Y-75304819D02*
X57809523Y-75304819D01*
X57809523Y-75304819D02*
X57904761Y-75352438D01*
X57904761Y-75352438D02*
X57952380Y-75400057D01*
X57952380Y-75400057D02*
X57999999Y-75495295D01*
X57999999Y-75495295D02*
X57999999Y-75638152D01*
X57999999Y-75638152D02*
X57952380Y-75733390D01*
X57952380Y-75733390D02*
X57904761Y-75781009D01*
X57904761Y-75781009D02*
X57809523Y-75828628D01*
X57809523Y-75828628D02*
X57428571Y-75828628D01*
X58190476Y-76400057D02*
X58952380Y-76400057D01*
X59142857Y-76257200D02*
X59285714Y-76304819D01*
X59285714Y-76304819D02*
X59523809Y-76304819D01*
X59523809Y-76304819D02*
X59619047Y-76257200D01*
X59619047Y-76257200D02*
X59666666Y-76209580D01*
X59666666Y-76209580D02*
X59714285Y-76114342D01*
X59714285Y-76114342D02*
X59714285Y-76019104D01*
X59714285Y-76019104D02*
X59666666Y-75923866D01*
X59666666Y-75923866D02*
X59619047Y-75876247D01*
X59619047Y-75876247D02*
X59523809Y-75828628D01*
X59523809Y-75828628D02*
X59333333Y-75781009D01*
X59333333Y-75781009D02*
X59238095Y-75733390D01*
X59238095Y-75733390D02*
X59190476Y-75685771D01*
X59190476Y-75685771D02*
X59142857Y-75590533D01*
X59142857Y-75590533D02*
X59142857Y-75495295D01*
X59142857Y-75495295D02*
X59190476Y-75400057D01*
X59190476Y-75400057D02*
X59238095Y-75352438D01*
X59238095Y-75352438D02*
X59333333Y-75304819D01*
X59333333Y-75304819D02*
X59571428Y-75304819D01*
X59571428Y-75304819D02*
X59714285Y-75352438D01*
X60142857Y-76304819D02*
X60142857Y-75304819D01*
X60142857Y-75304819D02*
X60523809Y-75304819D01*
X60523809Y-75304819D02*
X60619047Y-75352438D01*
X60619047Y-75352438D02*
X60666666Y-75400057D01*
X60666666Y-75400057D02*
X60714285Y-75495295D01*
X60714285Y-75495295D02*
X60714285Y-75638152D01*
X60714285Y-75638152D02*
X60666666Y-75733390D01*
X60666666Y-75733390D02*
X60619047Y-75781009D01*
X60619047Y-75781009D02*
X60523809Y-75828628D01*
X60523809Y-75828628D02*
X60142857Y-75828628D01*
X61666666Y-76304819D02*
X61095238Y-76304819D01*
X61380952Y-76304819D02*
X61380952Y-75304819D01*
X61380952Y-75304819D02*
X61285714Y-75447676D01*
X61285714Y-75447676D02*
X61190476Y-75542914D01*
X61190476Y-75542914D02*
X61095238Y-75590533D01*
X62000000Y-75304819D02*
X62619047Y-75304819D01*
X62619047Y-75304819D02*
X62285714Y-75685771D01*
X62285714Y-75685771D02*
X62428571Y-75685771D01*
X62428571Y-75685771D02*
X62523809Y-75733390D01*
X62523809Y-75733390D02*
X62571428Y-75781009D01*
X62571428Y-75781009D02*
X62619047Y-75876247D01*
X62619047Y-75876247D02*
X62619047Y-76114342D01*
X62619047Y-76114342D02*
X62571428Y-76209580D01*
X62571428Y-76209580D02*
X62523809Y-76257200D01*
X62523809Y-76257200D02*
X62428571Y-76304819D01*
X62428571Y-76304819D02*
X62142857Y-76304819D01*
X62142857Y-76304819D02*
X62047619Y-76257200D01*
X62047619Y-76257200D02*
X62000000Y-76209580D01*
X57999999Y-72304819D02*
X57666666Y-71828628D01*
X57428571Y-72304819D02*
X57428571Y-71304819D01*
X57428571Y-71304819D02*
X57809523Y-71304819D01*
X57809523Y-71304819D02*
X57904761Y-71352438D01*
X57904761Y-71352438D02*
X57952380Y-71400057D01*
X57952380Y-71400057D02*
X57999999Y-71495295D01*
X57999999Y-71495295D02*
X57999999Y-71638152D01*
X57999999Y-71638152D02*
X57952380Y-71733390D01*
X57952380Y-71733390D02*
X57904761Y-71781009D01*
X57904761Y-71781009D02*
X57809523Y-71828628D01*
X57809523Y-71828628D02*
X57428571Y-71828628D01*
X58190476Y-72400057D02*
X58952380Y-72400057D01*
X59142857Y-72257200D02*
X59285714Y-72304819D01*
X59285714Y-72304819D02*
X59523809Y-72304819D01*
X59523809Y-72304819D02*
X59619047Y-72257200D01*
X59619047Y-72257200D02*
X59666666Y-72209580D01*
X59666666Y-72209580D02*
X59714285Y-72114342D01*
X59714285Y-72114342D02*
X59714285Y-72019104D01*
X59714285Y-72019104D02*
X59666666Y-71923866D01*
X59666666Y-71923866D02*
X59619047Y-71876247D01*
X59619047Y-71876247D02*
X59523809Y-71828628D01*
X59523809Y-71828628D02*
X59333333Y-71781009D01*
X59333333Y-71781009D02*
X59238095Y-71733390D01*
X59238095Y-71733390D02*
X59190476Y-71685771D01*
X59190476Y-71685771D02*
X59142857Y-71590533D01*
X59142857Y-71590533D02*
X59142857Y-71495295D01*
X59142857Y-71495295D02*
X59190476Y-71400057D01*
X59190476Y-71400057D02*
X59238095Y-71352438D01*
X59238095Y-71352438D02*
X59333333Y-71304819D01*
X59333333Y-71304819D02*
X59571428Y-71304819D01*
X59571428Y-71304819D02*
X59714285Y-71352438D01*
X60142857Y-72304819D02*
X60142857Y-71304819D01*
X60142857Y-71304819D02*
X60523809Y-71304819D01*
X60523809Y-71304819D02*
X60619047Y-71352438D01*
X60619047Y-71352438D02*
X60666666Y-71400057D01*
X60666666Y-71400057D02*
X60714285Y-71495295D01*
X60714285Y-71495295D02*
X60714285Y-71638152D01*
X60714285Y-71638152D02*
X60666666Y-71733390D01*
X60666666Y-71733390D02*
X60619047Y-71781009D01*
X60619047Y-71781009D02*
X60523809Y-71828628D01*
X60523809Y-71828628D02*
X60142857Y-71828628D01*
X61666666Y-72304819D02*
X61095238Y-72304819D01*
X61380952Y-72304819D02*
X61380952Y-71304819D01*
X61380952Y-71304819D02*
X61285714Y-71447676D01*
X61285714Y-71447676D02*
X61190476Y-71542914D01*
X61190476Y-71542914D02*
X61095238Y-71590533D01*
X62285714Y-71304819D02*
X62380952Y-71304819D01*
X62380952Y-71304819D02*
X62476190Y-71352438D01*
X62476190Y-71352438D02*
X62523809Y-71400057D01*
X62523809Y-71400057D02*
X62571428Y-71495295D01*
X62571428Y-71495295D02*
X62619047Y-71685771D01*
X62619047Y-71685771D02*
X62619047Y-71923866D01*
X62619047Y-71923866D02*
X62571428Y-72114342D01*
X62571428Y-72114342D02*
X62523809Y-72209580D01*
X62523809Y-72209580D02*
X62476190Y-72257200D01*
X62476190Y-72257200D02*
X62380952Y-72304819D01*
X62380952Y-72304819D02*
X62285714Y-72304819D01*
X62285714Y-72304819D02*
X62190476Y-72257200D01*
X62190476Y-72257200D02*
X62142857Y-72209580D01*
X62142857Y-72209580D02*
X62095238Y-72114342D01*
X62095238Y-72114342D02*
X62047619Y-71923866D01*
X62047619Y-71923866D02*
X62047619Y-71685771D01*
X62047619Y-71685771D02*
X62095238Y-71495295D01*
X62095238Y-71495295D02*
X62142857Y-71400057D01*
X62142857Y-71400057D02*
X62190476Y-71352438D01*
X62190476Y-71352438D02*
X62285714Y-71304819D01*
X67999999Y-76304819D02*
X67666666Y-75828628D01*
X67428571Y-76304819D02*
X67428571Y-75304819D01*
X67428571Y-75304819D02*
X67809523Y-75304819D01*
X67809523Y-75304819D02*
X67904761Y-75352438D01*
X67904761Y-75352438D02*
X67952380Y-75400057D01*
X67952380Y-75400057D02*
X67999999Y-75495295D01*
X67999999Y-75495295D02*
X67999999Y-75638152D01*
X67999999Y-75638152D02*
X67952380Y-75733390D01*
X67952380Y-75733390D02*
X67904761Y-75781009D01*
X67904761Y-75781009D02*
X67809523Y-75828628D01*
X67809523Y-75828628D02*
X67428571Y-75828628D01*
X68190476Y-76400057D02*
X68952380Y-76400057D01*
X69142857Y-76257200D02*
X69285714Y-76304819D01*
X69285714Y-76304819D02*
X69523809Y-76304819D01*
X69523809Y-76304819D02*
X69619047Y-76257200D01*
X69619047Y-76257200D02*
X69666666Y-76209580D01*
X69666666Y-76209580D02*
X69714285Y-76114342D01*
X69714285Y-76114342D02*
X69714285Y-76019104D01*
X69714285Y-76019104D02*
X69666666Y-75923866D01*
X69666666Y-75923866D02*
X69619047Y-75876247D01*
X69619047Y-75876247D02*
X69523809Y-75828628D01*
X69523809Y-75828628D02*
X69333333Y-75781009D01*
X69333333Y-75781009D02*
X69238095Y-75733390D01*
X69238095Y-75733390D02*
X69190476Y-75685771D01*
X69190476Y-75685771D02*
X69142857Y-75590533D01*
X69142857Y-75590533D02*
X69142857Y-75495295D01*
X69142857Y-75495295D02*
X69190476Y-75400057D01*
X69190476Y-75400057D02*
X69238095Y-75352438D01*
X69238095Y-75352438D02*
X69333333Y-75304819D01*
X69333333Y-75304819D02*
X69571428Y-75304819D01*
X69571428Y-75304819D02*
X69714285Y-75352438D01*
X70142857Y-76304819D02*
X70142857Y-75304819D01*
X70142857Y-75304819D02*
X70523809Y-75304819D01*
X70523809Y-75304819D02*
X70619047Y-75352438D01*
X70619047Y-75352438D02*
X70666666Y-75400057D01*
X70666666Y-75400057D02*
X70714285Y-75495295D01*
X70714285Y-75495295D02*
X70714285Y-75638152D01*
X70714285Y-75638152D02*
X70666666Y-75733390D01*
X70666666Y-75733390D02*
X70619047Y-75781009D01*
X70619047Y-75781009D02*
X70523809Y-75828628D01*
X70523809Y-75828628D02*
X70142857Y-75828628D01*
X71666666Y-76304819D02*
X71095238Y-76304819D01*
X71380952Y-76304819D02*
X71380952Y-75304819D01*
X71380952Y-75304819D02*
X71285714Y-75447676D01*
X71285714Y-75447676D02*
X71190476Y-75542914D01*
X71190476Y-75542914D02*
X71095238Y-75590533D01*
X72571428Y-75304819D02*
X72095238Y-75304819D01*
X72095238Y-75304819D02*
X72047619Y-75781009D01*
X72047619Y-75781009D02*
X72095238Y-75733390D01*
X72095238Y-75733390D02*
X72190476Y-75685771D01*
X72190476Y-75685771D02*
X72428571Y-75685771D01*
X72428571Y-75685771D02*
X72523809Y-75733390D01*
X72523809Y-75733390D02*
X72571428Y-75781009D01*
X72571428Y-75781009D02*
X72619047Y-75876247D01*
X72619047Y-75876247D02*
X72619047Y-76114342D01*
X72619047Y-76114342D02*
X72571428Y-76209580D01*
X72571428Y-76209580D02*
X72523809Y-76257200D01*
X72523809Y-76257200D02*
X72428571Y-76304819D01*
X72428571Y-76304819D02*
X72190476Y-76304819D01*
X72190476Y-76304819D02*
X72095238Y-76257200D01*
X72095238Y-76257200D02*
X72047619Y-76209580D01*
X83334819Y-50219047D02*
X84049104Y-50219047D01*
X84049104Y-50219047D02*
X84191961Y-50266666D01*
X84191961Y-50266666D02*
X84287200Y-50361904D01*
X84287200Y-50361904D02*
X84334819Y-50504761D01*
X84334819Y-50504761D02*
X84334819Y-50599999D01*
X84334819Y-49742856D02*
X83334819Y-49742856D01*
X83334819Y-49742856D02*
X83334819Y-49361904D01*
X83334819Y-49361904D02*
X83382438Y-49266666D01*
X83382438Y-49266666D02*
X83430057Y-49219047D01*
X83430057Y-49219047D02*
X83525295Y-49171428D01*
X83525295Y-49171428D02*
X83668152Y-49171428D01*
X83668152Y-49171428D02*
X83763390Y-49219047D01*
X83763390Y-49219047D02*
X83811009Y-49266666D01*
X83811009Y-49266666D02*
X83858628Y-49361904D01*
X83858628Y-49361904D02*
X83858628Y-49742856D01*
X84430057Y-48980952D02*
X84430057Y-48219047D01*
X83334819Y-48076189D02*
X83334819Y-47457142D01*
X83334819Y-47457142D02*
X83715771Y-47790475D01*
X83715771Y-47790475D02*
X83715771Y-47647618D01*
X83715771Y-47647618D02*
X83763390Y-47552380D01*
X83763390Y-47552380D02*
X83811009Y-47504761D01*
X83811009Y-47504761D02*
X83906247Y-47457142D01*
X83906247Y-47457142D02*
X84144342Y-47457142D01*
X84144342Y-47457142D02*
X84239580Y-47504761D01*
X84239580Y-47504761D02*
X84287200Y-47552380D01*
X84287200Y-47552380D02*
X84334819Y-47647618D01*
X84334819Y-47647618D02*
X84334819Y-47933332D01*
X84334819Y-47933332D02*
X84287200Y-48028570D01*
X84287200Y-48028570D02*
X84239580Y-48076189D01*
X83334819Y-47171427D02*
X84334819Y-46838094D01*
X84334819Y-46838094D02*
X83334819Y-46504761D01*
X83334819Y-46266665D02*
X83334819Y-45647618D01*
X83334819Y-45647618D02*
X83715771Y-45980951D01*
X83715771Y-45980951D02*
X83715771Y-45838094D01*
X83715771Y-45838094D02*
X83763390Y-45742856D01*
X83763390Y-45742856D02*
X83811009Y-45695237D01*
X83811009Y-45695237D02*
X83906247Y-45647618D01*
X83906247Y-45647618D02*
X84144342Y-45647618D01*
X84144342Y-45647618D02*
X84239580Y-45695237D01*
X84239580Y-45695237D02*
X84287200Y-45742856D01*
X84287200Y-45742856D02*
X84334819Y-45838094D01*
X84334819Y-45838094D02*
X84334819Y-46123808D01*
X84334819Y-46123808D02*
X84287200Y-46219046D01*
X84287200Y-46219046D02*
X84239580Y-46266665D01*
X9804819Y-8738094D02*
X8804819Y-8738094D01*
X8804819Y-8738094D02*
X8804819Y-8499999D01*
X8804819Y-8499999D02*
X8852438Y-8357142D01*
X8852438Y-8357142D02*
X8947676Y-8261904D01*
X8947676Y-8261904D02*
X9042914Y-8214285D01*
X9042914Y-8214285D02*
X9233390Y-8166666D01*
X9233390Y-8166666D02*
X9376247Y-8166666D01*
X9376247Y-8166666D02*
X9566723Y-8214285D01*
X9566723Y-8214285D02*
X9661961Y-8261904D01*
X9661961Y-8261904D02*
X9757200Y-8357142D01*
X9757200Y-8357142D02*
X9804819Y-8499999D01*
X9804819Y-8499999D02*
X9804819Y-8738094D01*
X8900057Y-7785713D02*
X8852438Y-7738094D01*
X8852438Y-7738094D02*
X8804819Y-7642856D01*
X8804819Y-7642856D02*
X8804819Y-7404761D01*
X8804819Y-7404761D02*
X8852438Y-7309523D01*
X8852438Y-7309523D02*
X8900057Y-7261904D01*
X8900057Y-7261904D02*
X8995295Y-7214285D01*
X8995295Y-7214285D02*
X9090533Y-7214285D01*
X9090533Y-7214285D02*
X9233390Y-7261904D01*
X9233390Y-7261904D02*
X9804819Y-7833332D01*
X9804819Y-7833332D02*
X9804819Y-7214285D01*
X77204819Y-71076190D02*
X76728628Y-71409523D01*
X77204819Y-71647618D02*
X76204819Y-71647618D01*
X76204819Y-71647618D02*
X76204819Y-71266666D01*
X76204819Y-71266666D02*
X76252438Y-71171428D01*
X76252438Y-71171428D02*
X76300057Y-71123809D01*
X76300057Y-71123809D02*
X76395295Y-71076190D01*
X76395295Y-71076190D02*
X76538152Y-71076190D01*
X76538152Y-71076190D02*
X76633390Y-71123809D01*
X76633390Y-71123809D02*
X76681009Y-71171428D01*
X76681009Y-71171428D02*
X76728628Y-71266666D01*
X76728628Y-71266666D02*
X76728628Y-71647618D01*
X77300057Y-70885714D02*
X77300057Y-70123809D01*
X77204819Y-69409523D02*
X77204819Y-69885713D01*
X77204819Y-69885713D02*
X76204819Y-69885713D01*
X76204819Y-68885713D02*
X76204819Y-68695237D01*
X76204819Y-68695237D02*
X76252438Y-68599999D01*
X76252438Y-68599999D02*
X76347676Y-68504761D01*
X76347676Y-68504761D02*
X76538152Y-68457142D01*
X76538152Y-68457142D02*
X76871485Y-68457142D01*
X76871485Y-68457142D02*
X77061961Y-68504761D01*
X77061961Y-68504761D02*
X77157200Y-68599999D01*
X77157200Y-68599999D02*
X77204819Y-68695237D01*
X77204819Y-68695237D02*
X77204819Y-68885713D01*
X77204819Y-68885713D02*
X77157200Y-68980951D01*
X77157200Y-68980951D02*
X77061961Y-69076189D01*
X77061961Y-69076189D02*
X76871485Y-69123808D01*
X76871485Y-69123808D02*
X76538152Y-69123808D01*
X76538152Y-69123808D02*
X76347676Y-69076189D01*
X76347676Y-69076189D02*
X76252438Y-68980951D01*
X76252438Y-68980951D02*
X76204819Y-68885713D01*
X76204819Y-68123808D02*
X76204819Y-67504761D01*
X76204819Y-67504761D02*
X76585771Y-67838094D01*
X76585771Y-67838094D02*
X76585771Y-67695237D01*
X76585771Y-67695237D02*
X76633390Y-67599999D01*
X76633390Y-67599999D02*
X76681009Y-67552380D01*
X76681009Y-67552380D02*
X76776247Y-67504761D01*
X76776247Y-67504761D02*
X77014342Y-67504761D01*
X77014342Y-67504761D02*
X77109580Y-67552380D01*
X77109580Y-67552380D02*
X77157200Y-67599999D01*
X77157200Y-67599999D02*
X77204819Y-67695237D01*
X77204819Y-67695237D02*
X77204819Y-67980951D01*
X77204819Y-67980951D02*
X77157200Y-68076189D01*
X77157200Y-68076189D02*
X77109580Y-68123808D01*
X12804819Y-9904762D02*
X12328628Y-10238095D01*
X12804819Y-10476190D02*
X11804819Y-10476190D01*
X11804819Y-10476190D02*
X11804819Y-10095238D01*
X11804819Y-10095238D02*
X11852438Y-10000000D01*
X11852438Y-10000000D02*
X11900057Y-9952381D01*
X11900057Y-9952381D02*
X11995295Y-9904762D01*
X11995295Y-9904762D02*
X12138152Y-9904762D01*
X12138152Y-9904762D02*
X12233390Y-9952381D01*
X12233390Y-9952381D02*
X12281009Y-10000000D01*
X12281009Y-10000000D02*
X12328628Y-10095238D01*
X12328628Y-10095238D02*
X12328628Y-10476190D01*
X12900057Y-9714286D02*
X12900057Y-8952381D01*
X12804819Y-8238095D02*
X12804819Y-8714285D01*
X12804819Y-8714285D02*
X11804819Y-8714285D01*
X12281009Y-7904761D02*
X12281009Y-7571428D01*
X12804819Y-7428571D02*
X12804819Y-7904761D01*
X12804819Y-7904761D02*
X11804819Y-7904761D01*
X11804819Y-7904761D02*
X11804819Y-7428571D01*
X12804819Y-6999999D02*
X11804819Y-6999999D01*
X11804819Y-6999999D02*
X11804819Y-6761904D01*
X11804819Y-6761904D02*
X11852438Y-6619047D01*
X11852438Y-6619047D02*
X11947676Y-6523809D01*
X11947676Y-6523809D02*
X12042914Y-6476190D01*
X12042914Y-6476190D02*
X12233390Y-6428571D01*
X12233390Y-6428571D02*
X12376247Y-6428571D01*
X12376247Y-6428571D02*
X12566723Y-6476190D01*
X12566723Y-6476190D02*
X12661961Y-6523809D01*
X12661961Y-6523809D02*
X12757200Y-6619047D01*
X12757200Y-6619047D02*
X12804819Y-6761904D01*
X12804819Y-6761904D02*
X12804819Y-6999999D01*
X11900057Y-6047618D02*
X11852438Y-5999999D01*
X11852438Y-5999999D02*
X11804819Y-5904761D01*
X11804819Y-5904761D02*
X11804819Y-5666666D01*
X11804819Y-5666666D02*
X11852438Y-5571428D01*
X11852438Y-5571428D02*
X11900057Y-5523809D01*
X11900057Y-5523809D02*
X11995295Y-5476190D01*
X11995295Y-5476190D02*
X12090533Y-5476190D01*
X12090533Y-5476190D02*
X12233390Y-5523809D01*
X12233390Y-5523809D02*
X12804819Y-6095237D01*
X12804819Y-6095237D02*
X12804819Y-5476190D01*
X84809524Y-52804819D02*
X84809524Y-53614342D01*
X84809524Y-53614342D02*
X84857143Y-53709580D01*
X84857143Y-53709580D02*
X84904762Y-53757200D01*
X84904762Y-53757200D02*
X85000000Y-53804819D01*
X85000000Y-53804819D02*
X85190476Y-53804819D01*
X85190476Y-53804819D02*
X85285714Y-53757200D01*
X85285714Y-53757200D02*
X85333333Y-53709580D01*
X85333333Y-53709580D02*
X85380952Y-53614342D01*
X85380952Y-53614342D02*
X85380952Y-52804819D01*
X85619048Y-53900057D02*
X86380952Y-53900057D01*
X86619048Y-53804819D02*
X86619048Y-52804819D01*
X86619048Y-52804819D02*
X86952381Y-53519104D01*
X86952381Y-53519104D02*
X87285714Y-52804819D01*
X87285714Y-52804819D02*
X87285714Y-53804819D01*
X87761905Y-52804819D02*
X87761905Y-53614342D01*
X87761905Y-53614342D02*
X87809524Y-53709580D01*
X87809524Y-53709580D02*
X87857143Y-53757200D01*
X87857143Y-53757200D02*
X87952381Y-53804819D01*
X87952381Y-53804819D02*
X88142857Y-53804819D01*
X88142857Y-53804819D02*
X88238095Y-53757200D01*
X88238095Y-53757200D02*
X88285714Y-53709580D01*
X88285714Y-53709580D02*
X88333333Y-53614342D01*
X88333333Y-53614342D02*
X88333333Y-52804819D01*
X88714286Y-52804819D02*
X89380952Y-53804819D01*
X89380952Y-52804819D02*
X88714286Y-53804819D01*
X90285714Y-53804819D02*
X89714286Y-53804819D01*
X90000000Y-53804819D02*
X90000000Y-52804819D01*
X90000000Y-52804819D02*
X89904762Y-52947676D01*
X89904762Y-52947676D02*
X89809524Y-53042914D01*
X89809524Y-53042914D02*
X89714286Y-53090533D01*
X91142857Y-52804819D02*
X90952381Y-52804819D01*
X90952381Y-52804819D02*
X90857143Y-52852438D01*
X90857143Y-52852438D02*
X90809524Y-52900057D01*
X90809524Y-52900057D02*
X90714286Y-53042914D01*
X90714286Y-53042914D02*
X90666667Y-53233390D01*
X90666667Y-53233390D02*
X90666667Y-53614342D01*
X90666667Y-53614342D02*
X90714286Y-53709580D01*
X90714286Y-53709580D02*
X90761905Y-53757200D01*
X90761905Y-53757200D02*
X90857143Y-53804819D01*
X90857143Y-53804819D02*
X91047619Y-53804819D01*
X91047619Y-53804819D02*
X91142857Y-53757200D01*
X91142857Y-53757200D02*
X91190476Y-53709580D01*
X91190476Y-53709580D02*
X91238095Y-53614342D01*
X91238095Y-53614342D02*
X91238095Y-53376247D01*
X91238095Y-53376247D02*
X91190476Y-53281009D01*
X91190476Y-53281009D02*
X91142857Y-53233390D01*
X91142857Y-53233390D02*
X91047619Y-53185771D01*
X91047619Y-53185771D02*
X90857143Y-53185771D01*
X90857143Y-53185771D02*
X90761905Y-53233390D01*
X90761905Y-53233390D02*
X90714286Y-53281009D01*
X90714286Y-53281009D02*
X90666667Y-53376247D01*
X62571428Y-68304819D02*
X62238095Y-67828628D01*
X62000000Y-68304819D02*
X62000000Y-67304819D01*
X62000000Y-67304819D02*
X62380952Y-67304819D01*
X62380952Y-67304819D02*
X62476190Y-67352438D01*
X62476190Y-67352438D02*
X62523809Y-67400057D01*
X62523809Y-67400057D02*
X62571428Y-67495295D01*
X62571428Y-67495295D02*
X62571428Y-67638152D01*
X62571428Y-67638152D02*
X62523809Y-67733390D01*
X62523809Y-67733390D02*
X62476190Y-67781009D01*
X62476190Y-67781009D02*
X62380952Y-67828628D01*
X62380952Y-67828628D02*
X62000000Y-67828628D01*
X62761905Y-68400057D02*
X63523809Y-68400057D01*
X64333333Y-68304819D02*
X64000000Y-67828628D01*
X63761905Y-68304819D02*
X63761905Y-67304819D01*
X63761905Y-67304819D02*
X64142857Y-67304819D01*
X64142857Y-67304819D02*
X64238095Y-67352438D01*
X64238095Y-67352438D02*
X64285714Y-67400057D01*
X64285714Y-67400057D02*
X64333333Y-67495295D01*
X64333333Y-67495295D02*
X64333333Y-67638152D01*
X64333333Y-67638152D02*
X64285714Y-67733390D01*
X64285714Y-67733390D02*
X64238095Y-67781009D01*
X64238095Y-67781009D02*
X64142857Y-67828628D01*
X64142857Y-67828628D02*
X63761905Y-67828628D01*
X64761905Y-67781009D02*
X65095238Y-67781009D01*
X65238095Y-68304819D02*
X64761905Y-68304819D01*
X64761905Y-68304819D02*
X64761905Y-67304819D01*
X64761905Y-67304819D02*
X65238095Y-67304819D01*
X66000000Y-67781009D02*
X65666667Y-67781009D01*
X65666667Y-68304819D02*
X65666667Y-67304819D01*
X65666667Y-67304819D02*
X66142857Y-67304819D01*
X67095238Y-68209580D02*
X67047619Y-68257200D01*
X67047619Y-68257200D02*
X66904762Y-68304819D01*
X66904762Y-68304819D02*
X66809524Y-68304819D01*
X66809524Y-68304819D02*
X66666667Y-68257200D01*
X66666667Y-68257200D02*
X66571429Y-68161961D01*
X66571429Y-68161961D02*
X66523810Y-68066723D01*
X66523810Y-68066723D02*
X66476191Y-67876247D01*
X66476191Y-67876247D02*
X66476191Y-67733390D01*
X66476191Y-67733390D02*
X66523810Y-67542914D01*
X66523810Y-67542914D02*
X66571429Y-67447676D01*
X66571429Y-67447676D02*
X66666667Y-67352438D01*
X66666667Y-67352438D02*
X66809524Y-67304819D01*
X66809524Y-67304819D02*
X66904762Y-67304819D01*
X66904762Y-67304819D02*
X67047619Y-67352438D01*
X67047619Y-67352438D02*
X67095238Y-67400057D01*
X68047619Y-68304819D02*
X67476191Y-68304819D01*
X67761905Y-68304819D02*
X67761905Y-67304819D01*
X67761905Y-67304819D02*
X67666667Y-67447676D01*
X67666667Y-67447676D02*
X67571429Y-67542914D01*
X67571429Y-67542914D02*
X67476191Y-67590533D01*
X9804819Y-32738094D02*
X8804819Y-32738094D01*
X8804819Y-32738094D02*
X8804819Y-32499999D01*
X8804819Y-32499999D02*
X8852438Y-32357142D01*
X8852438Y-32357142D02*
X8947676Y-32261904D01*
X8947676Y-32261904D02*
X9042914Y-32214285D01*
X9042914Y-32214285D02*
X9233390Y-32166666D01*
X9233390Y-32166666D02*
X9376247Y-32166666D01*
X9376247Y-32166666D02*
X9566723Y-32214285D01*
X9566723Y-32214285D02*
X9661961Y-32261904D01*
X9661961Y-32261904D02*
X9757200Y-32357142D01*
X9757200Y-32357142D02*
X9804819Y-32499999D01*
X9804819Y-32499999D02*
X9804819Y-32738094D01*
X9233390Y-31595237D02*
X9185771Y-31690475D01*
X9185771Y-31690475D02*
X9138152Y-31738094D01*
X9138152Y-31738094D02*
X9042914Y-31785713D01*
X9042914Y-31785713D02*
X8995295Y-31785713D01*
X8995295Y-31785713D02*
X8900057Y-31738094D01*
X8900057Y-31738094D02*
X8852438Y-31690475D01*
X8852438Y-31690475D02*
X8804819Y-31595237D01*
X8804819Y-31595237D02*
X8804819Y-31404761D01*
X8804819Y-31404761D02*
X8852438Y-31309523D01*
X8852438Y-31309523D02*
X8900057Y-31261904D01*
X8900057Y-31261904D02*
X8995295Y-31214285D01*
X8995295Y-31214285D02*
X9042914Y-31214285D01*
X9042914Y-31214285D02*
X9138152Y-31261904D01*
X9138152Y-31261904D02*
X9185771Y-31309523D01*
X9185771Y-31309523D02*
X9233390Y-31404761D01*
X9233390Y-31404761D02*
X9233390Y-31595237D01*
X9233390Y-31595237D02*
X9281009Y-31690475D01*
X9281009Y-31690475D02*
X9328628Y-31738094D01*
X9328628Y-31738094D02*
X9423866Y-31785713D01*
X9423866Y-31785713D02*
X9614342Y-31785713D01*
X9614342Y-31785713D02*
X9709580Y-31738094D01*
X9709580Y-31738094D02*
X9757200Y-31690475D01*
X9757200Y-31690475D02*
X9804819Y-31595237D01*
X9804819Y-31595237D02*
X9804819Y-31404761D01*
X9804819Y-31404761D02*
X9757200Y-31309523D01*
X9757200Y-31309523D02*
X9709580Y-31261904D01*
X9709580Y-31261904D02*
X9614342Y-31214285D01*
X9614342Y-31214285D02*
X9423866Y-31214285D01*
X9423866Y-31214285D02*
X9328628Y-31261904D01*
X9328628Y-31261904D02*
X9281009Y-31309523D01*
X9281009Y-31309523D02*
X9233390Y-31404761D01*
X57642856Y-64304819D02*
X57309523Y-63828628D01*
X57071428Y-64304819D02*
X57071428Y-63304819D01*
X57071428Y-63304819D02*
X57452380Y-63304819D01*
X57452380Y-63304819D02*
X57547618Y-63352438D01*
X57547618Y-63352438D02*
X57595237Y-63400057D01*
X57595237Y-63400057D02*
X57642856Y-63495295D01*
X57642856Y-63495295D02*
X57642856Y-63638152D01*
X57642856Y-63638152D02*
X57595237Y-63733390D01*
X57595237Y-63733390D02*
X57547618Y-63781009D01*
X57547618Y-63781009D02*
X57452380Y-63828628D01*
X57452380Y-63828628D02*
X57071428Y-63828628D01*
X57833333Y-64400057D02*
X58595237Y-64400057D01*
X59404761Y-64304819D02*
X59071428Y-63828628D01*
X58833333Y-64304819D02*
X58833333Y-63304819D01*
X58833333Y-63304819D02*
X59214285Y-63304819D01*
X59214285Y-63304819D02*
X59309523Y-63352438D01*
X59309523Y-63352438D02*
X59357142Y-63400057D01*
X59357142Y-63400057D02*
X59404761Y-63495295D01*
X59404761Y-63495295D02*
X59404761Y-63638152D01*
X59404761Y-63638152D02*
X59357142Y-63733390D01*
X59357142Y-63733390D02*
X59309523Y-63781009D01*
X59309523Y-63781009D02*
X59214285Y-63828628D01*
X59214285Y-63828628D02*
X58833333Y-63828628D01*
X59833333Y-63781009D02*
X60166666Y-63781009D01*
X60309523Y-64304819D02*
X59833333Y-64304819D01*
X59833333Y-64304819D02*
X59833333Y-63304819D01*
X59833333Y-63304819D02*
X60309523Y-63304819D01*
X61071428Y-63781009D02*
X60738095Y-63781009D01*
X60738095Y-64304819D02*
X60738095Y-63304819D01*
X60738095Y-63304819D02*
X61214285Y-63304819D01*
X61547619Y-64019104D02*
X62023809Y-64019104D01*
X61452381Y-64304819D02*
X61785714Y-63304819D01*
X61785714Y-63304819D02*
X62119047Y-64304819D01*
X62976190Y-64304819D02*
X62404762Y-64304819D01*
X62690476Y-64304819D02*
X62690476Y-63304819D01*
X62690476Y-63304819D02*
X62595238Y-63447676D01*
X62595238Y-63447676D02*
X62500000Y-63542914D01*
X62500000Y-63542914D02*
X62404762Y-63590533D01*
X87916667Y-6407200D02*
X88059524Y-6454819D01*
X88059524Y-6454819D02*
X88297619Y-6454819D01*
X88297619Y-6454819D02*
X88392857Y-6407200D01*
X88392857Y-6407200D02*
X88440476Y-6359580D01*
X88440476Y-6359580D02*
X88488095Y-6264342D01*
X88488095Y-6264342D02*
X88488095Y-6169104D01*
X88488095Y-6169104D02*
X88440476Y-6073866D01*
X88440476Y-6073866D02*
X88392857Y-6026247D01*
X88392857Y-6026247D02*
X88297619Y-5978628D01*
X88297619Y-5978628D02*
X88107143Y-5931009D01*
X88107143Y-5931009D02*
X88011905Y-5883390D01*
X88011905Y-5883390D02*
X87964286Y-5835771D01*
X87964286Y-5835771D02*
X87916667Y-5740533D01*
X87916667Y-5740533D02*
X87916667Y-5645295D01*
X87916667Y-5645295D02*
X87964286Y-5550057D01*
X87964286Y-5550057D02*
X88011905Y-5502438D01*
X88011905Y-5502438D02*
X88107143Y-5454819D01*
X88107143Y-5454819D02*
X88345238Y-5454819D01*
X88345238Y-5454819D02*
X88488095Y-5502438D01*
X88821429Y-5454819D02*
X89059524Y-6454819D01*
X89059524Y-6454819D02*
X89250000Y-5740533D01*
X89250000Y-5740533D02*
X89440476Y-6454819D01*
X89440476Y-6454819D02*
X89678572Y-5454819D01*
X90583333Y-6454819D02*
X90011905Y-6454819D01*
X90297619Y-6454819D02*
X90297619Y-5454819D01*
X90297619Y-5454819D02*
X90202381Y-5597676D01*
X90202381Y-5597676D02*
X90107143Y-5692914D01*
X90107143Y-5692914D02*
X90011905Y-5740533D01*
X44594819Y-57805238D02*
X44118628Y-58138571D01*
X44594819Y-58376666D02*
X43594819Y-58376666D01*
X43594819Y-58376666D02*
X43594819Y-57995714D01*
X43594819Y-57995714D02*
X43642438Y-57900476D01*
X43642438Y-57900476D02*
X43690057Y-57852857D01*
X43690057Y-57852857D02*
X43785295Y-57805238D01*
X43785295Y-57805238D02*
X43928152Y-57805238D01*
X43928152Y-57805238D02*
X44023390Y-57852857D01*
X44023390Y-57852857D02*
X44071009Y-57900476D01*
X44071009Y-57900476D02*
X44118628Y-57995714D01*
X44118628Y-57995714D02*
X44118628Y-58376666D01*
X43594819Y-57519523D02*
X44594819Y-57186190D01*
X44594819Y-57186190D02*
X43594819Y-56852857D01*
X43690057Y-56567142D02*
X43642438Y-56519523D01*
X43642438Y-56519523D02*
X43594819Y-56424285D01*
X43594819Y-56424285D02*
X43594819Y-56186190D01*
X43594819Y-56186190D02*
X43642438Y-56090952D01*
X43642438Y-56090952D02*
X43690057Y-56043333D01*
X43690057Y-56043333D02*
X43785295Y-55995714D01*
X43785295Y-55995714D02*
X43880533Y-55995714D01*
X43880533Y-55995714D02*
X44023390Y-56043333D01*
X44023390Y-56043333D02*
X44594819Y-56614761D01*
X44594819Y-56614761D02*
X44594819Y-55995714D01*
X95179580Y-26047619D02*
X95227200Y-26095238D01*
X95227200Y-26095238D02*
X95274819Y-26238095D01*
X95274819Y-26238095D02*
X95274819Y-26333333D01*
X95274819Y-26333333D02*
X95227200Y-26476190D01*
X95227200Y-26476190D02*
X95131961Y-26571428D01*
X95131961Y-26571428D02*
X95036723Y-26619047D01*
X95036723Y-26619047D02*
X94846247Y-26666666D01*
X94846247Y-26666666D02*
X94703390Y-26666666D01*
X94703390Y-26666666D02*
X94512914Y-26619047D01*
X94512914Y-26619047D02*
X94417676Y-26571428D01*
X94417676Y-26571428D02*
X94322438Y-26476190D01*
X94322438Y-26476190D02*
X94274819Y-26333333D01*
X94274819Y-26333333D02*
X94274819Y-26238095D01*
X94274819Y-26238095D02*
X94322438Y-26095238D01*
X94322438Y-26095238D02*
X94370057Y-26047619D01*
X95370057Y-25857143D02*
X95370057Y-25095238D01*
X94751009Y-24523809D02*
X94798628Y-24380952D01*
X94798628Y-24380952D02*
X94846247Y-24333333D01*
X94846247Y-24333333D02*
X94941485Y-24285714D01*
X94941485Y-24285714D02*
X95084342Y-24285714D01*
X95084342Y-24285714D02*
X95179580Y-24333333D01*
X95179580Y-24333333D02*
X95227200Y-24380952D01*
X95227200Y-24380952D02*
X95274819Y-24476190D01*
X95274819Y-24476190D02*
X95274819Y-24857142D01*
X95274819Y-24857142D02*
X94274819Y-24857142D01*
X94274819Y-24857142D02*
X94274819Y-24523809D01*
X94274819Y-24523809D02*
X94322438Y-24428571D01*
X94322438Y-24428571D02*
X94370057Y-24380952D01*
X94370057Y-24380952D02*
X94465295Y-24333333D01*
X94465295Y-24333333D02*
X94560533Y-24333333D01*
X94560533Y-24333333D02*
X94655771Y-24380952D01*
X94655771Y-24380952D02*
X94703390Y-24428571D01*
X94703390Y-24428571D02*
X94751009Y-24523809D01*
X94751009Y-24523809D02*
X94751009Y-24857142D01*
X95274819Y-23857142D02*
X94274819Y-23857142D01*
X94274819Y-23857142D02*
X95274819Y-23285714D01*
X95274819Y-23285714D02*
X94274819Y-23285714D01*
X95274819Y-22285714D02*
X95274819Y-22857142D01*
X95274819Y-22571428D02*
X94274819Y-22571428D01*
X94274819Y-22571428D02*
X94417676Y-22666666D01*
X94417676Y-22666666D02*
X94512914Y-22761904D01*
X94512914Y-22761904D02*
X94560533Y-22857142D01*
X94370057Y-21904761D02*
X94322438Y-21857142D01*
X94322438Y-21857142D02*
X94274819Y-21761904D01*
X94274819Y-21761904D02*
X94274819Y-21523809D01*
X94274819Y-21523809D02*
X94322438Y-21428571D01*
X94322438Y-21428571D02*
X94370057Y-21380952D01*
X94370057Y-21380952D02*
X94465295Y-21333333D01*
X94465295Y-21333333D02*
X94560533Y-21333333D01*
X94560533Y-21333333D02*
X94703390Y-21380952D01*
X94703390Y-21380952D02*
X95274819Y-21952380D01*
X95274819Y-21952380D02*
X95274819Y-21333333D01*
X6880952Y-63806819D02*
X7452380Y-63806819D01*
X7166666Y-64806819D02*
X7166666Y-63806819D01*
X7785714Y-64806819D02*
X7785714Y-63806819D01*
X7785714Y-63806819D02*
X8166666Y-63806819D01*
X8166666Y-63806819D02*
X8261904Y-63854438D01*
X8261904Y-63854438D02*
X8309523Y-63902057D01*
X8309523Y-63902057D02*
X8357142Y-63997295D01*
X8357142Y-63997295D02*
X8357142Y-64140152D01*
X8357142Y-64140152D02*
X8309523Y-64235390D01*
X8309523Y-64235390D02*
X8261904Y-64283009D01*
X8261904Y-64283009D02*
X8166666Y-64330628D01*
X8166666Y-64330628D02*
X7785714Y-64330628D01*
X8547619Y-64902057D02*
X9309523Y-64902057D01*
X9500000Y-64521104D02*
X9976190Y-64521104D01*
X9404762Y-64806819D02*
X9738095Y-63806819D01*
X9738095Y-63806819D02*
X10071428Y-64806819D01*
X10928571Y-63854438D02*
X10833333Y-63806819D01*
X10833333Y-63806819D02*
X10690476Y-63806819D01*
X10690476Y-63806819D02*
X10547619Y-63854438D01*
X10547619Y-63854438D02*
X10452381Y-63949676D01*
X10452381Y-63949676D02*
X10404762Y-64044914D01*
X10404762Y-64044914D02*
X10357143Y-64235390D01*
X10357143Y-64235390D02*
X10357143Y-64378247D01*
X10357143Y-64378247D02*
X10404762Y-64568723D01*
X10404762Y-64568723D02*
X10452381Y-64663961D01*
X10452381Y-64663961D02*
X10547619Y-64759200D01*
X10547619Y-64759200D02*
X10690476Y-64806819D01*
X10690476Y-64806819D02*
X10785714Y-64806819D01*
X10785714Y-64806819D02*
X10928571Y-64759200D01*
X10928571Y-64759200D02*
X10976190Y-64711580D01*
X10976190Y-64711580D02*
X10976190Y-64378247D01*
X10976190Y-64378247D02*
X10785714Y-64378247D01*
X11404762Y-64806819D02*
X11404762Y-63806819D01*
X11404762Y-63806819D02*
X11976190Y-64806819D01*
X11976190Y-64806819D02*
X11976190Y-63806819D01*
X12452381Y-64806819D02*
X12452381Y-63806819D01*
X12452381Y-63806819D02*
X12690476Y-63806819D01*
X12690476Y-63806819D02*
X12833333Y-63854438D01*
X12833333Y-63854438D02*
X12928571Y-63949676D01*
X12928571Y-63949676D02*
X12976190Y-64044914D01*
X12976190Y-64044914D02*
X13023809Y-64235390D01*
X13023809Y-64235390D02*
X13023809Y-64378247D01*
X13023809Y-64378247D02*
X12976190Y-64568723D01*
X12976190Y-64568723D02*
X12928571Y-64663961D01*
X12928571Y-64663961D02*
X12833333Y-64759200D01*
X12833333Y-64759200D02*
X12690476Y-64806819D01*
X12690476Y-64806819D02*
X12452381Y-64806819D01*
X12804819Y-25904762D02*
X12328628Y-26238095D01*
X12804819Y-26476190D02*
X11804819Y-26476190D01*
X11804819Y-26476190D02*
X11804819Y-26095238D01*
X11804819Y-26095238D02*
X11852438Y-26000000D01*
X11852438Y-26000000D02*
X11900057Y-25952381D01*
X11900057Y-25952381D02*
X11995295Y-25904762D01*
X11995295Y-25904762D02*
X12138152Y-25904762D01*
X12138152Y-25904762D02*
X12233390Y-25952381D01*
X12233390Y-25952381D02*
X12281009Y-26000000D01*
X12281009Y-26000000D02*
X12328628Y-26095238D01*
X12328628Y-26095238D02*
X12328628Y-26476190D01*
X12900057Y-25714286D02*
X12900057Y-24952381D01*
X12804819Y-24238095D02*
X12804819Y-24714285D01*
X12804819Y-24714285D02*
X11804819Y-24714285D01*
X12281009Y-23904761D02*
X12281009Y-23571428D01*
X12804819Y-23428571D02*
X12804819Y-23904761D01*
X12804819Y-23904761D02*
X11804819Y-23904761D01*
X11804819Y-23904761D02*
X11804819Y-23428571D01*
X12804819Y-22999999D02*
X11804819Y-22999999D01*
X11804819Y-22999999D02*
X11804819Y-22761904D01*
X11804819Y-22761904D02*
X11852438Y-22619047D01*
X11852438Y-22619047D02*
X11947676Y-22523809D01*
X11947676Y-22523809D02*
X12042914Y-22476190D01*
X12042914Y-22476190D02*
X12233390Y-22428571D01*
X12233390Y-22428571D02*
X12376247Y-22428571D01*
X12376247Y-22428571D02*
X12566723Y-22476190D01*
X12566723Y-22476190D02*
X12661961Y-22523809D01*
X12661961Y-22523809D02*
X12757200Y-22619047D01*
X12757200Y-22619047D02*
X12804819Y-22761904D01*
X12804819Y-22761904D02*
X12804819Y-22999999D01*
X11804819Y-21571428D02*
X11804819Y-21761904D01*
X11804819Y-21761904D02*
X11852438Y-21857142D01*
X11852438Y-21857142D02*
X11900057Y-21904761D01*
X11900057Y-21904761D02*
X12042914Y-21999999D01*
X12042914Y-21999999D02*
X12233390Y-22047618D01*
X12233390Y-22047618D02*
X12614342Y-22047618D01*
X12614342Y-22047618D02*
X12709580Y-21999999D01*
X12709580Y-21999999D02*
X12757200Y-21952380D01*
X12757200Y-21952380D02*
X12804819Y-21857142D01*
X12804819Y-21857142D02*
X12804819Y-21666666D01*
X12804819Y-21666666D02*
X12757200Y-21571428D01*
X12757200Y-21571428D02*
X12709580Y-21523809D01*
X12709580Y-21523809D02*
X12614342Y-21476190D01*
X12614342Y-21476190D02*
X12376247Y-21476190D01*
X12376247Y-21476190D02*
X12281009Y-21523809D01*
X12281009Y-21523809D02*
X12233390Y-21571428D01*
X12233390Y-21571428D02*
X12185771Y-21666666D01*
X12185771Y-21666666D02*
X12185771Y-21857142D01*
X12185771Y-21857142D02*
X12233390Y-21952380D01*
X12233390Y-21952380D02*
X12281009Y-21999999D01*
X12281009Y-21999999D02*
X12376247Y-22047618D01*
X67571428Y-68304819D02*
X67238095Y-67828628D01*
X67000000Y-68304819D02*
X67000000Y-67304819D01*
X67000000Y-67304819D02*
X67380952Y-67304819D01*
X67380952Y-67304819D02*
X67476190Y-67352438D01*
X67476190Y-67352438D02*
X67523809Y-67400057D01*
X67523809Y-67400057D02*
X67571428Y-67495295D01*
X67571428Y-67495295D02*
X67571428Y-67638152D01*
X67571428Y-67638152D02*
X67523809Y-67733390D01*
X67523809Y-67733390D02*
X67476190Y-67781009D01*
X67476190Y-67781009D02*
X67380952Y-67828628D01*
X67380952Y-67828628D02*
X67000000Y-67828628D01*
X67761905Y-68400057D02*
X68523809Y-68400057D01*
X69333333Y-68304819D02*
X69000000Y-67828628D01*
X68761905Y-68304819D02*
X68761905Y-67304819D01*
X68761905Y-67304819D02*
X69142857Y-67304819D01*
X69142857Y-67304819D02*
X69238095Y-67352438D01*
X69238095Y-67352438D02*
X69285714Y-67400057D01*
X69285714Y-67400057D02*
X69333333Y-67495295D01*
X69333333Y-67495295D02*
X69333333Y-67638152D01*
X69333333Y-67638152D02*
X69285714Y-67733390D01*
X69285714Y-67733390D02*
X69238095Y-67781009D01*
X69238095Y-67781009D02*
X69142857Y-67828628D01*
X69142857Y-67828628D02*
X68761905Y-67828628D01*
X69761905Y-67781009D02*
X70095238Y-67781009D01*
X70238095Y-68304819D02*
X69761905Y-68304819D01*
X69761905Y-68304819D02*
X69761905Y-67304819D01*
X69761905Y-67304819D02*
X70238095Y-67304819D01*
X71000000Y-67781009D02*
X70666667Y-67781009D01*
X70666667Y-68304819D02*
X70666667Y-67304819D01*
X70666667Y-67304819D02*
X71142857Y-67304819D01*
X72095238Y-68209580D02*
X72047619Y-68257200D01*
X72047619Y-68257200D02*
X71904762Y-68304819D01*
X71904762Y-68304819D02*
X71809524Y-68304819D01*
X71809524Y-68304819D02*
X71666667Y-68257200D01*
X71666667Y-68257200D02*
X71571429Y-68161961D01*
X71571429Y-68161961D02*
X71523810Y-68066723D01*
X71523810Y-68066723D02*
X71476191Y-67876247D01*
X71476191Y-67876247D02*
X71476191Y-67733390D01*
X71476191Y-67733390D02*
X71523810Y-67542914D01*
X71523810Y-67542914D02*
X71571429Y-67447676D01*
X71571429Y-67447676D02*
X71666667Y-67352438D01*
X71666667Y-67352438D02*
X71809524Y-67304819D01*
X71809524Y-67304819D02*
X71904762Y-67304819D01*
X71904762Y-67304819D02*
X72047619Y-67352438D01*
X72047619Y-67352438D02*
X72095238Y-67400057D01*
X72476191Y-67400057D02*
X72523810Y-67352438D01*
X72523810Y-67352438D02*
X72619048Y-67304819D01*
X72619048Y-67304819D02*
X72857143Y-67304819D01*
X72857143Y-67304819D02*
X72952381Y-67352438D01*
X72952381Y-67352438D02*
X73000000Y-67400057D01*
X73000000Y-67400057D02*
X73047619Y-67495295D01*
X73047619Y-67495295D02*
X73047619Y-67590533D01*
X73047619Y-67590533D02*
X73000000Y-67733390D01*
X73000000Y-67733390D02*
X72428572Y-68304819D01*
X72428572Y-68304819D02*
X73047619Y-68304819D01*
X77659580Y-55849047D02*
X77707200Y-55896666D01*
X77707200Y-55896666D02*
X77754819Y-56039523D01*
X77754819Y-56039523D02*
X77754819Y-56134761D01*
X77754819Y-56134761D02*
X77707200Y-56277618D01*
X77707200Y-56277618D02*
X77611961Y-56372856D01*
X77611961Y-56372856D02*
X77516723Y-56420475D01*
X77516723Y-56420475D02*
X77326247Y-56468094D01*
X77326247Y-56468094D02*
X77183390Y-56468094D01*
X77183390Y-56468094D02*
X76992914Y-56420475D01*
X76992914Y-56420475D02*
X76897676Y-56372856D01*
X76897676Y-56372856D02*
X76802438Y-56277618D01*
X76802438Y-56277618D02*
X76754819Y-56134761D01*
X76754819Y-56134761D02*
X76754819Y-56039523D01*
X76754819Y-56039523D02*
X76802438Y-55896666D01*
X76802438Y-55896666D02*
X76850057Y-55849047D01*
X77850057Y-55658571D02*
X77850057Y-54896666D01*
X77754819Y-54658570D02*
X76754819Y-54658570D01*
X76754819Y-54658570D02*
X77469104Y-54325237D01*
X77469104Y-54325237D02*
X76754819Y-53991904D01*
X76754819Y-53991904D02*
X77754819Y-53991904D01*
X77183390Y-53372856D02*
X77135771Y-53468094D01*
X77135771Y-53468094D02*
X77088152Y-53515713D01*
X77088152Y-53515713D02*
X76992914Y-53563332D01*
X76992914Y-53563332D02*
X76945295Y-53563332D01*
X76945295Y-53563332D02*
X76850057Y-53515713D01*
X76850057Y-53515713D02*
X76802438Y-53468094D01*
X76802438Y-53468094D02*
X76754819Y-53372856D01*
X76754819Y-53372856D02*
X76754819Y-53182380D01*
X76754819Y-53182380D02*
X76802438Y-53087142D01*
X76802438Y-53087142D02*
X76850057Y-53039523D01*
X76850057Y-53039523D02*
X76945295Y-52991904D01*
X76945295Y-52991904D02*
X76992914Y-52991904D01*
X76992914Y-52991904D02*
X77088152Y-53039523D01*
X77088152Y-53039523D02*
X77135771Y-53087142D01*
X77135771Y-53087142D02*
X77183390Y-53182380D01*
X77183390Y-53182380D02*
X77183390Y-53372856D01*
X77183390Y-53372856D02*
X77231009Y-53468094D01*
X77231009Y-53468094D02*
X77278628Y-53515713D01*
X77278628Y-53515713D02*
X77373866Y-53563332D01*
X77373866Y-53563332D02*
X77564342Y-53563332D01*
X77564342Y-53563332D02*
X77659580Y-53515713D01*
X77659580Y-53515713D02*
X77707200Y-53468094D01*
X77707200Y-53468094D02*
X77754819Y-53372856D01*
X77754819Y-53372856D02*
X77754819Y-53182380D01*
X77754819Y-53182380D02*
X77707200Y-53087142D01*
X77707200Y-53087142D02*
X77659580Y-53039523D01*
X77659580Y-53039523D02*
X77564342Y-52991904D01*
X77564342Y-52991904D02*
X77373866Y-52991904D01*
X77373866Y-52991904D02*
X77278628Y-53039523D01*
X77278628Y-53039523D02*
X77231009Y-53087142D01*
X77231009Y-53087142D02*
X77183390Y-53182380D01*
X67571428Y-64304819D02*
X67238095Y-63828628D01*
X67000000Y-64304819D02*
X67000000Y-63304819D01*
X67000000Y-63304819D02*
X67380952Y-63304819D01*
X67380952Y-63304819D02*
X67476190Y-63352438D01*
X67476190Y-63352438D02*
X67523809Y-63400057D01*
X67523809Y-63400057D02*
X67571428Y-63495295D01*
X67571428Y-63495295D02*
X67571428Y-63638152D01*
X67571428Y-63638152D02*
X67523809Y-63733390D01*
X67523809Y-63733390D02*
X67476190Y-63781009D01*
X67476190Y-63781009D02*
X67380952Y-63828628D01*
X67380952Y-63828628D02*
X67000000Y-63828628D01*
X67761905Y-64400057D02*
X68523809Y-64400057D01*
X69333333Y-64304819D02*
X69000000Y-63828628D01*
X68761905Y-64304819D02*
X68761905Y-63304819D01*
X68761905Y-63304819D02*
X69142857Y-63304819D01*
X69142857Y-63304819D02*
X69238095Y-63352438D01*
X69238095Y-63352438D02*
X69285714Y-63400057D01*
X69285714Y-63400057D02*
X69333333Y-63495295D01*
X69333333Y-63495295D02*
X69333333Y-63638152D01*
X69333333Y-63638152D02*
X69285714Y-63733390D01*
X69285714Y-63733390D02*
X69238095Y-63781009D01*
X69238095Y-63781009D02*
X69142857Y-63828628D01*
X69142857Y-63828628D02*
X68761905Y-63828628D01*
X69761905Y-63781009D02*
X70095238Y-63781009D01*
X70238095Y-64304819D02*
X69761905Y-64304819D01*
X69761905Y-64304819D02*
X69761905Y-63304819D01*
X69761905Y-63304819D02*
X70238095Y-63304819D01*
X71000000Y-63781009D02*
X70666667Y-63781009D01*
X70666667Y-64304819D02*
X70666667Y-63304819D01*
X70666667Y-63304819D02*
X71142857Y-63304819D01*
X71857143Y-63781009D02*
X72000000Y-63828628D01*
X72000000Y-63828628D02*
X72047619Y-63876247D01*
X72047619Y-63876247D02*
X72095238Y-63971485D01*
X72095238Y-63971485D02*
X72095238Y-64114342D01*
X72095238Y-64114342D02*
X72047619Y-64209580D01*
X72047619Y-64209580D02*
X72000000Y-64257200D01*
X72000000Y-64257200D02*
X71904762Y-64304819D01*
X71904762Y-64304819D02*
X71523810Y-64304819D01*
X71523810Y-64304819D02*
X71523810Y-63304819D01*
X71523810Y-63304819D02*
X71857143Y-63304819D01*
X71857143Y-63304819D02*
X71952381Y-63352438D01*
X71952381Y-63352438D02*
X72000000Y-63400057D01*
X72000000Y-63400057D02*
X72047619Y-63495295D01*
X72047619Y-63495295D02*
X72047619Y-63590533D01*
X72047619Y-63590533D02*
X72000000Y-63685771D01*
X72000000Y-63685771D02*
X71952381Y-63733390D01*
X71952381Y-63733390D02*
X71857143Y-63781009D01*
X71857143Y-63781009D02*
X71523810Y-63781009D01*
X73047619Y-64304819D02*
X72476191Y-64304819D01*
X72761905Y-64304819D02*
X72761905Y-63304819D01*
X72761905Y-63304819D02*
X72666667Y-63447676D01*
X72666667Y-63447676D02*
X72571429Y-63542914D01*
X72571429Y-63542914D02*
X72476191Y-63590533D01*
X1833333Y-63806819D02*
X2404761Y-63806819D01*
X2119047Y-64806819D02*
X2119047Y-63806819D01*
X2738095Y-64806819D02*
X2738095Y-63806819D01*
X2738095Y-63806819D02*
X3119047Y-63806819D01*
X3119047Y-63806819D02*
X3214285Y-63854438D01*
X3214285Y-63854438D02*
X3261904Y-63902057D01*
X3261904Y-63902057D02*
X3309523Y-63997295D01*
X3309523Y-63997295D02*
X3309523Y-64140152D01*
X3309523Y-64140152D02*
X3261904Y-64235390D01*
X3261904Y-64235390D02*
X3214285Y-64283009D01*
X3214285Y-64283009D02*
X3119047Y-64330628D01*
X3119047Y-64330628D02*
X2738095Y-64330628D01*
X3500000Y-64902057D02*
X4261904Y-64902057D01*
X4452381Y-64521104D02*
X4928571Y-64521104D01*
X4357143Y-64806819D02*
X4690476Y-63806819D01*
X4690476Y-63806819D02*
X5023809Y-64806819D01*
X5357143Y-63806819D02*
X5357143Y-64616342D01*
X5357143Y-64616342D02*
X5404762Y-64711580D01*
X5404762Y-64711580D02*
X5452381Y-64759200D01*
X5452381Y-64759200D02*
X5547619Y-64806819D01*
X5547619Y-64806819D02*
X5738095Y-64806819D01*
X5738095Y-64806819D02*
X5833333Y-64759200D01*
X5833333Y-64759200D02*
X5880952Y-64711580D01*
X5880952Y-64711580D02*
X5928571Y-64616342D01*
X5928571Y-64616342D02*
X5928571Y-63806819D01*
X6404762Y-64806819D02*
X6404762Y-63806819D01*
X6404762Y-63806819D02*
X6642857Y-63806819D01*
X6642857Y-63806819D02*
X6785714Y-63854438D01*
X6785714Y-63854438D02*
X6880952Y-63949676D01*
X6880952Y-63949676D02*
X6928571Y-64044914D01*
X6928571Y-64044914D02*
X6976190Y-64235390D01*
X6976190Y-64235390D02*
X6976190Y-64378247D01*
X6976190Y-64378247D02*
X6928571Y-64568723D01*
X6928571Y-64568723D02*
X6880952Y-64663961D01*
X6880952Y-64663961D02*
X6785714Y-64759200D01*
X6785714Y-64759200D02*
X6642857Y-64806819D01*
X6642857Y-64806819D02*
X6404762Y-64806819D01*
X7404762Y-64806819D02*
X7404762Y-63806819D01*
X8071428Y-63806819D02*
X8261904Y-63806819D01*
X8261904Y-63806819D02*
X8357142Y-63854438D01*
X8357142Y-63854438D02*
X8452380Y-63949676D01*
X8452380Y-63949676D02*
X8499999Y-64140152D01*
X8499999Y-64140152D02*
X8499999Y-64473485D01*
X8499999Y-64473485D02*
X8452380Y-64663961D01*
X8452380Y-64663961D02*
X8357142Y-64759200D01*
X8357142Y-64759200D02*
X8261904Y-64806819D01*
X8261904Y-64806819D02*
X8071428Y-64806819D01*
X8071428Y-64806819D02*
X7976190Y-64759200D01*
X7976190Y-64759200D02*
X7880952Y-64663961D01*
X7880952Y-64663961D02*
X7833333Y-64473485D01*
X7833333Y-64473485D02*
X7833333Y-64140152D01*
X7833333Y-64140152D02*
X7880952Y-63949676D01*
X7880952Y-63949676D02*
X7976190Y-63854438D01*
X7976190Y-63854438D02*
X8071428Y-63806819D01*
X8690476Y-64902057D02*
X9452380Y-64902057D01*
X10166666Y-64806819D02*
X9690476Y-64806819D01*
X9690476Y-64806819D02*
X9690476Y-63806819D01*
X75804819Y-50023809D02*
X75328628Y-50357142D01*
X75804819Y-50595237D02*
X74804819Y-50595237D01*
X74804819Y-50595237D02*
X74804819Y-50214285D01*
X74804819Y-50214285D02*
X74852438Y-50119047D01*
X74852438Y-50119047D02*
X74900057Y-50071428D01*
X74900057Y-50071428D02*
X74995295Y-50023809D01*
X74995295Y-50023809D02*
X75138152Y-50023809D01*
X75138152Y-50023809D02*
X75233390Y-50071428D01*
X75233390Y-50071428D02*
X75281009Y-50119047D01*
X75281009Y-50119047D02*
X75328628Y-50214285D01*
X75328628Y-50214285D02*
X75328628Y-50595237D01*
X75900057Y-49833333D02*
X75900057Y-49071428D01*
X75757200Y-48880951D02*
X75804819Y-48738094D01*
X75804819Y-48738094D02*
X75804819Y-48499999D01*
X75804819Y-48499999D02*
X75757200Y-48404761D01*
X75757200Y-48404761D02*
X75709580Y-48357142D01*
X75709580Y-48357142D02*
X75614342Y-48309523D01*
X75614342Y-48309523D02*
X75519104Y-48309523D01*
X75519104Y-48309523D02*
X75423866Y-48357142D01*
X75423866Y-48357142D02*
X75376247Y-48404761D01*
X75376247Y-48404761D02*
X75328628Y-48499999D01*
X75328628Y-48499999D02*
X75281009Y-48690475D01*
X75281009Y-48690475D02*
X75233390Y-48785713D01*
X75233390Y-48785713D02*
X75185771Y-48833332D01*
X75185771Y-48833332D02*
X75090533Y-48880951D01*
X75090533Y-48880951D02*
X74995295Y-48880951D01*
X74995295Y-48880951D02*
X74900057Y-48833332D01*
X74900057Y-48833332D02*
X74852438Y-48785713D01*
X74852438Y-48785713D02*
X74804819Y-48690475D01*
X74804819Y-48690475D02*
X74804819Y-48452380D01*
X74804819Y-48452380D02*
X74852438Y-48309523D01*
X75233390Y-47738094D02*
X75185771Y-47833332D01*
X75185771Y-47833332D02*
X75138152Y-47880951D01*
X75138152Y-47880951D02*
X75042914Y-47928570D01*
X75042914Y-47928570D02*
X74995295Y-47928570D01*
X74995295Y-47928570D02*
X74900057Y-47880951D01*
X74900057Y-47880951D02*
X74852438Y-47833332D01*
X74852438Y-47833332D02*
X74804819Y-47738094D01*
X74804819Y-47738094D02*
X74804819Y-47547618D01*
X74804819Y-47547618D02*
X74852438Y-47452380D01*
X74852438Y-47452380D02*
X74900057Y-47404761D01*
X74900057Y-47404761D02*
X74995295Y-47357142D01*
X74995295Y-47357142D02*
X75042914Y-47357142D01*
X75042914Y-47357142D02*
X75138152Y-47404761D01*
X75138152Y-47404761D02*
X75185771Y-47452380D01*
X75185771Y-47452380D02*
X75233390Y-47547618D01*
X75233390Y-47547618D02*
X75233390Y-47738094D01*
X75233390Y-47738094D02*
X75281009Y-47833332D01*
X75281009Y-47833332D02*
X75328628Y-47880951D01*
X75328628Y-47880951D02*
X75423866Y-47928570D01*
X75423866Y-47928570D02*
X75614342Y-47928570D01*
X75614342Y-47928570D02*
X75709580Y-47880951D01*
X75709580Y-47880951D02*
X75757200Y-47833332D01*
X75757200Y-47833332D02*
X75804819Y-47738094D01*
X75804819Y-47738094D02*
X75804819Y-47547618D01*
X75804819Y-47547618D02*
X75757200Y-47452380D01*
X75757200Y-47452380D02*
X75709580Y-47404761D01*
X75709580Y-47404761D02*
X75614342Y-47357142D01*
X75614342Y-47357142D02*
X75423866Y-47357142D01*
X75423866Y-47357142D02*
X75328628Y-47404761D01*
X75328628Y-47404761D02*
X75281009Y-47452380D01*
X75281009Y-47452380D02*
X75233390Y-47547618D01*
X79880952Y-54039580D02*
X79833333Y-54087200D01*
X79833333Y-54087200D02*
X79690476Y-54134819D01*
X79690476Y-54134819D02*
X79595238Y-54134819D01*
X79595238Y-54134819D02*
X79452381Y-54087200D01*
X79452381Y-54087200D02*
X79357143Y-53991961D01*
X79357143Y-53991961D02*
X79309524Y-53896723D01*
X79309524Y-53896723D02*
X79261905Y-53706247D01*
X79261905Y-53706247D02*
X79261905Y-53563390D01*
X79261905Y-53563390D02*
X79309524Y-53372914D01*
X79309524Y-53372914D02*
X79357143Y-53277676D01*
X79357143Y-53277676D02*
X79452381Y-53182438D01*
X79452381Y-53182438D02*
X79595238Y-53134819D01*
X79595238Y-53134819D02*
X79690476Y-53134819D01*
X79690476Y-53134819D02*
X79833333Y-53182438D01*
X79833333Y-53182438D02*
X79880952Y-53230057D01*
X80071429Y-54230057D02*
X80833333Y-54230057D01*
X81642857Y-54039580D02*
X81595238Y-54087200D01*
X81595238Y-54087200D02*
X81452381Y-54134819D01*
X81452381Y-54134819D02*
X81357143Y-54134819D01*
X81357143Y-54134819D02*
X81214286Y-54087200D01*
X81214286Y-54087200D02*
X81119048Y-53991961D01*
X81119048Y-53991961D02*
X81071429Y-53896723D01*
X81071429Y-53896723D02*
X81023810Y-53706247D01*
X81023810Y-53706247D02*
X81023810Y-53563390D01*
X81023810Y-53563390D02*
X81071429Y-53372914D01*
X81071429Y-53372914D02*
X81119048Y-53277676D01*
X81119048Y-53277676D02*
X81214286Y-53182438D01*
X81214286Y-53182438D02*
X81357143Y-53134819D01*
X81357143Y-53134819D02*
X81452381Y-53134819D01*
X81452381Y-53134819D02*
X81595238Y-53182438D01*
X81595238Y-53182438D02*
X81642857Y-53230057D01*
X82261905Y-53134819D02*
X82452381Y-53134819D01*
X82452381Y-53134819D02*
X82547619Y-53182438D01*
X82547619Y-53182438D02*
X82642857Y-53277676D01*
X82642857Y-53277676D02*
X82690476Y-53468152D01*
X82690476Y-53468152D02*
X82690476Y-53801485D01*
X82690476Y-53801485D02*
X82642857Y-53991961D01*
X82642857Y-53991961D02*
X82547619Y-54087200D01*
X82547619Y-54087200D02*
X82452381Y-54134819D01*
X82452381Y-54134819D02*
X82261905Y-54134819D01*
X82261905Y-54134819D02*
X82166667Y-54087200D01*
X82166667Y-54087200D02*
X82071429Y-53991961D01*
X82071429Y-53991961D02*
X82023810Y-53801485D01*
X82023810Y-53801485D02*
X82023810Y-53468152D01*
X82023810Y-53468152D02*
X82071429Y-53277676D01*
X82071429Y-53277676D02*
X82166667Y-53182438D01*
X82166667Y-53182438D02*
X82261905Y-53134819D01*
X83119048Y-54134819D02*
X83119048Y-53134819D01*
X83119048Y-53134819D02*
X83452381Y-53849104D01*
X83452381Y-53849104D02*
X83785714Y-53134819D01*
X83785714Y-53134819D02*
X83785714Y-54134819D01*
X84785714Y-54134819D02*
X84214286Y-54134819D01*
X84500000Y-54134819D02*
X84500000Y-53134819D01*
X84500000Y-53134819D02*
X84404762Y-53277676D01*
X84404762Y-53277676D02*
X84309524Y-53372914D01*
X84309524Y-53372914D02*
X84214286Y-53420533D01*
X85642857Y-53134819D02*
X85452381Y-53134819D01*
X85452381Y-53134819D02*
X85357143Y-53182438D01*
X85357143Y-53182438D02*
X85309524Y-53230057D01*
X85309524Y-53230057D02*
X85214286Y-53372914D01*
X85214286Y-53372914D02*
X85166667Y-53563390D01*
X85166667Y-53563390D02*
X85166667Y-53944342D01*
X85166667Y-53944342D02*
X85214286Y-54039580D01*
X85214286Y-54039580D02*
X85261905Y-54087200D01*
X85261905Y-54087200D02*
X85357143Y-54134819D01*
X85357143Y-54134819D02*
X85547619Y-54134819D01*
X85547619Y-54134819D02*
X85642857Y-54087200D01*
X85642857Y-54087200D02*
X85690476Y-54039580D01*
X85690476Y-54039580D02*
X85738095Y-53944342D01*
X85738095Y-53944342D02*
X85738095Y-53706247D01*
X85738095Y-53706247D02*
X85690476Y-53611009D01*
X85690476Y-53611009D02*
X85642857Y-53563390D01*
X85642857Y-53563390D02*
X85547619Y-53515771D01*
X85547619Y-53515771D02*
X85357143Y-53515771D01*
X85357143Y-53515771D02*
X85261905Y-53563390D01*
X85261905Y-53563390D02*
X85214286Y-53611009D01*
X85214286Y-53611009D02*
X85166667Y-53706247D01*
X58094819Y-57805238D02*
X57618628Y-58138571D01*
X58094819Y-58376666D02*
X57094819Y-58376666D01*
X57094819Y-58376666D02*
X57094819Y-57995714D01*
X57094819Y-57995714D02*
X57142438Y-57900476D01*
X57142438Y-57900476D02*
X57190057Y-57852857D01*
X57190057Y-57852857D02*
X57285295Y-57805238D01*
X57285295Y-57805238D02*
X57428152Y-57805238D01*
X57428152Y-57805238D02*
X57523390Y-57852857D01*
X57523390Y-57852857D02*
X57571009Y-57900476D01*
X57571009Y-57900476D02*
X57618628Y-57995714D01*
X57618628Y-57995714D02*
X57618628Y-58376666D01*
X57094819Y-57519523D02*
X58094819Y-57186190D01*
X58094819Y-57186190D02*
X57094819Y-56852857D01*
X57094819Y-56614761D02*
X57094819Y-55995714D01*
X57094819Y-55995714D02*
X57475771Y-56329047D01*
X57475771Y-56329047D02*
X57475771Y-56186190D01*
X57475771Y-56186190D02*
X57523390Y-56090952D01*
X57523390Y-56090952D02*
X57571009Y-56043333D01*
X57571009Y-56043333D02*
X57666247Y-55995714D01*
X57666247Y-55995714D02*
X57904342Y-55995714D01*
X57904342Y-55995714D02*
X57999580Y-56043333D01*
X57999580Y-56043333D02*
X58047200Y-56090952D01*
X58047200Y-56090952D02*
X58094819Y-56186190D01*
X58094819Y-56186190D02*
X58094819Y-56471904D01*
X58094819Y-56471904D02*
X58047200Y-56567142D01*
X58047200Y-56567142D02*
X57999580Y-56614761D01*
X62642856Y-64304819D02*
X62309523Y-63828628D01*
X62071428Y-64304819D02*
X62071428Y-63304819D01*
X62071428Y-63304819D02*
X62452380Y-63304819D01*
X62452380Y-63304819D02*
X62547618Y-63352438D01*
X62547618Y-63352438D02*
X62595237Y-63400057D01*
X62595237Y-63400057D02*
X62642856Y-63495295D01*
X62642856Y-63495295D02*
X62642856Y-63638152D01*
X62642856Y-63638152D02*
X62595237Y-63733390D01*
X62595237Y-63733390D02*
X62547618Y-63781009D01*
X62547618Y-63781009D02*
X62452380Y-63828628D01*
X62452380Y-63828628D02*
X62071428Y-63828628D01*
X62833333Y-64400057D02*
X63595237Y-64400057D01*
X64404761Y-64304819D02*
X64071428Y-63828628D01*
X63833333Y-64304819D02*
X63833333Y-63304819D01*
X63833333Y-63304819D02*
X64214285Y-63304819D01*
X64214285Y-63304819D02*
X64309523Y-63352438D01*
X64309523Y-63352438D02*
X64357142Y-63400057D01*
X64357142Y-63400057D02*
X64404761Y-63495295D01*
X64404761Y-63495295D02*
X64404761Y-63638152D01*
X64404761Y-63638152D02*
X64357142Y-63733390D01*
X64357142Y-63733390D02*
X64309523Y-63781009D01*
X64309523Y-63781009D02*
X64214285Y-63828628D01*
X64214285Y-63828628D02*
X63833333Y-63828628D01*
X64833333Y-63781009D02*
X65166666Y-63781009D01*
X65309523Y-64304819D02*
X64833333Y-64304819D01*
X64833333Y-64304819D02*
X64833333Y-63304819D01*
X64833333Y-63304819D02*
X65309523Y-63304819D01*
X66071428Y-63781009D02*
X65738095Y-63781009D01*
X65738095Y-64304819D02*
X65738095Y-63304819D01*
X65738095Y-63304819D02*
X66214285Y-63304819D01*
X66547619Y-64019104D02*
X67023809Y-64019104D01*
X66452381Y-64304819D02*
X66785714Y-63304819D01*
X66785714Y-63304819D02*
X67119047Y-64304819D01*
X67404762Y-63400057D02*
X67452381Y-63352438D01*
X67452381Y-63352438D02*
X67547619Y-63304819D01*
X67547619Y-63304819D02*
X67785714Y-63304819D01*
X67785714Y-63304819D02*
X67880952Y-63352438D01*
X67880952Y-63352438D02*
X67928571Y-63400057D01*
X67928571Y-63400057D02*
X67976190Y-63495295D01*
X67976190Y-63495295D02*
X67976190Y-63590533D01*
X67976190Y-63590533D02*
X67928571Y-63733390D01*
X67928571Y-63733390D02*
X67357143Y-64304819D01*
X67357143Y-64304819D02*
X67976190Y-64304819D01*
X95179580Y-29952381D02*
X95227200Y-30000000D01*
X95227200Y-30000000D02*
X95274819Y-30142857D01*
X95274819Y-30142857D02*
X95274819Y-30238095D01*
X95274819Y-30238095D02*
X95227200Y-30380952D01*
X95227200Y-30380952D02*
X95131961Y-30476190D01*
X95131961Y-30476190D02*
X95036723Y-30523809D01*
X95036723Y-30523809D02*
X94846247Y-30571428D01*
X94846247Y-30571428D02*
X94703390Y-30571428D01*
X94703390Y-30571428D02*
X94512914Y-30523809D01*
X94512914Y-30523809D02*
X94417676Y-30476190D01*
X94417676Y-30476190D02*
X94322438Y-30380952D01*
X94322438Y-30380952D02*
X94274819Y-30238095D01*
X94274819Y-30238095D02*
X94274819Y-30142857D01*
X94274819Y-30142857D02*
X94322438Y-30000000D01*
X94322438Y-30000000D02*
X94370057Y-29952381D01*
X95370057Y-29761905D02*
X95370057Y-29000000D01*
X94751009Y-28428571D02*
X94798628Y-28285714D01*
X94798628Y-28285714D02*
X94846247Y-28238095D01*
X94846247Y-28238095D02*
X94941485Y-28190476D01*
X94941485Y-28190476D02*
X95084342Y-28190476D01*
X95084342Y-28190476D02*
X95179580Y-28238095D01*
X95179580Y-28238095D02*
X95227200Y-28285714D01*
X95227200Y-28285714D02*
X95274819Y-28380952D01*
X95274819Y-28380952D02*
X95274819Y-28761904D01*
X95274819Y-28761904D02*
X94274819Y-28761904D01*
X94274819Y-28761904D02*
X94274819Y-28428571D01*
X94274819Y-28428571D02*
X94322438Y-28333333D01*
X94322438Y-28333333D02*
X94370057Y-28285714D01*
X94370057Y-28285714D02*
X94465295Y-28238095D01*
X94465295Y-28238095D02*
X94560533Y-28238095D01*
X94560533Y-28238095D02*
X94655771Y-28285714D01*
X94655771Y-28285714D02*
X94703390Y-28333333D01*
X94703390Y-28333333D02*
X94751009Y-28428571D01*
X94751009Y-28428571D02*
X94751009Y-28761904D01*
X94274819Y-27857142D02*
X94274819Y-27238095D01*
X94274819Y-27238095D02*
X94655771Y-27571428D01*
X94655771Y-27571428D02*
X94655771Y-27428571D01*
X94655771Y-27428571D02*
X94703390Y-27333333D01*
X94703390Y-27333333D02*
X94751009Y-27285714D01*
X94751009Y-27285714D02*
X94846247Y-27238095D01*
X94846247Y-27238095D02*
X95084342Y-27238095D01*
X95084342Y-27238095D02*
X95179580Y-27285714D01*
X95179580Y-27285714D02*
X95227200Y-27333333D01*
X95227200Y-27333333D02*
X95274819Y-27428571D01*
X95274819Y-27428571D02*
X95274819Y-27714285D01*
X95274819Y-27714285D02*
X95227200Y-27809523D01*
X95227200Y-27809523D02*
X95179580Y-27857142D01*
X94274819Y-26952380D02*
X95274819Y-26619047D01*
X95274819Y-26619047D02*
X94274819Y-26285714D01*
X94274819Y-26047618D02*
X94274819Y-25428571D01*
X94274819Y-25428571D02*
X94655771Y-25761904D01*
X94655771Y-25761904D02*
X94655771Y-25619047D01*
X94655771Y-25619047D02*
X94703390Y-25523809D01*
X94703390Y-25523809D02*
X94751009Y-25476190D01*
X94751009Y-25476190D02*
X94846247Y-25428571D01*
X94846247Y-25428571D02*
X95084342Y-25428571D01*
X95084342Y-25428571D02*
X95179580Y-25476190D01*
X95179580Y-25476190D02*
X95227200Y-25523809D01*
X95227200Y-25523809D02*
X95274819Y-25619047D01*
X95274819Y-25619047D02*
X95274819Y-25904761D01*
X95274819Y-25904761D02*
X95227200Y-25999999D01*
X95227200Y-25999999D02*
X95179580Y-26047618D01*
X5347619Y-48454819D02*
X5347619Y-49169104D01*
X5347619Y-49169104D02*
X5300000Y-49311961D01*
X5300000Y-49311961D02*
X5204762Y-49407200D01*
X5204762Y-49407200D02*
X5061905Y-49454819D01*
X5061905Y-49454819D02*
X4966667Y-49454819D01*
X5585715Y-49550057D02*
X6347619Y-49550057D01*
X6538096Y-49169104D02*
X7014286Y-49169104D01*
X6442858Y-49454819D02*
X6776191Y-48454819D01*
X6776191Y-48454819D02*
X7109524Y-49454819D01*
X7442858Y-48454819D02*
X7442858Y-49264342D01*
X7442858Y-49264342D02*
X7490477Y-49359580D01*
X7490477Y-49359580D02*
X7538096Y-49407200D01*
X7538096Y-49407200D02*
X7633334Y-49454819D01*
X7633334Y-49454819D02*
X7823810Y-49454819D01*
X7823810Y-49454819D02*
X7919048Y-49407200D01*
X7919048Y-49407200D02*
X7966667Y-49359580D01*
X7966667Y-49359580D02*
X8014286Y-49264342D01*
X8014286Y-49264342D02*
X8014286Y-48454819D01*
X8490477Y-49454819D02*
X8490477Y-48454819D01*
X8490477Y-48454819D02*
X8728572Y-48454819D01*
X8728572Y-48454819D02*
X8871429Y-48502438D01*
X8871429Y-48502438D02*
X8966667Y-48597676D01*
X8966667Y-48597676D02*
X9014286Y-48692914D01*
X9014286Y-48692914D02*
X9061905Y-48883390D01*
X9061905Y-48883390D02*
X9061905Y-49026247D01*
X9061905Y-49026247D02*
X9014286Y-49216723D01*
X9014286Y-49216723D02*
X8966667Y-49311961D01*
X8966667Y-49311961D02*
X8871429Y-49407200D01*
X8871429Y-49407200D02*
X8728572Y-49454819D01*
X8728572Y-49454819D02*
X8490477Y-49454819D01*
X9490477Y-49454819D02*
X9490477Y-48454819D01*
X10157143Y-48454819D02*
X10347619Y-48454819D01*
X10347619Y-48454819D02*
X10442857Y-48502438D01*
X10442857Y-48502438D02*
X10538095Y-48597676D01*
X10538095Y-48597676D02*
X10585714Y-48788152D01*
X10585714Y-48788152D02*
X10585714Y-49121485D01*
X10585714Y-49121485D02*
X10538095Y-49311961D01*
X10538095Y-49311961D02*
X10442857Y-49407200D01*
X10442857Y-49407200D02*
X10347619Y-49454819D01*
X10347619Y-49454819D02*
X10157143Y-49454819D01*
X10157143Y-49454819D02*
X10061905Y-49407200D01*
X10061905Y-49407200D02*
X9966667Y-49311961D01*
X9966667Y-49311961D02*
X9919048Y-49121485D01*
X9919048Y-49121485D02*
X9919048Y-48788152D01*
X9919048Y-48788152D02*
X9966667Y-48597676D01*
X9966667Y-48597676D02*
X10061905Y-48502438D01*
X10061905Y-48502438D02*
X10157143Y-48454819D01*
X9804819Y-16738094D02*
X8804819Y-16738094D01*
X8804819Y-16738094D02*
X8804819Y-16499999D01*
X8804819Y-16499999D02*
X8852438Y-16357142D01*
X8852438Y-16357142D02*
X8947676Y-16261904D01*
X8947676Y-16261904D02*
X9042914Y-16214285D01*
X9042914Y-16214285D02*
X9233390Y-16166666D01*
X9233390Y-16166666D02*
X9376247Y-16166666D01*
X9376247Y-16166666D02*
X9566723Y-16214285D01*
X9566723Y-16214285D02*
X9661961Y-16261904D01*
X9661961Y-16261904D02*
X9757200Y-16357142D01*
X9757200Y-16357142D02*
X9804819Y-16499999D01*
X9804819Y-16499999D02*
X9804819Y-16738094D01*
X9138152Y-15309523D02*
X9804819Y-15309523D01*
X8757200Y-15547618D02*
X9471485Y-15785713D01*
X9471485Y-15785713D02*
X9471485Y-15166666D01*
X12804819Y-33904762D02*
X12328628Y-34238095D01*
X12804819Y-34476190D02*
X11804819Y-34476190D01*
X11804819Y-34476190D02*
X11804819Y-34095238D01*
X11804819Y-34095238D02*
X11852438Y-34000000D01*
X11852438Y-34000000D02*
X11900057Y-33952381D01*
X11900057Y-33952381D02*
X11995295Y-33904762D01*
X11995295Y-33904762D02*
X12138152Y-33904762D01*
X12138152Y-33904762D02*
X12233390Y-33952381D01*
X12233390Y-33952381D02*
X12281009Y-34000000D01*
X12281009Y-34000000D02*
X12328628Y-34095238D01*
X12328628Y-34095238D02*
X12328628Y-34476190D01*
X12900057Y-33714286D02*
X12900057Y-32952381D01*
X12804819Y-32238095D02*
X12804819Y-32714285D01*
X12804819Y-32714285D02*
X11804819Y-32714285D01*
X12281009Y-31904761D02*
X12281009Y-31571428D01*
X12804819Y-31428571D02*
X12804819Y-31904761D01*
X12804819Y-31904761D02*
X11804819Y-31904761D01*
X11804819Y-31904761D02*
X11804819Y-31428571D01*
X12804819Y-30999999D02*
X11804819Y-30999999D01*
X11804819Y-30999999D02*
X11804819Y-30761904D01*
X11804819Y-30761904D02*
X11852438Y-30619047D01*
X11852438Y-30619047D02*
X11947676Y-30523809D01*
X11947676Y-30523809D02*
X12042914Y-30476190D01*
X12042914Y-30476190D02*
X12233390Y-30428571D01*
X12233390Y-30428571D02*
X12376247Y-30428571D01*
X12376247Y-30428571D02*
X12566723Y-30476190D01*
X12566723Y-30476190D02*
X12661961Y-30523809D01*
X12661961Y-30523809D02*
X12757200Y-30619047D01*
X12757200Y-30619047D02*
X12804819Y-30761904D01*
X12804819Y-30761904D02*
X12804819Y-30999999D01*
X12233390Y-29857142D02*
X12185771Y-29952380D01*
X12185771Y-29952380D02*
X12138152Y-29999999D01*
X12138152Y-29999999D02*
X12042914Y-30047618D01*
X12042914Y-30047618D02*
X11995295Y-30047618D01*
X11995295Y-30047618D02*
X11900057Y-29999999D01*
X11900057Y-29999999D02*
X11852438Y-29952380D01*
X11852438Y-29952380D02*
X11804819Y-29857142D01*
X11804819Y-29857142D02*
X11804819Y-29666666D01*
X11804819Y-29666666D02*
X11852438Y-29571428D01*
X11852438Y-29571428D02*
X11900057Y-29523809D01*
X11900057Y-29523809D02*
X11995295Y-29476190D01*
X11995295Y-29476190D02*
X12042914Y-29476190D01*
X12042914Y-29476190D02*
X12138152Y-29523809D01*
X12138152Y-29523809D02*
X12185771Y-29571428D01*
X12185771Y-29571428D02*
X12233390Y-29666666D01*
X12233390Y-29666666D02*
X12233390Y-29857142D01*
X12233390Y-29857142D02*
X12281009Y-29952380D01*
X12281009Y-29952380D02*
X12328628Y-29999999D01*
X12328628Y-29999999D02*
X12423866Y-30047618D01*
X12423866Y-30047618D02*
X12614342Y-30047618D01*
X12614342Y-30047618D02*
X12709580Y-29999999D01*
X12709580Y-29999999D02*
X12757200Y-29952380D01*
X12757200Y-29952380D02*
X12804819Y-29857142D01*
X12804819Y-29857142D02*
X12804819Y-29666666D01*
X12804819Y-29666666D02*
X12757200Y-29571428D01*
X12757200Y-29571428D02*
X12709580Y-29523809D01*
X12709580Y-29523809D02*
X12614342Y-29476190D01*
X12614342Y-29476190D02*
X12423866Y-29476190D01*
X12423866Y-29476190D02*
X12328628Y-29523809D01*
X12328628Y-29523809D02*
X12281009Y-29571428D01*
X12281009Y-29571428D02*
X12233390Y-29666666D01*
X93952381Y-29806819D02*
X94523809Y-29806819D01*
X94238095Y-30806819D02*
X94238095Y-29806819D01*
X94857143Y-30806819D02*
X94857143Y-29806819D01*
X94857143Y-29806819D02*
X95238095Y-29806819D01*
X95238095Y-29806819D02*
X95333333Y-29854438D01*
X95333333Y-29854438D02*
X95380952Y-29902057D01*
X95380952Y-29902057D02*
X95428571Y-29997295D01*
X95428571Y-29997295D02*
X95428571Y-30140152D01*
X95428571Y-30140152D02*
X95380952Y-30235390D01*
X95380952Y-30235390D02*
X95333333Y-30283009D01*
X95333333Y-30283009D02*
X95238095Y-30330628D01*
X95238095Y-30330628D02*
X94857143Y-30330628D01*
X95619048Y-30902057D02*
X96380952Y-30902057D01*
X96523810Y-29806819D02*
X97142857Y-29806819D01*
X97142857Y-29806819D02*
X96809524Y-30187771D01*
X96809524Y-30187771D02*
X96952381Y-30187771D01*
X96952381Y-30187771D02*
X97047619Y-30235390D01*
X97047619Y-30235390D02*
X97095238Y-30283009D01*
X97095238Y-30283009D02*
X97142857Y-30378247D01*
X97142857Y-30378247D02*
X97142857Y-30616342D01*
X97142857Y-30616342D02*
X97095238Y-30711580D01*
X97095238Y-30711580D02*
X97047619Y-30759200D01*
X97047619Y-30759200D02*
X96952381Y-30806819D01*
X96952381Y-30806819D02*
X96666667Y-30806819D01*
X96666667Y-30806819D02*
X96571429Y-30759200D01*
X96571429Y-30759200D02*
X96523810Y-30711580D01*
X97428572Y-29806819D02*
X97761905Y-30806819D01*
X97761905Y-30806819D02*
X98095238Y-29806819D01*
X98333334Y-29806819D02*
X98952381Y-29806819D01*
X98952381Y-29806819D02*
X98619048Y-30187771D01*
X98619048Y-30187771D02*
X98761905Y-30187771D01*
X98761905Y-30187771D02*
X98857143Y-30235390D01*
X98857143Y-30235390D02*
X98904762Y-30283009D01*
X98904762Y-30283009D02*
X98952381Y-30378247D01*
X98952381Y-30378247D02*
X98952381Y-30616342D01*
X98952381Y-30616342D02*
X98904762Y-30711580D01*
X98904762Y-30711580D02*
X98857143Y-30759200D01*
X98857143Y-30759200D02*
X98761905Y-30806819D01*
X98761905Y-30806819D02*
X98476191Y-30806819D01*
X98476191Y-30806819D02*
X98380953Y-30759200D01*
X98380953Y-30759200D02*
X98333334Y-30711580D01*
X73785714Y-55554819D02*
X73785714Y-56364342D01*
X73785714Y-56364342D02*
X73833333Y-56459580D01*
X73833333Y-56459580D02*
X73880952Y-56507200D01*
X73880952Y-56507200D02*
X73976190Y-56554819D01*
X73976190Y-56554819D02*
X74166666Y-56554819D01*
X74166666Y-56554819D02*
X74261904Y-56507200D01*
X74261904Y-56507200D02*
X74309523Y-56459580D01*
X74309523Y-56459580D02*
X74357142Y-56364342D01*
X74357142Y-56364342D02*
X74357142Y-55554819D01*
X74595238Y-56650057D02*
X75357142Y-56650057D01*
X75595238Y-56554819D02*
X75595238Y-55554819D01*
X75595238Y-55554819D02*
X75928571Y-56269104D01*
X75928571Y-56269104D02*
X76261904Y-55554819D01*
X76261904Y-55554819D02*
X76261904Y-56554819D01*
X76738095Y-55554819D02*
X76738095Y-56364342D01*
X76738095Y-56364342D02*
X76785714Y-56459580D01*
X76785714Y-56459580D02*
X76833333Y-56507200D01*
X76833333Y-56507200D02*
X76928571Y-56554819D01*
X76928571Y-56554819D02*
X77119047Y-56554819D01*
X77119047Y-56554819D02*
X77214285Y-56507200D01*
X77214285Y-56507200D02*
X77261904Y-56459580D01*
X77261904Y-56459580D02*
X77309523Y-56364342D01*
X77309523Y-56364342D02*
X77309523Y-55554819D01*
X77690476Y-55554819D02*
X78357142Y-56554819D01*
X78357142Y-55554819D02*
X77690476Y-56554819D01*
X78880952Y-55983390D02*
X78785714Y-55935771D01*
X78785714Y-55935771D02*
X78738095Y-55888152D01*
X78738095Y-55888152D02*
X78690476Y-55792914D01*
X78690476Y-55792914D02*
X78690476Y-55745295D01*
X78690476Y-55745295D02*
X78738095Y-55650057D01*
X78738095Y-55650057D02*
X78785714Y-55602438D01*
X78785714Y-55602438D02*
X78880952Y-55554819D01*
X78880952Y-55554819D02*
X79071428Y-55554819D01*
X79071428Y-55554819D02*
X79166666Y-55602438D01*
X79166666Y-55602438D02*
X79214285Y-55650057D01*
X79214285Y-55650057D02*
X79261904Y-55745295D01*
X79261904Y-55745295D02*
X79261904Y-55792914D01*
X79261904Y-55792914D02*
X79214285Y-55888152D01*
X79214285Y-55888152D02*
X79166666Y-55935771D01*
X79166666Y-55935771D02*
X79071428Y-55983390D01*
X79071428Y-55983390D02*
X78880952Y-55983390D01*
X78880952Y-55983390D02*
X78785714Y-56031009D01*
X78785714Y-56031009D02*
X78738095Y-56078628D01*
X78738095Y-56078628D02*
X78690476Y-56173866D01*
X78690476Y-56173866D02*
X78690476Y-56364342D01*
X78690476Y-56364342D02*
X78738095Y-56459580D01*
X78738095Y-56459580D02*
X78785714Y-56507200D01*
X78785714Y-56507200D02*
X78880952Y-56554819D01*
X78880952Y-56554819D02*
X79071428Y-56554819D01*
X79071428Y-56554819D02*
X79166666Y-56507200D01*
X79166666Y-56507200D02*
X79214285Y-56459580D01*
X79214285Y-56459580D02*
X79261904Y-56364342D01*
X79261904Y-56364342D02*
X79261904Y-56173866D01*
X79261904Y-56173866D02*
X79214285Y-56078628D01*
X79214285Y-56078628D02*
X79166666Y-56031009D01*
X79166666Y-56031009D02*
X79071428Y-55983390D01*
X62999999Y-76304819D02*
X62666666Y-75828628D01*
X62428571Y-76304819D02*
X62428571Y-75304819D01*
X62428571Y-75304819D02*
X62809523Y-75304819D01*
X62809523Y-75304819D02*
X62904761Y-75352438D01*
X62904761Y-75352438D02*
X62952380Y-75400057D01*
X62952380Y-75400057D02*
X62999999Y-75495295D01*
X62999999Y-75495295D02*
X62999999Y-75638152D01*
X62999999Y-75638152D02*
X62952380Y-75733390D01*
X62952380Y-75733390D02*
X62904761Y-75781009D01*
X62904761Y-75781009D02*
X62809523Y-75828628D01*
X62809523Y-75828628D02*
X62428571Y-75828628D01*
X63190476Y-76400057D02*
X63952380Y-76400057D01*
X64142857Y-76257200D02*
X64285714Y-76304819D01*
X64285714Y-76304819D02*
X64523809Y-76304819D01*
X64523809Y-76304819D02*
X64619047Y-76257200D01*
X64619047Y-76257200D02*
X64666666Y-76209580D01*
X64666666Y-76209580D02*
X64714285Y-76114342D01*
X64714285Y-76114342D02*
X64714285Y-76019104D01*
X64714285Y-76019104D02*
X64666666Y-75923866D01*
X64666666Y-75923866D02*
X64619047Y-75876247D01*
X64619047Y-75876247D02*
X64523809Y-75828628D01*
X64523809Y-75828628D02*
X64333333Y-75781009D01*
X64333333Y-75781009D02*
X64238095Y-75733390D01*
X64238095Y-75733390D02*
X64190476Y-75685771D01*
X64190476Y-75685771D02*
X64142857Y-75590533D01*
X64142857Y-75590533D02*
X64142857Y-75495295D01*
X64142857Y-75495295D02*
X64190476Y-75400057D01*
X64190476Y-75400057D02*
X64238095Y-75352438D01*
X64238095Y-75352438D02*
X64333333Y-75304819D01*
X64333333Y-75304819D02*
X64571428Y-75304819D01*
X64571428Y-75304819D02*
X64714285Y-75352438D01*
X65142857Y-76304819D02*
X65142857Y-75304819D01*
X65142857Y-75304819D02*
X65523809Y-75304819D01*
X65523809Y-75304819D02*
X65619047Y-75352438D01*
X65619047Y-75352438D02*
X65666666Y-75400057D01*
X65666666Y-75400057D02*
X65714285Y-75495295D01*
X65714285Y-75495295D02*
X65714285Y-75638152D01*
X65714285Y-75638152D02*
X65666666Y-75733390D01*
X65666666Y-75733390D02*
X65619047Y-75781009D01*
X65619047Y-75781009D02*
X65523809Y-75828628D01*
X65523809Y-75828628D02*
X65142857Y-75828628D01*
X66666666Y-76304819D02*
X66095238Y-76304819D01*
X66380952Y-76304819D02*
X66380952Y-75304819D01*
X66380952Y-75304819D02*
X66285714Y-75447676D01*
X66285714Y-75447676D02*
X66190476Y-75542914D01*
X66190476Y-75542914D02*
X66095238Y-75590533D01*
X67523809Y-75638152D02*
X67523809Y-76304819D01*
X67285714Y-75257200D02*
X67047619Y-75971485D01*
X67047619Y-75971485D02*
X67666666Y-75971485D01*
X70781905Y-53106819D02*
X71353333Y-53106819D01*
X71067619Y-54106819D02*
X71067619Y-53106819D01*
X71686667Y-54106819D02*
X71686667Y-53106819D01*
X71686667Y-53106819D02*
X72067619Y-53106819D01*
X72067619Y-53106819D02*
X72162857Y-53154438D01*
X72162857Y-53154438D02*
X72210476Y-53202057D01*
X72210476Y-53202057D02*
X72258095Y-53297295D01*
X72258095Y-53297295D02*
X72258095Y-53440152D01*
X72258095Y-53440152D02*
X72210476Y-53535390D01*
X72210476Y-53535390D02*
X72162857Y-53583009D01*
X72162857Y-53583009D02*
X72067619Y-53630628D01*
X72067619Y-53630628D02*
X71686667Y-53630628D01*
X72448572Y-54202057D02*
X73210476Y-54202057D01*
X74020000Y-54011580D02*
X73972381Y-54059200D01*
X73972381Y-54059200D02*
X73829524Y-54106819D01*
X73829524Y-54106819D02*
X73734286Y-54106819D01*
X73734286Y-54106819D02*
X73591429Y-54059200D01*
X73591429Y-54059200D02*
X73496191Y-53963961D01*
X73496191Y-53963961D02*
X73448572Y-53868723D01*
X73448572Y-53868723D02*
X73400953Y-53678247D01*
X73400953Y-53678247D02*
X73400953Y-53535390D01*
X73400953Y-53535390D02*
X73448572Y-53344914D01*
X73448572Y-53344914D02*
X73496191Y-53249676D01*
X73496191Y-53249676D02*
X73591429Y-53154438D01*
X73591429Y-53154438D02*
X73734286Y-53106819D01*
X73734286Y-53106819D02*
X73829524Y-53106819D01*
X73829524Y-53106819D02*
X73972381Y-53154438D01*
X73972381Y-53154438D02*
X74020000Y-53202057D01*
X74639048Y-53106819D02*
X74829524Y-53106819D01*
X74829524Y-53106819D02*
X74924762Y-53154438D01*
X74924762Y-53154438D02*
X75020000Y-53249676D01*
X75020000Y-53249676D02*
X75067619Y-53440152D01*
X75067619Y-53440152D02*
X75067619Y-53773485D01*
X75067619Y-53773485D02*
X75020000Y-53963961D01*
X75020000Y-53963961D02*
X74924762Y-54059200D01*
X74924762Y-54059200D02*
X74829524Y-54106819D01*
X74829524Y-54106819D02*
X74639048Y-54106819D01*
X74639048Y-54106819D02*
X74543810Y-54059200D01*
X74543810Y-54059200D02*
X74448572Y-53963961D01*
X74448572Y-53963961D02*
X74400953Y-53773485D01*
X74400953Y-53773485D02*
X74400953Y-53440152D01*
X74400953Y-53440152D02*
X74448572Y-53249676D01*
X74448572Y-53249676D02*
X74543810Y-53154438D01*
X74543810Y-53154438D02*
X74639048Y-53106819D01*
X75496191Y-54106819D02*
X75496191Y-53106819D01*
X75496191Y-53106819D02*
X75829524Y-53821104D01*
X75829524Y-53821104D02*
X76162857Y-53106819D01*
X76162857Y-53106819D02*
X76162857Y-54106819D01*
X76781905Y-53535390D02*
X76686667Y-53487771D01*
X76686667Y-53487771D02*
X76639048Y-53440152D01*
X76639048Y-53440152D02*
X76591429Y-53344914D01*
X76591429Y-53344914D02*
X76591429Y-53297295D01*
X76591429Y-53297295D02*
X76639048Y-53202057D01*
X76639048Y-53202057D02*
X76686667Y-53154438D01*
X76686667Y-53154438D02*
X76781905Y-53106819D01*
X76781905Y-53106819D02*
X76972381Y-53106819D01*
X76972381Y-53106819D02*
X77067619Y-53154438D01*
X77067619Y-53154438D02*
X77115238Y-53202057D01*
X77115238Y-53202057D02*
X77162857Y-53297295D01*
X77162857Y-53297295D02*
X77162857Y-53344914D01*
X77162857Y-53344914D02*
X77115238Y-53440152D01*
X77115238Y-53440152D02*
X77067619Y-53487771D01*
X77067619Y-53487771D02*
X76972381Y-53535390D01*
X76972381Y-53535390D02*
X76781905Y-53535390D01*
X76781905Y-53535390D02*
X76686667Y-53583009D01*
X76686667Y-53583009D02*
X76639048Y-53630628D01*
X76639048Y-53630628D02*
X76591429Y-53725866D01*
X76591429Y-53725866D02*
X76591429Y-53916342D01*
X76591429Y-53916342D02*
X76639048Y-54011580D01*
X76639048Y-54011580D02*
X76686667Y-54059200D01*
X76686667Y-54059200D02*
X76781905Y-54106819D01*
X76781905Y-54106819D02*
X76972381Y-54106819D01*
X76972381Y-54106819D02*
X77067619Y-54059200D01*
X77067619Y-54059200D02*
X77115238Y-54011580D01*
X77115238Y-54011580D02*
X77162857Y-53916342D01*
X77162857Y-53916342D02*
X77162857Y-53725866D01*
X77162857Y-53725866D02*
X77115238Y-53630628D01*
X77115238Y-53630628D02*
X77067619Y-53583009D01*
X77067619Y-53583009D02*
X76972381Y-53535390D01*
X89523809Y-70804819D02*
X89190476Y-70328628D01*
X88952381Y-70804819D02*
X88952381Y-69804819D01*
X88952381Y-69804819D02*
X89333333Y-69804819D01*
X89333333Y-69804819D02*
X89428571Y-69852438D01*
X89428571Y-69852438D02*
X89476190Y-69900057D01*
X89476190Y-69900057D02*
X89523809Y-69995295D01*
X89523809Y-69995295D02*
X89523809Y-70138152D01*
X89523809Y-70138152D02*
X89476190Y-70233390D01*
X89476190Y-70233390D02*
X89428571Y-70281009D01*
X89428571Y-70281009D02*
X89333333Y-70328628D01*
X89333333Y-70328628D02*
X88952381Y-70328628D01*
X89714286Y-70900057D02*
X90476190Y-70900057D01*
X91190476Y-70804819D02*
X90714286Y-70804819D01*
X90714286Y-70804819D02*
X90714286Y-69804819D01*
X91714286Y-69804819D02*
X91904762Y-69804819D01*
X91904762Y-69804819D02*
X92000000Y-69852438D01*
X92000000Y-69852438D02*
X92095238Y-69947676D01*
X92095238Y-69947676D02*
X92142857Y-70138152D01*
X92142857Y-70138152D02*
X92142857Y-70471485D01*
X92142857Y-70471485D02*
X92095238Y-70661961D01*
X92095238Y-70661961D02*
X92000000Y-70757200D01*
X92000000Y-70757200D02*
X91904762Y-70804819D01*
X91904762Y-70804819D02*
X91714286Y-70804819D01*
X91714286Y-70804819D02*
X91619048Y-70757200D01*
X91619048Y-70757200D02*
X91523810Y-70661961D01*
X91523810Y-70661961D02*
X91476191Y-70471485D01*
X91476191Y-70471485D02*
X91476191Y-70138152D01*
X91476191Y-70138152D02*
X91523810Y-69947676D01*
X91523810Y-69947676D02*
X91619048Y-69852438D01*
X91619048Y-69852438D02*
X91714286Y-69804819D01*
X93095238Y-70804819D02*
X92523810Y-70804819D01*
X92809524Y-70804819D02*
X92809524Y-69804819D01*
X92809524Y-69804819D02*
X92714286Y-69947676D01*
X92714286Y-69947676D02*
X92619048Y-70042914D01*
X92619048Y-70042914D02*
X92523810Y-70090533D01*
X11023809Y-63806819D02*
X11595237Y-63806819D01*
X11309523Y-64806819D02*
X11309523Y-63806819D01*
X11928571Y-64806819D02*
X11928571Y-63806819D01*
X11928571Y-63806819D02*
X12309523Y-63806819D01*
X12309523Y-63806819D02*
X12404761Y-63854438D01*
X12404761Y-63854438D02*
X12452380Y-63902057D01*
X12452380Y-63902057D02*
X12499999Y-63997295D01*
X12499999Y-63997295D02*
X12499999Y-64140152D01*
X12499999Y-64140152D02*
X12452380Y-64235390D01*
X12452380Y-64235390D02*
X12404761Y-64283009D01*
X12404761Y-64283009D02*
X12309523Y-64330628D01*
X12309523Y-64330628D02*
X11928571Y-64330628D01*
X12690476Y-64902057D02*
X13452380Y-64902057D01*
X13642857Y-64521104D02*
X14119047Y-64521104D01*
X13547619Y-64806819D02*
X13880952Y-63806819D01*
X13880952Y-63806819D02*
X14214285Y-64806819D01*
X14452381Y-63806819D02*
X15071428Y-63806819D01*
X15071428Y-63806819D02*
X14738095Y-64187771D01*
X14738095Y-64187771D02*
X14880952Y-64187771D01*
X14880952Y-64187771D02*
X14976190Y-64235390D01*
X14976190Y-64235390D02*
X15023809Y-64283009D01*
X15023809Y-64283009D02*
X15071428Y-64378247D01*
X15071428Y-64378247D02*
X15071428Y-64616342D01*
X15071428Y-64616342D02*
X15023809Y-64711580D01*
X15023809Y-64711580D02*
X14976190Y-64759200D01*
X14976190Y-64759200D02*
X14880952Y-64806819D01*
X14880952Y-64806819D02*
X14595238Y-64806819D01*
X14595238Y-64806819D02*
X14500000Y-64759200D01*
X14500000Y-64759200D02*
X14452381Y-64711580D01*
X15357143Y-63806819D02*
X15690476Y-64806819D01*
X15690476Y-64806819D02*
X16023809Y-63806819D01*
X16261905Y-63806819D02*
X16880952Y-63806819D01*
X16880952Y-63806819D02*
X16547619Y-64187771D01*
X16547619Y-64187771D02*
X16690476Y-64187771D01*
X16690476Y-64187771D02*
X16785714Y-64235390D01*
X16785714Y-64235390D02*
X16833333Y-64283009D01*
X16833333Y-64283009D02*
X16880952Y-64378247D01*
X16880952Y-64378247D02*
X16880952Y-64616342D01*
X16880952Y-64616342D02*
X16833333Y-64711580D01*
X16833333Y-64711580D02*
X16785714Y-64759200D01*
X16785714Y-64759200D02*
X16690476Y-64806819D01*
X16690476Y-64806819D02*
X16404762Y-64806819D01*
X16404762Y-64806819D02*
X16309524Y-64759200D01*
X16309524Y-64759200D02*
X16261905Y-64711580D01*
X31094819Y-57805238D02*
X30618628Y-58138571D01*
X31094819Y-58376666D02*
X30094819Y-58376666D01*
X30094819Y-58376666D02*
X30094819Y-57995714D01*
X30094819Y-57995714D02*
X30142438Y-57900476D01*
X30142438Y-57900476D02*
X30190057Y-57852857D01*
X30190057Y-57852857D02*
X30285295Y-57805238D01*
X30285295Y-57805238D02*
X30428152Y-57805238D01*
X30428152Y-57805238D02*
X30523390Y-57852857D01*
X30523390Y-57852857D02*
X30571009Y-57900476D01*
X30571009Y-57900476D02*
X30618628Y-57995714D01*
X30618628Y-57995714D02*
X30618628Y-58376666D01*
X30094819Y-57519523D02*
X31094819Y-57186190D01*
X31094819Y-57186190D02*
X30094819Y-56852857D01*
X31094819Y-55995714D02*
X31094819Y-56567142D01*
X31094819Y-56281428D02*
X30094819Y-56281428D01*
X30094819Y-56281428D02*
X30237676Y-56376666D01*
X30237676Y-56376666D02*
X30332914Y-56471904D01*
X30332914Y-56471904D02*
X30380533Y-56567142D01*
X12804819Y-13904762D02*
X12328628Y-14238095D01*
X12804819Y-14476190D02*
X11804819Y-14476190D01*
X11804819Y-14476190D02*
X11804819Y-14095238D01*
X11804819Y-14095238D02*
X11852438Y-14000000D01*
X11852438Y-14000000D02*
X11900057Y-13952381D01*
X11900057Y-13952381D02*
X11995295Y-13904762D01*
X11995295Y-13904762D02*
X12138152Y-13904762D01*
X12138152Y-13904762D02*
X12233390Y-13952381D01*
X12233390Y-13952381D02*
X12281009Y-14000000D01*
X12281009Y-14000000D02*
X12328628Y-14095238D01*
X12328628Y-14095238D02*
X12328628Y-14476190D01*
X12900057Y-13714286D02*
X12900057Y-12952381D01*
X12804819Y-12238095D02*
X12804819Y-12714285D01*
X12804819Y-12714285D02*
X11804819Y-12714285D01*
X12281009Y-11904761D02*
X12281009Y-11571428D01*
X12804819Y-11428571D02*
X12804819Y-11904761D01*
X12804819Y-11904761D02*
X11804819Y-11904761D01*
X11804819Y-11904761D02*
X11804819Y-11428571D01*
X12804819Y-10999999D02*
X11804819Y-10999999D01*
X11804819Y-10999999D02*
X11804819Y-10761904D01*
X11804819Y-10761904D02*
X11852438Y-10619047D01*
X11852438Y-10619047D02*
X11947676Y-10523809D01*
X11947676Y-10523809D02*
X12042914Y-10476190D01*
X12042914Y-10476190D02*
X12233390Y-10428571D01*
X12233390Y-10428571D02*
X12376247Y-10428571D01*
X12376247Y-10428571D02*
X12566723Y-10476190D01*
X12566723Y-10476190D02*
X12661961Y-10523809D01*
X12661961Y-10523809D02*
X12757200Y-10619047D01*
X12757200Y-10619047D02*
X12804819Y-10761904D01*
X12804819Y-10761904D02*
X12804819Y-10999999D01*
X11804819Y-10095237D02*
X11804819Y-9476190D01*
X11804819Y-9476190D02*
X12185771Y-9809523D01*
X12185771Y-9809523D02*
X12185771Y-9666666D01*
X12185771Y-9666666D02*
X12233390Y-9571428D01*
X12233390Y-9571428D02*
X12281009Y-9523809D01*
X12281009Y-9523809D02*
X12376247Y-9476190D01*
X12376247Y-9476190D02*
X12614342Y-9476190D01*
X12614342Y-9476190D02*
X12709580Y-9523809D01*
X12709580Y-9523809D02*
X12757200Y-9571428D01*
X12757200Y-9571428D02*
X12804819Y-9666666D01*
X12804819Y-9666666D02*
X12804819Y-9952380D01*
X12804819Y-9952380D02*
X12757200Y-10047618D01*
X12757200Y-10047618D02*
X12709580Y-10095237D01*
X6159580Y-19088809D02*
X6207200Y-19136428D01*
X6207200Y-19136428D02*
X6254819Y-19279285D01*
X6254819Y-19279285D02*
X6254819Y-19374523D01*
X6254819Y-19374523D02*
X6207200Y-19517380D01*
X6207200Y-19517380D02*
X6111961Y-19612618D01*
X6111961Y-19612618D02*
X6016723Y-19660237D01*
X6016723Y-19660237D02*
X5826247Y-19707856D01*
X5826247Y-19707856D02*
X5683390Y-19707856D01*
X5683390Y-19707856D02*
X5492914Y-19660237D01*
X5492914Y-19660237D02*
X5397676Y-19612618D01*
X5397676Y-19612618D02*
X5302438Y-19517380D01*
X5302438Y-19517380D02*
X5254819Y-19374523D01*
X5254819Y-19374523D02*
X5254819Y-19279285D01*
X5254819Y-19279285D02*
X5302438Y-19136428D01*
X5302438Y-19136428D02*
X5350057Y-19088809D01*
X6350057Y-18898333D02*
X6350057Y-18136428D01*
X6207200Y-17945951D02*
X6254819Y-17803094D01*
X6254819Y-17803094D02*
X6254819Y-17564999D01*
X6254819Y-17564999D02*
X6207200Y-17469761D01*
X6207200Y-17469761D02*
X6159580Y-17422142D01*
X6159580Y-17422142D02*
X6064342Y-17374523D01*
X6064342Y-17374523D02*
X5969104Y-17374523D01*
X5969104Y-17374523D02*
X5873866Y-17422142D01*
X5873866Y-17422142D02*
X5826247Y-17469761D01*
X5826247Y-17469761D02*
X5778628Y-17564999D01*
X5778628Y-17564999D02*
X5731009Y-17755475D01*
X5731009Y-17755475D02*
X5683390Y-17850713D01*
X5683390Y-17850713D02*
X5635771Y-17898332D01*
X5635771Y-17898332D02*
X5540533Y-17945951D01*
X5540533Y-17945951D02*
X5445295Y-17945951D01*
X5445295Y-17945951D02*
X5350057Y-17898332D01*
X5350057Y-17898332D02*
X5302438Y-17850713D01*
X5302438Y-17850713D02*
X5254819Y-17755475D01*
X5254819Y-17755475D02*
X5254819Y-17517380D01*
X5254819Y-17517380D02*
X5302438Y-17374523D01*
X6254819Y-16374523D02*
X5778628Y-16707856D01*
X6254819Y-16945951D02*
X5254819Y-16945951D01*
X5254819Y-16945951D02*
X5254819Y-16564999D01*
X5254819Y-16564999D02*
X5302438Y-16469761D01*
X5302438Y-16469761D02*
X5350057Y-16422142D01*
X5350057Y-16422142D02*
X5445295Y-16374523D01*
X5445295Y-16374523D02*
X5588152Y-16374523D01*
X5588152Y-16374523D02*
X5683390Y-16422142D01*
X5683390Y-16422142D02*
X5731009Y-16469761D01*
X5731009Y-16469761D02*
X5778628Y-16564999D01*
X5778628Y-16564999D02*
X5778628Y-16945951D01*
X5350057Y-15993570D02*
X5302438Y-15945951D01*
X5302438Y-15945951D02*
X5254819Y-15850713D01*
X5254819Y-15850713D02*
X5254819Y-15612618D01*
X5254819Y-15612618D02*
X5302438Y-15517380D01*
X5302438Y-15517380D02*
X5350057Y-15469761D01*
X5350057Y-15469761D02*
X5445295Y-15422142D01*
X5445295Y-15422142D02*
X5540533Y-15422142D01*
X5540533Y-15422142D02*
X5683390Y-15469761D01*
X5683390Y-15469761D02*
X6254819Y-16041189D01*
X6254819Y-16041189D02*
X6254819Y-15422142D01*
X9804819Y-4738094D02*
X8804819Y-4738094D01*
X8804819Y-4738094D02*
X8804819Y-4499999D01*
X8804819Y-4499999D02*
X8852438Y-4357142D01*
X8852438Y-4357142D02*
X8947676Y-4261904D01*
X8947676Y-4261904D02*
X9042914Y-4214285D01*
X9042914Y-4214285D02*
X9233390Y-4166666D01*
X9233390Y-4166666D02*
X9376247Y-4166666D01*
X9376247Y-4166666D02*
X9566723Y-4214285D01*
X9566723Y-4214285D02*
X9661961Y-4261904D01*
X9661961Y-4261904D02*
X9757200Y-4357142D01*
X9757200Y-4357142D02*
X9804819Y-4499999D01*
X9804819Y-4499999D02*
X9804819Y-4738094D01*
X9804819Y-3214285D02*
X9804819Y-3785713D01*
X9804819Y-3499999D02*
X8804819Y-3499999D01*
X8804819Y-3499999D02*
X8947676Y-3595237D01*
X8947676Y-3595237D02*
X9042914Y-3690475D01*
X9042914Y-3690475D02*
X9090533Y-3785713D01*
X6159580Y-4448809D02*
X6207200Y-4496428D01*
X6207200Y-4496428D02*
X6254819Y-4639285D01*
X6254819Y-4639285D02*
X6254819Y-4734523D01*
X6254819Y-4734523D02*
X6207200Y-4877380D01*
X6207200Y-4877380D02*
X6111961Y-4972618D01*
X6111961Y-4972618D02*
X6016723Y-5020237D01*
X6016723Y-5020237D02*
X5826247Y-5067856D01*
X5826247Y-5067856D02*
X5683390Y-5067856D01*
X5683390Y-5067856D02*
X5492914Y-5020237D01*
X5492914Y-5020237D02*
X5397676Y-4972618D01*
X5397676Y-4972618D02*
X5302438Y-4877380D01*
X5302438Y-4877380D02*
X5254819Y-4734523D01*
X5254819Y-4734523D02*
X5254819Y-4639285D01*
X5254819Y-4639285D02*
X5302438Y-4496428D01*
X5302438Y-4496428D02*
X5350057Y-4448809D01*
X6350057Y-4258333D02*
X6350057Y-3496428D01*
X6207200Y-3305951D02*
X6254819Y-3163094D01*
X6254819Y-3163094D02*
X6254819Y-2924999D01*
X6254819Y-2924999D02*
X6207200Y-2829761D01*
X6207200Y-2829761D02*
X6159580Y-2782142D01*
X6159580Y-2782142D02*
X6064342Y-2734523D01*
X6064342Y-2734523D02*
X5969104Y-2734523D01*
X5969104Y-2734523D02*
X5873866Y-2782142D01*
X5873866Y-2782142D02*
X5826247Y-2829761D01*
X5826247Y-2829761D02*
X5778628Y-2924999D01*
X5778628Y-2924999D02*
X5731009Y-3115475D01*
X5731009Y-3115475D02*
X5683390Y-3210713D01*
X5683390Y-3210713D02*
X5635771Y-3258332D01*
X5635771Y-3258332D02*
X5540533Y-3305951D01*
X5540533Y-3305951D02*
X5445295Y-3305951D01*
X5445295Y-3305951D02*
X5350057Y-3258332D01*
X5350057Y-3258332D02*
X5302438Y-3210713D01*
X5302438Y-3210713D02*
X5254819Y-3115475D01*
X5254819Y-3115475D02*
X5254819Y-2877380D01*
X5254819Y-2877380D02*
X5302438Y-2734523D01*
X6254819Y-1734523D02*
X5778628Y-2067856D01*
X6254819Y-2305951D02*
X5254819Y-2305951D01*
X5254819Y-2305951D02*
X5254819Y-1924999D01*
X5254819Y-1924999D02*
X5302438Y-1829761D01*
X5302438Y-1829761D02*
X5350057Y-1782142D01*
X5350057Y-1782142D02*
X5445295Y-1734523D01*
X5445295Y-1734523D02*
X5588152Y-1734523D01*
X5588152Y-1734523D02*
X5683390Y-1782142D01*
X5683390Y-1782142D02*
X5731009Y-1829761D01*
X5731009Y-1829761D02*
X5778628Y-1924999D01*
X5778628Y-1924999D02*
X5778628Y-2305951D01*
X6254819Y-782142D02*
X6254819Y-1353570D01*
X6254819Y-1067856D02*
X5254819Y-1067856D01*
X5254819Y-1067856D02*
X5397676Y-1163094D01*
X5397676Y-1163094D02*
X5492914Y-1258332D01*
X5492914Y-1258332D02*
X5540533Y-1353570D01*
X9804819Y-28738094D02*
X8804819Y-28738094D01*
X8804819Y-28738094D02*
X8804819Y-28499999D01*
X8804819Y-28499999D02*
X8852438Y-28357142D01*
X8852438Y-28357142D02*
X8947676Y-28261904D01*
X8947676Y-28261904D02*
X9042914Y-28214285D01*
X9042914Y-28214285D02*
X9233390Y-28166666D01*
X9233390Y-28166666D02*
X9376247Y-28166666D01*
X9376247Y-28166666D02*
X9566723Y-28214285D01*
X9566723Y-28214285D02*
X9661961Y-28261904D01*
X9661961Y-28261904D02*
X9757200Y-28357142D01*
X9757200Y-28357142D02*
X9804819Y-28499999D01*
X9804819Y-28499999D02*
X9804819Y-28738094D01*
X8804819Y-27833332D02*
X8804819Y-27166666D01*
X8804819Y-27166666D02*
X9804819Y-27595237D01*
X12804819Y-29904762D02*
X12328628Y-30238095D01*
X12804819Y-30476190D02*
X11804819Y-30476190D01*
X11804819Y-30476190D02*
X11804819Y-30095238D01*
X11804819Y-30095238D02*
X11852438Y-30000000D01*
X11852438Y-30000000D02*
X11900057Y-29952381D01*
X11900057Y-29952381D02*
X11995295Y-29904762D01*
X11995295Y-29904762D02*
X12138152Y-29904762D01*
X12138152Y-29904762D02*
X12233390Y-29952381D01*
X12233390Y-29952381D02*
X12281009Y-30000000D01*
X12281009Y-30000000D02*
X12328628Y-30095238D01*
X12328628Y-30095238D02*
X12328628Y-30476190D01*
X12900057Y-29714286D02*
X12900057Y-28952381D01*
X12804819Y-28238095D02*
X12804819Y-28714285D01*
X12804819Y-28714285D02*
X11804819Y-28714285D01*
X12281009Y-27904761D02*
X12281009Y-27571428D01*
X12804819Y-27428571D02*
X12804819Y-27904761D01*
X12804819Y-27904761D02*
X11804819Y-27904761D01*
X11804819Y-27904761D02*
X11804819Y-27428571D01*
X12804819Y-26999999D02*
X11804819Y-26999999D01*
X11804819Y-26999999D02*
X11804819Y-26761904D01*
X11804819Y-26761904D02*
X11852438Y-26619047D01*
X11852438Y-26619047D02*
X11947676Y-26523809D01*
X11947676Y-26523809D02*
X12042914Y-26476190D01*
X12042914Y-26476190D02*
X12233390Y-26428571D01*
X12233390Y-26428571D02*
X12376247Y-26428571D01*
X12376247Y-26428571D02*
X12566723Y-26476190D01*
X12566723Y-26476190D02*
X12661961Y-26523809D01*
X12661961Y-26523809D02*
X12757200Y-26619047D01*
X12757200Y-26619047D02*
X12804819Y-26761904D01*
X12804819Y-26761904D02*
X12804819Y-26999999D01*
X11804819Y-26095237D02*
X11804819Y-25428571D01*
X11804819Y-25428571D02*
X12804819Y-25857142D01*
X87409726Y-10397143D02*
X88437821Y-10397143D01*
X88437821Y-10397143D02*
X88558773Y-10336666D01*
X88558773Y-10336666D02*
X88619250Y-10276190D01*
X88619250Y-10276190D02*
X88679726Y-10155238D01*
X88679726Y-10155238D02*
X88679726Y-9913333D01*
X88679726Y-9913333D02*
X88619250Y-9792381D01*
X88619250Y-9792381D02*
X88558773Y-9731904D01*
X88558773Y-9731904D02*
X88437821Y-9671428D01*
X88437821Y-9671428D02*
X87409726Y-9671428D01*
X88800678Y-9369048D02*
X88800678Y-8401428D01*
X88619250Y-8159524D02*
X88679726Y-7978095D01*
X88679726Y-7978095D02*
X88679726Y-7675714D01*
X88679726Y-7675714D02*
X88619250Y-7554762D01*
X88619250Y-7554762D02*
X88558773Y-7494286D01*
X88558773Y-7494286D02*
X88437821Y-7433809D01*
X88437821Y-7433809D02*
X88316869Y-7433809D01*
X88316869Y-7433809D02*
X88195916Y-7494286D01*
X88195916Y-7494286D02*
X88135440Y-7554762D01*
X88135440Y-7554762D02*
X88074964Y-7675714D01*
X88074964Y-7675714D02*
X88014488Y-7917619D01*
X88014488Y-7917619D02*
X87954011Y-8038571D01*
X87954011Y-8038571D02*
X87893535Y-8099048D01*
X87893535Y-8099048D02*
X87772583Y-8159524D01*
X87772583Y-8159524D02*
X87651630Y-8159524D01*
X87651630Y-8159524D02*
X87530678Y-8099048D01*
X87530678Y-8099048D02*
X87470202Y-8038571D01*
X87470202Y-8038571D02*
X87409726Y-7917619D01*
X87409726Y-7917619D02*
X87409726Y-7615238D01*
X87409726Y-7615238D02*
X87470202Y-7433809D01*
X88679726Y-6889524D02*
X87409726Y-6889524D01*
X87409726Y-6889524D02*
X88316869Y-6466190D01*
X88316869Y-6466190D02*
X87409726Y-6042857D01*
X87409726Y-6042857D02*
X88679726Y-6042857D01*
D11*
X83365032Y-30320667D02*
X83365032Y-29152267D01*
X83921413Y-30320667D02*
X83921413Y-29152267D01*
X83921413Y-29152267D02*
X84589070Y-30320667D01*
X84589070Y-30320667D02*
X84589070Y-29152267D01*
X85089813Y-30265029D02*
X85256727Y-30320667D01*
X85256727Y-30320667D02*
X85534918Y-30320667D01*
X85534918Y-30320667D02*
X85646194Y-30265029D01*
X85646194Y-30265029D02*
X85701832Y-30209390D01*
X85701832Y-30209390D02*
X85757470Y-30098114D01*
X85757470Y-30098114D02*
X85757470Y-29986838D01*
X85757470Y-29986838D02*
X85701832Y-29875562D01*
X85701832Y-29875562D02*
X85646194Y-29819924D01*
X85646194Y-29819924D02*
X85534918Y-29764286D01*
X85534918Y-29764286D02*
X85312365Y-29708648D01*
X85312365Y-29708648D02*
X85201089Y-29653009D01*
X85201089Y-29653009D02*
X85145451Y-29597371D01*
X85145451Y-29597371D02*
X85089813Y-29486095D01*
X85089813Y-29486095D02*
X85089813Y-29374819D01*
X85089813Y-29374819D02*
X85145451Y-29263543D01*
X85145451Y-29263543D02*
X85201089Y-29207905D01*
X85201089Y-29207905D02*
X85312365Y-29152267D01*
X85312365Y-29152267D02*
X85590556Y-29152267D01*
X85590556Y-29152267D02*
X85757470Y-29207905D01*
X86091299Y-29152267D02*
X86758956Y-29152267D01*
X86425127Y-30320667D02*
X86425127Y-29152267D01*
X87092785Y-29986838D02*
X87649166Y-29986838D01*
X86981509Y-30320667D02*
X87370975Y-29152267D01*
X87370975Y-29152267D02*
X87760442Y-30320667D01*
X88706290Y-30320667D02*
X88149909Y-30320667D01*
X88149909Y-30320667D02*
X88149909Y-29152267D01*
X89652138Y-30320667D02*
X89095757Y-30320667D01*
X89095757Y-30320667D02*
X89095757Y-29152267D01*
X91154367Y-29152267D02*
X91376920Y-29152267D01*
X91376920Y-29152267D02*
X91488196Y-29207905D01*
X91488196Y-29207905D02*
X91599472Y-29319181D01*
X91599472Y-29319181D02*
X91655110Y-29541733D01*
X91655110Y-29541733D02*
X91655110Y-29931200D01*
X91655110Y-29931200D02*
X91599472Y-30153752D01*
X91599472Y-30153752D02*
X91488196Y-30265029D01*
X91488196Y-30265029D02*
X91376920Y-30320667D01*
X91376920Y-30320667D02*
X91154367Y-30320667D01*
X91154367Y-30320667D02*
X91043091Y-30265029D01*
X91043091Y-30265029D02*
X90931815Y-30153752D01*
X90931815Y-30153752D02*
X90876177Y-29931200D01*
X90876177Y-29931200D02*
X90876177Y-29541733D01*
X90876177Y-29541733D02*
X90931815Y-29319181D01*
X90931815Y-29319181D02*
X91043091Y-29207905D01*
X91043091Y-29207905D02*
X91154367Y-29152267D01*
X92155853Y-30320667D02*
X92155853Y-29152267D01*
X92155853Y-29152267D02*
X92823510Y-30320667D01*
X92823510Y-30320667D02*
X92823510Y-29152267D01*
X83198118Y-31033326D02*
X83865775Y-31033326D01*
X83531946Y-32201726D02*
X83531946Y-31033326D01*
X84255242Y-32201726D02*
X84255242Y-31033326D01*
X84255242Y-31589707D02*
X84922899Y-31589707D01*
X84922899Y-32201726D02*
X84922899Y-31033326D01*
X85479280Y-32201726D02*
X85479280Y-31033326D01*
X85980023Y-32146088D02*
X86146937Y-32201726D01*
X86146937Y-32201726D02*
X86425128Y-32201726D01*
X86425128Y-32201726D02*
X86536404Y-32146088D01*
X86536404Y-32146088D02*
X86592042Y-32090449D01*
X86592042Y-32090449D02*
X86647680Y-31979173D01*
X86647680Y-31979173D02*
X86647680Y-31867897D01*
X86647680Y-31867897D02*
X86592042Y-31756621D01*
X86592042Y-31756621D02*
X86536404Y-31700983D01*
X86536404Y-31700983D02*
X86425128Y-31645345D01*
X86425128Y-31645345D02*
X86202575Y-31589707D01*
X86202575Y-31589707D02*
X86091299Y-31534068D01*
X86091299Y-31534068D02*
X86035661Y-31478430D01*
X86035661Y-31478430D02*
X85980023Y-31367154D01*
X85980023Y-31367154D02*
X85980023Y-31255878D01*
X85980023Y-31255878D02*
X86035661Y-31144602D01*
X86035661Y-31144602D02*
X86091299Y-31088964D01*
X86091299Y-31088964D02*
X86202575Y-31033326D01*
X86202575Y-31033326D02*
X86480766Y-31033326D01*
X86480766Y-31033326D02*
X86647680Y-31088964D01*
X87982995Y-32146088D02*
X88149909Y-32201726D01*
X88149909Y-32201726D02*
X88428100Y-32201726D01*
X88428100Y-32201726D02*
X88539376Y-32146088D01*
X88539376Y-32146088D02*
X88595014Y-32090449D01*
X88595014Y-32090449D02*
X88650652Y-31979173D01*
X88650652Y-31979173D02*
X88650652Y-31867897D01*
X88650652Y-31867897D02*
X88595014Y-31756621D01*
X88595014Y-31756621D02*
X88539376Y-31700983D01*
X88539376Y-31700983D02*
X88428100Y-31645345D01*
X88428100Y-31645345D02*
X88205547Y-31589707D01*
X88205547Y-31589707D02*
X88094271Y-31534068D01*
X88094271Y-31534068D02*
X88038633Y-31478430D01*
X88038633Y-31478430D02*
X87982995Y-31367154D01*
X87982995Y-31367154D02*
X87982995Y-31255878D01*
X87982995Y-31255878D02*
X88038633Y-31144602D01*
X88038633Y-31144602D02*
X88094271Y-31088964D01*
X88094271Y-31088964D02*
X88205547Y-31033326D01*
X88205547Y-31033326D02*
X88483738Y-31033326D01*
X88483738Y-31033326D02*
X88650652Y-31088964D01*
X89151395Y-32201726D02*
X89151395Y-31033326D01*
X89707776Y-32201726D02*
X89707776Y-31033326D01*
X89707776Y-31033326D02*
X89985966Y-31033326D01*
X89985966Y-31033326D02*
X90152881Y-31088964D01*
X90152881Y-31088964D02*
X90264157Y-31200240D01*
X90264157Y-31200240D02*
X90319795Y-31311516D01*
X90319795Y-31311516D02*
X90375433Y-31534068D01*
X90375433Y-31534068D02*
X90375433Y-31700983D01*
X90375433Y-31700983D02*
X90319795Y-31923535D01*
X90319795Y-31923535D02*
X90264157Y-32034811D01*
X90264157Y-32034811D02*
X90152881Y-32146088D01*
X90152881Y-32146088D02*
X89985966Y-32201726D01*
X89985966Y-32201726D02*
X89707776Y-32201726D01*
X90876176Y-31589707D02*
X91265643Y-31589707D01*
X91432557Y-32201726D02*
X90876176Y-32201726D01*
X90876176Y-32201726D02*
X90876176Y-31033326D01*
X90876176Y-31033326D02*
X91432557Y-31033326D01*
D10*
X2880952Y-18439819D02*
X2880952Y-19249342D01*
X2880952Y-19249342D02*
X2928571Y-19344580D01*
X2928571Y-19344580D02*
X2976190Y-19392200D01*
X2976190Y-19392200D02*
X3071428Y-19439819D01*
X3071428Y-19439819D02*
X3261904Y-19439819D01*
X3261904Y-19439819D02*
X3357142Y-19392200D01*
X3357142Y-19392200D02*
X3404761Y-19344580D01*
X3404761Y-19344580D02*
X3452380Y-19249342D01*
X3452380Y-19249342D02*
X3452380Y-18439819D01*
X3690476Y-19535057D02*
X4452380Y-19535057D01*
X4642857Y-19392200D02*
X4785714Y-19439819D01*
X4785714Y-19439819D02*
X5023809Y-19439819D01*
X5023809Y-19439819D02*
X5119047Y-19392200D01*
X5119047Y-19392200D02*
X5166666Y-19344580D01*
X5166666Y-19344580D02*
X5214285Y-19249342D01*
X5214285Y-19249342D02*
X5214285Y-19154104D01*
X5214285Y-19154104D02*
X5166666Y-19058866D01*
X5166666Y-19058866D02*
X5119047Y-19011247D01*
X5119047Y-19011247D02*
X5023809Y-18963628D01*
X5023809Y-18963628D02*
X4833333Y-18916009D01*
X4833333Y-18916009D02*
X4738095Y-18868390D01*
X4738095Y-18868390D02*
X4690476Y-18820771D01*
X4690476Y-18820771D02*
X4642857Y-18725533D01*
X4642857Y-18725533D02*
X4642857Y-18630295D01*
X4642857Y-18630295D02*
X4690476Y-18535057D01*
X4690476Y-18535057D02*
X4738095Y-18487438D01*
X4738095Y-18487438D02*
X4833333Y-18439819D01*
X4833333Y-18439819D02*
X5071428Y-18439819D01*
X5071428Y-18439819D02*
X5214285Y-18487438D01*
X6214285Y-19439819D02*
X5880952Y-18963628D01*
X5642857Y-19439819D02*
X5642857Y-18439819D01*
X5642857Y-18439819D02*
X6023809Y-18439819D01*
X6023809Y-18439819D02*
X6119047Y-18487438D01*
X6119047Y-18487438D02*
X6166666Y-18535057D01*
X6166666Y-18535057D02*
X6214285Y-18630295D01*
X6214285Y-18630295D02*
X6214285Y-18773152D01*
X6214285Y-18773152D02*
X6166666Y-18868390D01*
X6166666Y-18868390D02*
X6119047Y-18916009D01*
X6119047Y-18916009D02*
X6023809Y-18963628D01*
X6023809Y-18963628D02*
X5642857Y-18963628D01*
X6595238Y-18535057D02*
X6642857Y-18487438D01*
X6642857Y-18487438D02*
X6738095Y-18439819D01*
X6738095Y-18439819D02*
X6976190Y-18439819D01*
X6976190Y-18439819D02*
X7071428Y-18487438D01*
X7071428Y-18487438D02*
X7119047Y-18535057D01*
X7119047Y-18535057D02*
X7166666Y-18630295D01*
X7166666Y-18630295D02*
X7166666Y-18725533D01*
X7166666Y-18725533D02*
X7119047Y-18868390D01*
X7119047Y-18868390D02*
X6547619Y-19439819D01*
X6547619Y-19439819D02*
X7166666Y-19439819D01*
X6159580Y-33514523D02*
X6207200Y-33562142D01*
X6207200Y-33562142D02*
X6254819Y-33704999D01*
X6254819Y-33704999D02*
X6254819Y-33800237D01*
X6254819Y-33800237D02*
X6207200Y-33943094D01*
X6207200Y-33943094D02*
X6111961Y-34038332D01*
X6111961Y-34038332D02*
X6016723Y-34085951D01*
X6016723Y-34085951D02*
X5826247Y-34133570D01*
X5826247Y-34133570D02*
X5683390Y-34133570D01*
X5683390Y-34133570D02*
X5492914Y-34085951D01*
X5492914Y-34085951D02*
X5397676Y-34038332D01*
X5397676Y-34038332D02*
X5302438Y-33943094D01*
X5302438Y-33943094D02*
X5254819Y-33800237D01*
X5254819Y-33800237D02*
X5254819Y-33704999D01*
X5254819Y-33704999D02*
X5302438Y-33562142D01*
X5302438Y-33562142D02*
X5350057Y-33514523D01*
X6350057Y-33324047D02*
X6350057Y-32562142D01*
X6254819Y-32324046D02*
X5254819Y-32324046D01*
X6254819Y-31847856D02*
X5254819Y-31847856D01*
X5254819Y-31847856D02*
X6254819Y-31276428D01*
X6254819Y-31276428D02*
X5254819Y-31276428D01*
X6254819Y-30276428D02*
X6254819Y-30847856D01*
X6254819Y-30562142D02*
X5254819Y-30562142D01*
X5254819Y-30562142D02*
X5397676Y-30657380D01*
X5397676Y-30657380D02*
X5492914Y-30752618D01*
X5492914Y-30752618D02*
X5540533Y-30847856D01*
X95179580Y-59380952D02*
X95227200Y-59428571D01*
X95227200Y-59428571D02*
X95274819Y-59571428D01*
X95274819Y-59571428D02*
X95274819Y-59666666D01*
X95274819Y-59666666D02*
X95227200Y-59809523D01*
X95227200Y-59809523D02*
X95131961Y-59904761D01*
X95131961Y-59904761D02*
X95036723Y-59952380D01*
X95036723Y-59952380D02*
X94846247Y-59999999D01*
X94846247Y-59999999D02*
X94703390Y-59999999D01*
X94703390Y-59999999D02*
X94512914Y-59952380D01*
X94512914Y-59952380D02*
X94417676Y-59904761D01*
X94417676Y-59904761D02*
X94322438Y-59809523D01*
X94322438Y-59809523D02*
X94274819Y-59666666D01*
X94274819Y-59666666D02*
X94274819Y-59571428D01*
X94274819Y-59571428D02*
X94322438Y-59428571D01*
X94322438Y-59428571D02*
X94370057Y-59380952D01*
X95370057Y-59190476D02*
X95370057Y-58428571D01*
X94751009Y-57857142D02*
X94798628Y-57714285D01*
X94798628Y-57714285D02*
X94846247Y-57666666D01*
X94846247Y-57666666D02*
X94941485Y-57619047D01*
X94941485Y-57619047D02*
X95084342Y-57619047D01*
X95084342Y-57619047D02*
X95179580Y-57666666D01*
X95179580Y-57666666D02*
X95227200Y-57714285D01*
X95227200Y-57714285D02*
X95274819Y-57809523D01*
X95274819Y-57809523D02*
X95274819Y-58190475D01*
X95274819Y-58190475D02*
X94274819Y-58190475D01*
X94274819Y-58190475D02*
X94274819Y-57857142D01*
X94274819Y-57857142D02*
X94322438Y-57761904D01*
X94322438Y-57761904D02*
X94370057Y-57714285D01*
X94370057Y-57714285D02*
X94465295Y-57666666D01*
X94465295Y-57666666D02*
X94560533Y-57666666D01*
X94560533Y-57666666D02*
X94655771Y-57714285D01*
X94655771Y-57714285D02*
X94703390Y-57761904D01*
X94703390Y-57761904D02*
X94751009Y-57857142D01*
X94751009Y-57857142D02*
X94751009Y-58190475D01*
X94989104Y-57238094D02*
X94989104Y-56761904D01*
X95274819Y-57333332D02*
X94274819Y-56999999D01*
X94274819Y-56999999D02*
X95274819Y-56666666D01*
X94274819Y-56428570D02*
X94274819Y-55809523D01*
X94274819Y-55809523D02*
X94655771Y-56142856D01*
X94655771Y-56142856D02*
X94655771Y-55999999D01*
X94655771Y-55999999D02*
X94703390Y-55904761D01*
X94703390Y-55904761D02*
X94751009Y-55857142D01*
X94751009Y-55857142D02*
X94846247Y-55809523D01*
X94846247Y-55809523D02*
X95084342Y-55809523D01*
X95084342Y-55809523D02*
X95179580Y-55857142D01*
X95179580Y-55857142D02*
X95227200Y-55904761D01*
X95227200Y-55904761D02*
X95274819Y-55999999D01*
X95274819Y-55999999D02*
X95274819Y-56285713D01*
X95274819Y-56285713D02*
X95227200Y-56380951D01*
X95227200Y-56380951D02*
X95179580Y-56428570D01*
X94274819Y-55523808D02*
X95274819Y-55190475D01*
X95274819Y-55190475D02*
X94274819Y-54857142D01*
X94274819Y-54619046D02*
X94274819Y-53999999D01*
X94274819Y-53999999D02*
X94655771Y-54333332D01*
X94655771Y-54333332D02*
X94655771Y-54190475D01*
X94655771Y-54190475D02*
X94703390Y-54095237D01*
X94703390Y-54095237D02*
X94751009Y-54047618D01*
X94751009Y-54047618D02*
X94846247Y-53999999D01*
X94846247Y-53999999D02*
X95084342Y-53999999D01*
X95084342Y-53999999D02*
X95179580Y-54047618D01*
X95179580Y-54047618D02*
X95227200Y-54095237D01*
X95227200Y-54095237D02*
X95274819Y-54190475D01*
X95274819Y-54190475D02*
X95274819Y-54476189D01*
X95274819Y-54476189D02*
X95227200Y-54571427D01*
X95227200Y-54571427D02*
X95179580Y-54619046D01*
X94690476Y-70804819D02*
X94357143Y-70328628D01*
X94119048Y-70804819D02*
X94119048Y-69804819D01*
X94119048Y-69804819D02*
X94500000Y-69804819D01*
X94500000Y-69804819D02*
X94595238Y-69852438D01*
X94595238Y-69852438D02*
X94642857Y-69900057D01*
X94642857Y-69900057D02*
X94690476Y-69995295D01*
X94690476Y-69995295D02*
X94690476Y-70138152D01*
X94690476Y-70138152D02*
X94642857Y-70233390D01*
X94642857Y-70233390D02*
X94595238Y-70281009D01*
X94595238Y-70281009D02*
X94500000Y-70328628D01*
X94500000Y-70328628D02*
X94119048Y-70328628D01*
X94880953Y-70900057D02*
X95642857Y-70900057D01*
X95880953Y-70804819D02*
X95880953Y-69804819D01*
X95880953Y-70281009D02*
X96452381Y-70281009D01*
X96452381Y-70804819D02*
X96452381Y-69804819D01*
X96928572Y-70804819D02*
X96928572Y-69804819D01*
X97357143Y-69900057D02*
X97404762Y-69852438D01*
X97404762Y-69852438D02*
X97500000Y-69804819D01*
X97500000Y-69804819D02*
X97738095Y-69804819D01*
X97738095Y-69804819D02*
X97833333Y-69852438D01*
X97833333Y-69852438D02*
X97880952Y-69900057D01*
X97880952Y-69900057D02*
X97928571Y-69995295D01*
X97928571Y-69995295D02*
X97928571Y-70090533D01*
X97928571Y-70090533D02*
X97880952Y-70233390D01*
X97880952Y-70233390D02*
X97309524Y-70804819D01*
X97309524Y-70804819D02*
X97928571Y-70804819D01*
X67999999Y-72304819D02*
X67666666Y-71828628D01*
X67428571Y-72304819D02*
X67428571Y-71304819D01*
X67428571Y-71304819D02*
X67809523Y-71304819D01*
X67809523Y-71304819D02*
X67904761Y-71352438D01*
X67904761Y-71352438D02*
X67952380Y-71400057D01*
X67952380Y-71400057D02*
X67999999Y-71495295D01*
X67999999Y-71495295D02*
X67999999Y-71638152D01*
X67999999Y-71638152D02*
X67952380Y-71733390D01*
X67952380Y-71733390D02*
X67904761Y-71781009D01*
X67904761Y-71781009D02*
X67809523Y-71828628D01*
X67809523Y-71828628D02*
X67428571Y-71828628D01*
X68190476Y-72400057D02*
X68952380Y-72400057D01*
X69142857Y-72257200D02*
X69285714Y-72304819D01*
X69285714Y-72304819D02*
X69523809Y-72304819D01*
X69523809Y-72304819D02*
X69619047Y-72257200D01*
X69619047Y-72257200D02*
X69666666Y-72209580D01*
X69666666Y-72209580D02*
X69714285Y-72114342D01*
X69714285Y-72114342D02*
X69714285Y-72019104D01*
X69714285Y-72019104D02*
X69666666Y-71923866D01*
X69666666Y-71923866D02*
X69619047Y-71876247D01*
X69619047Y-71876247D02*
X69523809Y-71828628D01*
X69523809Y-71828628D02*
X69333333Y-71781009D01*
X69333333Y-71781009D02*
X69238095Y-71733390D01*
X69238095Y-71733390D02*
X69190476Y-71685771D01*
X69190476Y-71685771D02*
X69142857Y-71590533D01*
X69142857Y-71590533D02*
X69142857Y-71495295D01*
X69142857Y-71495295D02*
X69190476Y-71400057D01*
X69190476Y-71400057D02*
X69238095Y-71352438D01*
X69238095Y-71352438D02*
X69333333Y-71304819D01*
X69333333Y-71304819D02*
X69571428Y-71304819D01*
X69571428Y-71304819D02*
X69714285Y-71352438D01*
X70142857Y-72304819D02*
X70142857Y-71304819D01*
X70142857Y-71304819D02*
X70523809Y-71304819D01*
X70523809Y-71304819D02*
X70619047Y-71352438D01*
X70619047Y-71352438D02*
X70666666Y-71400057D01*
X70666666Y-71400057D02*
X70714285Y-71495295D01*
X70714285Y-71495295D02*
X70714285Y-71638152D01*
X70714285Y-71638152D02*
X70666666Y-71733390D01*
X70666666Y-71733390D02*
X70619047Y-71781009D01*
X70619047Y-71781009D02*
X70523809Y-71828628D01*
X70523809Y-71828628D02*
X70142857Y-71828628D01*
X71666666Y-72304819D02*
X71095238Y-72304819D01*
X71380952Y-72304819D02*
X71380952Y-71304819D01*
X71380952Y-71304819D02*
X71285714Y-71447676D01*
X71285714Y-71447676D02*
X71190476Y-71542914D01*
X71190476Y-71542914D02*
X71095238Y-71590533D01*
X72047619Y-71400057D02*
X72095238Y-71352438D01*
X72095238Y-71352438D02*
X72190476Y-71304819D01*
X72190476Y-71304819D02*
X72428571Y-71304819D01*
X72428571Y-71304819D02*
X72523809Y-71352438D01*
X72523809Y-71352438D02*
X72571428Y-71400057D01*
X72571428Y-71400057D02*
X72619047Y-71495295D01*
X72619047Y-71495295D02*
X72619047Y-71590533D01*
X72619047Y-71590533D02*
X72571428Y-71733390D01*
X72571428Y-71733390D02*
X72000000Y-72304819D01*
X72000000Y-72304819D02*
X72619047Y-72304819D01*
X82452381Y-806819D02*
X83023809Y-806819D01*
X82738095Y-1806819D02*
X82738095Y-806819D01*
X83357143Y-1806819D02*
X83357143Y-806819D01*
X83357143Y-806819D02*
X83738095Y-806819D01*
X83738095Y-806819D02*
X83833333Y-854438D01*
X83833333Y-854438D02*
X83880952Y-902057D01*
X83880952Y-902057D02*
X83928571Y-997295D01*
X83928571Y-997295D02*
X83928571Y-1140152D01*
X83928571Y-1140152D02*
X83880952Y-1235390D01*
X83880952Y-1235390D02*
X83833333Y-1283009D01*
X83833333Y-1283009D02*
X83738095Y-1330628D01*
X83738095Y-1330628D02*
X83357143Y-1330628D01*
X84119048Y-1902057D02*
X84880952Y-1902057D01*
X85071429Y-1521104D02*
X85547619Y-1521104D01*
X84976191Y-1806819D02*
X85309524Y-806819D01*
X85309524Y-806819D02*
X85642857Y-1806819D01*
X85976191Y-1806819D02*
X85976191Y-806819D01*
X85976191Y-806819D02*
X86214286Y-806819D01*
X86214286Y-806819D02*
X86357143Y-854438D01*
X86357143Y-854438D02*
X86452381Y-949676D01*
X86452381Y-949676D02*
X86500000Y-1044914D01*
X86500000Y-1044914D02*
X86547619Y-1235390D01*
X86547619Y-1235390D02*
X86547619Y-1378247D01*
X86547619Y-1378247D02*
X86500000Y-1568723D01*
X86500000Y-1568723D02*
X86452381Y-1663961D01*
X86452381Y-1663961D02*
X86357143Y-1759200D01*
X86357143Y-1759200D02*
X86214286Y-1806819D01*
X86214286Y-1806819D02*
X85976191Y-1806819D01*
X87547619Y-1711580D02*
X87500000Y-1759200D01*
X87500000Y-1759200D02*
X87357143Y-1806819D01*
X87357143Y-1806819D02*
X87261905Y-1806819D01*
X87261905Y-1806819D02*
X87119048Y-1759200D01*
X87119048Y-1759200D02*
X87023810Y-1663961D01*
X87023810Y-1663961D02*
X86976191Y-1568723D01*
X86976191Y-1568723D02*
X86928572Y-1378247D01*
X86928572Y-1378247D02*
X86928572Y-1235390D01*
X86928572Y-1235390D02*
X86976191Y-1044914D01*
X86976191Y-1044914D02*
X87023810Y-949676D01*
X87023810Y-949676D02*
X87119048Y-854438D01*
X87119048Y-854438D02*
X87261905Y-806819D01*
X87261905Y-806819D02*
X87357143Y-806819D01*
X87357143Y-806819D02*
X87500000Y-854438D01*
X87500000Y-854438D02*
X87547619Y-902057D01*
X88500000Y-1806819D02*
X87928572Y-1806819D01*
X88214286Y-1806819D02*
X88214286Y-806819D01*
X88214286Y-806819D02*
X88119048Y-949676D01*
X88119048Y-949676D02*
X88023810Y-1044914D01*
X88023810Y-1044914D02*
X87928572Y-1092533D01*
X89452381Y-1806819D02*
X88880953Y-1806819D01*
X89166667Y-1806819D02*
X89166667Y-806819D01*
X89166667Y-806819D02*
X89071429Y-949676D01*
X89071429Y-949676D02*
X88976191Y-1044914D01*
X88976191Y-1044914D02*
X88880953Y-1092533D01*
X91329580Y-53595238D02*
X91377200Y-53642857D01*
X91377200Y-53642857D02*
X91424819Y-53785714D01*
X91424819Y-53785714D02*
X91424819Y-53880952D01*
X91424819Y-53880952D02*
X91377200Y-54023809D01*
X91377200Y-54023809D02*
X91281961Y-54119047D01*
X91281961Y-54119047D02*
X91186723Y-54166666D01*
X91186723Y-54166666D02*
X90996247Y-54214285D01*
X90996247Y-54214285D02*
X90853390Y-54214285D01*
X90853390Y-54214285D02*
X90662914Y-54166666D01*
X90662914Y-54166666D02*
X90567676Y-54119047D01*
X90567676Y-54119047D02*
X90472438Y-54023809D01*
X90472438Y-54023809D02*
X90424819Y-53880952D01*
X90424819Y-53880952D02*
X90424819Y-53785714D01*
X90424819Y-53785714D02*
X90472438Y-53642857D01*
X90472438Y-53642857D02*
X90520057Y-53595238D01*
X91520057Y-53404762D02*
X91520057Y-52642857D01*
X91424819Y-52404761D02*
X90424819Y-52404761D01*
X90424819Y-52404761D02*
X91139104Y-52071428D01*
X91139104Y-52071428D02*
X90424819Y-51738095D01*
X90424819Y-51738095D02*
X91424819Y-51738095D01*
X91424819Y-50738095D02*
X91424819Y-51309523D01*
X91424819Y-51023809D02*
X90424819Y-51023809D01*
X90424819Y-51023809D02*
X90567676Y-51119047D01*
X90567676Y-51119047D02*
X90662914Y-51214285D01*
X90662914Y-51214285D02*
X90710533Y-51309523D01*
X90424819Y-49880952D02*
X90424819Y-50071428D01*
X90424819Y-50071428D02*
X90472438Y-50166666D01*
X90472438Y-50166666D02*
X90520057Y-50214285D01*
X90520057Y-50214285D02*
X90662914Y-50309523D01*
X90662914Y-50309523D02*
X90853390Y-50357142D01*
X90853390Y-50357142D02*
X91234342Y-50357142D01*
X91234342Y-50357142D02*
X91329580Y-50309523D01*
X91329580Y-50309523D02*
X91377200Y-50261904D01*
X91377200Y-50261904D02*
X91424819Y-50166666D01*
X91424819Y-50166666D02*
X91424819Y-49976190D01*
X91424819Y-49976190D02*
X91377200Y-49880952D01*
X91377200Y-49880952D02*
X91329580Y-49833333D01*
X91329580Y-49833333D02*
X91234342Y-49785714D01*
X91234342Y-49785714D02*
X90996247Y-49785714D01*
X90996247Y-49785714D02*
X90901009Y-49833333D01*
X90901009Y-49833333D02*
X90853390Y-49880952D01*
X90853390Y-49880952D02*
X90805771Y-49976190D01*
X90805771Y-49976190D02*
X90805771Y-50166666D01*
X90805771Y-50166666D02*
X90853390Y-50261904D01*
X90853390Y-50261904D02*
X90901009Y-50309523D01*
X90901009Y-50309523D02*
X90996247Y-50357142D01*
X31094819Y-72305238D02*
X30618628Y-72638571D01*
X31094819Y-72876666D02*
X30094819Y-72876666D01*
X30094819Y-72876666D02*
X30094819Y-72495714D01*
X30094819Y-72495714D02*
X30142438Y-72400476D01*
X30142438Y-72400476D02*
X30190057Y-72352857D01*
X30190057Y-72352857D02*
X30285295Y-72305238D01*
X30285295Y-72305238D02*
X30428152Y-72305238D01*
X30428152Y-72305238D02*
X30523390Y-72352857D01*
X30523390Y-72352857D02*
X30571009Y-72400476D01*
X30571009Y-72400476D02*
X30618628Y-72495714D01*
X30618628Y-72495714D02*
X30618628Y-72876666D01*
X30094819Y-72019523D02*
X31094819Y-71686190D01*
X31094819Y-71686190D02*
X30094819Y-71352857D01*
X30094819Y-70543333D02*
X30094819Y-71019523D01*
X30094819Y-71019523D02*
X30571009Y-71067142D01*
X30571009Y-71067142D02*
X30523390Y-71019523D01*
X30523390Y-71019523D02*
X30475771Y-70924285D01*
X30475771Y-70924285D02*
X30475771Y-70686190D01*
X30475771Y-70686190D02*
X30523390Y-70590952D01*
X30523390Y-70590952D02*
X30571009Y-70543333D01*
X30571009Y-70543333D02*
X30666247Y-70495714D01*
X30666247Y-70495714D02*
X30904342Y-70495714D01*
X30904342Y-70495714D02*
X30999580Y-70543333D01*
X30999580Y-70543333D02*
X31047200Y-70590952D01*
X31047200Y-70590952D02*
X31094819Y-70686190D01*
X31094819Y-70686190D02*
X31094819Y-70924285D01*
X31094819Y-70924285D02*
X31047200Y-71019523D01*
X31047200Y-71019523D02*
X30999580Y-71067142D01*
X95804819Y-11476190D02*
X95328628Y-11809523D01*
X95804819Y-12047618D02*
X94804819Y-12047618D01*
X94804819Y-12047618D02*
X94804819Y-11666666D01*
X94804819Y-11666666D02*
X94852438Y-11571428D01*
X94852438Y-11571428D02*
X94900057Y-11523809D01*
X94900057Y-11523809D02*
X94995295Y-11476190D01*
X94995295Y-11476190D02*
X95138152Y-11476190D01*
X95138152Y-11476190D02*
X95233390Y-11523809D01*
X95233390Y-11523809D02*
X95281009Y-11571428D01*
X95281009Y-11571428D02*
X95328628Y-11666666D01*
X95328628Y-11666666D02*
X95328628Y-12047618D01*
X95900057Y-11285714D02*
X95900057Y-10523809D01*
X95281009Y-9952380D02*
X95328628Y-9809523D01*
X95328628Y-9809523D02*
X95376247Y-9761904D01*
X95376247Y-9761904D02*
X95471485Y-9714285D01*
X95471485Y-9714285D02*
X95614342Y-9714285D01*
X95614342Y-9714285D02*
X95709580Y-9761904D01*
X95709580Y-9761904D02*
X95757200Y-9809523D01*
X95757200Y-9809523D02*
X95804819Y-9904761D01*
X95804819Y-9904761D02*
X95804819Y-10285713D01*
X95804819Y-10285713D02*
X94804819Y-10285713D01*
X94804819Y-10285713D02*
X94804819Y-9952380D01*
X94804819Y-9952380D02*
X94852438Y-9857142D01*
X94852438Y-9857142D02*
X94900057Y-9809523D01*
X94900057Y-9809523D02*
X94995295Y-9761904D01*
X94995295Y-9761904D02*
X95090533Y-9761904D01*
X95090533Y-9761904D02*
X95185771Y-9809523D01*
X95185771Y-9809523D02*
X95233390Y-9857142D01*
X95233390Y-9857142D02*
X95281009Y-9952380D01*
X95281009Y-9952380D02*
X95281009Y-10285713D01*
X94804819Y-9428570D02*
X94804819Y-8857142D01*
X95804819Y-9142856D02*
X94804819Y-9142856D01*
X95804819Y-8523808D02*
X94804819Y-8523808D01*
X94804819Y-8523808D02*
X95804819Y-7952380D01*
X95804819Y-7952380D02*
X94804819Y-7952380D01*
X95304819Y-63309523D02*
X94828628Y-63642856D01*
X95304819Y-63880951D02*
X94304819Y-63880951D01*
X94304819Y-63880951D02*
X94304819Y-63499999D01*
X94304819Y-63499999D02*
X94352438Y-63404761D01*
X94352438Y-63404761D02*
X94400057Y-63357142D01*
X94400057Y-63357142D02*
X94495295Y-63309523D01*
X94495295Y-63309523D02*
X94638152Y-63309523D01*
X94638152Y-63309523D02*
X94733390Y-63357142D01*
X94733390Y-63357142D02*
X94781009Y-63404761D01*
X94781009Y-63404761D02*
X94828628Y-63499999D01*
X94828628Y-63499999D02*
X94828628Y-63880951D01*
X95400057Y-63119047D02*
X95400057Y-62357142D01*
X95304819Y-62119046D02*
X94304819Y-62119046D01*
X94781009Y-62119046D02*
X94781009Y-61547618D01*
X95304819Y-61547618D02*
X94304819Y-61547618D01*
X95304819Y-61071427D02*
X94304819Y-61071427D01*
X94638152Y-60166666D02*
X95304819Y-60166666D01*
X94257200Y-60404761D02*
X94971485Y-60642856D01*
X94971485Y-60642856D02*
X94971485Y-60023809D01*
X75714819Y-50361904D02*
X76429104Y-50361904D01*
X76429104Y-50361904D02*
X76571961Y-50409523D01*
X76571961Y-50409523D02*
X76667200Y-50504761D01*
X76667200Y-50504761D02*
X76714819Y-50647618D01*
X76714819Y-50647618D02*
X76714819Y-50742856D01*
X76714819Y-49885713D02*
X75714819Y-49885713D01*
X75714819Y-49885713D02*
X75714819Y-49504761D01*
X75714819Y-49504761D02*
X75762438Y-49409523D01*
X75762438Y-49409523D02*
X75810057Y-49361904D01*
X75810057Y-49361904D02*
X75905295Y-49314285D01*
X75905295Y-49314285D02*
X76048152Y-49314285D01*
X76048152Y-49314285D02*
X76143390Y-49361904D01*
X76143390Y-49361904D02*
X76191009Y-49409523D01*
X76191009Y-49409523D02*
X76238628Y-49504761D01*
X76238628Y-49504761D02*
X76238628Y-49885713D01*
X76810057Y-49123809D02*
X76810057Y-48361904D01*
X75762438Y-47599999D02*
X75714819Y-47695237D01*
X75714819Y-47695237D02*
X75714819Y-47838094D01*
X75714819Y-47838094D02*
X75762438Y-47980951D01*
X75762438Y-47980951D02*
X75857676Y-48076189D01*
X75857676Y-48076189D02*
X75952914Y-48123808D01*
X75952914Y-48123808D02*
X76143390Y-48171427D01*
X76143390Y-48171427D02*
X76286247Y-48171427D01*
X76286247Y-48171427D02*
X76476723Y-48123808D01*
X76476723Y-48123808D02*
X76571961Y-48076189D01*
X76571961Y-48076189D02*
X76667200Y-47980951D01*
X76667200Y-47980951D02*
X76714819Y-47838094D01*
X76714819Y-47838094D02*
X76714819Y-47742856D01*
X76714819Y-47742856D02*
X76667200Y-47599999D01*
X76667200Y-47599999D02*
X76619580Y-47552380D01*
X76619580Y-47552380D02*
X76286247Y-47552380D01*
X76286247Y-47552380D02*
X76286247Y-47742856D01*
X76714819Y-47123808D02*
X75714819Y-47123808D01*
X75714819Y-47123808D02*
X76714819Y-46552380D01*
X76714819Y-46552380D02*
X75714819Y-46552380D01*
X76714819Y-46076189D02*
X75714819Y-46076189D01*
X75714819Y-46076189D02*
X75714819Y-45838094D01*
X75714819Y-45838094D02*
X75762438Y-45695237D01*
X75762438Y-45695237D02*
X75857676Y-45599999D01*
X75857676Y-45599999D02*
X75952914Y-45552380D01*
X75952914Y-45552380D02*
X76143390Y-45504761D01*
X76143390Y-45504761D02*
X76286247Y-45504761D01*
X76286247Y-45504761D02*
X76476723Y-45552380D01*
X76476723Y-45552380D02*
X76571961Y-45599999D01*
X76571961Y-45599999D02*
X76667200Y-45695237D01*
X76667200Y-45695237D02*
X76714819Y-45838094D01*
X76714819Y-45838094D02*
X76714819Y-46076189D01*
X9804819Y-20738094D02*
X8804819Y-20738094D01*
X8804819Y-20738094D02*
X8804819Y-20499999D01*
X8804819Y-20499999D02*
X8852438Y-20357142D01*
X8852438Y-20357142D02*
X8947676Y-20261904D01*
X8947676Y-20261904D02*
X9042914Y-20214285D01*
X9042914Y-20214285D02*
X9233390Y-20166666D01*
X9233390Y-20166666D02*
X9376247Y-20166666D01*
X9376247Y-20166666D02*
X9566723Y-20214285D01*
X9566723Y-20214285D02*
X9661961Y-20261904D01*
X9661961Y-20261904D02*
X9757200Y-20357142D01*
X9757200Y-20357142D02*
X9804819Y-20499999D01*
X9804819Y-20499999D02*
X9804819Y-20738094D01*
X8804819Y-19261904D02*
X8804819Y-19738094D01*
X8804819Y-19738094D02*
X9281009Y-19785713D01*
X9281009Y-19785713D02*
X9233390Y-19738094D01*
X9233390Y-19738094D02*
X9185771Y-19642856D01*
X9185771Y-19642856D02*
X9185771Y-19404761D01*
X9185771Y-19404761D02*
X9233390Y-19309523D01*
X9233390Y-19309523D02*
X9281009Y-19261904D01*
X9281009Y-19261904D02*
X9376247Y-19214285D01*
X9376247Y-19214285D02*
X9614342Y-19214285D01*
X9614342Y-19214285D02*
X9709580Y-19261904D01*
X9709580Y-19261904D02*
X9757200Y-19309523D01*
X9757200Y-19309523D02*
X9804819Y-19404761D01*
X9804819Y-19404761D02*
X9804819Y-19642856D01*
X9804819Y-19642856D02*
X9757200Y-19738094D01*
X9757200Y-19738094D02*
X9709580Y-19785713D01*
X3095238Y-33079819D02*
X3095238Y-33889342D01*
X3095238Y-33889342D02*
X3142857Y-33984580D01*
X3142857Y-33984580D02*
X3190476Y-34032200D01*
X3190476Y-34032200D02*
X3285714Y-34079819D01*
X3285714Y-34079819D02*
X3476190Y-34079819D01*
X3476190Y-34079819D02*
X3571428Y-34032200D01*
X3571428Y-34032200D02*
X3619047Y-33984580D01*
X3619047Y-33984580D02*
X3666666Y-33889342D01*
X3666666Y-33889342D02*
X3666666Y-33079819D01*
X3904762Y-34175057D02*
X4666666Y-34175057D01*
X4904762Y-34079819D02*
X4904762Y-33079819D01*
X5380952Y-34079819D02*
X5380952Y-33079819D01*
X5380952Y-33079819D02*
X5952380Y-34079819D01*
X5952380Y-34079819D02*
X5952380Y-33079819D01*
X6952380Y-34079819D02*
X6380952Y-34079819D01*
X6666666Y-34079819D02*
X6666666Y-33079819D01*
X6666666Y-33079819D02*
X6571428Y-33222676D01*
X6571428Y-33222676D02*
X6476190Y-33317914D01*
X6476190Y-33317914D02*
X6380952Y-33365533D01*
X91309524Y-806819D02*
X91880952Y-806819D01*
X91595238Y-1806819D02*
X91595238Y-806819D01*
X92214286Y-1806819D02*
X92214286Y-806819D01*
X92214286Y-806819D02*
X92595238Y-806819D01*
X92595238Y-806819D02*
X92690476Y-854438D01*
X92690476Y-854438D02*
X92738095Y-902057D01*
X92738095Y-902057D02*
X92785714Y-997295D01*
X92785714Y-997295D02*
X92785714Y-1140152D01*
X92785714Y-1140152D02*
X92738095Y-1235390D01*
X92738095Y-1235390D02*
X92690476Y-1283009D01*
X92690476Y-1283009D02*
X92595238Y-1330628D01*
X92595238Y-1330628D02*
X92214286Y-1330628D01*
X92976191Y-1902057D02*
X93738095Y-1902057D01*
X94500000Y-854438D02*
X94404762Y-806819D01*
X94404762Y-806819D02*
X94261905Y-806819D01*
X94261905Y-806819D02*
X94119048Y-854438D01*
X94119048Y-854438D02*
X94023810Y-949676D01*
X94023810Y-949676D02*
X93976191Y-1044914D01*
X93976191Y-1044914D02*
X93928572Y-1235390D01*
X93928572Y-1235390D02*
X93928572Y-1378247D01*
X93928572Y-1378247D02*
X93976191Y-1568723D01*
X93976191Y-1568723D02*
X94023810Y-1663961D01*
X94023810Y-1663961D02*
X94119048Y-1759200D01*
X94119048Y-1759200D02*
X94261905Y-1806819D01*
X94261905Y-1806819D02*
X94357143Y-1806819D01*
X94357143Y-1806819D02*
X94500000Y-1759200D01*
X94500000Y-1759200D02*
X94547619Y-1711580D01*
X94547619Y-1711580D02*
X94547619Y-1378247D01*
X94547619Y-1378247D02*
X94357143Y-1378247D01*
X94976191Y-1806819D02*
X94976191Y-806819D01*
X94976191Y-806819D02*
X95547619Y-1806819D01*
X95547619Y-1806819D02*
X95547619Y-806819D01*
X96023810Y-1806819D02*
X96023810Y-806819D01*
X96023810Y-806819D02*
X96261905Y-806819D01*
X96261905Y-806819D02*
X96404762Y-854438D01*
X96404762Y-854438D02*
X96500000Y-949676D01*
X96500000Y-949676D02*
X96547619Y-1044914D01*
X96547619Y-1044914D02*
X96595238Y-1235390D01*
X96595238Y-1235390D02*
X96595238Y-1378247D01*
X96595238Y-1378247D02*
X96547619Y-1568723D01*
X96547619Y-1568723D02*
X96500000Y-1663961D01*
X96500000Y-1663961D02*
X96404762Y-1759200D01*
X96404762Y-1759200D02*
X96261905Y-1806819D01*
X96261905Y-1806819D02*
X96023810Y-1806819D01*
X58094819Y-72305238D02*
X57618628Y-72638571D01*
X58094819Y-72876666D02*
X57094819Y-72876666D01*
X57094819Y-72876666D02*
X57094819Y-72495714D01*
X57094819Y-72495714D02*
X57142438Y-72400476D01*
X57142438Y-72400476D02*
X57190057Y-72352857D01*
X57190057Y-72352857D02*
X57285295Y-72305238D01*
X57285295Y-72305238D02*
X57428152Y-72305238D01*
X57428152Y-72305238D02*
X57523390Y-72352857D01*
X57523390Y-72352857D02*
X57571009Y-72400476D01*
X57571009Y-72400476D02*
X57618628Y-72495714D01*
X57618628Y-72495714D02*
X57618628Y-72876666D01*
X57094819Y-72019523D02*
X58094819Y-71686190D01*
X58094819Y-71686190D02*
X57094819Y-71352857D01*
X57094819Y-71114761D02*
X57094819Y-70448095D01*
X57094819Y-70448095D02*
X58094819Y-70876666D01*
X72699580Y-53942857D02*
X72747200Y-53990476D01*
X72747200Y-53990476D02*
X72794819Y-54133333D01*
X72794819Y-54133333D02*
X72794819Y-54228571D01*
X72794819Y-54228571D02*
X72747200Y-54371428D01*
X72747200Y-54371428D02*
X72651961Y-54466666D01*
X72651961Y-54466666D02*
X72556723Y-54514285D01*
X72556723Y-54514285D02*
X72366247Y-54561904D01*
X72366247Y-54561904D02*
X72223390Y-54561904D01*
X72223390Y-54561904D02*
X72032914Y-54514285D01*
X72032914Y-54514285D02*
X71937676Y-54466666D01*
X71937676Y-54466666D02*
X71842438Y-54371428D01*
X71842438Y-54371428D02*
X71794819Y-54228571D01*
X71794819Y-54228571D02*
X71794819Y-54133333D01*
X71794819Y-54133333D02*
X71842438Y-53990476D01*
X71842438Y-53990476D02*
X71890057Y-53942857D01*
X72890057Y-53752381D02*
X72890057Y-52990476D01*
X72699580Y-52180952D02*
X72747200Y-52228571D01*
X72747200Y-52228571D02*
X72794819Y-52371428D01*
X72794819Y-52371428D02*
X72794819Y-52466666D01*
X72794819Y-52466666D02*
X72747200Y-52609523D01*
X72747200Y-52609523D02*
X72651961Y-52704761D01*
X72651961Y-52704761D02*
X72556723Y-52752380D01*
X72556723Y-52752380D02*
X72366247Y-52799999D01*
X72366247Y-52799999D02*
X72223390Y-52799999D01*
X72223390Y-52799999D02*
X72032914Y-52752380D01*
X72032914Y-52752380D02*
X71937676Y-52704761D01*
X71937676Y-52704761D02*
X71842438Y-52609523D01*
X71842438Y-52609523D02*
X71794819Y-52466666D01*
X71794819Y-52466666D02*
X71794819Y-52371428D01*
X71794819Y-52371428D02*
X71842438Y-52228571D01*
X71842438Y-52228571D02*
X71890057Y-52180952D01*
X71794819Y-51561904D02*
X71794819Y-51371428D01*
X71794819Y-51371428D02*
X71842438Y-51276190D01*
X71842438Y-51276190D02*
X71937676Y-51180952D01*
X71937676Y-51180952D02*
X72128152Y-51133333D01*
X72128152Y-51133333D02*
X72461485Y-51133333D01*
X72461485Y-51133333D02*
X72651961Y-51180952D01*
X72651961Y-51180952D02*
X72747200Y-51276190D01*
X72747200Y-51276190D02*
X72794819Y-51371428D01*
X72794819Y-51371428D02*
X72794819Y-51561904D01*
X72794819Y-51561904D02*
X72747200Y-51657142D01*
X72747200Y-51657142D02*
X72651961Y-51752380D01*
X72651961Y-51752380D02*
X72461485Y-51799999D01*
X72461485Y-51799999D02*
X72128152Y-51799999D01*
X72128152Y-51799999D02*
X71937676Y-51752380D01*
X71937676Y-51752380D02*
X71842438Y-51657142D01*
X71842438Y-51657142D02*
X71794819Y-51561904D01*
X72794819Y-50704761D02*
X71794819Y-50704761D01*
X71794819Y-50704761D02*
X72509104Y-50371428D01*
X72509104Y-50371428D02*
X71794819Y-50038095D01*
X71794819Y-50038095D02*
X72794819Y-50038095D01*
X72223390Y-49419047D02*
X72175771Y-49514285D01*
X72175771Y-49514285D02*
X72128152Y-49561904D01*
X72128152Y-49561904D02*
X72032914Y-49609523D01*
X72032914Y-49609523D02*
X71985295Y-49609523D01*
X71985295Y-49609523D02*
X71890057Y-49561904D01*
X71890057Y-49561904D02*
X71842438Y-49514285D01*
X71842438Y-49514285D02*
X71794819Y-49419047D01*
X71794819Y-49419047D02*
X71794819Y-49228571D01*
X71794819Y-49228571D02*
X71842438Y-49133333D01*
X71842438Y-49133333D02*
X71890057Y-49085714D01*
X71890057Y-49085714D02*
X71985295Y-49038095D01*
X71985295Y-49038095D02*
X72032914Y-49038095D01*
X72032914Y-49038095D02*
X72128152Y-49085714D01*
X72128152Y-49085714D02*
X72175771Y-49133333D01*
X72175771Y-49133333D02*
X72223390Y-49228571D01*
X72223390Y-49228571D02*
X72223390Y-49419047D01*
X72223390Y-49419047D02*
X72271009Y-49514285D01*
X72271009Y-49514285D02*
X72318628Y-49561904D01*
X72318628Y-49561904D02*
X72413866Y-49609523D01*
X72413866Y-49609523D02*
X72604342Y-49609523D01*
X72604342Y-49609523D02*
X72699580Y-49561904D01*
X72699580Y-49561904D02*
X72747200Y-49514285D01*
X72747200Y-49514285D02*
X72794819Y-49419047D01*
X72794819Y-49419047D02*
X72794819Y-49228571D01*
X72794819Y-49228571D02*
X72747200Y-49133333D01*
X72747200Y-49133333D02*
X72699580Y-49085714D01*
X72699580Y-49085714D02*
X72604342Y-49038095D01*
X72604342Y-49038095D02*
X72413866Y-49038095D01*
X72413866Y-49038095D02*
X72318628Y-49085714D01*
X72318628Y-49085714D02*
X72271009Y-49133333D01*
X72271009Y-49133333D02*
X72223390Y-49228571D01*
X12804819Y-17904762D02*
X12328628Y-18238095D01*
X12804819Y-18476190D02*
X11804819Y-18476190D01*
X11804819Y-18476190D02*
X11804819Y-18095238D01*
X11804819Y-18095238D02*
X11852438Y-18000000D01*
X11852438Y-18000000D02*
X11900057Y-17952381D01*
X11900057Y-17952381D02*
X11995295Y-17904762D01*
X11995295Y-17904762D02*
X12138152Y-17904762D01*
X12138152Y-17904762D02*
X12233390Y-17952381D01*
X12233390Y-17952381D02*
X12281009Y-18000000D01*
X12281009Y-18000000D02*
X12328628Y-18095238D01*
X12328628Y-18095238D02*
X12328628Y-18476190D01*
X12900057Y-17714286D02*
X12900057Y-16952381D01*
X12804819Y-16238095D02*
X12804819Y-16714285D01*
X12804819Y-16714285D02*
X11804819Y-16714285D01*
X12281009Y-15904761D02*
X12281009Y-15571428D01*
X12804819Y-15428571D02*
X12804819Y-15904761D01*
X12804819Y-15904761D02*
X11804819Y-15904761D01*
X11804819Y-15904761D02*
X11804819Y-15428571D01*
X12804819Y-14999999D02*
X11804819Y-14999999D01*
X11804819Y-14999999D02*
X11804819Y-14761904D01*
X11804819Y-14761904D02*
X11852438Y-14619047D01*
X11852438Y-14619047D02*
X11947676Y-14523809D01*
X11947676Y-14523809D02*
X12042914Y-14476190D01*
X12042914Y-14476190D02*
X12233390Y-14428571D01*
X12233390Y-14428571D02*
X12376247Y-14428571D01*
X12376247Y-14428571D02*
X12566723Y-14476190D01*
X12566723Y-14476190D02*
X12661961Y-14523809D01*
X12661961Y-14523809D02*
X12757200Y-14619047D01*
X12757200Y-14619047D02*
X12804819Y-14761904D01*
X12804819Y-14761904D02*
X12804819Y-14999999D01*
X12138152Y-13571428D02*
X12804819Y-13571428D01*
X11757200Y-13809523D02*
X12471485Y-14047618D01*
X12471485Y-14047618D02*
X12471485Y-13428571D01*
X12804819Y-5904762D02*
X12328628Y-6238095D01*
X12804819Y-6476190D02*
X11804819Y-6476190D01*
X11804819Y-6476190D02*
X11804819Y-6095238D01*
X11804819Y-6095238D02*
X11852438Y-6000000D01*
X11852438Y-6000000D02*
X11900057Y-5952381D01*
X11900057Y-5952381D02*
X11995295Y-5904762D01*
X11995295Y-5904762D02*
X12138152Y-5904762D01*
X12138152Y-5904762D02*
X12233390Y-5952381D01*
X12233390Y-5952381D02*
X12281009Y-6000000D01*
X12281009Y-6000000D02*
X12328628Y-6095238D01*
X12328628Y-6095238D02*
X12328628Y-6476190D01*
X12900057Y-5714286D02*
X12900057Y-4952381D01*
X12804819Y-4238095D02*
X12804819Y-4714285D01*
X12804819Y-4714285D02*
X11804819Y-4714285D01*
X12281009Y-3904761D02*
X12281009Y-3571428D01*
X12804819Y-3428571D02*
X12804819Y-3904761D01*
X12804819Y-3904761D02*
X11804819Y-3904761D01*
X11804819Y-3904761D02*
X11804819Y-3428571D01*
X12804819Y-2999999D02*
X11804819Y-2999999D01*
X11804819Y-2999999D02*
X11804819Y-2761904D01*
X11804819Y-2761904D02*
X11852438Y-2619047D01*
X11852438Y-2619047D02*
X11947676Y-2523809D01*
X11947676Y-2523809D02*
X12042914Y-2476190D01*
X12042914Y-2476190D02*
X12233390Y-2428571D01*
X12233390Y-2428571D02*
X12376247Y-2428571D01*
X12376247Y-2428571D02*
X12566723Y-2476190D01*
X12566723Y-2476190D02*
X12661961Y-2523809D01*
X12661961Y-2523809D02*
X12757200Y-2619047D01*
X12757200Y-2619047D02*
X12804819Y-2761904D01*
X12804819Y-2761904D02*
X12804819Y-2999999D01*
X12804819Y-1476190D02*
X12804819Y-2047618D01*
X12804819Y-1761904D02*
X11804819Y-1761904D01*
X11804819Y-1761904D02*
X11947676Y-1857142D01*
X11947676Y-1857142D02*
X12042914Y-1952380D01*
X12042914Y-1952380D02*
X12090533Y-2047618D01*
X9804819Y-24738094D02*
X8804819Y-24738094D01*
X8804819Y-24738094D02*
X8804819Y-24499999D01*
X8804819Y-24499999D02*
X8852438Y-24357142D01*
X8852438Y-24357142D02*
X8947676Y-24261904D01*
X8947676Y-24261904D02*
X9042914Y-24214285D01*
X9042914Y-24214285D02*
X9233390Y-24166666D01*
X9233390Y-24166666D02*
X9376247Y-24166666D01*
X9376247Y-24166666D02*
X9566723Y-24214285D01*
X9566723Y-24214285D02*
X9661961Y-24261904D01*
X9661961Y-24261904D02*
X9757200Y-24357142D01*
X9757200Y-24357142D02*
X9804819Y-24499999D01*
X9804819Y-24499999D02*
X9804819Y-24738094D01*
X8804819Y-23309523D02*
X8804819Y-23499999D01*
X8804819Y-23499999D02*
X8852438Y-23595237D01*
X8852438Y-23595237D02*
X8900057Y-23642856D01*
X8900057Y-23642856D02*
X9042914Y-23738094D01*
X9042914Y-23738094D02*
X9233390Y-23785713D01*
X9233390Y-23785713D02*
X9614342Y-23785713D01*
X9614342Y-23785713D02*
X9709580Y-23738094D01*
X9709580Y-23738094D02*
X9757200Y-23690475D01*
X9757200Y-23690475D02*
X9804819Y-23595237D01*
X9804819Y-23595237D02*
X9804819Y-23404761D01*
X9804819Y-23404761D02*
X9757200Y-23309523D01*
X9757200Y-23309523D02*
X9709580Y-23261904D01*
X9709580Y-23261904D02*
X9614342Y-23214285D01*
X9614342Y-23214285D02*
X9376247Y-23214285D01*
X9376247Y-23214285D02*
X9281009Y-23261904D01*
X9281009Y-23261904D02*
X9233390Y-23309523D01*
X9233390Y-23309523D02*
X9185771Y-23404761D01*
X9185771Y-23404761D02*
X9185771Y-23595237D01*
X9185771Y-23595237D02*
X9233390Y-23690475D01*
X9233390Y-23690475D02*
X9281009Y-23738094D01*
X9281009Y-23738094D02*
X9376247Y-23785713D01*
X89690476Y-74804819D02*
X89357143Y-74328628D01*
X89119048Y-74804819D02*
X89119048Y-73804819D01*
X89119048Y-73804819D02*
X89500000Y-73804819D01*
X89500000Y-73804819D02*
X89595238Y-73852438D01*
X89595238Y-73852438D02*
X89642857Y-73900057D01*
X89642857Y-73900057D02*
X89690476Y-73995295D01*
X89690476Y-73995295D02*
X89690476Y-74138152D01*
X89690476Y-74138152D02*
X89642857Y-74233390D01*
X89642857Y-74233390D02*
X89595238Y-74281009D01*
X89595238Y-74281009D02*
X89500000Y-74328628D01*
X89500000Y-74328628D02*
X89119048Y-74328628D01*
X89880953Y-74900057D02*
X90642857Y-74900057D01*
X90880953Y-74804819D02*
X90880953Y-73804819D01*
X90880953Y-74281009D02*
X91452381Y-74281009D01*
X91452381Y-74804819D02*
X91452381Y-73804819D01*
X91928572Y-74804819D02*
X91928572Y-73804819D01*
X92309524Y-73804819D02*
X92928571Y-73804819D01*
X92928571Y-73804819D02*
X92595238Y-74185771D01*
X92595238Y-74185771D02*
X92738095Y-74185771D01*
X92738095Y-74185771D02*
X92833333Y-74233390D01*
X92833333Y-74233390D02*
X92880952Y-74281009D01*
X92880952Y-74281009D02*
X92928571Y-74376247D01*
X92928571Y-74376247D02*
X92928571Y-74614342D01*
X92928571Y-74614342D02*
X92880952Y-74709580D01*
X92880952Y-74709580D02*
X92833333Y-74757200D01*
X92833333Y-74757200D02*
X92738095Y-74804819D01*
X92738095Y-74804819D02*
X92452381Y-74804819D01*
X92452381Y-74804819D02*
X92357143Y-74757200D01*
X92357143Y-74757200D02*
X92309524Y-74709580D01*
X86452381Y-806819D02*
X87023809Y-806819D01*
X86738095Y-1806819D02*
X86738095Y-806819D01*
X87357143Y-1806819D02*
X87357143Y-806819D01*
X87357143Y-806819D02*
X87738095Y-806819D01*
X87738095Y-806819D02*
X87833333Y-854438D01*
X87833333Y-854438D02*
X87880952Y-902057D01*
X87880952Y-902057D02*
X87928571Y-997295D01*
X87928571Y-997295D02*
X87928571Y-1140152D01*
X87928571Y-1140152D02*
X87880952Y-1235390D01*
X87880952Y-1235390D02*
X87833333Y-1283009D01*
X87833333Y-1283009D02*
X87738095Y-1330628D01*
X87738095Y-1330628D02*
X87357143Y-1330628D01*
X88119048Y-1902057D02*
X88880952Y-1902057D01*
X89071429Y-1521104D02*
X89547619Y-1521104D01*
X88976191Y-1806819D02*
X89309524Y-806819D01*
X89309524Y-806819D02*
X89642857Y-1806819D01*
X89976191Y-1806819D02*
X89976191Y-806819D01*
X89976191Y-806819D02*
X90214286Y-806819D01*
X90214286Y-806819D02*
X90357143Y-854438D01*
X90357143Y-854438D02*
X90452381Y-949676D01*
X90452381Y-949676D02*
X90500000Y-1044914D01*
X90500000Y-1044914D02*
X90547619Y-1235390D01*
X90547619Y-1235390D02*
X90547619Y-1378247D01*
X90547619Y-1378247D02*
X90500000Y-1568723D01*
X90500000Y-1568723D02*
X90452381Y-1663961D01*
X90452381Y-1663961D02*
X90357143Y-1759200D01*
X90357143Y-1759200D02*
X90214286Y-1806819D01*
X90214286Y-1806819D02*
X89976191Y-1806819D01*
X91547619Y-1711580D02*
X91500000Y-1759200D01*
X91500000Y-1759200D02*
X91357143Y-1806819D01*
X91357143Y-1806819D02*
X91261905Y-1806819D01*
X91261905Y-1806819D02*
X91119048Y-1759200D01*
X91119048Y-1759200D02*
X91023810Y-1663961D01*
X91023810Y-1663961D02*
X90976191Y-1568723D01*
X90976191Y-1568723D02*
X90928572Y-1378247D01*
X90928572Y-1378247D02*
X90928572Y-1235390D01*
X90928572Y-1235390D02*
X90976191Y-1044914D01*
X90976191Y-1044914D02*
X91023810Y-949676D01*
X91023810Y-949676D02*
X91119048Y-854438D01*
X91119048Y-854438D02*
X91261905Y-806819D01*
X91261905Y-806819D02*
X91357143Y-806819D01*
X91357143Y-806819D02*
X91500000Y-854438D01*
X91500000Y-854438D02*
X91547619Y-902057D01*
X92500000Y-1806819D02*
X91928572Y-1806819D01*
X92214286Y-1806819D02*
X92214286Y-806819D01*
X92214286Y-806819D02*
X92119048Y-949676D01*
X92119048Y-949676D02*
X92023810Y-1044914D01*
X92023810Y-1044914D02*
X91928572Y-1092533D01*
X92880953Y-902057D02*
X92928572Y-854438D01*
X92928572Y-854438D02*
X93023810Y-806819D01*
X93023810Y-806819D02*
X93261905Y-806819D01*
X93261905Y-806819D02*
X93357143Y-854438D01*
X93357143Y-854438D02*
X93404762Y-902057D01*
X93404762Y-902057D02*
X93452381Y-997295D01*
X93452381Y-997295D02*
X93452381Y-1092533D01*
X93452381Y-1092533D02*
X93404762Y-1235390D01*
X93404762Y-1235390D02*
X92833334Y-1806819D01*
X92833334Y-1806819D02*
X93452381Y-1806819D01*
X9804819Y-12738094D02*
X8804819Y-12738094D01*
X8804819Y-12738094D02*
X8804819Y-12499999D01*
X8804819Y-12499999D02*
X8852438Y-12357142D01*
X8852438Y-12357142D02*
X8947676Y-12261904D01*
X8947676Y-12261904D02*
X9042914Y-12214285D01*
X9042914Y-12214285D02*
X9233390Y-12166666D01*
X9233390Y-12166666D02*
X9376247Y-12166666D01*
X9376247Y-12166666D02*
X9566723Y-12214285D01*
X9566723Y-12214285D02*
X9661961Y-12261904D01*
X9661961Y-12261904D02*
X9757200Y-12357142D01*
X9757200Y-12357142D02*
X9804819Y-12499999D01*
X9804819Y-12499999D02*
X9804819Y-12738094D01*
X8804819Y-11833332D02*
X8804819Y-11214285D01*
X8804819Y-11214285D02*
X9185771Y-11547618D01*
X9185771Y-11547618D02*
X9185771Y-11404761D01*
X9185771Y-11404761D02*
X9233390Y-11309523D01*
X9233390Y-11309523D02*
X9281009Y-11261904D01*
X9281009Y-11261904D02*
X9376247Y-11214285D01*
X9376247Y-11214285D02*
X9614342Y-11214285D01*
X9614342Y-11214285D02*
X9709580Y-11261904D01*
X9709580Y-11261904D02*
X9757200Y-11309523D01*
X9757200Y-11309523D02*
X9804819Y-11404761D01*
X9804819Y-11404761D02*
X9804819Y-11690475D01*
X9804819Y-11690475D02*
X9757200Y-11785713D01*
X9757200Y-11785713D02*
X9709580Y-11833332D01*
X57571428Y-68304819D02*
X57238095Y-67828628D01*
X57000000Y-68304819D02*
X57000000Y-67304819D01*
X57000000Y-67304819D02*
X57380952Y-67304819D01*
X57380952Y-67304819D02*
X57476190Y-67352438D01*
X57476190Y-67352438D02*
X57523809Y-67400057D01*
X57523809Y-67400057D02*
X57571428Y-67495295D01*
X57571428Y-67495295D02*
X57571428Y-67638152D01*
X57571428Y-67638152D02*
X57523809Y-67733390D01*
X57523809Y-67733390D02*
X57476190Y-67781009D01*
X57476190Y-67781009D02*
X57380952Y-67828628D01*
X57380952Y-67828628D02*
X57000000Y-67828628D01*
X57761905Y-68400057D02*
X58523809Y-68400057D01*
X59333333Y-68304819D02*
X59000000Y-67828628D01*
X58761905Y-68304819D02*
X58761905Y-67304819D01*
X58761905Y-67304819D02*
X59142857Y-67304819D01*
X59142857Y-67304819D02*
X59238095Y-67352438D01*
X59238095Y-67352438D02*
X59285714Y-67400057D01*
X59285714Y-67400057D02*
X59333333Y-67495295D01*
X59333333Y-67495295D02*
X59333333Y-67638152D01*
X59333333Y-67638152D02*
X59285714Y-67733390D01*
X59285714Y-67733390D02*
X59238095Y-67781009D01*
X59238095Y-67781009D02*
X59142857Y-67828628D01*
X59142857Y-67828628D02*
X58761905Y-67828628D01*
X59761905Y-67781009D02*
X60095238Y-67781009D01*
X60238095Y-68304819D02*
X59761905Y-68304819D01*
X59761905Y-68304819D02*
X59761905Y-67304819D01*
X59761905Y-67304819D02*
X60238095Y-67304819D01*
X61000000Y-67781009D02*
X60666667Y-67781009D01*
X60666667Y-68304819D02*
X60666667Y-67304819D01*
X60666667Y-67304819D02*
X61142857Y-67304819D01*
X61857143Y-67781009D02*
X62000000Y-67828628D01*
X62000000Y-67828628D02*
X62047619Y-67876247D01*
X62047619Y-67876247D02*
X62095238Y-67971485D01*
X62095238Y-67971485D02*
X62095238Y-68114342D01*
X62095238Y-68114342D02*
X62047619Y-68209580D01*
X62047619Y-68209580D02*
X62000000Y-68257200D01*
X62000000Y-68257200D02*
X61904762Y-68304819D01*
X61904762Y-68304819D02*
X61523810Y-68304819D01*
X61523810Y-68304819D02*
X61523810Y-67304819D01*
X61523810Y-67304819D02*
X61857143Y-67304819D01*
X61857143Y-67304819D02*
X61952381Y-67352438D01*
X61952381Y-67352438D02*
X62000000Y-67400057D01*
X62000000Y-67400057D02*
X62047619Y-67495295D01*
X62047619Y-67495295D02*
X62047619Y-67590533D01*
X62047619Y-67590533D02*
X62000000Y-67685771D01*
X62000000Y-67685771D02*
X61952381Y-67733390D01*
X61952381Y-67733390D02*
X61857143Y-67781009D01*
X61857143Y-67781009D02*
X61523810Y-67781009D01*
X62476191Y-67400057D02*
X62523810Y-67352438D01*
X62523810Y-67352438D02*
X62619048Y-67304819D01*
X62619048Y-67304819D02*
X62857143Y-67304819D01*
X62857143Y-67304819D02*
X62952381Y-67352438D01*
X62952381Y-67352438D02*
X63000000Y-67400057D01*
X63000000Y-67400057D02*
X63047619Y-67495295D01*
X63047619Y-67495295D02*
X63047619Y-67590533D01*
X63047619Y-67590533D02*
X63000000Y-67733390D01*
X63000000Y-67733390D02*
X62428572Y-68304819D01*
X62428572Y-68304819D02*
X63047619Y-68304819D01*
X71594819Y-57805238D02*
X71118628Y-58138571D01*
X71594819Y-58376666D02*
X70594819Y-58376666D01*
X70594819Y-58376666D02*
X70594819Y-57995714D01*
X70594819Y-57995714D02*
X70642438Y-57900476D01*
X70642438Y-57900476D02*
X70690057Y-57852857D01*
X70690057Y-57852857D02*
X70785295Y-57805238D01*
X70785295Y-57805238D02*
X70928152Y-57805238D01*
X70928152Y-57805238D02*
X71023390Y-57852857D01*
X71023390Y-57852857D02*
X71071009Y-57900476D01*
X71071009Y-57900476D02*
X71118628Y-57995714D01*
X71118628Y-57995714D02*
X71118628Y-58376666D01*
X70594819Y-57519523D02*
X71594819Y-57186190D01*
X71594819Y-57186190D02*
X70594819Y-56852857D01*
X70928152Y-56090952D02*
X71594819Y-56090952D01*
X70547200Y-56329047D02*
X71261485Y-56567142D01*
X71261485Y-56567142D02*
X71261485Y-55948095D01*
X95304819Y-67476190D02*
X94828628Y-67809523D01*
X95304819Y-68047618D02*
X94304819Y-68047618D01*
X94304819Y-68047618D02*
X94304819Y-67666666D01*
X94304819Y-67666666D02*
X94352438Y-67571428D01*
X94352438Y-67571428D02*
X94400057Y-67523809D01*
X94400057Y-67523809D02*
X94495295Y-67476190D01*
X94495295Y-67476190D02*
X94638152Y-67476190D01*
X94638152Y-67476190D02*
X94733390Y-67523809D01*
X94733390Y-67523809D02*
X94781009Y-67571428D01*
X94781009Y-67571428D02*
X94828628Y-67666666D01*
X94828628Y-67666666D02*
X94828628Y-68047618D01*
X95400057Y-67285714D02*
X95400057Y-66523809D01*
X95304819Y-65809523D02*
X95304819Y-66285713D01*
X95304819Y-66285713D02*
X94304819Y-66285713D01*
X94304819Y-65285713D02*
X94304819Y-65095237D01*
X94304819Y-65095237D02*
X94352438Y-64999999D01*
X94352438Y-64999999D02*
X94447676Y-64904761D01*
X94447676Y-64904761D02*
X94638152Y-64857142D01*
X94638152Y-64857142D02*
X94971485Y-64857142D01*
X94971485Y-64857142D02*
X95161961Y-64904761D01*
X95161961Y-64904761D02*
X95257200Y-64999999D01*
X95257200Y-64999999D02*
X95304819Y-65095237D01*
X95304819Y-65095237D02*
X95304819Y-65285713D01*
X95304819Y-65285713D02*
X95257200Y-65380951D01*
X95257200Y-65380951D02*
X95161961Y-65476189D01*
X95161961Y-65476189D02*
X94971485Y-65523808D01*
X94971485Y-65523808D02*
X94638152Y-65523808D01*
X94638152Y-65523808D02*
X94447676Y-65476189D01*
X94447676Y-65476189D02*
X94352438Y-65380951D01*
X94352438Y-65380951D02*
X94304819Y-65285713D01*
X94638152Y-63999999D02*
X95304819Y-63999999D01*
X94257200Y-64238094D02*
X94971485Y-64476189D01*
X94971485Y-64476189D02*
X94971485Y-63857142D01*
X2880952Y-3799819D02*
X2880952Y-4609342D01*
X2880952Y-4609342D02*
X2928571Y-4704580D01*
X2928571Y-4704580D02*
X2976190Y-4752200D01*
X2976190Y-4752200D02*
X3071428Y-4799819D01*
X3071428Y-4799819D02*
X3261904Y-4799819D01*
X3261904Y-4799819D02*
X3357142Y-4752200D01*
X3357142Y-4752200D02*
X3404761Y-4704580D01*
X3404761Y-4704580D02*
X3452380Y-4609342D01*
X3452380Y-4609342D02*
X3452380Y-3799819D01*
X3690476Y-4895057D02*
X4452380Y-4895057D01*
X4642857Y-4752200D02*
X4785714Y-4799819D01*
X4785714Y-4799819D02*
X5023809Y-4799819D01*
X5023809Y-4799819D02*
X5119047Y-4752200D01*
X5119047Y-4752200D02*
X5166666Y-4704580D01*
X5166666Y-4704580D02*
X5214285Y-4609342D01*
X5214285Y-4609342D02*
X5214285Y-4514104D01*
X5214285Y-4514104D02*
X5166666Y-4418866D01*
X5166666Y-4418866D02*
X5119047Y-4371247D01*
X5119047Y-4371247D02*
X5023809Y-4323628D01*
X5023809Y-4323628D02*
X4833333Y-4276009D01*
X4833333Y-4276009D02*
X4738095Y-4228390D01*
X4738095Y-4228390D02*
X4690476Y-4180771D01*
X4690476Y-4180771D02*
X4642857Y-4085533D01*
X4642857Y-4085533D02*
X4642857Y-3990295D01*
X4642857Y-3990295D02*
X4690476Y-3895057D01*
X4690476Y-3895057D02*
X4738095Y-3847438D01*
X4738095Y-3847438D02*
X4833333Y-3799819D01*
X4833333Y-3799819D02*
X5071428Y-3799819D01*
X5071428Y-3799819D02*
X5214285Y-3847438D01*
X6214285Y-4799819D02*
X5880952Y-4323628D01*
X5642857Y-4799819D02*
X5642857Y-3799819D01*
X5642857Y-3799819D02*
X6023809Y-3799819D01*
X6023809Y-3799819D02*
X6119047Y-3847438D01*
X6119047Y-3847438D02*
X6166666Y-3895057D01*
X6166666Y-3895057D02*
X6214285Y-3990295D01*
X6214285Y-3990295D02*
X6214285Y-4133152D01*
X6214285Y-4133152D02*
X6166666Y-4228390D01*
X6166666Y-4228390D02*
X6119047Y-4276009D01*
X6119047Y-4276009D02*
X6023809Y-4323628D01*
X6023809Y-4323628D02*
X5642857Y-4323628D01*
X7166666Y-4799819D02*
X6595238Y-4799819D01*
X6880952Y-4799819D02*
X6880952Y-3799819D01*
X6880952Y-3799819D02*
X6785714Y-3942676D01*
X6785714Y-3942676D02*
X6690476Y-4037914D01*
X6690476Y-4037914D02*
X6595238Y-4085533D01*
X84690476Y-70804819D02*
X84357143Y-70328628D01*
X84119048Y-70804819D02*
X84119048Y-69804819D01*
X84119048Y-69804819D02*
X84500000Y-69804819D01*
X84500000Y-69804819D02*
X84595238Y-69852438D01*
X84595238Y-69852438D02*
X84642857Y-69900057D01*
X84642857Y-69900057D02*
X84690476Y-69995295D01*
X84690476Y-69995295D02*
X84690476Y-70138152D01*
X84690476Y-70138152D02*
X84642857Y-70233390D01*
X84642857Y-70233390D02*
X84595238Y-70281009D01*
X84595238Y-70281009D02*
X84500000Y-70328628D01*
X84500000Y-70328628D02*
X84119048Y-70328628D01*
X84880953Y-70900057D02*
X85642857Y-70900057D01*
X85880953Y-70804819D02*
X85880953Y-69804819D01*
X85880953Y-70281009D02*
X86452381Y-70281009D01*
X86452381Y-70804819D02*
X86452381Y-69804819D01*
X86928572Y-70804819D02*
X86928572Y-69804819D01*
X87928571Y-70804819D02*
X87357143Y-70804819D01*
X87642857Y-70804819D02*
X87642857Y-69804819D01*
X87642857Y-69804819D02*
X87547619Y-69947676D01*
X87547619Y-69947676D02*
X87452381Y-70042914D01*
X87452381Y-70042914D02*
X87357143Y-70090533D01*
X94428571Y-1806819D02*
X94999999Y-1806819D01*
X94714285Y-2806819D02*
X94714285Y-1806819D01*
X95333333Y-2806819D02*
X95333333Y-1806819D01*
X95333333Y-1806819D02*
X95714285Y-1806819D01*
X95714285Y-1806819D02*
X95809523Y-1854438D01*
X95809523Y-1854438D02*
X95857142Y-1902057D01*
X95857142Y-1902057D02*
X95904761Y-1997295D01*
X95904761Y-1997295D02*
X95904761Y-2140152D01*
X95904761Y-2140152D02*
X95857142Y-2235390D01*
X95857142Y-2235390D02*
X95809523Y-2283009D01*
X95809523Y-2283009D02*
X95714285Y-2330628D01*
X95714285Y-2330628D02*
X95333333Y-2330628D01*
X96095238Y-2902057D02*
X96857142Y-2902057D01*
X97666666Y-2711580D02*
X97619047Y-2759200D01*
X97619047Y-2759200D02*
X97476190Y-2806819D01*
X97476190Y-2806819D02*
X97380952Y-2806819D01*
X97380952Y-2806819D02*
X97238095Y-2759200D01*
X97238095Y-2759200D02*
X97142857Y-2663961D01*
X97142857Y-2663961D02*
X97095238Y-2568723D01*
X97095238Y-2568723D02*
X97047619Y-2378247D01*
X97047619Y-2378247D02*
X97047619Y-2235390D01*
X97047619Y-2235390D02*
X97095238Y-2044914D01*
X97095238Y-2044914D02*
X97142857Y-1949676D01*
X97142857Y-1949676D02*
X97238095Y-1854438D01*
X97238095Y-1854438D02*
X97380952Y-1806819D01*
X97380952Y-1806819D02*
X97476190Y-1806819D01*
X97476190Y-1806819D02*
X97619047Y-1854438D01*
X97619047Y-1854438D02*
X97666666Y-1902057D01*
X98571428Y-2806819D02*
X98095238Y-2806819D01*
X98095238Y-2806819D02*
X98095238Y-1806819D01*
X98904762Y-2806819D02*
X98904762Y-1806819D01*
X99476190Y-2806819D02*
X99047619Y-2235390D01*
X99476190Y-1806819D02*
X98904762Y-2378247D01*
X44594819Y-72305238D02*
X44118628Y-72638571D01*
X44594819Y-72876666D02*
X43594819Y-72876666D01*
X43594819Y-72876666D02*
X43594819Y-72495714D01*
X43594819Y-72495714D02*
X43642438Y-72400476D01*
X43642438Y-72400476D02*
X43690057Y-72352857D01*
X43690057Y-72352857D02*
X43785295Y-72305238D01*
X43785295Y-72305238D02*
X43928152Y-72305238D01*
X43928152Y-72305238D02*
X44023390Y-72352857D01*
X44023390Y-72352857D02*
X44071009Y-72400476D01*
X44071009Y-72400476D02*
X44118628Y-72495714D01*
X44118628Y-72495714D02*
X44118628Y-72876666D01*
X43594819Y-72019523D02*
X44594819Y-71686190D01*
X44594819Y-71686190D02*
X43594819Y-71352857D01*
X43594819Y-70590952D02*
X43594819Y-70781428D01*
X43594819Y-70781428D02*
X43642438Y-70876666D01*
X43642438Y-70876666D02*
X43690057Y-70924285D01*
X43690057Y-70924285D02*
X43832914Y-71019523D01*
X43832914Y-71019523D02*
X44023390Y-71067142D01*
X44023390Y-71067142D02*
X44404342Y-71067142D01*
X44404342Y-71067142D02*
X44499580Y-71019523D01*
X44499580Y-71019523D02*
X44547200Y-70971904D01*
X44547200Y-70971904D02*
X44594819Y-70876666D01*
X44594819Y-70876666D02*
X44594819Y-70686190D01*
X44594819Y-70686190D02*
X44547200Y-70590952D01*
X44547200Y-70590952D02*
X44499580Y-70543333D01*
X44499580Y-70543333D02*
X44404342Y-70495714D01*
X44404342Y-70495714D02*
X44166247Y-70495714D01*
X44166247Y-70495714D02*
X44071009Y-70543333D01*
X44071009Y-70543333D02*
X44023390Y-70590952D01*
X44023390Y-70590952D02*
X43975771Y-70686190D01*
X43975771Y-70686190D02*
X43975771Y-70876666D01*
X43975771Y-70876666D02*
X44023390Y-70971904D01*
X44023390Y-70971904D02*
X44071009Y-71019523D01*
X44071009Y-71019523D02*
X44166247Y-71067142D01*
X62999999Y-72304819D02*
X62666666Y-71828628D01*
X62428571Y-72304819D02*
X62428571Y-71304819D01*
X62428571Y-71304819D02*
X62809523Y-71304819D01*
X62809523Y-71304819D02*
X62904761Y-71352438D01*
X62904761Y-71352438D02*
X62952380Y-71400057D01*
X62952380Y-71400057D02*
X62999999Y-71495295D01*
X62999999Y-71495295D02*
X62999999Y-71638152D01*
X62999999Y-71638152D02*
X62952380Y-71733390D01*
X62952380Y-71733390D02*
X62904761Y-71781009D01*
X62904761Y-71781009D02*
X62809523Y-71828628D01*
X62809523Y-71828628D02*
X62428571Y-71828628D01*
X63190476Y-72400057D02*
X63952380Y-72400057D01*
X64142857Y-72257200D02*
X64285714Y-72304819D01*
X64285714Y-72304819D02*
X64523809Y-72304819D01*
X64523809Y-72304819D02*
X64619047Y-72257200D01*
X64619047Y-72257200D02*
X64666666Y-72209580D01*
X64666666Y-72209580D02*
X64714285Y-72114342D01*
X64714285Y-72114342D02*
X64714285Y-72019104D01*
X64714285Y-72019104D02*
X64666666Y-71923866D01*
X64666666Y-71923866D02*
X64619047Y-71876247D01*
X64619047Y-71876247D02*
X64523809Y-71828628D01*
X64523809Y-71828628D02*
X64333333Y-71781009D01*
X64333333Y-71781009D02*
X64238095Y-71733390D01*
X64238095Y-71733390D02*
X64190476Y-71685771D01*
X64190476Y-71685771D02*
X64142857Y-71590533D01*
X64142857Y-71590533D02*
X64142857Y-71495295D01*
X64142857Y-71495295D02*
X64190476Y-71400057D01*
X64190476Y-71400057D02*
X64238095Y-71352438D01*
X64238095Y-71352438D02*
X64333333Y-71304819D01*
X64333333Y-71304819D02*
X64571428Y-71304819D01*
X64571428Y-71304819D02*
X64714285Y-71352438D01*
X65142857Y-72304819D02*
X65142857Y-71304819D01*
X65142857Y-71304819D02*
X65523809Y-71304819D01*
X65523809Y-71304819D02*
X65619047Y-71352438D01*
X65619047Y-71352438D02*
X65666666Y-71400057D01*
X65666666Y-71400057D02*
X65714285Y-71495295D01*
X65714285Y-71495295D02*
X65714285Y-71638152D01*
X65714285Y-71638152D02*
X65666666Y-71733390D01*
X65666666Y-71733390D02*
X65619047Y-71781009D01*
X65619047Y-71781009D02*
X65523809Y-71828628D01*
X65523809Y-71828628D02*
X65142857Y-71828628D01*
X66666666Y-72304819D02*
X66095238Y-72304819D01*
X66380952Y-72304819D02*
X66380952Y-71304819D01*
X66380952Y-71304819D02*
X66285714Y-71447676D01*
X66285714Y-71447676D02*
X66190476Y-71542914D01*
X66190476Y-71542914D02*
X66095238Y-71590533D01*
X67619047Y-72304819D02*
X67047619Y-72304819D01*
X67333333Y-72304819D02*
X67333333Y-71304819D01*
X67333333Y-71304819D02*
X67238095Y-71447676D01*
X67238095Y-71447676D02*
X67142857Y-71542914D01*
X67142857Y-71542914D02*
X67047619Y-71590533D01*
X12804819Y-21904762D02*
X12328628Y-22238095D01*
X12804819Y-22476190D02*
X11804819Y-22476190D01*
X11804819Y-22476190D02*
X11804819Y-22095238D01*
X11804819Y-22095238D02*
X11852438Y-22000000D01*
X11852438Y-22000000D02*
X11900057Y-21952381D01*
X11900057Y-21952381D02*
X11995295Y-21904762D01*
X11995295Y-21904762D02*
X12138152Y-21904762D01*
X12138152Y-21904762D02*
X12233390Y-21952381D01*
X12233390Y-21952381D02*
X12281009Y-22000000D01*
X12281009Y-22000000D02*
X12328628Y-22095238D01*
X12328628Y-22095238D02*
X12328628Y-22476190D01*
X12900057Y-21714286D02*
X12900057Y-20952381D01*
X12804819Y-20238095D02*
X12804819Y-20714285D01*
X12804819Y-20714285D02*
X11804819Y-20714285D01*
X12281009Y-19904761D02*
X12281009Y-19571428D01*
X12804819Y-19428571D02*
X12804819Y-19904761D01*
X12804819Y-19904761D02*
X11804819Y-19904761D01*
X11804819Y-19904761D02*
X11804819Y-19428571D01*
X12804819Y-18999999D02*
X11804819Y-18999999D01*
X11804819Y-18999999D02*
X11804819Y-18761904D01*
X11804819Y-18761904D02*
X11852438Y-18619047D01*
X11852438Y-18619047D02*
X11947676Y-18523809D01*
X11947676Y-18523809D02*
X12042914Y-18476190D01*
X12042914Y-18476190D02*
X12233390Y-18428571D01*
X12233390Y-18428571D02*
X12376247Y-18428571D01*
X12376247Y-18428571D02*
X12566723Y-18476190D01*
X12566723Y-18476190D02*
X12661961Y-18523809D01*
X12661961Y-18523809D02*
X12757200Y-18619047D01*
X12757200Y-18619047D02*
X12804819Y-18761904D01*
X12804819Y-18761904D02*
X12804819Y-18999999D01*
X11804819Y-17523809D02*
X11804819Y-17999999D01*
X11804819Y-17999999D02*
X12281009Y-18047618D01*
X12281009Y-18047618D02*
X12233390Y-17999999D01*
X12233390Y-17999999D02*
X12185771Y-17904761D01*
X12185771Y-17904761D02*
X12185771Y-17666666D01*
X12185771Y-17666666D02*
X12233390Y-17571428D01*
X12233390Y-17571428D02*
X12281009Y-17523809D01*
X12281009Y-17523809D02*
X12376247Y-17476190D01*
X12376247Y-17476190D02*
X12614342Y-17476190D01*
X12614342Y-17476190D02*
X12709580Y-17523809D01*
X12709580Y-17523809D02*
X12757200Y-17571428D01*
X12757200Y-17571428D02*
X12804819Y-17666666D01*
X12804819Y-17666666D02*
X12804819Y-17904761D01*
X12804819Y-17904761D02*
X12757200Y-17999999D01*
X12757200Y-17999999D02*
X12709580Y-18047618D01*
%TO.C,TP_COM16*%
D12*
X87450000Y-52000000D02*
G75*
G02*
X85550000Y-52000000I-950000J0D01*
G01*
X85550000Y-52000000D02*
G75*
G02*
X87450000Y-52000000I950000J0D01*
G01*
%TO.C,R_LO2*%
X85772936Y-75265000D02*
X86227064Y-75265000D01*
X85772936Y-76735000D02*
X86227064Y-76735000D01*
%TO.C,R_S16*%
X78805000Y-49227064D02*
X78805000Y-48772936D01*
X80275000Y-49227064D02*
X80275000Y-48772936D01*
%TO.C,J_PWR*%
X83320000Y-21500000D02*
X83320000Y-22500000D01*
X83320000Y-22500000D02*
X84320000Y-22000000D01*
X84320000Y-22000000D02*
X83320000Y-21500000D01*
X84710000Y-16790000D02*
X93830000Y-16790000D01*
X84710000Y-25030000D02*
X86020000Y-25030000D01*
X84710000Y-37370000D02*
X84710000Y-16790000D01*
X86020000Y-18090000D02*
X92520000Y-18090000D01*
X86020000Y-25030000D02*
X86020000Y-18090000D01*
X86020000Y-29130000D02*
X84710000Y-29130000D01*
X86020000Y-36070000D02*
X86020000Y-29130000D01*
X92520000Y-18090000D02*
X92520000Y-36070000D01*
X92520000Y-36070000D02*
X86020000Y-36070000D01*
X93830000Y-16790000D02*
X93830000Y-37370000D01*
X93830000Y-37370000D02*
X84710000Y-37370000D01*
%TO.C,C_BP12*%
X95765000Y-36261252D02*
X95765000Y-35738748D01*
X97235000Y-36261252D02*
X97235000Y-35738748D01*
%TO.C,R_SP13*%
X59772936Y-76765000D02*
X60227064Y-76765000D01*
X59772936Y-78235000D02*
X60227064Y-78235000D01*
%TO.C,R_SP10*%
X59772936Y-72765000D02*
X60227064Y-72765000D01*
X59772936Y-74235000D02*
X60227064Y-74235000D01*
%TO.C,R_SP15*%
X69772936Y-76765000D02*
X70227064Y-76765000D01*
X69772936Y-78235000D02*
X70227064Y-78235000D01*
%TO.C,JP_3V3*%
X81080000Y-46700000D02*
X83080000Y-46700000D01*
X81080000Y-49500000D02*
X81080000Y-46700000D01*
X83080000Y-46700000D02*
X83080000Y-49500000D01*
X83080000Y-49500000D02*
X81080000Y-49500000D01*
%TO.C,D2*%
X10040000Y-7000000D02*
X10040000Y-9860000D01*
X10040000Y-9860000D02*
X11960000Y-9860000D01*
X11960000Y-9860000D02*
X11960000Y-7000000D01*
%TO.C,R_LO3*%
X77665000Y-69827064D02*
X77665000Y-69372936D01*
X79135000Y-69827064D02*
X79135000Y-69372936D01*
%TO.C,R_LED2*%
X13265000Y-8227064D02*
X13265000Y-7772936D01*
X14735000Y-8227064D02*
X14735000Y-7772936D01*
%TO.C,U_MUX16*%
X84140000Y-54190000D02*
X91860000Y-54190000D01*
X84140000Y-54455000D02*
X84140000Y-54190000D01*
X84140000Y-69810000D02*
X84140000Y-69545000D01*
X91860000Y-54190000D02*
X91860000Y-54455000D01*
X91860000Y-69545000D02*
X91860000Y-69810000D01*
X91860000Y-69810000D02*
X84140000Y-69810000D01*
X83350000Y-54450000D02*
X83010000Y-53980000D01*
X83690000Y-53980000D01*
X83350000Y-54450000D01*
G36*
X83350000Y-54450000D02*
G01*
X83010000Y-53980000D01*
X83690000Y-53980000D01*
X83350000Y-54450000D01*
G37*
%TO.C,R_REFC1*%
X64772936Y-68765000D02*
X65227064Y-68765000D01*
X64772936Y-70235000D02*
X65227064Y-70235000D01*
%TO.C,D8*%
X10040000Y-31000000D02*
X10040000Y-33860000D01*
X10040000Y-33860000D02*
X11960000Y-33860000D01*
X11960000Y-33860000D02*
X11960000Y-31000000D01*
%TO.C,R_REFA1*%
X59772936Y-64765000D02*
X60227064Y-64765000D01*
X59772936Y-66235000D02*
X60227064Y-66235000D01*
%TO.C,SW1*%
X85750000Y-9500000D02*
X85750000Y-11000000D01*
X87000000Y-13500000D02*
X91500000Y-13500000D01*
X91500000Y-7000000D02*
X87000000Y-7000000D01*
X92750000Y-11000000D02*
X92750000Y-9500000D01*
%TO.C,RV2*%
X32130000Y-51380000D02*
X32130000Y-56100000D01*
X32130000Y-51380000D02*
X33620000Y-51380000D01*
X32130000Y-59910000D02*
X32130000Y-62970000D01*
X32130000Y-62970000D02*
X41870000Y-62970000D01*
X35340000Y-51380000D02*
X36170000Y-51380000D01*
X37790000Y-51380000D02*
X38320000Y-51380000D01*
X40690000Y-51380000D02*
X41870000Y-51380000D01*
X41870000Y-59910000D02*
X41870000Y-62970000D01*
X41880000Y-51380000D02*
X41880000Y-56100000D01*
%TO.C,C_BN12*%
X95765000Y-24261252D02*
X95765000Y-23738748D01*
X97235000Y-24261252D02*
X97235000Y-23738748D01*
%TO.C,TP_AGND*%
X10950000Y-66000000D02*
G75*
G02*
X9050000Y-66000000I-950000J0D01*
G01*
X9050000Y-66000000D02*
G75*
G02*
X10950000Y-66000000I950000J0D01*
G01*
%TO.C,R_LED6*%
X13265000Y-24227064D02*
X13265000Y-23772936D01*
X14735000Y-24227064D02*
X14735000Y-23772936D01*
%TO.C,R_REFC2*%
X69772936Y-68765000D02*
X70227064Y-68765000D01*
X69772936Y-70235000D02*
X70227064Y-70235000D01*
%TO.C,C_M8*%
X78245000Y-54991252D02*
X78245000Y-54468748D01*
X79715000Y-54991252D02*
X79715000Y-54468748D01*
%TO.C,R_REFB1*%
X69772936Y-64765000D02*
X70227064Y-64765000D01*
X69772936Y-66235000D02*
X70227064Y-66235000D01*
%TO.C,TP_AUDIO_L*%
X6950000Y-66000000D02*
G75*
G02*
X5050000Y-66000000I-950000J0D01*
G01*
X5050000Y-66000000D02*
G75*
G02*
X6950000Y-66000000I950000J0D01*
G01*
%TO.C,R_S8*%
X76265000Y-49227064D02*
X76265000Y-48772936D01*
X77735000Y-49227064D02*
X77735000Y-48772936D01*
%TO.C,C_COM16*%
X82761252Y-51265000D02*
X82238748Y-51265000D01*
X82761252Y-52735000D02*
X82238748Y-52735000D01*
%TO.C,RV3*%
X45630000Y-51380000D02*
X45630000Y-56100000D01*
X45630000Y-51380000D02*
X47120000Y-51380000D01*
X45630000Y-59910000D02*
X45630000Y-62970000D01*
X45630000Y-62970000D02*
X55370000Y-62970000D01*
X48840000Y-51380000D02*
X49670000Y-51380000D01*
X51290000Y-51380000D02*
X51820000Y-51380000D01*
X54190000Y-51380000D02*
X55370000Y-51380000D01*
X55370000Y-59910000D02*
X55370000Y-62970000D01*
X55380000Y-51380000D02*
X55380000Y-56100000D01*
%TO.C,R_REFA2*%
X64772936Y-64765000D02*
X65227064Y-64765000D01*
X64772936Y-66235000D02*
X65227064Y-66235000D01*
%TO.C,C_B3V3*%
X95765000Y-28261252D02*
X95765000Y-27738748D01*
X97235000Y-28261252D02*
X97235000Y-27738748D01*
%TO.C,J_AUDIO*%
X9400000Y-50140000D02*
X1380800Y-50140000D01*
X12600000Y-61860000D02*
X1380800Y-61860000D01*
X14910000Y-50140000D02*
X12400000Y-50140000D01*
X14910000Y-50140000D02*
X14910000Y-58700000D01*
%TO.C,D4*%
X10040000Y-15000000D02*
X10040000Y-17860000D01*
X10040000Y-17860000D02*
X11960000Y-17860000D01*
X11960000Y-17860000D02*
X11960000Y-15000000D01*
%TO.C,R_LED8*%
X13265000Y-32227064D02*
X13265000Y-31772936D01*
X14735000Y-32227064D02*
X14735000Y-31772936D01*
%TO.C,TP_3V3*%
X97450000Y-32000000D02*
G75*
G02*
X95550000Y-32000000I-950000J0D01*
G01*
X95550000Y-32000000D02*
G75*
G02*
X97450000Y-32000000I950000J0D01*
G01*
%TO.C,U_MUX8*%
X74440000Y-56940000D02*
X78560000Y-56940000D01*
X74440000Y-56995000D02*
X74440000Y-56940000D01*
X74440000Y-67060000D02*
X74440000Y-67005000D01*
X78560000Y-56940000D02*
X78560000Y-56995000D01*
X78560000Y-67005000D02*
X78560000Y-67060000D01*
X78560000Y-67060000D02*
X74440000Y-67060000D01*
X73900000Y-56990000D02*
X73660000Y-56660000D01*
X74140000Y-56660000D01*
X73900000Y-56990000D01*
G36*
X73900000Y-56990000D02*
G01*
X73660000Y-56660000D01*
X74140000Y-56660000D01*
X73900000Y-56990000D01*
G37*
%TO.C,R_SP14*%
X64772936Y-76765000D02*
X65227064Y-76765000D01*
X64772936Y-78235000D02*
X65227064Y-78235000D01*
%TO.C,TP_COM8*%
X74970000Y-55300000D02*
G75*
G02*
X73070000Y-55300000I-950000J0D01*
G01*
X73070000Y-55300000D02*
G75*
G02*
X74970000Y-55300000I950000J0D01*
G01*
%TO.C,R_LO1*%
X90772936Y-71265000D02*
X91227064Y-71265000D01*
X90772936Y-72735000D02*
X91227064Y-72735000D01*
%TO.C,TP_A3V3*%
X14950000Y-66000000D02*
G75*
G02*
X13050000Y-66000000I-950000J0D01*
G01*
X13050000Y-66000000D02*
G75*
G02*
X14950000Y-66000000I950000J0D01*
G01*
%TO.C,RV1*%
X18630000Y-51380000D02*
X18630000Y-56100000D01*
X18630000Y-51380000D02*
X20120000Y-51380000D01*
X18630000Y-59910000D02*
X18630000Y-62970000D01*
X18630000Y-62970000D02*
X28370000Y-62970000D01*
X21840000Y-51380000D02*
X22670000Y-51380000D01*
X24290000Y-51380000D02*
X24820000Y-51380000D01*
X27190000Y-51380000D02*
X28370000Y-51380000D01*
X28370000Y-59910000D02*
X28370000Y-62970000D01*
X28380000Y-51380000D02*
X28380000Y-56100000D01*
%TO.C,R_LED3*%
X13265000Y-12227064D02*
X13265000Y-11772936D01*
X14735000Y-12227064D02*
X14735000Y-11772936D01*
%TO.C,C_SR2*%
X6745000Y-17826252D02*
X6745000Y-17303748D01*
X8215000Y-17826252D02*
X8215000Y-17303748D01*
%TO.C,D1*%
X10040000Y-3000000D02*
X10040000Y-5860000D01*
X10040000Y-5860000D02*
X11960000Y-5860000D01*
X11960000Y-5860000D02*
X11960000Y-3000000D01*
%TO.C,C_SR1*%
X6745000Y-3186252D02*
X6745000Y-2663748D01*
X8215000Y-3186252D02*
X8215000Y-2663748D01*
%TO.C,D7*%
X10040000Y-27000000D02*
X10040000Y-29860000D01*
X10040000Y-29860000D02*
X11960000Y-29860000D01*
X11960000Y-29860000D02*
X11960000Y-27000000D01*
%TO.C,R_LED7*%
X13265000Y-28227064D02*
X13265000Y-27772936D01*
X14735000Y-28227064D02*
X14735000Y-27772936D01*
%TO.C,U_SM*%
D13*
X16000000Y-6000000D02*
X16000000Y-46000000D01*
D14*
X18825000Y-6015000D02*
X25175000Y-6015000D01*
X18825000Y-19985000D02*
X18825000Y-6015000D01*
X18825000Y-32015000D02*
X25175000Y-32015000D01*
X18825000Y-45985000D02*
X18825000Y-32015000D01*
X25175000Y-6015000D02*
X25175000Y-19985000D01*
X25175000Y-19985000D02*
X18825000Y-19985000D01*
X25175000Y-32015000D02*
X25175000Y-45985000D01*
X25175000Y-45985000D02*
X18825000Y-45985000D01*
X70015000Y-8825000D02*
X83985000Y-8825000D01*
X70015000Y-15175000D02*
X70015000Y-8825000D01*
X70015000Y-36825000D02*
X83985000Y-36825000D01*
X70015000Y-43175000D02*
X70015000Y-36825000D01*
X83985000Y-8825000D02*
X83985000Y-15175000D01*
X83985000Y-15175000D02*
X70015000Y-15175000D01*
X83985000Y-36825000D02*
X83985000Y-43175000D01*
X83985000Y-43175000D02*
X70015000Y-43175000D01*
D13*
X84000000Y-6000000D02*
X16000000Y-6000000D01*
X84000000Y-6000000D02*
X84000000Y-46000000D01*
X84000000Y-46000000D02*
X16000000Y-46000000D01*
%TO.C,U_SR2*%
D12*
X2940000Y-19825000D02*
X7060000Y-19825000D01*
X2940000Y-19880000D02*
X2940000Y-19825000D01*
X2940000Y-29945000D02*
X2940000Y-29890000D01*
X7060000Y-19825000D02*
X7060000Y-19880000D01*
X7060000Y-29890000D02*
X7060000Y-29945000D01*
X7060000Y-29945000D02*
X2940000Y-29945000D01*
X2400000Y-19875000D02*
X2160000Y-19545000D01*
X2640000Y-19545000D01*
X2400000Y-19875000D01*
G36*
X2400000Y-19875000D02*
G01*
X2160000Y-19545000D01*
X2640000Y-19545000D01*
X2400000Y-19875000D01*
G37*
%TO.C,C_IN1*%
X6745000Y-32466252D02*
X6745000Y-31943748D01*
X8215000Y-32466252D02*
X8215000Y-31943748D01*
%TO.C,C_BA3V3*%
X95765000Y-57261252D02*
X95765000Y-56738748D01*
X97235000Y-57261252D02*
X97235000Y-56738748D01*
%TO.C,R_HI2*%
X95772936Y-71265000D02*
X96227064Y-71265000D01*
X95772936Y-72735000D02*
X96227064Y-72735000D01*
%TO.C,R_SP12*%
X69772936Y-72765000D02*
X70227064Y-72765000D01*
X69772936Y-74235000D02*
X70227064Y-74235000D01*
%TO.C,TP_ADC11*%
X86950000Y-3000000D02*
G75*
G02*
X85050000Y-3000000I-950000J0D01*
G01*
X85050000Y-3000000D02*
G75*
G02*
X86950000Y-3000000I950000J0D01*
G01*
%TO.C,C_M16*%
X91915000Y-52261252D02*
X91915000Y-51738748D01*
X93385000Y-52261252D02*
X93385000Y-51738748D01*
%TO.C,RV5*%
X18630000Y-65880000D02*
X18630000Y-70600000D01*
X18630000Y-65880000D02*
X20120000Y-65880000D01*
X18630000Y-74410000D02*
X18630000Y-77470000D01*
X18630000Y-77470000D02*
X28370000Y-77470000D01*
X21840000Y-65880000D02*
X22670000Y-65880000D01*
X24290000Y-65880000D02*
X24820000Y-65880000D01*
X27190000Y-65880000D02*
X28370000Y-65880000D01*
X28370000Y-74410000D02*
X28370000Y-77470000D01*
X28380000Y-65880000D02*
X28380000Y-70600000D01*
%TO.C,R_BTN*%
X96265000Y-10227064D02*
X96265000Y-9772936D01*
X97735000Y-10227064D02*
X97735000Y-9772936D01*
%TO.C,R_HI4*%
X95765000Y-62227064D02*
X95765000Y-61772936D01*
X97235000Y-62227064D02*
X97235000Y-61772936D01*
%TO.C,JP_GND*%
X73460000Y-46700000D02*
X75460000Y-46700000D01*
X73460000Y-49500000D02*
X73460000Y-46700000D01*
X75460000Y-46700000D02*
X75460000Y-49500000D01*
X75460000Y-49500000D02*
X73460000Y-49500000D01*
%TO.C,D5*%
X10040000Y-19000000D02*
X10040000Y-21860000D01*
X10040000Y-21860000D02*
X11960000Y-21860000D01*
X11960000Y-21860000D02*
X11960000Y-19000000D01*
%TO.C,U_IN1*%
X2940000Y-34465000D02*
X7060000Y-34465000D01*
X2940000Y-34520000D02*
X2940000Y-34465000D01*
X2940000Y-44585000D02*
X2940000Y-44530000D01*
X7060000Y-34465000D02*
X7060000Y-34520000D01*
X7060000Y-44530000D02*
X7060000Y-44585000D01*
X7060000Y-44585000D02*
X2940000Y-44585000D01*
X2400000Y-34515000D02*
X2160000Y-34185000D01*
X2640000Y-34185000D01*
X2400000Y-34515000D01*
G36*
X2400000Y-34515000D02*
G01*
X2160000Y-34185000D01*
X2640000Y-34185000D01*
X2400000Y-34515000D01*
G37*
%TO.C,TP_GND*%
X94950000Y-3000000D02*
G75*
G02*
X93050000Y-3000000I-950000J0D01*
G01*
X93050000Y-3000000D02*
G75*
G02*
X94950000Y-3000000I950000J0D01*
G01*
%TO.C,RV7*%
X45630000Y-65880000D02*
X45630000Y-70600000D01*
X45630000Y-65880000D02*
X47120000Y-65880000D01*
X45630000Y-74410000D02*
X45630000Y-77470000D01*
X45630000Y-77470000D02*
X55370000Y-77470000D01*
X48840000Y-65880000D02*
X49670000Y-65880000D01*
X51290000Y-65880000D02*
X51820000Y-65880000D01*
X54190000Y-65880000D02*
X55370000Y-65880000D01*
X55370000Y-74410000D02*
X55370000Y-77470000D01*
X55380000Y-65880000D02*
X55380000Y-70600000D01*
%TO.C,C_COM8*%
X73285000Y-52061252D02*
X73285000Y-51538748D01*
X74755000Y-52061252D02*
X74755000Y-51538748D01*
%TO.C,R_LED4*%
X13265000Y-16227064D02*
X13265000Y-15772936D01*
X14735000Y-16227064D02*
X14735000Y-15772936D01*
%TO.C,R_LED1*%
X13265000Y-4227064D02*
X13265000Y-3772936D01*
X14735000Y-4227064D02*
X14735000Y-3772936D01*
%TO.C,D6*%
X10040000Y-23000000D02*
X10040000Y-25860000D01*
X10040000Y-25860000D02*
X11960000Y-25860000D01*
X11960000Y-25860000D02*
X11960000Y-23000000D01*
%TO.C,R_HI3*%
X90772936Y-75265000D02*
X91227064Y-75265000D01*
X90772936Y-76735000D02*
X91227064Y-76735000D01*
%TO.C,TP_ADC12*%
X90950000Y-3000000D02*
G75*
G02*
X89050000Y-3000000I-950000J0D01*
G01*
X89050000Y-3000000D02*
G75*
G02*
X90950000Y-3000000I950000J0D01*
G01*
%TO.C,D3*%
X10040000Y-11000000D02*
X10040000Y-13860000D01*
X10040000Y-13860000D02*
X11960000Y-13860000D01*
X11960000Y-13860000D02*
X11960000Y-11000000D01*
%TO.C,R_REFB2*%
X59772936Y-68765000D02*
X60227064Y-68765000D01*
X59772936Y-70235000D02*
X60227064Y-70235000D01*
%TO.C,RV4*%
X59130000Y-51380000D02*
X59130000Y-56100000D01*
X59130000Y-51380000D02*
X60620000Y-51380000D01*
X59130000Y-59910000D02*
X59130000Y-62970000D01*
X59130000Y-62970000D02*
X68870000Y-62970000D01*
X62340000Y-51380000D02*
X63170000Y-51380000D01*
X64790000Y-51380000D02*
X65320000Y-51380000D01*
X67690000Y-51380000D02*
X68870000Y-51380000D01*
X68870000Y-59910000D02*
X68870000Y-62970000D01*
X68880000Y-51380000D02*
X68880000Y-56100000D01*
%TO.C,R_LO4*%
X95765000Y-66227064D02*
X95765000Y-65772936D01*
X97235000Y-66227064D02*
X97235000Y-65772936D01*
%TO.C,U_SR1*%
X2940000Y-5185000D02*
X7060000Y-5185000D01*
X2940000Y-5240000D02*
X2940000Y-5185000D01*
X2940000Y-15305000D02*
X2940000Y-15250000D01*
X7060000Y-5185000D02*
X7060000Y-5240000D01*
X7060000Y-15250000D02*
X7060000Y-15305000D01*
X7060000Y-15305000D02*
X2940000Y-15305000D01*
X2400000Y-5235000D02*
X2160000Y-4905000D01*
X2640000Y-4905000D01*
X2400000Y-5235000D01*
G36*
X2400000Y-5235000D02*
G01*
X2160000Y-4905000D01*
X2640000Y-4905000D01*
X2400000Y-5235000D01*
G37*
%TO.C,R_HI1*%
X85772936Y-71265000D02*
X86227064Y-71265000D01*
X85772936Y-72735000D02*
X86227064Y-72735000D01*
%TO.C,TP_CLK*%
X97950000Y-4000000D02*
G75*
G02*
X96050000Y-4000000I-950000J0D01*
G01*
X96050000Y-4000000D02*
G75*
G02*
X97950000Y-4000000I950000J0D01*
G01*
%TO.C,RV6*%
X32130000Y-65880000D02*
X32130000Y-70600000D01*
X32130000Y-65880000D02*
X33620000Y-65880000D01*
X32130000Y-74410000D02*
X32130000Y-77470000D01*
X32130000Y-77470000D02*
X41870000Y-77470000D01*
X35340000Y-65880000D02*
X36170000Y-65880000D01*
X37790000Y-65880000D02*
X38320000Y-65880000D01*
X40690000Y-65880000D02*
X41870000Y-65880000D01*
X41870000Y-74410000D02*
X41870000Y-77470000D01*
X41880000Y-65880000D02*
X41880000Y-70600000D01*
%TO.C,R_SP11*%
X64772936Y-72765000D02*
X65227064Y-72765000D01*
X64772936Y-74235000D02*
X65227064Y-74235000D01*
%TO.C,R_LED5*%
X13265000Y-20227064D02*
X13265000Y-19772936D01*
X14735000Y-20227064D02*
X14735000Y-19772936D01*
%TD*%
M02*
