%TF.GenerationSoftware,KiCad,Pcbnew,10.0.5*%
%TF.CreationDate,2026-09-02T19:16:21+02:00*%
%TF.ProjectId,coupon,636f7570-6f6e-42e6-9b69-6361645f7063,rev?*%
%TF.SameCoordinates,Original*%
%TF.FileFunction,Copper,L4,Bot*%
%TF.FilePolarity,Positive*%
%FSLAX46Y46*%
G04 Gerber Fmt 4.6, Leading zero omitted, Abs format (unit mm)*
G04 Created by KiCad (PCBNEW 10.0.5) date 2026-09-02 19:16:21*
%MOMM*%
%LPD*%
G01*
G04 APERTURE LIST*
G04 Aperture macros list*
%AMRoundRect*
0 Rectangle with rounded corners*
0 $1 Rounding radius*
0 $2 $3 $4 $5 $6 $7 $8 $9 X,Y pos of 4 corners*
0 Add a 4 corners polygon primitive as box body*
4,1,4,$2,$3,$4,$5,$6,$7,$8,$9,$2,$3,0*
0 Add four circle primitives for the rounded corners*
1,1,$1+$1,$2,$3*
1,1,$1+$1,$4,$5*
1,1,$1+$1,$6,$7*
1,1,$1+$1,$8,$9*
0 Add four rect primitives between the rounded corners*
20,1,$1+$1,$2,$3,$4,$5,0*
20,1,$1+$1,$4,$5,$6,$7,0*
20,1,$1+$1,$6,$7,$8,$9,0*
20,1,$1+$1,$8,$9,$2,$3,0*%
%AMOutline5P*
0 Free polygon, 5 corners , with rotation*
0 The origin of the aperture is its center*
0 number of corners: always 5*
0 $1 to $10 corner X, Y*
0 $11 Rotation angle, in degrees counterclockwise*
0 create outline with 5 corners*
4,1,5,$1,$2,$3,$4,$5,$6,$7,$8,$9,$10,$1,$2,$11*%
%AMOutline6P*
0 Free polygon, 6 corners , with rotation*
0 The origin of the aperture is its center*
0 number of corners: always 6*
0 $1 to $12 corner X, Y*
0 $13 Rotation angle, in degrees counterclockwise*
0 create outline with 6 corners*
4,1,6,$1,$2,$3,$4,$5,$6,$7,$8,$9,$10,$11,$12,$1,$2,$13*%
%AMOutline7P*
0 Free polygon, 7 corners , with rotation*
0 The origin of the aperture is its center*
0 number of corners: always 7*
0 $1 to $14 corner X, Y*
0 $15 Rotation angle, in degrees counterclockwise*
0 create outline with 7 corners*
4,1,7,$1,$2,$3,$4,$5,$6,$7,$8,$9,$10,$11,$12,$13,$14,$1,$2,$15*%
%AMOutline8P*
0 Free polygon, 8 corners , with rotation*
0 The origin of the aperture is its center*
0 number of corners: always 8*
0 $1 to $16 corner X, Y*
0 $17 Rotation angle, in degrees counterclockwise*
0 create outline with 8 corners*
4,1,8,$1,$2,$3,$4,$5,$6,$7,$8,$9,$10,$11,$12,$13,$14,$15,$16,$1,$2,$17*%
G04 Aperture macros list end*
%TA.AperFunction,ComponentPad*%
%ADD10RoundRect,0.250000X-0.600000X-0.600000X0.600000X-0.600000X0.600000X0.600000X-0.600000X0.600000X0*%
%TD*%
%TA.AperFunction,ComponentPad*%
%ADD11C,1.700000*%
%TD*%
%TA.AperFunction,ComponentPad*%
%ADD12C,2.000000*%
%TD*%
%TA.AperFunction,ComponentPad*%
%ADD13O,2.720000X3.240000*%
%TD*%
%TA.AperFunction,ComponentPad*%
%ADD14R,1.800000X1.800000*%
%TD*%
%TA.AperFunction,ComponentPad*%
%ADD15C,1.800000*%
%TD*%
%TA.AperFunction,ComponentPad*%
%ADD16O,3.000000X1.500000*%
%TD*%
%TA.AperFunction,ComponentPad*%
%ADD17O,2.500000X3.500000*%
%TD*%
%TA.AperFunction,ComponentPad*%
%ADD18O,3.500000X2.500000*%
%TD*%
%TA.AperFunction,ComponentPad*%
%ADD19Outline8P,-0.939800X0.389278X-0.389278X0.939800X0.389278X0.939800X0.939800X0.389278X0.939800X-0.389278X0.389278X-0.939800X-0.389278X-0.939800X-0.939800X-0.389278X90.000000*%
%TD*%
%TA.AperFunction,ComponentPad*%
%ADD20Outline8P,-0.939800X0.389278X-0.389278X0.939800X0.389278X0.939800X0.939800X0.389278X0.939800X-0.389278X0.389278X-0.939800X-0.389278X-0.939800X-0.939800X-0.389278X0.000000*%
%TD*%
%TA.AperFunction,ViaPad*%
%ADD21C,0.600000*%
%TD*%
%TA.AperFunction,Conductor*%
%ADD22C,0.800000*%
%TD*%
%TA.AperFunction,Conductor*%
%ADD23C,0.250000*%
%TD*%
G04 APERTURE END LIST*
D10*
%TO.P,J_PWR,1*%
%TO.N,-12V*%
X88000000Y-22000000D03*
D11*
%TO.P,J_PWR,2*%
X90540000Y-22000000D03*
%TO.P,J_PWR,3*%
%TO.N,GND*%
X88000000Y-24540000D03*
%TO.P,J_PWR,4*%
X90540000Y-24540000D03*
%TO.P,J_PWR,5*%
X88000000Y-27080000D03*
%TO.P,J_PWR,6*%
X90540000Y-27080000D03*
%TO.P,J_PWR,7*%
%TO.N,N/C*%
X88000000Y-29620000D03*
%TO.P,J_PWR,8*%
X90540000Y-29620000D03*
%TO.P,J_PWR,9*%
%TO.N,+12V*%
X88000000Y-32160000D03*
%TO.P,J_PWR,10*%
X90540000Y-32160000D03*
%TD*%
D12*
%TO.P,SW1,1*%
%TO.N,BTN_1*%
X86000000Y-8000000D03*
X92500000Y-8000000D03*
%TO.P,SW1,2*%
%TO.N,GND*%
X86000000Y-12500000D03*
X92500000Y-12500000D03*
%TD*%
D13*
%TO.P,RV2,*%
%TO.N,*%
X41800000Y-58000000D03*
X32200000Y-58000000D03*
D14*
%TO.P,RV2,1*%
%TO.N,AGND*%
X39500000Y-50500000D03*
D15*
%TO.P,RV2,2*%
%TO.N,MUX16_CH2*%
X37000000Y-50500000D03*
%TO.P,RV2,3*%
%TO.N,A+3V3*%
X34500000Y-50500000D03*
%TD*%
D13*
%TO.P,RV3,*%
%TO.N,*%
X55300000Y-58000000D03*
X45700000Y-58000000D03*
D14*
%TO.P,RV3,1*%
%TO.N,AGND*%
X53000000Y-50500000D03*
D15*
%TO.P,RV3,2*%
%TO.N,MUX16_CH4*%
X50500000Y-50500000D03*
%TO.P,RV3,3*%
%TO.N,A+3V3*%
X48000000Y-50500000D03*
%TD*%
D16*
%TO.P,J_AUDIO,R*%
%TO.N,AUDIO_OUT_R*%
X10900000Y-51000000D03*
D17*
%TO.P,J_AUDIO,S*%
%TO.N,AGND*%
X2600000Y-56000000D03*
D18*
%TO.P,J_AUDIO,T*%
%TO.N,AUDIO_OUT_L*%
X6100000Y-60500000D03*
%TD*%
D13*
%TO.P,RV1,*%
%TO.N,*%
X28300000Y-58000000D03*
X18700000Y-58000000D03*
D14*
%TO.P,RV1,1*%
%TO.N,AGND*%
X26000000Y-50500000D03*
D15*
%TO.P,RV1,2*%
%TO.N,MUX16_CH0*%
X23500000Y-50500000D03*
%TO.P,RV1,3*%
%TO.N,A+3V3*%
X21000000Y-50500000D03*
%TD*%
D19*
%TO.P,U_SM,A1*%
%TO.N,-12V*%
X82080000Y-41270000D03*
%TO.P,U_SM,A2*%
%TO.N,SENSE_ADC9_MUX16*%
X79540000Y-41270000D03*
%TO.P,U_SM,A3*%
%TO.N,SENSE_ADC10_MUX8*%
X77000000Y-41270000D03*
%TO.P,U_SM,A4*%
%TO.N,GND*%
X74460000Y-41270000D03*
%TO.P,U_SM,A5*%
%TO.N,+12V*%
X71920000Y-41270000D03*
%TO.P,U_SM,A6*%
%TO.N,N/C*%
X71920000Y-38730000D03*
%TO.P,U_SM,A7*%
%TO.N,GND*%
X74460000Y-38730000D03*
%TO.P,U_SM,A8*%
%TO.N,N/C*%
X77000000Y-38730000D03*
%TO.P,U_SM,A9*%
X79540000Y-38730000D03*
%TO.P,U_SM,A10*%
%TO.N,+3V3*%
X82080000Y-38730000D03*
D20*
%TO.P,U_SM,B1*%
%TO.N,AUDIO_OUT_R*%
X20730000Y-44080000D03*
%TO.P,U_SM,B2*%
%TO.N,AUDIO_OUT_L*%
X20730000Y-41540000D03*
%TO.P,U_SM,B3*%
%TO.N,N/C*%
X20730000Y-39000000D03*
%TO.P,U_SM,B4*%
X20730000Y-36460000D03*
%TO.P,U_SM,B5*%
X20730000Y-33920000D03*
%TO.P,U_SM,B6*%
X23270000Y-33920000D03*
%TO.P,U_SM,B7*%
%TO.N,SR_DATA_OUT*%
X23270000Y-36460000D03*
%TO.P,U_SM,B8*%
%TO.N,SR_CLK*%
X23270000Y-39000000D03*
%TO.P,U_SM,B9*%
%TO.N,N/C*%
X23270000Y-41540000D03*
%TO.P,U_SM,B10*%
X23270000Y-44080000D03*
%TO.P,U_SM,C1*%
X20730000Y-18080000D03*
%TO.P,U_SM,C2*%
X20730000Y-15540000D03*
%TO.P,U_SM,C3*%
X20730000Y-13000000D03*
%TO.P,U_SM,C4*%
X20730000Y-10460000D03*
%TO.P,U_SM,C5*%
X20730000Y-7920000D03*
%TO.P,U_SM,C6*%
X23270000Y-7920000D03*
%TO.P,U_SM,C7*%
X23270000Y-10460000D03*
%TO.P,U_SM,C8*%
X23270000Y-13000000D03*
%TO.P,U_SM,C9*%
X23270000Y-15540000D03*
%TO.P,U_SM,C10*%
X23270000Y-18080000D03*
D19*
%TO.P,U_SM,D1*%
%TO.N,SR_LATCH*%
X82080000Y-13270000D03*
%TO.P,U_SM,D2*%
%TO.N,N/C*%
X79540000Y-13270000D03*
%TO.P,U_SM,D3*%
X77000000Y-13270000D03*
%TO.P,U_SM,D4*%
X74460000Y-13270000D03*
%TO.P,U_SM,D5*%
X71920000Y-13270000D03*
%TO.P,U_SM,D6*%
X71920000Y-10730000D03*
%TO.P,U_SM,D7*%
X74460000Y-10730000D03*
%TO.P,U_SM,D8*%
%TO.N,SENSE_ADC11_TP*%
X77000000Y-10730000D03*
%TO.P,U_SM,D9*%
%TO.N,SENSE_ADC12_TP*%
X79540000Y-10730000D03*
%TO.P,U_SM,D10*%
%TO.N,SR_DATA_IN*%
X82080000Y-10730000D03*
%TD*%
D13*
%TO.P,RV5,*%
%TO.N,*%
X28300000Y-72500000D03*
X18700000Y-72500000D03*
D14*
%TO.P,RV5,1*%
%TO.N,AGND*%
X26000000Y-65000000D03*
D15*
%TO.P,RV5,2*%
%TO.N,MUX8_CH0*%
X23500000Y-65000000D03*
%TO.P,RV5,3*%
%TO.N,A+3V3*%
X21000000Y-65000000D03*
%TD*%
D13*
%TO.P,RV7,*%
%TO.N,*%
X55300000Y-72500000D03*
X45700000Y-72500000D03*
D14*
%TO.P,RV7,1*%
%TO.N,AGND*%
X53000000Y-65000000D03*
D15*
%TO.P,RV7,2*%
%TO.N,MUX8_CH4*%
X50500000Y-65000000D03*
%TO.P,RV7,3*%
%TO.N,A+3V3*%
X48000000Y-65000000D03*
%TD*%
D13*
%TO.P,RV4,*%
%TO.N,*%
X68800000Y-58000000D03*
X59200000Y-58000000D03*
D14*
%TO.P,RV4,1*%
%TO.N,AGND*%
X66500000Y-50500000D03*
D15*
%TO.P,RV4,2*%
%TO.N,MUX16_CH6*%
X64000000Y-50500000D03*
%TO.P,RV4,3*%
%TO.N,A+3V3*%
X61500000Y-50500000D03*
%TD*%
D13*
%TO.P,RV6,*%
%TO.N,*%
X41800000Y-72500000D03*
X32200000Y-72500000D03*
D14*
%TO.P,RV6,1*%
%TO.N,AGND*%
X39500000Y-65000000D03*
D15*
%TO.P,RV6,2*%
%TO.N,MUX8_CH2*%
X37000000Y-65000000D03*
%TO.P,RV6,3*%
%TO.N,A+3V3*%
X34500000Y-65000000D03*
%TD*%
D21*
%TO.N,-12V*%
X85000000Y-22000000D03*
%TO.N,SENSE_ADC9_MUX16*%
X79540000Y-46200000D03*
%TO.N,SENSE_ADC10_MUX8*%
X77000000Y-46200000D03*
%TO.N,GND*%
X8475000Y-24250000D03*
X15000000Y-7000000D03*
X7480000Y-887500D03*
X74460000Y-46450000D03*
X97500000Y-26962500D03*
X8475000Y-38890000D03*
X15000000Y-27000000D03*
X15000000Y-23000000D03*
X96500000Y-21962500D03*
X1525000Y-38890000D03*
X15000000Y-19000000D03*
X1525000Y-40160000D03*
X8475000Y-36350000D03*
X96500000Y-33962500D03*
X15000000Y-11000000D03*
X2525000Y-15690000D03*
X95000000Y-3000000D03*
X1525000Y-37620000D03*
X15000000Y-15000000D03*
X8475000Y-37620000D03*
X8475000Y-40160000D03*
X2525000Y-44970000D03*
X7480000Y-30167500D03*
X8475000Y-9610000D03*
X14000000Y-2000000D03*
X1525000Y-41430000D03*
X7480000Y-15527500D03*
X8475000Y-42700000D03*
X15000000Y-31000000D03*
X2525000Y-30330000D03*
%TO.N,+3V3*%
X7480000Y-34242500D03*
X97000000Y-12000000D03*
X7480000Y-4962500D03*
X7475000Y-3800000D03*
X82080000Y-46450000D03*
X96500000Y-30037500D03*
X7475000Y-33080000D03*
X7480000Y-19602500D03*
X97500000Y-32000000D03*
X8475000Y-13420000D03*
X8475000Y-28060000D03*
X7475000Y-18440000D03*
%TO.N,SR_DATA_OUT*%
X6000000Y-7700000D03*
%TO.N,SR_CLK*%
X9700000Y-35500000D03*
X5300000Y-36350000D03*
%TO.N,SR_LATCH*%
X6000000Y-26400000D03*
X5300000Y-34400000D03*
X6000000Y-11520000D03*
%TO.N,SENSE_ADC11_TP*%
X88000000Y-5500000D03*
X86500000Y-3000000D03*
%TO.N,SENSE_ADC12_TP*%
X88750000Y-3500000D03*
X88750000Y-9400000D03*
%TO.N,SR_DATA_IN*%
X9000000Y-45000000D03*
%TO.N,MUX16_CH6*%
X85100000Y-57555000D03*
%TO.N,MUX16_CH4*%
X85100000Y-60095000D03*
%TO.N,MUX16_CH2*%
X85100000Y-62635000D03*
%TO.N,MUX16_CH0*%
X85100000Y-65175000D03*
%TO.N,MUX_A0*%
X5300000Y-4530000D03*
X84500000Y-66444999D03*
X79900000Y-63905000D03*
%TO.N,MUX_A1*%
X84500000Y-67715000D03*
X57000000Y-66250000D03*
X57000000Y-63600000D03*
X79900000Y-65175000D03*
X5300000Y-5800000D03*
%TO.N,AGND*%
X84000000Y-76000000D03*
X78400000Y-71600000D03*
X58000000Y-77500000D03*
X72000000Y-69500000D03*
X62000000Y-69500000D03*
X83350000Y-69985000D03*
X96500000Y-54962500D03*
X73025000Y-65175000D03*
X89000000Y-72000000D03*
X96500000Y-68000000D03*
X68000000Y-73500000D03*
X74025000Y-67445000D03*
X74460000Y-49750000D03*
X74020000Y-48762500D03*
X63000000Y-73500000D03*
X67000000Y-65500000D03*
X78980000Y-52692500D03*
X11000000Y-66000000D03*
X80462500Y-52000000D03*
X58000000Y-73500000D03*
X63000000Y-77500000D03*
X92650000Y-49962500D03*
X68000000Y-77500000D03*
%TO.N,MUX_A3*%
X69500000Y-53500000D03*
X81200000Y-53500000D03*
X5300000Y-8340000D03*
X94000000Y-68985000D03*
X94750000Y-77200000D03*
X20000000Y-52800000D03*
%TO.N,MUX_A2*%
X94000000Y-67715000D03*
X80550000Y-62900000D03*
X5300000Y-7070000D03*
X95650000Y-78000000D03*
%TO.N,MUX16_EN_N*%
X18500000Y-52150000D03*
X94000000Y-66444999D03*
X5300000Y-9610000D03*
X68500000Y-52150000D03*
%TO.N,MUX16_CH15*%
X71000000Y-77500000D03*
X90000000Y-65175000D03*
%TO.N,MUX16_CH14*%
X90000000Y-63905000D03*
X66000000Y-78150000D03*
%TO.N,MUX16_CH13*%
X61000000Y-78800000D03*
X90000000Y-62635000D03*
%TO.N,MUX16_CH12*%
X90000000Y-61365000D03*
X71000000Y-75100000D03*
%TO.N,MUX16_CH11*%
X66000000Y-74900000D03*
X90000000Y-60095000D03*
%TO.N,MUX16_CH10*%
X90000000Y-58825000D03*
X61000000Y-72800000D03*
%TO.N,MUX16_CH9*%
X90000000Y-57555000D03*
X57700000Y-70900000D03*
X72680000Y-70900000D03*
%TO.N,MUX16_CH8*%
X90000000Y-56285000D03*
X62500000Y-67200000D03*
%TO.N,A+3V3*%
X78975000Y-55555000D03*
X63000000Y-69500000D03*
X68000000Y-65500000D03*
X58000000Y-65500000D03*
X97500000Y-63000000D03*
X92650000Y-53015000D03*
X84000000Y-72000000D03*
X94000000Y-72000000D03*
X78980000Y-56767500D03*
X92650000Y-54037500D03*
X15000000Y-66000000D03*
X96500000Y-59037500D03*
X89000000Y-76000000D03*
X82080000Y-49750000D03*
%TO.N,MUX8_CH4*%
X74300000Y-68850000D03*
%TO.N,MUX8_CH6*%
X74700000Y-68100000D03*
X67500000Y-68100000D03*
%TO.N,MUX8_CH7*%
X94200000Y-65000000D03*
X72000000Y-51700000D03*
%TO.N,MUX8_CH5*%
X95000000Y-61400000D03*
X71200000Y-50600000D03*
%TO.N,MUX8_EN_N*%
X6000000Y-46600000D03*
X70500000Y-46600000D03*
%TO.N,MUX8_CH0*%
X77800000Y-75900000D03*
%TO.N,MUX8_CH1*%
X92000000Y-79000000D03*
X92000000Y-76400000D03*
%TO.N,MUX8_CH2*%
X37000000Y-76700000D03*
X75700000Y-76700000D03*
%TO.N,LED_1*%
X12500000Y-2975000D03*
X5300000Y-12150000D03*
%TO.N,LED_2*%
X12500000Y-6975000D03*
X5300000Y-13420000D03*
%TO.N,LED_4*%
X12500000Y-14975000D03*
X5300000Y-20440000D03*
%TO.N,LED_5*%
X12500000Y-18975000D03*
X5300000Y-21710000D03*
%TO.N,LED_6*%
X12500000Y-22980000D03*
X5300000Y-22980000D03*
%TO.N,LED_7*%
X5300000Y-24250000D03*
X12500000Y-26975000D03*
%TO.N,LED_8*%
X12500000Y-30975000D03*
X5300000Y-25520000D03*
%TO.N,LED_3*%
X12500000Y-10975000D03*
X6000000Y-19600000D03*
%TO.N,BTN_1*%
X10200000Y-42000000D03*
%TD*%
%TO.N,-12V*%
D22*
X85000000Y-22000000D02*
X88000000Y-22000000D01*
%TO.N,SENSE_ADC9_MUX16*%
D23*
X79540000Y-46200000D02*
X79540000Y-41270000D01*
%TO.N,SENSE_ADC10_MUX8*%
X77000000Y-46200000D02*
X77000000Y-41270000D01*
%TO.N,SR_DATA_OUT*%
X26000000Y-36460000D02*
X26000000Y-1300000D01*
X9500000Y-1300000D02*
X9500000Y-1750000D01*
X6000000Y-1750000D02*
X6000000Y-7700000D01*
X26000000Y-1300000D02*
X9500000Y-1300000D01*
X9500000Y-1750000D02*
X6000000Y-1750000D01*
X23270000Y-36460000D02*
X26000000Y-36460000D01*
%TO.N,SR_CLK*%
X9700000Y-35500000D02*
X5300000Y-35500000D01*
X5300000Y-35500000D02*
X5300000Y-36350000D01*
%TO.N,SR_LATCH*%
X4500000Y-47400000D02*
X84000000Y-47400000D01*
X4500000Y-34400000D02*
X4500000Y-47400000D01*
X4500000Y-34400000D02*
X5300000Y-34400000D01*
X4500000Y-11520000D02*
X4500000Y-26400000D01*
X4500000Y-26400000D02*
X4500000Y-34400000D01*
X6000000Y-11520000D02*
X4500000Y-11520000D01*
X84000000Y-47400000D02*
X84000000Y-16000000D01*
X84000000Y-16000000D02*
X82080000Y-16000000D01*
X4500000Y-26400000D02*
X6000000Y-26400000D01*
X82080000Y-16000000D02*
X82080000Y-13270000D01*
%TO.N,SENSE_ADC11_TP*%
X88000000Y-3000000D02*
X86500000Y-3000000D01*
X88000000Y-5500000D02*
X88000000Y-3000000D01*
%TO.N,SENSE_ADC12_TP*%
X88750000Y-9400000D02*
X88750000Y-3500000D01*
%TO.N,SR_DATA_IN*%
X9000000Y-46000000D02*
X9000000Y-45000000D01*
X68000000Y-46000000D02*
X9000000Y-46000000D01*
X82080000Y-6500000D02*
X68000000Y-6500000D01*
X68000000Y-6500000D02*
X68000000Y-46000000D01*
X82080000Y-10730000D02*
X82080000Y-6500000D01*
%TO.N,MUX16_CH6*%
X64000000Y-60600000D02*
X64000000Y-50500000D01*
X84000000Y-57555000D02*
X84000000Y-60600000D01*
X84000000Y-60600000D02*
X64000000Y-60600000D01*
X85100000Y-57555000D02*
X84000000Y-57555000D01*
%TO.N,MUX16_CH4*%
X50500000Y-61050000D02*
X50500000Y-50500000D01*
X85100000Y-60095000D02*
X84450000Y-60095000D01*
X84450000Y-61050000D02*
X50500000Y-61050000D01*
X84450000Y-60095000D02*
X84450000Y-61050000D01*
%TO.N,MUX16_CH2*%
X83550000Y-62635000D02*
X83550000Y-61500000D01*
X85100000Y-62635000D02*
X83550000Y-62635000D01*
X83550000Y-61500000D02*
X37000000Y-61500000D01*
X37000000Y-61500000D02*
X37000000Y-50500000D01*
%TO.N,MUX16_CH0*%
X83100000Y-65175000D02*
X83100000Y-61950000D01*
X23500000Y-61950000D02*
X23500000Y-50500000D01*
X85100000Y-65175000D02*
X83100000Y-65175000D01*
X83100000Y-61950000D02*
X23500000Y-61950000D01*
%TO.N,MUX_A0*%
X15750000Y-58200000D02*
X15750000Y-63300000D01*
X81200000Y-66000000D02*
X84500000Y-66000000D01*
X55500000Y-64500000D02*
X81200000Y-64500000D01*
X79900000Y-63905000D02*
X81200000Y-63905000D01*
X900000Y-4530000D02*
X900000Y-58200000D01*
X900000Y-58200000D02*
X15750000Y-58200000D01*
X81200000Y-63905000D02*
X81200000Y-66000000D01*
X15750000Y-63300000D02*
X55500000Y-63300000D01*
X84500000Y-66000000D02*
X84500000Y-66444999D01*
X55500000Y-63300000D02*
X55500000Y-64500000D01*
X5300000Y-4530000D02*
X900000Y-4530000D01*
%TO.N,MUX_A1*%
X1800000Y-36000000D02*
X2600000Y-36000000D01*
X2600000Y-43000000D02*
X1800000Y-43000000D01*
X56000000Y-62850000D02*
X56000000Y-63600000D01*
X57000000Y-66250000D02*
X80750000Y-66250000D01*
X1800000Y-43000000D02*
X1800000Y-53700000D01*
X16200000Y-53700000D02*
X16200000Y-62850000D01*
X84500000Y-67200000D02*
X84500000Y-67715000D01*
X5300000Y-5800000D02*
X1800000Y-5800000D01*
X1800000Y-5800000D02*
X1800000Y-36000000D01*
X80750000Y-67200000D02*
X84500000Y-67200000D01*
X56000000Y-63600000D02*
X57000000Y-63600000D01*
X16200000Y-62850000D02*
X56000000Y-62850000D01*
X80750000Y-65175000D02*
X80750000Y-67200000D01*
X2600000Y-36000000D02*
X2600000Y-43000000D01*
X1800000Y-53700000D02*
X16200000Y-53700000D01*
X79900000Y-65175000D02*
X80750000Y-65175000D01*
%TO.N,MUX_A3*%
X3600000Y-52800000D02*
X20000000Y-52800000D01*
X94750000Y-77200000D02*
X94750000Y-68985000D01*
X3600000Y-8340000D02*
X3600000Y-52800000D01*
X5300000Y-8340000D02*
X3600000Y-8340000D01*
X69500000Y-53500000D02*
X81200000Y-53500000D01*
X94750000Y-68985000D02*
X94000000Y-68985000D01*
%TO.N,MUX_A2*%
X16649999Y-53250000D02*
X16649999Y-62400000D01*
X70000000Y-62900000D02*
X80550000Y-62900000D01*
X5300000Y-7070000D02*
X3150000Y-7070000D01*
X3150000Y-53250000D02*
X16649999Y-53250000D01*
X95650000Y-78000000D02*
X95650000Y-67715000D01*
X70000000Y-62400000D02*
X70000000Y-62900000D01*
X16649999Y-62400000D02*
X70000000Y-62400000D01*
X95650000Y-67715000D02*
X94000000Y-67715000D01*
X3150000Y-7070000D02*
X3150000Y-53250000D01*
%TO.N,MUX16_EN_N*%
X4050000Y-52150000D02*
X18500000Y-52150000D01*
X5300000Y-9610000D02*
X4050000Y-9610000D01*
X93500000Y-54750000D02*
X93500000Y-66444999D01*
X68500000Y-52150000D02*
X68500000Y-54750000D01*
X68500000Y-54750000D02*
X93500000Y-54750000D01*
X93500000Y-66444999D02*
X94000000Y-66444999D01*
X4050000Y-9610000D02*
X4050000Y-52150000D01*
%TO.N,MUX16_CH15*%
X90000000Y-65175000D02*
X87975000Y-65175000D01*
X87975000Y-77500000D02*
X71000000Y-77500000D01*
X71000000Y-77500000D02*
X71000000Y-77500000D01*
X87975000Y-65175000D02*
X87975000Y-77500000D01*
%TO.N,MUX16_CH14*%
X66000000Y-78150000D02*
X66000000Y-78150000D01*
X90700000Y-78150000D02*
X66000000Y-78150000D01*
X90700000Y-63905000D02*
X90700000Y-78150000D01*
X90000000Y-63905000D02*
X90700000Y-63905000D01*
%TO.N,MUX16_CH13*%
X90000000Y-62635000D02*
X91150000Y-62635000D01*
X61000000Y-78800000D02*
X61000000Y-78800000D01*
X91150000Y-62635000D02*
X91150000Y-78800000D01*
X91150000Y-78800000D02*
X61000000Y-78800000D01*
%TO.N,MUX16_CH12*%
X71000000Y-75100000D02*
X71000000Y-75100000D01*
X90000000Y-61365000D02*
X87525000Y-61365000D01*
X87525000Y-61365000D02*
X87525000Y-75100000D01*
X87525000Y-75100000D02*
X71000000Y-75100000D01*
%TO.N,MUX16_CH11*%
X66000000Y-74400000D02*
X66000000Y-74900000D01*
X87075000Y-74400000D02*
X66000000Y-74400000D01*
X87075000Y-60095000D02*
X87075000Y-74400000D01*
X90000000Y-60095000D02*
X87075000Y-60095000D01*
%TO.N,MUX16_CH10*%
X86625000Y-72800000D02*
X61000000Y-72800000D01*
X90000000Y-58825000D02*
X86625000Y-58825000D01*
X61000000Y-72800000D02*
X61000000Y-72800000D01*
X86625000Y-58825000D02*
X86625000Y-72800000D01*
%TO.N,MUX16_CH9*%
X72680000Y-70900000D02*
X57700000Y-70900000D01*
X86175000Y-70900000D02*
X72680000Y-70900000D01*
X90000000Y-57555000D02*
X86175000Y-57555000D01*
X86175000Y-57555000D02*
X86175000Y-70900000D01*
%TO.N,MUX16_CH8*%
X76500000Y-66800000D02*
X62500000Y-66800000D01*
X90000000Y-56285000D02*
X85725000Y-56285000D01*
X62500000Y-66800000D02*
X62500000Y-67200000D01*
X85725000Y-56285000D02*
X85725000Y-68400000D01*
X85725000Y-68400000D02*
X76500000Y-68400000D01*
X76500000Y-68400000D02*
X76500000Y-66800000D01*
%TO.N,MUX8_CH4*%
X50500000Y-68850000D02*
X50500000Y-65000000D01*
X74300000Y-68850000D02*
X50500000Y-68850000D01*
%TO.N,MUX8_CH6*%
X74700000Y-68100000D02*
X67500000Y-68100000D01*
%TO.N,MUX8_CH7*%
X72000000Y-51700000D02*
X72000000Y-51050000D01*
X94200000Y-51050000D02*
X94200000Y-65000000D01*
X72000000Y-51050000D02*
X94200000Y-51050000D01*
%TO.N,MUX8_CH5*%
X95000000Y-50600000D02*
X95000000Y-61400000D01*
X71200000Y-50600000D02*
X95000000Y-50600000D01*
%TO.N,MUX8_EN_N*%
X6000000Y-46600000D02*
X70500000Y-46600000D01*
%TO.N,MUX8_CH0*%
X23500000Y-75900000D02*
X23500000Y-65000000D01*
X77800000Y-75900000D02*
X23500000Y-75900000D01*
%TO.N,MUX8_CH1*%
X92000000Y-79000000D02*
X92000000Y-76400000D01*
%TO.N,MUX8_CH2*%
X75700000Y-76700000D02*
X37000000Y-76700000D01*
%TO.N,LED_1*%
X10200000Y-12150000D02*
X10200000Y-2975000D01*
X5300000Y-12150000D02*
X10200000Y-12150000D01*
X10200000Y-2975000D02*
X12500000Y-2975000D01*
%TO.N,LED_2*%
X5900000Y-13420000D02*
X5900000Y-12600000D01*
X10650000Y-12600000D02*
X10650000Y-6975000D01*
X10650000Y-6975000D02*
X12500000Y-6975000D01*
X5900000Y-12600000D02*
X10650000Y-12600000D01*
X5300000Y-13420000D02*
X5900000Y-13420000D01*
%TO.N,LED_4*%
X11550000Y-14975000D02*
X12500000Y-14975000D01*
X11550000Y-20440000D02*
X11550000Y-14975000D01*
X5300000Y-20440000D02*
X11550000Y-20440000D01*
%TO.N,LED_5*%
X12000000Y-18975000D02*
X12500000Y-18975000D01*
X12000000Y-21710000D02*
X12000000Y-18975000D01*
X5300000Y-21710000D02*
X12000000Y-21710000D01*
%TO.N,LED_6*%
X11100000Y-22980000D02*
X12500000Y-22980000D01*
X5300000Y-22980000D02*
X11100000Y-22980000D01*
%TO.N,LED_7*%
X11100000Y-24950000D02*
X11100000Y-26975000D01*
X5300000Y-24250000D02*
X5900000Y-24250000D01*
X5900000Y-24250000D02*
X5900000Y-24950000D01*
X5900000Y-24950000D02*
X11100000Y-24950000D01*
X11100000Y-26975000D02*
X12500000Y-26975000D01*
%TO.N,LED_8*%
X10500000Y-30975000D02*
X12500000Y-30975000D01*
X10500000Y-25520000D02*
X10500000Y-30975000D01*
X5300000Y-25520000D02*
X10500000Y-25520000D01*
%TO.N,LED_3*%
X6000000Y-16500000D02*
X11100000Y-16500000D01*
X11100000Y-16500000D02*
X11100000Y-10975000D01*
X11100000Y-10975000D02*
X12500000Y-10975000D01*
X6000000Y-19600000D02*
X6000000Y-16500000D01*
%TO.N,BTN_1*%
X84500000Y-5500000D02*
X27000000Y-5500000D01*
X86000000Y-8000000D02*
X84500000Y-8000000D01*
X27000000Y-5500000D02*
X27000000Y-45500000D01*
X84500000Y-8000000D02*
X84500000Y-5500000D01*
X10200000Y-45500000D02*
X10200000Y-42000000D01*
X27000000Y-45500000D02*
X10200000Y-45500000D01*
%TD*%
M02*
