M48
; DRILL file KiCad 10.0.5 date 2026-09-02T19:16:22
; FORMAT={-:-/ absolute / metric / decimal}
; #@! TF.CreationDate,2026-09-02T19:16:22+02:00
; #@! TF.GenerationSoftware,Kicad,Pcbnew,10.0.5
; #@! TF.FileFunction,MixedPlating,1,4
FMAT,2
METRIC
; #@! TA.AperFunction,Plated,PTH,ViaDrill
T1C0.300
; #@! TA.AperFunction,Plated,PTH,ComponentDrill
T2C1.000
; #@! TA.AperFunction,Plated,PTH,ComponentDrill
T3C1.016
; #@! TA.AperFunction,Plated,PTH,ComponentDrill
T4C1.100
%
G90
G05
T1
X1.525Y-37.62
X1.525Y-38.89
X1.525Y-40.16
X1.525Y-41.43
X2.525Y-15.69
X2.525Y-30.33
X2.525Y-44.97
X5.3Y-4.53
X5.3Y-5.8
X5.3Y-7.07
X5.3Y-8.34
X5.3Y-9.61
X5.3Y-12.15
X5.3Y-13.42
X5.3Y-20.44
X5.3Y-21.71
X5.3Y-22.98
X5.3Y-24.25
X5.3Y-25.52
X5.3Y-34.4
X5.3Y-36.35
X6.0Y-7.7
X6.0Y-11.52
X6.0Y-19.6
X6.0Y-26.4
X6.0Y-46.6
X7.475Y-3.8
X7.475Y-18.44
X7.475Y-33.08
X7.48Y-0.887
X7.48Y-4.962
X7.48Y-15.527
X7.48Y-19.602
X7.48Y-30.167
X7.48Y-34.242
X8.475Y-9.61
X8.475Y-13.42
X8.475Y-24.25
X8.475Y-28.06
X8.475Y-36.35
X8.475Y-37.62
X8.475Y-38.89
X8.475Y-40.16
X8.475Y-42.7
X9.0Y-45.0
X9.7Y-35.5
X10.2Y-42.0
X11.0Y-66.0
X12.5Y-2.975
X12.5Y-6.975
X12.5Y-10.975
X12.5Y-14.975
X12.5Y-18.975
X12.5Y-22.98
X12.5Y-26.975
X12.5Y-30.975
X14.0Y-2.0
X15.0Y-7.0
X15.0Y-11.0
X15.0Y-15.0
X15.0Y-19.0
X15.0Y-23.0
X15.0Y-27.0
X15.0Y-31.0
X15.0Y-66.0
X18.5Y-52.15
X20.0Y-52.8
X37.0Y-76.7
X57.0Y-63.6
X57.0Y-66.25
X57.7Y-70.9
X58.0Y-65.5
X58.0Y-73.5
X58.0Y-77.5
X61.0Y-72.8
X61.0Y-78.8
X62.0Y-69.5
X62.5Y-67.2
X63.0Y-69.5
X63.0Y-73.5
X63.0Y-77.5
X66.0Y-74.9
X66.0Y-78.15
X67.0Y-65.5
X67.5Y-68.1
X68.0Y-65.5
X68.0Y-73.5
X68.0Y-77.5
X68.5Y-52.15
X69.5Y-53.5
X70.5Y-46.6
X71.0Y-75.1
X71.0Y-77.5
X71.2Y-50.6
X72.0Y-51.7
X72.0Y-69.5
X72.68Y-70.9
X73.025Y-65.175
X74.02Y-48.762
X74.025Y-67.445
X74.3Y-68.85
X74.46Y-46.45
X74.46Y-49.75
X74.7Y-68.1
X75.7Y-76.7
X77.0Y-46.2
X77.8Y-75.9
X78.4Y-71.6
X78.975Y-55.555
X78.98Y-52.692
X78.98Y-56.767
X79.54Y-46.2
X79.9Y-63.905
X79.9Y-65.175
X80.462Y-52.0
X80.55Y-62.9
X81.2Y-53.5
X82.08Y-46.45
X82.08Y-49.75
X83.35Y-69.985
X84.0Y-72.0
X84.0Y-76.0
X84.5Y-66.445
X84.5Y-67.715
X85.0Y-22.0
X85.1Y-57.555
X85.1Y-60.095
X85.1Y-62.635
X85.1Y-65.175
X86.5Y-3.0
X88.0Y-5.5
X88.75Y-3.5
X88.75Y-9.4
X89.0Y-72.0
X89.0Y-76.0
X90.0Y-56.285
X90.0Y-57.555
X90.0Y-58.825
X90.0Y-60.095
X90.0Y-61.365
X90.0Y-62.635
X90.0Y-63.905
X90.0Y-65.175
X92.0Y-76.4
X92.0Y-79.0
X92.65Y-49.962
X92.65Y-53.015
X92.65Y-54.037
X94.0Y-66.445
X94.0Y-67.715
X94.0Y-68.985
X94.0Y-72.0
X94.2Y-65.0
X94.75Y-77.2
X95.0Y-3.0
X95.0Y-61.4
X95.65Y-78.0
X96.5Y-21.962
X96.5Y-30.037
X96.5Y-33.962
X96.5Y-54.962
X96.5Y-59.037
X96.5Y-68.0
X97.0Y-12.0
X97.5Y-26.962
X97.5Y-32.0
X97.5Y-63.0
T2
X21.0Y-50.5
X21.0Y-65.0
X23.5Y-50.5
X23.5Y-65.0
X26.0Y-50.5
X26.0Y-65.0
X34.5Y-50.5
X34.5Y-65.0
X37.0Y-50.5
X37.0Y-65.0
X39.5Y-50.5
X39.5Y-65.0
X48.0Y-50.5
X48.0Y-65.0
X50.5Y-50.5
X50.5Y-65.0
X53.0Y-50.5
X53.0Y-65.0
X61.5Y-50.5
X64.0Y-50.5
X66.5Y-50.5
X88.0Y-22.0
X88.0Y-24.54
X88.0Y-27.08
X88.0Y-29.62
X88.0Y-32.16
X90.54Y-22.0
X90.54Y-24.54
X90.54Y-27.08
X90.54Y-29.62
X90.54Y-32.16
T3
X20.73Y-7.92
X20.73Y-10.46
X20.73Y-13.0
X20.73Y-15.54
X20.73Y-18.08
X20.73Y-33.92
X20.73Y-36.46
X20.73Y-39.0
X20.73Y-41.54
X20.73Y-44.08
X23.27Y-7.92
X23.27Y-10.46
X23.27Y-13.0
X23.27Y-15.54
X23.27Y-18.08
X23.27Y-33.92
X23.27Y-36.46
X23.27Y-39.0
X23.27Y-41.54
X23.27Y-44.08
X71.92Y-10.73
X71.92Y-13.27
X71.92Y-38.73
X71.92Y-41.27
X74.46Y-10.73
X74.46Y-13.27
X74.46Y-38.73
X74.46Y-41.27
X77.0Y-10.73
X77.0Y-13.27
X77.0Y-38.73
X77.0Y-41.27
X79.54Y-10.73
X79.54Y-13.27
X79.54Y-38.73
X79.54Y-41.27
X82.08Y-10.73
X82.08Y-13.27
X82.08Y-38.73
X82.08Y-41.27
T4
X86.0Y-8.0
X86.0Y-12.5
X92.5Y-8.0
X92.5Y-12.5
T2
X2.6Y-55.5G85X2.6Y-56.5
G05
X5.6Y-60.5G85X6.6Y-60.5
G05
X10.4Y-51.0G85X11.4Y-51.0
G05
T4
X18.7Y-57.65G85X18.7Y-58.35
G05
X18.7Y-72.15G85X18.7Y-72.85
G05
X28.3Y-57.65G85X28.3Y-58.35
G05
X28.3Y-72.15G85X28.3Y-72.85
G05
X32.2Y-57.65G85X32.2Y-58.35
G05
X32.2Y-72.15G85X32.2Y-72.85
G05
X41.8Y-57.65G85X41.8Y-58.35
G05
X41.8Y-72.15G85X41.8Y-72.85
G05
X45.7Y-57.65G85X45.7Y-58.35
G05
X45.7Y-72.15G85X45.7Y-72.85
G05
X55.3Y-57.65G85X55.3Y-58.35
G05
X55.3Y-72.15G85X55.3Y-72.85
G05
X59.2Y-57.65G85X59.2Y-58.35
G05
X68.8Y-57.65G85X68.8Y-58.35
G05
M30
